/* XPM */
static char *result[] = {
/* columns rows colors chars-per-pixel */
"64 64 126 2 ",
"   c black",
".  c #0C0C0C",
"X  c gray7",
"o  c #D7D7D7",
"O  c #202020",
"+  c gray96",
"@  c #626262",
"#  c #070707",
"$  c #090909",
"%  c gray97",
"&  c #151515",
"*  c #232323",
"=  c #C1C1C1",
"-  c gray3",
";  c #010101",
":  c gray5",
">  c #818181",
",  c gray4",
"<  c #0B0B0B",
"1  c gray6",
"2  c white",
"3  c gray85",
"4  c #414141",
"5  c gray9",
"6  c #4C4C4C",
"7  c #E9E9E9",
"8  c gray78",
"9  c #1D1D1D",
"0  c #F3F3F3",
"q  c #282828",
"w  c gray56",
"e  c #060509",
"r  c #050407",
"t  c #854735",
"y  c #E07645",
"u  c #7A4D3F",
"i  c #020102",
"p  c #020202",
"a  c #06080D",
"s  c #643A36",
"d  c #541A4B",
"f  c #280047",
"g  c #2D0054",
"h  c #621A63",
"j  c #6B3E3A",
"k  c #0B0910",
"l  c #4E4E4E",
"z  c #010203",
"x  c #090B13",
"c  c #9B6642",
"v  c #5B244F",
"b  c #07000C",
"n  c #1A0030",
"m  c #3B006C",
"M  c #682467",
"N  c #13101E",
"B  c #030305",
"V  c #07060B",
"C  c #3F312E",
"Z  c #A68046",
"A  c #E6854C",
"S  c #34005F",
"D  c #A79A8D",
"F  c #3F302E",
"G  c #100E19",
"H  c #0C0A13",
"J  c #6F582B",
"K  c #A6862D",
"L  c #A5862D",
"P  c #6E572A",
"I  c #181425",
"U  c #BE9436",
"Y  c #F6B64B",
"T  c #EFA243",
"R  c #EB983E",
"E  c #784945",
"W  c #79464F",
"Q  c #864667",
"!  c #6E5729",
"~  c #534120",
"^  c #7C6522",
"/  c #917628",
"(  c gray59",
")  c #14101E",
"_  c #3F3328",
"`  c #A4862D",
"'  c #A4862C",
"]  c #A4842C",
"[  c #F1BD4C",
"{  c #CE8C64",
"}  c #C28C4C",
"|  c #BC8C40",
" . c #3E3227",
".. c #060606",
"X. c #464646",
"o. c #08060C",
"O. c #120F1C",
"+. c #775640",
"@. c #6D2F69",
"#. c #602F51",
"$. c #110E1A",
"%. c gray28",
"&. c #A67F46",
"*. c #FDCE5F",
"=. c #6D6A75",
"-. c #2A2A2A",
";. c gray29",
":. c #111111",
">. c gray8",
",. c #393939",
"<. c #EEEEEE",
"1. c gray30",
"2. c #CACACA",
"3. c #747474",
"4. c #7E7E7E",
"5. c #808080",
"6. c #6A6A6A",
"7. c #040404",
"8. c #373737",
"9. c gray87",
"0. c #777777",
"q. c #272727",
"w. c #8B8B8B",
"e. c gray33",
"r. c gray82",
"t. c #222222",
/* pixels */
"      .                                                                                                                       X ",
"                                                                  o                                                             ",
"                                                                                                                                ",
"                                                                                                        O                       ",
"                                                                                    +                                           ",
"                                                                                                                          @     ",
"                                                                              #                               $                 ",
"                                                                                            %                                   ",
"                                                                                                                            &   ",
"                                                                                                                                ",
"                                                                                                                                ",
"                                                                                                                                ",
"                *                                                                                                               ",
"                                  =                                                   -                                         ",
";           :                       >                                                                                           ",
"  ,                                                                                                                             ",
"                                                                                                                                ",
"  <                                                                                                                             ",
"                                          1                 2                                                       3           ",
"                                                  4   5       O 6                                                               ",
"                                                                  7                                                             ",
"    8                                           9                                                                               ",
"                                                                                                                                ",
"                                                          0                                                                     ",
"                            q                                                                                             X     ",
"                            <         w                                                                                         ",
"                                            8                                                                                   ",
"                  ;     X                                   e e e r                                                             ",
"                                        .                   t y y u i                                                           ",
"p                                       >       -       a s d f g h j k                                                         ",
"                                    l               z x c v b n g m M c N i                               p                     ",
"                                  e e r         B V C Z A f n S m g g A D F G             e e                                   ",
"                                H J K L L L P I P U Y T R E W Q Q W E R T Y U ! I ~ ^ / L L J           (                       ",
"                                r e e e e e e e ) _ ` ' ] [ { } | } [ ] ] ]  .e           i e                                   ",
"                              ..X.              r e o.O.I +.@.g f #.+.) $.k B                                   %.              ",
"                                                        r H &.*.*.&.=.i                       -.                                ",
"                                                            B e B                                                           ;.  ",
"                                                                                                                    1           ",
"                                                                  .                         :.                                  ",
"                  .                                                                                                             ",
"      1                                                                                                                         ",
"                    >.                                                                                                          ",
"                                                                                                                                ",
"                                                                                                                                ",
"                                                                                                                                ",
"                                                                                        ,.        #                             ",
"                                                                        <.                                                      ",
"                                      <                                 1.                                                      ",
"                                                            1                                                                   ",
"                                                                                                                              4 ",
"                                                                                                                                ",
"                                                                                                                                ",
"                                                                                                                                ",
"                                      2.                                                                                :       ",
"                                            ;                                                                                   ",
"                                  ;                                                                                             ",
"        3.                                                4.                                                                    ",
"                          5.                                          #       #   6.                      ;                     ",
"                                                                                          <           9                         ",
"                            7.                8.                    9.        0.                                      -         ",
"        q.                  w.                                                                                                  ",
"                              -                                           e.                                                    ",
"                                                          r.                                                    t.              ",
"                                                                                                                                "
};
