/* XPM */
static char *result[] = {
/* columns rows colors chars-per-pixel */
"64 64 171 2 ",
"   c #000000",
".  c #060509",
"X  c #08070A",
"o  c #0B0A0C",
"O  c #0E0C13",
"+  c #0A0012",
"@  c #100E13",
"#  c #120F1A",
"$  c #0D141A",
"%  c #141116",
"&  c #1B1817",
"*  c #19161A",
"=  c #1D1A1D",
"-  c #15141C",
";  c #221E1F",
":  c #1C1825",
">  c #221E22",
",  c #252223",
"<  c #2A2526",
"1  c #2A262C",
"2  c #2E282C",
"3  c #242028",
"4  c #312C2C",
"5  c #33302D",
"6  c #3A342F",
"7  c #2D2B37",
"8  c #332E31",
"9  c #352C3B",
"0  c #2F3232",
"q  c #363032",
"w  c #3B3534",
"e  c #3E3836",
"r  c #3D313D",
"t  c #373A3C",
"y  c #423536",
"u  c #413A37",
"i  c #44363D",
"p  c #453B3A",
"a  c #4A3B3B",
"s  c #474036",
"d  c #47403A",
"f  c #4D433A",
"g  c #50403E",
"h  c #51493E",
"j  c #746035",
"k  c #260046",
"l  c #3B3E40",
"z  c #3A3949",
"x  c #2D3B49",
"c  c #3A0068",
"v  c #443640",
"b  c #463941",
"n  c #4B3C42",
"m  c #423F4C",
"M  c #513F42",
"N  c #42007B",
"B  c #7B266D",
"V  c #3C4142",
"C  c #33414B",
"Z  c #3A464E",
"A  c #3E4456",
"S  c #2C4E64",
"D  c #2F5064",
"F  c #335264",
"G  c #3E5763",
"H  c #3E5E7B",
"J  c #434242",
"K  c #4C4046",
"L  c #45424D",
"P  c #4B434C",
"I  c #484C4E",
"U  c #534144",
"Y  c #594545",
"T  c #524449",
"R  c #53494D",
"E  c #5A4A4E",
"W  c #5B4847",
"Q  c #464A5A",
"!  c #4C4E5A",
"~  c #424D50",
"^  c #5F4E50",
"/  c #574C50",
"(  c #52515B",
")  c #644646",
"_  c #614C46",
"`  c #624C49",
"'  c #6A4E49",
"]  c #734D49",
"[  c #794D4A",
"{  c #655048",
"}  c #6C534B",
"|  c #7B534C",
" . c #7A594E",
".. c #755749",
"X. c #6D5C5C",
"o. c #7C614F",
"O. c #7F6450",
"+. c #425763",
"@. c #425F7B",
"#. c #48627A",
"$. c #536879",
"%. c #656361",
"&. c #7D6C69",
"*. c #76747A",
"=. c #843574",
"-. c #8D5A4F",
";. c #825D52",
":. c #955D50",
">. c #896B53",
",. c #976051",
"<. c #996252",
"1. c #956C57",
"2. c #9B7859",
"3. c #A2755B",
"4. c #BB7259",
"5. c #A6695A",
"6. c #8C4476",
"7. c #806F6A",
"8. c #8B7A75",
"9. c #966C64",
"0. c #AB6774",
"q. c #AA6A65",
"w. c #C27D54",
"e. c #AB943C",
"r. c #D1BD3F",
"t. c #AA895E",
"y. c #A7865D",
"u. c #A8896E",
"i. c #B28F65",
"p. c #C2835C",
"a. c #D1BE41",
"s. c #E2BE5D",
"d. c #CB9A67",
"f. c #D1B86D",
"g. c #D1AC6C",
"h. c #E6BE6F",
"j. c #F7B76F",
"k. c #F4A765",
"l. c #DFC84F",
"z. c #F9C95B",
"x. c #DFCC75",
"c. c #FBD868",
"v. c #FBE36F",
"b. c #4C008B",
"n. c #56009B",
"m. c #386F8F",
"M. c #3D718E",
"N. c #287EAA",
"B. c #43738C",
"V. c #6F7B82",
"C. c #8E268F",
"Z. c #973595",
"A. c #9C4498",
"S. c #B86795",
"D. c #2C80A9",
"F. c #3C86A4",
"G. c #529399",
"H. c #26A5CF",
"J. c #43E8E9",
"K. c #868686",
"L. c #9D8C83",
"P. c #899096",
"I. c #AA998F",
"U. c #AC9B90",
"Y. c #ECBE91",
"T. c #FFEC8B",
"R. c #D3C3B2",
"E. c #D2D1D4",
"W. c gray78",
"Q. c #F9D9C1",
"!. c #FCE5C8",
/* pixels */
"      o                                                                                                                       % ",
"                                                  O % , < 4 4 4 4 %.4 < < > * o .                                               ",
"                                            o < e w u u u q H.w u w q u u e w u w = .                                           ",
"                                      . % s p q q e 8 q q D.J.N.4 8 q q 8 8 e 8 q u d %                 ,                       ",
"                                  . ; e d 8 w w q 8 q 8 q w H.8 8 w w q 8 q N.q w q q d w =                                     ",
"                                O w u e w q q q 8 q q q a a a a a a a i a q q 8 q q q w e u w &                           %.    ",
"                              = u u 8 q q u q z a a a a n n n n n n n n n a a a a 8 u 8 q 8 p u 1 .           X                 ",
"                          X 6 p w 8 w 8 y y a n X.&.7.L.U.U.U.U.U.U.U.U.L.&.7.X.a n y p q w 8 w p u %                           ",
"                        % s e 8 w y w y a b E 7.L.U.U.o.n K n U M M n b %.U.U.L.7.` v b i a w q 8 e s =                     %   ",
"                      < u e D q 8 8 i n b I.L.7.^ b m n n n U n n M U n n n n ^ 7.L.I.n n b i 8 q 8 e e ;                       ",
"                  . 4 u w 8 8 q i v n &.R.v b b b n n n Y n n U T n n Y n n n b v n v R.&.n v b p 8 q w u &                     ",
"                  2 u e 8 8 w y b X.I.8.n n b b n n n U n n n n U n n n M n n n v v B.b 8.u.} n v p 2 q e u @                   ",
"                1 u q 8 D q a b 8.P.b b v n n n b U U W M U Y U ( U U M Y U M n n n b b b b >.;.v v a 8 t t l X                 ",
"              o p e 8 8 8 a X.U.8./ b n n v n U T #.U W W Y U U U U W W W U K U U M b b n b M ;.3.` a b x C Z t                 ",
"            o 5 e q 8 w i X.8.v b v b b n n M U U U v                     b M U U M n n b b v b b | ) m L S D Z q               ",
"  o         o p 8 q q y v U.b b b b b n M M W M v                             v U W M M n b n v n b ,.b L +.D.D ~ -             ",
"            4 w w 8 a b 8.8.v v M n v U ` U r                                     i U ` U i n n i v [ [ m m +.F Z J o           ",
"  o       & u q w i i X.8.E v n n v Y { n                                           9 n { Y v n n v M | ) v m R C J 5           ",
"        X u q w w v n U.v v b v v Y W r                                                 r $.U n v b n b ,.a m n J 8 u %         ",
"        4 w q w y P &.8.n n n n U ' r                                                     r ' U n n b n | ] n v i q e w         ",
"      % s w q u b b R.n v b n M ` n 9                                                     7 n ` M n n v b 4.n v n 8 w d %       ",
"    W.f q q w Q v U.v n b b n n U 9                                                         9 M M n v n n v :.v v g q 8 s       ",
"    % u q q q a E L.b v n M U W r                                                             r Y M n Q b v -.Y n a q q u %     ",
"    2 8 e q a b 7.&.n n n U U M                                                                 M U U M b n ] ] n n p e 4 q .   ",
"    u q q 8 a X.L.^ b n n U U v                                                                 i U M n n a W -.) n a q 8 u @   ",
"  o w e 8 a b 7.U.b n M M K M                                                                     M n M n n n 3. .i b y w w :   ",
"  * u 8 q a n 7.U.n n n U Y v                                                                     i U U n b n 3. .n n a 8 G <   ",
"  2 u 8 8 a a L.X.n n M U W                                                                         W U M n n } 1.v b y 8 p 8 X ",
"  w e q q i n I.n n Y n U W                                 p.k.k.p.                                W n n W n n 3.n n p q e w o ",
"O u q q a n n t.n T n M U U                               5.B c N C.5.                              Y U B.n n n u.n Q n q q e % ",
"X u l 8 p n n t.M U n n W U                             d.=.+ k N n.Z.d.                            a Y n n U M U.v n n 8 w u # ",
"X u e 8 y n n t.n n U K U M                         ..f.j.c k b.n.N N j.f...                        g U n U n n U.n n v 8 e u % ",
"o u w 8 y n M t.n n R U U U       e.a.a.a.a.e.  e.x.!.!.Q.q.0.S.S.0.q.z.c.c.l.e.  e.a.a.a.a.e.      U U U U n n U.n n b 8 w u - ",
"X p w 8 a n n t.U U b n Y U                       *.E.E.E.v.Y.h.s.x.v.r.r.r.j                       g U n n U n U.n n n 8 q u % ",
". u w q a a n t.n n n M U Y                               i.A.N c 6.i.                              U U n n K n U.n #.n q q u % ",
"  q w q p b n y.n n U n M W                                 f.T.T.f.                                ` a a W n n I.n n b q e q % ",
"  4 u 8 +.b b 2.} n n K W T                                                                         Y Y a n Q X.L.n n b 8 u q @ ",
"  > u 8 y i n  .3.n n n U U i                                                                     i U U #.n n U.&.n b i 8 u 2 O ",
"  : w w 8 a n  .3.v n U U U n                                                                     U n n #.n n U.&.n n y e w 1 X ",
"  O u 8 q i b ' 1.W n n b U U v                                                                 A R T M.G.B.^ L.X.n b p q i :   ",
"  . w 8 e a n b  . .n b M M U M                                                                 ! R T n M.v 7.7.b n n g 8 w @   ",
"    = u q J i n M 1.b b n M M W r                                                             z R R K n @.n L./ n v n u u 4     ",
"      f 8 q M b v 3.v n n v n M U                                                             U K K v n n v U.v v M a 8 f :     ",
"      = s w 8 b v v d.n v v n M W n                                                         a ` M n v v n R.v n b F.q d 1 X     ",
"      . u e q i v n V.| n n n n U ` r                                                     r ` U n n n v 8.&.b v b a w u #       ",
"        : u q g n @.G.9.b v b v i Y Y r                                                 r Y U v v n v n I.n v b n w u 2 .       ",
"          w u y a n m.) | M v n n n Y ' n 9                                         9 n ` U n n Q v E 8.X.v n n n u w :         ",
"          X e w a b v n [ [ b v n n b T { U r                                     r U W U a n n v i 8.8.n v v a p u 8 o         ",
"            * p 8 a n v v :.b b v n v n M M Y M v .                           v n W n U n b b b n v U.b v n n y p 2 :           ",
"              6 w u i n b ) | b n b b n n n R M M M i                     i M U U U n n b b b b v 8.X.b b v i p d : X         J ",
"              . p e q i b n ) :.[ M b n n v n ! T T R E W U U U U U Y W W U K U U M v b n b Y >.y.} n v v i e s 2 o             ",
"                = u w w v n b i [ | b b v n n M L R R R U U Y U U U U M Y U U b n n n v Q b >.>.b v n v b w u 2 O               ",
"                  2 u e y i b v b ) :.| n n b b P #.P P n M n U U n n U K n n n i b n n >.y.} b v n i i a u 4 .                 ",
"                  X e u w q m n b i n ] 4.v b m L P P K Y n n U U b n Y n a K a n b v g.o.n v b b i i w u F .           o       ",
"                    o q u V Z P L m v n b :.-.| E m T P n n U n n ( n n K K a W O.2.y.b n b b b n i w u < .                     ",
"                      . 7 +.Z F L K n b b b T ] -.<.3.' K n n K n K n n } t.t.2.>.Y n i b n n n i p d &                         ",
"        *.                $ V Z ~ d n b b b n n ) |  .1.3.3.3.3.3.3.3.3.1.O.O.} b n v v b n a a f +.X                           ",
"                          K.  $ q u w a n K b a b b n b n n n n n n n n n n b n n n K n i a u u <                               ",
"                                  % u e a a a n b b b n n b n n n n n n n b b b n a a a a u e =       =                         ",
"                            .       X q p 8 u g n b b b b n n b b n n b v n v n n u q d u 4 O                         X         ",
"        <                   K.          * h u 8 q e 8 8 n n i b b i b b y 8 e 8 8 u U 3 @                                       ",
"                              o           . % , 4 w u u e q q w w w w e u u w u w = o                                           ",
"                                                    . & q u u u u u e w q 2 1 : X                               ,               ",
"                                                          o % % % - # % # + X                                                   "
};
