/* XPM */
static char *result[] = {
/* columns rows colors chars-per-pixel */
"64 64 155 2 ",
"   c black",
".  c #0A0012",
"X  c #181425",
"o  c #1D1827",
"O  c #1F1B28",
"+  c #171E33",
"@  c #201C29",
"#  c #1C2535",
"$  c #25202B",
"%  c #2A252D",
"&  c #2E282F",
"*  c #302A2F",
"=  c #332D31",
"-  c #362D3B",
";  c #2A323B",
":  c #363032",
">  c #3B3534",
",  c #3E3836",
"<  c #31353D",
"1  c #3D313D",
"2  c #423536",
"3  c #413A37",
"4  c #44363D",
"5  c #453B3A",
"6  c #4A3B3B",
"7  c #47403A",
"8  c #4E423A",
"9  c #50403E",
"0  c #51493E",
"q  c #756136",
"w  c #260046",
"e  c #182A43",
"r  c #133B5F",
"t  c #2B3949",
"y  c #3B3E40",
"u  c #3A0068",
"i  c #443640",
"p  c #463941",
"a  c #4B3C42",
"s  c #423F4C",
"d  c #513F42",
"f  c #42007B",
"g  c #7B266D",
"h  c #3F4242",
"j  c #33414B",
"k  c #3A464E",
"l  c #2B4D64",
"z  c #335265",
"x  c #3C5564",
"c  c #3C5A67",
"v  c #444443",
"b  c #4C4046",
"n  c #45424D",
"m  c #4B434C",
"M  c #474A4B",
"N  c #534144",
"B  c #594545",
"V  c #5B4847",
"C  c #524449",
"Z  c #53494D",
"A  c #5A4A4E",
"S  c #434E50",
"D  c #464A5A",
"F  c #4C4E5A",
"G  c #574C50",
"H  c #5F4E50",
"J  c #52515B",
"K  c #644646",
"L  c #614C46",
"P  c #624C49",
"I  c #6A4E49",
"U  c #734D49",
"Y  c #794D4A",
"T  c #655048",
"R  c #6C534B",
"E  c #7B534C",
"W  c #7A594E",
"Q  c #6D5C5C",
"!  c #7C614F",
"~  c #7F6450",
"^  c #435461",
"/  c #425F68",
"(  c #425F7B",
")  c #48627A",
"_  c #536879",
"`  c #7D6C69",
"'  c #76727E",
"]  c #843574",
"[  c #8D5A4F",
"{  c #825D52",
"}  c #955D50",
"|  c #886953",
" . c #8A6D53",
".. c #976051",
"X. c #996252",
"o. c #956C57",
"O. c #9B7159",
"+. c #9C7C59",
"@. c #A6695A",
"#. c #A2755B",
"$. c #BB7259",
"%. c #8C4476",
"&. c #806F6A",
"*. c #966C64",
"=. c #8B7A75",
"-. c #AA6A65",
";. c #AB6774",
":. c #AB953D",
">. c #D1BD3F",
",. c #AA895E",
"<. c #A8896E",
"1. c #B28F65",
"2. c #C2835C",
"3. c #D1BE41",
"4. c #CB9A67",
"5. c #D1AC6C",
"6. c #D1B86D",
"7. c #F4A765",
"8. c #E6BE6F",
"9. c #F7B76F",
"0. c #DFC84F",
"q. c #F9C95B",
"w. c #FBD566",
"e. c #FBE36F",
"r. c #4C008B",
"t. c #56009B",
"y. c #386F8F",
"u. c #3D718E",
"i. c #0B6FAE",
"p. c #287EAA",
"a. c #43738C",
"s. c #6F7B82",
"d. c #8E268F",
"f. c #973595",
"g. c #9C4498",
"h. c #B86795",
"j. c #2C80A9",
"k. c #3C86A4",
"l. c #529399",
"z. c #0099DB",
"x. c #26A5CF",
"c. c #43E8E9",
"v. c #9D8C83",
"b. c #899096",
"n. c #AA998F",
"m. c #AC9B90",
"M. c #ACAAB0",
"N. c #ECBE91",
"B. c #FFEC8B",
"V. c #D1C3A1",
"C. c #D3C3B2",
"Z. c #D1CCBC",
"A. c #FDE6B2",
"S. c #D2D2D4",
"D. c #E0DAD5",
/* pixels */
"X X X X X X X X X X X X X X X X X X X X X X X X X X o O @ $ $ $ $ $ $ ; # X X X X X X X X X X X X X X X X X X X X X X X X X X X ",
"X X X X X X X X X X X X X X X X X X X X X X X o O % & = > 3 5 5 3 5 3 , : & % @ X X X X X r X X X X X X X X X X X X X X X X X X ",
"X X X X X X X X X X X X X X X X X X X r X X & > , > , 5 , : x.2 , : : , , , , , , & o X X X X X X X X X X X X X X X X X X X X X ",
"X X X X r X X X X X X X X X X X X X o X % 0 3 = : , = = > j.c.p.: & : : : = , : = 3 0 % X X X X X X X X X X X X X X z.X X X X X ",
"X X X X X X X X X X X X X X X X X o = 3 7 = > , : = : = : > x.: = , > : = : j.: 2 : : 7 3 * @ X X X X i.X X X X X X X X X X X X ",
"X X X X X X X X X X X X X X X X = , 5 > > : = - : : = > 4 6 6 6 6 6 6 6 5 : : : : : : : , 3 , = o X X X X X X X X X X X X X X X ",
"X X X X X X X X X X X X X X X % 3 3 = : = 3 : y 5 6 6 6 a a a a p p a a a 6 5 6 6 = 3 : : = 3 3 * @ X X X X X X X X X X z.X X X ",
"X X X X X X X X X X X X o % 7 3 > = , = 2 2 6 a Q ` &.v.n.m.m.m.m.m.m.n.v.` ` Q a p 2 2 : , = > 5 7 & o X X X X X X X X X X X X ",
"X X X X X X + X X X X o & 7 , * : 2 > 2 6 p A &.v.m.m.! p a N a d d a p ` n.n.v.` A p p 4 4 > , * , 7 * o X r X X X X X X X X X ",
"X X X X X X X X X X o : 3 , z : = - 4 a p n.v.&.H a s a a a N a a N N a a b 4 H &.v.n.p a p 2 = : : , , : o X X X X X X X X X X ",
"X X X X X X X X X X , 3 , = * > i i a ` C.p p p a a a a B a a N N a a B a a a a p p 4 C.&.a i p 5 & : > 5 , o X X X X X X X X X ",
"X X X X X X X o o : 3 , = & , , p Q n.=.a a p p a a a N 6 b a b N a a a a a a a p p a.p =.<.R a p 6 & = , , : o X X X X X X X X ",
"X X X X X X X o = 2 > = l : 6 p =.b.i p i a a d p N N B N N B N J B N N B N N p a a a i p p | { 5 i 3 = < h h * o X X X X X X X ",
"X X X X X X X & 5 , : & : 6 Q n.=.G p a i i d B N ) N B V B N N N N B V B N a N N d p p p p d { #.I a p t j k v $ X X X X X X . ",
"X X X X X X O 7 , = = > 4 Q =.p i i a a a a d d B N p                     p N N N N a a a p i p p E K s m l l k M o o X X X X X ",
"X X X X X o * 5 = : : 2 p n.p p i a i a d d d d y                             i N B d d a p p p p p ..p n ^ j.l S < o X X X X X ",
"X X X X X & 3 > > = 4 p =.=.p p d p p N P N 1                                     1 N P N p a a p p Y Y s m ^ x k h = X X X X X ",
"X X X X X > 3 : 2 2 p Q =.A i a p p B T a                                           - a T B p p p p d E K p s M t v > o X X X X ",
"X X X X = 3 : > 2 4 p m.4 p p p p N B 1                                                 1 _ N 6 p p p p X.p s a v = 5 = X X X X ",
"X X X X , , : : 4 m ` =.p p a a B I 1                                                     1 I N a p a a Y U a p 6 : , 3 X X X X ",
"X X X % 7 : : 3 p p C.p i p a d P a                                                         a L d a p i a $.p p p : > 5 % X X X ",
"X X X 0 : : , D p n.p a a p a d N -                                                           N d d p a a i } p p 9 : = 0 o i.X ",
"X X & 3 > : : p G v.p p a a N V 1                                                             1 B d a F p p [ N p 6 > : , & X X ",
"X o , * , : 6 p &.&.p a a N N a                                                                 d d N a p p U U p p 5 > : > o X ",
"X @ 3 = : = 6 Q v.H a p p N N i                                                                 4 N N p p a B [ K a 4 > = 3 o X ",
"X % : 3 = 6 p ` m.p d a N a N                                                                     d d 6 a a p #.W p 6 2 2 > % X ",
"X & 3 = : 6 a ` m.a a a N B 4                                                                     4 N N d a a #.W a p 6 = c * o ",
"@ : 3 = : 6 a v.` a a d B B                                                                         B B b a a R o.p a 2 = 5 = o ",
"$ : , : : 6 a m.4 p N a N V                                 2.7.7.2.                                B d d B a a #.a 6 5 : > > $ ",
"$ 3 : : 6 p a ,.a a a d N B                               @.g u f d.@.                              B N a.a a a <.a D a : > , $ ",
"$ 5 y * 6 b 6 ,.N N a a B N                             4.] . w f t.f.4.                            d N a a N a m.p b a * : 5 $ ",
"$ 5 , = 2 6 a ,.a a N b N N                         W 6.9.u w r.t.f f 9.V.'                         N 9 a N a a m.a a i : , 5 $ ",
"$ 5 , = 2 a a ,.d a Z N N N       :.3.3.3.3.:.  :.0.w.w.q.-.;.h.h.;.-.q.w.A.D.M.  M.S.3.3.3.:.      N N b N a a n.a a p = > 5 $ ",
"$ 3 > * 6 a a ,.a b a a B N                       q 0.>.3.e.N.8.6.q.e.3.>.Z.'                       9 N a a N a n.a a a = > 5 $ ",
"$ 3 : : 6 4 a ,.a N a a N B                               1.g.f u %.1.                              B N a a N a m.a ) a : : , $ ",
"$ : , : 6 a a ,.a a B a a V                                 6.B.B.6.                                V 6 a B a a n.N p p : , : $ ",
"@ = 5 * ^ p p +.R a a a B B                                                                         B N 6 a F Q v.p p p : 3 : O ",
"X * 3 : 2 4 a W #.a a a N B i                                                                     4 N N ) a a m.&.p p 6 : , & X ",
"X % : 3 = 4 a W #.p b d N a d                                                                     N a d ) a p m.&.p p , , , % X ",
"X @ , : > 4 a I o.V p a p N N i                                                                   Z C u.l.a.H v.Q p 6 6 : , O X ",
"X o , * , 6 p p W W p p a N N d                                                                 F Z B d u.p &.&.a a a 9 : , X X ",
"X X & 3 : v 6 a B o.p p p d d V 1                                                               Z Z s p ( 4 v.A a p 6 3 3 * X X ",
"X X X 0 = = 6 p i @.i d a p p d N                                                             N b b p p a p n.p p d 4 = 0 X X X ",
"X X X % 7 , : p i i 4.a p p a d V a                                                         a L d a p p p C.p p p k.> 6 % X X X ",
"X X X o 5 , : 6 i a s.Y p p p a N I 1                                                     1 I b a p a a =.` a p p 6 , 3 X r X X ",
"X X X X * 5 = 6 a ( l.*.p p a p p N B y                                                 1 B N p p p p p n.p p p a > 5 * X X X X ",
"X X X X o , 5 2 6 a y.K E d i p p p B P a                                             a I N 6 a D i A =.Q p p a 6 5 , o X X X X ",
"X X X X X = , > 6 i i i { Y p p d a p B P d 4                                     1 N V N 4 p d i p =.=.p p p 6 5 , * o X X X X ",
"X X X X X o & 7 * 5 p p p } p p i a i a d d A d i                             4 N B a N a p p i p p n.p i a p 2 5 * o X X X X X ",
"X X X X X X O 7 , 3 i p p K E p i i a a a a d d d d i                     p d N N N a p p p i i p =.Q 4 p i 4 6 6 @ X X X X X X ",
"X X X X X X X % 5 , = 4 p a K } Y d p a p p a G C C G G A B B a N N N V B N C N N a p p a p B  .,.I a p y 4 , 7 % X X X X X X X ",
"X X X X X X X X = , > 2 p p p 6 Y { p p i a a d n m G Z a N B B N N N N B N N p d p a i D p  . .p p p p 6 > , * o X X X X X X X ",
"X X X X X X X X o : 3 , 2 4 p p p K } E a a p s n a.m m d a a N N a a a b a d p 6 p a p | 1.T p p p 4 6 5 3 : o X X X X X X X X ",
"X X X X X X X X X o , 3 > = p s s i a U $.p p a s d m a V a a N N a a B a a a 6 p p p 5.~ p i i p i 6 : , c o X X X X X X X X X ",
"X X X X X X X X r X X : 3 h n n s a i a p } [ R V a s n s a N a a J a b b a 6 V | +.,.p a i p p p 4 2 3 : X X X X X X X X X X X ",
"X X X X X X X X X X X o < / k z n d p p p p V U [ @.#.U a d d a a d a a R ,.,.+.! B p p 6 a a a 4 6 7 * o X X X X X X X X X X X ",
"X X X X X X X X X X X + e t S S S , b p p p a a K U W o.#.#.#.#.#.#.#.#.O.~ ~ R a p p p p a 6 6 8 / % X X X X X X X X X X X X X ",
"X X X X X X X X X X X + e r e l h 7 , 5 p d p p a p a p a a a a a a a d p a p p a p N p p 6 3 3 * O X X X X X r X X X X X X X X ",
"X X X X X X X X X X X + r e e # & , 5 > 6 6 a 6 p a p a p p a a a a p p p p a p a p 6 5 6 5 , * o X X X X X X X X X X X X X X X ",
"X . X X X X X X X X X X + + + X o O & 5 5 = 3 9 a p a p a a p p p a a p p p p a 6 3 : 7 3 * O o X X X X X X X X X X X X X X X X ",
"X X X X X X X X X X X X X X X X X X X X % 0 5 = = , = = p p p 4 p 4 p p 4 = , = = , C % X X X X X X X X X X X X X X X X X X X X ",
"X X X X X X X X X X X X X X X X X X X X X X * > 3 , 2 3 , : , , , , : , 5 3 > 3 > & o X X X X X X X X X X X X X X X X X X X X X ",
"X X X X X X X X X X X X X X X X X X X X X X X o @ % * = > 3 3 5 5 3 3 > = & % @ X X X # X X X X X X X X X X X X X X . X X X X X ",
"X X X X X X X X X X X X X X X X X X X X X X X X X X X o $ $ $ $ $ $ $ $ @ X X X X X X X X X X X X X X X X X X X X X X X X X X X "
};
