/* XPM */
static char *result[] = {
/* columns rows colors chars-per-pixel */
"64 64 167 2 ",
"   c #000000",
".  c #060509",
"X  c #08070B",
"o  c #0A090C",
"O  c #05080D",
"+  c #0E0C12",
"@  c #0A0012",
"#  c #110E14",
"$  c #110E19",
"%  c #131115",
"&  c #15121D",
"*  c #19161B",
"=  c #1C1A1D",
"-  c #191523",
";  c #1C1921",
":  c #191624",
">  c #221E22",
",  c #201C29",
"<  c #252224",
"1  c #292526",
"2  c #262129",
"3  c #2A252C",
"4  c #2E282D",
"5  c #312C2D",
"6  c #332D31",
"7  c #362D3B",
"8  c #2F333C",
"9  c #363032",
"0  c #3B3534",
"q  c #3E3836",
"w  c #3D313D",
"e  c #32363D",
"r  c #423536",
"t  c #413A37",
"y  c #44363D",
"u  c #453B3A",
"i  c #4A3B3B",
"p  c #47403A",
"a  c #4E423A",
"s  c #474036",
"d  c #50403E",
"f  c #51493E",
"g  c #756136",
"h  c #260046",
"j  c #3B3E40",
"k  c #223E51",
"l  c #2D3B49",
"z  c #3A0068",
"x  c #443640",
"c  c #463941",
"v  c #4B3C42",
"b  c #423F4C",
"n  c #513F42",
"m  c #42007B",
"M  c #7B266D",
"N  c #3F4242",
"B  c #33414B",
"V  c #3A464E",
"C  c #2C4E64",
"Z  c #2F5064",
"A  c #335265",
"S  c #3C5564",
"D  c #3C5A67",
"F  c #3E5E7B",
"G  c #444443",
"H  c #4C4046",
"J  c #45424D",
"K  c #4B434C",
"L  c #464A4B",
"P  c #534144",
"I  c #594545",
"U  c #524449",
"Y  c #53494D",
"T  c #5A4A4E",
"R  c #5B4847",
"E  c #464A5A",
"W  c #4C4E5A",
"Q  c #424D50",
"!  c #5F4E50",
"~  c #574C50",
"^  c #52515B",
"/  c #644646",
"(  c #614C46",
")  c #624C49",
"_  c #6A4E49",
"`  c #734D49",
"'  c #794D4A",
"]  c #655048",
"[  c #6C534B",
"{  c #7B534C",
"}  c #7A594E",
"|  c #75554A",
" . c #6D5C5C",
".. c #7C614F",
"X. c #7F6450",
"o. c #425F68",
"O. c #435461",
"+. c #425F7B",
"@. c #48627A",
"#. c #536879",
"$. c #656361",
"%. c #7D6C69",
"&. c #757379",
"*. c #843574",
"=. c #8D5A4F",
"-. c #825D52",
";. c #955D50",
":. c #896B53",
">. c #976051",
",. c #996252",
"<. c #956C57",
"1. c #9C7C59",
"2. c #9B7159",
"3. c #A2755B",
"4. c #BB7259",
"5. c #A6695A",
"6. c #8C4476",
"7. c #806F6A",
"8. c #8B7A75",
"9. c #966C64",
"0. c #AB6774",
"q. c #AA6A65",
"w. c #C27D54",
"e. c #AB943C",
"r. c #D1BD3F",
"t. c #AA895E",
"y. c #A7865D",
"u. c #A8896E",
"i. c #B28F65",
"p. c #C2835C",
"a. c #D1BE41",
"s. c #E2BE5D",
"d. c #CB9A67",
"f. c #D1B86D",
"g. c #D1AC6C",
"h. c #E6BE6F",
"j. c #F7B76F",
"k. c #F4A765",
"l. c #DFC84F",
"z. c #F9C95B",
"x. c #FBD868",
"c. c #FBE36F",
"v. c #4C008B",
"b. c #56009B",
"n. c #386F8F",
"m. c #3D718E",
"M. c #287EAA",
"N. c #43738C",
"B. c #6F7B82",
"V. c #8E268F",
"C. c #973595",
"Z. c #9C4498",
"A. c #B86795",
"S. c #2C80A9",
"D. c #3C86A4",
"F. c #529399",
"G. c #26A5CF",
"H. c #43E8E9",
"J. c #868686",
"K. c #9D8C83",
"L. c #899096",
"P. c #AA998F",
"I. c #AC9B90",
"U. c #ECBE91",
"Y. c #FFEC8B",
"T. c #D3C3B2",
"R. c #D2D1D4",
/* pixels */
"      o                                                                                                                       % ",
"                                                  o > 1 1 5 5 5 5 $.5 1 < > * X                                                 ",
"                                            # 1 q 0 q t q 9 G.r q q 9 t t t q q 1 %                                             ",
"                                        * s t 5 6 q 6 6 0 S.H.M.5 5 9 9 6 6 q 6 9 u a = +               <                       ",
"                                  . * t p 6 0 q 9 6 9 6 9 0 G.9 6 0 0 6 6 5 M.9 r 9 6 u t 4 #                                   ",
"                                * q t 0 0 9 9 7 6 9 9 9 i i i i i v i i i 9 0 6 9 9 9 q q u q 4 +                         $.    ",
"                            # 4 t u 6 9 6 t 9 j i i i i v v c v v c v n c i i i i 6 t 9 9 6 u t 5 - .         X                 ",
"                        . < p u 0 6 0 6 r r i v  .%.7.K.P.I.I.I.I.I.I.P.K.%.7. .v c r t 9 0 6 0 u p 3 +                         ",
"                      . 4 p 0 5 0 0 r r i c T 7.K.P.I. .v v v P n n v c $.I.I.K.7.T c c u u q 9 6 q u 6 &                   *   ",
"                      5 t q A 9 6 6 y v c P.K.7.! v H v v v P v v P n v v v n ! 7.K.P.c v x y 6 9 6 q q 9 & .                   ",
"                    5 t 0 6 6 9 i x c %.T.c c c v v v v I v v P P v v I v v v v c c y T.%.v x x u 6 6 q u q &                   ",
"                  < t q 6 6 q r c  .P.8.c v c c v v v P v H v v P v v v P v v c c c N.c 8.u.[ c y i 5 5 q t 6 &                 ",
"                3 r 0 6 Z 9 i c 8.L.x v x v v v c P P I P P I P ^ I P P I P n c n c v x v c :.=.x x u 6 e j N 4 %               ",
"              + p q 6 4 6 i  .I.8.T c c x x n P P @.I I I I P P P P I I I I H P P n c c c c n -.3.) v c l B V L 3 o             ",
"            + t q 6 6 0 y  .8.x c x c c v v P P P P x                     c n P n n v v v c x c y -./ c K Z Z V L ; .           ",
"  o         < u 6 0 0 r x I.x c x v c v P n I H x                             x n R n U v x v x c y >.b b O.M.Z Q 8 -           ",
"          = t 0 9 6 i x 8.8.c x n c c n ) P x                                     w P ) P c c n y x ' ' v b O.A V N 6 $         ",
"  o     % q u 6 r y y  .8.T x v v c n _ n                                           7 v _ P v c v x n -./ b b Y B G q : .       ",
"      + 6 u 6 0 q y v I.x c c x c I I j                                                 w #.I u c c y c ;.v b v G 6 u 6 #       ",
"    . : q 0 9 0 u K %.8.c v v v n _ w                                                     w ) P v v c c ' ` v c u 6 q q :       ",
"    & 3 p 9 9 t x c T.c x c v n ) v                                                         v ( n n c x c 4.v c c 6 0 p 3 O     ",
"  + : f 9 9 q E x P.x v v c v v P 7                                                         7 P n n c v n x ;.c c d 9 6 P &     ",
"  - 4 t 9 0 6 c ! K.c x v v P R w                                                             w n n n E x c =.n c i 9 9 u 4 .   ",
"X : q 6 q 9 i c 7.7.c v v P P n                                                                 n n n n c c ' ` v c u 0 9 0 +   ",
"+ , t 6 0 6 y  .K.! c c c P U y                                                                 x P n i c v I =./ v y 0 6 r -   ",
"$ 3 0 q 6 i c 7.I.v v n P v n                                                                     n v n v v c 3.} c i r q 0 3   ",
"- 4 q 6 9 i v 7.I.v v v P I x                                                                     y P P n v v 3.} v c i 6 D 4 . ",
"& 6 u 6 6 i i K. .v v n I I                                                                         I I v v v [ <.c v r 6 t 6 + ",
"- 0 q 9 9 u v P.v v I v P R                                 w.k.k.p.                                I P n I v v 3.v c u 9 q 9 # ",
"; q 9 9 u c c t.n H v n P I                               5.M z m V.5.                              P P N.v v v u.v E v 9 0 t % ",
"- u q 6 i v c t.v P v v P P                             d.*.+ h m b.C.d.                            d I v v P v I.c v v 5 0 u % ",
"; t q 9 r v v i.n v P H P P                         | f.j.z h v.b.m m j.R.&.                        i P v P v n I.v v c 6 0 u + ",
"= u q 6 r v v t.v v Y P P P       e.a.a.a.a.e.  e.l.x.x.z.q.0.A.A.0.q.z.x.x.l.e.  e.a.a.a.a.e.      P P P P v v P.v v c 6 q t X ",
"= u 9 6 i v v t.P H v v P P                       g a.r.r.c.U.h.f.z.c.a.r.r.g                       d P v v P v I.v v v 6 0 u   ",
"; t 9 9 i i c t.v n v v P I                               i.Z.m z 6.i.                              P P v v H v P.v @.v 9 9 9   ",
"# 0 q 6 i c c i.v v I v n R                                 f.Y.Y.f.                                R i v I v v P.H c c 9 q =   ",
"+ 6 u 6 O.c c 1.[ v v v I I                                                                         I I i v W  .K.v c c 5 t G   ",
"  4 t 6 0 y v { 3.v v v P P x                                                                     i P P @.v v I.7.v c i 6 t     ",
"  , 0 q 6 i c } 3.c H v n P n                                                                     P v v @.v c I.%.c c r q q     ",
"  % q 6 0 i v _ <.R v v c P P x                                                                   Y U m.F.N.! K. .v u i 6 q     ",
"  o 0 6 q y c v } } v c v P U n                                                                 W Y U v m.c 7.7.c v v d 9 1     ",
"  . 4 t 9 G i c U <.c i c n n R w                                                               Y Y U v +.c K.T v c v r t =     ",
"    & f 6 6 n x x 5.c v v x v n P                                                             P v H x v v x P.c x n i 6 f .     ",
"    o 3 p q 6 c x x d.v x c v n R v                                                         v ( n v x x v T.c c c D.0 i ;       ",
"      - u q 6 c x n B.' c v c v P ] w                                                     y ) P v c v c 8.%.v c x i q t .       ",
"      + 5 u 6 d x +.F.9.c c v c c I I w                                                 w I P c x v c c I.c x c v q t <         ",
"        * q u q i v n./ { n x c c c I ) v 7                                         7 v ( P c c W x ~ 8. .x c v i t q o         ",
"          4 t 9 i c x y -.' c x P c c P ] P w                                     w n R P y v n x c 8.8.c x c i u t 3           ",
"          + 6 p 5 i c x c ;.c c x v y v n n U n x                             x n I n P v c c c c c P.c x v c r u 5 +           ",
"            - u q t x c c / -.c x x c v v n U n n n v                     y P P P n v v c c x c x 8. .c c x c u u -           G ",
"            . 2 u q 9 r c v / ;.' n c v x x n ^ U K R ~ R I P P P P P R I P H P P v c c c c I :.t._ c c x u q u 3 .             ",
"              . 4 q 0 q c c x y -.' c v x v c n b Y Y Y n P U P P P P P I P P c v v c x W c :.:.x c c c u 0 q 6 o               ",
"                X 5 t q r y c x c / ;.' c v x v K @.K U n n v P P v v v P v v v c c v v :.t.[ c x c x y u t 9 &                 ",
"                  . 9 u 0 6 b v b x v ` 4.x c b K K K b U v v P P v v I v v v i c c c g.X.c x c v x u 0 u S - .         o       ",
"                      1 t j J J b v c v c ;.=.{ T b n K v n U v v W v H v H c R :.1.t.i v c c c c i 0 r 9 : .                   ",
"                        = o.V A J U c c c c U | =.,.3.[ v v v n P n n c [ t.t.1...R x x c c v v u i u 6 -                       ",
"        &.                X V Q L c H c c u c c / | } <.3.3.3.3.3.3.3.3.2.X.X.[ v c c c c v u i a o.3 +                         ",
"                          J.O B N t 0 u v n i v v x v c v v v v v c v n c v c c c c P c c i u q 5 #                             ",
"                                < 0 u 0 i i v c x v c v c c v v v v c c v c v c i c i i i u q 1 .     =                         ",
"                            .     + 4 t u 6 t d v x v c v v v c c v v c c c x v n u 6 p t 5 +                         X         ",
"        1                   J.      . & 3 P t 6 6 q 6 6 i c x c x x c c y 6 q 6 6 u f 2 $                                       ",
"                              X         X # < 0 t 0 t t q 0 0 0 q 0 0 q u t 0 q 5 = X                                           ",
"                                                . # * < 0 q t u t u t 0 5 > % .                                 <               ",
"                                                          . o X X X o                                                           "
};
