/* XPM */
static char *result[] = {
/* columns rows colors chars-per-pixel */
"64 64 150 2 ",
"   c black",
".  c #0A0012",
"X  c #181425",
"o  c #1D1827",
"O  c #1F1B28",
"+  c #171E33",
"@  c #201C29",
"#  c #1C2535",
"$  c #25202B",
"%  c #2A252D",
"&  c #2E282F",
"*  c #302A2F",
"=  c #332D31",
"-  c #342B3B",
";  c #2A323B",
":  c #363032",
">  c #3B3534",
",  c #3E3836",
"<  c #31353D",
"1  c #3D313D",
"2  c #423536",
"3  c #413A37",
"4  c #44363D",
"5  c #453B3A",
"6  c #4A3B3B",
"7  c #47403A",
"8  c #4E423A",
"9  c #50403E",
"0  c #51493E",
"q  c #756136",
"w  c #260046",
"e  c #182A43",
"r  c #133B5F",
"t  c #2B3949",
"y  c #3B3E40",
"u  c #3A0068",
"i  c #443640",
"p  c #463941",
"a  c #4B3C42",
"s  c #423F4C",
"d  c #513F42",
"f  c #42007B",
"g  c #7B266D",
"h  c #3F4242",
"j  c #33414B",
"k  c #3A464E",
"l  c #2B4D64",
"z  c #335265",
"x  c #3C5A67",
"c  c #444443",
"v  c #4C4046",
"b  c #45424D",
"n  c #4B434C",
"m  c #474A4B",
"M  c #534144",
"N  c #594545",
"B  c #5B4847",
"V  c #524449",
"C  c #53494D",
"Z  c #5A4A4E",
"A  c #434E50",
"S  c #464A5A",
"D  c #4C4E5A",
"F  c #574C50",
"G  c #5F4E50",
"H  c #52515B",
"J  c #644646",
"K  c #614C46",
"L  c #624C49",
"P  c #6A4E49",
"I  c #734D49",
"U  c #794D4A",
"Y  c #655048",
"T  c #6C534B",
"R  c #755749",
"E  c #7B534C",
"W  c #7A594E",
"Q  c #6D5C5C",
"!  c #7C614F",
"~  c #7F6450",
"^  c #435461",
"/  c #425F68",
"(  c #425F7B",
")  c #48627A",
"_  c #536879",
"`  c #7D6C69",
"'  c #843574",
"]  c #8D5A4F",
"[  c #825D52",
"{  c #955D50",
"}  c #886953",
"|  c #8A6D53",
" . c #976051",
".. c #996252",
"X. c #956C57",
"o. c #9B7159",
"O. c #9C7C59",
"+. c #A6695A",
"@. c #A2755B",
"#. c #BB7259",
"$. c #8C4476",
"%. c #806F6A",
"&. c #966C64",
"*. c #8B7A75",
"=. c #AA943C",
"-. c #D1BD3F",
";. c #A7865D",
":. c #AA895E",
">. c #A8896E",
",. c #B28F65",
"<. c #C2835C",
"1. c #D1BE41",
"2. c #CB9A67",
"3. c #D1AC6C",
"4. c #D1B86D",
"5. c #F4A765",
"6. c #F7B76F",
"7. c #DFC84F",
"8. c #F9C95B",
"9. c #FBD868",
"0. c #4C008B",
"q. c #56009B",
"w. c #386F8F",
"e. c #3D718E",
"r. c #0B6FAE",
"t. c #287EAA",
"y. c #43738C",
"u. c #6F7B82",
"i. c #8E268F",
"p. c #973595",
"a. c #9C4498",
"s. c #2C80A9",
"d. c #3C86A4",
"f. c #529399",
"g. c #0099DB",
"h. c #26A5CF",
"j. c #43E8E9",
"k. c #9D8C83",
"l. c #899096",
"z. c #AA998F",
"x. c #AC9B90",
"c. c #ACAAB1",
"v. c #FFEC8B",
"b. c #D3C3B2",
"n. c #D1CDBD",
"m. c #AC8CC2",
"M. c #BA8CD5",
"N. c #E6E4E8",
"B. c #EDE4F3",
"V. c #FBF6F2",
/* pixels */
"X X X X X X X X X X X X X X X X X X X X X X X X X X X O @ @ % @ % @ $ ; # X X X X X X X X X X X X X X X X X X X X X X X X X X X ",
"X X X X X X X X X X X X X X X X X X X X X X X o O % * : > , 5 5 5 5 3 > : & & O o X X X X r X X X X X X X X X X X X X X X X X X ",
"X X X X X X X X X X X X X X X X X X X r X X * > , > , 3 , > h.2 , > : 3 7 , > , > & X X X X X X X X X X X X X X X X X X X X X X ",
"X X X X r X X X X X X X X X X X X X X X % 0 3 : = , = = > t.j.t.= * : : & & , : : 3 0 % X X X X X X X X X X X X X X g.X X X X X ",
"X X X X X X X X X X X X X X X X X o = 3 7 = > , > = = = > > h.= = , > : : = s.: , > = 6 3 * @ X X X X r.X X X X X X X X X X X X ",
"X X X X X X X X X X X X X X X X = , 3 , > : : - = > = > 4 6 6 6 6 6 6 6 5 > > = = > = > , 3 , * o X X X X X X X X X X X X X X X ",
"X X X X X X X X X X X X X X X % 3 3 = : = 3 : y 5 6 6 6 a a a a a a a a a 6 5 6 6 = 3 = : = 5 3 & O o X X X X X X X X X g.X X X ",
"X X X X X X X X X X X X o % 7 3 > = , = 2 2 6 p Q ` %.k.x.x.x.x.x.x.z.z.k.` ` Q 6 a 2 5 : , = , 5 7 % o X X X X X X X X X X X X ",
"X X X X X X + X X X X o & 7 , * : 2 > 4 6 p Z %.k.x.x.Q 6 a M a a d a a ! x.x.k.` F p p 4 6 , : * , 7 * o X r X X X X X X X X X ",
"X X X X X X X X X X o : 3 , z : = = 6 a p z.k.%.G a v a a a M a a d a a a v s G %.k.z.p a i 4 * : : , , : o X X X X X X X X X X ",
"X X X X X X X X X X , 3 , = * > 6 i p ` b.p p p a a a a N a a M M a a N a a a a p p p b.%.a i p 5 * : > , , o X X X X X X X X X ",
"X X X X X X X o o : 3 , = & , , p Q x.*.p a p p a a a M a a a v M a v a a a a a p p y.p *.>.T a i 6 & : , 3 : o X X X X X X X X ",
"X X X X X X X o = 2 > = l : 6 p *.l.i p p a a a p M N N M M N M H N M M N M M p a a a i a i } [ p p 4 * < h h * o X X X X X X X ",
"X X X X X X X & 5 , : & : 6 Q z.*.Z i p p p a M M ) M N B B M M M M N N N N a M d d i a a p d [ O.L 6 a t j k c % X X X . X X X ",
"X X X X X X O 7 , = = > 4 Q *.p p i p a a a M M M v i                     p M M d M a a p p i p p E J s n l l k m o X X X X X X ",
"X X X X X o * 5 = : : 2 p z.p p p a p a d d N d i -                           i M N d d a i a i p a  .p b ^ s.l A < o X X X X X ",
"X X X X X & 3 > > = 4 p *.*.p i d p p M L d y -                                   1 M L M p a M p p U U s s ^ z k c * o X X X X ",
"X X X X X > 3 : 2 2 p Q *.Z i a a p N Y a 1                                         - a Y M p a p i d E J i n m t c , O X X X X ",
"X X X X * 3 : > , 4 p x.4 p p p p N N 1                                                 1 _ M 4 4 p a p  .6 p s c = 6 = X X X X ",
"X X X X , > : > 4 n ` *.p a p a d P 1                                                     1 P M d p a a E I a p 6 : > , X X X X ",
"X X X % 7 > : 3 p p b.p i p a d L a -                                                       a K d a p i p #.p p p = > 7 % X X X ",
"X X X 0 : : , S p z.p a a p a d M -                                                         - M d a p a a p { p p 7 : : M X r.X ",
"X X & 3 > : = a Z k.a p a a M N 1                                                             1 N d a S p p ] M a 5 > > 3 & X X ",
"X o , = , = 5 a %.%.p p a M M M                                                                 d d M d p p U U a a 3 > : > o X ",
"X @ 2 = > = 4 Q k.G p a a M M 4                                                                 4 M d a a a N ] J a 4 : = 2 O X ",
"X % > , = 6 a ` x.a a a a M v                                                                     d d 6 a a a @.W p a 2 3 , % X ",
"X & , = : 6 a %.x.a a a M N p                                                                     4 M M a a a @.E a p 5 = x & X ",
"O : 3 = = 6 a k.Q a a d M N                                                                         N N a a a T X.p p 2 = 3 = @ ",
"$ > > : : 4 a x.a a N a M B                                 <.5.5.<.                                N d a N a a @.a a 5 : , > $ ",
"$ 3 > : 6 a a :.a M a a M N                               +.g u f i.+.                              M M y.a v a >.a S a > : , $ ",
"$ 3 y = 5 a 6 :.a M a a N M                             2.' . w f q.p.2.                            M N a a d d x.p a a * > 3 $ ",
"$ 3 , = 2 a a :.M a M v M d                         R 4.6.u w 0.q.f f 6.4.R                         9 9 a M a a x.a a 4 : , 5 $ ",
"@ 5 , = 2 a a :.M a C M M M       :.1.1.1.1.=.  =.7.9.9.8.m.m.M.M.m.m.8.9.9.7.=.  =.1.1.1.n.c.      M M M M a a x.a a p = > 3 $ ",
"$ 5 > * 6 a a ;.a a a a M M                       q 1.1.1.V.B.N.N.N.V.1.-.-.q                       9 M a a M 6 x.a a a = > 3 $ ",
"$ 3 : : 6 6 a ,.a M a a M N                               ,.a.f u $.,.                              N d a a a a x.a ) a : > 3 $ ",
"@ , , : 5 p a ;.a a N a V N                                 4.v.v.4.                                N d a N v a x.a a p : > > $ ",
"@ * 3 = ^ p p O.T a a a N N                                                                         N N 6 a S Q k.a a p = 3 : o ",
"o & 3 = > p a E @.a a a M M p                                                                     4 M M ) a a x.` a p 4 = , * o ",
"X % , , = 6 p W @.a v d d d d                                                                     v d a ) a a x.` a a 2 , > % X ",
"X @ 3 * : 6 p P X.N a a p V M i                                                                 4 C V e.f.y.G k.Q a p 6 = , O X ",
"X o , = , 4 6 a W W p p a M M d                                                                 D C V a w.6 %.` p a a 9 * , o X ",
"X X * 3 : c 4 a N X.p p a d M N 1                                                               Z C v p ( p k.Z a p a 3 3 * X X ",
"X X X 0 = = 6 a i +.p a a p a a M -                                                           M v v i a a p z.p i a 6 = 0 X X X ",
"X X X % 6 > = a i i 2.a i p a d Y v                                                         a K a a p i a b.p p p d.> 7 % X X X ",
"X X X X 3 , : p i d u.U p p a a M Y 1                                                     1 L M a a p a *.` a p p 5 , 3 X r X X ",
"X X X X = 3 = 9 p ( f.&.p p p p p N N 1                                                 1 N M 6 p a p p z.a i p a 2 3 * X X X X ",
"X X X X o , 3 2 6 a w.J E d 4 a a p N L a                                             v Y M a a S i Z *.Q i p a 6 5 , o X X X X ",
"X X X X o = , > 6 4 i 4 [ U p p a a p V Y M 1                                     1 M B M 4 a a i p *.*.p p p 6 5 3 * o X X X X ",
"X X X X X o & 7 * 6 a i p { p p i a i a d d N d i                             i M N a M a i a i p p z.p p a p 2 5 * o X X X X X ",
"X X X X X X O 7 , , i p p J E p a p p a a a V d d d p                     p a M M M a a a p i p p *.Q p a 4 4 5 7 @ X X X X X X ",
"X X X X X X X % 7 , : 2 p a J { U d p p p p d H V n Z F B N M M M M N N N M M M M a p p p p N } ;.P p p 4 4 , 7 & X X X X X X X ",
"X X X X X X X X & , > 3 p p p p U E p a i a p d n n C Z a M N M M M M M N M d a a a a i S p | | p p p p 4 > , & o X X X X X X X ",
"X X X X X X X X o : 3 , 2 4 p p p J { E a a p p b ) n n d d a M M a a a v a a a 4 p a a } :.T p p p 4 4 3 3 : o X X X X X X X X ",
"X X X X X X X X X X , 5 > = s a p p a I #.4 p s n n n d V a a M M a a N a a v 6 a p 4 3.! a i i p i 6 , 3 x o X X X X X X X X X ",
"X X X X X X X X r X o = 2 y k n b s p a a { ] E Z s v n a d M a a D a v v a 6 B ! O.;.p a p p p a 4 2 3 : o X X X X X X X X X X ",
"X X X X X X X X X X X o < / k z b v p 4 p p V I ] ..@.T s a a d M d a a T :.:.O.} B p p p p a a 4 5 3 * o X X X X X X X X X X X ",
"X X X X X X X X X X X + e t A A A 7 a p p p a p P I W X.@.@.@.@.@.@.@.@.o.! ~ T p a i p p a 6 8 7 / % X X X X X X X X X X X X X ",
"X X X X X X X X X X X + e r e l h 3 , 5 p d p a p p a p a a a a a a a a p a a a a p v a 4 6 3 , * O X X X X X r X X X X X X X X ",
"X X X X X X X X X X X + r # e # & , 3 > 6 6 a 6 p a p a p p a a a a a p a p a p 6 a 6 6 6 3 , * o o X X X X X X X X X X X X X X ",
"X X X X X X X X X X X X + + + X o O = 3 5 = 5 9 a i p p a a a p i a a p p p i a v 3 = 7 3 = O o X X X X X X X X X X X X X X X X ",
"X X X X X X X X X X X X X X X X X X X X % v , = = , = = p a i p p i a p 2 = , = : , M % X X X X X X X X X X X X X X X X X X X X ",
"X X X X X X X X X X X X X X X X X X X X X o * > 3 > 3 3 , > > > > > > , 3 3 > , > & o X X X X X X X X X X X X X X X X X X X X X ",
"X X X X X X X X X X X X X X X X X X X X X X X o O % * = > , 3 6 3 3 3 > = % % @ X X X + X X X X X X X X X X X X X . X X X X X X ",
"X X X X X X X X X X X X X X X X X X X X X X X X o X o o $ $ $ $ $ @ $ $ o o o X X X X X X X X X X X X X X X X X X X X X X X X X "
};
