/* XPM */
static char *result[] = {
/* columns rows colors chars-per-pixel */
"64 64 119 2 ",
"   c black",
".  c #0C0C0C",
"X  c gray7",
"o  c #D7D7D7",
"O  c #202020",
"+  c gray96",
"@  c #626262",
"#  c #070707",
"$  c #090909",
"%  c gray97",
"&  c #151515",
"*  c #232323",
"=  c #C1C1C1",
"-  c gray3",
";  c #010101",
":  c gray5",
">  c #818181",
",  c gray4",
"<  c #0B0B0B",
"1  c gray6",
"2  c white",
"3  c gray85",
"4  c #414141",
"5  c gray9",
"6  c #4C4C4C",
"7  c #E9E9E9",
"8  c gray78",
"9  c #1D1D1D",
"0  c #F3F3F3",
"q  c #282828",
"w  c gray56",
"e  c #060509",
"r  c #08060C",
"t  c #8D4C38",
"y  c #E07645",
"u  c #8C5848",
"i  c #050407",
"p  c #020202",
"a  c #06080D",
"s  c #6B3E3A",
"d  c #541A4B",
"f  c #280047",
"g  c #2D0054",
"h  c #621A63",
"j  c #09080E",
"k  c #4E4E4E",
"l  c #090B13",
"z  c #0D111D",
"x  c #9B6642",
"c  c #5B244F",
"v  c #07000C",
"b  c #1A0030",
"n  c #3B006C",
"m  c #682467",
"M  c #020102",
"N  c #3F312E",
"B  c #A68046",
"V  c #E6854C",
"C  c #34005F",
"Z  c #A67F46",
"A  c #3F302E",
"S  c #0B0910",
"D  c #5B4823",
"F  c #A6862D",
"G  c #A5862D",
"H  c #6E572A",
"J  c #181425",
"K  c #BE9436",
"L  c #F6B64B",
"P  c #EFA243",
"I  c #EB983E",
"U  c #7B6090",
"Y  c #8860A8",
"T  c #6E5729",
"R  c #A79C86",
"E  c #716E78",
"W  c gray59",
"Q  c #3F3328",
"!  c #A4862D",
"~  c #A4862C",
"^  c #A4842C",
"/  c #F3E5DB",
"(  c #D0BFDD",
")  c #C5BFCA",
"_  c gray75",
"`  c #3E3227",
"'  c #0C0A13",
"]  c #030305",
"[  c #060606",
"{  c #464646",
"}  c #14101E",
"|  c #775640",
" . c #6D2F69",
".. c #602F51",
"X. c #110E1A",
"o. c gray28",
"O. c #FDCE5F",
"+. c #B4B2B8",
"@. c #2A2A2A",
"#. c gray29",
"$. c #111111",
"%. c gray8",
"&. c #393939",
"*. c #EEEEEE",
"=. c gray30",
"-. c #CACACA",
";. c #747474",
":. c #7E7E7E",
">. c #808080",
",. c #6A6A6A",
"<. c #040404",
"1. c #373737",
"2. c gray87",
"3. c #777777",
"4. c #272727",
"5. c #8B8B8B",
"6. c gray33",
"7. c gray82",
"8. c #222222",
/* pixels */
"      .                                                                                                                       X ",
"                                                                  o                                                             ",
"                                                                                                                                ",
"                                                                                                        O                       ",
"                                                                                    +                                           ",
"                                                                                                                          @     ",
"                                                                              #                               $                 ",
"                                                                                            %                                   ",
"                                                                                                                            &   ",
"                                                                                                                                ",
"                                                                                                                                ",
"                                                                                                                                ",
"                *                                                                                                               ",
"                                  =                                                   -                                         ",
";           :                       >                                                                                           ",
"  ,                                                                                                                             ",
"                                                                                                                                ",
"  <                                                                                                                             ",
"                                          1                 2                                                       3           ",
"                                                  4   5       O 6                                                               ",
"                                                                  7                                                             ",
"    8                                           9                                                                               ",
"                                                                                                                                ",
"                                                          0                                                                     ",
"                            q                                                                                             X     ",
"                            <         w                                                                                         ",
"                                            8                                                                                   ",
"                  ;     X                                   e e e e                                                             ",
"                                        .                 r t y y u i                                                           ",
"p                                       >       -       a s d f g h s j                                                         ",
"                                    k               l z x c v b g n m x j                                 p                     ",
"                                  M               r N B V f b C n g g V Z A i                                                   ",
"                                S D F G G G H J H K L P I U U Y Y U U I P L K T J H G G G R E e         W                       ",
"                                              i e Q ! ~ ^ / ( ) _ ) / ^ ^ ^ ` ' e e e e e ]                                     ",
"                              [ {                 r ' ' } |  .g f ..| X.' S i                                   o.              ",
"                                                          e Z O.O.Z +.                        @.                                ",
"                                                          M e e e e M                                                       #.  ",
"                                                                                                                    1           ",
"                                                                  .                         $.                                  ",
"                  .                                                                                                             ",
"      1                                                                                                                         ",
"                    %.                                                                                                          ",
"                                                                                                                                ",
"                                                                                                                                ",
"                                                                                                                                ",
"                                                                                        &.        #                             ",
"                                                                        *.                                                      ",
"                                      <                                 =.                                                      ",
"                                                            1                                                                   ",
"                                                                                                                              4 ",
"                                                                                                                                ",
"                                                                                                                                ",
"                                                                                                                                ",
"                                      -.                                                                                :       ",
"                                            ;                                                                                   ",
"                                  ;                                                                                             ",
"        ;.                                                :.                                                                    ",
"                          >.                                          #       #   ,.                      ;                     ",
"                                                                                          <           9                         ",
"                            <.                1.                    2.        3.                                      -         ",
"        4.                  5.                                                                                                  ",
"                              -                                           6.                                                    ",
"                                                          7.                                                    8.              ",
"                                                                                                                                "
};
