/* XPM */
static char *result[] = {
/* columns rows colors chars-per-pixel */
"64 64 170 2 ",
"   c #000000",
".  c #07060A",
"X  c #08070C",
"o  c #0B0A0C",
"O  c #0D0B12",
"+  c #0A0012",
"@  c #100E15",
"#  c #110E18",
"$  c #131115",
"%  c #16131D",
"&  c #191619",
"*  c #1D1B1D",
"=  c #181514",
"-  c #201D1F",
";  c #29251F",
":  c #191623",
">  c #1D1925",
",  c #171321",
"<  c #221D22",
"1  c #221D28",
"2  c #182327",
"3  c #242223",
"4  c #292524",
"5  c #25202B",
"6  c #2B262C",
"7  c #2E282F",
"8  c #2D2923",
"9  c #322C2E",
"0  c #36302D",
"q  c #332D31",
"w  c #352C3B",
"e  c #363133",
"r  c #3B3534",
"t  c #3E3836",
"y  c #3D313D",
"u  c #393C3D",
"i  c #423536",
"p  c #413A37",
"a  c #44363C",
"s  c #453B3A",
"d  c #4A3B3B",
"f  c #47403A",
"g  c #4E423A",
"h  c #50403E",
"j  c #51493E",
"k  c #756136",
"l  c #260046",
"z  c #3B3E40",
"x  c #3A3949",
"c  c #2D3B49",
"v  c #3A0068",
"b  c #443640",
"n  c #463941",
"m  c #4B3C42",
"M  c #423F4C",
"N  c #513F42",
"B  c #42007B",
"V  c #7B266D",
"C  c #33414B",
"Z  c #3A464E",
"A  c #3D4344",
"S  c #2C4E64",
"D  c #2F5064",
"F  c #335265",
"G  c #3C5564",
"H  c #3C5A67",
"J  c #3E5E7B",
"K  c #434342",
"L  c #4C4046",
"P  c #45424D",
"I  c #4B434C",
"U  c #484C4E",
"Y  c #534144",
"T  c #594545",
"R  c #524449",
"E  c #53494D",
"W  c #5A4A4E",
"Q  c #5B4847",
"!  c #464A5A",
"~  c #4C4E5A",
"^  c #424D50",
"/  c #5F4E50",
"(  c #574C50",
")  c #52515B",
"_  c #644646",
"`  c #614C46",
"'  c #624C49",
"]  c #6A4E49",
"[  c #734D49",
"{  c #794D4A",
"}  c #655048",
"|  c #6C534B",
" . c #7B534C",
".. c #7A594E",
"X. c #755749",
"o. c #6D5C5C",
"O. c #7C614F",
"+. c #7F6450",
"@. c #435863",
"#. c #425F7B",
"$. c #48627A",
"%. c #536879",
"&. c #626262",
"*. c #7D6C69",
"=. c #747474",
"-. c #843574",
";. c #8D5A4F",
":. c #825D52",
">. c #955D50",
",. c #896B53",
"<. c #976051",
"1. c #996252",
"2. c #956C57",
"3. c #9C7C59",
"4. c #9B7159",
"5. c #A2755B",
"6. c #BB7259",
"7. c #A6695A",
"8. c #8C4476",
"9. c #806F6A",
"0. c #8B7A75",
"q. c #966C64",
"w. c #AB6774",
"e. c #AA6A65",
"r. c #C17D54",
"t. c #AA943C",
"y. c #D1BD3F",
"u. c #AA895E",
"i. c #A7865D",
"p. c #A8896E",
"a. c #B28F65",
"s. c #C2835C",
"d. c #D1BE41",
"f. c #E2BE5D",
"g. c #CB9A67",
"h. c #D1B86D",
"j. c #D1AC6C",
"k. c #E6BE6F",
"l. c #F7B76F",
"z. c #F4A765",
"x. c #DFC84F",
"c. c #F9C95B",
"v. c #FBD868",
"b. c #FBE36F",
"n. c #4C008B",
"m. c #56009B",
"M. c #386F8F",
"N. c #3D718E",
"B. c #287EAA",
"V. c #43738C",
"C. c #6F7B82",
"Z. c #7B7980",
"A. c #8E268F",
"S. c #973595",
"D. c #9C4498",
"F. c #B86795",
"G. c #2C80A9",
"H. c #3C86A4",
"J. c #529399",
"K. c #26A5CF",
"L. c #43E8E9",
"P. c #868686",
"I. c #9D8C83",
"U. c #899096",
"Y. c #AA998F",
"T. c #AC9B90",
"R. c #ADAAB1",
"E. c #ECBE91",
"W. c #FFEC8B",
"Q. c #D3C5B4",
/* pixels */
"      o                                                                                                                       $ ",
"                                                  o $ < 4 r s s p s p 6 * o                                                     ",
"                                          o - 9 p r p p i r K.r t r e t p t 9 = .                                               ",
"                                      o 1 j p q q t q q r B.L.B.q 9 e e q q p q q 0 8 .                 3                       ",
"                                  . - p d q r r e q e q e r K.q q r r e q e B.e r r q f 4 o                                     ",
"                                & t p r r e e r q e e e d d d d d d d d d e e q e e e e r s 0 o                           &.    ",
"                          . % 6 p p q e q p q C d d d d m m m m m m m m m d d d d q p 9 e 9 s p < .           o                 ",
"                        O 6 f s r e r q i i d m o.9.9.I.Y.T.T.T.T.T.Y.Y.I.*.9.o.m m i s r r e r s f $                           ",
"                      $ 7 s t q r r r a d n W 9.I.Y.T.o.m m m Y N N m m &.T.T.I.9.W n n a a i e 9 r s 3                     $   ",
"                    $ e p t D e q q a m b Y.I.9./ m L m m m Y m m N m m m m N / 9.I.Y.n m n a 9 e e t t 7                       ",
"                  O r p r e q e d b b *.Q.b m n m m m m T m m Y Y m m T m m m n n n a Q.9.m b b s 9 e r p 9 .                   ",
"                . e p t q 7 r a b o.T.0.d m b n m m m Y m L m m Y m L m N m m m n n V.m 0.p.| m n d 7 0 t p 9                   ",
"              . 7 p r q D e d n 0.U.b m b m m m n Y Y T Y Y T Y ) T Y Y T Y N m m m m b n n ,.:.n m s q u u A <                 ",
"            X 6 f t q 9 e d o.Y.0.W b m n n m Y Y $.T T T T Y Y Y Y T T T T L Y N N n n m n N :.4.' d n c C Z K o               ",
"          . > f r e 9 r d o.0.b b b m m m m Y N Y Y                       n N Y N N N m n n b n m  ._ M P S D Z z .             ",
"  o       % q s q e e y b Y.n n b m b m Y N T Y                               b N Q N N m n n n b n <.n P @.G.D ^ &             ",
"        O q t r r q a n 0.0.n a N m b Y ' Y                                       y Y ' Y n m m b n { { M M @.F Z u             ",
"  o     > t s q r a a o.0.W b n m n T ' m                                             m } Y m n m a N  ._ n M E C K 3           ",
"      X q s q r r d m T.n n n b b T T y               .                                 y %.T d n n m n >.d n L K q p o         ",
"      % t r q r a I *.0.n m m m N ] b                                                     y ' Y m m n m  .[ M n d e r 0         ",
"      6 f r q p n m Q.n b n m Y ' m                                                 #       m ` N m n b m 6.n b m e r f &       ",
"    Z.j e e t ! b Y.a m m n m m Y                                                             Y N m n m m b >.n a h q e j X     ",
"    1 s r r q m ( I.m b m m Y T y                                                     .       y T N N ! n n ;.Y m a e e p 6     ",
"  . r q r q s m 9.9.b m m Y Y N                                                                 N N Y m n n { { m m d r q r #   ",
"  O p q r q d o.I./ m n m N Y a                                                                 a Y Y d m m T ;._ m a e q p >   ",
"  < r r q d b *.T.m m m L Y Y                                                                     N m m m m m 5...n m i p r 6   ",
"  7 p q r a m 9.T.m m m Y Y n                                                                     a Y Y m m m 5...m b a q H 7 X ",
"X q p q q d d I.o.m m N T T                                                                         T T m m m | 2.d m i q s q O ",
"% r t e e d m Y.m m T m Y Q                                 s.z.z.s.                                T N N T m m 5.m m s e t r $ ",
"$ p e e d n m u.m Y m m R T                       . .     7.V v B A.7.                              Y Y V.m m m p.m ! m e e p # ",
"# p z 9 s m m u.N Y m m T Y                             g.-.+ l B m.S.g.                            Y T m m N N T.n m m q r s $ ",
"$ s r e i m m u.m m Y Y Y m                         X.h.l.v l n.m.B B l.h.X.                        N h m Y m m T.m m b q r p $ ",
"o s r q i m m u.m m E Y Y Y       R.Q.d.d.d.t.  t.x.v.v.c.e.w.F.F.w.e.c.v.v.x.t.  t.d.d.d.d.t.      Y Y L Y m Y Y.m m n q r s $ ",
"o s r q d m m u.N L m m T Y         .             k d.y.y.b.E.k.h.c.b.d.y.y.k                       Y Y m m Y m Y.m m m q r s $ ",
"  r e e d d m u.m Y m m Y Y                               a.D.B v 8.a.                              h Y m m m m Y.m $.m e e t X ",
"  4 r e s m m u.m m T m Y Q                                 h.W.W.h.                                ` d m T m m Y.L m a e t r . ",
"  * p q @.n n 4.| m m m T T                                                                         T Y d m ~ o.I.m m n q p q   ",
"  o p q r a m ..5.m m m Y Y                                                                         Y Y $.m m T.*.m b a q p <   ",
"  . r t q d b ..5.m m Y Y m m                                                                     Y m N $.m m T.*.m m i t r $   ",
"    9 q r a m ] 2.Q n m n Y T                                                                     E R N.J.V./ I.o.m d s q t .   ",
"    $ 0 r d m d ....m n m Y Y Y                                                                 ~ E R m N.n 9.9.d n m g q 9     ",
"      r e K a m Y 2.n n m m Y T                                                               x E E L m #.n I.W n n m p p &     ",
"      4 q e d m n 7.b m m b m N Y                                                           w Y L L b m m n T.b n N d q j .     ",
"        s r q n b n g.m b n m Y Q m                                                         d ` N m b a m Q.n n n H.r d 5       ",
"        4 r e d b m C. .m m m m Y } y                                                     y ' Y m n m m 0.*.m b n d r p #       ",
"        . t q d n #.J.q.b b b b m Y T y                                                 y T Y b b m b b T.m b b m r s 9 .       ",
"          - s i d m M._  .N a m m b Y | m                                           w m ' Y m m ! b W 0.o.b m m d s t @         ",
"            r r d n n m { { m b m m n R } Y                                       y Y Q Y d m m b b 0.0.n n b d s t 6           ",
"            & f q d m b b >.n n b n n m N R R N b                             b N T N N m a M b m n Y.m b m n i s 9 .           ",
"              t r p b m b _  .d n n n m m m E N N N                       n m Y Y Y m m m m a s b 0.o.b b b n s f %           K ",
"              o s t 0 a n m _ >.{ N b m n b N ( R R W ( T T Y Y Y Y T T T Y Y Y Y m b n m b Q ,.i.| m b b d t f 6 X             ",
"                $ p r r n n b n {  .m m b m n N P I ( E N R T Y Y Y Y Y T Y N m m m m b ! b ,.,.n a m b n r t 7 :               ",
"                  $ s r i a m b m _ >.{ m m n M I $.I R m m m Y Y m m m L m L m m b m m ,.i.| n b n b a s p e > .               ",
"                    o 0 r q M m n b m [ 6.b m m I I I M T m m Y Y m m T m m d m n d b j.O.m b n m b d r t H > X         o       ",
"                        4 z Z I M M b m b >.;.| W m I I m m Y m m ~ m L m m m Q ,.3.i.n m b n n n d r t e : .                   ",
"                          2 Z F I L n m b n T [ ;.1.5.| I m N m Y N m m | u.u.3.O.Q b n n m m m a s s q % .                     ",
"        =.                  o A ^ f m n n n m n _ { ..2.3.5.5.5.5.5.5.5.4.+.+.| m m b m b m d d g @.7 O                         ",
"                          P.  . e s r d m L n m m n m n m m m m m m m m n m n m m a N b n d p p q > .                           ",
"                                  3 s r d d m d n m n m m n m m m m m n m n m b m m d d d s t 7 #     *                         ",
"                            .       * p s q p h m n n n n m m b a m m n b m b m m s q f p 9 % .                       o         ",
"        4                   P.        # 6 Y p q q t q q m m b n n b m m a q t q q s j 6 : X                                     ",
"                              o         o : 7 r a r t p r r r r r r e r p t r p r 6 : X .                                       ",
"                                          . O % > 6 7 q e t t s s s p r q 7 6 > # .                             3               ",
"                                                  . O % * 5 5 5 5 5 1 1 : O O                                                   "
};
