/* XPM */
static char *result[] = {
/* columns rows colors chars-per-pixel */
"64 64 128 2 ",
"   c black",
".  c #0C0C0C",
"X  c gray7",
"o  c #D7D7D7",
"O  c #202020",
"+  c gray96",
"@  c #626262",
"#  c #070707",
"$  c #090909",
"%  c gray97",
"&  c #151515",
"*  c #232323",
"=  c #C1C1C1",
"-  c gray3",
";  c #010101",
":  c gray5",
">  c #818181",
",  c gray4",
"<  c #0B0B0B",
"1  c gray6",
"2  c white",
"3  c gray85",
"4  c #414141",
"5  c gray9",
"6  c #4C4C4C",
"7  c #E9E9E9",
"8  c gray78",
"9  c #1D1D1D",
"0  c #F3F3F3",
"q  c #282828",
"w  c gray56",
"e  c #0B0910",
"r  c #8D4C38",
"t  c #E07645",
"y  c #8C5848",
"u  c #060509",
"i  c #020202",
"p  c #010204",
"a  c #0A0D16",
"s  c #6B3E3A",
"d  c #541A4B",
"f  c #280047",
"g  c #2D0054",
"h  c #621A63",
"j  c #0E0B15",
"k  c #4E4E4E",
"l  c #010203",
"z  c #0D111D",
"x  c #9B6642",
"c  c #5B244F",
"v  c #07000C",
"b  c #1A0030",
"n  c #3B006C",
"m  c #682467",
"M  c #08060C",
"N  c #030305",
"B  c #0A0910",
"V  c #0C0A12",
"C  c #3C3844",
"Z  c #A68D6A",
"A  c #E6854C",
"S  c #34005F",
"D  c #A67F46",
"F  c #3F302E",
"G  c #100E19",
"H  c #0C0A13",
"J  c #6F582B",
"K  c #A6862D",
"L  c #A5862D",
"P  c #A8A6AD",
"I  c #716D78",
"U  c #181425",
"Y  c #706D77",
"T  c #BFB1A9",
"R  c #F7C380",
"E  c #EFA243",
"W  c #EB983E",
"Q  c #784945",
"!  c #79464F",
"~  c #864667",
"^  c #F6B64B",
"/  c #BE9436",
"(  c #6E5729",
")  c #6E572A",
"_  c gray59",
"`  c #050407",
"'  c #403C49",
"]  c #A79C86",
"[  c #A4862C",
"{  c #A4842C",
"}  c #F1BD4C",
"|  c #CE8C64",
" . c #C28C4C",
".. c #BC8C40",
"X. c #3E3227",
"o. c #060606",
"O. c #464646",
"+. c #0F0D17",
"@. c #775640",
"#. c #6D2F69",
"$. c #602F51",
"%. c #020102",
"&. c gray28",
"*. c #92703D",
"=. c #FDCE5F",
"-. c #876839",
";. c #97969D",
":. c #2A2A2A",
">. c gray29",
",. c #111111",
"<. c gray8",
"1. c #393939",
"2. c #EEEEEE",
"3. c gray30",
"4. c #CACACA",
"5. c #747474",
"6. c #7E7E7E",
"7. c #808080",
"8. c #6A6A6A",
"9. c #040404",
"0. c #373737",
"q. c gray87",
"w. c #777777",
"e. c #272727",
"r. c #8B8B8B",
"t. c gray33",
"y. c gray82",
"u. c #222222",
/* pixels */
"      .                                                                                                                       X ",
"                                                                  o                                                             ",
"                                                                                                                                ",
"                                                                                                        O                       ",
"                                                                                    +                                           ",
"                                                                                                                          @     ",
"                                                                              #                               $                 ",
"                                                                                            %                                   ",
"                                                                                                                            &   ",
"                                                                                                                                ",
"                                                                                                                                ",
"                                                                                                                                ",
"                *                                                                                                               ",
"                                  =                                                   -                                         ",
";           :                       >                                                                                           ",
"  ,                                                                                                                             ",
"                                                                                                                                ",
"  <                                                                                                                             ",
"                                          1                 2                                                       3           ",
"                                                  4   5       O 6                                                               ",
"                                                                  7                                                             ",
"    8                                           9                                                                               ",
"                                                                                                                                ",
"                                                          0                                                                     ",
"                            q                                                                                             X     ",
"                            <         w                                                                                         ",
"                                            8                                                                                   ",
"                  ;     X                                                                                                       ",
"                                        .                 e r t t y u                                                           ",
"i                                       >       -     p a s d f g h s j                                                         ",
"                                    k               l z x c v b g n m x M                                 i                     ",
"                                          N u u B V C Z A f b S n g g A D F G                                                   ",
"                                H J K L L P I U Y T R E W Q ! ~ ~ ! Q W E ^ / ( U ) L L L L J           _                       ",
"                                            ` u u ' ] [ { } |  ... .} { { { X.e u u u u u u u                                   ",
"                              o.O.                u u u +.@.#.g f $.@.M M u %.                                  &.              ",
"                                                          u *.=.=.-.;.                        :.                                ",
"                                                              ` u N                                                         >.  ",
"                                                                                                                    1           ",
"                                                                  .                         ,.                                  ",
"                  .                                                                                                             ",
"      1                                                                                                                         ",
"                    <.                                                                                                          ",
"                                                                                                                                ",
"                                                                                                                                ",
"                                                                                                                                ",
"                                                                                        1.        #                             ",
"                                                                        2.                                                      ",
"                                      <                                 3.                                                      ",
"                                                            1                                                                   ",
"                                                                                                                              4 ",
"                                                                                                                                ",
"                                                                                                                                ",
"                                                                                                                                ",
"                                      4.                                                                                :       ",
"                                            ;                                                                                   ",
"                                  ;                                                                                             ",
"        5.                                                6.                                                                    ",
"                          7.                                          #       #   8.                      ;                     ",
"                                                                                          <           9                         ",
"                            9.                0.                    q.        w.                                      -         ",
"        e.                  r.                                                                                                  ",
"                              -                                           t.                                                    ",
"                                                          y.                                                    u.              ",
"                                                                                                                                "
};
