/* XPM */
static char *result[] = {
/* columns rows colors chars-per-pixel */
"64 64 168 2 ",
"   c #000000",
".  c #060609",
"X  c #08070B",
"o  c #0A0A0C",
"O  c #0E0C13",
"+  c #0A0012",
"@  c #100E14",
"#  c #110F18",
"$  c #0E111B",
"%  c #131115",
"&  c #16131C",
"*  c #191619",
"=  c #1D1A1E",
"-  c #181516",
";  c #221E1F",
":  c #181522",
">  c #1C1920",
",  c #171321",
"<  c #221D23",
"1  c #201C29",
"2  c #152233",
"3  c #252324",
"4  c #282426",
"5  c #252129",
"6  c #2B262B",
"7  c #2E282D",
"8  c #312C2E",
"9  c #35302B",
"0  c #212D3B",
"q  c #332E31",
"w  c #342B3B",
"e  c #2E323A",
"r  c #363032",
"t  c #3B3534",
"y  c #3E3836",
"u  c #3D313D",
"i  c #32363D",
"p  c #423536",
"a  c #413A37",
"s  c #44363D",
"d  c #453B3A",
"f  c #4A3B3B",
"g  c #47403A",
"h  c #4D433A",
"j  c #50403E",
"k  c #51493E",
"l  c #756136",
"z  c #260046",
"x  c #3B3E40",
"c  c #2D3B49",
"v  c #3A0068",
"b  c #443640",
"n  c #463941",
"m  c #4B3C42",
"M  c #423F4C",
"N  c #513F42",
"B  c #42007B",
"V  c #7B266D",
"C  c #3F4242",
"Z  c #33414B",
"A  c #3A464E",
"S  c #2B4D64",
"D  c #2F5064",
"F  c #335265",
"G  c #3C5564",
"H  c #3C5A67",
"J  c #3E5E7B",
"K  c #434342",
"L  c #4C4046",
"P  c #45424D",
"I  c #4B434C",
"U  c #474A4B",
"Y  c #534144",
"T  c #594545",
"R  c #524449",
"E  c #53494D",
"W  c #5A4A4E",
"Q  c #5B4847",
"!  c #434E50",
"~  c #464A5A",
"^  c #4C4E5A",
"/  c #5F4E50",
"(  c #574C50",
")  c #52515B",
"_  c #644646",
"`  c #614C46",
"'  c #624C49",
"]  c #6A4E49",
"[  c #734D49",
"{  c #794D4A",
"}  c #655048",
"|  c #6C534B",
" . c #7B534C",
".. c #7A594E",
"X. c #755749",
"o. c #6D5C5C",
"O. c #7C614F",
"+. c #7F6450",
"@. c #425F68",
"#. c #435461",
"$. c #425F7B",
"%. c #48627A",
"&. c #536879",
"*. c #646367",
"=. c #7D6C69",
"-. c #777879",
";. c #843574",
":. c #8D5A4F",
">. c #825D52",
",. c #955D50",
"<. c #896B53",
"1. c #976051",
"2. c #996252",
"3. c #956C57",
"4. c #9C7C59",
"5. c #9B7159",
"6. c #A2755B",
"7. c #BB7259",
"8. c #A6695A",
"9. c #8C4476",
"0. c #806F6A",
"q. c #8B7A75",
"w. c #966C64",
"e. c #C27D54",
"r. c #AA943C",
"t. c #D1BD3F",
"y. c #AA895E",
"u. c #A7865D",
"i. c #A8896E",
"p. c #B28F65",
"a. c #C2835C",
"s. c #D1BE41",
"d. c #CC9F66",
"f. c #C89168",
"g. c #D1AC6C",
"h. c #D1B86D",
"j. c #F7B76F",
"k. c #F4A765",
"l. c #DFC84F",
"z. c #F9C95B",
"x. c #FBD868",
"c. c #4C008B",
"v. c #56009B",
"b. c #386F8F",
"n. c #3D718E",
"m. c #287EAA",
"M. c #43738C",
"N. c #6F7B82",
"B. c #8E268F",
"V. c #973595",
"C. c #9C4498",
"Z. c #2C80A9",
"A. c #3C86A4",
"S. c #529399",
"D. c #26A5CF",
"F. c #43E8E9",
"G. c #9D8C83",
"H. c #8A8E91",
"J. c #AA998F",
"K. c #AC9B90",
"L. c #ACAAB1",
"P. c #FFEC8B",
"I. c #D3C5B4",
"U. c #AC8CC2",
"Y. c #BA8CD5",
"T. c #E6E4E8",
"R. c #FBF6F2",
"E. c #EDE4F3",
/* pixels */
"      o                                                   o o o % % o o                                                       % ",
"                                                  o = 8 t p a d d a y t r 7 > %                                                 ",
"                                          . % 3 y t p a p r D.t y t r y d y y y 9 @                                             ",
"                                    . # 5 k p r q y q r r m.F.m.r 7 r r q q y r r a h - .               3                       ",
"                                  & q d g r r t r q r q r t D.q q t t r q r m.r y r r f d 3 o                                   ",
"                              . 4 y d t t r r r q t r r f f N f f f f f d r r q r r r t y d y 3 .                         *.    ",
"                            . 6 p d q r q p r A d f f f m n m m m m m m m f f f d q y r r q d p 7 O           o                 ",
"                          o a d t r t q a p f n o.=.0.G.K.K.K.K.K.K.K.K.G.=.=.o.m n p p t t r t d g =                           ",
"                        % g y 8 r p t s f b W 0.G.J.K.o.m m m Y m N m m *.K.K.G.0.' n n s s p r q y g 6 .                   -   ",
"                      ; y y F r q q f m n K.G.0./ m L m m m Y m m Y m m m m f / 0.G.J.n m n s 8 r q y d 8 .                     ",
"                    3 a t q 7 t b b n =.I.s n n m m m m T m m Y Y m m T m m m m n n b I.0.m b n d 7 r t a q .                   ",
"                  - a y q q t p n o.K.q.n m n n m m m Y m L m m Y m L m Y m m n n n M.m q.i.| n n f 7 9 y a 7                   ",
"                4 d r q D r f b q.H.b m b m n m n Y Y T Y Y T Y ) T Y Y T Y N n m m m b n n <.>.n n f q i i K 3                 ",
"              . a t q q r f o.K.q.W n n n n N Y Y %.T T T T Y Y Y Y T T T T L Y N N n n m n N >.5.' f n c Z A U <               ",
"            o 9 y r q t s o.q.b n b n m m m Y Y Y m b                     n N Y N N N m n n b n s >._ M I S F A U @             ",
"  o         * d q r r p b K.n n b m b m Y N T Y b w                           b N Q N N m n m b f s 1.M P #.m.S ! e .           ",
"          . a t t q f n q.q.n n N n n Y ' Y u w                                   u Y ' T n n m s b { { m M #.F A K -           ",
"  o       7 a 8 t p b o.q.W b n m n Y ' m u                                         w m ' T n n m s N >._ M M E Z K 9           ",
"        - a q y p s m J.b n m b n T T s                                                 s &.T f b b b b ,.m M m K q d o         ",
"      . y y q t s I =.q.n n m m N ] u                                                     u ' Y N m m b { [ m n f r t 7         ",
"      < g t r a n n I.m b n m N ' m w                                                       m ` N m n b m 7.n n n q t g %       ",
"    *.k 8 r p ~ n J.s m m n m N Y w                                                         w Y N N b m m b ,.n n j r r h       ",
"  O 8 p t r r n W G.n n m m Y T u                                                             u N N N ^ n n :.N n f r r a =     ",
"  , y 8 t r f n 0.0.n n m R Y N                                                                 N N N N n n { [ n n d t q t     ",
"X > s r r q f o.G./ n n n Y R s                                                                 s Y Y n n m T :.] n s t 8 p     ",
"O 6 t y q f n =.K.m m N Y m N                                                                     N N m m m n 6...n m p p t o   ",
", 7 y q r f m =.K.m m m Y T b                                                                     s Y Y m m m 6...m n s r H %   ",
", r y q r f n G.*.m m Y T T                                                                         T T Y m m | 3.f m p q p 4   ",
": t y r r d m K.f N T m Y Q                                 a.k.k.a.                                T N m T m m 6.m f f r y 7   ",
": y t r f n m y.m N m m Y T                               8.V v B B.8.                              Y Y M.m N m i.n ~ m r r p   ",
"> g i 8 f m m y.N N m m T Y                             d.;.+ z B v.V.d.                            Y Y m m N N K.m m m 8 r d . ",
"> d y r p f m y.N m Y N Y L                         X.h.j.v z c.v.B B j.h.X.                        Y j m Y m m K.m K s r t g X ",
"> d t q s n m y.m m E Y Y Y       r.s.s.s.s.r.  r.l.x.x.z.U.U.Y.Y.U.U.z.x.x.l.r.  r.s.s.s.I.L.      Y Y Y Y m m J.m m n q t d o ",
"> d t q f N n y.L Y m m Y Y                       l s.t.s.R.E.T.T.T.R.t.t.t.l                       L T m m L N K.m m m q t a . ",
"% d r r f f n y.m N m m Y T                               p.C.B v 9.p.                              T j m m m m K.m %.m r t p   ",
"@ r t r d f n p.m m T m N Q                                 h.P.P.h.                                T N m T L m J.m n n r y 9   ",
"o q p r #.n n 4.| m m m T T                                                                         T Y f m ^ o.G.n n n q d t   ",
"  6 y q t f m  .6.m m m Y R b                                                                     s Y Y %.m L K.0.m n f q y =   ",
"  = t y q f m ..6.n L N m Y N                                                                     L m N %.m n K.0.n n p t t o   ",
"  O y r r f n ] 3.Q m n m Y Y b                                                                 s E R n.S.M.' G.o.n n f q d     ",
"  . t q t f n n ....n n N N Y N                                                                 ^ E T N n.n 0.0.m n n h q 8     ",
"    3 p r K f m T 3.n n n N N T u                                                               W I I n %.n G.W m n h p d %     ",
"    X k q r N b n 5.b N m n m N Y u                                                           Y L L b m m b J.b n N f r k .     ",
"      5 g t q n n n f.m b n m N Q m                                                         m ` L m b s n I.n n n A.t f <       ",
"      O p y r n b m N.{ m m n m Y } u                                                     u ' Y m n n m q.=.m n n f t d o       ",
"        7 d q h m $.S.w.n n n b n T T u                                                 u T Y n f n n n K.n n n m t d 4         ",
"        O y d t f m b._  .N b n n n T ' m                                             m ' Y n m ~ b ( q.o.b n m f d y O         ",
"          4 d t f b b s >.{ n b Y n n T ' Y u                                     u Y Q Y f n N b n q.q.n n n n d y 4           ",
"          . 7 d q f n n n ,.n n b m b m N N R N b                             s N T N Y m n n n n n J.n b m n p d 8 .           ",
"            X g y p b n b _ >.n b b m m N m E N N N n                     f N Y Y Y m m n n b n n q.o.n n b f s f &           K ",
"              = g y r s n m _ ,.{ N n n b b N ( T I W ( T T Y Y Y Y T Q T Y R Y Y m n n n n T <.p.] m n x s y g 4 .             ",
"                3 y t t f n s s { >.n m b m n N P I E W Y Y T Y Y Y R N T Y Y n m m m b ~ n <.<.s b n f f t y 7 o               ",
"                  r a y p s n b n _ ,.{ n m f M P %.~ N m N m Y Y m m Y m L m n n f m n <.y.| n b b b s d p r &                 ",
"                    t p t q M m M b m [ 7.b f M P I I N R m m R Y n m T m m m m n n n g.+.n b n n b f t y H :           o       ",
"                    . 8 d x P P M m b m n ,.:.[ W I L P m Y Y m m ) m m m m n Q <.4.y.n m n n n n f t d r &                     ",
"                      . e @.A F P R n n n n T  .:.2.6.| m m m m m L m m X.y.y.4.O.Q n b n n m n s f d 4 X                       ",
"        -.              . 0 ! ! ! d L n n n m n _  ...5.6.6.6.6.6.6.6.6.5.+.+.| n m n n n m f h h @.4                           ",
"                          -.2 S C d t f n m n n n n n n L m n m m m m m n m n n m n Y n n f a a q #                             ",
"                              $ 7 y d t f f m f n n n m n n m m m m n n m n m n n n f f f d t =       =                         ",
"                            .   X : 7 d g q a j f n n n n m m b f n m m n n b m N d q g y -                           o         ",
"        3                   H.      . & 6 k d q r d q q n m b n n s n n s q y r q d k =                                         ",
"                              X         . : 7 t p t p y t t t y t t t y d p t y t >                                             ",
"                                            o O & 5 7 r t y d d d d p t 8 < % X                                 3               ",
"                                                      X % % # % % % @ o                                                         "
};
