/* XPM */
static char *result[] = {
/* columns rows colors chars-per-pixel */
"64 64 172 2 ",
"   c #000000",
".  c #060509",
"X  c #08070B",
"o  c #0A090C",
"O  c #07090B",
"+  c #0E0C13",
"@  c #0A0012",
"#  c #100E15",
"$  c #120F18",
"%  c #131116",
"&  c #15131C",
"*  c #19161B",
"=  c #1E1B1D",
"-  c #221E1E",
";  c #23201D",
":  c #191523",
">  c #1D1924",
",  c #191C2A",
"<  c #221E23",
"1  c #252225",
"2  c #252129",
"3  c #2A252C",
"4  c #2E282E",
"5  c #282424",
"6  c #312C2E",
"7  c #332E31",
"8  c #352C3B",
"9  c #28323B",
"0  c #363032",
"q  c #3B3534",
"w  c #3E3836",
"e  c #3D313D",
"r  c #31353D",
"t  c #212D3B",
"y  c #423536",
"u  c #413A37",
"i  c #44363D",
"p  c #453B3A",
"a  c #4A3B3B",
"s  c #47403A",
"d  c #4E423A",
"f  c #50403E",
"g  c #51493E",
"h  c #746035",
"j  c #260046",
"k  c #3B3E40",
"l  c #3A3949",
"z  c #2D3B49",
"x  c #3A0068",
"c  c #443640",
"v  c #463941",
"b  c #4B3C42",
"n  c #423F4C",
"m  c #513F42",
"M  c #42007B",
"N  c #7B266D",
"B  c #3F4242",
"V  c #33414B",
"C  c #3A464E",
"Z  c #3D4C59",
"A  c #2B4D64",
"S  c #2F5064",
"D  c #335265",
"F  c #3E5664",
"G  c #3E5E7B",
"H  c #434342",
"J  c #4C4046",
"K  c #45424D",
"L  c #4B434C",
"P  c #474A4B",
"I  c #534144",
"U  c #594545",
"Y  c #524449",
"T  c #53494D",
"R  c #5A4A4E",
"E  c #5B4847",
"W  c #434E50",
"Q  c #464A5A",
"!  c #4C4E5A",
"~  c #5F4E50",
"^  c #574C50",
"/  c #52515B",
"(  c #644646",
")  c #614C46",
"_  c #624C49",
"`  c #6A4E49",
"'  c #734D49",
"]  c #794D4A",
"[  c #655048",
"{  c #6C534B",
"}  c #7B534C",
"|  c #7A594E",
" . c #74554A",
".. c #6D5C5C",
"X. c #7C614F",
"o. c #7F6450",
"O. c #425763",
"+. c #425F7B",
"@. c #48627A",
"#. c #536879",
"$. c #626262",
"%. c #7D6C69",
"&. c #77737F",
"*. c #777879",
"=. c #843574",
"-. c #8D5A4F",
";. c #825D52",
":. c #955D50",
">. c #896B53",
",. c #976051",
"<. c #996252",
"1. c #956C57",
"2. c #9C7C59",
"3. c #9B7159",
"4. c #A2755B",
"5. c #BB7259",
"6. c #A6695A",
"7. c #8C4476",
"8. c #806F6A",
"9. c #8B7A75",
"0. c #966C64",
"q. c #AB6774",
"w. c #AA6A65",
"e. c #C27D54",
"r. c #AB953C",
"t. c #D1BD3F",
"y. c #AA895E",
"u. c #A7865D",
"i. c #A8896E",
"p. c #B28F65",
"a. c #C2835C",
"s. c #D1BE41",
"d. c #E2BE5D",
"f. c #CB9A67",
"g. c #D1B86D",
"h. c #D1AC6C",
"j. c #E6BE6F",
"k. c #F7B76F",
"l. c #F4A765",
"z. c #DFC84F",
"x. c #F9C95B",
"c. c #FBD566",
"v. c #FBE36F",
"b. c #4C008B",
"n. c #56009B",
"m. c #386F8F",
"M. c #3D718E",
"N. c #287EAA",
"B. c #43738C",
"V. c #6F7B82",
"C. c #8E268F",
"Z. c #973595",
"A. c #9C4498",
"S. c #B86795",
"D. c #2C80A9",
"F. c #3C86A4",
"G. c #529399",
"H. c #26A5CF",
"J. c #43E8E9",
"K. c #9D8C83",
"L. c #8A8E91",
"P. c #AA998F",
"I. c #AC9B90",
"U. c #ACAAB1",
"Y. c #BCBCBD",
"T. c #ECBE91",
"R. c #FFEC8B",
"E. c #D1C3A1",
"W. c #D3C5B4",
"Q. c #FDE6B2",
"!. c #E0DAD5",
"~. c #D2D2D4",
/* pixels */
"      o                                                 o o o o o . o O O                                                     % ",
"                                              o & < 4 7 0 u p p p u w q 0 3 * .                                                 ",
"                                          o 3 q w q u u y 0 H.w w q q w p u q w 6 %                                             ",
"                                      . > g u 0 7 w 7 7 0 N.J.N.6 6 0 0 7 7 w 7 7 u g * .               1                       ",
"                                  . = u s 7 0 w 0 7 0 7 0 q H.7 7 w q 7 7 0 N.0 w 0 7 a u 4 %                                   ",
"                                * 0 u q q 0 q 0 7 0 0 0 a a b a a a a a p 0 0 7 0 0 0 w w u w 4 +                         $.    ",
"                            . 1 u p 7 0 7 u 0 l a a a a b b b b b v b m v a a a a 7 u 7 0 7 p u 6 > .         o                 ",
"                          # u p q 7 w 6 y i a v ..8.8.K.I.I.I.I.I.I.I.P.K.%.8...b v y p 0 q 7 w p s 3 +                         ",
"                        = s w 7 0 e w y a v R 8.K.P.I...b b b I m m b b $.I.I.K.8.~ v v v y i 0 7 w p 7 :                   *   ",
"                      5 u w S 0 7 7 i b v P.K.8.~ b J b b b I b b m b b b J m _ 8.K.P.v b v y 7 0 7 w u 7 $                     ",
"                    ; u q 7 6 0 a c b %.W.v v v b b b b U b b I I b b U b b b b v v c W.8.b c v p 6 7 q u w .                   ",
"                  o p w 7 6 q i v ..P.9.v b a v b b b I b J b b I b J b b b b b v c B.v 9.i.{ v i a 6 7 w u 6 .                 ",
"                1 6 q 7 S 0 a v 9.L.v v v v b b v I I U I I U I / U I m U I I v m v b c b v >.;.v v y 7 r k B 4 .               ",
"                ; w 7 4 0 a ..I.9.R v v v v m I I @.U U U U I I I I U E U U b I m m v v v v m ;.4._ v b z V C P 3 o             ",
"            o o w 7 7 q i ..9.c v c v v b b I I I I c                     v I I m m m b b v c v a } ( n L A D C P > .           ",
"  o           6 7 0 0 y v P.v v v b v b m m U J c                             c m E m m b v v c v v ,.v n O.N.A W r &           ",
"            5 q 0 7 a v 9.9.v c m v v I _ I                                       e I _ I v v b v v ] ] n n O.D C H 6 O         ",
"  o       - u 0 w y c ..9.R c b b v U _ b                                             b [ U v v v v m } ( v n T z H q >         ",
"        o p 7 w y i b I.v v v v c U U e                                                 i #.U a c b v v <.b n b H 7 p 7 X       ",
"        w q 0 0 i L %.9.v v b b m ` c                                                     e _ I b v b b ] ' v v a 0 q u $       ",
"      * s q 6 p v v W.v v v b I _ b                                                         b ) m b v c b 5.b v v 7 q s 3       ",
"    Y.g 0 0 y Q v P.i v b v b b I                                                             I m b v b b v :.v v d 0 7 I o     ",
"    * p 0 0 0 a ~ K.v v v b I U e                                                             e U m m Q v v -.m v a 0 q u 2     ",
"    0 7 w 0 p v 8.8.v v m I I m                                                                 m m m m v v ' ' b v p q 0 q .   ",
"  o u 7 0 7 a ..K.~ b v v I I c                                                                 i I m a v b U -.( b a 0 7 u &   ",
"  * q w 7 a v %.I.b b b J I I                                                                     m b m m b b 4.| v v y y 0 <   ",
"  2 u 7 0 a b 8.I.b b b I I v                                                                     i I I b b b 4.| b v a 0 F 4   ",
"  7 u 7 7 a a K...b b m U U                                                                         U I m b b { 1.v b y 7 u 7   ",
"  q q q 0 a J P.b b U b I E                                 e.l.l.a.                                U I b U b v 4.b b p 0 w q . ",
"  u 0 0 p v b y.b Y b b I U                               6.N x M C.6.                              I I B.b b J i.b Q b 0 0 w O ",
"  p k 6 a b v y.m I b b U I                             f.=.@ j M n.Z.f.                            I I b b I m I.v b b 7 q p o ",
"  p q 0 y b b y.b b I I I b                         &.E.k.x j b.n.M M k.g. .                        I f b I b b I.b b i 7 q u o ",
"  p w 7 y b b y.b b T I I I       r.s.s.s.~.U.  U.!.Q.c.x.w.q.S.S.q.6.x.x.c.z.r.  r.s.s.s.s.r.      I I J I a m I.b b v 0 q p % ",
"  p 0 7 a b b y.I J b b I I                       V.W.t.t.v.T.j.g.x.v.z.s.s.h                       f I b b I b I.v b b 7 q p % ",
"  u 0 0 a a v y.b m b b I U                               p.A.M x 7.p.                              I I b b I b I.b @.b 0 0 w % ",
"  0 w 7 a v v p.b b U b I U                                 g.R.R.g.                                ) a b U b b P.b v v 0 q q % ",
"  7 p 7 O.c v 2.{ b b b U U                                                                         U f m b ! ..K.v v v 0 p 7 + ",
"  1 u 7 q a b } 4.b b b U Y v                                                                     i I I @.b b I.8.b v a 7 w 4 . ",
"  % q w 7 a v | 4.b J b m b m                                                                     J b m @.b v I.%.v v y w q 3 . ",
"  . u 7 0 a b ` 1.U b b b I I c                                                                 Q Y Y M.G.M.~ K...v a a 7 w >   ",
"    0 7 w a v v ;.| v a b m Y m                                                                 ! T Y b M.a 8.8.b b b f 6 w +   ",
"    = u 0 H a v m 1.v v b m m U e                                                             l ^ T m b G v K.R v v b p p 4     ",
"    o g 7 7 m v c 6.c b b c b m I                                                             I b L c v b v P.v v I a 7 I +     ",
"      3 s q 7 v c c f.c c v b m E b                                                         a ) I v v v v W.v v v F.0 s 1       ",
"      + p q 0 a v b V.;.v b v b I _ e                                                     e _ I v b v b 9.%.v v v a w w +       ",
"        4 p 7 a v +.G.0.v v v v a U U e                                                 e U U v v v v v I.v v v b w u 4         ",
"        + q p y a b M.( ;.m v v v v U _ b                                           8 b _ I v v Q c R 9...c v b a p w #         ",
"        . 7 u q a c c c ] ] v v m b v Y [ I e                                     e I E I a v I v v 9.9.v v v a p w 4           ",
"          & 7 p 7 a v v v :.v v c b c b m m R m c .                           i m U m m b v v v v v P.v c v v y p 6 .           ",
"            : s w u c v v ( ] v c i c b b m m m m m v                     i J I I I b b v v c v v 9...a v c v p s #           H ",
"            X 3 p w 0 i v b ( :.] m v v v c m ^ T T T ^ E U I I I I U U U I I I I b v v v v U >.p.` v v i a w s =               ",
"              # 6 w q w v v v v ] ;.v i c b v m n L T U m I Y I I I I I U I I v m v b v Q v >.>.i v v v i q u 5                 ",
"                % 0 u q y i v v v ( :.;.b b v v K @.L Y b b b I I b b b I b b b v v b v >.y.{ v c v i i p u 0 .                 ",
"                  % q u w 7 n b n c b ' 5.v v n K L T n U b b I I b b U b b J v v v v h.o.v c v v c a q u t             o       ",
"                    + 0 w B K K K n v v v :.-. .R b L L b m m b b ! b J b b v U >.2.y.v b v v a v a q q o                       ",
"                      + r O.C D L b v v v v U ] -.<.4.{ n m m b I m m v { y.y.2.o.U v a v v b b i p u X                         ",
"        *.              O t W W P k b v v v v b ( ' | 1.4.4.4.4.4.4.4.4.3.>.o.[ v b v v v b p a d F o                           ",
"                          V., S B u y a v m v b b v b v b b b b b v b b v b v v b v m v v a u w *                               ",
"                              & 7 w u w a a b v v b v b n a b b b b v v b v b v v v a a a p 6 o       =                         ",
"                            .   X , 7 u p 7 u f a v v v v b b a v b b v v v v b m p 7 s p -                           o         ",
"        1                   L.      $ : 3 g u 0 0 w 6 7 v v a v v i v v i 7 w 7 7 u g 1 o                                       ",
"                              .       . + & 4 e i w u u w 0 0 e w q q u p y q w 7 * .                                           ",
"                                              o # * < 4 w u p p p u u 0 7 1 % .                                 1               ",
"                                                          o % % $ % & o                                                         "
};
