/* XPM */
static char *result[] = {
/* columns rows colors chars-per-pixel */
"64 64 161 2 ",
"   c #000001",
".  c #090406",
"X  c #04060A",
"o  c #0C060A",
"O  c #05090D",
"+  c #0B0A0B",
"@  c #11060C",
"#  c #110A0E",
"$  c #060B12",
"%  c #0B0D13",
"&  c #090F19",
"*  c #140710",
"=  c #190710",
"-  c #140C12",
";  c #1B0A15",
":  c #1F0B19",
">  c #0E1116",
",  c #0C111B",
"<  c #121113",
"1  c #181016",
"2  c #13161B",
"3  c #1C141A",
"4  c #13181F",
"5  c #1D1B1D",
"6  c #240C1B",
"7  c #2C0E1D",
"8  c #2A0D12",
"9  c #23141E",
"0  c #2E141C",
"q  c #0D1624",
"w  c #0C1926",
"e  c #111720",
"r  c #151B23",
"t  c #191F2B",
"y  c #1E1F24",
"u  c #2F0E20",
"i  c #271120",
"p  c #2B1423",
"a  c #241A22",
"s  c #2C1925",
"d  c #2A1C28",
"f  c #35162A",
"g  c #39142A",
"h  c #32192A",
"j  c #391A2E",
"k  c #3E1425",
"l  c #3E1631",
"z  c #1C2027",
"x  c #1B222C",
"c  c #132133",
"v  c #15253E",
"b  c #1B2638",
"n  c #1A2536",
"m  c #222323",
"M  c #212329",
"N  c #2C2028",
"B  c #2C2C2D",
"V  c #232731",
"C  c #282D35",
"Z  c #372933",
"A  c #3B2C38",
"S  c #3D2334",
"D  c #3D3039",
"F  c #41152D",
"G  c #5B1D26",
"H  c #451632",
"J  c #491C3A",
"K  c #531B3F",
"L  c #5B1C31",
"P  c #631F3D",
"I  c #49233C",
"U  c #5E2133",
"Y  c #1B2F4C",
"T  c #1B2B47",
"R  c #1C2F51",
"E  c #253045",
"W  c #2A3648",
"Q  c #27354A",
"!  c #303743",
"~  c #353C45",
"^  c #353E4C",
"/  c #273D62",
"(  c #591C42",
")  c #621F40",
"_  c #572947",
"`  c #572F49",
"'  c #522241",
"]  c #463D44",
"[  c #60234B",
"{  c #682651",
"}  c #6C2F57",
"|  c #7E2950",
" . c #603050",
".. c #633F57",
"X. c #71335C",
"o. c #7C3964",
"O. c #344156",
"+. c #344460",
"@. c #364F7A",
"#. c #4B4248",
"$. c #494A4B",
"%. c #54424E",
"&. c #554450",
"*. c #595759",
"=. c #655660",
"-. c #6E676E",
";. c #68696F",
":. c #6B6F74",
">. c #916F3C",
",. c #83295E",
"<. c #A53857",
"1. c #A6385A",
"2. c #842A62",
"3. c #9C3472",
"4. c #AF3D6D",
"5. c #AF3E72",
"6. c #A93571",
"7. c #8A7047",
"8. c #FBB954",
"9. c #FBBC5C",
"0. c #FBC065",
"q. c #FCC36E",
"w. c #FCCB7F",
"e. c #405983",
"r. c #5D6C81",
"t. c #787B81",
"y. c #B65293",
"u. c #8F7687",
"i. c #A97999",
"p. c #A37995",
"a. c #C14F8E",
"s. c #C25795",
"d. c #C15F9C",
"f. c #CB5E9C",
"g. c #CF6C9D",
"h. c #8C8F94",
"j. c #8F949C",
"k. c #9A9B9B",
"l. c #8993A4",
"z. c #8A99B4",
"x. c #DA89AF",
"c. c #DE95B3",
"v. c #E3A4BC",
"b. c #FCCD84",
"n. c #FCD293",
"m. c #FDD69A",
"M. c #FDD8A0",
"N. c #FDDCA9",
"B. c #FDE2B9",
"V. c #ECC2D5",
"C. c #E3DCD2",
"Z. c #FEE7C4",
"A. c #FEEACC",
"S. c #F2E3CA",
"D. c #FEECD2",
"F. c #F5DFE8",
"G. c #E9E8EA",
"H. c #FEF4E4",
"J. c #FFF8EE",
"K. c #FFFAF3",
"L. c #FFFFFF",
/* pixels */
"                                                                    X + .                         . - r t .                     ",
"                        X     X                                     + 9 -                               X                       ",
"                                                  . X   . .         @ - @                                                 X     ",
"                                                  o     . .           .                                                         ",
"                          X o                                                 X                                               . ",
"; o .         r       . = 6 9 +         X                                           +                                           ",
"' A %       X O       @ g J I 9 .       X                                                                                   X   ",
"Z ^ $     X   X X   o 6 K 3.y.X.3 +                                                   X                                         ",
"O & X = 2         o 6 K 3.x.V.a.[ 7 .                               X               . +                                         ",
"                . ; F 2.f.F.L.c.6.( ; X X                     .   .                                                             ",
"                  . = H 2.g.v.4.P u o                           X @                                                             ",
"      X           X   - f 2.5.P 7 o .     X                       .               .     X               +   X                   ",
"                    . X = H P 7 @ .                                             . . X                     X $ X                 ",
"                .       X 6 7 @                         +     L.L.                                          X                   ",
"X                         o ; o                         .     n.K.    +                                                         ",
"                          o 9 = .       X   +               8.0.J.L.                                      X                     ",
"            +               + X                           8.8.0.J.L.  X                                                   , s 6 ",
"                                    X                     8.8.0.J.L.                                                      a ..; ",
"O .                                                       8.8.0.J.L.                            < ; o     X               + = o ",
"y X       .                                               8.8.0.J.L.L.                        X W =.9                   +       ",
"+ +               X     ,                 X             8.8.8.0.J.L.L.L.    + X               , Q ~ +                           ",
"                      X $       O % $                   8.8.8.0.J.L.L.L.                        X % O                           ",
"                  . >           % ! e                   8.8.8.0.J.L.L.L.                                                        ",
"                                + 2 +                 8.8.8.8.0.J.L.L.L.L.      +                                               ",
"                                    X           8.8.8.8.8.8.8.9.m.M.M.Z.L.L.L.L.  O                     X                       ",
"                                          X   8.8.8.8.8.8.8.8.8.8.8.8.w.Z.Z.Z.H.L.          X +                                 ",
"                  @       X                   8.8.8.8.8.8.8.8.8.8.8.8.8.8.8.8.Z.L.                          X X     X           ",
"                  X             +             8.8.8.8.8.8.8.8.8.8.8.8.8.8.8.8.Z.L.  X                                           ",
"                        L.  X     O X + + 8.8.8.8.8.8.8.8.8.8.8.8.8.8.8.8.8.8.Z.L.L.L.+               L.                        ",
"            X X   X   X L.L.L.A.8.8.8.8.8.8.8.8.8.8.8.8.8.8.8.8.8.8.8.8.8.8.8.8.L.L.L.L.L.L.L.L.L.L.L.L.                      . ",
"            x R c +       L.D.n.8.8.8.8.8.8.8.8.8.8.8.8.8.8.8.8.8.8.8.8.8.8.8.8.8.N.N.H.L.L.L.L.L.L.L.                          ",
"            x j.r.%         N.8.8.8.8.8.8.8.8.8.8.8.8.8.8.8.8.8.8.8.8.8.8.8.8.8.8.8.8.N.A.A.A.A.C.L.        X                 X ",
"      .   . V :.&.@     +       8.8.8.8.8.8.8.8.8.8.8.8.8.8.8.8.8.8.8.8.8.8.8.8.8.8.8.8.8.8.8.8.                                ",
"      . - X + 1 g @ . X                   8.8.8.8.8.8.8.8.8.8.8.8.8.8.8.8.8.8.8.8.8.8.                                          ",
"      X O     X   . . +                     X 8.8.8.8.8.8.8.8.8.8.8.8.8.8.8.8.8.8.        X X                                   ",
"                  X + 5 + .               X . 8.8.8.8.8.8.8.8.8.8.8.8.8.8.8.8.8.8.                                  .     $ X   ",
"X               X , M B s # X               + 8.8.8.8.8.8.8.8.8.8.8.8.8.8.8.8.8.8.                                      O q & X ",
"              O q E +.-.` h = o             o 8.8.8.8.8.8.8.8.8.8.8.8.8.8.8.8.8.8.                                    . > M r % ",
"            $ w R e.z.G.i.X.j ; o           X + 8.8.8.8.8.8.8.8.8.8.8.8.8.8.8.8.                                  . o < d ] C r ",
"        5   O q T @.l.G.p.} h ; .             X 8.8.8.8.8.8.8.8.8.8.8.8.8.8.8.m.                    X             . : j  .u.&.z ",
"              X , b O.;.D 9 3 %       +   X   8.8.8.8.8.8.8.8.8.8.8.8.8.8.8.m.S.L.          X                       o 6 ( } S 1 ",
"                O , b W x > X .     % < %     8.8.8.8.8.8.8.8.8.8.8.8.8.8.8.N.H.L.                                  . o 6 ( u o ",
"            - X X X , c , X         : d +   8.8.8.8.8.8.8.8.8.8.8.8.8.8.8.8.8.N.L.L.                                    o 6 *   ",
"                    X % X         M = +     8.8.8.8.8.  8.8.8.8.8.8.8.8.  8.8.N.L.L.X         . X                     < * * %   ",
"                  +   X           +       8.8.8.8.8.          8.8.        9 8.q.N.L.L.            X             . o - D *.y     ",
"X               X                   .     9.8.8.8.                        X . 8.b.L.L.                          + Z a #.t.e     ",
"                X                       8.8.8.8.                                7.D.L.L.                      1 < $.5 + r %     ",
"          X     +                     8.8.8.8.            . @ .                   >.H.K.    .                 X . # -     X     ",
"    +                                 8.8.8.  X           = 7 @         X         . 0.D.    < y 2 +                             ",
"                  .                   8.8.            . = F U 0 @                   X b.B.  T h.~ +                             ",
"                  o                                   @ g ,.1.G 8 @                       X v / T X                             ",
"                      X                             O s { y.c.1.L 8 o                       X X %                               ",
"            X B         X                           X # j o.g.| F ; .                                                           ",
"          . % k.B                                     X # N ` f = .     X                                                       ",
"      .                     . <                         X # 9 # .             +                                                 ",
"              m                                 %         X <                                       X                           ",
"                                        . 2     $           . X       X .     m                   X                             ",
"                              +                                     . 3 +       X .             +                               ",
"              m                 5                             X     . o X               X                                     X ",
"              +                 X X .                                                                               X           ",
"    .         X                 +   . @                                                                                   X     ",
"    + X                       +             +                                             X                               O     ",
"                                                                                                  +                             ",
"                                                                          X                                                     "
};
