/* XPM */
static char *result[] = {
/* columns rows colors chars-per-pixel */
"64 64 41 1 ",
"  c #181425",
". c #171E33",
"X c #172634",
"o c #152742",
"O c #123A5F",
"+ c #133B5F",
"@ c #FBB954",
"# c #FBBB59",
"$ c #FBC065",
"% c #FCC36E",
"& c #FCC674",
"* c #0B6FAE",
"= c #0099DB",
"- c #2CE8F5",
"; c #FCCC81",
": c #FCCC82",
"> c #FCCE87",
", c #FCD190",
"< c #FDD394",
"1 c #FDD395",
"2 c #FDD69B",
"3 c #FDDBA8",
"4 c #FDDCAA",
"5 c #FDDDAB",
"6 c #FDE2B9",
"7 c #FEE7C4",
"8 c #FEEACC",
"9 c #FEECD1",
"0 c #FEEDD4",
"q c #FEEED4",
"w c #FEF0DB",
"e c #FEF2E0",
"r c #FEF4E5",
"t c #FEF6E9",
"y c #FFF7EC",
"u c #FFF8ED",
"i c #FFF8EE",
"p c #FFF9F0",
"a c #FFFDFA",
"s c #FFFEFD",
"d c white",
/* pixels */
"                                   XX                           ",
"                                             +                  ",
"                   +          =                                 ",
"    O                        *-*                          =     ",
"                              =       *            *            ",
"                                                                ",
"                       o                                    =   ",
"                                                                ",
"      .                   .                           +         ",
"              +                                                 ",
"                                                                ",
"                                          =                     ",
"            +    *              O                   ...         ",
"                         *     dd                  .ooo.        ",
"                              .dd                  .oOOo.       ",
"                              dddd                 .oO*Oo.      ",
"                             ddddd                  .oOOo.      ",
"                             ddddd                   .ooo.      ",
"                           = ddddd +         *        ...       ",
"         o                   dddddd                             ",
"                     *      dddddddd                            ",
"       O                    dddddddd                          * ",
"                            dddddddd               +            ",
"                           dddddddddd                           ",
"                       .dddddddddddddddd                        ",
"                      .dddddddddddddddddd                       ",
"                      .dddddddddddddddwud    +               +  ",
"                +     .ddddddddddddds@@7d                       ",
"            @        ddddddddddddddd@@@7ddd        d            ",
"            8yddddddddddddddddddddd@@@@@dddddddddddd=     +     ",
"  .          ddddddddddddddddddddd@@@@@@@@@@ddddddd             ",
"              dddddddddddddddddddt@@@@@@@@@38888yd              ",
"          o     dddddddddddddddsp@@@@@@@@@@@@@@@                ",
"                     ddddddddddp&@@@@@@@@@@                     ",
"                      =dddddddw:#@@@@@@@@                 *     ",
"                       dddddd0,@@@@@@@@@@                       ",
"    +                  dddddw,@@@@@@@@@@@    ...      +         ",
"                       dddsp:@@@@@@@@@@@@   .ooo.   *           ",
"                  *     ddp&#@@@@@@@@@@@    .oOOo.  *           ",
"                        dt:#@@@@@@@@@@@2    .oO*Oo.=-=          ",
"                       d0<@@@@@@@@@@@@1qd    .oOOo. =           ",
"     .                 9,@@@@@@@@@@@@@3rd     .ooo. *           ",
"                      i:@@@@@@@@@@@@@@@4dd     ...              ",
"                      $#@@@ @@@@@@@@ @@4dd               =      ",
"          =          @@@@@     @@     @%5dd                  +  ",
"         *-*         @@@@              @>dd                     ",
"          =         @@@@         O      :9ad    +               ",
"                   @@@@                  $ea                    ",
"                   @@@       .            $9                    ",
"                   @@ .     .              ;6                   ",
"                       o...o          .                         ",
"                       .ooo.                O                   ",
"                       .o*o.                                    ",
"              ...      .ooo.                         +          ",
"        +    .ooo.     ....o     O                              ",
"            .OoOo.    .     .                                   ",
"           .ooooo.           .                   +              ",
"           .oOoO.                                      O        ",
"           .Ooo.                                                ",
"            ...                                                 ",
"                                                                ",
"                                                                ",
"                                           .                    ",
"                                                                "
};
