/* XPM */
static char *result[] = {
/* columns rows colors chars-per-pixel */
"64 64 32 1 ",
"  c #181425",
". c #171E33",
"X c #172634",
"o c #152742",
"O c #123A5F",
"+ c #133B5F",
"@ c #FBB954",
"# c #FBBC5C",
"$ c #FBC065",
"% c #FCC36E",
"& c #FCCB7F",
"* c #0B6FAE",
"= c #0099DB",
"- c #2CE8F5",
"; c #FCCC82",
": c #FCCE87",
"> c #FDD395",
", c #FDD599",
"< c #FDD69B",
"1 c #FDD8A0",
"2 c #FDDBA8",
"3 c #FDDCA9",
"4 c #FDDCAA",
"5 c #FDDDAB",
"6 c #FEE7C4",
"7 c #FEE7C5",
"8 c #FEEACC",
"9 c #FEEED4",
"0 c #FEF4E5",
"q c #FEF5E5",
"w c #FFF7EC",
"e c #FFF8EE",
/* pixels */
"                                   XX                           ",
"                                             +                  ",
"                   +          =                                 ",
"    O                        *-*                          =     ",
"                              =       *            *            ",
"                                                                ",
"                       o                                    =   ",
"                                                                ",
"      .                   .                           +         ",
"              +                                                 ",
"                                                                ",
"                                          =                     ",
"            +    *              O                   ...         ",
"                         *     $e                  .ooo.        ",
"                              .$e                  .oOOo.       ",
"                              @$e                  .oO*Oo.      ",
"                             @@$e                   .oOOo.      ",
"                             @@$e                    .ooo.      ",
"                           = @@$e  +         *        ...       ",
"         o                   @@$e                               ",
"                     *      @@@$e                               ",
"       O                    @@@$e*                            * ",
"                            @@@$e                  +            ",
"                           @@@@$e   =                           ",
"                       .@@@@@@@#,117                            ",
"                      .@@@@@@@@@@@@&666q                        ",
"                      .@@@@@@@@@@@@@@@@6     +               +  ",
"                +     .@@@@@@@@@@@@@@@@6                        ",
"            @        @@@@@@@@@@@@@@@@@@6                        ",
"            @@@@@@@@@@@@@@@@@@@@@@@@@@@1  o         =     +     ",
"  .          @@@@@@@@@@@@@@@@@@@@@@@@@@&133q                    ",
"              @@@@@@@@@@@@@@@@@@@@@@@@@@@@@28888w               ",
"          o     @@@@@@@@@@@@@@@@@@@@@@@@@@@@@@@@                ",
"                     @@@@@@@@@@@@@@@@@@@@@@                     ",
"                      =@@@@@@@@@@@@@@@@@@                 *     ",
"                       @@@@@@@@@@@@@@@@@@                       ",
"    +                  @@@@@@@@@@@@@@@@@@    ...      +         ",
"                       @@@@@@@@@@@@@@@@@@   .ooo.   *           ",
"                  *     @@@@@@@@@@@@@@@@    .oOOo.  *           ",
"                        @@@@@@@@@@@@@@@<    .oO*Oo.=-=          ",
"                       @@@@@@@@@@@@@@@>9     .oOOo. =           ",
"     .                 @@@@@@@@@@@@@@@20      .ooo. *           ",
"                      @@@@@@@@@@@@@@@@@4       ...              ",
"                      @@@@@ @@@@@@@@ @@4                 =      ",
"          =          @@@@@     @@     @%5                    +  ",
"         *-*         @@@@              @:                       ",
"          =         @@@@         O      ;       +               ",
"                   @@@@                                         ",
"                   @@@       .                                  ",
"                   @@ .     .                                   ",
"                       o...o          .                         ",
"                       .ooo.                O                   ",
"                       .o*o.                                    ",
"              ...      .ooo.                         +          ",
"        +    .ooo.     ....o     O                              ",
"            .OoOo.    .     .                                   ",
"           .ooooo.           .                   +              ",
"           .oOoO.                                      O        ",
"           .Ooo.                                                ",
"            ...                                                 ",
"                                                                ",
"                                                                ",
"                                           .                    ",
"                                                                "
};
