/* XPM */
static char *result[] = {
/* columns rows colors chars-per-pixel */
"38 48 202 2 ",
"   c #000000",
".  c #090A07",
"X  c #05050A",
"o  c #09070C",
"O  c #0B0A0D",
"+  c #1A190E",
"@  c #0C0A13",
"#  c #070919",
"$  c #190F13",
"%  c #110E1A",
"&  c #0B121C",
"*  c #151516",
"=  c #15131B",
"-  c #1A1919",
";  c #28271E",
":  c #0A0D29",
">  c #191729",
",  c #181735",
"<  c #003F2F",
"1  c #12223A",
"2  c #252526",
"3  c #262339",
"4  c #322E3D",
"5  c #333434",
"6  c #39393C",
"7  c #00523D",
"8  c #026C2F",
"9  c #02752C",
"0  c #026033",
"q  c #52503B",
"w  c #000343",
"e  c #00004D",
"r  c #0B0A48",
"t  c #110E42",
"y  c #1C1A43",
"u  c #1B1A4A",
"i  c #010155",
"p  c #00005C",
"a  c #09085C",
"s  c #001458",
"d  c #121253",
"f  c #1D1C54",
"g  c #14145E",
"h  c #161C59",
"j  c #201F5C",
"k  c #002A41",
"l  c #262546",
"z  c #383744",
"x  c #3D3A45",
"c  c #262657",
"v  c #25245D",
"b  c #34345A",
"n  c #000064",
"m  c #090A64",
"M  c #01016C",
"N  c #1A1B69",
"B  c #010174",
"V  c #0F0F70",
"C  c #00017B",
"Z  c #090C7C",
"A  c #0E1174",
"S  c #151775",
"D  c #1B1C76",
"F  c #13167C",
"G  c #1C1C7C",
"H  c #1D227A",
"J  c #282763",
"K  c #282868",
"L  c #383668",
"P  c #2B2A77",
"I  c #353376",
"U  c #17584B",
"Y  c #156F53",
"T  c #214776",
"R  c #454542",
"E  c #4A4A48",
"W  c #565644",
"Q  c #494656",
"!  c #575658",
"~  c #666656",
"^  c #71705F",
"/  c #5E5C66",
"(  c #45467D",
")  c #6D6C71",
"_  c #7D7D78",
"`  c #01B509",
"'  c #00C603",
"]  c #00CC01",
"[  c #00D400",
"{  c #00E900",
"}  c #01F300",
"|  c #01FF00",
" . c #7F8079",
".. c #63CE63",
"X. c #7BE174",
"o. c #000282",
"O. c #0A0A83",
"+. c #00028B",
"@. c #1A0F8F",
"#. c #000793",
"$. c #2F078D",
"%. c #282B85",
"&. c #363786",
"*. c #333099",
"=. c #0007A5",
"-. c #53398C",
";. c #5B38AB",
":. c #44458C",
">. c #525C8A",
",. c #454699",
"<. c #4D519F",
"1. c #57589B",
"2. c #695095",
"3. c #666786",
"4. c #7B7983",
"5. c #6C6B9F",
"6. c #787899",
"7. c #444AA4",
"8. c #4E52A1",
"9. c #5657A6",
"0. c #6F70A9",
"q. c #797BA7",
"w. c #817F83",
"e. c #7F80A9",
"r. c #848287",
"t. c #8B8A85",
"y. c #8C8C8D",
"u. c #94938C",
"i. c #9C9D8B",
"p. c #898A97",
"a. c #959394",
"s. c #989791",
"d. c #9B9A94",
"f. c #9E9D9A",
"g. c #A09F9D",
"h. c #9FA59B",
"j. c #A8A797",
"k. c #A2A29D",
"l. c #898AAA",
"z. c #9E9EA4",
"x. c #888AB4",
"c. c #A5A5A2",
"v. c #A8A7A3",
"b. c #ABABA5",
"n. c #ADACAA",
"m. c #B2B2AE",
"M. c #B9B9AA",
"N. c #A8A8B6",
"B. c #B6B5B2",
"V. c #BABAB5",
"C. c #B4B4BD",
"Z. c #BCBCBA",
"A. c #CBAEBE",
"S. c #C0BFBD",
"D. c #8FE585",
"F. c #BEEAB2",
"G. c #C6C6AD",
"H. c #C5C5B5",
"J. c #CBCCB6",
"K. c #C2C2BC",
"L. c #D0CEBF",
"P. c #D5D5BE",
"I. c #B9B9C2",
"U. c #C1BAC0",
"Y. c #BFC1C1",
"T. c #C4C4C3",
"R. c #C9C9C7",
"E. c #C7C7C8",
"W. c #CCCCCB",
"Q. c #C8D1CC",
"!. c #D7D8C4",
"~. c #D4D4CE",
"^. c #DADBCA",
"/. c #D8C7D2",
"(. c #CFD0D0",
"). c #D3D4D3",
"_. c #D7D8D5",
"`. c #DDDDD5",
"'. c #D6D7D9",
"]. c #DBDBDA",
"[. c #E0DFCA",
"{. c #EEC5DD",
"}. c #C4ECC0",
"|. c #DDE7DA",
" X c #EFF0C9",
".X c #E2E2D5",
"XX c #EAEAD4",
"oX c #E6E7D9",
"OX c #F3F2DB",
"+X c #FAFADD",
"@X c #DFDFE0",
"#X c #FED4F9",
"$X c #DFE0E2",
"%X c #E4E4E3",
"&X c #EEEEE7",
"*X c #EBECEB",
"=X c #F8F7E7",
"-X c #FCFCE3",
";X c #EFEFF0",
":X c #FFEAFD",
">X c #FFFFF2",
",X c #F9F9F9",
/* pixels */
"                                                X y r m t                   ",
"                                              X = G M M g .                 ",
"                                              =   i =.n L X                 ",
"                                              = + m #.M L                   ",
"                                            f Z XX,.o.C d o                 ",
"        T.                                X J Z +X7.C o.r @ .               ",
"          r.                              o 4.N.|.&.B C d @                 ",
"                                  X X   X % _ [.`.S p B d =                 ",
"                                  K I K K d p.oX~.N.I i f >                 ",
"                                X P C M B n q.=XW.-X1.p N 2                 ",
"                O                 ,Xg i B n w.;XW.XX<.C +.:                 ",
"                        R   -       ; 3 6.l.I.~.W.XX<.C o.#                 ",
"                                X     Q n.OX~.E.W.XX8.C o.#                 ",
"                      -         X A w i q.=XW.W.W.XX8.C o.#                 ",
"                                  %.M B x.OXW.W.W.XX8.C C , X               ",
"                                E.N.I.p.n._.W.W.~.XX<.C B l c D P N >       ",
"  2                           @ a.].!.j.j.f.s.v.%X>X8.n C Z C B M n l X     ",
"  .         u.              > f.U.(.v.k.T.Z.R.v.R E > X X b 6.3.3.p.&.K G h ",
"                  n.X X & 1 y.s.f.g.b.S.E.T._.v.* 2 W ~ W i.!.J.G. X:.p V D ",
"        X % Q ).g.a.h.m.Y.K.M.G.^.P.OXL.t.s.s.u.t.T.$X*X;X%X)._.].].x @ X X ",
"      @ w./ ! Q s.V.A.2.-.-.:.0.0.5.0.l.P.Z.n.m.B.).'.Z.m.B.B.m.n.v.x       ",
"    X 3 &XR     Z.|.F.T w s B o.B M n %.H.Z.W.R.R.S.R.B.d.k.k.k.a.u.2       ",
"  X C n I.`.(.(.:XX.] [ [ | 9 C o.#.O.M   W K.v.b.d.B.).W.W.T.y.o           ",
"+ , +.B I..X].'.;.U [ ] ] } 8 C C B C #.  ^ ,XW.E.W.W.W.(.W.T.)             ",
"+ , +.B I.`.~.~.@.k ] ` ` [ 0 o.C M C #.  ^ *XW.).'.(.E.W.W.T.y.            ",
"@ l B n C.&X*X*X#X..' { } | 9 C C O.o.C   q V.k.n.v.Z.).).(.E.p.@           ",
"  @ u b @X_ 5 5 /.}.D.Y < 7 s o.C C M G d.b.T.Z.V.n.K.Z.b.n.n.c.r.4.>       ",
"      % T.6 . 2 f./.{.;.$.$.*.7.7.,.&.q.=X~.S.T.T.(.'.B.g.v.v.g.d.u.E       ",
"        X % / %Xv.d.g.M.!.G.G.^.!.P.oXH.t.u.u.d.b.).*X&X;X@X(.'._._.z X     ",
"              X X X . $ x Q B.u.d.d.n.Y.Z.V.T.k.q !  .t. .b.R.S.Z.^.>.h f , ",
"                          o x B.V.R.k.n.%X).*Xn.    . .   ~ M.j.i.H.*.p n M ",
"                            o z K.|.J.b.n.z.Y.W.b.H.( i a S @.F F d & & X o ",
"                                4 C.I.z.a.d.V._.$X-X9.C o.y N C C M &       ",
"                                # P O.O.x.XXW.W.W.XX8.o.B >       o X       ",
"                                @ B i i e.OXQ.W.W.XX8.C C ,                 ",
"                                $ I I I N.OX).R.W.XX8.C B ,                 ",
"                                  X . = 4.I.E.W.W.XX<.C C ,                 ",
"                                  @ t M o.+.w.XXW.XX<.C C y   6         X   ",
"                                = f C C C p q.OXW.+X1.n V >                 ",
"            .                   @ a Z S S m 6.OX~.~.:.i f X                 ",
"                                X $       % w.~.oX&.p M j                   ",
"                                          % y.E.oXP M B f                   ",
"                                          O c &.XX,.C B v                   ",
"                                          X r C >X8.C B v                   ",
"                                            o c 2 H +.M J                   ",
"            R.                                @   e =.M J                   ",
"                                                  V o.n v                   ",
"                                                  J a a >                   "
};
