/* XPM */
static char *result[] = {
/* columns rows colors chars-per-pixel */
"48 38 199 2 ",
"   c #000000",
".  c #0B0B03",
"X  c #050409",
"o  c #09070C",
"O  c #0A090D",
"+  c #19170D",
"@  c #000011",
"#  c #0B0B13",
"$  c #100D17",
"%  c #110E1B",
"&  c #121214",
"*  c #17161B",
"=  c #211E19",
"-  c #37361D",
";  c #050525",
":  c #191625",
">  c #1B1923",
",  c #19182C",
"<  c #0E0B35",
"1  c #161739",
"2  c #003F2F",
"3  c #262529",
"4  c #2A2637",
"5  c #343535",
"6  c #00523D",
"7  c #026B2F",
"8  c #52503B",
"9  c #050548",
"0  c #110E42",
"q  c #1B1A48",
"w  c #010154",
"e  c #00005B",
"r  c #0A0959",
"t  c #001458",
"y  c #131454",
"u  c #14145E",
"i  c #1D1D58",
"p  c #211E45",
"a  c #211F5D",
"s  c #0F264E",
"d  c #262446",
"f  c #273645",
"g  c #37394A",
"h  c #232351",
"j  c #27265D",
"k  c #2A385B",
"l  c #353557",
"z  c #000064",
"x  c #090A64",
"c  c #00016C",
"v  c #010174",
"b  c #00017B",
"n  c #090C7A",
"m  c #141673",
"M  c #1A1B77",
"N  c #13167C",
"B  c #191A7B",
"V  c #1E217B",
"C  c #1B3570",
"Z  c #292865",
"A  c #383668",
"S  c #222275",
"D  c #2C2D79",
"F  c #353376",
"G  c #413E4A",
"H  c #17584B",
"J  c #156F53",
"K  c #2D4C6F",
"L  c #464542",
"P  c #48474A",
"I  c #565644",
"U  c #46515A",
"Y  c #565659",
"T  c #585758",
"R  c #666656",
"E  c #5E5C66",
"W  c #45467D",
"Q  c #676666",
"!  c #727261",
"~  c #7D7D78",
"^  c #01B509",
"/  c #038024",
"(  c #00C603",
")  c #00CC01",
"_  c #00D400",
"`  c #00E900",
"'  c #01F300",
"]  c #01FF00",
"[  c #7F8079",
"{  c #63CE63",
"}  c #7BE174",
"|  c #838162",
" . c #000282",
".. c #0A0A83",
"X. c #00028B",
"o. c #000793",
"O. c #131390",
"+. c #2F078D",
"@. c #292B86",
"#. c #363786",
"$. c #333099",
"%. c #0007A5",
"&. c #53398C",
"*. c #5B38AB",
"=. c #377EB1",
"-. c #44458C",
";. c #535580",
":. c #454699",
">. c #4D519F",
",. c #57589B",
"<. c #695095",
"1. c #666786",
"2. c #797783",
"3. c #6C6B9F",
"4. c #75769C",
"5. c #444AA4",
"6. c #4E52A1",
"7. c #5657A6",
"8. c #6C6FA9",
"9. c #797BA7",
"0. c #817F83",
"q. c #7F80A9",
"w. c #0099DB",
"e. c #8B8A85",
"r. c #898789",
"t. c #918F8D",
"y. c #95948C",
"u. c #9C9C8B",
"i. c #87889B",
"p. c #949394",
"a. c #989791",
"s. c #9B9A94",
"d. c #969798",
"f. c #9E9D9A",
"g. c #A09F9D",
"h. c #AFAD91",
"j. c #A2A29D",
"k. c #A8A798",
"l. c #898AAA",
"z. c #9D9CA2",
"x. c #888BB4",
"c. c #93A4A9",
"v. c #A5A5A2",
"b. c #A8A7A3",
"n. c #ABABA5",
"m. c #ADADAA",
"M. c #B2B2AE",
"N. c #BAB9AA",
"B. c #A8A8B6",
"V. c #BDAFB5",
"C. c #B5B4B1",
"Z. c #BABAB5",
"A. c #B4B4BD",
"S. c #BCBCBA",
"D. c #C0BFBD",
"F. c #8FE585",
"G. c #BEEAB2",
"H. c #C6C6AD",
"J. c #C5C5B5",
"K. c #CBCBB6",
"L. c #C2C1BC",
"P. c #D0CEBF",
"I. c #D5D5BE",
"U. c #B9B9C2",
"Y. c #C1BAC0",
"T. c #C4C4C3",
"R. c #C9C9C7",
"E. c #C7C7C8",
"W. c #CCCCCB",
"Q. c #CFD0CD",
"!. c #D7D8C4",
"~. c #D4D4CE",
"^. c #DADBCA",
"/. c #D8C7D2",
"(. c #CFD0D0",
"). c #D3D4D3",
"_. c #D7D8D5",
"`. c #DDDDD5",
"'. c #D6D7D9",
"]. c #DBDBDA",
"[. c #E0DFCA",
"{. c #EEC5DD",
"}. c #C4ECC0",
"|. c #DDE7DA",
" X c #EFF0C9",
".X c #E2E2D5",
"XX c #EAEAD4",
"oX c #E6E7D9",
"OX c #F3F2DB",
"+X c #FAFADD",
"@X c #DFDFE0",
"#X c #FED4F9",
"$X c #E4E4E3",
"%X c #EEEEE7",
"&X c #EBECEB",
"*X c #FAF9E5",
"=X c #EFEFF0",
"-X c #FFEAFD",
";X c #FAFBF2",
/* pixels */
"            O                             O 1 + = O                                             ",
"                    o                     : d , 1 ,                                             ",
"                                          q v X. .b #                                           ",
"                                      o $ A z v v z 4                                           ",
"                                    X w.T.oXB.U.A.U.=XU                                         ",
"                                    % : g ~ *X`.oX.XL E o                                       ",
"  X                                 > E   5 %X~.].W.  Y P                                       ",
"                                    4 $X3 5 &XQ._.(.  P ).        3                             ",
"                                    3 k.f./.#XO.*.-XU.p.g.                                      ",
"                                    3 g./.}.{ s H } |.V.c.X                             O       ",
"                                    4 g.{.F.) ) _ ) G.Y.a.X     &                               ",
"                                    f N.*.J ` ^ ( _ K <.k.                                      ",
"                                    f ^.+.2 ' ^ ( _ 9 &.k.                                      ",
"                                    K H.+.H ] _ ' ] t &.N.X                                     ",
"                                  f Z.H.$.t / 6 7 7 v -.h.Q X                                   ",
"                                g Z.y.!.6.b v b b n  .8.K.s.d.$                                 ",
"                  X       X O d T.S.s.!.5.b b b n  .v 8.[.g.L.z.% X X                           ",
"                x p X X F c @.U.|.E.p.!.5.b  .c v o.c 3.I.j.Q.`.B.@.m &   X D q                 ",
"                n n 1 X F w ..U.J.j.n.oX#.c  .n n  .z 8.OXn.b.P.B.c 9 & # u b Z X               ",
"          O   X m v c > F w ..z.n.m.L.K.9.B b o.X.v @.l.R.S.v.h.l.v 9 >   w c 1                 ",
"              X m v b i.c.0.x.d.m.oXS.e.*Xp.        J.!.e.R.T.k.B.x.9.e.2.c b q                 ",
"            X % x z c A.+X+X&Xz.z.).Z.y.~.n.8 ! ! I S.S.a.T.Z.f._.OXOXOXl.z z y O X             ",
"        ; h r.0.4.9.l.T.).W.W.Z.T.&XT.y.S.T.Z.&X=XL.R.m.a.'.W.a.W.W.W.~.U.q.9.i.0.2.Z i % X     ",
"  X > h  .$.T.^.XXOXXXW.R.R.W._.W.m.j.s.T.S.g.W.W.n.R.M.y.v.b.n.W.W.W.E.~.OXOXXX[.B.n n =.4 > X ",
"o L   | ;XXXoX.XQ.W.W.W.W.W.W.$Xm.  L n.T.C.m.'.R.n.R.C.t.& 8 @X~.W.W.W.Q.Q.W._.^.|.+XXX-   G $ ",
"Z m w V 6.:.D #.).+XXXXXXXXXXX;XJ.  T ).).m.b.'.W.s.D.).T.3 L ;XXXXXXXXXXXXX*XB.m #.5.:.x w V a ",
"r  .%.X.b  .v e -.,.>.>.>.>.>.7.W . ~ &X'.Y.Z.(.R.C.W.'.$XI : 7.>.6.6.6.>.>.,.D e v  . .o.%.c y ",
"r z c v v v v z w z b b b b b v w . e.&XC.S.'.E.W.).C.S.&XR @ z b  .b b b b w w v  .b b c z c x ",
"h Z Z Z j a a a a x b v v b b  .r   [ =Xf.m.).W.W.Q.g.M.&XI X b b b b  . . .a i i y 9 y A A u 0 ",
"X     X       X X % q p p q 4 C N R n.@Xb.m.(.R.W.W.j.M.@Xu.k O.4 1 < < < < , $ # o # O # O X   ",
"                          X & u O.N.R.).b.m.E.T.T.T.j.M._.!.4.b j X       *                     ",
"X                 5           v M j.L.).j.z.p.d.Y T Q M.'.K.1.c M                         o     ",
"                              b N u.Z.).s.r.X       T n.'.H.1.v V                               ",
"  .                         X v M K.[._.y.2.  T   o Q b.`. X0.c S                               ",
"                            X g j $.;.G E g       X P E g -.#.d 4                   3           ",
"                              o l z                     X r S #                                 ",
"              X               # l z                       r S #                                 ",
"                              X k v                       y S O                                 "
};
