/* XPM */
static char *result[] = {
/* columns rows colors chars-per-pixel */
"64 64 231 2 ",
"   c #000001",
".  c #090406",
"X  c #05060A",
"o  c #0B060A",
"O  c #05090D",
"+  c #0B0A0C",
"@  c #0B0B03",
"#  c #11060C",
"$  c #110A0E",
"%  c #060C12",
"&  c #0C0C13",
"*  c #0A0F19",
"=  c #050412",
"-  c #140C12",
";  c #1B0A15",
":  c #120F1B",
">  c #190813",
",  c #0B111B",
"<  c #0E1116",
"1  c #131114",
"2  c #13131C",
"3  c #1C141A",
"4  c #1A181B",
"5  c #19170D",
"6  c #240C1B",
"7  c #2C0E1D",
"8  c #2A0D12",
"9  c #25131D",
"0  c #37361D",
"q  c #0D1523",
"w  c #0A1928",
"e  c #151322",
"r  c #181526",
"t  c #151B23",
"y  c #1B1B28",
"u  c #0F0D3D",
"i  c #110E3B",
"p  c #181934",
"a  c #281824",
"s  c #37172B",
"d  c #2F152B",
"f  c #1B222C",
"g  c #1C2027",
"h  c #152338",
"j  c #003F2F",
"k  c #272528",
"l  c #262635",
"z  c #382936",
"x  c #383338",
"c  c #461835",
"v  c #541B3C",
"b  c #4E192A",
"n  c #631F3D",
"m  c #542238",
"M  c #00523D",
"N  c #026B2F",
"B  c #52503B",
"V  c #060648",
"C  c #1D1C43",
"Z  c #18174C",
"A  c #010155",
"S  c #00005C",
"D  c #09085C",
"F  c #001458",
"G  c #171857",
"H  c #110E42",
"J  c #201F5D",
"K  c #182A45",
"L  c #0A324F",
"P  c #272543",
"I  c #273448",
"U  c #383946",
"Y  c #252559",
"T  c #313458",
"R  c #000064",
"E  c #00016C",
"W  c #090A64",
"Q  c #010174",
"!  c #00017B",
"~  c #0B0D79",
"^  c #1B1B76",
"/  c #161879",
"(  c #191A6D",
")  c #172C6E",
"_  c #282866",
"`  c #363867",
"'  c #2B2A77",
"]  c #353376",
"[  c #273D62",
"{  c #591C42",
"}  c #621F40",
"|  c #552946",
" . c #443E47",
".. c #623854",
"X. c #71335C",
"o. c #6D2851",
"O. c #7C3964",
"+. c #3A4356",
"@. c #004D6E",
"#. c #304B74",
"$. c #16644F",
"%. c #494746",
"&. c #565644",
"*. c #534955",
"=. c #524D56",
"-. c #696959",
";. c #5B5A67",
":. c #45467D",
">. c #635A64",
",. c #6B686F",
"<. c #767771",
"1. c #83295E",
"2. c #A63859",
"3. c #842A62",
"4. c #9C3472",
"5. c #AC3A72",
"6. c #AF3D6D",
"7. c #01B509",
"8. c #038024",
"9. c #00CC01",
"0. c #00C603",
"q. c #00D400",
"w. c #01F900",
"e. c #00E900",
"r. c #7F8079",
"t. c #63CE63",
"y. c #7BE174",
"u. c #838162",
"i. c #000282",
"p. c #00028B",
"a. c #0A0A83",
"s. c #000793",
"d. c #1A0F8F",
"f. c #2F078D",
"g. c #292B86",
"h. c #35338F",
"j. c #0007A5",
"k. c #53398C",
"l. c #403F90",
"z. c #5B38AB",
"x. c #205AAA",
"c. c #0B6FAE",
"v. c #454699",
"b. c #4D519F",
"n. c #4C528F",
"m. c #5D6C81",
"M. c #7A7A81",
"N. c #6C6B9F",
"B. c #787899",
"V. c #666786",
"C. c #444AA4",
"Z. c #4E52A1",
"A. c #5657A6",
"S. c #797BA7",
"D. c #6C6FA9",
"F. c #695095",
"G. c #867C84",
"H. c #A67997",
"J. c #B65293",
"K. c #C55C9A",
"L. c #C14F8E",
"P. c #CF6C9D",
"I. c #7F809B",
"U. c #7F80A9",
"Y. c #3B9ED5",
"T. c #898787",
"R. c #95958C",
"E. c #888997",
"W. c #9B9A94",
"Q. c #9D9D9A",
"!. c #969595",
"~. c #909295",
"^. c #A09F9D",
"/. c #9FA59B",
"(. c #A2A29D",
"). c #A8A797",
"_. c #AFAD91",
"`. c #898AAA",
"'. c #9D9CA2",
"]. c #8990B0",
"[. c #A5A5A2",
"{. c #ABABA5",
"}. c #ADADAA",
"|. c #A8A7A3",
" X c #B4B4AD",
".X c #A8A8B6",
"XX c #B6B5B2",
"oX c #BABAB5",
"OX c #BCBCBA",
"+X c #B4B4BD",
"@X c #B5B0AD",
"#X c #DE95B3",
"$X c #DA89AF",
"%X c #C6B7BE",
"&X c #E3A4BC",
"*X c #A7E89C",
"=X c #C6C6AD",
"-X c #C2C2BC",
";X c #C8C8B5",
":X c #D3D2BF",
">X c #B9B9C2",
",X c #C1BAC0",
"<X c #BFC1C1",
"1X c #C4C4C3",
"2X c #CCCCCB",
"3X c #C8C8C7",
"4X c #C8D1CC",
"5X c #D4D4CE",
"6X c #D8D9C6",
"7X c #D3D4D3",
"8X c #D6D7D9",
"9X c #DBDBDA",
"0X c #DCDCD5",
"qX c #D5CAD1",
"wX c #E0DFCA",
"eX c #EDC4D9",
"rX c #DDE7DA",
"tX c #C4ECC0",
"yX c #EAEAD4",
"uX c #E4E4D7",
"iX c #F3F2DB",
"pX c #FAFADD",
"aX c #EFF0C9",
"sX c #DFDFE0",
"dX c #FADAF1",
"fX c #DFE0E2",
"gX c #EBEBEB",
"hX c #E6E6E3",
"jX c #FAF9E5",
"kX c #FBFBF4",
"lX c #F7EDF7",
/* pixels */
"                                                                      + .                         . - t y X                     ",
"                        X     X                                     + a 1                               X                       ",
"                                                  . X   . .         # ; #                                                 X     ",
"                                                  o     . .                                                                     ",
"                          o o                                                 X                                               . ",
"; o X         t       . > ; 9 +         X                                           o                                           ",
"| z &       X O       # s c m r X       X                                                                                   X   ",
"z U O     X   X X   o 6 { 4.J.X.9 X                                           X X X   X                                         ",
"X * X > 2         o 6 v 5.$XeXL.o.6 X                               X     . Z H W H X &                                         ",
"                . ; s 1.K.dXkX#X5.{ ; X                       .   .     &  .^ E Q G X                                           ",
"                  . > c 3.P.&X6.n 7 #                           X #     y   S j.E ` X                                           ",
"      X           X   - s 3.5.n 7 #       X                       .     U 0 W s.E ` @.  X               o   X                   ",
"                    X . - c n 7 #                                   X Z a.yXv.i.! Z -                     X % X                 ",
"                .       X ; 7 #                         o           o Y ~ jXv.i.i.V :                       X                   ",
"X                         . 6 o                         .     X     & M..XuXg.Q i.Z :                                           ",
"                          + 6 > .       X   o               : : 2 : r M.wXuX^ A Q G e                     X                     ",
"            o               o X                           X _ ' ' _ W G.yX5X.X] A J r                                     , d 6 ",
"                                    X                     X ' ! R ! R S.iX2XjXA.A ( f                                     9 ..; ",
"X X                                                       , , G S E R `.iX2XyXb.! ! u           1 > o     X               + 1 + ",
"g X       .                                                 : c.l I.`.>X6X2XyXb.! ! u         O I >.9                   +       ",
"+ o               X     ,                 X               = ;.Y.%.}.iX7X3X2XyXZ.! i.i o       , I U &                           ",
"                      X %       X * O                     L ~ u A S.iX2X2X2XyXZ.! i.i X         X & X                           ",
"                  . <           & U t                     : g.E ! ].iX2X2X2XyXZ.i.! p &                                         ",
"                                + , +                   % r .X.X`.}.8X2X2X5XyXb.! ! P Y / ' ( y                                 ",
"                                    X                 X e '.0X3X_.^.Q.W.{.hXkXA.E ! ~ ! Q E S P :       X                       ",
"                                          .           e Q.-X2X|.(.-XOX3X[.%.B r X   T B.V.V.E.h.' ^ G X                         ",
"                  #       X           X X X o O * w h E.W.Q.(.{.1X3X1X0X[.4 y &.-.&.).6X;X=XaXv.S W ^ +     X X     X           ",
"                  X             + e y =.7X^.!.!.{.4X;X_.=X6X6XiX:XT.R.W.R.T.>XuXgXgX9X7X8X8XuXU : e &                           ",
"                            .   : T.;.=.=.W.@X%XF.n.k.v.N.D.N.N.`.6XOX}. XoX7X8XoX}.XXXX}.{.(.%.                                ",
"            o X   X   X       X l gX%.    -XrXtX#.V F Q i.Q E R g.=X-X2X3X3X-X3XXXQ.[.^.^.!.R.l     X                         . ",
"            f L h %         + ! E +XuX2X5XlXy.9.q.q.w.N ! i.s.i.Q   &.3X{.{.W.XX7X2XqX1X!.e X                                   ",
"            f ~.,.*   X y 5 p p.Q +XuX9X7Xz.$.9.0.0.w.N ! ! Q ~ p.  -.lX2X3X3X3X4XqX4X1X~.o                 X                 X ",
"            l ,.*.$   o + 5 p p.Q >XrX7XqXj.h 9.7.7.q.M i.~ E ! s.  -.lX4X8X8X7X3X2X2X<X!.=                                     ",
"      o 1 X + 4 s o .     & P Q R .XjXgXhXdXt.9.e.w.w.8.! ! p.i.!   B oX(.{.[.oX7X7X7X3X~.e : O                                 ",
"      X O     X .   X + X   2 Z ` uXu.U x qXtX*X$.M M W ! ! ! R / R.{.3XOXXX}.-XOX{.}.{.^.T.M.U                                 ",
"                  . $ 3 + . X - e 1Xx . k (.qXeXz.f.f.h.C.v.v.v.S.jX7XOX1X1X7X8X XQ.|.|.[.!.R.>.X                   .     O X   ",
"X               o * g k 9 5 X X   O e ;.hX{.Q.Q. XtX;X=X6X6X6XuX;XT.R.R.W.{.7XgXgXgXhX5X7X7X8X=.+                       % e * X ",
"              O q I +.,.| d > .       o + & - 3 4 m =.oXR.W.R.{.<XOXoX1X(.%.=.<.T.r.{.4X-XoXrXn.G Z K X               . < f t % ",
"        @   % w I n.].gXH.X.s 3 o   .       X +     & U oXOX3X(.}.fX7XgX}.  @ @ @   -.=X/.R.;Xh.R R E &             # $ a  .l g ",
"        4   O w L #.].gXH.X.s ; o             X       % U ,XrX;X).{.(.1X2X{.;X:.A D ~ d./ / / x.#.#.T L           o 6 s ..G.*.g ",
"              X , h +.,.x a 4 +       o   X             X z +X>X[.!.Q.oX5XhXjXA.! i.C W ! ! Q L L K p               # 7 { X.z - ",
"            X   X , h I f < X X     - < <                 * g.a.a.].yX2X2X2XyXA.! Q y . & & 2 K K h p                 o 6 v d o ",
"            + X X X , f , X         ; d +                 & Q A R S.jX2X3X2XyXZ.! ! p         * h q                     o 6 # . ",
"                    O * X         k - +           X       2 ] ] ] '.pX5X3X2XyXb.! ! p         o X                   . $ - # +   ",
"                  o   X           O       ,                 . - y E.+X,X2X5XyXb.! ! C             X             . . & m =.4 @   ",
"X               X                   o     q                 & Z E ! Q `.yX2XyXZ.i.Q C                         X + z g %.I.1     ",
"                X                                         : Y Q Q Q S S.iX2XpXn.R W e                         1 1 %.4 + t &     ",
"          X     o                                         & D ~ / / W B.yX5X5Xv.A J o       .                 X . $ 1     X     ",
"    o                                         X         . > 8 5 X X , G.6XuXh.R E J X       < y 1 &                             ",
"                  X                                   . # s n 8 . . : T.1XuX] E Q J +       K ~.U +                             ",
"                  o                                   # s 1.2.b 8 # & Y h.iXv.i.Q J o     X h [ K X                             ",
"                      X                             o a o.K.#X2.v 8 o H ! kXZ.! Q Y X       X X &                               ",
"            X k         X                           X $ z X.K.1.b ; . O Y u.^ s.E _                                             ",
"            & Q.k                                     X 5 a | d >     o a   A j.E _                                             ",
"      o                     . 1                         X + a > .       2 %./ ! R Y                                             ",
"              k                                 &         o $             X _ D D p                 X                           ",
"                                        o 4     &           X X       X .     k                   X                             ",
"                              o                                     . 3 o       . X             o                               ",
"              k                 t                             X     . o X                                                     X ",
"              o               X .   +                                                                               X           ",
"    o         X                 o   X #                                                                                   X     ",
"    +                         o             o                                             X                               O     ",
"                                                                                                  o                             ",
"                                                                          X                                                     "
};
