/* XPM */
static char *result[] = {
/* columns rows colors chars-per-pixel */
"64 64 214 2 ",
"   c #000000",
".  c #06050A",
"X  c #09070D",
"o  c #0B0B0C",
"O  c #0B0B03",
"+  c #13120A",
"@  c #0D0B13",
"#  c #070618",
"$  c #110E1A",
"%  c #131214",
"&  c #14101E",
"*  c #1B1B1B",
"=  c #0C101B",
"-  c #37361D",
";  c #0F1321",
":  c #161323",
">  c #181525",
",  c #15192D",
"<  c #1B1927",
"1  c #0B0936",
"2  c #1B1B36",
"3  c #0F0C2C",
"4  c #231F34",
"5  c #003F2F",
"6  c #13243D",
"7  c #232323",
"8  c #2B2B2B",
"9  c #252438",
"0  c #363637",
"q  c #00523D",
"w  c #026033",
"e  c #02712E",
"r  c #52503B",
"t  c #000343",
"y  c #09074A",
"u  c #1F1C43",
"i  c #181749",
"p  c #020154",
"a  c #00005C",
"s  c #09095A",
"d  c #001458",
"f  c #131354",
"g  c #19195A",
"h  c #201E42",
"j  c #201F5D",
"k  c #201D56",
"l  c #002A41",
"z  c #182E5C",
"x  c #282542",
"c  c #3C3846",
"v  c #262558",
"b  c #303855",
"n  c #000064",
"m  c #00006C",
"M  c #080A66",
"N  c #010174",
"B  c #00017B",
"V  c #090C7C",
"C  c #0F0F70",
"Z  c #1B1B75",
"A  c #1C1C7C",
"S  c #141677",
"D  c #13156C",
"F  c #201E64",
"G  c #1D227A",
"H  c #282763",
"J  c #2A2969",
"K  c #383668",
"L  c #282A77",
"P  c #353476",
"I  c #413E4A",
"U  c #17584B",
"Y  c #30496D",
"T  c #156F53",
"R  c #464642",
"E  c #4C4B47",
"W  c #565644",
"Q  c #474756",
"!  c #58575A",
"~  c #504D5A",
"^  c #71705F",
"/  c #666656",
"(  c #5B5A67",
")  c #48476F",
"_  c #615E67",
"`  c #7D7D78",
"'  c #727261",
"]  c #01B509",
"[  c #038024",
"{  c #00CC01",
"}  c #00C603",
"|  c #00D400",
" . c #00E900",
".. c #01F300",
"X. c #01FF00",
"o. c #7F8079",
"O. c #63CE63",
"+. c #7BE174",
"@. c #838162",
"#. c #000282",
"$. c #00028C",
"%. c #0A0A83",
"&. c #011280",
"*. c #000793",
"=. c #1A0F8F",
"-. c #2F078D",
";. c #292B86",
":. c #363786",
">. c #333099",
",. c #0007A5",
"<. c #53398C",
"1. c #403F90",
"2. c #5B38AB",
"3. c #2C56A8",
"4. c #0B6FAE",
"5. c #44458C",
"6. c #454699",
"7. c #4D519F",
"8. c #57589B",
"9. c #535580",
"0. c #666786",
"q. c #7C7A81",
"w. c #6C6B9F",
"e. c #787899",
"r. c #444AA4",
"t. c #4E52A1",
"y. c #5657A6",
"u. c #6F70A9",
"i. c #797BA7",
"p. c #686DA8",
"a. c #695095",
"s. c #817F83",
"d. c #7F809B",
"f. c #7F80A8",
"g. c #8B8A85",
"h. c #868587",
"j. c #918F8D",
"k. c #94938C",
"l. c #9C9C8B",
"z. c #87879A",
"x. c #959394",
"c. c #989791",
"v. c #9B9A94",
"b. c #9E9D9A",
"n. c #969699",
"m. c #A09F9D",
"M. c #9FA59B",
"N. c #A2A29D",
"B. c #A9A898",
"V. c #AFAD91",
"C. c #898BAB",
"Z. c #9D9CA2",
"A. c #888AB4",
"S. c #A5A5A3",
"D. c #ABABA5",
"F. c #ADADAA",
"G. c #A8A7A3",
"H. c #B2B2AE",
"J. c #B9B9AA",
"K. c #A8A8B6",
"L. c #B6B5B2",
"P. c #BABAB5",
"I. c #B4B4BD",
"U. c #BCBCBA",
"Y. c #BDAFB5",
"T. c #C0BFBD",
"R. c #CBAEBE",
"E. c #8FE585",
"W. c #BEEAB2",
"Q. c #C2C2AE",
"!. c #CAC8AC",
"~. c #C4C4B5",
"^. c #C2C1BC",
"/. c #CBCBB6",
"(. c #D0CEBF",
"). c #D5D5BE",
"_. c #B9B9C2",
"`. c #C1BAC0",
"'. c #BFC1C1",
"]. c #C4C4C3",
"[. c #C7C7C8",
"{. c #CCCCCB",
"}. c #C9C9C7",
"|. c #CFD0CD",
" X c #D4D4CE",
".X c #DADBCA",
"XX c #D7D8C4",
"oX c #D8C7D2",
"OX c #CFD0D0",
"+X c #D3D4D3",
"@X c #DDDDD5",
"#X c #D6D7D9",
"$X c #DBDBDA",
"%X c #D7D8D5",
"&X c #E0DFCA",
"*X c #EEC5DD",
"=X c #DDE7DA",
"-X c #C4ECC0",
";X c #EFF0C9",
":X c #E2E2D5",
">X c #EAEAD4",
",X c #E6E7D9",
"<X c #F3F2DB",
"1X c #FAFADD",
"2X c #DFDFE0",
"3X c #FED4F9",
"4X c #DFE0E2",
"5X c #E4E4E3",
"6X c #EBECEB",
"7X c #EEEEE7",
"8X c #FAF9E5",
"9X c #EFEFF0",
"0X c #FFEAFD",
"qX c #FAFBF2",
/* pixels */
"o                                                                                                                               ",
"                                                                                                                                ",
"                                                                                                                                ",
"                                                                                                                                ",
"                              o                 %                                                                               ",
"                                          *       7                                                                             ",
"                                                                                                                                ",
"                                    *                                                                                           ",
"                                          v s p J                                                                               ",
"                                        . J n #.S E X                                                                           ",
"                                        . H M ,.p   7                                                         %                 ",
"                o                         H N $.G @.v $                                                                         ",
"                                          v N B t.qX#.y                                                                         ",
"            %                           . j N #.6.>X:.v                                                                         ",
"                            o             j N m ;.:X}.h..                                                                       ",
"                                    o     j n a :.:X.Xh.= o X                                                                   ",
"                                        o k p 5. X X>Xe.M S S V M                                                               ",
"                                        2 M n 8.1X{.<Xi.a N N B k                                                               ",
"                                        i N #.t.>X{.>Xf.N B m i                                                                 ",
"                                        h B B 7.>X|.|.].I.z.< 4.&                                                               ",
"                  .                     h N B t.>X{.}. X<XK.P 3.P &                                                             ",
"                                        h B B t.>X|.{.{.<Xf.a a &.4.              8                                             ",
"                                      o 9 N #.t.>X{.{.{.>XA.%.%.;.>                                                             ",
"                                1 B N D i #.B y.8X5X#XP.v.c.Z._.K.0                                     o                       ",
"                        < 9 9 u S S %.;.S n p ) ^.F.{.^.M.F.B.~.:X].c X         %                                               ",
"      o               . N n a >./.l.v.J./   O O .   F.6X+X4XH.M.[.U.L.c o                                                       ",
"                      . v H g ) .XP.^.}.F.o.g.` ! R M.].P.U.~.D.c.c.k.L.Q I < % % @ $ @                                         ",
"        %               o @ < I %X%X%X+X$X9X6X6X+XD.v.k.c.g.~.,XXXXXXXQ.!..XJ.b.m.D.5X( .                                       ",
"                            . _ j.v.N.G.G.m.L.#XOX].].U.+X8Xf.1.r.r.r.>.-.-.2.*X`.D.8 X 0 x.$                                   ",
"                              c s.h.Z.F.F.D.U.`.F.P.U.}.D.k.=.n B #.#.d q 5 T E.-XoX0 0 ` :XK i                                 ",
"                                & < x.[.+X+X+XU.G.F.M.P.r   B %.#.#.B [ X... .{ O.3X5X6X9XI.n N 9 X                             ",
"                                  $ n.`.{.{.[.OX#X+X{.6X'   $.B m B B w | ] ] { l =. X.X@XI.N $., + .                           ",
"                                  @ x.].OX{.{.{.}.[.{.9X^   $.#.N V B e ..{ } | U 2.%X$X=XI.N V , + o .                         ",
"                          o     . : n.].{.{.+XL.v.D.D.^.W   N #.*.#.B e X.| | { +.0XOXOX:XI.n B , X .                     b.    ",
"                            @ Q j.n.m.m.N.b.L.[.U.}.}.[.^./.;.m m N #.N s t Y W.=XT.    R 7Xx 3                                 ",
"                            % ( S.D.H.L.L.H.P.#X+XP.L.F.P.XXC.w.w.u.p.5.<.<.a.`.Y.c.~ ! _ h.@                                   ",
"                            & c $X#X$X+X4X9X6X5X'.j.k.k.c.g.(.<X).&X!.J.P.~.B.n.c.b.+X~ & X                                     ",
"                        Z D a 5.;X!.!..Xl.W / W 7 % S.$X].}.U.D.N.v.l.h.& $ $ @ @ @ @                                           ",
"                        L =.H :.s.0.0.e.b . # < R R G.{.U.].B.G.{.].n.:                                                         ",
"                              x m m N B V B n 8.qX5XD.c.b.B.B.{.@XZ.>                                       o                   ",
"                              x L A A v x B B 7.>X X{.{.#XF.z.K.K.<                                                             ",
"                              o : > > > 2 #.B t.>X{.{.{.<XA.B m ;.@                                                             ",
"                                        1 #.B t.>X{.{.}.<Xi.p 1 S .                                                             ",
"              h.                        1 #.B t.>X{.[. X<XF.Q ) ( o                                                             ",
"                                        3 B #.7.>X{. X_.C.e.9 : & .           o           *                             *       ",
"                .                 0     1 B B 7.>X{.<XC.a m a f & .                                       .                     ",
"                                        & F a 8.8X{.<Xi.n N m B L z .                                                           ",
"                  o                     & g a P K. X:Xz.g H K L J $                                                             ",
"                                        $ g N a S :X.Xs.> = .                                       7                           ",
"                                        @ f #.N :.:XK.` 2                                                                       ",
"                              .         X y B B 6.8XV L %                                                                       ",
"                                        . f B #.6.>XV k                                                                         ",
"                                        X K m *.M - Y 7                                                                         ",
"                                        @ K n ,.p   b ,                                                                         ",
"o       D.                                g m n A Q 9 6                                                                         ",
"  !                     8                 1 M f g : X                                     *                                     ",
"                                            & : @                                                                               ",
"      .                                                                                                                   %     ",
"                                        %                                                                                       ",
"                                                                                          .   *                                 ",
"                                                                                                                                ",
"                                                                                                                    8           ",
"                                                                                                                                ",
"                                                                                                                                "
};
