/* XPM */
static char *result[] = {
/* columns rows colors chars-per-pixel */
"64 64 223 2 ",
"   c #010101",
".  c #080607",
"X  c #0A0A04",
"o  c #060609",
"O  c #080709",
"+  c #0A0A0B",
"@  c #07080A",
"#  c #110E0E",
"$  c #0D0B13",
"%  c #080715",
"&  c #120F1B",
"*  c #110F14",
"=  c #131316",
"-  c #15131C",
";  c #18171E",
":  c #1A1A1D",
">  c #181413",
",  c #15140F",
"<  c #231D1D",
"1  c #37361D",
"2  c #161423",
"3  c #181425",
"4  c #1D1D23",
"5  c #15192D",
"6  c #17142C",
"7  c #0F0D3D",
"8  c #100D3C",
"9  c #1B1C35",
"0  c #101123",
"q  c #211E36",
"w  c #231F2D",
"e  c #003F2F",
"r  c #27272A",
"t  c #2C2C34",
"y  c #252539",
"u  c #363337",
"i  c #413535",
"p  c #00523D",
"a  c #026B2F",
"s  c #52503B",
"d  c #060647",
"f  c #19174A",
"g  c #010155",
"h  c #00005C",
"j  c #09085C",
"k  c #001458",
"l  c #141353",
"z  c #18195B",
"x  c #211E45",
"c  c #211F5D",
"v  c #112B4F",
"b  c #282542",
"n  c #3B3746",
"m  c #232251",
"M  c #27275C",
"N  c #303855",
"B  c #000064",
"V  c #00006C",
"C  c #080A67",
"Z  c #010174",
"A  c #00017B",
"S  c #090C7C",
"D  c #0F0F70",
"F  c #1B1B76",
"G  c #1C1C7C",
"H  c #141677",
"J  c #13156C",
"K  c #1D227A",
"L  c #292967",
"P  c #383668",
"I  c #222275",
"U  c #2B2D77",
"Y  c #353476",
"T  c #413E4A",
"R  c #17584B",
"E  c #30496D",
"W  c #156F53",
"Q  c #42414E",
"!  c #4A4946",
"~  c #565644",
"^  c #454555",
"/  c #4B4956",
"(  c #4D4C5B",
")  c #504E5C",
"_  c #58575A",
"`  c #71705F",
"'  c #666656",
"]  c #5B5A68",
"[  c #48476F",
"{  c #605F72",
"}  c #615E67",
"|  c #68677B",
" . c #7D7D78",
".. c #727261",
"X. c #8B7171",
"o. c #01B509",
"O. c #038024",
"+. c #00CC01",
"@. c #00C603",
"#. c #00D400",
"$. c #01F300",
"%. c #01FF00",
"&. c #00E900",
"*. c #7F8079",
"=. c #63CE63",
"-. c #7BE174",
";. c #838162",
":. c #000282",
">. c #00028C",
",. c #0A0A83",
"<. c #011280",
"1. c #000793",
"2. c #1A0F8F",
"3. c #2F078D",
"4. c #292B86",
"5. c #363786",
"6. c #333099",
"7. c #0007A5",
"8. c #53398C",
"9. c #403F90",
"0. c #5B38AB",
"q. c #1667AC",
"w. c #44458C",
"e. c #454699",
"r. c #4D519F",
"t. c #565792",
"y. c #727086",
"u. c #7C7A81",
"i. c #6C6B9F",
"p. c #787899",
"a. c #666786",
"s. c #444AA4",
"d. c #4E52A1",
"f. c #5657A6",
"g. c #797BA7",
"h. c #6C6FA9",
"j. c #695095",
"k. c #817F83",
"l. c #7F809B",
"z. c #7F80A8",
"x. c #898787",
"c. c #94938C",
"v. c #9C9C8B",
"b. c #87879A",
"n. c #959394",
"m. c #989791",
"M. c #9B9A94",
"N. c #9E9D9A",
"B. c #969699",
"V. c #918F8D",
"C. c #A09F9D",
"Z. c #A48484",
"A. c #9FA59B",
"S. c #A2A29D",
"D. c #A9A898",
"F. c #AFAD91",
"G. c #8989A6",
"H. c #9D9CA2",
"J. c #9191B5",
"K. c #A5A5A2",
"L. c #ABABA5",
"P. c #ADADAA",
"I. c #A8A7A3",
"U. c #B2B2AE",
"Y. c #B9B9AA",
"T. c #A8A8B6",
"R. c #B6B5B2",
"E. c #BABAB5",
"W. c #B4B4BD",
"Q. c #BCBCBA",
"!. c #BDAFB5",
"~. c #C0BFBD",
"^. c #CBAEBE",
"/. c #8FE585",
"(. c #BEEAB2",
"). c #C5C5AD",
"_. c #C2C1BC",
"`. c #C7C7B5",
"'. c #D0CEBF",
"]. c #D5D5BE",
"[. c #A5A3C3",
"{. c #B9B9C2",
"}. c #B2B0D3",
"|. c #BEBCE1",
" X c #C1BAC0",
".X c #BFC1C1",
"XX c #C4C4C3",
"oX c #C7C7C8",
"OX c #CCCCCB",
"+X c #C9C9C7",
"@X c #CFD0CD",
"#X c #D4D4CE",
"$X c #DADBCA",
"%X c #D7D8C4",
"&X c #CFD0D0",
"*X c #D3D4D3",
"=X c #DDDDD5",
"-X c #D6D7D9",
";X c #DBDBDA",
":X c #D7D8D5",
">X c #D8C7D2",
",X c #E0DFCA",
"<X c #EEC5DD",
"1X c #DDE7DA",
"2X c #C4ECC0",
"3X c #E2E2D5",
"4X c #EAEAD4",
"5X c #E6E7D9",
"6X c #F3F2DB",
"7X c #FAFADD",
"8X c #EFF0C9",
"9X c #DFDFE0",
"0X c #D1CFF6",
"qX c #FED4F9",
"wX c #DFE0E2",
"eX c #E4E4E3",
"rX c #EBECEB",
"tX c #EEEEE7",
"yX c #FAF9E5",
"uX c #EBE9FC",
"iX c #F8ECFE",
"pX c #FFFFFF",
"aX c #F9F8F7",
/* pixels */
"                                                                                                                        .       ",
"                                                                                                  .                             ",
"                                            .               .           X                                                       ",
"                                                                        . r .     .             . .               .             ",
"    . @ + @ o                         @                                   :                     . r + .                         ",
"  + = 4 r 4 - + .         . .                     +                           .                   $                             ",
"+ ; Q G.[.G.^ - +       . i .                                                                                                   ",
"$ r J.iXpXaX[.u $ .     . >               + $ $ $ .                                                                             ",
"4 | 0XpXpXpXuX| : o     @               O L j j L &                                     .                       +       .       ",
"2 y.aXpXpXpXpXb.4 @               @     + L B :.D ! -                                             .                             ",
": | uXaXpXpXpXG.4 @           #         . L V 7.g   w o                                                             + <         ",
"= / 0XpXpXpXuXy.4 @       @             o M V >.K ;.m 0                       o                 . @ .                 X         ",
"+ r G.uXpXpX}.Q = .                   . o M Z A d.pXA d                   .                   + + ; @ @                         ",
"o ; ^ J.|.}.y.4 +                       o c Z :.e.4X5.M o         O   . . t +               @ + ( ( + .                         ",
"  + ; T | ] r * o                       o z Z V 4.3X+Xx.-                 . .               O 4 ] ( + .                         ",
"    @ * = - $ +                         + c B j 5.3X$Xk.2 2 - + o                           o * u : @                           ",
"  .   . o . .                         . & c g w.:X#X4Xp.C H H S C $                         . . o @ o                           ",
"  .                       .             9 C V t.7XoX6Xg.h Z A S f $                       .               .                     ",
"                                        f Z A d.4XOX5XG.Z Z V f $                       .                                       ",
"                                        x A A r.4X&XOXXXW.b.3 q.3 $       =                                                     ",
"                                        x A A d.4XOXoX#XyX[.P q.Y 4                                                           . ",
"                            .         + b A A d.4XOXoX#XtXk.j h <.q.                        .                                 . ",
"                                  $ * & q Z A d.4XOXOXOX4XJ.,.,.I 2                                                           . ",
"    +                           B A A J f :.A f.yXeX-X!.M.n.H.{.{.n -                                               .           ",
"                        9 y y m F H H 2.H B j [ _.P.OX_.A.P.D._.;X.Xn 0                         +                               ",
"  .                   $ V B B 6.`.v.D.Y.'   X X     P.rX*XwXU.A.oXE.R.n $                 +                                     ",
"                      3 M M f t.,XE._.+XL.*.x. ._ ! K.XXE.Q._.P.m.M.c.R./ T 4 ; ; ; 4 *     .                       $           ",
"                    o * & 2 2 T *X:X:X#XwXrXrXrX#XI.M.c.v.x.`.5X%X%X%X).).$XY.N.N.I.eX]                               .         ",
"                            & } V.M.S.I.K.C.R.-X@X.XXX~.&XyXl.9.s.s.d.6.3.3.0.<X XK.t . u n.* .                                 ",
"  +                         $ n l.x.H.L.P.L.Q. XP.E.Q.XXL.m.2.B A A A k p e W /.(.>Xu u *.=XP f                                 ",
"                        .     $ = 2 n.oX*X*X*XQ.I.P.A.E.s   Z :.:.:.A a %.$.&.+.=.qXrXrXtXW.B Z q +                             ",
"                                  - B.XXOXOXoX&X-X:XOXrX..  1.A V A :.a #.o.o.+.v 2.@X#X=X{.A >.5 , .                           ",
"                                  & B.XXOX&XOXOXoXoXOXaX`   >.S Z S A a $.+.@.#.R 0.:X=X3X{.Z A 5 , + O                     . . ",
"                              O $ 3 B.XXOXOX*XR.M.L.K._.~   Z >.1.:.S a %.#.#.+.-.iX&X&X1X{.V A 9 # O                       o ! ",
"                            & / V.n.S.S.K.N.R.oX~.oXXXoX_.`.4.B V Z :.Z k d E (.1X~.    ! tXy 6 .           .               + @ ",
"                  .         & _ K.L.P.R.R.P.Q.-X*XE.R.P.E.%XG.i.i.h.h.w.8.8.j. X!.m./ _ ] k.&                                 . ",
"                        o o & T =X;X-X-XwXrXrXeX~.x.c.v.m.x.'.6X].,X).Y.E.~.D.m.n.C.*X) 2 $           +                         ",
"                      & F D B w.8X).`.%Xv.~ ' ~ r = K.:XXX+X_.L.C.C.v.x.& & & - & $ $ + .                         +             ",
"                      $ I G I 5.p.a.y.p.N o % 3 ! ! I.OXE.XXK.K.OX_.H.&                                                         ",
"                        $ $ - b B V Z A S A B f.yXeXL.m.N.S.D.%X=XN.2                                             .             ",
"        @                     b I I F M b A A r.4X#XOX+X:XP.b.T.T.3                                                             ",
"      t                       + 2 3 3 3 9 :.A d.4XOXOX&X4XJ.Z V 4.&                               +   4                         ",
"      .                               & 8 A A d.4XOXOXOXtXg.g d H $                                                             ",
"                                      $ 8 :.A d.4XOX+X:X6XP.^ ( ] $                   +                                         ",
"                                      + 7 A A d.4XOX#X{.G.p.y 2 6 %                                   o                         ",
"  +                                   o 7 :.A d.4XOX6Xz.B V h z 2 &                                                             ",
"                                      o q c h t.yXOX6Xg.B Z V A U v &                                                           ",
"              +                         9 z h Y T.#X4Xb.l L L U L 2 o                                                           ",
"                .                       3 z Z h H 3X,Xu.2 0 $ o o                                                               ",
"  .                       o             - l :.Z 5.,XT.u.9                                 .               .                     ",
"                                  . r   & d A :.s.7XS U &                                                       >     . .       ",
": .                                     $ l A :.e.4XS c                                                           .   + +       ",
"  . .                                   $ P V 1.C 1 ^ 5                                                                         ",
"    t .                     .           % P V 1.g   N 2                                     .               .             .     ",
"    .                                   o z V V G ^ y v   .                                             . X + X +               ",
"  .                                       d C l m 6 0 $   X         +                                   . + u < + . .           ",
"                                          o - 3 & +                                                     . < Z.X.# .             ",
"  o                       +                                       +                       +             . # i i + .             ",
"                                                    *                                                     # + + .               ",
"                                                                                                              .                 ",
"                                                                                                                                ",
"                                                                  @                                                             ",
"                                                                                        .                                       ",
"                . + @ o                                                                                                         "
};
