/* XPM */
static char *result[] = {
/* columns rows colors chars-per-pixel */
"64 64 226 2 ",
"   c #1C1818",
".  c #1D1818",
"X  c #1D1919",
"o  c #1E1919",
"O  c #1F1919",
"+  c #191A1D",
"@  c #201A1A",
"#  c #271818",
"$  c #241B1B",
"%  c #231C1D",
"&  c #251C1C",
"*  c #241D1D",
"=  c #261C1C",
"-  c #271C1C",
";  c #271D1D",
":  c #261D1E",
">  c #281D1D",
",  c #2A1D1D",
"<  c #281E1E",
"1  c #291E1E",
"2  c #2A1E1E",
"3  c #2B1E1E",
"4  c #2A1F1F",
"5  c #2B1F1F",
"6  c #2E1D1D",
"7  c #2C1F1F",
"8  c #321A1A",
"9  c #331A1A",
"0  c #371919",
"q  c #331D1D",
"w  c #311E1E",
"e  c #391818",
"r  c #3F1818",
"t  c #181425",
"y  c #1C1B20",
"u  c #1E1C21",
"i  c #171E33",
"p  c #221E23",
"a  c #221F24",
"s  c #1F2121",
"d  c #172634",
"f  c #222323",
"g  c #282121",
"h  c #2B2020",
"j  c #2B2121",
"k  c #2A2222",
"l  c #2C2020",
"z  c #2F2121",
"x  c #282525",
"c  c #312121",
"v  c #302222",
"b  c #322323",
"n  c #342424",
"m  c #352525",
"M  c #362525",
"N  c #372525",
"B  c #342626",
"V  c #372626",
"C  c #382525",
"Z  c #392626",
"A  c #392727",
"S  c #3A2727",
"D  c #3B2727",
"F  c #3E2727",
"G  c #332A2A",
"H  c #362929",
"J  c #392929",
"K  c #3B2828",
"L  c #3C2828",
"P  c #3D2828",
"I  c #3F2A2A",
"U  c #382E2E",
"Y  c #333434",
"T  c #393737",
"R  c #3D3636",
"E  c #3C3A3A",
"W  c #4A0000",
"Q  c #400A0A",
"!  c #530808",
"~  c #411616",
"^  c #4D1313",
"/  c #461B1B",
"(  c #461C1C",
")  c #4B1818",
"_  c #4C1818",
"`  c #551717",
"'  c #640606",
"]  c #6B0000",
"[  c #6E0E0E",
"{  c #780404",
"}  c #710F0F",
"|  c #7A0F0F",
" . c #7D0D0D",
".. c #651010",
"X. c #721212",
"o. c #402A2A",
"O. c #402B2B",
"+. c #412B2B",
"@. c #432B2B",
"#. c #422C2C",
"$. c #432C2C",
"%. c #442C2C",
"&. c #452D2D",
"*. c #462D2D",
"=. c #452E2E",
"-. c #462E2E",
";. c #472E2E",
":. c #472F2F",
">. c #493030",
",. c #4A3030",
"<. c #4B3030",
"1. c #4C3030",
"2. c #4C3131",
"3. c #4D3232",
"4. c #4E3232",
"5. c #4F3232",
"6. c #4E3333",
"7. c #4F3333",
"8. c #503333",
"9. c #513333",
"0. c #503434",
"q. c #513434",
"w. c #523434",
"e. c #533535",
"r. c #152742",
"t. c #123A5F",
"y. c #133B5F",
"u. c #404141",
"i. c #434343",
"p. c #444141",
"a. c #444444",
"s. c #444545",
"d. c #464545",
"f. c #484646",
"g. c #494747",
"h. c #4B4949",
"j. c #544F4F",
"k. c #535151",
"l. c #555050",
"z. c #545151",
"x. c #585353",
"c. c #595353",
"v. c #595555",
"b. c #5A5555",
"n. c #5B5656",
"m. c #5C5555",
"M. c #5D5757",
"N. c #5E5757",
"B. c #5F5959",
"V. c #635C5C",
"C. c #605F5F",
"Z. c #635F5F",
"A. c #645D5D",
"S. c #696565",
"D. c #6A6464",
"F. c #6B6464",
"G. c #6B6666",
"H. c #6C6767",
"J. c #706868",
"K. c #716969",
"L. c #726D6D",
"P. c #736E6E",
"I. c #746C6C",
"U. c #746E6E",
"Y. c #756F6F",
"T. c #777070",
"R. c #777171",
"E. c #787070",
"W. c #830C0C",
"Q. c #970000",
"!. c #970B0B",
"~. c #980B0B",
"^. c #990D0D",
"/. c #9A0C0C",
"(. c #9C0E0E",
"). c #9F1717",
"_. c #A10B0B",
"`. c #A10C0C",
"'. c #B21111",
"]. c #A03F3F",
"[. c #D20303",
"{. c #D30F0F",
"}. c #FA0000",
"|. c #F50B0B",
" X c #F30D0D",
".X c #E21010",
"XX c #E91010",
"oX c #FC1010",
"OX c #FF1111",
"+X c #FF1212",
"@X c #CD3D0E",
"#X c #CD3F0F",
"$X c #FF4606",
"%X c #FF4706",
"&X c #FF5C15",
"*X c #FF621A",
"=X c #FE772D",
"-X c #FE782E",
";X c #A74040",
":X c #A66060",
">X c #BD6565",
",X c #FB5151",
"<X c #FF893A",
"1X c #FF9745",
"2X c #0B6FAE",
"3X c #0099DB",
"4X c #2CE8F5",
"5X c #FFDB87",
"6X c #FFDC8A",
"7X c #FFDC8B",
"8X c #FFDD8D",
"9X c #FFDE90",
"0X c #FFDF93",
"qX c #FFE095",
"wX c #FFE096",
"eX c #FFE198",
"rX c #FFE29E",
"tX c #FFE39E",
"yX c #FFE4A4",
"uX c #FFE5A7",
"iX c #FFE6AA",
"pX c #FFE7AC",
"aX c #FFE8AE",
"sX c #FFE8AF",
"dX c #FFEAB5",
"fX c #FFC0C0",
/* pixels */
"t t t t t t t t t t t t t t t t t t t t t t t t t t t t t t t t t t t d d t t t t t t t t t t t t t t t t t t t t t t t t t t t ",
"t t t t t t t t t t t t t t t t t t t t t t t t t t t t t t t t t t t t t t t t t t t t t y.t t t t t t t t t t t t t t t t t t ",
"t t t t t t t t t t t t t t t t t t t y.t t t t t t t t t t 3Xt t t t t t t t t t t t t t t t t t t t t t t t t t t t t t t t t ",
"t t t t t.t t t t t t t t t t t t t t t t t t t t t t t t 2X4X2Xt t t t t t t t t t t t t t t t t t t t t t t t t t 3Xt t t t t ",
"t t t t t t t t t t t t t t t t t t t t t t t t t t t t t t 3Xt t t t t t t 2Xt t t t t t t t t t t t 2Xt t t t t t t t t t t t ",
"t t t t t t t t t t t t t t t t t t t t t t t t t t t t t t t t t t t t t t t t t t t t t t t t t t t t t t t t t t t t t t t t ",
"t t t t t t t t t t t t t t t t t t t t t t t r.t t t t t t t t t t t t t t t t t t t t t t t t t t t t t t t t t t t t 3Xt t t ",
"t t t t t t t t t t t t t t t t t t t t t t t t t t t t t t t t t t t t t t t t t t t t t t t t t t t t t t t t t t t t t t t t ",
"t t t t t t i t t t t t t t t t t t t t t t t t t t i t t t t t t t t t t t t t t t t t t t t t t t t t t t y.t t t t t t t t t ",
"t t t t t t t t t t t t t t y.t t t t t t t t t t t t t t t t t t t t t t t t t t t t t t t t t t t t t t t t t t t t t t t t t ",
"t t t t t t t t t t t t t t t t t t t t t t t t t t t t t t t t t t t t t t t t t t t t t t t t t t t t t t t t t t t t t t t t ",
"t t t t t t t t t t t t t t t t t t t t t t t t t t t t t t t t t t t t t t t t t t 3Xt t t t t t t t t t t t t t t t t t t t t ",
"t t t t t t t t t t t t y.t t t t 2Xt t t t t t t t t t t t 1 4 2 2 2 2 1 4 z 5 < t t t t t t t t t t t i i i t t t t t t t t t ",
"t t t t t t t t t t t t t t t t t t t t t t t t t 2Xt t 1 v O.;.&.&.&.&.;.-.M 2 t t t t t t t t t t t i r.r.r.i t t t t t t t t ",
"t t t t t t t t t t t t t t t t t t t t t t t t t t t = K 4.4.7.q.e.w.e.w.K ; t t t t t t t t t t t t i r.t.t.r.i t t t t t t t ",
"t t t t t t t t t t t t t t t t t t t t t t t t t t ; D 8.5.2.8.=.I +.&.S + t t t t t t t t t t t t t i r.t.2Xt.r.i t t t t t t ",
"t t t t t t t t t t t t t t t t t t t t t t t t t & M 8.3.2.q.*.1 $ 1 1 : t t t t t t t t t t t t t t t i r.t.t.r.i t t t t t t ",
"t t t t t t t t t t t t t t t t t t t t t t t t t 5 %.7.2.9.&.> M #.K ; t t t t t t t t t t t t t t t t t i r.r.r.i t t t t t t ",
"t t t t t t t t t t t t t t t t t t t t t t t t t A q.8.q.%.; V w.4.b y.t t t t t t t t t 2Xt t t t t t t t i i i t t t t t t t ",
"t t t t t t t t t r.t t t t t t t t t t t t t t - o.,.>.$.> N 8.q.*.< 5 y @X*Xt t t t t t t t t t t t t t t t t t t t t t t t t ",
"t t t t t t t t t t t t t t t t t t t t t 2Xt G 6 7 < 1 ; A 8.4.7.;.5 M p t %X-X1Xt t t t t t t t t t t t t t t t t t t t t t t ",
"t t t t t t t t.t t t t t t t t t t t t t k.f.g F o.n m K 7.3.2.7.;.5 M a t $X=X1Xt t t t t t t t t t t t t t t t t t t t t 2Xt ",
"t t t t t t t t t t t t t t t t t t t t t C.R # :.8.5.8.q.4.2.2.0.,., 3 u #X&X<Xt t t t t t t t t t t y.t t t t t t t t t t t t ",
"t t t t t t t t t t t t t t t t t t t t t t * C 8.<.4.3.,.3.3.6.1.w l t 3Xt t t t t t t t t t t t t t t t t t t t t t t t t t t ",
"t t t t t t t t t t t t t t t t t t t t t t * B w.4.4.Z l K 8.<.M U p.t t t t t t t t t t t t t t t t t t t t t t t t t t t t t ",
"t t t t t t t t t t t t t t t t t t t t t k c v H 2.P dXdX@ o.@.j A.z.t dXdXdXt t t t t t t t t t t t t t t t t t t t t t t t t ",
"t t t t t t t t t t t t t t t t t t t t s / [ ..9 J dX0X5XrXS dXdXdXdXdX0X5X9XaXt t t t t y.t t t t t t t t t t t t t t t y.t t ",
"t t t t t t t t t t t t t t t t y.t t t r | '._.` dXtX5Xo dXdXdXiXtXyXyXtXt t wXdXt t t t t t t t t t t t t t t t t t t t t t t ",
"t t t t t t t t t t t t t t t t t t t t ^ (. X`.) dXyX5XdXdXdXeX5XM.P.5XsXt t qXdXt t t t t t t t t t t t t t t t t t t t t t t ",
"t t t t t t t t t t t t t t t t t t t t ~ /.|./._ dXdXiXdXdXpX5Xh M.Y.H.eXrX7XuXdXi.r.t t t t t t t t t 3Xt t t t t y.t t t t t ",
"t t i t t t t t t t t t t t t t t t t 8 } {.oX~._ x dXdXdXdX0X5Xh M.T.G.5XsXpXdXx.n.a.t t t t t t t t t t t t t t t t t t t t t ",
"t t t t t t t t t t t t t t t t t t t e W.XX+X!._ x dXdXdXdX0X5X5XM.L.5X5XdXdXdXI.n.v.b.f.t t t t t t t t t t t t t t t t t t t ",
"t t t t t t t t t t r.t t t t t t t t 0  ..XOX!._ dX0XdXdXdXdX5X5X5X5X5XtXdXY Z.K.g.S.U.F.m.h.t t t t t t t t t t t t t t t t t ",
"t t t t t t t t t t t t t t t t t t t 0  ..XOX!.dX0X5XdXdXdXdXyX8X5X6X0XdXdXY Z.K.g.S.U.F.m.h.t t t t t t t t t t t t t t t t t ",
"t t t t t t t t t t t t t t t t t t t e W.XX+X!.dX0X5XiXdXdXdXdXsXiXpXdXdXf E P.I.n.v.b.f.t t t t t t t t t t t t t 2Xt t t t t ",
"t t t t t t t t t t t t t t t t t t t 8 X.[.}.^.dX0X5X5XdXdXdXdXdXdXdXdXdXT E.V.x.n.a.t t t t t t t t t t t t t t t t t t t t t ",
"t t t t y.t t t t t t t t t t t t t t t Q ].,XQ.dXdX0X5X8XsXdXdXdXdXdXdXz.l.j.d.u.i.t t t i i i t t t t t t y.t t t t t t t t t ",
"t t t t t t t t t t t t t t t t t t t t W :XfX).dXdXdXdXdXdXdXdXdXdXP.J.c.t t t t t t t i r.r.r.i t t t 2Xt t t t t t t t t t t ",
"t t t t t t t t t t t t t t t t t t 2Xt r { >X;X! dXdXdXdXdXL %.h N.R.z.t t t t t t t t i r.t.t.r.i t t 2Xt t t t t t t t t t t ",
"t t t t t t t t t t t t t t t t t t t t s ( ] ' q J M . X   S %.h B.D.s.t t t t t t t t i r.t.2Xt.r.i 3X4X3Xt t t t t t t t t t ",
"t t t t t t t t t t t t t t t t t t t t t k c v H 2.P O o @ o.@.j A.z.t t t t t t t t t t i r.t.t.r.i t 3Xt t t t t t t t t t t ",
"t t t t t i t t t t t t t t t t t t t t t t * B w.4.4.Z l K 8.<.M U p.t t t t t t t t t t t i r.r.r.i t 2Xt t t t t t t t t t t ",
"t t t t t t t t t t t t t t t t t t t t t t * C 8.<.4.3.,.3.3.6.1.w l t t t t t t t t t t t t i i i t t t t t t t t t t t t t t ",
"t t t t t t t t t t t t t t t t t t t t t C.R # :.8.5.8.q.4.2.2.0.,., 3 u #X&X<Xt t t t t t t t t t t t t t t t t 3Xt t t t t t ",
"t t t t t t t t t t 3Xt t t t t t t t t t k.f.g F o.n m K 7.3.2.7.;.5 M a t $X=X1Xt t t t t t t t t t t t t t t t t t t t y.t t ",
"t t t t t t t t t 2X4X2Xt t t t t t t t t t t G 6 7 < 1 ; A 8.4.7.;.5 M p t %X-X1Xt t t t t t t t t t t t t t t t t t t t t t t ",
"t t t t t t t t t t 3Xt t t t t t t t t t t t t - o.,.>.$.> N 8.q.*.< 5 y @X*Xt t t t t t t t t y.t t t t t t t t t t t t t t t ",
"t t t t t t t t t t t t t t t t t t t t i t t t t A q.8.q.%.; V w.4.b t t t t t t t t t t t t t t t t t t t t t t t t t t t t t ",
"t t t t t t t t t t t t t t t t t t t t t i t t t 5 %.7.2.9.&.> M #.K > t t t t t t t t t t t t t t t t t t t t t t t t t t t t ",
"t t t t t t t t t t t t t t t t t t t t t t i t t & M 8.3.2.q.*.1 $ 1 2 : t t t t t t t t t t t t t t t t t t t t t t t t t t t ",
"t t t t t t t t t t t t t t t t t t t t t t t r.i i ; D 8.5.2.8.=.I +.&.S % i t t t t t t t t t t t t t t t t t t t t t t t t t ",
"t t t t t t t t t t t t t t t t t t t t t t t i r.r.r.= K 4.4.7.q.e.w.e.w.K ; t t t t t t.t t t t t t t t t t t t t t t t t t t ",
"t t t t t t t t t t t t t t t t t t t t t t t i r.2Xr.i 1 v O.;.&.&.&.&.;.-.M 2 t t t t t t t t t t t t t t t t t t t t t t t t ",
"t t t t t t t t t t t t t t i i i t t t t t t i r.r.r.i t t 1 4 2 2 2 2 1 4 z 5 < t t t t t t t t t t t t y.t t t t t t t t t t ",
"t t t t t t t t y.t t t t i r.r.r.i t t t t t i i i i r.t t t t t t.t t t t t t t t t t t t t t t t t t t t t t t t t t t t t t ",
"t t t t t t t t t t t t i t.r.t.r.i t t t t i t t t t t i t t t t t t t t t t t t t t t t t t t t t t t t t t t t t t t t t t t ",
"t t t t t t t t t t t i r.r.r.r.r.i t t t t t t t t t t t i t t t t t t t t t t t t t t t t t t t y.t t t t t t t t t t t t t t ",
"t t t t t t t t t t t i r.t.r.t.i t t t t t t t t t t t t t t t t t t t t t t t t t t t t t t t t t t t t t t t.t t t t t t t t ",
"t t t t t t t t t t t i t.r.r.i t t t t t t t t t t t t t t t t t t t t t t t t t t t t t t t t t t t t t t t t t t t t t t t t ",
"t t t t t t t t t t t t i i i t t t t t t t t t t t t t t t t t t t t t t t t t t t t t t t t t t t t t t t t t t t t t t t t t ",
"t t t t t t t t t t t t t t t t t t t t t t t t t t t t t t t t t t t t t t t t t t t t t t t t t t t t t t t t t t t t t t t t ",
"t t t t t t t t t t t t t t t t t t t t t t t t t t t t t t t t t t t t t t t t t t t t t t t t t t t t t t t t t t t t t t t t ",
"t t t t t t t t t t t t t t t t t t t t t t t t t t t t t t t t t t t t t t t t t t t i t t t t t t t t t t t t t t t t t t t t ",
"t t t t t t t t t t t t t t t t t t t t t t t t t t t t t t t t t t t t t t t t t t t t t t t t t t t t t t t t t t t t t t t t "
};
