/* XPM */
static char *result[] = {
/* columns rows colors chars-per-pixel */
"64 64 243 2 ",
"   c #000000",
".  c #03030B",
"X  c #09080E",
"o  c #07070D",
"O  c #040513",
"+  c #060916",
"@  c #0C0B14",
"#  c #06091B",
"$  c #0A0D1D",
"%  c #050718",
"&  c #12131C",
"*  c #15161B",
"=  c #0E101C",
"-  c #0A0E23",
";  c #090E2B",
":  c #0C1125",
">  c #0E142A",
",  c #0B1929",
"<  c #151424",
"1  c #191928",
"2  c #0D1432",
"3  c #121934",
"4  c #151A38",
"5  c #110E20",
"6  c #18203D",
"7  c #1C272B",
"8  c #293739",
"9  c #272E32",
"0  c #2E4633",
"q  c #375435",
"w  c #36493E",
"e  c #3E6535",
"r  c #425A3D",
"t  c #467037",
"y  c #141D42",
"u  c #19254B",
"i  c #1B2546",
"p  c #1D2A56",
"a  c #232945",
"s  c #35374C",
"d  c #232D52",
"f  c #233158",
"g  c #393B55",
"h  c #2B3349",
"j  c #273767",
"k  c #243471",
"l  c #324F47",
"z  c #364A78",
"x  c #2E4673",
"c  c #3F7065",
"v  c #454C50",
"b  c #4A734F",
"n  c #4D5876",
"m  c #4D6C6A",
"M  c #626E76",
"N  c #55931C",
"B  c #5B9828",
"V  c #528C38",
"C  c #589839",
"Z  c #4D8732",
"A  c #619E38",
"S  c #619C2A",
"D  c #5FA237",
"F  c #5FA123",
"G  c #64A82A",
"H  c #62A43C",
"J  c #66A837",
"K  c #73B937",
"L  c #71B62D",
"P  c #619D11",
"I  c #7AC73B",
"U  c #7DCB35",
"Y  c #4D8845",
"T  c #548A45",
"R  c #549143",
"E  c #5A9844",
"W  c #4B8459",
"Q  c #538C57",
"!  c #5A985B",
"~  c #639B4B",
"^  c #6CB548",
"/  c #75B945",
"(  c #67A457",
")  c #6DB352",
"_  c #4C8667",
"`  c #548E71",
"'  c #69A868",
"]  c #73BE6B",
"[  c #6AB578",
"{  c #6EB376",
"}  c #63A260",
"|  c #7DCA44",
" . c #78C449",
".. c #7CC658",
"X. c #79C267",
"o. c #87D32B",
"O. c #83CB3A",
"+. c #8BDC3D",
"@. c #87D83A",
"#. c #94DB3A",
"$. c #8DE23C",
"%. c #8AE335",
"&. c #91E33D",
"*. c #95E93B",
"=. c #98EC2E",
"-. c #80CF12",
";. c #85BB55",
":. c #88BE6A",
">. c #83CC46",
",. c #85D243",
"<. c #8BD546",
"1. c #8DDA45",
"2. c #8CD54A",
"3. c #8DDA4A",
"4. c #86D349",
"5. c #92DB4B",
"6. c #91DB48",
"7. c #8ED856",
"8. c #8EE141",
"9. c #94E442",
"0. c #93E349",
"q. c #97EA45",
"w. c #98E655",
"e. c #99F346",
"r. c #A4F556",
"t. c #87D56C",
"y. c #9FE56A",
"u. c #2E4D91",
"i. c #316589",
"p. c #366A90",
"a. c #37718B",
"s. c #1D58B6",
"d. c #1451AB",
"f. c #2755A6",
"g. c #245CBC",
"h. c #295DBC",
"j. c #265BB6",
"k. c #345BAE",
"l. c #2B62BD",
"z. c #2B64B8",
"x. c #3669BC",
"c. c #3D74B5",
"v. c #1968AC",
"b. c #467394",
"n. c #677498",
"m. c #4579A5",
"M. c #4A79BD",
"N. c #506EAF",
"B. c #5C6EA3",
"V. c #255CC5",
"C. c #2C63C2",
"Z. c #2B67C5",
"A. c #336AC3",
"S. c #346AC9",
"D. c #3A73C5",
"F. c #3A75CB",
"G. c #376ED5",
"H. c #3A7BDE",
"J. c #3976D4",
"K. c #2D70D7",
"L. c #2C76E3",
"P. c #357CE9",
"I. c #377CF6",
"U. c #2E76F3",
"Y. c #4379CC",
"T. c #477BC4",
"R. c #437CD3",
"E. c #4279D4",
"W. c #567CC6",
"Q. c #437FE0",
"!. c #569898",
"~. c #518F91",
"^. c #55A094",
"/. c #66A88C",
"(. c #63A998",
"). c #72B491",
"_. c #4685A8",
"`. c #488BB7",
"'. c #5987BE",
"]. c #5196AF",
"[. c #6E88A9",
"{. c #59A1AC",
"}. c #6EB4B2",
"|. c #7EC1A7",
" X c #0694D6",
".X c #3C83D6",
"XX c #3B83E4",
"oX c #3D85ED",
"OX c #3D89EE",
"+X c #3382EB",
"@X c #3C85F3",
"#X c #3D8AF2",
"$X c #3C85FB",
"%X c #3984F9",
"&X c #5A82C9",
"*X c #5295C3",
"=X c #4686D8",
"-X c #4C8ED1",
";X c #688AC8",
":X c #6996DC",
">X c #6D94CD",
",X c #69AAD3",
"<X c #4186EC",
"1X c #428AEE",
"2X c #498BE9",
"3X c #4990EC",
"4X c #5796E8",
"5X c #4086F1",
"6X c #428AF2",
"7X c #448CF9",
"8X c #4893F7",
"9X c #559BFB",
"0X c #579BF6",
"qX c #639CEB",
"wX c #5CA5FC",
"eX c #5EA9FC",
"rX c #5AA1F6",
"tX c #58A2EB",
"yX c #66A6E5",
"uX c #62A5FB",
"iX c #64ABFD",
"pX c #69AEFD",
"aX c #65A8F8",
"sX c #6BB2FE",
"dX c #71B0FD",
"fX c #8C99B9",
"gX c #A6ACBD",
"hX c #87C999",
"jX c #8B9FC7",
"kX c #8DA2C5",
"lX c #94A8CA",
"zX c #8AAAD6",
"xX c #98ADD4",
"cX c #9AB2D7",
"vX c #ABB7D6",
"bX c #99B6E4",
"nX c #B5C3D3",
"mX c #9AC5F6",
"MX c #B8DCF5",
"NX c #A6DAFB",
"BX c #B5E7FD",
"VX c #D5F4FA",
"CX c #D9E6F1",
/* pixels */
"                                                                                                                .               ",
"                                                                                                              . O               ",
"                                                                                                              O #               ",
"                                                                                                              # -               ",
"                                                                                                              > 2               ",
"                                                                                                            . 2 4 .             ",
"                                                                                          .                 % i i O             ",
"                                                                                          @               . ; j p - .           ",
"                                                                                          & .         . O ; p N.k.i # .         ",
"                                                    o 4 9 g v v g s s s g s 1           . 9 $ + - : 2 4 y k W.NXmXN.u 3 > - O . ",
"                                                  . y N.vXnXvXnXfXn.n.[.n.fXn.5 . . @ = 7 M l : : : 3 y f u.:XVXNX;Xk j u i 2 : ",
"                                              & a a u.8XMXCXMXVXCXvXvXlXxXzXbXy 6 s  X& * n h = o . . . % 2 z :XM.j 4 5 % O .   ",
"                                            * u.4X2X6XOXXXK.F.MXCXCXnX}.cXW.s.h.;XvX9 1 + 1 O           . . 2 u.f - .           ",
"                                      . X * k.P.7X@X#XOXOXI.oXyX>X'.:X4X:XE.g.V.F.T.k u < <               . - j y O .           ",
"                                    @ 1 * 8 ,XOX%X%X#X#X#XOX#XP.L.L.+XoXI.G.V.C.g.s.Z.u.4 4 5               # u > .             ",
"                                  o r y.y.5.;.].U.@X+X+X6XOX#X#XOXOXOX1X7XG.h.C.C.C.C.C.j.W.N.< .           O 4 -               ",
"                                X v ;.q.e.%.$.X.(.^.^.{.<XI.#XoX+XoXoXoX#XXXK.l.g.C.h.C.F.=Xc.c 1 o         . 3 O               ",
"                              o 9 ;.9.$.$.@.$.9.0. .| X.m.H.#XoXoXoX<XoXoX3X2Xz.g.C.l.C.H.F.m.' 8 1 X         : .               ",
"                              9 7.&.o.8.8.@.8.$.+.8.|  .) ~.L.wXaXwXuXuXuXuXrXaX=XA.F.E.E.F._.Y T b 7 .       %                 ",
"                            X r r.#.+.$.8.%.,.$.8.3... .| /.2XuXpXpXpXpXaXaXpXsXrX2X=XD.b.~.` R C Q 7 @       +                 ",
"                          @ 1 r e.%.8.8.9.%.$.0.0. .) .. ./.pXpXiXiXiXiXiXiXiX4X*X,XY.b.Y C D D ~ b 1 <       .                 ",
"                        . 1 b ) e.%.,.8.9.$.9.4. . . .4.| ^.OX8X1X3X1X8X3X$X2X/.' ).! E G G D V T V Y 8 $                       ",
"                        * w t.4.8.$.@.8.| | 3. .K  .' [ [ _.+X#XP.XXOX+XP..X~.( @.$.o.U +.O./ >.H C / Z 7                       ",
"                      o b t. .4.8.0.8.e.|  .........!.H..XXX#X1X1X1X1X#XI.{.) ,.$.$.| O.&.9.q.*.+.H D H ~ &                     ",
"                      X b w.I I 4.,.O.1.| I | (.{.].3X#X$X#X6X1X5X5X6X7XI./.@.&.+.&.9.1.#.9.9.9.*.K V H C 1                     ",
"                      * R t.X.[ [ [ [ [ [ X.).].%X%X+X#XOXoXOX#XoX#X5X@XU.(.0.$.1.&.q.&.$.&.9.&.&.+.H R C 0 @                   ",
"                    @ :.| X.,X2X.X.X.X.X=X.X=X1X#X#X#X#XOXoX#X6X#X5X5X@XP.!.,.q.w.0.9.*.9.&.9.9.9.e.+.R R ( e                   ",
"                  X h }.(.}.pX9X8X9X8X8X#X@X%X@X#X#X#X#X1XoX6X6X<XP.8X0X0X,X)./ o.%.@.$.q.q.#.9.*.*.@.H Y H t                   ",
"                  @ j dXuXuXuXaXpXsXpXpX3XoX#X<XOX#XoX<X6XoXoX6XoXXXtXsXdXiX4X*X! L o.-.U | *.U A C E C R E q                   ",
"    $             @ f dXuXuXaXaXiXdX0XoXOXoXoX1XoXOXoX1X<XoX1XoX1XiXpXeXrXwXeXeX9X`.L U B V J B t Z Z Z V E 0                   ",
"                  @ a }.}.{.qXuXiXrX6XoXOXoX1X6XOX1XoXoX#X5X6XoX2XrXrXaXwXiXeXeXpXwX].( ` b b m b W ` _ b ~ q o                 ",
"                  @ 0 r.*.t.yXuXiXoXP.6X1XoX5X6XOXOXoX#X<XoX6X6XP.#XrX0XeX0X0X9X0XrX0X9XeX~._ rX3X9XeXtX=X! t .                 ",
"                  @ l w.=.t.yX9XuXiX8X@X<XoX6X1XoXOXOX#XoX#X6X6X@XI.{./.{ ` ' hXhX).).(.qX*X~.iXuX~.` /.!._.x .                 ",
"                  @ 8 7.@.>.^.{.,XyX0X@XoXoXoXoXoXoXOXOXoX<X5X5X.X_.{ #.o.o.#.#.O.L K S J {.'.-X_.P P N N .Xf..                 ",
"                  @ 9 w.$.8.8.,.t.*XI.5X5X#X<X6XOXOX1X1X<X#X#X+X].7.q.5.2.5.2.O.>.K A A N P T m B G A V J `.f.o                 ",
"                  @ 9 r.*.$.*.=...D.I.6X7X5X6X6X6X1X6X6X%X#XXX{.) *.*.0.5.2.2.<.2.5.5.>.~ t B S F G G B B `.u.o                 ",
"                  o 0 5.%.8.| %. .~.J.#X#XoX5X6X<XoXoX6X<X@XXX^.) 3.#.@.5.6.2.6.2.2.<.5.0.H V S S G ( t b 8Xf.o                 ",
"                    7 ^ I e.e.8.@.) ~.U.#XOXoXOXoXoX<XoX1XXXoX.X]. .O.6.6.6.6.<.2.2.<.<.0.6.C Z F S m.K.F.8Xu.o                 ",
"                    o 0 C I K @.e.8.X.~.=X%X6X6XOX6X7X1XOX3X9X$X`. .6.5.2.5.<.<.<.2.2.6.5.;.V G L B Z.$X%Xf.6                   ",
"                      X q G N K w.0.1.) `.%XOXOXoXoX6XoX+X8XsX7X`.] 7.6.<.<.2.<.2.2.2.6.5.J C / S l K.7X+X X                    ",
"                        r >.D D J F L ( `.%X$X8XoXOX6XoXP.2XiXiXrX>X).o.6.<.<.2.2.>.2.5.3.K ` D.l.J.oX6XP.<                     ",
"                        o b J G C B C ! _.P.P.@X6XOXOXOX3XtXpXuX9X0X).#.6.6.<.2.2.<.5.5.| L ~.I.%X$X8XJ.v.=   .                 ",
"                    .     o ~ J D V V b i.g.j.H.6XOX<X1XpXpXpX2XH.x._ H >.<.6.6.6.<.>./ I I _.%X@X#X<Xu.< o . .                 ",
"                    O       X e ^ V V Y i.s.g.G.=XJ.R.=X=X=X=X=X=XD.Q V T R ^ | |  ./ / U ~ K.%X#XZ.a 1 @   O O                 ",
"                    -       o 0 ^ R V R p.Z.l.D.Y.Y.D.c.D.x.x.D.D.M.` B C R Y R ^ I | K ! p.L.XXOXl.< <     $ +                 ",
"                  O ; .       l ' R Y b m.J.R.R.Y.R.A.z.z.g.C.V.C.Y.` R C C E C C ~ K Q D.R.D.Z.H.x.3 o     : -                 ",
"            . . # 4 j - O     < 0 R _ i.T.R.A.A.S.A.z.l.C.C.C.C.A.=Xm.p.a.W C B Q a.~.m.R.Y.C.G.u.y 5     . 3 >                 ",
"            . o $ u z 2 # O . . - b m g.J.F.j.h.l.l.l.C.C.C.C.V.C.R.S.V.V.a.Q Q ~.S.G.F.E.A.j.k.4 &       o 6 3 .               ",
"                  O 2 .           = u F.S.x.l.l.C.V.l.C.V.h.j.s.f.j.j.j.s.h.c.M.x.V.l.C.S.J.k.2 @         + d 6 o               ",
"                  . #               o 4 i k S.V.g.g.h.C.j.M.;X;X&XM.'.'.&X:X;XE.S.g.G.h.j k p @       . . > j d # .             ",
"                    O                     < f.h.z.l.l.C.g.T.bXcXcXxXvXlXxXcXzXM.x.f.S.k < < X         . - d B.u.3 o .           ",
"                                            1 [.zXcXW.d.s.f.f.>XlXkXlXkXkXkXlXcXxXbXd < >   . o + $ : 4 g B.mX,Xz 3 : + O       ",
"                                            X n n.'.m.M.&XM.N.jXxXlXlXlXlXxXkXn n M # . O $ : > i a f x N.bXVXBX;Xz j u 4 > $ + ",
"                            O                 . $ , n vXxXxXvXlXkXlXkXkXkXcXlX@ X             . O - > 6 j >XMXbXb.d p 3 > $ $ O ",
"                            %                       1 x g s g g l z g s s a 1                       . O > z ;Xb.y $ 3 % .       ",
"                          O y .                         o 5 & & & @ X o                                 O 4 z d - ; j 2 .       ",
"                      . % 2 z 2 % .                                                                       , j 6 - y z p ; # O . ",
"                          . ; .                                                                           $ d :   O y O         ",
"                            O                                                                             + u $     ; .         ",
"                            .                                                                             O i +     %           ",
"                                                                                                          . > .     O           ",
"                                                                                                            :       .           ",
"                                                                                                            +                   ",
"                                                                                                            O                   "
};
