/* XPM */
static char *result[] = {
/* columns rows colors chars-per-pixel */
"64 64 251 2 ",
"   c #171426",
".  c #181425",
"X  c #16162B",
"o  c #18182D",
"O  c #0F173D",
"+  c #171E33",
"@  c #171835",
"#  c #141A3C",
"$  c #162339",
"%  c #26293D",
"&  c #191E40",
"*  c #152742",
"=  c #182747",
"-  c #1C324C",
";  c #0F255F",
":  c #152656",
">  c #1B3857",
",  c #123A5F",
"<  c #283454",
"1  c #0D2E6F",
"2  c #122A67",
"3  c #1C3C64",
"4  c #163279",
"5  c #17466D",
"6  c #1D4E77",
"7  c #244F75",
"8  c #3E6175",
"9  c #03358E",
"0  c #143B86",
"q  c #003593",
"w  c #003B94",
"e  c #0C3F92",
"r  c #013C9D",
"t  c #013EA2",
"y  c #0B4395",
"u  c #01439C",
"i  c #024A9E",
"p  c #124397",
"a  c #125592",
"s  c #255E8A",
"d  c #16739A",
"f  c #29658A",
"g  c #256494",
"h  c #247291",
"j  c #0343A3",
"k  c #0946A5",
"l  c #034AA5",
"z  c #0949A6",
"x  c #0545AA",
"c  c #0945A9",
"v  c #044BAB",
"b  c #094AAA",
"n  c #0653A9",
"m  c #065AA9",
"M  c #1A56A6",
"N  c #1450AC",
"B  c #004CB2",
"V  c #064BB5",
"C  c #0153B5",
"Z  c #0B53B1",
"A  c #045BB4",
"S  c #0C5BB1",
"D  c #0455BB",
"F  c #0B54BC",
"G  c #045ABA",
"H  c #095BBF",
"J  c #0A64AB",
"K  c #0B6EAE",
"L  c #0C6AB4",
"P  c #0362BC",
"I  c #0867B9",
"U  c #1268B8",
"Y  c #0A74BA",
"T  c #1979B9",
"R  c #2A72A4",
"E  c #2D78B0",
"W  c #4E7197",
"Q  c #0656C2",
"!  c #0559C1",
"~  c #0B5DC4",
"^  c #0C5DC8",
"/  c #105EC7",
"(  c #0B63C5",
")  c #0967C5",
"_  c #076BC2",
"`  c #0A6BC3",
"'  c #0C62C9",
"]  c #126AC5",
"[  c #0C74C3",
"{  c #0D7BC5",
"}  c #0C7CCA",
"|  c #1577C5",
" . c #117DCC",
".. c #1477D0",
"X. c #2176C6",
"o. c #158ABE",
"O. c #2689A8",
"+. c #368FA5",
"@. c #288CBD",
"#. c #34A2BF",
"$. c #4F90AE",
"%. c #0B8BC5",
"&. c #1787C7",
"*. c #138BCB",
"=. c #0C93C9",
"-. c #1899CC",
";. c #148DD4",
":. c #198BD2",
">. c #0E95D2",
",. c #0099DB",
"<. c #1C93D3",
"1. c #159CD3",
"2. c #1C9AD3",
"3. c #1A98D9",
"4. c #2A8DC3",
"5. c #2999CD",
"6. c #3396CF",
"7. c #239BD5",
"8. c #2797D8",
"9. c #239DDA",
"0. c #09AACA",
"q. c #18A6CB",
"w. c #0FB3CD",
"e. c #18A8D7",
"r. c #1AA4DA",
"t. c #14B3D3",
"y. c #1CB2D3",
"u. c #16BAD7",
"i. c #1BBCDC",
"p. c #2BAEC8",
"a. c #34AACC",
"s. c #34B2CC",
"d. c #22A4DC",
"f. c #27A8DA",
"g. c #37A5D5",
"h. c #23B4D4",
"j. c #26B7DB",
"k. c #22B9DD",
"l. c #37B8D7",
"z. c #3CBAD9",
"x. c #1D9CE0",
"c. c #249DE4",
"v. c #1DACE3",
"b. c #1BBCEA",
"n. c #1BB8F4",
"m. c #27A5E4",
"M. c #36AEEE",
"N. c #27B9E9",
"B. c #35BBE7",
"V. c #28BAF2",
"C. c #459CC7",
"Z. c #48AACC",
"A. c #58ACCF",
"S. c #45A8D7",
"D. c #54ACD3",
"F. c #5CACD4",
"G. c #4DB5D6",
"H. c #4AB9DA",
"J. c #5AB6D9",
"K. c #6EB1C5",
"L. c #66B6D8",
"P. c #6AB5DB",
"I. c #62BBDC",
"U. c #6CBBDC",
"Y. c #73B7DB",
"T. c #4EB9E7",
"R. c #69B7E2",
"E. c #73BBE2",
"W. c #78BEE4",
"Q. c #18C3DD",
"!. c #29C2DC",
"~. c #1EC7E4",
"^. c #1CD8EB",
"/. c #1CC4F4",
"(. c #1DCAF8",
"). c #21C3E2",
"_. c #2DC4EB",
"`. c #27C8E8",
"'. c #38C9EB",
"]. c #2BD5EB",
"[. c #2AC6F6",
"{. c #2DC4F5",
"}. c #25CBF6",
"|. c #2BCCF6",
" X c #25CDFA",
".X c #2ACDFA",
"XX c #37C8F6",
"oX c #32CBFD",
"OX c #26D3FE",
"+X c #2CD2FD",
"@X c #2BD8F9",
"#X c #36D5F5",
"$X c #33D3FE",
"%X c #39D5FE",
"&X c #35DBFF",
"*X c #3BDBFF",
"=X c #1FEEEF",
"-X c #1BE9F6",
";X c #1CF5F8",
":X c #27EAEE",
">X c #35E3EF",
",X c #2BE8F7",
"<X c #35E7F7",
"1X c #32ECFC",
"2X c #29F8FD",
"3X c #34F3FE",
"4X c #39F4FD",
"5X c #34FDFF",
"6X c #3AFDFF",
"7X c #6CC3DF",
"8X c #46C6EB",
"9X c #57C6EB",
"0X c #4CCDF3",
"qX c #45D6F9",
"wX c #55DAF5",
"eX c #6FD0EC",
"rX c #73DAE8",
"tX c #69DAF4",
"yX c #79DCF6",
"uX c #48E7EE",
"iX c #44E4FB",
"pX c #56EFF3",
"aX c #5AEAFA",
"sX c #48F6FC",
"dX c #44FEFF",
"fX c #67E9F7",
"gX c #78EAF6",
"hX c #67F6F7",
"jX c #79F4F8",
"kX c #86A3B8",
"lX c #89CAE9",
"zX c #8FD5ED",
"xX c #85E2EF",
"cX c #83E4F5",
"vX c #8AE3F5",
"bX c #88EBF8",
"nX c #9AEAFA",
"mX c #89F6FD",
"MX c #94F4FA",
"NX c #9AF7FC",
"BX c #A5EBFA",
"VX c #B8EEFB",
"CX c #ABF5FE",
"ZX c #A4F9FD",
"AX c #ACFAFE",
"SX c #B3F4FD",
"DX c #BCF2FE",
"FX c #B5FAFF",
"GX c #BBFBFF",
"HX c #C5FDFF",
"JX c #DAFFFF",
/* pixels */
". . . . . . . . . . . . . . . . . . . . . . . . . . . . . . . . . . . $ + . . . . . . . . . . . . . . . . . . . . . . . . . . . ",
". . . . . . . . . . . . . . . . . . . . . . . . . . . . . . . . . . . . . . . . . . . . . , . . . . . . . . . . . . . . . . . . ",
". . . . . . . . . . . . . . . . . . . , . . . . . . . . . . ,.. . . . . . . . . . . . . . . . . . . . . . . . . . . . . . . . . ",
". . . . , . . . . . . . . . . . . . . . . . . . . . . . . K ,XK . . . . . . . . . . . . . . . . . . . . . . . . . . ,.. . . . . ",
". . . . . . . . . . . . . . . . . . . . . . . . . . . . . . ,.. . . . . . . K . . . . . . . . . . . . K . . . . . . . . . . . . ",
". . . . . . . . . . . . . . . . . . . . . . .   . . . . . . . . . . . . . . . . . . . . . . . . . . . . . . . . . . . . . . . . ",
". . . . . . . . . . . . . . . . . . . . . . . * . . . . . . . . . . . . . . . . . . . . . . . . . . . . . . . . . . . . ,.. . . ",
". . . . . . . . . . . . . . . . . . . . . . . . . . . . . . . . . . . . . . . . . . . . . . . . . . . . . . . . . . . . . . . . ",
". . . . . . + . . . . . . . . . . . . . . . . . . . +     X X X . . . . .   X X .   . . . . . . . . . . . . , . . . . . . . . . ",
". . . . . . . . . . . . . . , . . . . . . . .   . s z.g.a.g.a.@.d E $.+.O.a.T p X   . . . . . . . . . . . . . . . . . . . . . . ",
". . . . . . . . . . . . . . . . . . . . . . % % = B.3X,XOX,XaXwXG.E.eX'.i.f.} Z : @ . . . . . . . . . . . . . . . . . . . . . . ",
". . . . . . . . . . . . . . . . . . . . . o JXmX_.[.(././.[.MXGXGXzXZ.h.=.w j i z 1 %.. . . . . . . . . . . . . . . . . . . . . ",
". . . . . . . . . . . . , . . . . K . . - $.SXnXrXtXgXyXyXcXCXnXfXwX'.:Xh.u k z t M W       . . . . . . $ + + . . . . . . . . . ",
". . . . . . . . . . . . . . . . . . . . s.hXmXAXDXDXGXCXAXZXZXgX:X;X1XdXB.w k z 9 4.nX< @ @ o . . . . $ * * $ $ . . . . . . . . ",
". . . . . . . . . . . . . . . . X C.E , ].dX<XgXDXDXNXuXiXdXdXdX5X5X6X&.A u r j 4.S.W.Z.-.l.> . . . . + * , , * $ . . . . . . . ",
". . . . . . . . . . . . . . . + 8 qXn.C 7.].=XsXgXgXhX2X^.i.).i.~.).N.I B v S L ;.S.E.j.Q.~.d * . . . + * , K , $ + . . . . . . ",
". . . . . . . . . . . . . . . kXHXqXv.B x Y 4X4X1X1X5XdXe.x G C A C G ~ ' ! ;.m.>.g.E.s.t.t.Q.8X$ . . . + * 3 , * @ . . . . . . ",
". . . . . . . . . . . . . * +.xXZXqXV.m.) Q *.>.>.>.;.1.} ! ( ~ G F D ~ Q V c.{.>.S.E.F.z.t.Q.j.a # . . . + * * $ + . . . . . . ",
". . . . . . . . . . . . . 7 hXmXnX_.OXiX;.G P A B D Q V G ' ' ' ` _ ` ) _ P V.&X1.g.R.Y.I.y.w.Q.I 4 . . . . + + +       . . . . ",
". . . . . . . . . * . . . < GXFXnX_.(..X.XXX%X<.x C C C C D B [ XXoX{..X{.XXoX.X+XN.&.F.I.h.t.k.U 2 . . . . . .         . . . . ",
". . . . . . . . . . . . $ $.HXDXnXeXqX}.OX+X%XN.&.:.:.:.:.:.*.3.%X+X+X+XOX+X+X|.$XV.%.A.R.y.u.i.S 2 2 + . . . . . . . . . . . . ",
". . . . . . . , . . . . sXhXNXAXBXGXgX}..X.X}.$X&X%X%X%X%X&X&X$X.X.XOX.X|.|..X.XOXb.%.D.I.h.u.i.J t N 2 . . . . . . . . . . K . ",
". . . . . . . . . . = M >X4XsXsXfXAXcX`.}.oX.X.X+X.X+X+XOX+X+X+X.XOX|..XoX+XOX.XOX XN.J.P.J.l.h.J t z y 1 X . . . . . . . . . . ",
". . . . . . . . . . 0  .@X2X=X;X>XNXxX'.XX|.|..X|..X.X.X|..X+X|.|..X|..X.X.X.X.X|.#XqXH.J.R.z.h.A j k V N @ . . . . . . . . . . ",
". . . . . . . . . . 2 ..1X5X:X;X>XNXSXZX8X~.(. X.X|..X.X|..X.X|..X.X.X.X|..X}./.b.9XAXH.w.p.k._.U r c V e X . . . . . . . . . . ",
". . . . . . . . @ 2 p ] d.`.2X2X3XhXMXDXvXtXfXqX}..XOXOX+X.X+X+XOX$X+X.XOXOXwXtXtXMXGXH.0.Q.q.| n j c c c 6 $ . . . . . . . . . ",
". . . . . . . . : ' ) ^ x %.dX5X2X-XaXZXAXSXGXrXN.{.XX_._.|.OX+X|.|.|.{.[.N.bXDXSXSXFX!.0.~.o.9 k v b c c M.R . . . . . . , . . ",
". . . . . . . . > 8X*.B G ` *.} %.1XdXsXuXwXCXZXvXbXMXvXvXbX'.n.}./.{.gXvXnXCXBXpXuXuX>X^.^.&.q z v b t t 8.g . . . . . . . . . ",
". . . . . . . . > aXv.I ) ~ D V A _.].^.-X:XjXNXMXMXNXSXHXCXtX8X0XqX9XBXAXMXMXjX:X;X:X2X,Xq.T t b b x v S m.g . . . . . . . . . ",
". . . . . . . . > XX&XoXG C C ~ ( P G m ].dX,X,X:X:XpXZXVXCXCXCXAXAXAXDXbX>X4X5X5X6X5X6X<Xi t V b z q ` m.N.s . . . , . . . . . ",
". . + . . . . . 3 XX+X$Xv.3.9.] D Q ~ G *.k.2X2X;X;X4XhXfXfXhXhXhXhXhXhXpX2X~.-.r.r.r.y.7.i j z j n | &.r.v.s . . . . . . . . . ",
". . . . . . . . < %XOXoX%X%XiX;.C P ( ~ B I <X3X1X1X1X,X:X,X<X,X,X>X1X,X1X6X*.j B C G C v z z b r m m.d.1.f.s . . . . . . . . . ",
". . . . . . . . - %X.X.X X}..X[.V.XX3.B V G I [ | { %.} }  . .} { { } } {  .` H ( ( ( D z v j r X.2.2.3.:.T.W o . . . . . . . . ",
". . . . . . . . > qXOX.XOX|..X&X@X*XN.[  . .} _ G D Q F Q Q Q D Q F D D F D ~ ' ^ ) ' v j k n S 7.d.1.9.g.eXW o . . . . . . . . ",
". . . . . . . . - oX(.OX.X|..XOX.X.X$X%X$X%XiXx.B C G D C D ' / ~ ' ~ / / / ' / ( ) ( z w w U g.2.2.%.S.W.lXW . . . K . . . . . ",
". . . . . . . . < MXqX(..X}.|.+X{.{.OX|.}.+X+XV.3.c.3.m.x.c.) F ~ ! F G Q ~ ! G ( G z U | | &.7.-.7.S.A.Y.9Xh . . . . . . . . . ",
". . . . , . . . < JXyX_.@XOXOX+X.XoX+X+X.X+X.X$X&X&X*X*X*X*X} A ` _ _ I _ ` ` _ ) G u :.M.d.9.5.2.g.W.P.I._.d . . . . . . . . . ",
". . . . . . . . < zXBXNX#X(.(..X+X.X$X+X.X.X+X.X+X|.+XOX.XOXoX{.{.{.[.XX{.{.oXB.3.8.2.2.e.=.g.L.P.P.Y.G.h.@Xh . . . . . . . . . ",
". . . . . . . . $ W K.cXH.8XwX'./.}.|. X.X.X|.|..X|.$X|.}..X&XOXOX&X+X+XOX+XoXN.9.3.r.1.1.5.D.Y.D.G.G.h.t.O.- . . . . . . . . . ",
". . . . . . . .   . 5 !.D.lXGXaX/.}.|..X.X+X|..X.X.XOX.X}.+X+X}.|.+X.X|.+X&Xv.=.1.1.-.*.5.R.Y.U.l.i.N.).B.K . . . . . . . . . . ",
". . . . . . . .     6 ].s.A.zX7XJ.bXaX}.+X+X}. X+X}.OX+X.X+X+X+X$X+XOX%X[.e.r.-.>.f.D.S.F.W.J.z.o.J K Y T # . . . . . . . . . . ",
". . . . . + . .     f l.w.p.D.A.P.CXcXB.XX'.'.XX'.'.#X|.|. X X[.{..X.XXXB.&.5.5.-.S.Y.L.I.I.l.y.n q l y e o . . . . . . . . . . ",
". . . . . . . . . . X $ #.`.!.h.a.L.Y.U.J.7XAXAXAXFXbX|.|. X@Xb.=.>.7.D.P.R.R.P.I.Y.Y.s.y.j._._.m n T.4 . . . . . . . . . . . . ",
". . . . . . . . . . . . d 1.o.w.u.z.D.G.Z.J.rXrXrXzXzXT.T.8X0XT.g.g.C.P.L.G.G.H.H.H.G.h.y.*.&.&.m y 7 o . . . . . ,.. . . . . . ",
". . . . . . . . . . ,.. M Z q <.`.y.t.y.t.y.0.0.q.Z.L.L.L.L.U.L.R.E.7XR.H.q.h.k.k.N.j.N.f.u w u l 1 . . . . . . . . . . . 3 . . ",
". . . . . . . . . K ,XJ & 2 Z S T j.Q.i.u.Q.Q.i.i.j.l.s.s.s.l.l.z.z.l.l.!.!.o.m J L L L U v l z Z e . . . . . . . . . . . . . . ",
". . . . . . . . . . ,.. . o 0 9 i 7.h.q.q.q.q.r.q.w.t.t.w.u.q.-.2.q.1.q.e.j.J q r r r t r v z y p : . . . . . . . . . . . . . . ",
". . . . . . . . . . . . . . . 4 F l i l z z l k i d.].).Q._.J u v l l l l l k c c k k z x k b N @ . . . . . . . . . . . . . . . ",
". . . . . . . . . . . . . . . # 0 t x c c j j t x | &.&.{ | n r c z c c c c c z x z k v B v e = . . . . . . . . . . . . . . . . ",
". . . . . . . . . . . . . . . . o e b c l l u j c t r r r r l z k z k k k j j l j l l i N N ; . . . . . . . . . . . . . . . . . ",
". . . . . . . . . . . . . . . . . + @ O E 8.:.U q u r t t j r j t r u t t w U <.&.<.6.: @ # X . . . . . . . . . . . . . . . . . ",
". . . . . . . . . . . . . . . . . .   . 7 6.f.&.n S S Z S S S S S S S Z S m :.m.r.-.E X ,   . . . . . . . . . . . . . . . . . . ",
". . . . . . . . . . . . . . . . . . . .   $ g.M.M.8.3.d.7.9.d.7.9.9.9.9.9.1.m.m.B.g   . . . . . . . . . . . . . . . . . . . . . ",
". . . . . . . . . . . . . . + $ + . . . . . 3 5 4 O.v.r.e.e.r.r.r.r.r.r.3.v.s , s = . . . . . . . . . .   3 . . . . . . . . . . ",
". . . . . . . . , . . . . $ $ * * + . . . . . + $ R g.4.@.@.4.4.4.4.@.4.4.C.@ . . . . . . . . . . . . . . . . . . . . . . . . . ",
". . . . . . . . . . . . + , * 3 * + . . . . + . . + o X # X o o o o o o o o . . . . . . . . . . . . . . . . . . . . . . . . . . ",
". . . . . . . . . . . + $ * * * * + . . . . . . . . . . . + . . . . . . . . . . . . . . . . . . . , . . . . . . . . . . . . . . ",
". . . . . . . . . . . + * , * , + . . . . . . . . . . . . . . . . . . . . . . . . . . . . . . . . . . . . . . , . . . . . . . . ",
". . . . . . . . . . . + , * * $ . . . . . . . . . . . . . . . . . . . . . . . . . . . . . . . . . . . . . . . . . . . . . . . . ",
". . . . . . . . . . . . + + + . . . . . . . . . . . . . . . . . . . . . . . . . . . . . . . . . . . . . . . . . . . . . . . . . ",
". . . . . . . . . . . . . . . . . . . . . . . . . . . . . . . . . . . . . . . . . . . . . . . . . . . . . . . . . . . . . . . . ",
". . . . . . . . . . . . . . . . . . . . . . . . . . . . . . . . . . . . . . . . . . . . . . . . . . . . . . . . . . . . . . . . ",
". . . . . . . . . . . . . . . . . . . . . . . . . . . . . . . . . . . . . . . . . . . + . . . . . . . . . . . . . . . . . . . . ",
". . . . . . . . . . . . . . . . . . . . . . . . . . . . . . . . . . . . . . . . . . . . . . . . . . . . . . . . . . . . . . . . "
};
