/* XPM */
static char *result[] = {
/* columns rows colors chars-per-pixel */
"110 91 17 1 ",
"  c black",
". c #080112",
"X c #130223",
"o c #1C0331",
"O c #24043D",
"+ c #2C0548",
"@ c #320652",
"# c #39075B",
"$ c #3E0964",
"% c #440B6C",
"& c #4A0C75",
"* c #4F0E7C",
"= c #540F84",
"- c #59118B",
"; c #5D1292",
": c #621499",
"> c #66159F",
/* pixels */
"                                                                                                              ",
"                                                                                                              ",
"                                                                                                              ",
"                                                                                                              ",
"                                                                                                              ",
"                                                                                                              ",
"                                                                                                              ",
"                                                                                                              ",
"                                                                                                              ",
"                                                                                                              ",
"                                                                                                              ",
"                                                                                                              ",
"                                                                                                              ",
"                                                                                                              ",
"                                                                                                              ",
"                                                                                                              ",
"                                                                                                              ",
"                                                                                                              ",
"                                                                                                              ",
"                   X->>>>>%&>>>>>o>>-. &>>@->>>>>$    #>>>>>#=>> $>>@->>>>>=>>>>>>@                           ",
"                   $>>&$$$$>>=$>>=>>>-&>>>=>>&$$$O    >>;$;>>=>> $>>=>>&$$$$>>=$>>=                           ",
"                   $>>$$$@O>>=$>>=>>>>>>>>=>>&$       >>= =>>=>> $>>=>>&$  O>>=$>>&                           ",
"                   $>>=>>>=>>>>>>=>>->>->>=>>>>       >>= =>>=>>o>>>=>>>>  O>>>>>>@                           ",
"                   $>>##>>=>>$ >>=>>=XO$>>=>>#OOOX    >>-O->>=>>:>>O$>>#OOO@>>$ >>=                           ",
"                   @:>>>>:&>>$ >>=>>=  $>>&:>>>>>$    ->>>>>-=>>>:@ @:>>>>>=>>$ >>=                           ",
"                    oOOOOo.OOX OOoOOo  XOO.oOOOOOX    .OOOOO.oOOOo   oOOOOOoOOX OOo                           ",
"                                                                                                              ",
"                                                                                                              ",
"                                                                                                              ",
"                                                                                                              ",
"                                                                                                              ",
"                                                                                                              ",
"                                                                                                              ",
"                                                                                                              ",
"                                                                                                              ",
"                                                                                                              ",
"                                                                                                              ",
"                                                                                                              ",
"                                                                                                              ",
"                                                                                                              ",
"                   O$+.#$+$$$+$$X$##$$$+$$$$O  @@                                                             ",
"                   $>:->>=>$>=>>O>>>;$$$>=$$O  @@                                                             ",
"                   $>>>:>=> >=>>$>>>>> o>>>>O                                                                 ",
"                   $>$O=>=>O>=>>>>@>-OOoOO&>$  oo                                                             ",
"                   @=@ %=#===#===X.&===%====X  %%                                                             ",
"                                                                                                              ",
"                                                                                                              ",
"                                                                                                              ",
"                                                                                                              ",
"                                                                                                              ",
"                                                                                                              ",
"                                                                                                              ",
"                                                                                                              ",
"                                                                                                              ",
"                                                                                                              ",
"                                                                                                              ",
"                                                                                                              ",
"                                                                                                              ",
"                                                                                                              ",
"                    OOOOXOOOoXOOOXOOOO.oOOOX  XO                                                              ",
"                   @>;==->-::*>=>;>>=>&::==@  @=                                                              ",
"                   $>=$#->O%==> >>>>$>&>;$                                                                    ",
"                    $$;>>>O%==> >>>>$>&>;$                                                                    ",
"                   $>>>:->>>:*>>>;>> >=:>>>$  $>                                                              ",
"                                                                                                              ",
"                                                                                                              ",
"                                                                                                              ",
"                                                                                                              ",
"                                                                                                              ",
"                                                                                                              ",
"                                                                                                              ",
"                                                                                                              ",
"                                                                                                              ",
"                                                                                                              ",
"                                                                                                              ",
"                                                                                                              ",
"                                                                                                              ",
"                                                                                                              ",
"                                                                                                              ",
"                                                                                                              ",
"                                                                                                              ",
"                                                                                                              ",
"                                                                                                              ",
"                                                                                                              ",
"                                                                                                              ",
"                                                                                                              ",
"                                                                                                              ",
"                                                                                                              ",
"                                                                                                              ",
"                                                                                                              ",
"                                                                                                              "
};
