/* XPM */
static char *result[] = {
/* columns rows colors chars-per-pixel */
"50 50 17 1 ",
"  c black",
". c #080112",
"X c #130223",
"o c #1C0331",
"O c #24043D",
"+ c #2C0548",
"@ c #320652",
"# c #39075B",
"$ c #3E0964",
"% c #440B6C",
"& c #4A0C75",
"* c #4F0E7C",
"= c #540F84",
"- c #59118B",
"; c #5D1292",
": c #621499",
"> c #66159F",
/* pixels */
"                                                  ",
"                                                  ",
"                                                  ",
"                                                  ",
"                                                  ",
"    .OOOOXOOOXOo XOXOOOO.  XOOOXOo.OXoOOOOOOOo    ",
"    &>>>>*>>>*>:+=>;>>>>O  *>>>*>=O>*:>>>>>>>:o   ",
"    =>&$@=>$>=>>>>>>>=O    => >=>=@>=>=@ $>=;:o   ",
"    =>&;>=>$>=>=;=>>>=O    => >=>-:>&>=@ $>=;:o   ",
"    &>>>;=> >=>= $>;>>>>O  *>>>*>>>#o:>>>>>$=>O   ",
"                                                  ",
"                                                  ",
"                                                  ",
"                                                  ",
"                                                  ",
"                                                  ",
"                                                  ",
"                                                  ",
"                                                  ",
"                                                  ",
"                                                  ",
"    %*+=*==*%@%*===&===  =o                       ",
"    =>>>>>O>=$->>& =;$@                           ",
"    =-@>>>#>=:>%>&O+$=>  O.                       ",
"    @@ $#$$#@$+.$$$$$$@  $X                       ",
"                                                  ",
"                                                  ",
"                                                  ",
"                                                  ",
"                                                  ",
"                                                  ",
"                                                  ",
"                                                  ",
"                                                  ",
"                                                  ",
"    .OOOoOOXOOooOOXOOO. XX                        ",
"    =:=&>=>>>&>=;:>>-$X OO                        ",
"    #=;;>$$=>O>=;:;>-                             ",
"    =>>=;>>=>>;=$=;>>>O $$                        ",
"                                                  ",
"                                                  ",
"                                                  ",
"                                                  ",
"                                                  ",
"                                                  ",
"                                                  ",
"                                                  ",
"                                                  ",
"                                                  ",
"                                                  "
};
