/* XPM */
static char *result[] = {
/* columns rows colors chars-per-pixel */
"64 64 162 2 ",
"   c #181425",
".  c #171E33",
"X  c #172634",
"o  c #152742",
"O  c #123A5F",
"+  c #133B5F",
"@  c #0B6FAE",
"#  c #3D58D3",
"$  c #3B59D7",
"%  c #3655D8",
"&  c #1F62E6",
"*  c #0D6FF1",
"=  c #3664E2",
"-  c #3A71E3",
";  c #2B6DF3",
":  c #317CF3",
">  c #347CF1",
",  c #0099DB",
"<  c #0E97F6",
"1  c #3A81EE",
"2  c #2780F4",
"3  c #2782F4",
"4  c #2683F6",
"5  c #2883F5",
"6  c #2387FB",
"7  c #3280F4",
"8  c #3384F5",
"9  c #3385F7",
"0  c #3584F4",
"q  c #3786F4",
"w  c #378AF5",
"e  c #3D89F6",
"r  c #358BF8",
"t  c #2790F7",
"y  c #3E95F6",
"u  c #36A4FA",
"i  c #39ABF9",
"p  c #3EADFA",
"a  c #25B2FB",
"s  c #3DB5FD",
"d  c #38B8FF",
"f  c #539AE2",
"g  c #449AF4",
"h  c #7F9AEE",
"j  c #48A6F7",
"k  c #4AA9F1",
"l  c #43A0F8",
"z  c #45A6FA",
"x  c #47AAFB",
"c  c #44AEFA",
"v  c #48A9F9",
"b  c #49AAF9",
"n  c #4FA8FA",
"m  c #4EAFFA",
"M  c #58ACF7",
"N  c #53A6F9",
"B  c #42B4F9",
"V  c #4AB0FB",
"C  c #4DB4FC",
"Z  c #4BBCFB",
"A  c #54B5FB",
"S  c #51B9FB",
"D  c #50BCFA",
"F  c #53BDFB",
"G  c #2CE8F5",
"H  c #49CDFF",
"J  c #5AC2FA",
"K  c #5BC9FD",
"L  c #5DCDFE",
"P  c #5DCFFE",
"I  c #5ED5FE",
"U  c #56D9FD",
"Y  c #57DCFD",
"T  c #78C7FE",
"R  c #4EE9FF",
"E  c #55E4FF",
"W  c #57E6FF",
"Q  c #5BE1FE",
"!  c #4BF5FF",
"~  c #57FFFF",
"^  c #5FFFFF",
"/  c #61E1FE",
"(  c #6CE3FE",
")  c #69E4FF",
"_  c #69E6FF",
"`  c #6AECFF",
"'  c #65FFFF",
"]  c #68F9FF",
"[  c #6DF9FF",
"{  c #77F9FF",
"}  c #7EFFFF",
"|  c #97C6FC",
" . c #89DCFF",
".. c #95D0FB",
"X. c #95D1FC",
"o. c #97DBFD",
"O. c #A5DEF6",
"+. c #B5D7FB",
"@. c #B1D4FC",
"#. c #81FFFF",
"$. c #84FFFF",
"%. c #8AFFFF",
"&. c #99F2FF",
"*. c #97FFFF",
"=. c #AAE9FF",
"-. c #B6E0FC",
";. c #B8E0FC",
":. c #A0F0FF",
">. c #A6F8FF",
",. c #A7F8FF",
"<. c #A7FAFF",
"1. c #A3FFFF",
"2. c #A5FFFF",
"3. c #A8FEFF",
"4. c #A9FFFF",
"5. c #ADFFFF",
"6. c #B3FAFF",
"7. c #B2FFFF",
"8. c #B6FFFF",
"9. c #B9FDFE",
"0. c #B8FFFF",
"q. c #BBFFFF",
"w. c #BCFFFF",
"e. c #CFE2FC",
"r. c #CBEFFF",
"t. c #C0F7FF",
"y. c #C1FFFF",
"u. c #C3FFFF",
"i. c #C4FFFF",
"p. c #C7FFFF",
"a. c #C8FFFF",
"s. c #CEFFFF",
"d. c #D0F7FF",
"f. c #DBF5FF",
"g. c #D1FFFF",
"h. c #D3FFFF",
"j. c #D4FFFF",
"k. c #D9FFFF",
"l. c #DCFFFF",
"z. c #DDFFFF",
"x. c #DEFFFF",
"c. c #E9F0FE",
"v. c #E3FBFF",
"b. c #E1FFFF",
"n. c #E2FFFF",
"m. c #E4FFFF",
"M. c #E9FAFF",
"N. c #E9FFFF",
"B. c #EDFCFF",
"V. c #EDFEFF",
"C. c #ECFFFF",
"Z. c #EEFFFF",
"A. c #F2FFFF",
"S. c #F4FFFF",
"D. c #F6FFFF",
"F. c #FFFBFF",
"G. c #F8FFFF",
"H. c #FAFFFF",
"J. c #FCFFFF",
"K. c #FDFFFF",
"L. c #FFFEFF",
"P. c white",
/* pixels */
"                                                                      X X                                                       ",
"                                                                                          +                                     ",
"                                      +                     ,                                                                   ",
"        O                                                 @ G @                                                     ,           ",
"                                                            ,               @                         @                         ",
"                                                                                                                                ",
"                                              o                                                                         ,       ",
"                                                                                                                                ",
"            .                                       .                                                       +                   ",
"                            +                                                                                                   ",
"                                                                                                                                ",
"                                                                                    ,                                           ",
"                        +         @                             O                                       . . .                   ",
"                                                  @                                                   . o o o .                 ",
"                                                            .                                         . o O O o .               ",
"                                                                                                      . o O @ O o .             ",
"                                                                                                        . o O O o .             ",
"                                                                                                          . o o o .             ",
"                                                      m.5.^ ~ k.H.C.  +                   @                 . . .               ",
"                  o                                 S.%.      @   } A.P.                                                        ",
"                                          @       P.J.#.      , & R k.P.                                                        ",
"              O                                     0.G.i.' , = 6 e.                                                        @   ",
"                                                            $ q 4                                     +                         ",
"                                                            > r w       ,                                                       ",
"                                              . . .         j z :                                                               ",
"                                            . o o o .     # g x y                                                               ",
"                                            . o O O o .   1 0 l F                         +                               +     ",
"                                +           . o O @ O o . 9 v S b             .                                                 ",
"                                              . o O O o . ; B U n +                                                             ",
"                                                . o o o . < M $.a                   o                   ,           +           ",
"    .                                             . . . A.3.9.w.1.V.                                                            ",
"                                                  P.l.P.O.h :.,.| -.s.N.P.                                                      ",
"                    o                           n.7.*.    * H W u     2.z.C.z.                                                  ",
"                                                x.g.0.    5 P _ m     q.Z.x.                                                    ",
"                                            ,       h.P.;.3 L ) c +.A.P.                                            @           ",
"                                                          2 I ` p                                                               ",
"        +                                                 8 / [ V                         . . .             +                   ",
"                                                          e Q ] A                       . o o o .       @                       ",
"                                    @                     7 ( { C                       . o O O o .     @                       ",
"                                                          t o.>.d % .                   . o O @ O o . , G ,                     ",
"                                                        f i @.u.s -                       . o O O o .   ,                       ",
"          .                                           K k Y c.P.J Z                         . o o o .   @                       ",
"                                                      ! T y.8.P.6...N                         . . .                             ",
"                                              +       <.4.P.P.P.K.X.D         ,                                   ,             ",
"                    ,                                  .f.P.P.P.P.r.=.                                                    +     ",
"                  @ G @                             7.M.B.P.P.P.P.v.d.                                                          ",
"                    ,                           N.b.      &.Z.L.j.E     h.l.P.                  +                               ",
"                                        .     P.S.G.        t.F.        a.C.                                                    ",
"                                          .       P.S.p.D..       D.p.S.P.                                                      ",
"                                            .           .                                                                       ",
"                                              o . . . o                     .                                                   ",
"                                              . o o o .                                 O                                       ",
"                                              . o @ o .                                                                         ",
"                            . . .             . o o o .                                                   +                     ",
"                +         . o o o .           . . . . o           O                                                             ",
"                        . O o O o .         .           .                                                                       ",
"                      . o o o o o .                       .                                       +                             ",
"                      . o O o O .                                                                             O                 ",
"                      . O o o .                                                                                                 ",
"                        . . .                                                                                                   ",
"                                                                                                                                ",
"                                                                                                                                ",
"                                                                                      .                                         ",
"                                                                                                                                "
};
