/* XPM */
static char *result[] = {
/* columns rows colors chars-per-pixel */
"40 40 82 1 ",
"  c #3D6FE0",
". c #3C76E6",
"X c #4061D6",
"o c #477FE2",
"O c #487FE0",
"+ c #3A82EF",
"@ c #3E8AEF",
"# c #3984F1",
"$ c #3987F3",
"% c #388AF5",
"& c #3E95F6",
"* c #4189EB",
"= c #458EEC",
"- c #599DE9",
"; c #4496F2",
": c #4098F7",
"> c #429DF8",
", c #6589E4",
"< c #4CA0F8",
"1 c #4BB1F9",
"2 c #4DB1FA",
"3 c #4BB5F9",
"4 c #4CB6F9",
"5 c #4FBBFA",
"6 c #52BAFB",
"7 c #6AAEF4",
"8 c #7AB1F8",
"9 c #73BDF9",
"0 c #56C2FC",
"q c #59CEFD",
"w c #5DD7FD",
"e c #76C5FA",
"r c #61D7FF",
"t c #63DFFF",
"y c #7CD3FB",
"u c #5FE7FD",
"i c #65EBFF",
"p c #62EEFE",
"a c #73E1FE",
"s c #7FEEFE",
"d c #66F2FF",
"f c #67F5FF",
"g c #69FFFF",
"h c #79F0FF",
"j c #85BBF9",
"k c #A0B0EB",
"l c #9CC5FA",
"z c #8FD3FB",
"x c #B3C0EF",
"c c #A1CEFB",
"v c #BDD8FC",
"b c #92E3FF",
"n c #9CE6FF",
"m c #8CF0FF",
"M c #8DF5FF",
"N c #85FDFF",
"B c #8FFFFF",
"V c #B0EBFF",
"C c #A0FAFF",
"Z c #B1F0FF",
"A c #B3FAFF",
"S c #B4FFFF",
"D c #BDFDFF",
"F c #C0EBFE",
"G c #C0EDFE",
"H c #C4F0FF",
"J c #C3FFFF",
"K c #C7FFFF",
"L c #CDFFFF",
"P c #D8F5FF",
"I c #D4FFFF",
"U c #DAFFFF",
"Y c #E1F8FF",
"T c #E1FFFF",
"R c #E3FFFF",
"E c #EAFFFF",
"W c #ECFFFF",
"Q c #F3FFFF",
"! c #F5FFFF",
"~ c #F6FFFF",
"^ c white",
"/ c None",
/* pixels */
"////////////////////////////////////////",
"////////////////////////////////////////",
"////////////////////////////////////////",
"////////////////////////////////////////",
"////////////////////////////////////////",
"////////////////////////////////////////",
"////////////////////////////////////////",
"////////////////////////////////////////",
"////////////////////////////////////////",
"////////////////////////////////////////",
"////////////////////////////////////////",
"////////////////////////////////////////",
"////////////////////////////////////////",
"////////////////////////////////////////",
"//////////////////////^/////////////////",
"/////////////////////^J/////////////////",
"//////////IS/////////^L^////////2r///^//",
"/////////UQL/////////K/L/////0wGFmb//T//",
"/g///////^/S////////gL/k,%%%%&qZU^^V/U//",
"/@#$%%:=OW7=>>>>>>>>uc>><yB9>j^^^^RHhS//",
"//////o=>S4>>>>>6tfPNAtnY^^^PD^^^^RKSS//",
"/////////S/gXX.%%%%%pv+.*ela5zB^^^^d/S//",
"/////////E/U////////gT/x// ;1sS^^~U//K//",
"/////////^^L////////gS/^/////MvK^Ci//U//",
"//////////!J/////////K/L///////-83///T//",
"/////////////////////^L^/////////////S//",
"//////////////////////^/////////////////",
"////////////////////////////////////////",
"////////////////////////////////////////",
"////////////////////////////////////////",
"////////////////////////////////////////",
"////////////////////////////////////////",
"////////////////////////////////////////",
"////////////////////////////////////////",
"////////////////////////////////////////",
"////////////////////////////////////////",
"////////////////////////////////////////",
"////////////////////////////////////////",
"////////////////////////////////////////",
"////////////////////////////////////////"
};
