/* XPM */
static char *result[] = {
/* columns rows colors chars-per-pixel */
"64 64 76 1 ",
"  c #181425",
". c #171E33",
"X c #172634",
"o c #152742",
"O c #123A5F",
"+ c #133B5F",
"@ c #0B6FAE",
"# c #3E6EE0",
"$ c #0099DB",
"% c #3987F3",
"& c #388AF5",
"* c #3D94F6",
"= c #3F9BF6",
"- c #429DF8",
"; c #44A5F8",
": c #48B1F8",
"> c #4DB1FA",
", c #4CB6F9",
"< c #4CB9F9",
"1 c #52BAFB",
"2 c #68B6F9",
"3 c #78BCF9",
"4 c #2CE8F5",
"5 c #56CBFC",
"6 c #59C8FD",
"7 c #5CDEFC",
"8 c #68CEFB",
"9 c #61D7FF",
"0 c #6FD2FC",
"q c #62DAFF",
"w c #62DCFF",
"e c #74D1FD",
"r c #7CD3FB",
"t c #5DE2FD",
"y c #63E1FF",
"u c #6CE1FF",
"i c #65EBFF",
"p c #66EEFF",
"a c #68F8FF",
"s c #69FDFF",
"d c #69FFFF",
"f c #7AF8FF",
"g c #8DCAF1",
"h c #96C4F4",
"j c #A1CEFB",
"k c #A7DDFD",
"l c #BDD8FC",
"z c #89E1FF",
"x c #8DEEFE",
"c c #83F5FF",
"v c #8CF0FF",
"b c #8DF5FF",
"n c #8DF8FF",
"m c #8FFFFF",
"M c #98F2FF",
"N c #9FF5FF",
"B c #9BFFFF",
"V c #A1FFFF",
"C c #A5FFFF",
"Z c #AAFDFF",
"A c #B1F0FF",
"S c #B2F5FF",
"D c #BBF5FF",
"F c #B4FFFF",
"G c #CAF2FF",
"H c #C7FFFF",
"J c #CDFFFF",
"K c #D8F5FF",
"L c #D1FFFF",
"P c #DAFFFF",
"I c #E1FFFF",
"U c #E3FFFF",
"Y c #ECFFFF",
"T c #F5FDFF",
"R c #F6FFFF",
"E c white",
/* pixels */
"                                   XX                           ",
"                                             +                  ",
"                   +          $                                 ",
"    O                        @4@                          $     ",
"                              $       @            @            ",
"                                                                ",
"                       o                                    $   ",
"                                                                ",
"      .                   .                           +         ",
"              +                                                 ",
"                                                                ",
"                                          $                     ",
"            +    @              O                   ...         ",
"                         @                         .ooo.        ",
"                              .                    .oOOo.       ",
"                                                   .oO@Oo.      ",
"                                                    .oOOo.      ",
"                                                     .ooo.      ",
"                           $       +         @        ...       ",
"         o                     @                                ",
"                     @         $                                ",
"       O                     @$4$@                            @ ",
"                               $                   +            ",
"                               @    $                           ",
"                       ...            R                         ",
"                      .ooo.          EPL                        ",
"                      .oOEJ.         E E     +               +  ",
"                +     .oOUPo.       CY BE                       ",
"                       .HCOI.    +  BF  E >wiK9                 ",
"                P       Uoom.       BI  e0kfHTc     $     +     ",
"  .            CB      &P<&:&&&&&&&&xG9958SFFEHM                ",
"               dd   #*--P,19999999pNZYDsVUERFEEE                ",
"          o    h=%%&&*--V2-----99999bF-;yuzVYEEv                ",
"               Pg&&&&&&&mr:3&&&&&&&&xF&tBmljSYA9                ",
"                      $  UPF         Y BE 67anq           @     ",
"                         EJ          E E                        ",
"    +                     P          EmI     ...      +         ",
"                                      YI    .ooo.   @           ",
"                  @                         .oOOo.  @           ",
"                                  .         .oO@Oo.$4$          ",
"                                             .oOOo. $           ",
"     .                                        .ooo. @           ",
"                                               ...              ",
"                       +               $                 $      ",
"          $                                                  +  ",
"         @4@                                                    ",
"          $                      O              +               ",
"                    .                                           ",
"                     .       .                                  ",
"                      .     .                                   ",
"                       o...o          .                         ",
"                       .ooo.                O                   ",
"                       .o@o.                                    ",
"              ...      .ooo.                         +          ",
"        +    .ooo.     ....o     O                              ",
"            .OoOo.    .     .                                   ",
"           .ooooo.           .                   +              ",
"           .oOoO.                                      O        ",
"           .Ooo.                                                ",
"            ...                                                 ",
"                                                                ",
"                                                                ",
"                                           .                    ",
"                                                                "
};
