/* XPM */
static char *result[] = {
/* columns rows colors chars-per-pixel */
"40 40 142 2 ",
"   c #1874F2",
".  c #3A76EA",
"X  c #3C7AE9",
"o  c #2A70F3",
"O  c #2B79F3",
"+  c #3478F3",
"@  c #347FF3",
"#  c #2E86F9",
"$  c #3581F3",
"%  c #3686F4",
"&  c #378BF6",
"*  c #388AF5",
"=  c #388BF5",
"-  c #388AF6",
";  c #398CF5",
":  c #388CF6",
">  c #2191F5",
",  c #2898F7",
"<  c #3097F6",
"1  c #3F96F7",
"2  c #3C9AF6",
"3  c #3B9EF8",
"4  c #31ABF8",
"5  c #34ACF8",
"6  c #39AAFA",
"7  c #3FA9FB",
"8  c #24BBFA",
"9  c #35B0F7",
"0  c #4082EB",
"q  c #4097F7",
"w  c #409AF7",
"e  c #7199F6",
"r  c #48A0F6",
"t  c #43A6FA",
"y  c #46A4F8",
"u  c #4AA4F9",
"i  c #4BAEFA",
"p  c #4FB3FA",
"a  c #4CB5FB",
"s  c #4BB3FD",
"d  c #55BBFC",
"f  c #65BBFB",
"g  c #6DBAF9",
"h  c #2BC6FA",
"j  c #42C4FA",
"k  c #41C6FA",
"l  c #41C0FD",
"z  c #57C4FC",
"x  c #59C7FD",
"c  c #59C8FD",
"v  c #5ACEFD",
"b  c #43D3FB",
"n  c #4ED3FF",
"m  c #4ED6FC",
"M  c #5ED0FE",
"N  c #5ED1FE",
"B  c #5DDFFF",
"V  c #77CEFB",
"C  c #61D7FF",
"Z  c #62DDFD",
"A  c #6DDBFE",
"S  c #56E0FF",
"D  c #57EDFF",
"F  c #53F1FF",
"G  c #55FFFF",
"H  c #59FFFF",
"J  c #67E0FF",
"K  c #66E1FF",
"L  c #69E6FF",
"P  c #74E2FC",
"I  c #79E5FD",
"U  c #78E8FF",
"Y  c #74F2FF",
"T  c #77FEFF",
"R  c #7BFFFF",
"E  c #7DFFFF",
"W  c #80CFF1",
"Q  c #8EC2FA",
"!  c #99C6FC",
"~  c #87D3FB",
"^  c #80DDFD",
"/  c #87DDFD",
"(  c #90DAFC",
")  c #ADDCF9",
"_  c #8EEDFF",
"`  c #91E9FD",
"'  c #81F2FF",
"]  c #81F6FF",
"[  c #86FFFF",
"{  c #89FBFF",
"}  c #97FFFF",
"|  c #99FFFF",
" . c #9EFFFF",
".. c #BFE0FD",
"X. c #ACF2FF",
"o. c #AEF4FF",
"O. c #A3FFFF",
"+. c #A4FFFF",
"@. c #AEFFFF",
"#. c #B1FFFF",
"$. c #B2FFFF",
"%. c #B6FFFF",
"&. c #B8FEFF",
"*. c #B9FFFF",
"=. c #BBFFFF",
"-. c #BCFFFF",
";. c #C9DEFE",
":. c #C6F5FF",
">. c #C0FFFF",
",. c #C1FFFF",
"<. c #C2FFFF",
"1. c #C4FFFF",
"2. c #C5FFFF",
"3. c #C9FAFF",
"4. c #C8FFFF",
"5. c #CBFFFF",
"6. c #CDFFFF",
"7. c #CEFFFF",
"8. c #D1FFFF",
"9. c #DAFFFF",
"0. c #DFFFFF",
"q. c #E2FFFF",
"w. c #E3FFFF",
"e. c #E4FFFF",
"r. c #E5FFFF",
"t. c #E7FFFF",
"y. c #E8FFFF",
"u. c #EBFFFF",
"i. c #EEFFFF",
"p. c #EFFFFF",
"a. c #F2FFFF",
"s. c #F4FFFF",
"d. c #F5FFFF",
"f. c #F6FFFF",
"g. c #FFFBFF",
"h. c #F9FCFF",
"j. c #F9FFFF",
"k. c #FAFFFF",
"l. c #FBFFFF",
"z. c #FCFFFF",
"x. c white",
"c. c None",
/* pixels */
"c.c.c.c.c.c.c.c.c.c.c.c.c.c.c.c.c.c.c.c.c.c.c.c.c.c.c.c.c.c.c.c.c.c.c.c.c.c.c.c.",
"c.c.c.c.c.c.c.c.c.c.c.c.c.c.c.c.c.c.c.c.c.c.c.c.c.c.c.c.c.c.c.c.c.c.c.c.c.c.c.c.",
"c.c.c.c.c.c.c.c.c.c.c.c.c.c.c.c.c.c.c.c.c.c.c.c.c.c.c.c.c.c.c.c.c.c.c.c.c.c.c.c.",
"c.c.c.c.c.c.c.c.c.c.c.c.c.c.c.c.c.c.c.c.c.c.c.c.c.c.c.c.c.c.c.c.c.c.c.c.c.c.c.c.",
"c.c.c.c.c.c.c.c.c.c.c.c.c.c.c.c.c.c.c.o.g.Y c.c.c.c.c.c.c.c.c.c.c.c.c.c.c.c.c.c.",
"c.c.c.c.c.c.c.c.c.c.c.c.c.c.c.c.c.n X.j.x.>.D c.c.c.c.c.c.c.c.c.c.c.c.c.c.c.c.c.",
"c.c.c.c.c.c.c.c.c.c.c.c.c.c.c.c.c.' k.x.z.x.h.c.c.c.c.c.c.c.c.c.c.c.c.c.c.c.c.c.",
"c.c.c.c.c.c.c.c.c.c.c.c.c.c.c.c.c.E l.d.| 7.l.U c.c.c.c.c.c.c.c.c.c.c.c.c.c.c.c.",
"c.c.c.c.c.c.c.c.c.c.c.c.c.c.c.c.c.m ..1.j.*.T B c.c.c.c.c.c.c.c.c.c.c.c.c.c.c.c.",
"c.c.c.c.c.c.c.c.c.c.c.c.c.c.c.c.c.y Q &.x.1.( i c.c.c.c.c.c.c.c.c.c.c.c.c.c.c.c.",
"c.c.c.c.c.c.c.c.c.c.c.c.c.c.c.c.c.c.I _ a./ g c.c.c.c.c.c.c.c.c.c.c.c.c.c.c.c.c.",
"c.c.c.c.c.c.c.c.c.c.c.c.c.c.c.c.c.c.] F +.4 f c.c.c.c.c.c.c.c.c.c.c.c.c.c.c.c.c.",
"c.c.c.c.c.c.c.c.c.c.c.c.c.c.c.z.r.3.~ b G l c.k.*.x.c.c.c.c.c.c.c.c.c.c.c.c.c.c.",
"c.c.c.c.c.c.c.c.c.c.c.c.c.x.+. .c.c.  3 { c.c.c.c.c.R w.c.c.c.c.c.c.c.c.c.c.c.c.",
"c.c.c.c.c.c.c.c.c.c.c.c.c.c.s.e.x.8.P ` :.c.c.[ s.i.s.c.c.c.c.c.c.c.c.c.c.c.c.c.",
"c.c.c.c.c.c.c.c.c.c.c.c.c.c.c.c.x.e.=.>.-.5.<.#.6.c.c.c.c.c.c.c.c.c.c.c.c.c.c.c.",
"c.c.c.c.c.c.c.c.c.c.c.c.c.c.c.c.c.c.8 S ^ k c.c.c.c.c.c.c.c.c.c.c.c.c.c.c.c.c.c.",
"c.c.c.c.c.c.c.c.c.c.c.c.c.c.c.c.c.c.- J Z c.c.c.c.c.c.c.c.c.c.c.c.c.c.c.c.c.c.c.",
"c.c.c.c.c.c.c.c.c.c.c.c.c.c.c.c.c.c.q K v c.c.c.c.c.c.c.c.c.c.c.c.c.c.c.c.c.c.c.",
"c.c.c.c.c.c.c.c.c.c.c.c.c.c.c.c.c.c.1 K c c.c.c.c.c.c.c.c.c.c.c.c.c.c.c.c.c.c.c.",
"c.c.c.c.c.c.c.c.c.c.c.c.c.c.c.c.c.c.w L c c.c.c.c.c.c.c.c.c.c.c.c.c.c.c.c.c.c.c.",
"c.c.c.c.c.c.c.c.c.c.c.c.c.c.c.c.c.c.% z N c.c.c.c.c.c.c.c.c.c.c.c.c.c.c.c.c.c.c.",
"c.c.c.c.c.c.c.c.c.c.c.c.c.c.c.c.c.c.O p C c.c.c.c.c.c.c.c.c.c.c.c.c.c.c.c.c.c.c.",
"c.c.c.c.c.c.c.c.c.c.c.c.c.c.c.c.c.c.+ a M c.c.c.c.c.c.c.c.c.c.c.c.c.c.c.c.c.c.c.",
"c.c.c.c.c.c.c.c.c.c.c.c.c.c.c.c.c.*.e 6 x j c.x.c.c.c.c.c.c.c.c.c.c.c.c.c.c.c.c.",
"c.c.c.c.c.c.c.c.c.c.c.c.c.c.c.y.s.4.< t d 5 c.2.q.u.c.c.c.c.c.c.c.c.c.c.c.c.c.c.",
"c.c.c.c.c.c.c.c.c.c.c.c.c.c.c.9.f.c.2 u , c.c.c.0.0.c.c.c.c.c.c.c.c.c.c.c.c.c.c.",
"c.c.c.c.c.c.c.c.c.c.c.c.c.c.c.c.x.t.,.%.O.} $.r.p.c.c.c.c.c.c.c.c.c.c.c.c.c.c.c.",
"c.c.c.c.c.c.c.c.c.c.c.c.c.c.c.c.c.c.h V ! ;.c.c.c.c.c.c.c.c.c.c.c.c.c.c.c.c.c.c.",
"c.c.c.c.c.c.c.c.c.c.c.c.c.c.c.c.c.c.o 7 > c.c.c.c.c.c.c.c.c.c.c.c.c.c.c.c.c.c.c.",
"c.c.c.c.c.c.c.c.c.c.c.c.c.c.c.c.c.c.@ s r c.c.c.c.c.c.c.c.c.c.c.c.c.c.c.c.c.c.c.",
"c.c.c.c.c.c.c.c.c.c.c.c.c.c.c.c.c.c.* : X c.c.c.c.c.c.c.c.c.c.c.c.c.c.c.c.c.c.c.",
"c.c.c.c.c.c.c.c.c.c.c.c.c.c.c.c.c.c.= & c.c.c.c.c.c.c.c.c.c.c.c.c.c.c.c.c.c.c.c.",
"c.c.c.c.c.c.c.c.c.c.c.c.c.c.c.c.c.c.; $ c.c.c.c.c.c.c.c.c.c.c.c.c.c.c.c.c.c.c.c.",
"c.c.c.c.c.c.c.c.c.c.c.c.c.c.c.c.c.c.# 0 c.c.c.c.c.c.c.c.c.c.c.c.c.c.c.c.c.c.c.c.",
"c.c.c.c.c.c.c.c.c.c.c.c.c.c.c.c.c.c.. 9 c.@.c.c.c.c.c.c.c.c.c.c.c.c.c.c.c.c.c.c.",
"c.c.c.c.c.c.c.c.c.c.c.c.c.c.c.c.c.c.) A H [ j.c.c.c.c.c.c.c.c.c.c.c.c.c.c.c.c.c.",
"c.c.c.c.c.c.c.c.c.c.c.c.c.c.c.c.c.c.c.W c.c.c.c.c.c.c.c.c.c.c.c.c.c.c.c.c.c.c.c.",
"c.c.c.c.c.c.c.c.c.c.c.c.c.c.c.c.c.c.c.c.c.c.c.c.c.c.c.c.c.c.c.c.c.c.c.c.c.c.c.c.",
"c.c.c.c.c.c.c.c.c.c.c.c.c.c.c.c.c.c.c.c.c.c.c.c.c.c.c.c.c.c.c.c.c.c.c.c.c.c.c.c."
};
