/* XPM */
static char *result[] = {
/* columns rows colors chars-per-pixel */
"40 40 79 1 ",
"  c #3C76E6",
". c #3B7CEB",
"X c #4061D6",
"o c #3A80ED",
"O c #3985F1",
"+ c #388AF5",
"@ c #3B8FF6",
"# c #3B90F6",
"$ c #5293E8",
"% c #498DF1",
"& c #4399F1",
"* c #4099F7",
"= c #429DF8",
"- c #46A4F8",
"; c #47A7F9",
": c #4DB1FA",
"> c #4AB6F9",
", c #4FB5FB",
"< c #60A1F7",
"1 c #65BFFB",
"2 c #59C9FD",
"3 c #5BD8FD",
"4 c #63C5FA",
"5 c #70C7FB",
"6 c #61D7FF",
"7 c #69D3FB",
"8 c #63DFFF",
"9 c #6BDAFF",
"0 c #6DDAFF",
"q c #64E7FF",
"w c #65EBFF",
"e c #66F2FF",
"r c #67F5FF",
"t c #69FFFF",
"y c #79F0FF",
"u c #7CFFFF",
"i c #8096E4",
"p c #88B9F9",
"a c #9CC5FA",
"s c #81DDFD",
"d c #85E7FD",
"f c #89E1FF",
"g c #85F7FF",
"h c #8DF5FF",
"j c #8DF8FF",
"k c #8FFFFF",
"l c #98F2FF",
"z c #9FF5FF",
"x c #96F8FF",
"c c #97FFFF",
"v c #98FFFF",
"b c #A8E2FD",
"n c #B0EBFF",
"m c #AAF6FE",
"M c #A1FFFF",
"N c #ABFFFF",
"B c #B4FFFF",
"V c #BBFFFF",
"C c #BDFFFF",
"Z c #CDE2FD",
"A c #D7E8FD",
"S c #C1F0FE",
"D c #C4F0FF",
"F c #C5F5FF",
"G c #C3FFFF",
"H c #C7FFFF",
"J c #CDFFFF",
"K c #D1FFFF",
"L c #D4FFFF",
"P c #DAFFFF",
"I c #E1F8FF",
"U c #E1FFFF",
"Y c #E3FFFF",
"T c #EAFFFF",
"R c #ECFFFF",
"E c #F2FFFF",
"W c #F3FFFF",
"Q c white",
"! c None",
/* pixels */
"!!!!!!!!!!!!!!!!!!!!!!!!!!!!!!!!!!!!!!!!",
"!!!!!!!!!!!!!!!!!!!!!!!!!!!!!!!!!!!!!!!!",
"!!!!!!!!!!!!!!!!!!!!!!!!!!!!!!!!!!!!!!!!",
"!!!!!!!!!!!!!!!!!!!!!!!!!!!!!!!!!!!!!!!!",
"!!!!!!!!!!!!!!!!!!!!!!!!!!!!!!!!!!!!!!!!",
"!!!!!!!!!!!!!!!!!!!!!!!!!!!!!!!!!!!!!!!!",
"!!!!!!!!!!!!!!!!!!!!!!!!!!!!!!!!!!!!!!!!",
"!!!!!!!!!!!!!!!!!!!!!!!!!!!!!!!!!!!!!!!!",
"!!!!!!!!!!!!!!!!!!!!!!!!!!!!!!!!!!!!!!!!",
"!!!!!!!!!!!!!!!!!!!!!!!!!!!!!!!!!!!!!!!!",
"!!!!!!!!!!!!!!!!!!!!!!!!!!!!!!!!!!!!!!!!",
"!!!!!!!!!!!!!!!!!!!!!!!!!!!!!!!!!!!!!!!!",
"!!!!!!!!!!!!!!!!!!!!!!!!!!!!!!QW!!!!!!!!",
"!!!!!!!!!!!!!!!!!!!!!!!!!!!!!!QMP!!!!!!!",
"!!!!!!!!!!!!!!!!!!!!!!!!!!!!!QQ!J!!!!!!!",
"!!!!!!!!!!!!!!!!!QQ!!!!!!!!!!EP!B!!!!!!!",
"!!!!!!!!!!!!!!!!QRPB!!!!!!!!!Jeqkr!!!!!!",
"!!!!!!U!!!!!!!!!QVkU!!!!!!!!rGs5rj0!!!!!",
"!!!!!U7io o Xo+pZ<+4<+++++*:3HPRBHD6!!!!",
"!!!!!U&+++@====dn6666666669fyBMQQPCn!!!!",
"!!!!!Q!>,+@==26Fn66666668zIQBBtNQPtn!!!!",
"!!!!!T!B! +. O+Za+++;:::::1nrHBQQPMl!!!!",
"!!!!!K!Q!!!!!!!mA!!$%+++++#-3SbYRvx!!!!!",
"!!!!!!BB!!!!!!!BQ!!k!!!!!!!!eHBuhw8!!!!!",
"!!!!!!Q!!!!!!!!!QG!U!!!!!!!!tBt!g!!!!!!!",
"!!!!!!!!!!!!!!!!JLJB!!!!!!!!!LB!J!!!!!!!",
"!!!!!!!!!!!!!!!!!QQ!!!!!!!!!!QU!R!!!!!!!",
"!!!!!!!!!!!!!!!!!!!!!!!!!!!!!!RcU!!!!!!!",
"!!!!!!!!!!!!!!!!!!!!!!!!!!!!!!QT!!!!!!!!",
"!!!!!!!!!!!!!!!!!!!!!!!!!!!!!!!!!!!!!!!!",
"!!!!!!!!!!!!!!!!!!!!!!!!!!!!!!!!!!!!!!!!",
"!!!!!!!!!!!!!!!!!!!!!!!!!!!!!!!!!!!!!!!!",
"!!!!!!!!!!!!!!!!!!!!!!!!!!!!!!!!!!!!!!!!",
"!!!!!!!!!!!!!!!!!!!!!!!!!!!!!!!!!!!!!!!!",
"!!!!!!!!!!!!!!!!!!!!!!!!!!!!!!!!!!!!!!!!",
"!!!!!!!!!!!!!!!!!!!!!!!!!!!!!!!!!!!!!!!!",
"!!!!!!!!!!!!!!!!!!!!!!!!!!!!!!!!!!!!!!!!",
"!!!!!!!!!!!!!!!!!!!!!!!!!!!!!!!!!!!!!!!!",
"!!!!!!!!!!!!!!!!!!!!!!!!!!!!!!!!!!!!!!!!",
"!!!!!!!!!!!!!!!!!!!!!!!!!!!!!!!!!!!!!!!!"
};
