/* XPM */
static char *result[] = {
/* columns rows colors chars-per-pixel */
"40 40 68 1 ",
"  c #3E6EE0",
". c #3987F3",
"X c #388AF5",
"o c #3D94F6",
"O c #3F9BF6",
"+ c #429DF8",
"@ c #44A5F8",
"# c #48B1F8",
"$ c #4DB1FA",
"% c #4CB6F9",
"& c #4CB9F9",
"* c #52BAFB",
"= c #68B6F9",
"- c #78BCF9",
"; c #56CBFC",
": c #59C8FD",
"> c #5CDEFC",
", c #68CEFB",
"< c #61D7FF",
"1 c #6FD2FC",
"2 c #62DAFF",
"3 c #62DCFF",
"4 c #74D1FD",
"5 c #7CD3FB",
"6 c #5DE2FD",
"7 c #63E1FF",
"8 c #6CE1FF",
"9 c #65EBFF",
"0 c #66EEFF",
"q c #68F8FF",
"w c #69FDFF",
"e c #69FFFF",
"r c #7AF8FF",
"t c #8DCAF1",
"y c #96C4F4",
"u c #A1CEFB",
"i c #A7DDFD",
"p c #BDD8FC",
"a c #89E1FF",
"s c #8DEEFE",
"d c #83F5FF",
"f c #8CF0FF",
"g c #8DF5FF",
"h c #8DF8FF",
"j c #8FFFFF",
"k c #98F2FF",
"l c #9FF5FF",
"z c #9BFFFF",
"x c #A1FFFF",
"c c #A5FFFF",
"v c #AAFDFF",
"b c #B1F0FF",
"n c #B2F5FF",
"m c #BBF5FF",
"M c #B4FFFF",
"N c #CAF2FF",
"B c #C7FFFF",
"V c #CDFFFF",
"C c #D8F5FF",
"Z c #D1FFFF",
"A c #DAFFFF",
"S c #E1FFFF",
"D c #E3FFFF",
"F c #ECFFFF",
"G c #F5FDFF",
"H c #F6FFFF",
"J c white",
"K c None",
/* pixels */
"KKKKKKKKKKKKKKKKKKKKKKKKKKKKKKKKKKKKKKKK",
"KKKKKKKKKKKKKKKKKKKKKKKKKKKKKKKKKKKKKKKK",
"KKKKKKKKKKKKKKKKKKKKKKKKKKKKKKKKKKKKKKKK",
"KKKKKKKKKKKKKKKKKKKKKKKKKKKKKKKKKKKKKKKK",
"KKKKKKKKKKKKKKKKKKKKKKKKKKKKKKKKKKKKKKKK",
"KKKKKKKKKKKKKKKKKKKKKKKKKKKKKKKKKKKKKKKK",
"KKKKKKKKKKKKKKKKKKKKKKKKKKKKKKKKKKKKKKKK",
"KKKKKKKKKKKKKKKKKKKKKKKKKKKKKKKKKKKKKKKK",
"KKKKKKKKKKKKKKKKKKKKKKKKKKKKKKKKKKKKKKKK",
"KKKKKKKKKKKKKKKKKKKKKKKKKKKKKKKKKKKKKKKK",
"KKKKKKKKKKKKKKKKKKKKKKKKKKKKKKKKKKKKKKKK",
"KKKKKKKKKKKKKKKKKKKKKKKKKKKKKKKKKKKKKKKK",
"KKKKKKKKKKKKKKKKKKKKKKKKKKKKKKKKKKKKKKKK",
"KKKKKKKKKKKKKKKKKKKKKKKKKKKKKKKKKKKKKKKK",
"KKKKKKKKKKKKKKKKKKKKKKKKKKFSKKKKKKKKKKKK",
"KKKKKKKKKKKKKKAKKKKKKKKKKJjSKKKKKKKKKKKK",
"KKKKKKKKKKKKKJVKKKKKKKKKKJKJKKKKKKKKKKKK",
"KKKKKKKKKKKKKDAMKKKKKKKKKFKzJK:>qh2KKKKK",
"KKKAtXXXXXXXj5#-XXXXXXXXsMX6zjpunFb<KKKK",
"KKKyO..XXo++x=+++++<<<<<gM+@78axFJJfKKKK",
"KKKeeKKK o++A%*<<<<<<<0lvFmwxDJHMJJJKKKK",
"KKKczKKKKKKXA&X#XXXXXXXXsN<<;,nMMJBkKKKK",
"KKKKAKKKKKKKDKKjKKKKKKKKzSKK41irBGdKKKKK",
"KKKKKKKKKKKKBcKSKKKKKKKKzMKKJK$39C<KKKKK",
"KKKKKKKKKKKKKDAKKKKKKKKKcFKzJKKKKKKKKKKK",
"KKKKKKKKKKKKKJVKKKKKKKKKKJKJKKKKKKKKKKKK",
"KKKKKKKKKKKKKKKKKKKKKKKKKJAZKKKKKKKKKKKK",
"KKKKKKKKKKKKKKKKKKKKKKKKKKHKKKKKKKKKKKKK",
"KKKKKKKKKKKKKKKKKKKKKKKKKKKKKKKKKKKKKKKK",
"KKKKKKKKKKKKKKKKKKKKKKKKKKKKKKKKKKKKKKKK",
"KKKKKKKKKKKKKKKKKKKKKKKKKKKKKKKKKKKKKKKK",
"KKKKKKKKKKKKKKKKKKKKKKKKKKKKKKKKKKKKKKKK",
"KKKKKKKKKKKKKKKKKKKKKKKKKKKKKKKKKKKKKKKK",
"KKKKKKKKKKKKKKKKKKKKKKKKKKKKKKKKKKKKKKKK",
"KKKKKKKKKKKKKKKKKKKKKKKKKKKKKKKKKKKKKKKK",
"KKKKKKKKKKKKKKKKKKKKKKKKKKKKKKKKKKKKKKKK",
"KKKKKKKKKKKKKKKKKKKKKKKKKKKKKKKKKKKKKKKK",
"KKKKKKKKKKKKKKKKKKKKKKKKKKKKKKKKKKKKKKKK",
"KKKKKKKKKKKKKKKKKKKKKKKKKKKKKKKKKKKKKKKK",
"KKKKKKKKKKKKKKKKKKKKKKKKKKKKKKKKKKKKKKKK"
};
