/* XPM */
static char *result[] = {
/* columns rows colors chars-per-pixel */
"40 40 171 2 ",
"   c #3C5FD9",
".  c #3C64DB",
"X  c #3E68DC",
"o  c #205FE8",
"O  c #0661F2",
"+  c #0D6FF4",
"@  c #1770F2",
"#  c #1A74F4",
"$  c #3064EC",
"%  c #2E71EE",
"&  c #3870E6",
"*  c #377BEB",
"=  c #377BEF",
"-  c #397DEE",
";  c #267CF4",
":  c #2A7EF6",
">  c #2F7EF4",
",  c #3C7FF4",
"<  c #646DE1",
"1  c #3C8DEC",
"2  c #2689F4",
"3  c #3380F4",
"4  c #3481F4",
"5  c #3680F4",
"6  c #3884F2",
"7  c #368CF9",
"8  c #2990F7",
"9  c #2C93F7",
"0  c #2793F8",
"q  c #3396F7",
"w  c #3F97F7",
"e  c #3691FA",
"r  c #3A92F8",
"t  c #3D9BFA",
"y  c #28ADF7",
"u  c #36A0F8",
"i  c #3AA6F9",
"p  c #37B0FB",
"a  c #549AED",
"s  c #4694F7",
"d  c #409FF8",
"f  c #449EF8",
"g  c #459EF8",
"h  c #43A0F8",
"j  c #40A1FB",
"k  c #44A0F8",
"l  c #47A2F8",
"z  c #46A5F9",
"x  c #4CADF9",
"c  c #57A7F8",
"v  c #4EBCFF",
"b  c #51BEFD",
"n  c #53BFFD",
"m  c #51BDFE",
"M  c #71A1E5",
"N  c #65BBFB",
"B  c #15C7FC",
"V  c #32D8FB",
"C  c #3ADDFF",
"Z  c #47C7FD",
"A  c #45C8FC",
"S  c #49C9FD",
"D  c #52C0FD",
"F  c #56C3FD",
"G  c #55C5FC",
"H  c #59DBFF",
"J  c #7BCFFC",
"K  c #65D7FF",
"L  c #62DAFF",
"P  c #66D8FD",
"I  c #65DCFF",
"U  c #66DFFF",
"Y  c #71D6FF",
"T  c #4CE1FF",
"R  c #57E5FF",
"E  c #51EBFF",
"W  c #5EE9FF",
"Q  c #46FFFF",
"!  c #5DFFFF",
"~  c #61E3FF",
"^  c #63E3FF",
"/  c #66E0FF",
"(  c #68E3FF",
")  c #6FE7FD",
"_  c #6DE6FF",
"`  c #65EEFE",
"'  c #74E4FF",
"]  c #69F2FE",
"[  c #61FFFF",
"{  c #67FFFF",
"}  c #74F2FF",
"|  c #7DFFFF",
" . c #81A4F4",
".. c #81CBFB",
"X. c #8DCAFA",
"o. c #9DC0FA",
"O. c #99D5FD",
"+. c #A6CFFB",
"@. c #ACD7FC",
"#. c #81EBFF",
"$. c #81FFFF",
"%. c #83FFFF",
"&. c #86FFFF",
"*. c #8BFFFF",
"=. c #8FFFFF",
"-. c #9EF4FF",
";. c #91FFFF",
":. c #98FFFF",
">. c #99FFFF",
",. c #9CFFFF",
"<. c #A3EBFF",
"1. c #B2E2FD",
"2. c #B1E7FF",
"3. c #B4E5FF",
"4. c #ACF2FF",
"5. c #A1FFFF",
"6. c #A3FEFE",
"7. c #ABFCFF",
"8. c #A9FFFF",
"9. c #ACFFFF",
"0. c #ADFFFF",
"q. c #B0F7FA",
"w. c #B2F1FE",
"e. c #B4FBFF",
"r. c #B0FFFF",
"t. c #B4FFFF",
"y. c #B5FFFF",
"u. c #B8F8FF",
"i. c #B9FFFF",
"p. c #BAFFFF",
"a. c #BFFFFF",
"s. c #DAEBFD",
"d. c #CAF3FF",
"f. c #C0FDFE",
"g. c #C0FEFF",
"h. c #C2FFFF",
"j. c #C3FFFF",
"k. c #C4FFFF",
"l. c #C7FFFF",
"z. c #C8FFFF",
"x. c #CBFFFF",
"c. c #CCFFFF",
"v. c #CEFFFF",
"b. c #D1F6FE",
"n. c #D0FFFF",
"m. c #D6FFFF",
"M. c #D8FFFF",
"N. c #D9FFFF",
"B. c #DCFFFF",
"V. c #DDFFFF",
"C. c #DEFFFF",
"Z. c #DFFFFF",
"A. c #E5F3FE",
"S. c #EEF6FF",
"D. c #E1FFFF",
"F. c #E3FFFF",
"G. c #E6FFFF",
"H. c #E8FFFF",
"J. c #E9FFFF",
"K. c #EBFFFF",
"L. c #ECFFFF",
"P. c #F7F8FE",
"I. c #F1FFFF",
"U. c #F2FFFF",
"Y. c #F3FFFF",
"T. c #F5FFFF",
"R. c #FAFFFF",
"E. c #FDFFFF",
"W. c #FEFFFF",
"Q. c white",
"!. c None",
/* pixels */
"!.!.!.!.!.!.!.!.!.!.!.!.!.!.!.!.!.!.!.!.!.!.!.!.!.!.!.!.!.!.!.!.!.!.!.!.!.!.!.!.",
"!.!.!.!.!.!.!.!.!.!.!.!.!.!.!.!.!.!.!.!.!.!.!.!.!.!.!.!.!.!.!.!.!.!.!.!.!.!.!.!.",
"!.!.!.!.!.!.!.!.!.!.!.!.!.!.!.!.!.!.!.!.!.!.!.!.!.!.!.!.!.!.!.!.!.!.!.!.!.!.!.!.",
"!.!.!.!.!.!.!.!.!.!.!.!.!.!.!.!.!.!.!.!.!.!.!.!.!.!.!.!.!.!.!.!.!.!.!.!.!.!.!.!.",
"!.!.!.!.!.!.!.!.!.!.!.!.!.!.!.!.!.!.K 2.3.} !.!.!.!.!.!.!.!.!.!.!.!.!.!.!.!.!.!.",
"!.!.!.!.!.!.!.!.!.!.!.!.!.!.!.!.!.Y S.p.%.8.#.!.!.!.!.!.!.!.!.!.!.!.!.!.!.!.!.!.",
"!.!.!.!.!.!.!.!.!.!.!.!.!.!.!.!.R u.V.,.:.h.;.C !.!.!.!.!.!.!.!.!.!.!.!.!.!.!.!.",
"!.!.!.!.!.!.!.!.!.!.!.!.!.!.t.F.&.! n.Q.Q.Q.g.E 7.Q.Z.!.!.!.!.!.!.!.!.!.!.!.!.!.",
"!.!.!.!.!.!.!.!.!.!.!.Q.h.m.!.!.A ..Q.U.x.Q.G.{ !.!.c.>.L.!.!.!.!.!.!.!.!.!.!.!.",
"!.!.!.!.!.!.!.!.!.!.!.!.T.L.!.!.B +.R.$.Q w.1.*.!.!.j.l.Q.!.!.!.!.!.!.!.!.!.!.!.",
"!.!.!.!.!.!.!.!.!.!.!.!.!.Q.Q.H.k.D.j.5.0.b.s.M.i.T.Q.!.!.!.!.!.!.!.!.!.!.!.!.!.",
"!.!.!.!.!.!.!.!.!.!.!.!.!.!.!.!.!.] P e.9.` ) | $.!.!.!.!.!.!.!.!.!.!.!.!.!.!.!.",
"!.!.!.!.!.!.!.!.!.!.!.!.!.!.!.!.!.S 0 d.Q.J 8 !.!.!.!.!.!.!.!.!.!.!.!.!.!.!.!.!.",
"!.!.!.!.!.!.!.!.!.!.!.!.!.!.!.!.!.!.i <.E.N ; !.!.!.!.!.!.!.!.!.!.!.!.!.!.!.!.!.",
"!.!.!.!.!.!.!.!.!.!.!.!.!.!.!.!.!.!.d ' -.9 5 !.!.!.!.!.!.!.!.!.!.!.!.!.!.!.!.!.",
"!.!.!.!.!.!.!.!.!.!.!.!.!.!.!.!.!.!.f ^ W g 3 !.!.!.!.!.!.!.!.!.!.!.!.!.!.!.!.!.",
"!.!.!.!.!.!.!.!.!.!.!.!.!.!.!.!.!.!.h U I k 4 !.!.!.!.!.!.!.!.!.!.!.!.!.!.!.!.!.",
"!.!.!.!.!.!.!.!.!.!.!.!.!.!.!.!.!.!.l / / k > !.!.!.!.!.!.!.!.!.!.!.!.!.!.!.!.!.",
"!.!.!.!.!.!.!.!.!.!.!.!.!.!.!.!.!.!.q U ( z # !.!.!.!.!.!.!.!.!.!.!.!.!.!.!.!.!.",
"!.!.!.!.!.!.!.!.!.!.!.!.!.!.!.!.!.!.c H L 2  .!.!.!.!.!.!.!.!.!.!.!.!.!.!.!.!.!.",
"!.!.!.!.!.!.!.!.!.!.!.!.!.!.!.!.B.A.x ~ m o M z.Y.!.!.!.!.!.!.!.!.!.!.!.!.!.!.!.",
"!.!.!.!.!.!.!.!.!.!.!.!.!.!.!.Q.a.!.u _ n $ !.!.p.H.W.!.!.!.!.!.!.!.!.!.!.!.!.!.",
"!.!.!.!.!.!.!.!.!.!.!.!.!.!.!.Q.0.!.s T p O !.!.r.J.W.!.!.!.!.!.!.!.!.!.!.!.!.!.",
"!.!.!.!.!.!.!.!.!.!.!.!.!.!.!.!.Q.P.@.4.O.o.!.Q.I.y.!.!.!.!.!.!.!.!.!.!.!.!.!.!.",
"!.!.!.!.!.!.!.!.!.!.!.!.!.!.!.!.!.!.X.6.Q.R.=.!.!.!.!.!.!.!.!.!.!.!.!.!.!.!.!.!.",
"!.!.!.!.!.!.!.!.!.!.!.!.!.!.!.!.!.!.+ Z G : !.!.!.!.!.!.!.!.!.!.!.!.!.!.!.!.!.!.",
"!.!.!.!.!.!.!.!.!.!.!.!.!.!.!.!.!.!.= F b % !.!.!.!.!.!.!.!.!.!.!.!.!.!.!.!.!.!.",
"!.!.!.!.!.!.!.!.!.!.!.!.!.!.!.!.!.!.  v t X !.!.!.!.!.!.!.!.!.!.!.!.!.!.!.!.!.!.",
"!.!.!.!.!.!.!.!.!.!.!.!.!.!.!.!.!.!.& D j . !.!.!.!.!.!.!.!.!.!.!.!.!.!.!.!.!.!.",
"!.!.!.!.!.!.!.!.!.!.!.!.!.!.!.!.!.!.6 w r !.!.!.!.!.!.!.!.!.!.!.!.!.!.!.!.!.!.!.",
"!.!.!.!.!.!.!.!.!.!.!.!.!.!.!.!.!.!.* 7 - !.!.!.!.!.!.!.!.!.!.!.!.!.!.!.!.!.!.!.",
"!.!.!.!.!.!.!.!.!.!.!.!.!.!.!.!.!.!., e 1 !.!.!.!.!.!.!.!.!.!.!.!.!.!.!.!.!.!.!.",
"!.!.!.!.!.!.!.!.!.!.!.!.!.!.!.!.!.q.< @ V !.Q.!.!.!.!.!.!.!.!.!.!.!.!.!.!.!.!.!.",
"!.!.!.!.!.!.!.!.!.!.!.!.!.!.!.!.Q.f.y a !.!.[ N.!.!.!.!.!.!.!.!.!.!.!.!.!.!.!.!.",
"!.!.!.!.!.!.!.!.!.!.!.!.!.!.!.!.!.!.v.K.!.C.$.!.!.!.!.!.!.!.!.!.!.!.!.!.!.!.!.!.",
"!.!.!.!.!.!.!.!.!.!.!.!.!.!.!.!.!.!.!.!.!.!.!.!.!.!.!.!.!.!.!.!.!.!.!.!.!.!.!.!.",
"!.!.!.!.!.!.!.!.!.!.!.!.!.!.!.!.!.!.!.!.!.!.!.!.!.!.!.!.!.!.!.!.!.!.!.!.!.!.!.!.",
"!.!.!.!.!.!.!.!.!.!.!.!.!.!.!.!.!.!.!.!.!.!.!.!.!.!.!.!.!.!.!.!.!.!.!.!.!.!.!.!.",
"!.!.!.!.!.!.!.!.!.!.!.!.!.!.!.!.!.!.!.!.!.!.!.!.!.!.!.!.!.!.!.!.!.!.!.!.!.!.!.!.",
"!.!.!.!.!.!.!.!.!.!.!.!.!.!.!.!.!.!.!.!.!.!.!.!.!.!.!.!.!.!.!.!.!.!.!.!.!.!.!.!."
};
