/* XPM */
static char *result[] = {
/* columns rows colors chars-per-pixel */
"64 64 175 2 ",
"   c #181425",
".  c #171E33",
"X  c #172634",
"o  c #152742",
"O  c #123A5F",
"+  c #133B5F",
"@  c #0B6FAE",
"#  c #3C5FD9",
"$  c #3C64DB",
"%  c #3E68DC",
"&  c #205FE8",
"*  c #0761F2",
"=  c #0D6FF4",
"-  c #1A74F4",
";  c #3064EC",
":  c #2674E3",
">  c #2E71EE",
",  c #3675E6",
"<  c #3870E6",
"1  c #377BEB",
"2  c #377BEF",
"3  c #267CF4",
"4  c #2A7EF6",
"5  c #2F7EF4",
"6  c #3C7FF4",
"7  c #626CE1",
"8  c #0099DB",
"9  c #2689F4",
"0  c #2785F8",
"q  c #3380F4",
"w  c #3481F4",
"e  c #3680F4",
"r  c #3B84F0",
"t  c #3884F2",
"y  c #368AF8",
"u  c #2990F7",
"i  c #2C93F7",
"p  c #2793F8",
"a  c #3396F7",
"s  c #3F97F7",
"d  c #3A92F8",
"f  c #3D9BFA",
"g  c #3899FC",
"h  c #36A0F8",
"j  c #3AA6F9",
"k  c #2DB9F3",
"l  c #2FB3F9",
"z  c #37B0FB",
"x  c #4694F7",
"c  c #409FF8",
"v  c #449EF8",
"b  c #459EF8",
"n  c #43A0F8",
"m  c #40A1FB",
"M  c #44A0F8",
"N  c #47A2F8",
"B  c #46A5F9",
"V  c #4CADF9",
"C  c #57A7F8",
"Z  c #4EBCFF",
"A  c #51BEFD",
"S  c #53BFFD",
"D  c #51BDFE",
"F  c #71A1E5",
"G  c #65BBFB",
"H  c #15C7FC",
"J  c #3ADDFF",
"K  c #2CE8F5",
"L  c #47C7FD",
"P  c #45C8FC",
"I  c #49C9FD",
"U  c #52C0FD",
"Y  c #56C3FD",
"T  c #55C5FC",
"R  c #59DBFF",
"E  c #7BCFFC",
"W  c #65D7FF",
"Q  c #62DAFF",
"!  c #66D8FD",
"~  c #65DCFF",
"^  c #66DFFF",
"/  c #71D6FF",
"(  c #4CE1FF",
")  c #57E5FF",
"_  c #51EBFF",
"`  c #5EE9FF",
"'  c #46FFFF",
"]  c #5CFFFF",
"[  c #5DFFFF",
"{  c #61E3FF",
"}  c #63E3FF",
"|  c #66E0FF",
" . c #68E3FF",
".. c #6FE7FD",
"X. c #6DE6FF",
"o. c #65EEFE",
"O. c #74E4FF",
"+. c #69F2FE",
"@. c #74F2FF",
"#. c #7DFFFF",
"$. c #81A4F4",
"%. c #81CBFB",
"&. c #8DCAFA",
"*. c #9DC0FA",
"=. c #99D5FD",
"-. c #A6CFFB",
";. c #ACD7FC",
":. c #81EBFF",
">. c #81FFFF",
",. c #83FFFF",
"<. c #86FFFF",
"1. c #8FFFFF",
"2. c #9EF4FF",
"3. c #91FFFF",
"4. c #98FFFF",
"5. c #9CFFFF",
"6. c #A3EBFF",
"7. c #B2E2FD",
"8. c #B1E7FF",
"9. c #B4E5FF",
"0. c #ACF2FF",
"q. c #A0FFFF",
"w. c #A1FFFF",
"e. c #A3FEFE",
"r. c #ABFCFF",
"t. c #A9FFFF",
"y. c #ACFFFF",
"u. c #ADFFFF",
"i. c #B0F7FA",
"p. c #B2F1FE",
"a. c #B4FBFF",
"s. c #B0FFFF",
"d. c #B4FFFF",
"f. c #B5FFFF",
"g. c #B8F8FF",
"h. c #BAFFFF",
"j. c #BFFFFF",
"k. c #C3DCF5",
"l. c #DAEBFD",
"z. c #CAF3FF",
"x. c #C0FDFE",
"c. c #C0FEFF",
"v. c #C2FFFF",
"b. c #C3FFFF",
"n. c #C4FFFF",
"m. c #CBFFFF",
"M. c #CCFFFF",
"N. c #D1F6FE",
"B. c #D0FFFF",
"V. c #D1FFFF",
"C. c #D4FFFF",
"Z. c #D5FFFF",
"A. c #D6FFFF",
"S. c #D9FFFF",
"D. c #DCFFFF",
"F. c #DDFFFF",
"G. c #E5F3FE",
"H. c #EEF6FF",
"J. c #E1FFFF",
"K. c #E3FFFF",
"L. c #E5FFFF",
"P. c #E6FFFF",
"I. c #E8FFFF",
"U. c #E9FFFF",
"Y. c #EAFFFF",
"T. c #ECFFFF",
"R. c #F7F8FE",
"E. c #F1FFFF",
"W. c #F2FFFF",
"Q. c #F3FFFF",
"!. c #F5FFFF",
"~. c #FAFFFF",
"^. c #FDFFFF",
"/. c #FEFFFF",
"(. c white",
/* pixels */
"                                                                      X X                                                       ",
"                                                                                          +                                     ",
"                                      +                     8                                                                   ",
"        O                                                 @ K @                                                     8           ",
"                                                            8               @                         @                         ",
"                                                                                                                                ",
"                                              o                                                                         8       ",
"                                                                                                                                ",
"            .                                       .                                                       +                   ",
"                            +                                                                                                   ",
"                                                                                                                                ",
"                                                                                    8                                           ",
"                        +         @                             O                                       . . .                   ",
"                                                  @                                                   . o o o .                 ",
"                                                            .                                         . o O O o .               ",
"                                                                                                      . o O @ O o .             ",
"                                                                                                        . o O O o .             ",
"                                                          #.F.  k.C.                                      . o o o .             ",
"                                                      8 M.q.    : l x.(.                  @                 . . .               ",
"                  o                                       (.  k 0 7 i.                                                          ",
"                                          @                   , g 6                                                             ",
"              O                                           @ 8 r y 1                                                         @   ",
"                                                              d s t                                   +                         ",
"                                                            $ m U <     8                                                       ",
"                                              . . .         % f Z #                                                             ",
"                                            . o o o .       > A Y 2                                                             ",
"                                            . o O O o .     4 T L =                       +                               +     ",
"                                +           . o O @ O o . 1.~.(.e.&.          .                                                 ",
"                                              . o O f.E.(.  *.=.0.;.R.(.                                                        ",
"                                                . /.Y.y..   * z ( x   u.(.          o                   8           +           ",
"    .                                             /.U.f.    ; S X.h   j.(.                                                      ",
"                                                      !.C.F & D { V G.D.                                                        ",
"                    o                                     $.9 Q R C                                                             ",
"                                                          - B  .^ a                                                             ",
"                                            8             5 M | | N                                                 @           ",
"                                                          w M ~ ^ n                                                             ",
"        +                                                 q b ` } v                       . . .             +                   ",
"                                                          e i 2.O.c                     . o o o .       @                       ",
"                                    @                     3 G ^.6.j                     . o O O o .     @                       ",
"                                                          u E (.z.p I                   . o O @ O o . 8 K 8                     ",
"                                                      >.#...o.y.a.! +.                    . o O O o .   8                       ",
"          .                                       (.W.f.S.l.N.u.w.b.J.n.I.(.(.              . o o o .   @                       ",
"                                              (.V.Z.    <.7.p.' >.~.-.H     T.!.              . . .                             ",
"                                              L.s.Q.    ] P.(.m.W.(.%.P     A.v.(.                                8             ",
"                    8                             Z.(.r._ c.(.(.(.B.[ <.K.d.                                              +     ",
"                  @ K @                                 J 3.v.4.5.F.g.)                                                         ",
"                    8                                     :.t.,.h.H./                           +                               ",
"                                        .                   @.9.8.W                                                             ",
"                                          .               .                                                                     ",
"                                            .           .                                                                       ",
"                                              o . . . o                     .                                                   ",
"                                              . o o o .                                 O                                       ",
"                                              . o @ o .                                                                         ",
"                            . . .             . o o o .                                                   +                     ",
"                +         . o o o .           . . . . o           O                                                             ",
"                        . O o O o .         .           .                                                                       ",
"                      . o o o o o .                       .                                       +                             ",
"                      . o O o O .                                                                             O                 ",
"                      . O o o .                                                                                                 ",
"                        . . .                                                                                                   ",
"                                                                                                                                ",
"                                                                                                                                ",
"                                                                                      .                                         ",
"                                                                                                                                "
};
