/* XPM */
static char *result[] = {
/* columns rows colors chars-per-pixel */
"40 40 142 2 ",
"   c #1874F2",
".  c #3863E3",
"X  c #3C7AE9",
"o  c #3D7FED",
"O  c #2A70F3",
"+  c #2B79F3",
"@  c #3478F3",
"#  c #347FF3",
"$  c #2A8AEC",
"%  c #3686F4",
"&  c #378BF6",
"*  c #388AF5",
"=  c #388BF5",
"-  c #388AF6",
";  c #388CF6",
":  c #308EFB",
">  c #2191F5",
",  c #2898F7",
"<  c #3097F6",
"1  c #3F96F7",
"2  c #3C9AF6",
"3  c #3B9EF8",
"4  c #32ABF8",
"5  c #34ACF8",
"6  c #39AAFA",
"7  c #3FA9FB",
"8  c #24BBFA",
"9  c #4097F7",
"0  c #409AF7",
"q  c #7199F6",
"w  c #48A0F6",
"e  c #43A6FA",
"r  c #46A4F8",
"t  c #4AA4F9",
"y  c #4DAEFA",
"u  c #4FB3FA",
"i  c #4CB5FB",
"p  c #4BB3FD",
"a  c #55BBFC",
"s  c #63BBFB",
"d  c #70BBF9",
"f  c #2BC6FA",
"g  c #42C4FA",
"h  c #41C6FA",
"j  c #44C0FD",
"k  c #57C4FC",
"l  c #59C7FD",
"z  c #59C8FD",
"x  c #5ACEFD",
"c  c #43D3FB",
"v  c #4ED3FF",
"b  c #4ED6FC",
"n  c #5ED0FE",
"m  c #5ED1FE",
"M  c #5DDFFF",
"N  c #77CEFB",
"B  c #61D7FF",
"V  c #62DDFD",
"C  c #70DBFE",
"Z  c #56E0FF",
"A  c #57EDFF",
"S  c #53F1FF",
"D  c #55FFFF",
"F  c #5BFFFF",
"G  c #67E0FF",
"H  c #66E1FF",
"J  c #69E6FF",
"K  c #74E2FC",
"L  c #7CE6FD",
"P  c #78E8FF",
"I  c #74F2FF",
"U  c #77FEFF",
"Y  c #76FFFF",
"T  c #7DFFFF",
"R  c #80CFF1",
"E  c #8DC2FA",
"W  c #99C6FC",
"Q  c #87D3FB",
"!  c #80DDFD",
"~  c #87DDFD",
"^  c #8FDAFC",
"/  c #ACDCF9",
"(  c #8EEDFF",
")  c #91E9FD",
"_  c #81F2FF",
"`  c #81F7FF",
"'  c #85FFFF",
"]  c #8AFCFF",
"[  c #90FFFF",
"{  c #97FFFF",
"}  c #99FFFF",
"|  c #9EFFFF",
" . c #BFE0FD",
".. c #ACF2FF",
"X. c #AEF4FF",
"o. c #A3FFFF",
"O. c #A4FFFF",
"+. c #B1FFFF",
"@. c #B2FFFF",
"#. c #B6FFFF",
"$. c #B8FEFF",
"%. c #B9FFFF",
"&. c #BBFFFF",
"*. c #BCFFFF",
"=. c #BEFFFF",
"-. c #C9DEFE",
";. c #C7F5FF",
":. c #C0FFFF",
">. c #C1FFFF",
",. c #C4FFFF",
"<. c #C5FFFF",
"1. c #C9FAFF",
"2. c #C8FFFF",
"3. c #CDFFFF",
"4. c #CEFFFF",
"5. c #CFFFFF",
"6. c #D1FFFF",
"7. c #DAFFFF",
"8. c #DDFFFF",
"9. c #DFFFFF",
"0. c #E2FFFF",
"q. c #E4FFFF",
"w. c #E5FFFF",
"e. c #E7FFFF",
"r. c #E8FFFF",
"t. c #EBFFFF",
"y. c #EFFFFF",
"u. c azure",
"i. c #F2FFFF",
"p. c #F3FFFF",
"a. c #F4FFFF",
"s. c #F5FFFF",
"d. c #F6FFFF",
"f. c #FFFBFF",
"g. c #F9FCFF",
"h. c #F9FFFF",
"j. c #FAFFFF",
"k. c #FBFFFF",
"l. c #FCFFFF",
"z. c #FDFFFF",
"x. c white",
"c. c None",
/* pixels */
"c.c.c.c.c.c.c.c.c.c.c.c.c.c.c.c.c.c.c.c.c.c.c.c.c.c.c.c.c.c.c.c.c.c.c.c.c.c.c.c.",
"c.c.c.c.c.c.c.c.c.c.c.c.c.c.c.c.c.c.c.c.c.c.c.c.c.c.c.c.c.c.c.c.c.c.c.c.c.c.c.c.",
"c.c.c.c.c.c.c.c.c.c.c.c.c.c.c.c.c.c.c.c.R c.c.c.c.c.c.c.c.c.c.c.c.c.c.c.c.c.c.c.",
"c.c.c.c.c.c.c.c.c.c.c.c.c.c.c.c.c.h.' F C / c.c.c.c.c.c.c.c.c.c.c.c.c.c.c.c.c.c.",
"c.c.c.c.c.c.c.c.c.c.c.c.c.c.c.c.c.c.+.c.$ o c.c.c.c.c.c.c.c.c.c.c.c.c.c.c.c.c.c.",
"c.c.c.c.c.c.c.c.c.c.c.c.c.c.c.c.c.c.c.c.. : c.c.c.c.c.c.c.c.c.c.c.c.c.c.c.c.c.c.",
"c.c.c.c.c.c.c.c.c.c.c.c.c.c.c.c.c.c.c.c.= * c.c.c.c.c.c.c.c.c.c.c.c.c.c.c.c.c.c.",
"c.c.c.c.c.c.c.c.c.c.c.c.c.c.c.c.c.c.c.c.& = c.c.c.c.c.c.c.c.c.c.c.c.c.c.c.c.c.c.",
"c.c.c.c.c.c.c.c.c.c.c.c.c.c.c.c.c.c.c.X ; * c.c.c.c.c.c.c.c.c.c.c.c.c.c.c.c.c.c.",
"c.c.c.c.c.c.c.c.c.c.c.c.c.c.c.c.c.c.c.w p # c.c.c.c.c.c.c.c.c.c.c.c.c.c.c.c.c.c.",
"c.c.c.c.c.c.c.c.c.c.c.c.c.c.c.c.c.c.c.> 7 O c.c.c.c.c.c.c.c.c.c.c.c.c.c.c.c.c.c.",
"c.c.c.c.c.c.c.c.c.c.c.c.c.c.c.c.c.c.-.W N f c.c.c.c.c.c.c.c.c.c.c.c.c.c.c.c.c.c.",
"c.c.c.c.c.c.c.c.c.c.c.c.c.c.c.y.w.@.{ o.#.>.e.x.c.c.c.c.c.c.c.c.c.c.c.c.c.c.c.c.",
"c.c.c.c.c.c.c.c.c.c.c.c.c.c.9.9.c.c.c., t 2 c.d.7.c.c.c.c.c.c.c.c.c.c.c.c.c.c.c.",
"c.c.c.c.c.c.c.c.c.c.c.c.c.c.t.0.<.c.5 a e < 2.a.r.c.c.c.c.c.c.c.c.c.c.c.c.c.c.c.",
"c.c.c.c.c.c.c.c.c.c.c.c.c.c.c.c.x.c.g l 6 q %.c.c.c.c.c.c.c.c.c.c.c.c.c.c.c.c.c.",
"c.c.c.c.c.c.c.c.c.c.c.c.c.c.c.c.c.c.c.n i @ c.c.c.c.c.c.c.c.c.c.c.c.c.c.c.c.c.c.",
"c.c.c.c.c.c.c.c.c.c.c.c.c.c.c.c.c.c.c.B u + c.c.c.c.c.c.c.c.c.c.c.c.c.c.c.c.c.c.",
"c.c.c.c.c.c.c.c.c.c.c.c.c.c.c.c.c.c.c.m k % c.c.c.c.c.c.c.c.c.c.c.c.c.c.c.c.c.c.",
"c.c.c.c.c.c.c.c.c.c.c.c.c.c.c.c.c.c.c.z J 0 c.c.c.c.c.c.c.c.c.c.c.c.c.c.c.c.c.c.",
"c.c.c.c.c.c.c.c.c.c.c.c.c.c.c.c.c.c.c.z H 1 c.c.c.c.c.c.c.c.c.c.c.c.c.c.c.c.c.c.",
"c.c.c.c.c.c.c.c.c.c.c.c.c.c.c.c.c.c.c.x H 9 c.c.c.c.c.c.c.c.c.c.c.c.c.c.c.c.c.c.",
"c.c.c.c.c.c.c.c.c.c.c.c.c.c.c.c.c.c.c.V G - c.c.c.c.c.c.c.c.c.c.c.c.c.c.c.c.c.c.",
"c.c.c.c.c.c.c.c.c.c.c.c.c.c.c.c.c.c.h ! Z 8 c.c.c.c.c.c.c.c.c.c.c.c.c.c.c.c.c.c.",
"c.c.c.c.c.c.c.c.c.c.c.c.c.c.c.3.+.5.3.*.:.&.q.x.c.c.c.c.c.c.c.c.c.c.c.c.c.c.c.c.",
"c.c.c.c.c.c.c.c.c.c.c.c.c.u.e.p.Y c.c.;.) K 6.x.q.a.c.c.c.c.c.c.c.c.c.c.c.c.c.c.",
"c.c.c.c.c.c.c.c.c.c.c.c.8.[ c.c.c.c.c.] 3   c.c.| O.x.c.c.c.c.c.c.c.c.c.c.c.c.c.",
"c.c.c.c.c.c.c.c.c.c.c.c.c.c.x.=.z.c.j D c Q 1.w.l.c.c.c.c.c.c.c.c.c.c.c.c.c.c.c.",
"c.c.c.c.c.c.c.c.c.c.c.c.c.c.c.c.c.s 4 O.S ` c.c.c.c.c.c.c.c.c.c.c.c.c.c.c.c.c.c.",
"c.c.c.c.c.c.c.c.c.c.c.c.c.c.c.c.c.d ~ i.( L c.c.c.c.c.c.c.c.c.c.c.c.c.c.c.c.c.c.",
"c.c.c.c.c.c.c.c.c.c.c.c.c.c.c.c.y ^ ,.x.$.E r c.c.c.c.c.c.c.c.c.c.c.c.c.c.c.c.c.",
"c.c.c.c.c.c.c.c.c.c.c.c.c.c.c.c.M U %.h.,. .b c.c.c.c.c.c.c.c.c.c.c.c.c.c.c.c.c.",
"c.c.c.c.c.c.c.c.c.c.c.c.c.c.c.c.P k.4.} s.k.T c.c.c.c.c.c.c.c.c.c.c.c.c.c.c.c.c.",
"c.c.c.c.c.c.c.c.c.c.c.c.c.c.c.c.c.g.x.l.x.j._ c.c.c.c.c.c.c.c.c.c.c.c.c.c.c.c.c.",
"c.c.c.c.c.c.c.c.c.c.c.c.c.c.c.c.c.A :.x.h...v c.c.c.c.c.c.c.c.c.c.c.c.c.c.c.c.c.",
"c.c.c.c.c.c.c.c.c.c.c.c.c.c.c.c.c.c.I f.X.c.c.c.c.c.c.c.c.c.c.c.c.c.c.c.c.c.c.c.",
"c.c.c.c.c.c.c.c.c.c.c.c.c.c.c.c.c.c.c.c.c.c.c.c.c.c.c.c.c.c.c.c.c.c.c.c.c.c.c.c.",
"c.c.c.c.c.c.c.c.c.c.c.c.c.c.c.c.c.c.c.c.c.c.c.c.c.c.c.c.c.c.c.c.c.c.c.c.c.c.c.c.",
"c.c.c.c.c.c.c.c.c.c.c.c.c.c.c.c.c.c.c.c.c.c.c.c.c.c.c.c.c.c.c.c.c.c.c.c.c.c.c.c.",
"c.c.c.c.c.c.c.c.c.c.c.c.c.c.c.c.c.c.c.c.c.c.c.c.c.c.c.c.c.c.c.c.c.c.c.c.c.c.c.c."
};
