/* XPM */
static char *result[] = {
/* columns rows colors chars-per-pixel */
"40 40 163 2 ",
"   c #3E53D0",
".  c #3F68DB",
"X  c #077BF4",
"o  c #1675F2",
"O  c #2C6FE9",
"+  c #3365E4",
"@  c #3969E0",
"#  c #2078F7",
"$  c #3476F4",
"%  c #307BF3",
"&  c #3A81EE",
"*  c #3F8BEC",
"=  c #2883F5",
"-  c #2C84F5",
";  c #2E87F5",
":  c #2F88F7",
">  c #3583F3",
",  c #3383F5",
"<  c #3184F7",
"1  c #3584F4",
"2  c #358AF7",
"3  c #3888F4",
"4  c #3A88F5",
"5  c #3B89F5",
"6  c #3C8CF5",
"7  c #2893F7",
"8  c #3E95F6",
"9  c #39A9F8",
"0  c #38A8FA",
"q  c #2FB9FB",
"w  c #38B6FD",
"e  c #3CB6FD",
"r  c #4399F4",
"t  c #48A3EF",
"y  c #5AB2EA",
"u  c #4FA4F7",
"i  c #44A1F8",
"p  c #45A5F9",
"a  c #47A6F8",
"s  c #4CA6FA",
"d  c #47ABFB",
"f  c #42AFFA",
"g  c #48A9F9",
"h  c #49A9F9",
"j  c #42B2F9",
"k  c #42B0FA",
"l  c #4DB3FB",
"z  c #50B2FB",
"x  c #52B3FB",
"c  c #52B5FB",
"v  c #5BB7F9",
"b  c #51BAFA",
"n  c #52BAFB",
"m  c #52BCFB",
"M  c #59BDFA",
"N  c #7EB6F8",
"B  c #49CCFE",
"V  c #5AC7FC",
"C  c #53CEFB",
"Z  c #5CCDFE",
"A  c #5DCFFE",
"S  c #5ED4FE",
"D  c #57D9FD",
"F  c #58DBFD",
"G  c #77C7FE",
"H  c #7AD4FF",
"J  c #57E7FF",
"K  c #5BE1FE",
"L  c #59E7FF",
"P  c #4AF4FF",
"I  c #5AFFFF",
"U  c #61E1FE",
"Y  c #60E2FF",
"T  c #6CE3FE",
"R  c #69E5FF",
"E  c #6AE7FF",
"W  c #6AECFF",
"Q  c #60FFFF",
"!  c #66FFFF",
"~  c #68F9FF",
"^  c #6EF9FF",
"/  c #77F8FF",
"(  c #76FFFF",
")  c #79FFFF",
"_  c #7EFDFF",
"`  c #819FEF",
"'  c #87B7F8",
"]  c #96C7FC",
"[  c #94CEFC",
"{  c #96D9FD",
"}  c #9ADEFC",
"|  c #AFDCF5",
" . c #A5D2FB",
".. c #A7DFFC",
"X. c #B2D4FC",
"o. c #9FE9FF",
"O. c #9FEFFF",
"+. c #80FDFF",
"@. c #84FFFF",
"#. c #8BFFFF",
"$. c #94FFFF",
"%. c #9BFFFF",
"&. c #9FFFFF",
"*. c #ACE9FF",
"=. c #A2F0FF",
"-. c #A6F9FF",
";. c #A7F9FF",
":. c #A1FFFF",
">. c #A2FEFF",
",. c #A3FFFF",
"<. c #A6FEFF",
"1. c #ABFFFF",
"2. c #ADFFFF",
"3. c #BAF4FF",
"4. c #B4F8FF",
"5. c #B2FDFF",
"6. c #B7FFFF",
"7. c #BAFCFE",
"8. c #BBFFFF",
"9. c #BEFCFF",
"0. c #BCFFFF",
"q. c #BDFFFF",
"w. c #CAEFFF",
"e. c #C0FFFF",
"r. c #C1FFFF",
"t. c #C2FFFF",
"y. c #C4FFFF",
"u. c #C6FFFF",
"i. c #C9FFFF",
"p. c #CCFFFF",
"a. c #CDFFFF",
"s. c #CFFFFF",
"d. c #D1F8FF",
"f. c #D1FFFF",
"g. c #D9FFFF",
"h. c #DBFFFF",
"j. c #DCFFFF",
"k. c #DDFFFF",
"l. c #DEFFFF",
"z. c #DFFFFF",
"x. c #E8F0FE",
"c. c #E3FBFF",
"v. c LightCyan",
"b. c #E2FFFF",
"n. c #E4FFFF",
"m. c #EBF8FF",
"M. c #E9FDFF",
"N. c #E8FFFF",
"B. c #EDFFFF",
"V. c #F1FFFF",
"C. c #F2FFFF",
"Z. c #F3FFFF",
"A. c #F4FFFF",
"S. c #F5FFFF",
"D. c #F6FFFF",
"F. c #F7FFFF",
"G. c #F8FFFF",
"H. c #F9FFFF",
"J. c #FAFFFF",
"K. c #FFFDFF",
"L. c #FDFFFF",
"P. c white",
"I. c None",
/* pixels */
"I.I.I.I.I.I.I.I.I.I.I.I.I.I.I.I.I.I.I.I.I.I.I.I.I.I.I.I.I.I.I.I.I.I.I.I.I.I.I.I.",
"I.I.I.I.I.I.I.I.I.I.I.I.I.I.I.I.I.I.I.I.I.I.I.I.I.I.I.I.I.I.I.I.I.I.I.I.I.I.I.I.",
"I.I.I.I.I.I.I.I.I.I.I.I.I.I.I.I.I.I.I.I.I.I.I.I.I.I.I.I.I.I.I.I.I.I.I.I.I.I.I.I.",
"I.I.I.I.I.I.I.I.I.I.I.I.I.I.I.I.I.I.I.I.I.I.I.I.I.I.I.I.I.I.I.I.I.I.I.I.I.I.I.I.",
"I.I.I.I.I.I.I.I.I.I.I.I.I.I.I.I.I.I.I.I.I.I.I.I.I.I.I.I.I.I.I.I.I.I.I.I.I.I.I.I.",
"I.I.I.I.I.I.I.I.I.I.I.I.I.I.I.I.I.I.I.I.I.I.I.I.I.I.I.I.I.I.I.I.I.I.I.I.I.I.I.I.",
"I.I.I.I.I.I.I.I.I.I.I.I.I.I.I.I.I.I.I.I.I.I.I.I.I.I.I.I.I.I.I.I.I.I.I.I.I.I.I.I.",
"I.I.I.I.I.I.I.I.I.I.I.I.I.I.I.I.I.I.I.I.I.I.I.I.I.I.I.I.I.I.I.I.I.I.I.I.I.I.I.I.",
"I.I.I.I.I.I.I.I.I.I.I.I.I.I.I.I.I.I.I.I.I.I.I.I.I.I.I.I.I.I.I.I.I.I.I.I.I.I.I.I.",
"I.I.I.I.I.I.I.I.I.I.I.I.I.I.I.I.I.I.I.I.I.I.I.I.I.I.I.I.I.I.I.I.I.I.I.I.I.I.I.I.",
"I.I.I.I.I.I.I.I.I.I.I.I.I.I.I.I.I.I.I.I.I.I.I.I.I.I.I.I.I.I.I.I.I.I.I.I.I.I.I.I.",
"I.I.I.I.I.I.I.I.I.I.I.I.I.I.I.I.I.I.I.I.I.I.I.I.I.I.I.I.I.I.I.I.I.I.I.I.I.I.I.I.",
"I.I.I.I.I.I.I.I.I.I.I.I.I.I.I.I.I.I.I.I.I.I.I.I.I.I.I.I.I.I.I.I.I.I.I.I.I.I.I.I.",
"I.I.I.I.I.b.I.I.I.I.I.I.I.I.I.I.I.I.I.2.I.I.I.I.I.I.I.I.I.I.I.I.I.I.I.I.I.I.I.I.",
"I.I.I.I.H.t.I.I.I.I.I.I.I.I.I.I.I.I.B.A.I.I.I.I.I.I.I.I.I.I.I.I.I.I.I.I.I.I.I.I.",
"I.I.I.P.%.f.I.I.I.I.I.I.I.I.I.I.I.I.H.F.P.I.I.I.I.I.I.I.I.I.I.I.I.I.I.I.I.I.I.I.",
"I.I.I.S.I.I.I.I.I.I.I.I.I.I.I.I.I.P.$.) h.I.I.I.I.I.I.I.I.I.I.P.P.I.I.I.I.I.I.I.",
"I.I.I.r.I.I.d.*.b u I.I.I.I.I.I.I.J.I.I.u.I.I.I.I.I.I.I.I.I.I.h.C.I.I.I.I.I.I.I.",
"I.I.I.k.I.Y c.w.[ } C @ + I.I.I.I.' I.I.N 9.I.I.I.I.I.I.I.I. .L +.V.I.I.I.I.I.I.",
"I.I.I.I.I.j.P.P.L.4.M e w l x c k f z 0 ] ,.q s h m 8 % 6 : # O I.l.I.I.I.I.I.I.",
"I.I.I.I.K.P.P.P.P.P.P.y.;./ ~ ^ W R E J -.q.@.D n i d p 2 3 * I.I.p.I.I.I.I.I.I.",
"I.I.I.I.o.D.P.P.P.6.x.X.{ T K U S Z A B O.7.v j g 1 r a > . I.I.I.I I.I.I.I.I.I.",
"I.I.I.I.I.=.P.P.P.e.F 9 7 , 4 5 - = ; o ` >.X $ < &   I.I.I.! I.I.Q I.I.I.I.I.I.",
"I.I.I.g.I.I.M.m.<.G t y I.I.I.I.I...I.I.| q.I.I.I.I.I.I.I.I.i.I.I.1.I.I.I.I.I.I.",
"I.I.I.e.I.I.3.H 5.P V I.I.I.I.I.I.P.I.I.G.I.I.I.I.I.I.I.I.I.P.#.q.Z.I.I.I.I.I.I.",
"I.I.I.S.I.I._ I.I.I.I.I.I.I.I.I.I.8.:.( s.I.I.I.I.I.I.I.I.I.&.J.v.I.I.I.I.I.I.I.",
"I.I.I.P.n.0.I.I.I.I.I.I.I.I.I.I.I.I.N.a.P.I.I.I.I.I.I.I.I.I.I.P.I.I.I.I.I.I.I.I.",
"I.I.I.I.H.Z.I.I.I.I.I.I.I.I.I.I.I.I.h.z.I.I.I.I.I.I.I.I.I.I.I.I.I.I.I.I.I.I.I.I.",
"I.I.I.I.P.I.I.I.I.I.I.I.I.I.I.I.I.I.I.I.I.I.I.I.I.I.I.I.I.I.I.I.I.I.I.I.I.I.I.I.",
"I.I.I.I.I.I.I.I.I.I.I.I.I.I.I.I.I.I.I.I.I.I.I.I.I.I.I.I.I.I.I.I.I.I.I.I.I.I.I.I.",
"I.I.I.I.I.I.I.I.I.I.I.I.I.I.I.I.I.I.I.I.I.I.I.I.I.I.I.I.I.I.I.I.I.I.I.I.I.I.I.I.",
"I.I.I.I.I.I.I.I.I.I.I.I.I.I.I.I.I.I.I.I.I.I.I.I.I.I.I.I.I.I.I.I.I.I.I.I.I.I.I.I.",
"I.I.I.I.I.I.I.I.I.I.I.I.I.I.I.I.I.I.I.I.I.I.I.I.I.I.I.I.I.I.I.I.I.I.I.I.I.I.I.I.",
"I.I.I.I.I.I.I.I.I.I.I.I.I.I.I.I.I.I.I.I.I.I.I.I.I.I.I.I.I.I.I.I.I.I.I.I.I.I.I.I.",
"I.I.I.I.I.I.I.I.I.I.I.I.I.I.I.I.I.I.I.I.I.I.I.I.I.I.I.I.I.I.I.I.I.I.I.I.I.I.I.I.",
"I.I.I.I.I.I.I.I.I.I.I.I.I.I.I.I.I.I.I.I.I.I.I.I.I.I.I.I.I.I.I.I.I.I.I.I.I.I.I.I.",
"I.I.I.I.I.I.I.I.I.I.I.I.I.I.I.I.I.I.I.I.I.I.I.I.I.I.I.I.I.I.I.I.I.I.I.I.I.I.I.I.",
"I.I.I.I.I.I.I.I.I.I.I.I.I.I.I.I.I.I.I.I.I.I.I.I.I.I.I.I.I.I.I.I.I.I.I.I.I.I.I.I.",
"I.I.I.I.I.I.I.I.I.I.I.I.I.I.I.I.I.I.I.I.I.I.I.I.I.I.I.I.I.I.I.I.I.I.I.I.I.I.I.I.",
"I.I.I.I.I.I.I.I.I.I.I.I.I.I.I.I.I.I.I.I.I.I.I.I.I.I.I.I.I.I.I.I.I.I.I.I.I.I.I.I."
};
