/* XPM */
static char *result[] = {
/* columns rows colors chars-per-pixel */
"40 40 129 2 ",
"   c #0B39CE",
".  c #3962DF",
"X  c #1E7DF3",
"o  c #336DEB",
"O  c #387EE1",
"+  c #3773E9",
"@  c #327DE8",
"#  c #347CED",
"$  c #2369F1",
"%  c #2376F3",
"&  c #5D7FE6",
"*  c #1280F5",
"=  c #288DEE",
"-  c #3B83E4",
";  c #3585F4",
":  c #398FF7",
">  c #2997F3",
",  c #3F92F0",
"<  c #3590F8",
"1  c #3E9CFA",
"2  c #2CA0F7",
"3  c #3DAEFD",
"4  c #30B0FD",
"5  c #4291EF",
"6  c #4C9AF4",
"7  c #449FF9",
"8  c #49A0F4",
"9  c #47A1F9",
"0  c #47A6F9",
"q  c #48A0F9",
"w  c #4CAEFA",
"e  c #57ABFD",
"r  c #43B1F9",
"t  c #46B5FD",
"y  c #4DB0FA",
"u  c #4EB2FB",
"i  c #4DB4FA",
"p  c #4EB4FA",
"a  c #4DB6FB",
"s  c #4FB5FC",
"d  c #4BBAFF",
"f  c #54B9F1",
"g  c #55B2FB",
"h  c #52B6FB",
"j  c #5EB6F9",
"k  c #76A7F3",
"l  c #34CCFE",
"z  c #23D7FF",
"x  c #48DCFD",
"c  c #48DDFF",
"v  c #50D0FD",
"b  c #60C0EF",
"n  c #68CEFC",
"m  c #60D4FF",
"M  c #69D5FD",
"N  c #62DDFF",
"B  c #79DDFF",
"V  c #4BEEFF",
"C  c #60E0F8",
"Z  c #60EDFF",
"A  c #77E6FE",
"S  c #78E9FE",
"D  c #64FFFF",
"F  c #69FFFF",
"G  c #71F4FE",
"H  c #78F4FE",
"J  c #73FFFF",
"K  c #A2BCF8",
"L  c LightSkyBlue",
"P  c #99CDFB",
"I  c #8DD4FB",
"U  c #99D0FB",
"Y  c #AFDFFE",
"T  c #B3DFFD",
"R  c #99EDFF",
"E  c #83FFFF",
"W  c #93FFFF",
"Q  c #A7E0FA",
"!  c #A6E0FC",
"~  c #A5E7FD",
"^  c #A7F4FF",
"/  c #A5F9FE",
"(  c #A9FFFF",
")  c #B0F1FE",
"_  c #B0FBFF",
"`  c #B7FBFF",
"'  c #B1FFFF",
"]  c #B8FFFF",
"[  c #B9FFFF",
"{  c #BCFFFF",
"}  c #BEFFFF",
"|  c #D5EFFA",
" . c #C1FFFF",
".. c #C2FFFF",
"X. c #C4FFFF",
"o. c #C7FFFF",
"O. c #C9F8FF",
"+. c #C8FFFF",
"@. c #C9FFFF",
"#. c #CFFFFF",
"$. c #D1F4FF",
"%. c #D2FAFF",
"&. c #D8FFFF",
"*. c #D9FFFF",
"=. c #DAFFFF",
"-. c #DCFFFF",
";. c #DDFFFF",
":. c #DEFFFF",
">. c #E0F9FF",
",. c #E2FFFF",
"<. c #E5FFFF",
"1. c #E6FFFF",
"2. c #E7FFFF",
"3. c #E8FFFF",
"4. c #ECFFFF",
"5. c #EDFFFF",
"6. c #EFFFFF",
"7. c #F3FAFF",
"8. c #F1FFFF",
"9. c #F4FFFF",
"0. c #F5FFFF",
"q. c #F7FFFF",
"w. c #F9FDFF",
"e. c #F8FFFF",
"r. c #FDFEFF",
"t. c #FCFFFF",
"y. c #FEFFFF",
"u. c white",
"i. c None",
/* pixels */
"i.i.i.i.i.i.i.i.i.i.i.i.i.i.i.i.i.i.i.i.i.i.i.i.i.i.i.i.i.i.i.i.i.i.i.i.i.i.i.i.",
"i.i.i.i.i.i.i.i.i.i.i.i.i.i.i.i.i.i.i.J f C i.i.i.i.i.i.i.i.i.i.i.i.i.i.i.i.i.i.",
"i.i.i.i.i.i.i.i.i.i.i.i.i.i.i.i.i.i.i.i.+ i.i.i.i.i.i.i.i.i.i.i.i.i.i.i.i.i.i.i.",
"i.i.i.i.i.i.i.i.i.i.i.i.i.i.i.i.i.i.i.i.o i.i.i.i.i.i.i.i.i.i.i.i.i.i.i.i.i.i.i.",
"i.i.i.i.i.i.i.i.i.i.i.i.i.i.i.i.i.i.i.i.: i.i.i.i.i.i.i.i.i.i.i.i.i.i.i.i.i.i.i.",
"i.i.i.i.i.i.i.i.i.i.i.i.i.i.i.i.i.i.i.i.; i.i.i.i.i.i.i.i.i.i.i.i.i.i.i.i.i.i.i.",
"i.i.i.i.i.i.i.i.i.i.i.i.i.i.i.i.i.i.i.i.1 i.i.i.i.i.i.i.i.i.i.i.i.i.i.i.i.i.i.i.",
"i.i.i.i.i.i.i.i.i.i.i.i.i.i.i.i.i.i.i.O h i.i.i.i.i.i.i.i.i.i.i.i.i.i.i.i.i.i.i.",
"i.i.i.i.i.i.i.i.i.i.i.i.i.i.i.i.i.i.i.e - i.i.i.i.i.i.i.i.i.i.i.i.i.i.i.i.i.i.i.",
"i.i.i.i.i.i.i.i.i.i.i.i.i.i.i.i.i.t.6.+.| i.i.i.i.i.i.i.i.i.i.i.i.i.i.i.i.i.i.i.",
"i.i.i.i.i.i.i.i.i.i.i.i.i.i.i.y.u.i.i.x I i.8.:.i.i.i.i.i.i.i.i.i.i.i.i.i.i.i.i.",
"i.i.i.i.i.i.i.i.i.i.i.i.i.i.i.] 4.i.i.t = i.q.X.i.i.i.i.i.i.i.i.i.i.i.i.i.i.i.i.",
"i.i.i.i.i.i.i.i.i.i.i.i.i.i.i.i.i.i.b , 4 i.i.i.i.i.i.i.i.i.i.i.i.i.i.i.i.i.i.i.",
"i.i.i.i.i.i.i.i.i.i.i.i.i.i.i.i.i.i.i.5 3 i.i.i.i.i.i.i.i.i.i.i.i.i.i.i.i.i.i.i.",
"i.i.i.i.i.i.i.i.i.i.i.i.i.i.i.i.i.i.i.8 s i.i.i.i.i.i.i.i.i.i.i.i.i.i.i.i.i.i.i.",
"i.i.i.i.i.i.i.i.i.i.i.i.i.i.i.i.i.i.i.7 w i.i.i.i.i.i.i.i.i.i.i.i.i.i.i.i.i.i.i.",
"i.i.i.i.i.i.i.i.i.i.i.i.i.i.i.i.i.i.i.u y i.i.i.i.i.i.i.i.i.i.i.i.i.i.i.i.i.i.i.",
"i.i.i.i.i.i.i.i.i.i.i.i.i.i.i.i.i.i.i.N p i.i.i.i.i.i.i.i.i.i.i.i.i.i.i.i.i.i.i.",
"i.i.i.i.i.i.i.i.i.i.i.i.i.i.i.i.i.i.i.Z i i.i.i.i.i.i.i.i.i.i.i.i.i.i.i.i.i.i.i.",
"i.i.i.i.i.i.i.i.i.i.i.i.i.i.i.i.i.i.i.Y 9 i.i.i.i.i.i.i.i.i.i.i.i.i.i.i.i.i.i.i.",
"i.i.i.i.i.i.i.i.i.i.i.i.i.i.i.i.i.F G ) S D i.i.i.i.i.i.i.i.i.i.i.i.i.i.i.i.i.i.",
"i.i.i.i.i.i.i.i.i.i.i.i.i.i.i.3.( 2.4./ O.;.@.u.i.i.i.i.i.i.i.i.i.i.i.i.i.i.i.i.",
"i.i.i.i.i.i.i.i.i.i.i.i.i.u.*.W i.i.i.l q i.i.o.' u.i.i.i.i.i.i.i.i.i.i.i.i.i.i.",
"i.i.i.i.i.i.i.i.i.i.i.i.i.i.9.#.i.i.. B > i.<.i.i.i.i.i.i.i.i.i.i.i.i.i.i.i.i.i.",
"i.i.i.i.i.i.i.i.i.i.i.i.i.i.i.i.i.i.@ $.6 & i.i.i.i.i.i.i.i.i.i.i.i.i.i.i.i.i.i.",
"i.i.i.i.i.i.i.i.i.i.i.i.i.i.i.i.i.i.j u.! * i.i.i.i.i.i.i.i.i.i.i.i.i.i.i.i.i.i.",
"i.i.i.i.i.i.i.i.i.i.i.i.i.i.i.i.i.  K u.' 2 i.i.i.i.i.i.i.i.i.i.i.i.i.i.i.i.i.i.",
"i.i.i.i.i.i.i.i.i.i.i.i.i.i.i.i.i.# n w.U X i.i.i.i.i.i.i.i.i.i.i.i.i.i.i.i.i.i.",
"i.i.i.i.i.i.i.i.i.i.i.i.i.i.i.i.i.d r T 0 $ i.i.i.i.i.i.i.i.i.i.i.i.i.i.i.i.i.i.",
"i.i.i.i.i.i.i.i.i.i.i.i.i.i.i.i.i.H L ~ P % a i.i.i.i.i.i.i.i.i.i.i.i.i.i.i.i.i.",
"i.i.i.i.i.i.i.i.i.i.i.i.i.i.i.i.k &.E 5.u.M v i.i.i.i.i.i.i.i.i.i.i.i.i.i.i.i.i.",
"i.i.i.i.i.i.i.i.i.i.i.i.i.i.i.i.Q u.,.e.u.{ R i.i.i.i.i.i.i.i.i.i.i.i.i.i.i.i.i.",
"i.i.i.i.i.i.i.i.i.i.i.i.i.i.i.< 7.u.u.u.u.0.%.g i.i.i.i.i.i.i.i.i.i.i.i.i.i.i.i.",
"i.i.i.i.i.i.i.i.i.i.i.i.i.i.i.i.A e.u.u.y.u.^ c i.i.i.i.i.i.i.i.i.i.i.i.i.i.i.i.",
"i.i.i.i.i.i.i.i.i.i.i.i.i.i.i.i.z _ 1.} :.r.m i.i.i.i.i.i.i.i.i.i.i.i.i.i.i.i.i.",
"i.i.i.i.i.i.i.i.i.i.i.i.i.i.i.i.i.i.V ` >.i.i.i.i.i.i.i.i.i.i.i.i.i.i.i.i.i.i.i.",
"i.i.i.i.i.i.i.i.i.i.i.i.i.i.i.i.i.i.i.i.i.i.i.i.i.i.i.i.i.i.i.i.i.i.i.i.i.i.i.i.",
"i.i.i.i.i.i.i.i.i.i.i.i.i.i.i.i.@.=...[  .&.-.i.i.i.i.i.i.i.i.i.i.i.i.i.i.i.i.i.",
"i.i.i.i.i.i.i.i.i.i.i.i.i.i.i.i.i.i.i.i.i.i.i.i.i.i.i.i.i.i.i.i.i.i.i.i.i.i.i.i.",
"i.i.i.i.i.i.i.i.i.i.i.i.i.i.i.i.i.i.i.i.i.i.i.i.i.i.i.i.i.i.i.i.i.i.i.i.i.i.i.i."
};
