/* XPM */
static char *result[] = {
/* columns rows colors chars-per-pixel */
"40 40 154 2 ",
"   c #3D58D3",
".  c #3B59D7",
"X  c #3655D8",
"o  c #1F62E6",
"O  c #0D6FF1",
"+  c #3664E2",
"@  c #3A71E3",
"#  c #2B6DF3",
"$  c #317CF3",
"%  c #347CF1",
"&  c #0E97F6",
"*  c #3A81EE",
"=  c #2780F4",
"-  c #2782F4",
";  c #2683F6",
":  c #2883F5",
">  c #2387FB",
",  c #3280F4",
"<  c #3384F5",
"1  c #3385F7",
"2  c #3584F4",
"3  c #3786F4",
"4  c #378AF5",
"5  c #3D89F6",
"6  c #358BF8",
"7  c #2790F7",
"8  c #3E95F6",
"9  c #36A4FA",
"0  c #39ABF9",
"q  c #3EADFA",
"w  c #25B2FB",
"e  c #3DB5FD",
"r  c #38B8FF",
"t  c #539AE2",
"y  c #449AF4",
"u  c #7F9AEE",
"i  c #48A6F7",
"p  c #4AA9F1",
"a  c #43A0F8",
"s  c #45A6FA",
"d  c #47AAFB",
"f  c #44AEFA",
"g  c #48A9F9",
"h  c #49AAF9",
"j  c #4FA8FA",
"k  c #4EAFFA",
"l  c #58ACF7",
"z  c #53A6F9",
"x  c #42B4F9",
"c  c #4AB0FB",
"v  c #4DB4FC",
"b  c #4BBCFB",
"n  c #54B5FB",
"m  c #51B9FB",
"M  c #50BCFA",
"N  c #53BDFB",
"B  c #49CDFF",
"V  c #5AC2FA",
"C  c #5BC9FD",
"Z  c #5DCDFE",
"A  c #5DCFFE",
"S  c #5ED5FE",
"D  c #56D9FD",
"F  c #57DCFD",
"G  c #78C7FE",
"H  c #4EE9FF",
"J  c #55E4FF",
"K  c #57E6FF",
"L  c #5BE1FE",
"P  c #4BF5FF",
"I  c #57FFFF",
"U  c #5FFFFF",
"Y  c #61E1FE",
"T  c #6CE3FE",
"R  c #69E4FF",
"E  c #69E6FF",
"W  c #6AECFF",
"Q  c #65FFFF",
"!  c #68F9FF",
"~  c #6DF9FF",
"^  c #77F9FF",
"/  c #7EFFFF",
"(  c #97C6FC",
")  c #89DCFF",
"_  c #95D0FB",
"`  c #95D1FC",
"'  c #97DBFD",
"]  c #A5DEF6",
"[  c #B5D7FB",
"{  c #B1D4FC",
"}  c #81FFFF",
"|  c #84FFFF",
" . c #8AFFFF",
".. c #99F2FF",
"X. c #97FFFF",
"o. c #AAE9FF",
"O. c #B6E0FC",
"+. c #B8E0FC",
"@. c #A0F0FF",
"#. c #A6F8FF",
"$. c #A7F8FF",
"%. c #A7FAFF",
"&. c #A3FFFF",
"*. c #A5FFFF",
"=. c #A8FEFF",
"-. c #A9FFFF",
";. c #ADFFFF",
":. c #B3FAFF",
">. c #B2FFFF",
",. c #B6FFFF",
"<. c #B9FDFE",
"1. c #B8FFFF",
"2. c #BBFFFF",
"3. c #BCFFFF",
"4. c #CFE2FC",
"5. c #CBEFFF",
"6. c #C0F7FF",
"7. c #C1FFFF",
"8. c #C3FFFF",
"9. c #C4FFFF",
"0. c #C7FFFF",
"q. c #C8FFFF",
"w. c #CEFFFF",
"e. c #D0F7FF",
"r. c #DBF5FF",
"t. c #D1FFFF",
"y. c #D3FFFF",
"u. c #D4FFFF",
"i. c #D9FFFF",
"p. c #DCFFFF",
"a. c #DDFFFF",
"s. c #DEFFFF",
"d. c #E9F0FE",
"f. c #E3FBFF",
"g. c #E1FFFF",
"h. c #E2FFFF",
"j. c #E4FFFF",
"k. c #E9FAFF",
"l. c #E9FFFF",
"z. c #EDFCFF",
"x. c #EDFEFF",
"c. c #ECFFFF",
"v. c #EEFFFF",
"b. c #F2FFFF",
"n. c #F4FFFF",
"m. c #F6FFFF",
"M. c #FFFBFF",
"N. c #F8FFFF",
"B. c #FAFFFF",
"V. c #FCFFFF",
"C. c #FDFFFF",
"Z. c #FFFEFF",
"A. c white",
"S. c None",
/* pixels */
"S.S.S.S.S.S.S.S.S.S.S.S.S.S.S.S.S.S.S.S.S.S.S.S.S.S.S.S.S.S.S.S.S.S.S.S.S.S.S.S.",
"S.S.S.S.S.S.S.S.S.S.S.S.S.S.S.S.S.S.S.S.S.S.S.S.S.S.S.S.S.S.S.S.S.S.S.S.S.S.S.S.",
"S.S.S.S.S.S.S.S.S.S.S.S.S.S.S.S.S.S.S.S.S.S.S.S.S.S.S.S.S.S.S.S.S.S.S.S.S.S.S.S.",
"S.S.S.S.S.S.S.S.S.S.S.S.S.S.S.S.S.S.S.S.S.S.S.S.S.S.S.S.S.S.S.S.S.S.S.S.S.S.S.S.",
"S.S.S.S.S.S.S.S.S.S.S.S.S.S.S.S.S.S.S.S.S.S.S.S.S.S.S.S.S.S.S.S.S.S.S.S.S.S.S.S.",
"S.S.S.S.S.S.S.S.S.S.S.S.S.S.S.S.S.S.S.S.S.S.S.S.S.S.S.S.S.S.S.S.S.S.S.S.S.S.S.S.",
"S.S.S.S.S.S.S.S.S.S.S.S.S.S.S.j.;.U I i.B.c.S.S.S.S.S.S.S.S.S.S.S.S.S.S.S.S.S.S.",
"S.S.S.S.S.S.S.S.S.S.S.S.S.S.n. .S.S.S.S.S./ b.A.S.S.S.S.S.S.S.S.S.S.S.S.S.S.S.S.",
"S.S.S.S.S.S.S.S.S.S.S.S.S.A.V.} S.S.S.S.o H i.A.S.S.S.S.S.S.S.S.S.S.S.S.S.S.S.S.",
"S.S.S.S.S.S.S.S.S.S.S.S.S.S.1.N.9.Q S.+ > 4.S.S.S.S.S.S.S.S.S.S.S.S.S.S.S.S.S.S.",
"S.S.S.S.S.S.S.S.S.S.S.S.S.S.S.S.S.S.. 3 ; S.S.S.S.S.S.S.S.S.S.S.S.S.S.S.S.S.S.S.",
"S.S.S.S.S.S.S.S.S.S.S.S.S.S.S.S.S.S.% 6 4 S.S.S.S.S.S.S.S.S.S.S.S.S.S.S.S.S.S.S.",
"S.S.S.S.S.S.S.S.S.S.S.S.S.S.S.S.S.S.i s $ S.S.S.S.S.S.S.S.S.S.S.S.S.S.S.S.S.S.S.",
"S.S.S.S.S.S.S.S.S.S.S.S.S.S.S.S.S.  y d 8 S.S.S.S.S.S.S.S.S.S.S.S.S.S.S.S.S.S.S.",
"S.S.S.S.S.S.S.S.S.S.S.S.S.S.S.S.S.* 2 a N S.S.S.S.S.S.S.S.S.S.S.S.S.S.S.S.S.S.S.",
"S.S.S.S.S.S.S.S.S.S.S.S.S.S.S.S.S.1 g m h S.S.S.S.S.S.S.S.S.S.S.S.S.S.S.S.S.S.S.",
"S.S.S.S.S.S.S.S.S.S.S.S.S.S.S.S.S.# x D j S.S.S.S.S.S.S.S.S.S.S.S.S.S.S.S.S.S.S.",
"S.S.S.S.S.S.S.S.S.S.S.S.S.S.S.S.S.& l | w S.S.S.S.S.S.S.S.S.S.S.S.S.S.S.S.S.S.S.",
"S.S.S.S.S.S.S.S.S.S.S.S.S.S.S.S.b.=.<.3.&.x.S.S.S.S.S.S.S.S.S.S.S.S.S.S.S.S.S.S.",
"S.S.S.S.S.S.S.S.S.S.S.S.S.A.p.A.] u @.$.( O.w.l.A.S.S.S.S.S.S.S.S.S.S.S.S.S.S.S.",
"S.S.S.S.S.S.S.S.S.S.S.S.h.>.X.S.S.O B K 9 S.S.*.a.c.a.S.S.S.S.S.S.S.S.S.S.S.S.S.",
"S.S.S.S.S.S.S.S.S.S.S.S.s.t.1.S.S.: A E k S.S.2.v.s.S.S.S.S.S.S.S.S.S.S.S.S.S.S.",
"S.S.S.S.S.S.S.S.S.S.S.S.S.S.y.A.+.- Z R f [ b.A.S.S.S.S.S.S.S.S.S.S.S.S.S.S.S.S.",
"S.S.S.S.S.S.S.S.S.S.S.S.S.S.S.S.S.= S W q S.S.S.S.S.S.S.S.S.S.S.S.S.S.S.S.S.S.S.",
"S.S.S.S.S.S.S.S.S.S.S.S.S.S.S.S.S.< Y ~ c S.S.S.S.S.S.S.S.S.S.S.S.S.S.S.S.S.S.S.",
"S.S.S.S.S.S.S.S.S.S.S.S.S.S.S.S.S.5 L ! n S.S.S.S.S.S.S.S.S.S.S.S.S.S.S.S.S.S.S.",
"S.S.S.S.S.S.S.S.S.S.S.S.S.S.S.S.S., T ^ v S.S.S.S.S.S.S.S.S.S.S.S.S.S.S.S.S.S.S.",
"S.S.S.S.S.S.S.S.S.S.S.S.S.S.S.S.S.7 ' #.r X S.S.S.S.S.S.S.S.S.S.S.S.S.S.S.S.S.S.",
"S.S.S.S.S.S.S.S.S.S.S.S.S.S.S.S.t 0 { 8.e @ S.S.S.S.S.S.S.S.S.S.S.S.S.S.S.S.S.S.",
"S.S.S.S.S.S.S.S.S.S.S.S.S.S.S.C p F d.A.V b S.S.S.S.S.S.S.S.S.S.S.S.S.S.S.S.S.S.",
"S.S.S.S.S.S.S.S.S.S.S.S.S.S.S.P G 7.,.A.:._ z S.S.S.S.S.S.S.S.S.S.S.S.S.S.S.S.S.",
"S.S.S.S.S.S.S.S.S.S.S.S.S.S.S.%.-.A.A.A.C.` M S.S.S.S.S.S.S.S.S.S.S.S.S.S.S.S.S.",
"S.S.S.S.S.S.S.S.S.S.S.S.S.S.S.) r.A.A.A.A.5.o.S.S.S.S.S.S.S.S.S.S.S.S.S.S.S.S.S.",
"S.S.S.S.S.S.S.S.S.S.S.S.S.S.>.k.z.A.A.A.A.f.e.S.S.S.S.S.S.S.S.S.S.S.S.S.S.S.S.S.",
"S.S.S.S.S.S.S.S.S.S.S.S.l.g.S.S.S...v.Z.u.J S.S.y.p.A.S.S.S.S.S.S.S.S.S.S.S.S.S.",
"S.S.S.S.S.S.S.S.S.S.S.A.n.N.S.S.S.S.6.M.S.S.S.S.q.c.S.S.S.S.S.S.S.S.S.S.S.S.S.S.",
"S.S.S.S.S.S.S.S.S.S.S.S.S.A.n.0.m.S.S.S.S.m.0.n.A.S.S.S.S.S.S.S.S.S.S.S.S.S.S.S.",
"S.S.S.S.S.S.S.S.S.S.S.S.S.S.S.S.S.S.S.S.S.S.S.S.S.S.S.S.S.S.S.S.S.S.S.S.S.S.S.S.",
"S.S.S.S.S.S.S.S.S.S.S.S.S.S.S.S.S.S.S.S.S.S.S.S.S.S.S.S.S.S.S.S.S.S.S.S.S.S.S.S.",
"S.S.S.S.S.S.S.S.S.S.S.S.S.S.S.S.S.S.S.S.S.S.S.S.S.S.S.S.S.S.S.S.S.S.S.S.S.S.S.S."
};
