/* XPM */
static char *result[] = {
/* columns rows colors chars-per-pixel */
"40 40 126 2 ",
"   c #194FD6",
".  c #2F5CDE",
"X  c #3956D9",
"o  c #2A73E4",
"O  c #3273E9",
"+  c #2B67F1",
"@  c #256BF1",
"#  c #2375F3",
"$  c #1883F5",
"%  c #2083EB",
"&  c #3A81EE",
"*  c #2182F4",
"=  c #2F81F5",
"-  c #3584F4",
";  c #388DF7",
":  c #299EF7",
">  c #389EF7",
",  c #3C97FB",
"<  c #3D99F9",
"1  c #3F9BF9",
"2  c #3F9DFD",
"3  c #35AAFD",
"4  c #498BDF",
"5  c #4F89E1",
"6  c #4494ED",
"7  c #5194E7",
"8  c #4798F0",
"9  c #489FF3",
"0  c #439FF9",
"q  c #47A7F4",
"w  c #47A3F9",
"e  c #45A5F9",
"r  c #46ABFC",
"t  c #4CAFFA",
"y  c #4FAFFA",
"u  c #57A4F6",
"i  c #44B7FA",
"p  c #4CB0FA",
"a  c #4DB2FA",
"s  c #4DB2FB",
"d  c #4DB4FA",
"f  c #4EB6FA",
"g  c #4AB4FE",
"h  c #4CB4FC",
"j  c #4FB9FC",
"k  c #69BDFA",
"l  c #3DDCFF",
"z  c #46C4FB",
"x  c #58CCF6",
"c  c #49D3FE",
"v  c #54D2FD",
"b  c #50DFFF",
"n  c #77CAFA",
"m  c #66D4FD",
"M  c #69D1FC",
"N  c #62DDFF",
"B  c #72DAFC",
"V  c #74D9FF",
"C  c #7BDDFF",
"Z  c #52E6FF",
"A  c #5FECFF",
"S  c #69E5FD",
"D  c #77E2FD",
"F  c #78ECFE",
"G  c #68FFFF",
"H  c #6CFFFF",
"J  c #71F6FF",
"K  c #9FB8F8",
"L  c #88CDFA",
"P  c #99CCFB",
"I  c #95D7FA",
"U  c #98D0FB",
"Y  c #B3D6FB",
"T  c #B5DFFD",
"R  c #81FFFF",
"E  c #82FFFF",
"W  c #9DFFFF",
"Q  c #9EFFFF",
"!  c #A8E1FD",
"~  c #A5E8FD",
"^  c #B4E8FF",
"/  c #A4F4FF",
"(  c #A9F6FF",
")  c #AEF8FF",
"_  c #AAFFFF",
"`  c #B7F2FE",
"'  c #BBF1FF",
"]  c #BCF2FE",
"[  c #B1FBFF",
"{  c #B7F9FF",
"}  c #B0FCFF",
"|  c #B0FFFF",
" . c #B3FEFF",
".. c #B2FFFF",
"X. c #B3FFFF",
"o. c #B8FFFF",
"O. c #B9FFFF",
"+. c #BAFFFF",
"@. c #BCFFFF",
"#. c #BEFFFF",
"$. c #C1FFFF",
"%. c #C3FFFF",
"&. c #CAFDFF",
"*. c #C9FFFF",
"=. c #CBFFFF",
"-. c #CCFFFF",
";. c #DBF3FF",
":. c #D3FAFF",
">. c #D6F8FF",
",. c #DDFFFF",
"<. c #DEFFFF",
"1. c LightCyan",
"2. c #E2FFFF",
"3. c #E4FFFF",
"4. c #E5FFFF",
"5. c #E6FFFF",
"6. c #E8FCFC",
"7. c #ECFFFF",
"8. c #EEFFFF",
"9. c #F4F8FE",
"0. c #F5FFFF",
"q. c #F7FFFF",
"w. c #F9FDFF",
"e. c #F8FFFF",
"r. c white",
"t. c None",
/* pixels */
"t.t.t.t.t.t.t.t.t.t.t.t.t.t.t.t.t.t.t.t.t.t.t.t.t.t.t.t.t.t.t.t.t.t.t.t.t.t.t.t.",
"t.t.t.t.t.t.t.t.t.t.t.t.t.t.t.t.t.t.t.t.t.t.t.t.t.t.t.t.t.t.t.t.t.t.t.t.t.t.t.t.",
"t.t.t.t.t.t.t.t.t.t.t.t.t.t.t.t.t.t.t.t.t.t.t.t.t.t.t.t.t.t.t.t.t.t.t.t.t.t.t.t.",
"t.t.t.t.t.t.t.t.t.t.t.t.t.t.t.t.t.t.t.t.t.t.t.t.t.t.t.t.t.t.t.t.t.t.t.t.t.t.t.t.",
"t.t.t.t.t.t.t.t.t.t.t.t.t.t.t.t.t.t.t.t.t.t.t.t.t.t.t.t.t.t.t.t.t.t.t.t.t.t.t.t.",
"t.t.t.t.t.t.t.t.t.t.t.t.t.t.t.t.t.t.t.t.t.t.t.t.t.t.t.t.t.t.t.t.t.t.t.t.t.t.t.t.",
"t.t.t.t.t.t.t.t.t.t.t.t.t.t.t.t.t.t.t.t.t.t.t.t.t.t.t.t.t.t.t.t.t.t.t.t.t.t.t.t.",
"t.t.t.t.t.t.t.t.t.t.t.t.t.t.t.t.t.t.t.t.t.t.t.t.t.t.t.t.t.t.t.t.t.t.t.t.t.t.t.t.",
"t.t.t.t.t.t.t.t.t.t.t.t.t.t.t.t.t.t.t.t.t.t.t.t.t.t.t.t.t.t.t.t.t.t.t.t.t.t.t.t.",
"t.t.t.t.t.t.t.t.t.t.t.t.t.t.t.t.t.t.t.t.t.t.t.t.t.t.t.t.t.t.t.t.t.t.t.t.t.t.t.t.",
"t.t.t.t.t.t.t.t.t.t.t.t.t.t.t.t.t.t.t.t.t.t.t.t.t.t.t.t.t.t.t.t.t.t.t.t.t.t.t.t.",
"t.t.t.t.t.t.t.t.t.t.t.t.t.t.t.t.t.t.t.t.t.t.t.t.t.t.t.t.t.t.t.t.t.t.t.t.t.t.t.t.",
"t.t.t.t.t.t.t.t.t.t.t.t.t.t.t.t.t.t.t.t.t.t.t.t.t.t.t.t.t.t.t.t.t.t.t.t.t.t.t.t.",
"t.t.t.t.t.t.t.t.t.t.t.t.t.t.t.t.t.t.t.t.t.t.t.t.t.t.t.t.t.t.t.t.t.t.t.t.t.t.t.t.",
"t.t.t.t.t.t.t.t.t.t.t.t.t.t.t.t.t.r.t.t.t.t.t.t.t.t.t.t.t.t.t.t.t.t.t.t.t.t.t.t.",
"t.t.t.t.t.t.t.t.t.t.t.t.t.t.t.t.t.@.t.t.t.t.t.t.t.t.t.t.t.t.t.t.t.t.t.t.t.t.t.t.",
"t.t.t.t.t.t.b y t.t.t.t.t.t.t.t.t.W r.t.t.t.t.t.t.t.t.t...=.t.t.t.t.t.t.t.t.t.t.",
"t.t._ t.t.V / :.( v j t.t.t.t.t.*.t.-.t.t.t.t.t.t.t.t.t.7.r.t.t.t.t.t.t.t.t.t.t.",
"t.t.3.t.t.r.r.0.[ m # @ * : $ X t.t.` S t.t.t.t.t.t.t.t.t.t.t.t.t.t.t.t.t.t.x t.",
"t.t.%.t.;.<.r.r.r.r.P e U | ! u > < ] D w f a p t h g 3 % n 6.7 d 1 - ; & + 6 t.",
"t.t.o.t.&.+.r.r.e.8.~ T w.r.r.>.C c  .) ^ A N s 0 9 8 q , z } 2 5 t.t.t.t.t.H t.",
"t.t.$.t.Z 4.r.r.2.R L i M K k o . t.' B t.t.t.t.t.t.t.4 t.t.3.t.t.t.t.t.t.t.t.t.",
"t.t.1.t.t.{ q.r.r.-.J r O   t.t.t.t.#.E t.t.t.t.t.t.t.t.t.t.r.t.t.t.t.t.t.t.t.t.",
"t.t.O.t.t.l F 9.I Y t.t.t.t.t.t.t.t.X.t.t.t.t.t.t.t.t.t.,.r.t.t.t.t.t.t.t.t.t.t.",
"t.t.t.t.t.t.t.= t.t.t.t.t.t.t.t.o.G 5.t.t.t.t.t.t.t.t.t.Q r.t.t.t.t.t.t.t.t.t.t.",
"t.t.t.t.t.t.t.t.t.t.t.t.t.t.t.t.7.@.t.t.t.t.t.t.t.t.t.t.t.t.t.t.t.t.t.t.t.t.t.t.",
"t.t.t.t.t.t.t.t.t.t.t.t.t.t.t.t.t.r.t.t.t.t.t.t.t.t.t.t.t.t.t.t.t.t.t.t.t.t.t.t.",
"t.t.t.t.t.t.t.t.t.t.t.t.t.t.t.t.t.t.t.t.t.t.t.t.t.t.t.t.t.t.t.t.t.t.t.t.t.t.t.t.",
"t.t.t.t.t.t.t.t.t.t.t.t.t.t.t.t.t.t.t.t.t.t.t.t.t.t.t.t.t.t.t.t.t.t.t.t.t.t.t.t.",
"t.t.t.t.t.t.t.t.t.t.t.t.t.t.t.t.t.t.t.t.t.t.t.t.t.t.t.t.t.t.t.t.t.t.t.t.t.t.t.t.",
"t.t.t.t.t.t.t.t.t.t.t.t.t.t.t.t.t.t.t.t.t.t.t.t.t.t.t.t.t.t.t.t.t.t.t.t.t.t.t.t.",
"t.t.t.t.t.t.t.t.t.t.t.t.t.t.t.t.t.t.t.t.t.t.t.t.t.t.t.t.t.t.t.t.t.t.t.t.t.t.t.t.",
"t.t.t.t.t.t.t.t.t.t.t.t.t.t.t.t.t.t.t.t.t.t.t.t.t.t.t.t.t.t.t.t.t.t.t.t.t.t.t.t.",
"t.t.t.t.t.t.t.t.t.t.t.t.t.t.t.t.t.t.t.t.t.t.t.t.t.t.t.t.t.t.t.t.t.t.t.t.t.t.t.t.",
"t.t.t.t.t.t.t.t.t.t.t.t.t.t.t.t.t.t.t.t.t.t.t.t.t.t.t.t.t.t.t.t.t.t.t.t.t.t.t.t.",
"t.t.t.t.t.t.t.t.t.t.t.t.t.t.t.t.t.t.t.t.t.t.t.t.t.t.t.t.t.t.t.t.t.t.t.t.t.t.t.t.",
"t.t.t.t.t.t.t.t.t.t.t.t.t.t.t.t.t.t.t.t.t.t.t.t.t.t.t.t.t.t.t.t.t.t.t.t.t.t.t.t.",
"t.t.t.t.t.t.t.t.t.t.t.t.t.t.t.t.t.t.t.t.t.t.t.t.t.t.t.t.t.t.t.t.t.t.t.t.t.t.t.t.",
"t.t.t.t.t.t.t.t.t.t.t.t.t.t.t.t.t.t.t.t.t.t.t.t.t.t.t.t.t.t.t.t.t.t.t.t.t.t.t.t.",
"t.t.t.t.t.t.t.t.t.t.t.t.t.t.t.t.t.t.t.t.t.t.t.t.t.t.t.t.t.t.t.t.t.t.t.t.t.t.t.t."
};
