/* XPM */
static char *result[] = {
/* columns rows colors chars-per-pixel */
"40 40 167 2 ",
"   c #3C5FD9",
".  c #3C64DB",
"X  c #3E68DC",
"o  c #205FE8",
"O  c #0761F2",
"+  c #0D6FF4",
"@  c #1A74F4",
"#  c #3064EC",
"$  c #2674E3",
"%  c #2E71EE",
"&  c #3675E6",
"*  c #3870E6",
"=  c #377BEB",
"-  c #377BEF",
";  c #267CF4",
":  c #2A7EF6",
">  c #2F7EF4",
",  c #3C7FF4",
"<  c #626CE1",
"1  c #2689F4",
"2  c #2785F8",
"3  c #3380F4",
"4  c #3481F4",
"5  c #3680F4",
"6  c #3B84F0",
"7  c #3884F2",
"8  c #368AF8",
"9  c #2990F7",
"0  c #2C93F7",
"q  c #2793F8",
"w  c #3396F7",
"e  c #3F97F7",
"r  c #3A92F8",
"t  c #3D9BFA",
"y  c #3899FC",
"u  c #36A0F8",
"i  c #3AA6F9",
"p  c #2DB9F3",
"a  c #2FB3F9",
"s  c #37B0FB",
"d  c #4694F7",
"f  c #409FF8",
"g  c #449EF8",
"h  c #459EF8",
"j  c #43A0F8",
"k  c #40A1FB",
"l  c #44A0F8",
"z  c #47A2F8",
"x  c #46A5F9",
"c  c #4CADF9",
"v  c #57A7F8",
"b  c #4EBCFF",
"n  c #51BEFD",
"m  c #53BFFD",
"M  c #51BDFE",
"N  c #71A1E5",
"B  c #65BBFB",
"V  c #15C7FC",
"C  c #3ADDFF",
"Z  c #47C7FD",
"A  c #45C8FC",
"S  c #49C9FD",
"D  c #52C0FD",
"F  c #56C3FD",
"G  c #55C5FC",
"H  c #59DBFF",
"J  c #7BCFFC",
"K  c #65D7FF",
"L  c #62DAFF",
"P  c #66D8FD",
"I  c #65DCFF",
"U  c #66DFFF",
"Y  c #71D6FF",
"T  c #4CE1FF",
"R  c #57E5FF",
"E  c #51EBFF",
"W  c #5EE9FF",
"Q  c #46FFFF",
"!  c #5CFFFF",
"~  c #5DFFFF",
"^  c #61E3FF",
"/  c #63E3FF",
"(  c #66E0FF",
")  c #68E3FF",
"_  c #6FE7FD",
"`  c #6DE6FF",
"'  c #65EEFE",
"]  c #74E4FF",
"[  c #69F2FE",
"{  c #74F2FF",
"}  c #7DFFFF",
"|  c #81A4F4",
" . c #81CBFB",
".. c #8DCAFA",
"X. c #9DC0FA",
"o. c #99D5FD",
"O. c #A6CFFB",
"+. c #ACD7FC",
"@. c #81EBFF",
"#. c #81FFFF",
"$. c #83FFFF",
"%. c #86FFFF",
"&. c #8FFFFF",
"*. c #9EF4FF",
"=. c #91FFFF",
"-. c #98FFFF",
";. c #9CFFFF",
":. c #A3EBFF",
">. c #B2E2FD",
",. c #B1E7FF",
"<. c #B4E5FF",
"1. c #ACF2FF",
"2. c #A0FFFF",
"3. c #A1FFFF",
"4. c #A3FEFE",
"5. c #ABFCFF",
"6. c #A9FFFF",
"7. c #ACFFFF",
"8. c #ADFFFF",
"9. c #B0F7FA",
"0. c #B2F1FE",
"q. c #B4FBFF",
"w. c #B0FFFF",
"e. c #B4FFFF",
"r. c #B5FFFF",
"t. c #B8F8FF",
"y. c #BAFFFF",
"u. c #BFFFFF",
"i. c #C3DCF5",
"p. c #DAEBFD",
"a. c #CAF3FF",
"s. c #C0FDFE",
"d. c #C0FEFF",
"f. c #C2FFFF",
"g. c #C3FFFF",
"h. c #C4FFFF",
"j. c #CBFFFF",
"k. c #CCFFFF",
"l. c #D1F6FE",
"z. c #D0FFFF",
"x. c #D1FFFF",
"c. c #D4FFFF",
"v. c #D5FFFF",
"b. c #D6FFFF",
"n. c #D9FFFF",
"m. c #DCFFFF",
"M. c #DDFFFF",
"N. c #E5F3FE",
"B. c #EEF6FF",
"V. c #E1FFFF",
"C. c #E3FFFF",
"Z. c #E5FFFF",
"A. c #E6FFFF",
"S. c #E8FFFF",
"D. c #E9FFFF",
"F. c #EAFFFF",
"G. c #ECFFFF",
"H. c #F7F8FE",
"J. c #F1FFFF",
"K. c #F2FFFF",
"L. c #F3FFFF",
"P. c #F5FFFF",
"I. c #FAFFFF",
"U. c #FDFFFF",
"Y. c #FEFFFF",
"T. c white",
"R. c None",
/* pixels */
"R.R.R.R.R.R.R.R.R.R.R.R.R.R.R.R.R.R.R.R.R.R.R.R.R.R.R.R.R.R.R.R.R.R.R.R.R.R.R.R.",
"R.R.R.R.R.R.R.R.R.R.R.R.R.R.R.R.R.R.R.R.R.R.R.R.R.R.R.R.R.R.R.R.R.R.R.R.R.R.R.R.",
"R.R.R.R.R.R.R.R.R.R.R.R.R.R.R.R.R.R.R.R.R.R.R.R.R.R.R.R.R.R.R.R.R.R.R.R.R.R.R.R.",
"R.R.R.R.R.R.R.R.R.R.R.R.R.R.R.R.R.R.R.R.R.R.R.R.R.R.R.R.R.R.R.R.R.R.R.R.R.R.R.R.",
"R.R.R.R.R.R.R.R.R.R.R.R.R.R.R.R.R.R.R.R.R.R.R.R.R.R.R.R.R.R.R.R.R.R.R.R.R.R.R.R.",
"R.R.R.R.R.R.R.R.R.R.R.R.R.R.R.R.R.} M.R.i.c.R.R.R.R.R.R.R.R.R.R.R.R.R.R.R.R.R.R.",
"R.R.R.R.R.R.R.R.R.R.R.R.R.R.R.R.k.2.R.R.$ a s.T.R.R.R.R.R.R.R.R.R.R.R.R.R.R.R.R.",
"R.R.R.R.R.R.R.R.R.R.R.R.R.R.R.R.R.T.R.p 2 < 9.R.R.R.R.R.R.R.R.R.R.R.R.R.R.R.R.R.",
"R.R.R.R.R.R.R.R.R.R.R.R.R.R.R.R.R.R.R.& y , R.R.R.R.R.R.R.R.R.R.R.R.R.R.R.R.R.R.",
"R.R.R.R.R.R.R.R.R.R.R.R.R.R.R.R.R.R.R.6 8 = R.R.R.R.R.R.R.R.R.R.R.R.R.R.R.R.R.R.",
"R.R.R.R.R.R.R.R.R.R.R.R.R.R.R.R.R.R.R.r e 7 R.R.R.R.R.R.R.R.R.R.R.R.R.R.R.R.R.R.",
"R.R.R.R.R.R.R.R.R.R.R.R.R.R.R.R.R.R.. k D * R.R.R.R.R.R.R.R.R.R.R.R.R.R.R.R.R.R.",
"R.R.R.R.R.R.R.R.R.R.R.R.R.R.R.R.R.R.X t b   R.R.R.R.R.R.R.R.R.R.R.R.R.R.R.R.R.R.",
"R.R.R.R.R.R.R.R.R.R.R.R.R.R.R.R.R.R.% n F - R.R.R.R.R.R.R.R.R.R.R.R.R.R.R.R.R.R.",
"R.R.R.R.R.R.R.R.R.R.R.R.R.R.R.R.R.R.: G Z + R.R.R.R.R.R.R.R.R.R.R.R.R.R.R.R.R.R.",
"R.R.R.R.R.R.R.R.R.R.R.R.R.R.R.R.R.&.I.T.4...R.R.R.R.R.R.R.R.R.R.R.R.R.R.R.R.R.R.",
"R.R.R.R.R.R.R.R.R.R.R.R.R.R.r.J.T.R.X.o.1.+.H.T.R.R.R.R.R.R.R.R.R.R.R.R.R.R.R.R.",
"R.R.R.R.R.R.R.R.R.R.R.R.R.Y.F.7.R.R.O s T d R.8.T.R.R.R.R.R.R.R.R.R.R.R.R.R.R.R.",
"R.R.R.R.R.R.R.R.R.R.R.R.R.Y.D.r.R.R.# m ` u R.u.T.R.R.R.R.R.R.R.R.R.R.R.R.R.R.R.",
"R.R.R.R.R.R.R.R.R.R.R.R.R.R.R.P.c.N o M ^ c N.m.R.R.R.R.R.R.R.R.R.R.R.R.R.R.R.R.",
"R.R.R.R.R.R.R.R.R.R.R.R.R.R.R.R.R.| 1 L H v R.R.R.R.R.R.R.R.R.R.R.R.R.R.R.R.R.R.",
"R.R.R.R.R.R.R.R.R.R.R.R.R.R.R.R.R.@ x ) U w R.R.R.R.R.R.R.R.R.R.R.R.R.R.R.R.R.R.",
"R.R.R.R.R.R.R.R.R.R.R.R.R.R.R.R.R.> l ( ( z R.R.R.R.R.R.R.R.R.R.R.R.R.R.R.R.R.R.",
"R.R.R.R.R.R.R.R.R.R.R.R.R.R.R.R.R.4 l I U j R.R.R.R.R.R.R.R.R.R.R.R.R.R.R.R.R.R.",
"R.R.R.R.R.R.R.R.R.R.R.R.R.R.R.R.R.3 h W / g R.R.R.R.R.R.R.R.R.R.R.R.R.R.R.R.R.R.",
"R.R.R.R.R.R.R.R.R.R.R.R.R.R.R.R.R.5 0 *.] f R.R.R.R.R.R.R.R.R.R.R.R.R.R.R.R.R.R.",
"R.R.R.R.R.R.R.R.R.R.R.R.R.R.R.R.R.; B U.:.i R.R.R.R.R.R.R.R.R.R.R.R.R.R.R.R.R.R.",
"R.R.R.R.R.R.R.R.R.R.R.R.R.R.R.R.R.9 J T.a.q S R.R.R.R.R.R.R.R.R.R.R.R.R.R.R.R.R.",
"R.R.R.R.R.R.R.R.R.R.R.R.R.R.R.#.} _ ' 7.q.P [ R.R.R.R.R.R.R.R.R.R.R.R.R.R.R.R.R.",
"R.R.R.R.R.R.R.R.R.R.R.R.R.T.K.r.n.p.l.8.3.g.V.h.S.T.T.R.R.R.R.R.R.R.R.R.R.R.R.R.",
"R.R.R.R.R.R.R.R.R.R.R.T.x.v.R.R.%.>.0.Q #.I.O.V R.R.G.P.R.R.R.R.R.R.R.R.R.R.R.R.",
"R.R.R.R.R.R.R.R.R.R.R.Z.w.L.R.R.! A.T.j.K.T. .A R.R.b.f.T.R.R.R.R.R.R.R.R.R.R.R.",
"R.R.R.R.R.R.R.R.R.R.R.R.R.v.T.5.E d.T.T.T.z.~ %.C.e.R.R.R.R.R.R.R.R.R.R.R.R.R.R.",
"R.R.R.R.R.R.R.R.R.R.R.R.R.R.R.R.C =.f.-.;.M.t.R R.R.R.R.R.R.R.R.R.R.R.R.R.R.R.R.",
"R.R.R.R.R.R.R.R.R.R.R.R.R.R.R.R.R.@.6.$.y.B.Y R.R.R.R.R.R.R.R.R.R.R.R.R.R.R.R.R.",
"R.R.R.R.R.R.R.R.R.R.R.R.R.R.R.R.R.R.{ <.,.K R.R.R.R.R.R.R.R.R.R.R.R.R.R.R.R.R.R.",
"R.R.R.R.R.R.R.R.R.R.R.R.R.R.R.R.R.R.R.R.R.R.R.R.R.R.R.R.R.R.R.R.R.R.R.R.R.R.R.R.",
"R.R.R.R.R.R.R.R.R.R.R.R.R.R.R.R.R.R.R.R.R.R.R.R.R.R.R.R.R.R.R.R.R.R.R.R.R.R.R.R.",
"R.R.R.R.R.R.R.R.R.R.R.R.R.R.R.R.R.R.R.R.R.R.R.R.R.R.R.R.R.R.R.R.R.R.R.R.R.R.R.R.",
"R.R.R.R.R.R.R.R.R.R.R.R.R.R.R.R.R.R.R.R.R.R.R.R.R.R.R.R.R.R.R.R.R.R.R.R.R.R.R.R."
};
