/* XPM */
static char *result[] = {
/* columns rows colors chars-per-pixel */
"32 32 45 1 ",
"  c #06000B",
". c #17002A",
"X c #23003F",
"o c #28004A",
"O c #2E0054",
"+ c #34005F",
"@ c #4A1742",
"# c #561757",
"$ c #502046",
"% c #552947",
"& c #5C205B",
"* c #60295D",
"= c #6C557F",
"- c #8B4E3F",
"; c #A95837",
": c #A95838",
"> c #CD683D",
", c #9E7047",
"< c #BD7845",
"1 c #D57543",
"2 c #A48028",
"3 c #A48129",
"4 c #A58129",
"5 c #A6822B",
"6 c #CC9F29",
"7 c #DC8637",
"8 c #E18F3B",
"9 c #CCA029",
"0 c #CCA02A",
"q c #CDA02A",
"w c #CDA02B",
"e c #CEA12B",
"r c #D8A033",
"t c #CE984A",
"y c #CE994A",
"u c #ECA142",
"i c #FBB954",
"p c #785594",
"a c #A9A7AC",
"s c #AAAAAA",
"d c #B0AAB5",
"f c #D0C19B",
"g c #BBAACA",
"h c #E8D3C7",
"j c None",
/* pixels */
"jjjjjjjjjjjjjjjjjjjjjjjjjjjjjjjj",
"jjjjjjjjjjjjjjjjjjjjjjjjjjjjjjjj",
"jjjjjjjjjjjjjjjjjjjjjjjjjjjjjjjj",
"jjjjjjjjjjjjjjjjjjjjjjjjjjjjjjjj",
"jjjjjjjjjjjjjjjjjjjjjjjjjjjjjjjj",
"jjjjjjjjjjjjjjjjjjjjjjjjjjjjjjjj",
"jjjjjjjjjjjjjjjjjjjjjjjjjjjjjjjj",
"jjjjjjjjjjjjjjjjjjjjjjjjjjjjjjjj",
"jjjjjjjjjjjjjjjjjjjjjjjjjjjjjjjj",
"jjjjjjjjjjjjjjjjjjjjjjjjjjjjjjjj",
"jjjjjjjjjjjjjjjjjjjjjjjjjjjjjjjj",
"jjjjjjjjjjjjjjjjjjjjjjjjjjjjjjjj",
"jjjjjjjjjjjjjj:>>;jjjjjjjjjjjjjj",
"jjjjjjjjjjjjj-@Xo#-jjjjjjjjjjjjj",
"jjjjjjjjjjjj<$ .o+&<jjjjjjjjjjjj",
"jjjjjjjjjjjy1X.O+oo1tjjjjjjjjjjj",
"j5ewqq4j3ru87==pp==78ur2j3qqqfaj",
"jjjjjjjjjj096hgdsdh666jjjjjjjjjj",
"jjjjjjjjjjjjj,*oX%,jjjjjjjjjjjjj",
"jjjjjjjjjjjjjjtiitjjjjjjjjjjjjjj",
"jjjjjjjjjjjjjjjjjjjjjjjjjjjjjjjj",
"jjjjjjjjjjjjjjjjjjjjjjjjjjjjjjjj",
"jjjjjjjjjjjjjjjjjjjjjjjjjjjjjjjj",
"jjjjjjjjjjjjjjjjjjjjjjjjjjjjjjjj",
"jjjjjjjjjjjjjjjjjjjjjjjjjjjjjjjj",
"jjjjjjjjjjjjjjjjjjjjjjjjjjjjjjjj",
"jjjjjjjjjjjjjjjjjjjjjjjjjjjjjjjj",
"jjjjjjjjjjjjjjjjjjjjjjjjjjjjjjjj",
"jjjjjjjjjjjjjjjjjjjjjjjjjjjjjjjj",
"jjjjjjjjjjjjjjjjjjjjjjjjjjjjjjjj",
"jjjjjjjjjjjjjjjjjjjjjjjjjjjjjjjj",
"jjjjjjjjjjjjjjjjjjjjjjjjjjjjjjjj"
};
