/* XPM */
static char *result[] = {
/* columns rows colors chars-per-pixel */
"64 64 85 1 ",
"  c #06000B",
". c #17002A",
"X c #1E1A23",
"o c #211C26",
"O c #241E2A",
"+ c #23003F",
"@ c #27202C",
"# c #29222E",
"$ c #31272F",
"% c #33292F",
"& c #352A31",
"* c #3B2E32",
"= c #3E3133",
"- c #433534",
"; c #4A3634",
": c #473835",
"> c #4A3A35",
", c #533B35",
"< c #5C3C35",
"1 c #603D35",
"2 c #4F413E",
"3 c #544137",
"4 c #584037",
"5 c #52433F",
"6 c #5B4438",
"7 c #6D5727",
"8 c #6B4135",
"9 c #624539",
"0 c #6A403D",
"q c #664E3A",
"w c #6B4E3B",
"e c #794536",
"r c #704638",
"t c #714D3B",
"y c #6E5335",
"u c #6D533B",
"i c #76503C",
"p c #76583D",
"a c #7C5E3E",
"s c #7F603E",
"d c #28004A",
"f c #2E0054",
"g c #34005F",
"h c #4A1742",
"j c #561757",
"k c #502046",
"l c #552947",
"z c #5C205B",
"x c #6B3E46",
"c c #60295D",
"v c #763E5B",
"b c #5C4D48",
"n c #7A5B49",
"m c #665750",
"M c #6C5C55",
"N c #7F654A",
"B c #79685D",
"V c #7E6E63",
"C c #8B4E3F",
"Z c #85583F",
"A c #A95837",
"S c #A95838",
"D c #A77B38",
"F c #CD683D",
"G c #906C41",
"H c #9E7047",
"J c #AD7B43",
"K c #BD7845",
"L c #B97B58",
"P c #806F63",
"I c #D57543",
"U c #A58129",
"Y c #CC9F29",
"T c #DC8637",
"R c #E18F3B",
"E c #CDA02A",
"W c #D8A033",
"Q c #928071",
"! c #CE984A",
"~ c #ECA142",
"^ c #E4A843",
"/ c #FBB954",
"( c #D0BEA5",
") c #D2D1D3",
"_ c None",
/* pixels */
"________________________________________________________________",
"________________________________________________________________",
"________________________________________________________________",
"________________________________________________________________",
"________________________________________________________________",
"________________________________________________________________",
"____________________________::----:-:___________________________",
"_______________________-bMmBVVVVPPPPBmmb=:______________________",
"_____________________=2mVVPb----:::=bVPBm>==____________________",
"___________________2=VBmb-:--:::-::::--bmBV--=__________________",
"_________________==MQ==-*=-->-::>-->-----==Qm===________________",
"________________=bVM-:==---:-::::-:-:---==--MN6-=_______________",
"_______________=MB===-=:=:>>>>>>>>>>>>:-:=-=-=w0==______________",
"______________bPMl====:>>:>>,>>>>>>>5>->>:==-->9n,>_____________",
"_____________bM====--:>>>>-&####@###&=:>>>:-=-*==1,=____________",
"____________=P=-=-=-::>>*###@###@######=:>::-=-=-=8==___________",
"___________=MM==:-=>3:*#####@@#O@@@@@@@@@*:3>==:==<1-=__________",
"__________=bMb=--=>3:&##@@@O@@@O@@@@@@@@@@%-3>---=;1,=-_________",
"__________-P=-===>,*#@##@@@@OO@#o@@@@@@@@@@$*>>-*-=-8-=_________",
"_________-mM==-->5=####@@@O@O@OOo@o@@@o@@@@@@*3>--=-<<-=________",
"________==P-*--:5-#@#@@@@O@@@oo@@@o@@o@@@o@@@#;3>--=-e==-_______",
"_______=*V:>-=->:$#@@@@OOOoOOOOOooooo@o@@@@@@@$;--=--=8==_______",
"_______-bB-=--:>&#@@@@OOOOoOooOo@o@o@oo@@@o@O@#%>;--==8>-_______",
"_______-mm=-->>:##@@@@OO@oOOoOooooooooooooo@@O@@>>>-=-<<-:______",
"_______bB5--->>=##O#@OOOXOXOooooooooooOoo@o@o@@@*;:--->8,-______",
"______-mP---:>:##@OO@XOOOOOXoooooXooXoooo@o@o@@@@:::---i9=-_____",
"______:mV--:>>=#@@O@OOOOOXXXooXXXXXoooooooo@@o@@@*>>---i9--_____",
"______-Bb--:>>%@@#OOOOOXXOXOXXXXXXXXXXooooooo@@o@%>>:-:4w--_____",
"______-V-:>-:>#@@O@OOOOOOXXXXXAFFAXXXXXooooooo@@@@,:->:-i--_____",
"_____--Z-:-:>>###OOOOXXOOXoooCh+djZXXXXXXoo@o@ooo@>>--:-n---____",
"_____--a::-:>>#@@OO@OXOXXXXXKk .dgcIXoXXoooo@oo@@@:>--:>P---____",
"_____--N:-::>>#@@OOOOOXOOXu(Id.fgddF!7XoXooX@o@o@o:>->--P--=____",
"_____--s::::>:#@@U))))UoUW~RT0xvvxbRRRWUXUEEEEU@@@-;-3=-V-==____",
"_____--s::-->:#OO@@ooOooX7EYY^LJDJWYYY7oXoooo@X@@@>>-::-V-:-____",
"_____--s-:-:>>@#@OOOOOOoooXXXHcd+lHXXXooXoooo@o@OO>>==::P--:____",
"_____--a-->::,##@O@OOooooooXXX!//!XXXXXXoooo@o@o@X3-=3:=P:=-____",
"_____--p4--->>&@@OOOOoOoooXXXXXXXXXXXXXXoooooo@@O%>>--:bB--=____",
"______-9n--->>=#@@O@OoOooooooXXXXXXXXXXoooo@@@ooO=>>--:PM--_____",
"______-9t---::-#@@@OOOOooooXXXXXXXXoXXooooooo@@@@;-----Vm=-_____",
"______-4t,--->>*#@@OOOOOOooooooXXXXooooooo@o@o@@*>>---3Nb==_____",
"______--99-=->>>#@@OOOOOooOOooooXoXoooooOOoOo@@@::>-==mm-=-_____",
"_______->t-=-;>>*#@@O@OOOoooooOooooooooOoOOO@o@%>::===Bb--______",
"_______=-t---=---%@@#OOOOOOoOOooooooOoOOOOOO@@$::-=--=V==>______",
"_______=*-Z;==->3-##OO@OOOOOOoOoOOoOOoOOOOOO@@-3:-==-Q-==_______",
"_______==-61---->6&##O#OO@OOOoOOOOOOOOOOOO@@@*3>--=-Mm:==_______",
"________-=-1====->>*###O@O@O@OOOOOOOOOOOOO@#%,;=*--=V===:_______",
"_________=*,<;=--=>3-&##@@@@@O@OOOOOOOOO##$-3>---=2Mb==:________",
"_________---1<==:-=>3;*#@@@@@O@@OOO#O###$&;,>=-:=-MM-==_________",
"__________-==1--=-=--;>>=#####@@@@@@@@@*:>::-====-V=*--_________",
"__________=-=,1--*---->>>-=&##@@@@@@%=:>>>--=-=-=Mb--=__________",
"____________--,1<;=--=->>:>>>>>::>>33::>>:==-=>us6-==___________",
"____________----11=-*---=>>>>>>>>>>>>::=:=-=--uu====____________",
"______________-==,81--==---:-:-::-:::-:-==--un6-===_____________",
"______________*-==-<e=-=-::->-->>-->----=-=Gq===-=______________",
"________________===-=80<>-:-:::--::---=3qps=-==--_______________",
"_________________--==-:<08i4=::-:::=6ssaq3===-:-________________",
"__________________---=--,<9wiiiiiiiiiqq6--===-__________________",
"____________________-:=----=--------=----=--____________________",
"_______________________--------------=-=--______________________",
"_________________________*==---==--==-=-________________________",
"____________________________--=-==--____________________________",
"________________________________________________________________",
"________________________________________________________________",
"________________________________________________________________"
};
