/* XPM */
static char *result[] = {
/* columns rows colors chars-per-pixel */
"64 64 256 2 ",
"   c #05000A",
".  c #1A151D",
"X  c #1A161D",
"o  c #1A161E",
"O  c #1A161F",
"+  c #1A171F",
"@  c #1B171F",
"#  c #140025",
"$  c #1B1720",
"%  c #1C1720",
"&  c #1C1820",
"*  c #1C1821",
"=  c #1D1821",
"-  c #1D1822",
";  c #1D1922",
":  c #1E1922",
">  c #1E1A22",
",  c #1E1A23",
"<  c #1F1A23",
"1  c #1F1A24",
"2  c #1F0038",
"3  c #201A24",
"4  c #201A25",
"5  c #211A25",
"6  c #211B25",
"7  c #211B26",
"8  c #221B26",
"9  c #221B27",
"0  c #221C27",
"q  c #221D27",
"w  c #241E27",
"e  c #221C28",
"r  c #221D28",
"t  c #231D28",
"y  c #231D29",
"u  c #231E28",
"i  c #231E29",
"p  c #241E28",
"a  c #251F28",
"s  c #241E29",
"d  c #241F29",
"f  c #251F29",
"g  c #261F29",
"h  c #262029",
"j  c #272029",
"k  c #292229",
"l  c #2A2229",
"z  c #2B2229",
"x  c #2B2329",
"c  c #2B232A",
"v  c #2C2329",
"b  c #2C232A",
"n  c #2F2629",
"m  c #2C242A",
"M  c #2D242A",
"N  c #2C242B",
"B  c #2D242B",
"V  c #2E242B",
"C  c #30262A",
"Z  c #30272B",
"A  c #33292A",
"S  c #34292B",
"D  c #352A2A",
"F  c #362A2B",
"G  c #31282C",
"H  c #35292C",
"J  c #35292D",
"K  c #352A2D",
"L  c #362B2C",
"P  c #372B2C",
"I  c #362A2D",
"U  c #362B2D",
"Y  c #372B2D",
"T  c #372C2D",
"R  c #382C2D",
"E  c #382D2D",
"W  c #392D2D",
"Q  c #3B2E2D",
"!  c #3B2F2D",
"~  c #382C2E",
"^  c #382D2E",
"/  c #392D2E",
"(  c #392E2E",
")  c #3A2E2E",
"_  c #3B2E2E",
"`  c #3A2F2E",
"'  c #3B2F2E",
"]  c #3C2F2C",
"[  c #3C2F2D",
"{  c #3C2F2E",
"}  c #3B302E",
"|  c #3C302D",
" . c #3D302D",
".. c #3E302C",
"X. c #3E302D",
"o. c #3F302D",
"O. c #3F312D",
"+. c #3C302E",
"@. c #3D302E",
"#. c #3D302F",
"$. c #3E302E",
"%. c #3F302E",
"&. c #3F312E",
"*. c #3E302F",
"=. c #3F312F",
"-. c #3F322F",
";. c #41143A",
":. c #471C3E",
">. c #402F2E",
",. c #40322D",
"<. c #42332D",
"1. c #40312E",
"2. c #42302E",
"3. c #40322E",
"4. c #41322E",
"5. c #41332E",
"6. c #40322F",
"7. c #41322F",
"8. c #41332F",
"9. c #42332E",
"0. c #42322F",
"q. c #42332F",
"w. c #47312E",
"e. c #44322E",
"r. c #43342E",
"t. c #42342F",
"y. c #43342F",
"u. c #44352E",
"i. c #44352F",
"p. c #4A332E",
"a. c #4A332F",
"s. c #4F332E",
"d. c #48382F",
"f. c #53332E",
"g. c #51362F",
"h. c #55352F",
"j. c #55362F",
"k. c #56362F",
"l. c #5C382F",
"z. c #5E382F",
"x. c #5F392F",
"c. c #4B243F",
"v. c #423330",
"b. c #443330",
"n. c #423430",
"m. c #433430",
"M. c #443530",
"N. c #453530",
"B. c #463530",
"V. c #463630",
"C. c #463730",
"Z. c #4B3730",
"A. c #473830",
"S. c #453837",
"D. c #463937",
"F. c #483830",
"G. c #493830",
"H. c #4B3A30",
"J. c #4E3830",
"K. c #4E3931",
"L. c #4C3A30",
"P. c #4C3B30",
"I. c #4E3D31",
"U. c #483B38",
"Y. c #523830",
"T. c #543B32",
"R. c #513F31",
"E. c #523F31",
"W. c #563C32",
"Q. c #563D32",
"!. c #563E32",
"~. c #593E33",
"^. c #5B3F33",
"/. c #5D3836",
"(. c #5E373E",
"). c #60392F",
"_. c #633E31",
"`. c #6B3D30",
"'. c #5F4C22",
"]. c #4E423F",
"[. c #584433",
"{. c #5A4533",
"}. c #5B4633",
"|. c #5E4534",
" X c #5F4834",
".X c #52443F",
"XX c #52453F",
"oX c #604D22",
"OX c #61492F",
"+X c #634434",
"@X c #654735",
"#X c #664635",
"$X c #674735",
"%X c #684735",
"&X c #684736",
"*X c #604934",
"=X c #614934",
"-X c #684E36",
";X c #7B4538",
":X c #754E38",
">X c #6A5036",
",X c #6E5337",
"<X c #6F5437",
"1X c #6F5537",
"2X c #705537",
"3X c #7F5F39",
"4X c #230041",
"5X c #29004A",
"6X c #2E0054",
"7X c #4C144D",
"8X c #511C50",
"9X c #552452",
"0X c #683750",
"qX c #594C47",
"wX c #5B4D47",
"eX c #5C4E47",
"rX c #6C5040",
"tX c #60534D",
"yX c #61544D",
"uX c #62544D",
"iX c #705941",
"pX c #6B5C52",
"aX c #6F6157",
"sX c #716257",
"dX c #615E64",
"fX c #954E30",
"gX c #954E31",
"hX c #B85C36",
"jX c #917123",
"kX c #917224",
"lX c #927224",
"zX c #937325",
"xX c #937326",
"cX c #8B633F",
"vX c #936C31",
"bX c #996C3B",
"nX c #A86A3D",
"mX c #C1673B",
"MX c #C97630",
"NX c #CE7E34",
"BX c #A46C4E",
"VX c #817164",
"CX c #B78C24",
"ZX c #B78D24",
"AX c #B78D25",
"SX c #B88D25",
"DX c #B88D26",
"FX c #B98E26",
"GX c #C48D2D",
"HX c #DD8E3A",
"JX c #D2943B",
"KX c #B98641",
"LX c #B98741",
"PX c #F6A44A",
"IX c #BCBBBD",
"UX c None",
/* pixels */
"UXUXUXUXUXUXUXUXUXUXUXUXUXUXUXUXUXUXUXUXUXUXUXUXUXUXUXUXUXUXUXUXUXUXUXUXUXUXUXUXUXUXUXUXUXUXUXUXUXUXUXUXUXUXUXUXUXUXUXUXUXUXUXUX",
"UXUXUXUXUXUXUXUXUXUXUXUXUXUXUXUXUXUXUXUXUXUXUXUXUXUXUXUXUXUXUXUXUXUXUXUXUXUXUXUXUXUXUXUXUXUXUXUXUXUXUXUXUXUXUXUXUXUXUXUXUXUXUXUX",
"UXUXUXUXUXUXUXUXUXUXUXUXUXUXUXUXUXUXUXUXUXUXUXUXUXUXUXUXUXUXUXUXUXUXUXUXUXUXUXUXUXUXUXUXUXUXUXUXUXUXUXUXUXUXUXUXUXUXUXUXUXUXUXUX",
"UXUXUXUXUXUXUXUXUXUXUXUXUXUXUXUXUXUXUXUXUXUXUXUXUXUXUXUXUXUXUXUXUXUXUXUXUXUXUXUXUXUXUXUXUXUXUXUXUXUXUXUXUXUXUXUXUXUXUXUXUXUXUXUX",
"UXUXUXUXUXUXUXUXUXUXUXUXUXUXUXUXUXUXUXUXUXUXUXUXUXUXUXUXUXUXUXUXUXUXUXUXUXUXUXUXUXUXUXUXUXUXUXUXUXUXUXUXUXUXUXUXUXUXUXUXUXUXUXUX",
"UXUXUXUXUXUXUXUXUXUXUXUXUXUXUXUXUXUXUXUXUXUXUXUXUXUXUXUXUXUXUXUXUXUXUXUXUXUXUXUXUXUXUXUXUXUXUXUXUXUXUXUXUXUXUXUXUXUXUXUXUXUXUXUX",
"UXUXUXUXUXUXUXUXUXUXUXUXUXUXUXUXUXUXUXUXUXUXUXUXUXUXUXUX+.' ) ' ' ) ' +.$.UXUXUXUXUXUXUXUXUXUXUXUXUXUXUXUXUXUXUXUXUXUXUXUXUXUXUX",
"UXUXUXUXUXUXUXUXUXUXUXUXUXUXUXUXUXUXUXUXUXUXUX( .XwXwXpXsXsXsXsXsXsXsXsXpXwXwX.X( ) UXUXUXUXUXUXUXUXUXUXUXUXUXUXUXUXUXUXUXUXUXUX",
"UXUXUXUXUXUXUXUXUXUXUXUXUXUXUXUXUXUXUXUXUXR D.eXpXsXsXXX( @.$.$.$.$.@.( XXsXsXpXeXD.R R UXUXUXUXUXUXUXUXUXUXUXUXUXUXUXUXUXUXUXUX",
"UXUXUXUXUXUXUXUXUXUXUXUXUXUXUXUXUXUXUX' E aXpXeXU.) } } +.$.=.+.+.=.$.+.} } ) U.eXpXaXE ' U UXUXUXUXUXUXUXUXUXUXUXUXUXUXUXUXUXUX",
"UXUXUXUXUXUXUXUXUXUXUXUXUXUXUXUXUXK ( qXVXY E E ) +.' ' t.' ' =.=.' ' t.' ' +.) E E Y VXqX( K T UXUXUXUXUXUXUXUXUXUXUXUXUXUXUXUX",
"UXUXUXUXUXUXUXUXUXUXUXUXUXUXUXUX^ .XsXuX) +.R R ) @.+.$.@.$.+.=.=.+.$.@.$.+.@.) R R +.) uXiXR.^ U UXUXUXUXUXUXUXUXUXUXUXUXUXUXUX",
"UXUXUXUXUXUXUXUXUXUXUXUXUXUXUXR yXuXE ( I ' ( @.^ =.8.m.=.v.m.8.8.m.v.=.m.8.=.^ @.( ' I ( E |.^.R R UXUXUXUXUXUXUXUXUXUXUXUXUXUX",
"UXUXUXUXUXUXUXUXUXUXUXUXUXUX].sXtXS.R ( R Y $.8.6.=.n.M.V.M.7.6.6.7.M.V.M.n.=.6.8.$.Y R ( R 0.~.$XZ.-.UXUXUXUXUXUXUXUXUXUXUXUXUX",
"UXUXUXUXUXUXUXUXUXUXUXUXUX].uXR E I / ( { +.6.7.v.=.R V f f s s s s f f B T &.v.7.6.+.{ ( / I E R k.w.R UXUXUXUXUXUXUXUXUXUXUXUX",
"UXUXUXUXUXUXUXUXUXUXUXUXR sXR / Y ( Y ' =.%.N.=.K f f y y y y y y y y y y s s K =.N.%.=.' Y ( Y / R x.R U UXUXUXUXUXUXUXUXUXUXUX",
"UXUXUXUXUXUXUXUXUXUXUX^ yXtXE Y *.) R v.G.6.G j s y y r e e e e 0 0 e e e e r i h Z 1.G.v.R ) *.Y E f.h.^ T UXUXUXUXUXUXUXUXUXUX",
"UXUXUXUXUXUXUXUXUXUXK .XuXS.I ( ) / y.P.@.N f y y r e e 0 0 0 0 0 0 0 0 0 0 0 e t f c @.P.y./ ) ( I >.j.a.K @.UXUXUXUXUXUXUXUXUX",
"UXUXUXUXUXUXUXUXUXUX( sXE R / Y R y.N.G f y t r e 0 0 0 0 8 8 8 8 8 8 8 8 8 0 0 0 e r f Z i.t.R Y / R E ).( U UXUXUXUXUXUXUXUXUX",
"UXUXUXUXUXUXUXUXUX' qXuX( ( ( ' v.P.G h y y e e 0 0 8 8 7 7 7 6 6 6 6 7 7 7 7 8 0 0 e r f Z L.8.' ( ( ( j.s.' R UXUXUXUXUXUXUXUX",
"UXUXUXUXUXUXUXUXR E VX) I R { =.G.@.f y t e 0 0 8 7 6 6 4 3 3 3 3 3 3 3 3 4 4 6 7 7 8 0 e s | F.=.{ R I ) `.E R ^ UXUXUXUXUXUXUX",
"UXUXUXUXUXUXUXT R aXY +.' Y +.%.6.c y r 0 0 0 7 6 5 4 3 3 3 1 < < < < 1 1 3 3 4 4 6 7 8 0 0 l &.$.{ Y ' +.Y z.R T UXUXUXUXUXUXUX",
"UXUXUXUXUXUXUX) D.pXE R ( $.6.N.Z f e 0 0 9 7 6 4 3 3 1 < < < < < < < < < < < 3 3 4 6 7 8 9 p C i.&.@.( R E l.2.) UXUXUXUXUXUXUX",
"UXUXUXUXUXUXUX( eXeXE R @.8.7.=.h t e 0 9 7 6 4 3 < < < : : : : ; ; ; : : : > < < 3 3 6 7 8 0 a O.3.4.@.R E g.g.( =.UXUXUXUXUXUX",
"UXUXUXUXUXUXUX.XpXU.) ) ^ 6.v.H i r 0 0 8 6 4 3 1 < , : : ; ; ; - - - ; ; : : , < < 1 4 6 7 9 q S 5.&.E ) ) e.l.p.( UXUXUXUXUXUX",
"UXUXUXUXUXUX/ wXsX) +.@.=.=.&.s e 0 9 7 6 4 3 < < : : ; ; = * * * * * * = - ; : : > < 3 3 4 7 8 t X.$.$.+.+.) &XQ./ ) UXUXUXUXUX",
"UXUXUXUXUXUX' wXsX} ' +.8.n.P s e 0 8 7 4 3 1 < > : ; - = * * & % % & * * * = ; : : < < 3 4 6 7 q F 5.4.+.' } %XW.' ^ UXUXUXUXUX",
"UXUXUXUXUXUXW pXXX} ' $.m.M.M r 0 0 7 6 4 1 < > : ; - * % $ $ @ + + @ @ $ % * - ; : : < 1 3 6 7 9 z r.9.$.' } K.+XW ) UXUXUXUXUX",
"UXUXUXUXUXUX+.sX( +.t.@.=.V.s r 0 8 7 6 3 < < : ; - * $ $ @ gXhXhXfXo O + $ $ * * ; : > < 3 4 6 8 q u.o.[ t.+.( &X+./ UXUXUXUXUX",
"UXUXUXUXUX/ ' 2X@.$.' $.v.y.s e 0 8 6 4 3 < > ; ; * * $ @ ;X;.2 4X7X;Xo o + @ % * - ; : < 1 3 5 7 q <.4. .' $.@.rX' / ' UXUXUXUX",
"UXUXUXUXUX+.) 2X$.=.' +.m.6.t e 0 7 6 4 1 < > ; - * % @ nX:.  # 4X6X8XnXo O @ $ * = ; : < < 3 4 7 9 O.9.! ' =.$.sX) +.' UXUXUXUX",
"UXUXUXUXUX` ' 2X$.+.=.=.8.=.r e 9 7 6 4 < < : ; = * OXLXmX2 # 5X6X4X4XmXIXdX+ $ % * ; : < < 3 4 7 8 O.,. .=.+.$.sX' ` Y UXUXUXUX",
"UXUXUXUXUX` ' 2X$.+.=.=.8.=.r e 8 xXFXDXSXSXlX; kXGXHXNXMX/.(.0X0X(./.MXNXHXGXjX$ kXSXSXSXSXzX4 7 8 O.,. .=.+.$.sX' ` Y UXUXUXUX",
"UXUXUXUXUX+.) 2X$.=.' +.m.6.r e 8 7 6 4 < < : ; * oXAXZXCXJXBXbXvXbXJXCXCXCX'.$ $ * ; : < < 3 4 7 8 O.9.! ' =.$.sX) +.' UXUXUXUX",
"UXUXUXUXUX/ ' 2X@.$.' $.v.y.u e 9 7 6 4 < < : ; = * $ @ O cX9X4X2 c.cX. X o + $ % * ; : < < 3 4 7 0 <.4. .' $.@.sX' / ' UXUXUXUX",
"UXUXUXUXUX/ +.<X( +.t.@.=.V.s e 0 7 6 4 1 < > ; - * * @ + o KXPXPXKX. o o + @ $ * - ; : < 1 3 4 7 q u.o.[ t.+.( sX+./ / UXUXUXUX",
"UXUXUXUXUX) W -XK.} ' $.m.i.b e 0 8 7 5 3 < < : ; = * $ @ O o o o o o o O @ $ * * ; ; > < 3 4 6 8 z r.9. .' } XXpXW ) ~ UXUXUXUX",
"UXUXUXUXUXUX' W.%X} ' +.8.q.L u 0 9 7 6 3 1 < : : - * * % $ @ @ + + + @ $ $ % * - ; : , < 3 4 6 0 D 4.3.{ ' } sXwX' ^ UXUXUXUXUX",
"UXUXUXUXUXUX/ Q.&X) +.@.=.=.%.s 0 0 7 6 4 3 < > : ; - * * $ $ $ $ $ $ $ $ & * - ; : > < 1 3 6 7 q ..X.X.+.+.) sXwX/ ) UXUXUXUXUX",
"UXUXUXUXUXUX( J.+XB.) ) ^ 6.q.H t 0 9 7 6 3 3 < < : : ; = * * * & & & * * = - : : > < 3 3 4 7 0 A ,.&.R ) ) U.pX.X( R UXUXUXUXUX",
"UXUXUXUXUXUX( ( !.!.E R @.8.6.&.g e 0 8 7 4 3 1 < > : : ; - = * * * * * - ; ; : > < < 3 4 6 8 w ..O.3.+.R E eXeX( ( ( UXUXUXUXUX",
"UXUXUXUXUXUXUX) b.+XE R ( $.6.M.Z d 0 0 8 7 4 3 3 < < > : : : ; ; ; ; : : : : < < < 3 4 6 7 t n r.&.@.( R E pXD.) ^ UXUXUXUXUXUX",
"UXUXUXUXUXUXUXT R #XY +.' Y +.$.&.x e 0 9 7 7 4 3 3 1 < < , : : : : : : > < < < 1 3 4 6 7 9 k o. .! I ' +.Y aXR T =.UXUXUXUXUXUX",
"UXUXUXUXUXUXUX^ R E :X) I R { =.G.@.f r 0 9 8 7 6 4 3 3 < < < < < < < < < < 1 3 4 4 6 8 0 u ] d.%.Q R I ) VXE R ^ UXUXUXUXUXUXUX",
"UXUXUXUXUXUXUX~ R ' T.j.( ( ( ' v.P.Z f t e 0 8 7 6 6 4 4 3 3 3 3 3 3 3 3 3 4 6 6 7 8 0 p C H.3.) ( ( ( uXqX' R ~ UXUXUXUXUXUXUX",
"UXUXUXUXUXUXUXUX/ U ( ).E R / Y R y.i.Z f e 0 0 0 7 7 7 6 5 4 4 4 4 4 4 5 6 6 7 7 8 0 p C u.9.R Y / R E sX( U / @.UXUXUXUXUXUXUX",
"UXUXUXUXUXUXUXUXUX~ K a.j.>.I ( ) / y.P.@.c d r e 0 0 8 7 7 7 7 6 6 6 7 7 7 8 0 0 u l [ H.q.E ) ( I S.uX.XK ~ @.UXUXUXUXUXUXUXUX",
"UXUXUXUXUXUXUXUXUX{ T ^ h.f.E Y *.) R v.G.1.Z h t e 0 0 0 8 8 8 8 8 8 8 8 0 0 r a C &.F.7.R ) *.Y E tXyX^ T ~ UXUXUXUXUXUXUXUXUX",
"UXUXUXUXUXUXUXUXUXUX) U R x.R / Y ( Y ' =.%.M.&.H s i r e e e e 0 0 0 e e t u S &.i.$.&.' Y ( Y / R sXR U ) ( UXUXUXUXUXUXUXUXUX",
"UXUXUXUXUXUXUXUXUXUXI / R w.k.R E I / ( { +.6.7.q.%.P m s u r r r r u i v L %.8.3.6.{ { ( / I E R uX].R / I UXUXUXUXUXUXUXUXUXUX",
"UXUXUXUXUXUXUXUXUXUXUXUX^ ' w.x.f.>.R ( R Y $.8.6.=.n.M.V.y.6.=.=.6.y.V.i.q.%.6.8.$.Y R ( R M. X<XI.' ^ J UXUXUXUXUXUXUXUXUXUXUX",
"UXUXUXUXUXUXUXUXUXUXUXUX{ ^ R R h.j.E ( I ' ( @.^ =.8.m.=.v.m.8.8.m.v.=.m.8.=.^ @.( ' I ( E =X*XR R ^ R UXUXUXUXUXUXUXUXUXUXUXUX",
"UXUXUXUXUXUXUXUXUXUXUXUXUXUX/ U ^ a.).j.) +.R R ) @.+.$.@.$.+.=.=.+.$.@.$.+.@.) R R +.) =X<XR.^ U / J UXUXUXUXUXUXUXUXUXUXUXUXUX",
"UXUXUXUXUXUXUXUXUXUXUXUXUXUXI ) T K ( s.`.Y E E ) +.' ' t.' ' =.=.' ' t.' ' +.) E E Y 3X[.( K T ) I UXUXUXUXUXUXUXUXUXUXUXUXUXUX",
"UXUXUXUXUXUXUXUXUXUXUXUXUXUXUXUX~ ~ U ' E z.l.g.e.) } } +.$.=.+.+.=.$.+.} } ) A.}.>X,XE ' U ~ ~ ( UXUXUXUXUXUXUXUXUXUXUXUXUXUXUX",
"UXUXUXUXUXUXUXUXUXUXUXUXUXUXUXUXUX@./ R R R 2.g.l._.%XK.( @.$.$.$.$.@.( E.1X2X>X}.C.R R R / @._ UXUXUXUXUXUXUXUXUXUXUXUXUXUXUXUX",
"UXUXUXUXUXUXUXUXUXUXUXUXUXUXUXUXUXUX@.~ ^ T ) ( p.Y.W.+X&X%X%X%X%X%X%X&X@X{.{.R.( ) T ^ ~ @.UXUXUXUXUXUXUXUXUXUXUXUXUXUXUXUXUXUX",
"UXUXUXUXUXUXUXUXUXUXUXUXUXUXUXUXUXUXUXUX#.=.^ ( ( / ' W +.' ) ' ' ) ' +.W ' / ( ( ^ =.^ UXUXUXUXUXUXUXUXUXUXUXUXUXUXUXUXUXUXUXUX",
"UXUXUXUXUXUXUXUXUXUXUXUXUXUXUXUXUXUXUXUXUXUXUX( R ) ^ ) / / +.` ` +./ / ) ^ ) R ( ) UXUXUXUXUXUXUXUXUXUXUXUXUXUXUXUXUXUXUXUXUXUX",
"UXUXUXUXUXUXUXUXUXUXUXUXUXUXUXUXUXUXUXUXUXUXUXUXUXY / ~ / ' ' Y Y ' ' / ~ / Y _ UXUXUXUXUXUXUXUXUXUXUXUXUXUXUXUXUXUXUXUXUXUXUXUX",
"UXUXUXUXUXUXUXUXUXUXUXUXUXUXUXUXUXUXUXUXUXUXUXUXUXUXUXUX) ) U ~ ~ U ) ) UXUXUXUXUXUXUXUXUXUXUXUXUXUXUXUXUXUXUXUXUXUXUXUXUXUXUXUX",
"UXUXUXUXUXUXUXUXUXUXUXUXUXUXUXUXUXUXUXUXUXUXUXUXUXUXUXUXUXUXUXUXUXUXUXUXUXUXUXUXUXUXUXUXUXUXUXUXUXUXUXUXUXUXUXUXUXUXUXUXUXUXUXUX",
"UXUXUXUXUXUXUXUXUXUXUXUXUXUXUXUXUXUXUXUXUXUXUXUXUXUXUXUXUXUXUXUXUXUXUXUXUXUXUXUXUXUXUXUXUXUXUXUXUXUXUXUXUXUXUXUXUXUXUXUXUXUXUXUX",
"UXUXUXUXUXUXUXUXUXUXUXUXUXUXUXUXUXUXUXUXUXUXUXUXUXUXUXUXUXUXUXUXUXUXUXUXUXUXUXUXUXUXUXUXUXUXUXUXUXUXUXUXUXUXUXUXUXUXUXUXUXUXUXUX"
};
