/* XPM */
static char *result[] = {
/* columns rows colors chars-per-pixel */
"32 32 44 1 ",
"  c #06000B",
". c #17002A",
"X c #23003F",
"o c #6A403D",
"O c #28004A",
"+ c #2E0054",
"@ c #34005F",
"# c #4A1742",
"$ c #561757",
"% c #502046",
"& c #552947",
"* c #5C205B",
"= c #6B3E46",
"- c #60295D",
"; c #763E5B",
": c #8B4E3F",
"> c #A95837",
", c #A95838",
"< c #A77B38",
"1 c #CD683D",
"2 c #9E7047",
"3 c #AD7B43",
"4 c #BD7845",
"5 c #B97B58",
"6 c #D57543",
"7 c #A48028",
"8 c #A48129",
"9 c #A58129",
"0 c #A6822A",
"q c #A6822B",
"w c #CC9F29",
"e c #DC8637",
"r c #E18F3B",
"t c #CCA029",
"y c #CCA02A",
"u c #CDA02A",
"i c #D8A033",
"p c #CE984A",
"a c #ECA142",
"s c #E4A843",
"d c #FBB954",
"f c #D0BEA5",
"g c #D2D1D3",
"h c None",
/* pixels */
"hhhhhhhhhhhhhhhhhhhhhhhhhhhhhhhh",
"hhhhhhhhhhhhhhhhhhhhhhhhhhhhhhhh",
"hhhhhhhhhhhhhhhhhhhhhhhhhhhhhhhh",
"hhhhhhhhhhhhhhhhhhhhhhhhhhhhhhhh",
"hhhhhhhhhhhhhhhhhhhhhhhhhhhhhhhh",
"hhhhhhhhhhhhhhhhhhhhhhhhhhhhhhhh",
"hhhhhhhhhhhhhhhhhhhhhhhhhhhhhhhh",
"hhhhhhhhhhhhhhhhhhhhhhhhhhhhhhhh",
"hhhhhhhhhhhhhhhhhhhhhhhhhhhhhhhh",
"hhhhhhhhhhhhhhhhhhhhhhhhhhhhhhhh",
"hhhhhhhhhhhhhhhhhhhhhhhhhhhhhhhh",
"hhhhhhhhhhhhhhhhhhhhhhhhhhhhhhhh",
"hhhhhhhhhhhhhh,11>hhhhhhhhhhhhhh",
"hhhhhhhhhhhhh:#XO$:hhhhhhhhhhhhh",
"hhhhhhhhhhhh4% .O@*4hhhhhhhhhhhh",
"hhhhhhhhhhhf6X.+@OO6phhhhhhhhhhh",
"hqgggg9h8iareo=;;=oerai7h8uuuu0h",
"hhhhhhhhhhytws53<3swwwhhhhhhhhhh",
"hhhhhhhhhhhhh2-OX&2hhhhhhhhhhhhh",
"hhhhhhhhhhhhhhpddphhhhhhhhhhhhhh",
"hhhhhhhhhhhhhhhhhhhhhhhhhhhhhhhh",
"hhhhhhhhhhhhhhhhhhhhhhhhhhhhhhhh",
"hhhhhhhhhhhhhhhhhhhhhhhhhhhhhhhh",
"hhhhhhhhhhhhhhhhhhhhhhhhhhhhhhhh",
"hhhhhhhhhhhhhhhhhhhhhhhhhhhhhhhh",
"hhhhhhhhhhhhhhhhhhhhhhhhhhhhhhhh",
"hhhhhhhhhhhhhhhhhhhhhhhhhhhhhhhh",
"hhhhhhhhhhhhhhhhhhhhhhhhhhhhhhhh",
"hhhhhhhhhhhhhhhhhhhhhhhhhhhhhhhh",
"hhhhhhhhhhhhhhhhhhhhhhhhhhhhhhhh",
"hhhhhhhhhhhhhhhhhhhhhhhhhhhhhhhh",
"hhhhhhhhhhhhhhhhhhhhhhhhhhhhhhhh"
};
