/* XPM */
static char *result[] = {
/* columns rows colors chars-per-pixel */
"64 64 97 2 ",
"   c #08000E",
".  c #1E0036",
"X  c #251F2A",
"o  c #27202C",
"O  c #28212E",
"+  c #2C2533",
"@  c #302736",
"#  c #302837",
"$  c #332A3A",
"%  c #392E3C",
"&  c #3E323C",
"*  c #43363E",
"=  c #47393F",
"-  c #4C3D3F",
";  c #2D0051",
":  c #33005F",
">  c #3B006C",
",  c #5F1E55",
"<  c #4D3E42",
"1  c #503F42",
"2  c #67295A",
"3  c #6D355B",
"4  c #43007A",
"5  c #6F1E70",
"6  c #762975",
"7  c #7C3578",
"8  c #544343",
"9  c #5A4643",
"0  c #5D4944",
"q  c #604743",
"w  c #624C44",
"e  c #6B4A43",
"r  c #754D44",
"t  c #7C4D44",
"y  c #665045",
"u  c #6C5346",
"i  c #715247",
"p  c #785145",
"a  c #735448",
"s  c #7C5749",
"d  c #755B48",
"f  c #7C5A49",
"g  c #655350",
"h  c #6A5651",
"j  c #73605D",
"k  c #78635D",
"l  c #8B6F31",
"z  c #8C7032",
"x  c #865244",
"c  c #8B5444",
"v  c #88524E",
"b  c #835B4B",
"n  c #9B5945",
"m  c #905A48",
"M  c #8A505A",
"N  c #8D6B44",
"B  c #83654B",
"V  c #8A644C",
"C  c #8C6B4C",
"Z  c #95664D",
"A  c #97714E",
"S  c #99754E",
"D  c #9F7950",
"F  c #9C755E",
"G  c #AF6451",
"H  c #A87151",
"J  c #A17B50",
"K  c #975075",
"L  c #826F67",
"P  c #857167",
"I  c #8D7A70",
"U  c #CD7147",
"Y  c #CD7148",
"T  c #C9A435",
"R  c #E8C536",
"E  c #A2825F",
"W  c #B48B54",
"Q  c #9B8678",
"!  c #A38E7F",
"~  c #CB9D48",
"^  c #C3905B",
"/  c #D09D56",
"(  c #DE9959",
")  c #E9864E",
"_  c #EE9656",
"`  c #F2A947",
"'  c #F4B34C",
"]  c #EABD5F",
"[  c #DA9D71",
"{  c #F0C542",
"}  c #F9C555",
"|  c #F6CC56",
" . c #FEDA6C",
".. c #B6A391",
"X. c #EBDEC9",
"o. c #ECEBED",
"O. c None",
/* pixels */
"O.O.O.O.O.O.O.O.O.O.O.O.O.O.O.O.O.O.O.O.O.O.O.O.O.O.O.O.O.O.O.O.O.O.O.O.O.O.O.O.O.O.O.O.O.O.O.O.O.O.O.O.O.O.O.O.O.O.O.O.O.O.O.O.",
"O.O.O.O.O.O.O.O.O.O.O.O.O.O.O.O.O.O.O.O.O.O.O.O.O.O.O.O.O.O.O.O.O.O.O.O.O.O.O.O.O.O.O.O.O.O.O.O.O.O.O.O.O.O.O.O.O.O.O.O.O.O.O.O.",
"O.O.O.O.O.O.O.O.O.O.O.O.O.O.O.O.O.O.O.O.O.O.O.O.O.O.O.O.O.O.O.O.O.O.O.O.O.O.O.O.O.O.O.O.O.O.O.O.O.O.O.O.O.O.O.O.O.O.O.O.O.O.O.O.",
"O.O.O.O.O.O.O.O.O.O.O.O.O.O.O.O.O.O.O.O.O.O.O.O.O.O.O.O.O.O.O.O.O.O.O.O.O.O.O.O.O.O.O.O.O.O.O.O.O.O.O.O.O.O.O.O.O.O.O.O.O.O.O.O.",
"O.O.O.O.O.O.O.O.O.O.O.O.O.O.O.O.O.O.O.O.O.O.O.O.O.O.O.O.O.O.O.O.O.O.O.O.O.O.O.O.O.O.O.O.O.O.O.O.O.O.O.O.O.O.O.O.O.O.O.O.O.O.O.O.",
"O.O.O.O.O.O.O.O.O.O.O.O.O.O.O.O.O.O.O.O.O.O.O.O.O.O.O.O.O.O.O.O.O.O.O.O.O.O.O.O.O.O.O.O.O.O.O.O.O.O.O.O.O.O.O.O.O.O.O.O.O.O.O.O.",
"O.O.O.O.O.O.O.O.O.O.O.O.O.O.O.O.O.O.O.O.O.O.O.O.O.O.O.O.9 8 8 - 8 8 8 9 9 O.O.O.O.O.O.O.O.O.O.O.O.O.O.O.O.O.O.O.O.O.O.O.O.O.O.O.",
"O.O.O.O.O.O.O.O.O.O.O.O.O.O.O.O.O.O.O.O.O.O.O.8 k P P Q ! ! ..Q Q ..! ! Q P P k 8 8 O.O.O.O.O.O.O.O.O.O.O.O.O.O.O.O.O.O.O.O.O.O.",
"O.O.O.O.O.O.O.O.O.O.O.O.O.O.O.O.O.O.O.O.O.8 g P Q Q ..k 8 9 9 9 8 9 9 8 k ..Q Q L g 8 8 O.O.O.O.O.O.O.O.O.O.O.O.O.O.O.O.O.O.O.O.",
"O.O.O.O.O.O.O.O.O.O.O.O.O.O.O.O.O.O.O.8 < ..Q P h 8 - 8 9 9 0 9 8 9 9 9 8 9 8 g L Q ..8 8 8 O.O.O.O.O.O.O.O.O.O.O.O.O.O.O.O.O.O.",
"O.O.O.O.O.O.O.O.O.O.O.O.O.O.O.O.O.< 9 k ..< 1 8 8 8 9 8 0 8 8 9 0 8 8 w 8 9 9 8 8 8 * ..L 8 < < O.O.O.O.O.O.O.O.O.O.O.O.O.O.O.O.",
"O.O.O.O.O.O.O.O.O.O.O.O.O.O.O.O.8 h ..I < 1 1 1 8 0 8 9 9 0 9 0 0 8 9 9 9 8 9 8 - - 1 - I E d 8 8 O.O.O.O.O.O.O.O.O.O.O.O.O.O.O.",
"O.O.O.O.O.O.O.O.O.O.O.O.O.O.O.8 I I 8 8 8 8 8 9 8 9 0 w 9 0 g 0 0 w w 0 w 0 9 8 9 8 8 < 8 8 V b < 1 O.O.O.O.O.O.O.O.O.O.O.O.O.O.",
"O.O.O.O.O.O.O.O.O.O.O.O.O.O.j ! I g < 8 8 8 9 0 0 0 0 w 0 g 0 0 0 w w w w w 9 0 w 9 8 8 8 1 0 b Z u 0 O.O.O.O.O.O.O.O.O.O.O.O.O.",
"O.O.O.O.O.O.O.O.O.O.O.O.O.j I 1 8 < 8 8 8 8 9 0 0 9 8 < % % $ $ $ $ % % < < 9 w 0 q 9 8 8 8 < 8 8 t e 1 O.O.O.O.O.O.O.O.O.O.O.O.",
"O.O.O.O.O.O.O.O.O.O.O.O.8 ! 1 8 8 8 8 8 9 9 y 9 8 $ $ $ $ $ $ $ $ $ $ % $ $ $ < 0 w 9 0 8 8 8 < 8 < c 8 < O.O.O.O.O.O.O.O.O.O.O.",
"O.O.O.O.O.O.O.O.O.O.O.8 I I 8 < 9 8 8 0 u 0 < % $ $ $ $ $ $ $ $ $ $ $ $ $ $ $ $ $ < 0 u w - 8 9 < 8 t t 8 < O.O.O.O.O.O.O.O.O.O.",
"O.O.O.O.O.O.O.O.O.O.< k I g < 8 8 8 0 u 9 * $ $ $ $ $ $ $ $ $ $ $ $ + $ + $ $ $ # % & 9 u y 8 8 8 < 9 t e < 9 O.O.O.O.O.O.O.O.O.",
"O.O.O.O.O.O.O.O.O.O.8 ! 8 < 8 < 8 w w < $ $ $ $ $ $ $ $ # # # # + $ $ $ $ $ $ $ $ $ $ % = y w 8 1 8 1 1 c 8 < O.O.O.O.O.O.O.O.O.",
"O.O.O.O.O.O.O.O.O.9 L I 8 8 8 9 0 u < % $ $ $ $ $ $ + # # # # # + $ # + $ + # + + $ # # % = u 0 9 8 8 8 t r 9 1 O.O.O.O.O.O.O.O.",
"O.O.O.O.O.O.O.O.- 1 ..8 < < 9 0 h 8 $ $ $ $ $ $ # $ + # $ + + + + $ + + # + # $ $ + $ $ $ % 8 u 0 9 1 < 1 n 8 1 8 O.O.O.O.O.O.O.",
"O.O.O.O.O.O.O.8 * ..1 8 9 < 9 9 0 & $ $ $ $ $ $ # # $ + + $ + + + + + + + + $ + + $ $ + # $ & 0 9 8 1 9 9 1 c 1 8 O.O.O.O.O.O.O.",
"O.O.O.O.O.O.O.8 g Q 8 < 8 9 0 y < $ $ $ $ $ + # + # + + + + + + + + $ + + + + + $ + $ + # # $ * w 0 9 8 1 8 x 0 8 O.O.O.O.O.O.O.",
"O.O.O.O.O.O.O.8 P L 8 8 9 0 0 0 % $ $ @ @ # $ + # + + + + + + + O + O + + + + + + $ + # # # $ % 0 0 9 9 1 8 r t 8 9 O.O.O.O.O.O.",
"O.O.O.O.O.O.O.k Q y 8 8 8 0 0 < $ $ $ $ # # + # + + + + + O + + + + + + O + + + + + + @ # # # # - w 0 1 8 8 w c e 9 O.O.O.O.O.O.",
"O.O.O.O.O.O.8 P ..= 8 9 0 0 0 $ $ $ $ + # @ # + + + + + + + O O O O O + + O + + + + + @ # + # # # 9 9 9 9 9 8 Z s 8 8 O.O.O.O.O.",
"O.O.O.O.O.O.9 k ..8 8 9 w 0 < $ $ $ $ # @ + + + + + + + + O O O O O O O O O O + + + + + # # # # $ - 0 w 8 9 8 Z s 8 8 O.O.O.O.O.",
"O.O.O.O.O.O.8 I h 9 8 9 w w * $ # $ $ + + + + + + + + o O O O o O O O O O O + O O + + + + # # # # * w w 9 8 8 a V 8 8 O.O.O.O.O.",
"O.O.O.O.O.O.9 ..1 8 w 9 0 w % $ $ @ @ @ @ + + + o + + O O O Y ) ) Y o o O O O + + + + + + + + # # $ w 0 9 w 8 8 Z 9 8 O.O.O.O.O.",
"O.O.O.O.O.8 9 J 9 9 8 0 w w $ $ $ # @ @ @ + + + + o O O O G , ; : 5 G o o o o O O + O + + + # $ # # w 0 9 8 9 9 F 8 8 8 O.O.O.O.",
"O.O.O.O.O.8 9 J 9 9 8 8 w 0 $ $ @ @ + @ + + + + + o o O ( 2   . : 4 6 ( o o O O + O O + + + # + # # 0 q 9 8 9 9 ..= 9 8 O.O.O.O.",
"O.O.O.O.O.8 9 D 9 9 0 0 w 0 $ $ $ @ $ + + + + + o + B X._ ; . > 4 : : ( | N o o O O + + + @ + @ # + 0 0 9 0 9 9 ! - 9 1 O.O.O.O.",
"O.O.O.O.O.8 9 J 9 9 0 9 0 9 $ $ # T o.o.o.o.T + T { } ' ` v M K K M v ` ' } { T O T R R R R T # # # 0 0 0 0 8 9 ! 8 8 8 O.O.O.O.",
"O.O.O.O.O.8 8 J 9 9 9 9 y 9 $ $ # # # # + + O + + z R R R | [ / ~ / | R R R l o O O + + + + + # # # 0 0 9 8 0 0 ! 8 8 0 O.O.O.O.",
"O.O.O.O.O.8 8 J 9 9 8 9 0 y $ $ $ # # + + + O + O + O O X W 7 > ; 3 W X X o o o O + O + + # + # # # w 0 9 8 0 9 ! 8 8 8 O.O.O.O.",
"O.O.O.O.O.8 9 D 8 9 0 9 9 y $ $ $ # # # + + + + + O O O O O ]  . .] + o o O O O O O + + + + # + # # w 0 8 w 8 8 ! 8 8 8 O.O.O.O.",
"O.O.O.O.O.8 8 A h 9 8 0 w w * $ $ $ + $ # + + + O O O O O X O X o o o o o O O + O O + + + # # # # & w 0 9 9 8 k Q 8 8 8 O.O.O.O.",
"O.O.O.O.O.O.9 s Z 9 8 9 0 0 8 # # $ $ + + # + + + + O O O O O O o O o O o O o + + O + + + + # # $ - 0 0 8 8 9 ! P 8 8 O.O.O.O.O.",
"O.O.O.O.O.O.8 s Z 8 8 9 0 0 0 $ $ + $ + + # + + + O + O + O O O O o O o o o O + + + + + + # # # $ 9 9 9 9 9 8 ! P 8 8 O.O.O.O.O.",
"O.O.O.O.O.O.8 u Z y 8 8 8 0 0 < $ $ $ $ # + $ + + + + + O + O O O O O O + + O + + + + + # + # # - 0 0 8 8 8 u Q k 8 8 O.O.O.O.O.",
"O.O.O.O.O.O.8 8 b s 8 8 8 q 0 0 $ $ $ $ + + + + + + + + O + O O + O O + + O + + + + + + + # # $ 9 9 0 9 < 8 P P 8 8 9 O.O.O.O.O.",
"O.O.O.O.O.O.O.8 w V 8 1 9 9 0 w < % $ $ $ @ + $ $ + + + + + + + + + O + + + + + + + + $ # # $ = w 0 9 8 8 8 Q 0 8 8 O.O.O.O.O.O.",
"O.O.O.O.O.O.O.8 < Z < 9 8 < 9 9 9 & $ $ $ + $ + + + + + + + + + + + + + + + + + + @ + $ # $ & 9 9 8 < 8 8 < ..* 8 0 O.O.O.O.O.O.",
"O.O.O.O.O.O.O.8 8 8 H 8 < 8 9 9 y 9 $ $ $ $ $ $ $ + $ + + + + + + + + + + + + + @ @ + $ # $ 8 u 9 8 8 < 8 ..8 < 8 O.O.O.O.O.O.O.",
"O.O.O.O.O.O.O.8 1 8 s t 8 8 8 8 w u < $ $ $ $ $ + $ $ + + + + + + + + + $ + + $ @ $ @ # $ = u 0 9 8 8 8 L k 9 8 8 O.O.O.O.O.O.O.",
"O.O.O.O.O.O.O.O.8 < 8 c 8 8 8 < 8 0 0 < $ $ $ $ $ + + $ $ $ $ + # + + + $ $ $ + @ @ # % = y 0 8 - 8 8 8 ..8 < 8 9 O.O.O.O.O.O.O.",
"O.O.O.O.O.O.O.O.O.8 < e r 9 < 8 8 8 w u 0 & $ $ $ $ $ $ + $ # # # $ + $ + + $ $ $ $ & 8 u 0 8 8 8 < g I k < 8 9 O.O.O.O.O.O.O.O.",
"O.O.O.O.O.O.O.O.O.9 1 1 t t 8 8 0 8 8 w y 9 = $ $ $ $ + $ $ # # $ + $ $ $ $ $ $ $ * 0 u 0 8 8 9 < 8 I I 8 1 < O.O.O.O.O.O.O.O.O.",
"O.O.O.O.O.O.O.O.O.O.8 1 1 c 1 8 1 8 1 8 q 0 w 0 < % $ $ $ $ $ $ $ $ $ $ # # $ 8 9 y 9 0 8 1 8 < 8 1 ! 1 < 8 8 O.O.O.O.O.O.O.O.O.",
"O.O.O.O.O.O.O.O.O.O.1 8 8 q t 1 1 < 8 8 8 8 0 0 w 9 1 & % $ $ $ $ $ $ $ & 8 9 0 0 0 8 8 8 8 < 8 1 I j 8 8 < O.O.O.O.O.O.O.O.O.O.",
"O.O.O.O.O.O.O.O.O.O.O.O.8 8 e c r 0 1 8 8 1 9 w 0 0 w w y w 0 0 0 0 w y w 0 9 0 w 9 1 8 8 8 w C D d 8 8 < O.O.O.O.O.O.O.O.O.O.O.",
"O.O.O.O.O.O.O.O.O.O.O.O.8 8 1 8 t t 8 8 1 8 8 9 8 9 0 w 0 0 g 0 0 w 0 0 w w 9 8 9 8 8 < 8 8 C C 1 1 8 1 O.O.O.O.O.O.O.O.O.O.O.O.",
"O.O.O.O.O.O.O.O.O.O.O.O.O.O.8 1 8 e c t 8 8 1 1 8 9 9 9 9 9 9 9 0 9 9 9 0 9 9 8 1 < 9 8 C J d 8 < 8 < O.O.O.O.O.O.O.O.O.O.O.O.O.",
"O.O.O.O.O.O.O.O.O.O.O.O.O.O.1 8 1 1 8 r n < 8 8 8 8 8 9 0 8 8 9 0 8 8 w 8 8 8 8 8 8 < W B 8 < 1 8 < O.O.O.O.O.O.O.O.O.O.O.O.O.O.",
"O.O.O.O.O.O.O.O.O.O.O.O.O.O.O.O.1 8 < 8 8 c v r w 8 9 9 9 9 9 9 8 0 9 8 9 9 8 u B A D 8 8 < 1 8 8 O.O.O.O.O.O.O.O.O.O.O.O.O.O.O.",
"O.O.O.O.O.O.O.O.O.O.O.O.O.O.O.O.O.9 8 8 1 1 q a v m Z a 8 9 9 9 9 9 9 8 d D J S B y 8 1 1 8 9 8 O.O.O.O.O.O.O.O.O.O.O.O.O.O.O.O.",
"O.O.O.O.O.O.O.O.O.O.O.O.O.O.O.O.O.O.9 8 8 1 8 8 e s s V Z Z Z Z A Z Z Z Z B B d 8 9 < 8 < 9 O.O.O.O.O.O.O.O.O.O.O.O.O.O.O.O.O.O.",
"O.O.O.O.O.O.O.O.O.O.O.O.O.O.O.O.O.O.O.O.9 9 8 8 1 1 9 8 9 9 8 9 8 8 9 8 8 8 8 8 8 8 0 8 O.O.O.O.O.O.O.O.O.O.O.O.O.O.O.O.O.O.O.O.",
"O.O.O.O.O.O.O.O.O.O.O.O.O.O.O.O.O.O.O.O.O.O.O.8 1 9 8 8 8 8 8 8 9 8 8 8 8 8 8 8 8 8 O.O.O.O.O.O.O.O.O.O.O.O.O.O.O.O.O.O.O.O.O.O.",
"O.O.O.O.O.O.O.O.O.O.O.O.O.O.O.O.O.O.O.O.O.O.O.O.O.1 8 8 8 8 8 1 8 8 8 8 8 8 8 8 O.O.O.O.O.O.O.O.O.O.O.O.O.O.O.O.O.O.O.O.O.O.O.O.",
"O.O.O.O.O.O.O.O.O.O.O.O.O.O.O.O.O.O.O.O.O.O.O.O.O.O.O.O.8 8 1 8 8 1 8 8 O.O.O.O.O.O.O.O.O.O.O.O.O.O.O.O.O.O.O.O.O.O.O.O.O.O.O.O.",
"O.O.O.O.O.O.O.O.O.O.O.O.O.O.O.O.O.O.O.O.O.O.O.O.O.O.O.O.O.O.O.O.O.O.O.O.O.O.O.O.O.O.O.O.O.O.O.O.O.O.O.O.O.O.O.O.O.O.O.O.O.O.O.O.",
"O.O.O.O.O.O.O.O.O.O.O.O.O.O.O.O.O.O.O.O.O.O.O.O.O.O.O.O.O.O.O.O.O.O.O.O.O.O.O.O.O.O.O.O.O.O.O.O.O.O.O.O.O.O.O.O.O.O.O.O.O.O.O.O.",
"O.O.O.O.O.O.O.O.O.O.O.O.O.O.O.O.O.O.O.O.O.O.O.O.O.O.O.O.O.O.O.O.O.O.O.O.O.O.O.O.O.O.O.O.O.O.O.O.O.O.O.O.O.O.O.O.O.O.O.O.O.O.O.O."
};
