/* XPM */
static char *result[] = {
/* columns rows colors chars-per-pixel */
"32 32 46 1 ",
"  c #06000B",
". c #17002A",
"X c #23003F",
"o c #6A403D",
"O c #28004A",
"+ c #2E0054",
"@ c #34005F",
"# c #4A1742",
"$ c #561757",
"% c #502046",
"& c #552947",
"* c #5C205B",
"= c #6B3E46",
"- c #60295D",
"; c #763E5B",
": c #8B4E3F",
"> c #A95837",
", c #A95838",
"< c #A77B38",
"1 c #CD683D",
"2 c #9E7047",
"3 c #AD7B43",
"4 c #BD7845",
"5 c #B97B58",
"6 c #D57543",
"7 c #A48028",
"8 c #A48129",
"9 c #A58129",
"0 c #A6822A",
"q c #A6822B",
"w c #CC9F29",
"e c #DC8637",
"r c #E18F3B",
"t c #CCA029",
"y c #CCA02A",
"u c #CDA02A",
"i c #CDA02B",
"p c #CEA12B",
"a c #D8A033",
"s c #CE984A",
"d c #CE994A",
"f c #ECA142",
"g c #E4A843",
"h c #FBB954",
"j c #D0BDA4",
"k c None",
/* pixels */
"kkkkkkkkkkkkkkkkkkkkkkkkkkkkkkkk",
"kkkkkkkkkkkkkkkkkkkkkkkkkkkkkkkk",
"kkkkkkkkkkkkkkkkkkkkkkkkkkkkkkkk",
"kkkkkkkkkkkkkkkkkkkkkkkkkkkkkkkk",
"kkkkkkkkkkkkkkkkkkkkkkkkkkkkkkkk",
"kkkkkkkkkkkkkkkkkkkkkkkkkkkkkkkk",
"kkkkkkkkkkkkkkkkkkkkkkkkkkkkkkkk",
"kkkkkkkkkkkkkkkkkkkkkkkkkkkkkkkk",
"kkkkkkkkkkkkkkkkkkkkkkkkkkkkkkkk",
"kkkkkkkkkkkkkkkkkkkkkkkkkkkkkkkk",
"kkkkkkkkkkkkkkkkkkkkkkkkkkkkkkkk",
"kkkkkkkkkkkkkkkkkkkkkkkkkkkkkkkk",
"kkkkkkkkkkkkkk,11>kkkkkkkkkkkkkk",
"kkkkkkkkkkkkk:#XO$:kkkkkkkkkkkkk",
"kkkkkkkkkkkk4% .O@*4kkkkkkkkkkkk",
"kkkkkkkkkkkd6X.+@OO6jkkkkkkkkkkk",
"kqpiuu9k8afreo=;;=oerfa7k8uuuu0k",
"kkkkkkkkkkytwg53<3gwwwkkkkkkkkkk",
"kkkkkkkkkkkkk2-OX&2kkkkkkkkkkkkk",
"kkkkkkkkkkkkkkshhskkkkkkkkkkkkkk",
"kkkkkkkkkkkkkkkkkkkkkkkkkkkkkkkk",
"kkkkkkkkkkkkkkkkkkkkkkkkkkkkkkkk",
"kkkkkkkkkkkkkkkkkkkkkkkkkkkkkkkk",
"kkkkkkkkkkkkkkkkkkkkkkkkkkkkkkkk",
"kkkkkkkkkkkkkkkkkkkkkkkkkkkkkkkk",
"kkkkkkkkkkkkkkkkkkkkkkkkkkkkkkkk",
"kkkkkkkkkkkkkkkkkkkkkkkkkkkkkkkk",
"kkkkkkkkkkkkkkkkkkkkkkkkkkkkkkkk",
"kkkkkkkkkkkkkkkkkkkkkkkkkkkkkkkk",
"kkkkkkkkkkkkkkkkkkkkkkkkkkkkkkkk",
"kkkkkkkkkkkkkkkkkkkkkkkkkkkkkkkk",
"kkkkkkkkkkkkkkkkkkkkkkkkkkkkkkkk"
};
