/* XPM */
static char *result[] = {
/* columns rows colors chars-per-pixel */
"32 32 49 1 ",
"  c #06000B",
". c #17002A",
"X c #23003F",
"o c #6A403D",
"O c #28004A",
"+ c #2E0054",
"@ c #34005F",
"# c #4A1742",
"$ c #561757",
"% c #502046",
"& c #552947",
"* c #5C205B",
"= c #6B3E46",
"- c #60295D",
"; c #763E5B",
": c #8B4E3F",
"> c #A95837",
", c #A95838",
"< c #A77B38",
"1 c #CD683D",
"2 c #9E7047",
"3 c #AD7B43",
"4 c #BD7845",
"5 c #B97B58",
"6 c #D57543",
"7 c #A48129",
"8 c #A58129",
"9 c #A6822A",
"0 c #A6822B",
"q c #CC9F29",
"w c #DC8637",
"e c #E18F3B",
"r c #CCA029",
"t c #CCA02A",
"y c #CDA02A",
"u c #CDA02B",
"i c #CEA12B",
"p c #D8A033",
"a c #CE984A",
"s c #CE994A",
"d c #ECA142",
"f c #E4A843",
"g c #FBB954",
"h c #CFAB77",
"j c #EEAE71",
"k c #CFC09A",
"l c #DCC6B7",
"z c #D2D1D3",
"x c None",
/* pixels */
"xxxxxxxxxxxxxxxxxxxxxxxxxxxxxxxx",
"xxxxxxxxxxxxxxxxxxxxxxxxxxxxxxxx",
"xxxxxxxxxxxxxxxxxxxxxxxxxxxxxxxx",
"xxxxxxxxxxxxxxxxxxxxxxxxxxxxxxxx",
"xxxxxxxxxxxxxxxxxxxxxxxxxxxxxxxx",
"xxxxxxxxxxxxxxxxxxxxxxxxxxxxxxxx",
"xxxxxxxxxxxxxxxxxxxxxxxxxxxxxxxx",
"xxxxxxxxxxxxxxxxxxxxxxxxxxxxxxxx",
"xxxxxxxxxxxxxxxxxxxxxxxxxxxxxxxx",
"xxxxxxxxxxxxxxxxxxxxxxxxxxxxxxxx",
"xxxxxxxxxxxxxxxxxxxxxxxxxxxxxxxx",
"xxxxxxxxxxxxxxxxxxxxxxxxxxxxxxxx",
"xxxxxxxxxxxxxx,11>xxxxxxxxxxxxxx",
"xxxxxxxxxxxxx:#XO$:xxxxxxxxxxxxx",
"xxxxxxxxxxxx4% .O@*4xxxxxxxxxxxx",
"xxxxxxxxxxxs6X.+@OO6hxxxxxxxxxxx",
"x0iuyy8x7pdewo=;;=owejlxxxzyyy9x",
"xxxxxxxxxxtrqf53<3fqqkxxxxxxxxxx",
"xxxxxxxxxxxxx2-OX&2xxxxxxxxxxxxx",
"xxxxxxxxxxxxxxaggaxxxxxxxxxxxxxx",
"xxxxxxxxxxxxxxxxxxxxxxxxxxxxxxxx",
"xxxxxxxxxxxxxxxxxxxxxxxxxxxxxxxx",
"xxxxxxxxxxxxxxxxxxxxxxxxxxxxxxxx",
"xxxxxxxxxxxxxxxxxxxxxxxxxxxxxxxx",
"xxxxxxxxxxxxxxxxxxxxxxxxxxxxxxxx",
"xxxxxxxxxxxxxxxxxxxxxxxxxxxxxxxx",
"xxxxxxxxxxxxxxxxxxxxxxxxxxxxxxxx",
"xxxxxxxxxxxxxxxxxxxxxxxxxxxxxxxx",
"xxxxxxxxxxxxxxxxxxxxxxxxxxxxxxxx",
"xxxxxxxxxxxxxxxxxxxxxxxxxxxxxxxx",
"xxxxxxxxxxxxxxxxxxxxxxxxxxxxxxxx",
"xxxxxxxxxxxxxxxxxxxxxxxxxxxxxxxx"
};
