/* XPM */
static char *result[] = {
/* columns rows colors chars-per-pixel */
"32 32 49 1 ",
"  c #06000B",
". c #17002A",
"X c #23003F",
"o c #6A403D",
"O c #28004A",
"+ c #2E0054",
"@ c #34005F",
"# c #4A1742",
"$ c #561757",
"% c #502046",
"& c #552947",
"* c #5C205B",
"= c #6B3E46",
"- c #60295D",
"; c #763E5B",
": c #8B4E3F",
"> c #A95837",
", c #A95838",
"< c #A77B38",
"1 c #CD683D",
"2 c #9E7047",
"3 c #AD7B43",
"4 c #BD7845",
"5 c #B97B58",
"6 c #D57543",
"7 c #A48028",
"8 c #A48129",
"9 c #A6822A",
"0 c #A6822B",
"q c #CC9F29",
"w c #DC8637",
"e c #E18F3B",
"r c #CCA029",
"t c #CDA02A",
"y c #CDA02B",
"u c #CEA12B",
"i c #D8A033",
"p c #CE984A",
"a c #ECA142",
"s c #E4A843",
"d c #FBB954",
"f c #CFAB77",
"g c #EEAE71",
"h c #A8A6AA",
"j c #A9A6AB",
"k c #D0C09A",
"l c #DCC6B7",
"z c #D2D1D3",
"x c None",
/* pixels */
"xxxxxxxxxxxxxxxxxxxxxxxxxxxxxxxx",
"xxxxxxxxxxxxxxxxxxxxxxxxxxxxxxxx",
"xxxxxxxxxxxxxxxxxxxxxxxxxxxxxxxx",
"xxxxxxxxxxxxxxxxxxxxxxxxxxxxxxxx",
"xxxxxxxxxxxxxxxxxxxxxxxxxxxxxxxx",
"xxxxxxxxxxxxxxxxxxxxxxxxxxxxxxxx",
"xxxxxxxxxxxxxxxxxxxxxxxxxxxxxxxx",
"xxxxxxxxxxxxxxxxxxxxxxxxxxxxxxxx",
"xxxxxxxxxxxxxxxxxxxxxxxxxxxxxxxx",
"xxxxxxxxxxxxxxxxxxxxxxxxxxxxxxxx",
"xxxxxxxxxxxxxxxxxxxxxxxxxxxxxxxx",
"xxxxxxxxxxxxxxxxxxxxxxxxxxxxxxxx",
"xxxxxxxxxxxxxx,11>xxxxxxxxxxxxxx",
"xxxxxxxxxxxxx:#XO$:xxxxxxxxxxxxx",
"xxxxxxxxxxxx4% .O@*4xxxxxxxxxxxx",
"xxxxxxxxxxxf6X.+@OO6pxxxxxxxxxxx",
"x0uytzjxhlgewo=;;=oweai7x8tttt9x",
"xxxxxxxxxxkrqs53<3sqqqxxxxxxxxxx",
"xxxxxxxxxxxxx2-OX&2xxxxxxxxxxxxx",
"xxxxxxxxxxxxxxpddpxxxxxxxxxxxxxx",
"xxxxxxxxxxxxxxxxxxxxxxxxxxxxxxxx",
"xxxxxxxxxxxxxxxxxxxxxxxxxxxxxxxx",
"xxxxxxxxxxxxxxxxxxxxxxxxxxxxxxxx",
"xxxxxxxxxxxxxxxxxxxxxxxxxxxxxxxx",
"xxxxxxxxxxxxxxxxxxxxxxxxxxxxxxxx",
"xxxxxxxxxxxxxxxxxxxxxxxxxxxxxxxx",
"xxxxxxxxxxxxxxxxxxxxxxxxxxxxxxxx",
"xxxxxxxxxxxxxxxxxxxxxxxxxxxxxxxx",
"xxxxxxxxxxxxxxxxxxxxxxxxxxxxxxxx",
"xxxxxxxxxxxxxxxxxxxxxxxxxxxxxxxx",
"xxxxxxxxxxxxxxxxxxxxxxxxxxxxxxxx",
"xxxxxxxxxxxxxxxxxxxxxxxxxxxxxxxx"
};
