/* XPM */
static char *result[] = {
/* columns rows colors chars-per-pixel */
"64 64 109 2 ",
"   c #0B0013",
".  c #362D3E",
"X  c #382E3F",
"o  c #38303F",
"O  c #29004A",
"+  c #3B3144",
"@  c #3F3549",
"#  c #3E006F",
"$  c #42374C",
"%  c #45394E",
"&  c #493D4F",
"*  c #473A51",
"=  c #493D52",
"-  c #554653",
";  c #584754",
":  c #5B4A55",
">  c #614E56",
",  c #634F58",
"<  c #665155",
"1  c #6A5456",
"2  c #6C555A",
"3  c #6F585A",
"4  c #745C5C",
"5  c #795F5C",
"6  c #7D625C",
"7  c #822974",
"8  c #8D387B",
"9  c #815D5C",
"0  c #82655D",
"q  c #8B645D",
"w  c #85685E",
"e  c #896B5E",
"r  c #93665D",
"t  c #9C665C",
"y  c #906F5D",
"u  c #9F6C5D",
"i  c #92725F",
"p  c #A2665C",
"a  c #A56C5D",
"s  c #AF715D",
"d  c #B5735D",
"f  c #95487D",
"g  c #956D61",
"h  c #8A726D",
"j  c #947461",
"k  c #9B7363",
"l  c #9E7C63",
"z  c #90766F",
"x  c #A37665",
"c  c #A67A65",
"v  c #AD7C66",
"b  c #B97B63",
"n  c #B2716C",
"m  c #B36D7B",
"M  c #C37A5F",
"N  c #B49643",
"B  c #B69845",
"V  c #B7915D",
"C  c #9B847F",
"Z  c #AD8A66",
"A  c #B38968",
"S  c #BB8A69",
"D  c #B69168",
"F  c #A1887F",
"G  c #C08D6B",
"H  c #D4896F",
"J  c #C19C6C",
"K  c #CF996F",
"L  c #E89962",
"P  c #C7A26D",
"I  c #C9A46D",
"U  c #D8B473",
"Y  c #F6AF6C",
"T  c #E2B97D",
"R  c #F9BF76",
"E  c #E5CA47",
"W  c #E6CB49",
"Q  c #F6E349",
"!  c #F9E35A",
"~  c #E7C563",
"^  c #FAD061",
"/  c #FBD768",
"(  c #EAC576",
")  c #F1C27A",
"_  c #FDE474",
"`  c #FCE876",
"'  c #470082",
"]  c #510093",
"[  c #5C00A3",
"{  c #962998",
"}  c #9F389E",
"|  c #A548A1",
" . c #C06D9E",
".. c #AC968D",
"X. c #AF998D",
"o. c #B7A398",
"O. c #B8A398",
"+. c #C49E81",
"@. c #C9AC82",
"#. c #C3AFA1",
"$. c #C8B7A9",
"%. c #CAB8A9",
"&. c #F7DE82",
"*. c #F0C599",
"=. c #FFF093",
"-. c #D9CABA",
";. c #F7F2E6",
":. c #F8F8F8",
">. c None",
/* pixels */
">.>.>.>.>.>.>.>.>.>.>.>.>.>.>.>.>.>.>.>.>.>.>.>.>.>.>.>.>.>.>.>.>.>.>.>.>.>.>.>.>.>.>.>.>.>.>.>.>.>.>.>.>.>.>.>.>.>.>.>.>.>.>.>.",
">.>.>.>.>.>.>.>.>.>.>.>.>.>.>.>.>.>.>.>.>.>.>.>.>.>.>.>.>.>.>.>.>.>.>.>.>.>.>.>.>.>.>.>.>.>.>.>.>.>.>.>.>.>.>.>.>.>.>.>.>.>.>.>.",
">.>.>.>.>.>.>.>.>.>.>.>.>.>.>.>.>.>.>.>.>.>.>.>.>.>.>.>.>.>.>.>.>.>.>.>.>.>.>.>.>.>.>.>.>.>.>.>.>.>.>.>.>.>.>.>.>.>.>.>.>.>.>.>.",
">.>.>.>.>.>.>.>.>.>.>.>.>.>.>.>.>.>.>.>.>.>.>.>.>.>.>.>.>.>.>.>.>.>.>.>.>.>.>.>.>.>.>.>.>.>.>.>.>.>.>.>.>.>.>.>.>.>.>.>.>.>.>.>.",
">.>.>.>.>.>.>.>.>.>.>.>.>.>.>.>.>.>.>.>.>.>.>.>.>.>.>.>.>.>.>.>.>.>.>.>.>.>.>.>.>.>.>.>.>.>.>.>.>.>.>.>.>.>.>.>.>.>.>.>.>.>.>.>.",
">.>.>.>.>.>.>.>.>.>.>.>.>.>.>.>.>.>.>.>.>.>.>.>.>.>.>.>.>.>.>.>.>.>.>.>.>.>.>.>.>.>.>.>.>.>.>.>.>.>.>.>.>.>.>.>.>.>.>.>.>.>.>.>.",
">.>.>.>.>.>.>.>.>.>.>.>.>.>.>.>.>.>.>.>.>.>.>.>.>.>.>.>.5 4 4 4 4 4 4 5 5 >.>.>.>.>.>.>.>.>.>.>.>.>.>.>.>.>.>.>.>.>.>.>.>.>.>.>.",
">.>.>.>.>.>.>.>.>.>.>.>.>.>.>.>.>.>.>.>.>.>.>.4 ....X.#.%.%.%.%.%.%.%.%.#.......4 5 >.>.>.>.>.>.>.>.>.>.>.>.>.>.>.>.>.>.>.>.>.>.",
">.>.>.>.>.>.>.>.>.>.>.>.>.>.>.>.>.>.>.>.>.3 h X.#.$.$...4 5 6 6 6 6 5 4 ..$.$.#...h 3 3 >.>.>.>.>.>.>.>.>.>.>.>.>.>.>.>.>.>.>.>.",
">.>.>.>.>.>.>.>.>.>.>.>.>.>.>.>.>.>.>.5 4 $.#.X.z 4 3 4 5 6 6 5 6 6 6 4 5 4 3 z X.#.$.4 5 2 >.>.>.>.>.>.>.>.>.>.>.>.>.>.>.>.>.>.",
">.>.>.>.>.>.>.>.>.>.>.>.>.>.>.>.>.2 4 ..-.2 4 4 4 4 4 5 0 5 5 6 0 4 4 w 4 5 5 4 4 3 2 -...4 2 2 >.>.>.>.>.>.>.>.>.>.>.>.>.>.>.>.",
">.>.>.>.>.>.>.>.>.>.>.>.>.>.>.>.2 ..%.O.4 4 3 3 4 6 5 6 5 5 5 6 6 4 6 6 5 5 6 4 3 3 5 4 o.@.l 4 2 >.>.>.>.>.>.>.>.>.>.>.>.>.>.>.",
">.>.>.>.>.>.>.>.>.>.>.>.>.>.>.3 o.o.4 4 2 5 4 5 4 6 w w 6 0 w 0 0 w 0 6 e 0 6 4 6 3 5 2 4 3 A v 3 4 >.>.>.>.>.>.>.>.>.>.>.>.>.>.",
">.>.>.>.>.>.>.>.>.>.>.>.>.>.C %.o.h 2 4 2 2 6 0 6 6 w e g q 0 0 0 0 e e w w 6 0 0 6 2 3 4 4 0 v S g 6 >.>.>.>.>.>.>.>.>.>.>.>.>.",
">.>.>.>.>.>.>.>.>.>.>.>.>.C O.3 3 2 4 4 5 5 0 0 w 6 3 : = = * * = = = = : 2 6 0 6 w 5 5 4 4 2 4 3 a q 4 >.>.>.>.>.>.>.>.>.>.>.>.",
">.>.>.>.>.>.>.>.>.>.>.>.3 %.3 4 2 4 2 5 6 6 e 6 2 = = * * * * * * * * * * = = 2 6 e 6 6 5 2 3 2 4 2 b 2 2 >.>.>.>.>.>.>.>.>.>.>.",
">.>.>.>.>.>.>.>.>.>.>.4 o.o.3 3 5 4 4 0 j 0 , = * * * % % % % % % % % % % % % * = > 6 j 0 3 4 6 2 3 p a 4 2 >.>.>.>.>.>.>.>.>.>.",
">.>.>.>.>.>.>.>.>.>.2 F o.h 2 4 4 4 w k 5 ; = * % % % % % % % $ % % $ % $ % % * % = - 6 k w 4 4 4 2 9 a r 2 5 >.>.>.>.>.>.>.>.>.",
">.>.>.>.>.>.>.>.>.>.4 %.4 3 4 3 3 e e , = * * * % % $ $ % $ % $ $ $ $ $ % $ $ % % % & = > e w 3 3 3 3 4 d 4 3 >.>.>.>.>.>.>.>.>.",
">.>.>.>.>.>.>.>.>.4 X.O.4 4 4 4 0 j , = * * % * % % $ $ $ $ $ $ $ $ $ $ $ $ $ $ % % % % & > i 0 5 4 4 4 a t 4 3 >.>.>.>.>.>.>.>.",
">.>.>.>.>.>.>.>.3 4 -.4 2 4 5 6 h 5 = * * % % $ $ $ $ $ + $ + $ @ + $ + $ $ @ $ $ $ $ $ % % 5 y 9 5 3 2 4 M 4 3 4 >.>.>.>.>.>.>.",
">.>.>.>.>.>.>.3 3 $.2 4 4 2 5 6 0 ; * % % $ % $ $ $ $ + $ + $ + + $ + $ + $ + $ $ $ $ % % % - 0 5 5 3 5 5 2 d 3 3 >.>.>.>.>.>.>.",
">.>.>.>.>.>.>.4 h #.3 4 4 6 0 w > = % % % % $ @ $ + $ + + $ $ $ + + $ + $ + + $ $ $ $ $ % $ % > e 6 5 4 3 4 s 9 4 >.>.>.>.>.>.>.",
">.>.>.>.>.>.>.4 X.X.4 2 5 0 0 6 = % * @ % $ $ @ + $ + $ + X + + + + + + + + + + + + + $ $ % % & 6 0 0 5 3 3 u u 4 6 >.>.>.>.>.>.",
">.>.>.>.>.>.>.F #.z 4 4 4 6 w 2 = % % % $ $ @ $ @ @ + + $ X X + + + + + . + + + $ + $ + $ $ $ % < 0 6 4 4 4 0 d r 4 >.>.>.>.>.>.",
">.>.>.>.>.>.4 X.%.4 5 5 6 6 6 = % % % $ $ @ @ + + + + + $ X X X + X + . + + + + + + + $ + $ $ $ % 5 6 6 4 6 4 G c 4 4 >.>.>.>.>.",
">.>.>.>.>.>.4 X.%.4 4 5 0 w 2 = % $ % $ @ @ @ + + + + + X X + + . . X + . + X + $ + $ + $ + $ $ % 1 w 0 6 4 6 S c 4 4 >.>.>.>.>.",
">.>.>.>.>.>.4 #...6 4 6 w e : % % $ $ $ @ @ @ + + + + + O + + + . . . . . . . + X + X $ + $ $ $ % - w 0 6 4 4 k S 4 4 >.>.>.>.>.",
">.>.>.>.>.>.6 %.2 4 w 5 6 e * % $ % @ $ @ @ @ + + + . . + . L Y Y L . . . . . + o + $ + $ + $ + $ & e 6 5 0 5 4 G 5 4 >.>.>.>.>.",
">.>.>.>.>.4 4 I 5 6 4 6 0 e = % % $ $ @ @ @ + + + . + . . H , # # { H . . . . . o + X + + $ + $ $ % 0 0 6 4 6 5 +.4 4 4 >.>.>.>.",
">.>.>.>.>.6 4 I 6 6 5 6 w 0 % % $ $ $ @ @ + + + + . . . R 8   O ' [ } ) . . . . o o + + + $ $ $ $ $ 0 0 4 4 6 6 %.4 4 5 >.>.>.>.",
">.>.>.>.>.4 4 I 5 4 6 6 0 0 % % % $ $ @ + @ + + . + V ;.R # O ] [ ' ' R &.V . X o o + + + + + $ $ + 6 0 6 0 4 6 %.5 4 3 >.>.>.>.",
">.>.>.>.>.4 5 I 6 5 0 6 0 6 * % % W :.:.:.:.W + E ! _ / ^ x  . . . .n ^ / _ ! E . E Q Q Q Q W $ $ $ 6 0 6 6 6 6 $.4 3 1 >.>.>.>.",
">.>.>.>.>.5 4 I 6 6 4 5 w 0 % % $ $ $ + $ + + + o N Q Q Q _ *.( ~ ~ ` Q Q Q N . . + + + @ + @ @ $ $ 6 w 4 4 6 6 %.3 6 4 >.>.>.>.",
">.>.>.>.>.4 5 P 5 6 4 6 0 e & % % $ $ $ + $ + + o o . . . T } ' # f U . . . . . . o + + @ @ @ @ $ $ 0 0 6 3 6 6 %.6 2 6 >.>.>.>.",
">.>.>.>.>.4 5 P 4 5 0 5 0 e * % $ $ $ $ + + + + + o . . . . _ =.=.&.. . . . . . + + + + + @ @ @ $ & e 5 6 6 6 3 %.6 3 4 >.>.>.>.",
">.>.>.>.>.5 4 J k 5 5 6 0 e ; % $ $ $ $ + $ + + + o + . . . . . . . . . . . . . X + o + + $ + $ $ - q 0 5 5 6 C #.4 4 3 >.>.>.>.",
">.>.>.>.>.>.4 x S 5 4 5 0 0 3 * * $ $ $ $ + + + + + + o . . . . . . . . . . . + + + + + $ + $ $ $ 1 0 0 5 5 6 %.X.4 4 >.>.>.>.>.",
">.>.>.>.>.>.4 c S 4 5 5 6 6 5 * % % @ $ + $ + + + + + . + . . . . . . . . o . + + + + o + $ $ $ & 5 5 9 5 6 4 $.X.4 4 >.>.>.>.>.",
">.>.>.>.>.>.4 k S e 4 4 4 0 0 2 % % % $ $ $ $ + + + + + . + + . . . . + + . + + + o $ $ $ + $ $ < 0 0 1 3 4 j #...4 3 >.>.>.>.>.",
">.>.>.>.>.>.4 4 c c 4 3 5 0 0 6 = % $ % $ @ @ @ @ + + + + + + + . . + o + + + + + @ + $ $ $ $ & 5 6 0 5 3 3 X.X.2 3 4 >.>.>.>.>.",
">.>.>.>.>.>.>.4 0 S 4 3 4 6 0 e > = % $ $ $ @ @ @ @ @ + + + + + + + + + + + + @ + @ @ @ $ $ $ > q 0 5 4 3 4 #.h 4 4 >.>.>.>.>.>.",
">.>.>.>.>.>.>.3 4 S 2 5 4 3 5 5 6 - % % % $ $ @ @ @ @ @ + @ + + + + + + + + @ @ + $ @ $ $ $ - 5 6 4 2 5 5 2 $.3 1 6 >.>.>.>.>.>.",
">.>.>.>.>.>.>.4 2 4 K 4 3 3 4 0 j 5 = * % % $ $ @ @ @ @ @ + + @ @ @ + + @ + @ @ @ @ $ $ $ & 5 y 6 4 3 2 4 -.3 3 4 >.>.>.>.>.>.>.",
">.>.>.>.>.>.>.3 4 4 x a 4 4 4 4 w j : = % % % $ @ $ @ @ @ @ @ @ @ @ @ @ @ @ @ @ $ $ $ % % > i 0 4 4 4 4 o...4 3 3 >.>.>.>.>.>.>.",
">.>.>.>.>.>.>.>.4 2 4 d 4 3 4 2 4 w e < * % % % % $ * @ $ $ @ @ @ @ @ @ $ $ $ $ $ $ % & > e w 4 1 4 3 3 $.3 3 4 6 >.>.>.>.>.>.>.",
">.>.>.>.>.>.>.>.>.2 2 r a 5 2 4 4 4 0 j 5 - = * % $ * $ $ $ $ $ @ $ $ $ $ $ $ $ % & - 4 i w 3 4 4 1 h O...> 4 5 >.>.>.>.>.>.>.>.",
">.>.>.>.>.>.>.>.>.5 3 4 p p 4 3 6 4 4 0 g 0 > = * % $ $ * $ $ $ $ $ $ $ $ $ % * & > 6 i w 3 4 5 3 3 O.O.4 3 2 >.>.>.>.>.>.>.>.>.",
">.>.>.>.>.>.>.>.>.>.4 2 2 n 3 4 2 4 2 5 9 6 e 0 2 * * * * * $ $ % % % % * * - , 6 w 6 6 4 3 4 2 4 3 %.3 2 4 4 >.>.>.>.>.>.>.>.>.",
">.>.>.>.>.>.>.>.>.>.2 4 4 q a 3 3 2 4 4 5 5 0 0 0 5 3 ; = * * * % % & = - 2 4 w 0 6 5 5 4 3 2 4 3 O.C 3 4 3 >.>.>.>.>.>.>.>.>.>.",
">.>.>.>.>.>.>.>.>.>.>.>.4 4 r d p 5 4 4 2 2 5 0 0 6 0 e e e 0 6 0 0 w e w 0 6 6 0 6 3 3 4 3 w D I i 5 3 2 >.>.>.>.>.>.>.>.>.>.>.",
">.>.>.>.>.>.>.>.>.>.>.>.5 3 3 3 a a 4 4 2 5 4 5 4 6 0 w 6 w w 0 0 w w 6 w 0 6 4 6 4 4 2 4 4 D D 4 3 4 3 >.>.>.>.>.>.>.>.>.>.>.>.",
">.>.>.>.>.>.>.>.>.>.>.>.>.>.4 3 4 r d a 4 4 3 3 4 6 4 6 6 6 4 6 6 6 6 5 6 5 5 4 3 3 6 4 A I l 4 3 4 2 >.>.>.>.>.>.>.>.>.>.>.>.>.",
">.>.>.>.>.>.>.>.>.>.>.>.>.>.2 4 2 2 4 t M 2 4 4 4 5 4 4 0 4 4 6 6 4 4 0 4 4 5 4 3 3 2 U Z 4 2 3 4 2 >.>.>.>.>.>.>.>.>.>.>.>.>.>.",
">.>.>.>.>.>.>.>.>.>.>.>.>.>.>.>.3 3 3 4 4 d n u 0 6 6 6 6 6 6 6 6 6 6 6 4 4 4 e Z P P 3 5 2 3 2 4 >.>.>.>.>.>.>.>.>.>.>.>.>.>.>.",
">.>.>.>.>.>.>.>.>.>.>.>.>.>.>.>.>.5 3 3 3 3 9 k n d S j 4 4 6 6 6 6 4 4 Z I I P Z e 3 3 2 4 6 5 >.>.>.>.>.>.>.>.>.>.>.>.>.>.>.>.",
">.>.>.>.>.>.>.>.>.>.>.>.>.>.>.>.>.>.5 4 4 2 4 4 r x x S G G G S S S S G S Z Z l 4 4 2 3 3 6 >.>.>.>.>.>.>.>.>.>.>.>.>.>.>.>.>.>.",
">.>.>.>.>.>.>.>.>.>.>.>.>.>.>.>.>.>.>.>.5 6 4 4 4 4 4 4 6 4 4 5 5 5 4 5 4 5 4 4 4 4 6 4 >.>.>.>.>.>.>.>.>.>.>.>.>.>.>.>.>.>.>.>.",
">.>.>.>.>.>.>.>.>.>.>.>.>.>.>.>.>.>.>.>.>.>.>.4 2 4 4 4 4 4 5 4 4 5 3 4 4 3 4 3 4 4 >.>.>.>.>.>.>.>.>.>.>.>.>.>.>.>.>.>.>.>.>.>.",
">.>.>.>.>.>.>.>.>.>.>.>.>.>.>.>.>.>.>.>.>.>.>.>.>.2 4 3 4 4 4 2 2 5 5 4 3 4 2 5 >.>.>.>.>.>.>.>.>.>.>.>.>.>.>.>.>.>.>.>.>.>.>.>.",
">.>.>.>.>.>.>.>.>.>.>.>.>.>.>.>.>.>.>.>.>.>.>.>.>.>.>.>.5 4 2 4 4 2 4 5 >.>.>.>.>.>.>.>.>.>.>.>.>.>.>.>.>.>.>.>.>.>.>.>.>.>.>.>.",
">.>.>.>.>.>.>.>.>.>.>.>.>.>.>.>.>.>.>.>.>.>.>.>.>.>.>.>.>.>.>.>.>.>.>.>.>.>.>.>.>.>.>.>.>.>.>.>.>.>.>.>.>.>.>.>.>.>.>.>.>.>.>.>.",
">.>.>.>.>.>.>.>.>.>.>.>.>.>.>.>.>.>.>.>.>.>.>.>.>.>.>.>.>.>.>.>.>.>.>.>.>.>.>.>.>.>.>.>.>.>.>.>.>.>.>.>.>.>.>.>.>.>.>.>.>.>.>.>.",
">.>.>.>.>.>.>.>.>.>.>.>.>.>.>.>.>.>.>.>.>.>.>.>.>.>.>.>.>.>.>.>.>.>.>.>.>.>.>.>.>.>.>.>.>.>.>.>.>.>.>.>.>.>.>.>.>.>.>.>.>.>.>.>."
};
