/* XPM */
static char *result[] = {
/* columns rows colors chars-per-pixel */
"64 64 103 2 ",
"   c #08000F",
".  c #20003A",
"X  c #28222F",
"o  c #2C2533",
"O  c #2F2835",
"+  c #302837",
"@  c #332B3B",
"#  c #382F3F",
"$  c #3A303F",
"%  c #42353F",
"&  c #300056",
"*  c #382F40",
"=  c #3A3040",
"-  c #370065",
";  c #3F0073",
":  c #433741",
">  c #463843",
",  c #4B3C43",
"<  c #65205A",
"1  c #6E2C60",
"2  c #743861",
"3  c #762077",
"4  c #7E2C7D",
"5  c #554446",
"6  c #594647",
"7  c #5D4A47",
"8  c #5F4A49",
"9  c #624C47",
"0  c #6D4D47",
"q  c #644E49",
"w  c #6A4F4A",
"e  c #734F47",
"r  c #7B4F47",
"t  c #734F49",
"y  c #695247",
"u  c #675149",
"i  c #6A524A",
"p  c #72564A",
"a  c #7E5449",
"s  c #745A4B",
"d  c #7A5A4D",
"f  c #6C5955",
"g  c #705C56",
"h  c #7E614D",
"j  c #7A6763",
"k  c #7F6A63",
"l  c #947735",
"z  c #84387F",
"x  c #814F47",
"c  c #845349",
"v  c #855E4E",
"b  c #8E5849",
"n  c #935949",
"m  c #915854",
"M  c #A35F4A",
"N  c #86604E",
"B  c #8C614F",
"V  c #8B6B4F",
"C  c #98604D",
"Z  c #947047",
"A  c #967249",
"S  c #926B51",
"D  c #9A6B51",
"F  c #957251",
"G  c #A06E53",
"H  c #B76B56",
"J  c #A17C54",
"K  c #B17956",
"L  c #925560",
"P  c #A0557D",
"I  c #8C776E",
"U  c #8E796E",
"Y  c #A47D64",
"T  c #D3794C",
"R  c #CFAB37",
"E  c #CFAC38",
"W  c #D1AD39",
"Q  c #ECCB39",
"!  c #AA8355",
"~  c #BC9359",
"^  c #968277",
"/  c #AA8A65",
"(  c #A38E7F",
")  c #EC8E54",
"_  c #F19E5C",
"`  c #D2A54D",
"'  c #D6A55C",
"]  c #F4B24B",
"[  c #E2A25F",
"{  c #F6BB51",
"}  c #CA9861",
"|  c #E0A579",
" . c #F2CB46",
".. c #FACC5A",
"X. c #F7D25C",
"o. c #EDC465",
"O. c #FEE073",
"+. c #470082",
"@. c #AB9788",
"#. c #BEAB99",
"$. c #D4D2D6",
"%. c #EEE5C7",
"&. c None",
/* pixels */
"&.&.&.&.&.&.&.&.&.&.&.&.&.&.&.&.&.&.&.&.&.&.&.&.&.&.&.&.&.&.&.&.&.&.&.&.&.&.&.&.&.&.&.&.&.&.&.&.&.&.&.&.&.&.&.&.&.&.&.&.&.&.&.&.",
"&.&.&.&.&.&.&.&.&.&.&.&.&.&.&.&.&.&.&.&.&.&.&.&.&.&.&.&.&.&.&.&.&.&.&.&.&.&.&.&.&.&.&.&.&.&.&.&.&.&.&.&.&.&.&.&.&.&.&.&.&.&.&.&.",
"&.&.&.&.&.&.&.&.&.&.&.&.&.&.&.&.&.&.&.&.&.&.&.&.&.&.&.&.&.&.&.&.&.&.&.&.&.&.&.&.&.&.&.&.&.&.&.&.&.&.&.&.&.&.&.&.&.&.&.&.&.&.&.&.",
"&.&.&.&.&.&.&.&.&.&.&.&.&.&.&.&.&.&.&.&.&.&.&.&.&.&.&.&.&.&.&.&.&.&.&.&.&.&.&.&.&.&.&.&.&.&.&.&.&.&.&.&.&.&.&.&.&.&.&.&.&.&.&.&.",
"&.&.&.&.&.&.&.&.&.&.&.&.&.&.&.&.&.&.&.&.&.&.&.&.&.&.&.&.&.&.&.&.&.&.&.&.&.&.&.&.&.&.&.&.&.&.&.&.&.&.&.&.&.&.&.&.&.&.&.&.&.&.&.&.",
"&.&.&.&.&.&.&.&.&.&.&.&.&.&.&.&.&.&.&.&.&.&.&.&.&.&.&.&.&.&.&.&.&.&.&.&.&.&.&.&.&.&.&.&.&.&.&.&.&.&.&.&.&.&.&.&.&.&.&.&.&.&.&.&.",
"&.&.&.&.&.&.&.&.&.&.&.&.&.&.&.&.&.&.&.&.&.&.&.&.&.&.&.&.7 7 6 7 7 6 7 7 7 &.&.&.&.&.&.&.&.&.&.&.&.&.&.&.&.&.&.&.&.&.&.&.&.&.&.&.",
"&.&.&.&.&.&.&.&.&.&.&.&.&.&.&.&.&.&.&.&.&.&.&.5 k I I ( @.@.@.@.@.@.@.@.( I I I 6 6 &.&.&.&.&.&.&.&.&.&.&.&.&.&.&.&.&.&.&.&.&.&.",
"&.&.&.&.&.&.&.&.&.&.&.&.&.&.&.&.&.&.&.&.&.5 f I @.@.@.k 6 9 7 9 9 7 9 6 k @.@.@.I g 6 6 &.&.&.&.&.&.&.&.&.&.&.&.&.&.&.&.&.&.&.&.",
"&.&.&.&.&.&.&.&.&.&.&.&.&.&.&.&.&.&.&.8 5 @.@.U f 6 7 7 7 7 q 7 7 9 8 7 7 7 6 g I ^ @.6 7 5 &.&.&.&.&.&.&.&.&.&.&.&.&.&.&.&.&.&.",
"&.&.&.&.&.&.&.&.&.&.&.&.&.&.&.&.&.5 6 I #.5 5 7 6 7 7 7 u 7 8 9 9 7 7 u 7 7 7 6 6 6 5 #.I 6 5 5 &.&.&.&.&.&.&.&.&.&.&.&.&.&.&.&.",
"&.&.&.&.&.&.&.&.&.&.&.&.&.&.&.&.6 k @.^ 8 7 5 5 6 7 7 7 9 7 7 q 9 7 9 7 9 7 7 7 5 5 7 6 ^ / h 6 5 &.&.&.&.&.&.&.&.&.&.&.&.&.&.&.",
"&.&.&.&.&.&.&.&.&.&.&.&.&.&.&.5 ^ ^ 8 6 5 7 6 7 6 9 q i 9 w w q u u q q w q q 5 8 6 7 5 5 5 S B 5 6 &.&.&.&.&.&.&.&.&.&.&.&.&.&.",
"&.&.&.&.&.&.&.&.&.&.&.&.&.&.j @.U f 6 6 5 5 9 q q 9 u i w w 9 q q q i i i i 9 q u 7 5 5 7 6 q B D s q &.&.&.&.&.&.&.&.&.&.&.&.&.",
"&.&.&.&.&.&.&.&.&.&.&.&.&.j ^ 5 6 5 6 6 8 7 q q w q 5 > * * * * = * * * > 5 9 q u 9 8 7 5 6 5 5 5 c w 6 &.&.&.&.&.&.&.&.&.&.&.&.",
"&.&.&.&.&.&.&.&.&.&.&.&.5 @.6 6 5 6 5 6 9 9 i q 5 * * * * * @ * * * * * * * * 5 9 i 8 u 7 5 6 5 6 6 n 5 5 &.&.&.&.&.&.&.&.&.&.&.",
"&.&.&.&.&.&.&.&.&.&.&.5 ^ ^ 5 5 9 6 5 i s q , = * @ * * @ * * * @ * @ * * * @ * = , q p w 6 6 9 5 6 x c 6 5 &.&.&.&.&.&.&.&.&.&.",
"&.&.&.&.&.&.&.&.&.&.5 k ^ f 5 6 6 6 i d 8 > = * * * * @ @ @ @ @ @ @ @ @ @ @ @ * # $ : 7 s q 6 8 6 5 9 c e 5 7 &.&.&.&.&.&.&.&.&.",
"&.&.&.&.&.&.&.&.&.&.6 @.5 5 6 5 6 i i , * * * * * @ @ @ @ @ @ @ @ @ @ @ @ @ @ @ @ # * * , i i 5 , 6 5 5 n 6 5 &.&.&.&.&.&.&.&.&.",
"&.&.&.&.&.&.&.&.&.6 I ^ 7 6 6 7 w s , = @ * * @ @ @ @ @ @ @ @ @ @ @ + @ @ @ @ @ @ @ @ # # , s w 9 6 6 7 c r 7 6 &.&.&.&.&.&.&.&.",
"&.&.&.&.&.&.&.&.5 5 #.6 5 5 6 q p 7 * * * * @ @ @ @ @ @ @ + + + + + + @ + + @ @ @ @ @ @ @ * 9 p w 8 5 5 6 M 6 5 6 &.&.&.&.&.&.&.",
"&.&.&.&.&.&.&.5 5 @.5 7 7 5 7 9 q = * * @ @ @ @ @ @ + @ + + + + + + + + + + + @ + @ @ @ @ @ : 9 9 7 5 7 7 5 n 5 5 &.&.&.&.&.&.&.",
"&.&.&.&.&.&.&.7 f @.6 5 6 9 q i , * @ @ @ @ @ @ + + + + + + O + + + + + + + + + + @ @ @ @ @ # , w 9 7 6 5 6 b 9 6 &.&.&.&.&.&.&.",
"&.&.&.&.&.&.&.6 U U 6 5 7 q q q = * * @ * @ @ + + + + + + + O O o o o + + + + + + + + @ @ @ @ # 9 9 q 9 5 6 a a 7 9 &.&.&.&.&.&.",
"&.&.&.&.&.&.&.I ^ g 6 7 5 q u 5 * @ # @ @ @ @ + + + + o O o o O o o o o o o + + + + + @ @ @ @ @ % q 9 6 6 6 w b e 5 &.&.&.&.&.&.",
"&.&.&.&.&.&.6 I @.6 7 7 q 9 9 * @ # @ @ + @ + + + + + o O o o o o o o o o o o + o O + + + + @ @ $ 9 9 9 7 7 6 G v 7 6 &.&.&.&.&.",
"&.&.&.&.&.&.6 I @.7 7 7 q u 5 * * @ @ @ @ + + + o + o o o o o o o o o o o o o o o + + + @ + @ @ $ 5 q q 7 7 7 G v 7 6 &.&.&.&.&.",
"&.&.&.&.&.&.5 @.k 7 7 9 u u : * @ @ @ @ @ + + + + o + o X o X o o X X o o o o o o O O + + + @ @ @ % i q 9 7 7 d D 5 6 &.&.&.&.&.",
"&.&.&.&.&.&.7 @.6 7 u 8 9 i # @ @ @ @ + + + + o o o o X o X T ) ) T X o X o X o o o + O + @ + @ @ @ e 9 7 u 7 6 D 7 6 &.&.&.&.&.",
"&.&.&.&.&.6 7 ! 7 7 7 8 u i * * @ @ @ @ + + + o o o o o X H < & - 3 H X X o X o o o o + + + + @ @ @ y y 7 7 9 7 Y 7 6 7 &.&.&.&.",
"&.&.&.&.&.7 6 ! 9 9 7 8 u 9 * * @ @ @ + @ + O + o o o X [ 1   . - +.4 [ X X X o o o o O + + + + + @ 9 9 7 7 q 7 @.7 7 7 &.&.&.&.",
"&.&.&.&.&.7 7 ! 9 7 9 9 u 9 * @ @ @ @ @ + + o o o o S o._ & . ; +.- - _ o.Z X X o o o + + + @ + @ + 9 y 7 q 7 9 @.7 7 5 &.&.&.&.",
"&.&.&.&.&.7 7 ! 7 7 q q q q * @ @ $.%.Q Q Q W o W  ...{ { m m P P L m ] { .. .R X W Q Q Q Q W @ @ @ 9 q 7 9 7 7 @.7 7 5 &.&.&.&.",
"&.&.&.&.&.7 6 ! 7 q 6 7 u q @ * @ @ @ + + + + o o l Q Q Q X.| ' ` ' X.Q Q Q l X X o O O + + + @ @ @ 9 w 7 7 9 9 @.7 7 7 &.&.&.&.",
"&.&.&.&.&.6 6 ! 7 9 7 9 q i # @ @ @ @ @ + + o O o o X X o } z - & 2 } X X X X X X O O + + + + + @ @ 9 w 7 7 7 7 @.7 5 7 &.&.&.&.",
"&.&.&.&.&.6 8 ! 7 7 i 7 q i * * @ @ @ + + + O o o o o o X X | O.O.o.X X X X X o o o o X + + @ + @ @ y 9 7 y 7 5 @.7 6 6 &.&.&.&.",
"&.&.&.&.&.6 6 J d 7 7 9 i i > @ * @ @ @ @ + + + O o o o o X X X X X X X X X o o O o O + + + + @ @ % y y 9 7 7 I ( 6 6 5 &.&.&.&.",
"&.&.&.&.&.&.7 v D 7 7 7 q q 5 * @ @ @ @ + + + + O o o o o X X o X o X X o X o o X + O + + @ + @ @ 5 9 9 7 7 7 @.I 7 6 &.&.&.&.&.",
"&.&.&.&.&.&.6 v G 6 7 7 9 9 9 * * @ @ + + + + O O o o o o X o X o o X o X o o o X + + + + + @ @ @ 9 9 9 7 7 5 @.I 6 7 &.&.&.&.&.",
"&.&.&.&.&.&.6 d D i 7 6 6 q q 5 * @ @ @ @ + + + O O O o o o o o o X o o o o o O + + + + + @ @ # , y 9 5 5 7 s ( I 6 5 &.&.&.&.&.",
"&.&.&.&.&.&.6 6 N N 6 6 7 q q 9 * @ @ @ @ @ @ @ + + o o o + o o o o o o o o o + O + + + + @ @ $ 9 9 9 7 5 5 U U 5 5 6 &.&.&.&.&.",
"&.&.&.&.&.&.&.7 w D 6 5 6 9 9 i > * @ @ @ @ + + + + + + + o o + o O o O O O + + + + + + @ @ # % y q 7 6 5 5 @.f 6 5 &.&.&.&.&.&.",
"&.&.&.&.&.&.&.5 5 D 5 7 7 5 7 9 9 : @ @ @ @ @ @ + + + o + + o o O O O O + + + + + + @ @ @ @ % 9 7 7 5 7 7 5 @.5 5 9 &.&.&.&.&.&.",
"&.&.&.&.&.&.&.6 5 6 K 6 5 5 7 q p 9 * * @ @ @ @ + * + + + + + + O O O O + + + + @ + @ @ @ @ 7 p 9 7 5 5 6 #.6 5 6 &.&.&.&.&.&.&.",
"&.&.&.&.&.&.&.5 5 7 v c 6 6 6 8 w d , * @ @ @ @ + + * + + + + @ + + + + + + + @ @ @ @ # # , s q 6 6 6 6 ^ I 7 5 5 &.&.&.&.&.&.&.",
"&.&.&.&.&.&.&.&.6 5 6 n 6 5 6 5 6 i i > * * * @ * + + * * * + + + @ @ @ @ @ @ @ @ @ @ # , y q 6 5 6 6 6 @.5 5 6 9 &.&.&.&.&.&.&.",
"&.&.&.&.&.&.&.&.&.5 5 t c 9 5 6 6 6 w s 9 > * @ * * + * + * @ + @ @ + @ @ @ @ @ @ * : 7 p y 5 6 7 5 i ^ k 5 5 7 &.&.&.&.&.&.&.&.",
"&.&.&.&.&.&.&.&.&.7 5 5 c x 5 5 9 6 6 w p 9 > : + * * + * + @ + @ @ @ @ @ @ @ * * > 9 p q 5 7 7 5 5 ^ ^ 6 5 6 &.&.&.&.&.&.&.&.&.",
"&.&.&.&.&.&.&.&.&.&.6 5 5 n 5 6 5 6 , 8 q 9 w 9 , * * * * @ * * @ @ @ # # @ @ 5 9 i 8 9 8 5 8 5 5 6 @.5 5 6 6 &.&.&.&.&.&.&.&.&.",
"&.&.&.&.&.&.&.&.&.&.5 6 5 t c 5 8 , 9 6 8 8 q q i 9 5 > * = @ * * # # * : 5 7 u 9 q 7 7 5 5 5 5 5 ^ j 5 6 5 &.&.&.&.&.&.&.&.&.&.",
"&.&.&.&.&.&.&.&.&.&.&.&.5 7 e n x 9 6 6 5 5 9 q q q q i i i q q 9 9 u i u u 9 u u 7 5 5 7 5 u F ! h 7 7 5 &.&.&.&.&.&.&.&.&.&.&.",
"&.&.&.&.&.&.&.&.&.&.&.&.8 6 5 5 c c 6 6 , 7 6 q 6 9 q i q q u q u u u 9 u u 8 6 7 6 7 5 7 5 F F 5 5 5 5 &.&.&.&.&.&.&.&.&.&.&.&.",
"&.&.&.&.&.&.&.&.&.&.&.&.&.&.7 5 6 p n c 6 7 6 5 6 7 7 7 7 9 7 q q 7 7 7 8 7 7 6 6 5 8 7 F ! h 6 5 5 5 &.&.&.&.&.&.&.&.&.&.&.&.&.",
"&.&.&.&.&.&.&.&.&.&.&.&.&.&.5 5 5 5 6 r M 5 6 5 8 7 7 7 u 7 7 q q 7 7 u 7 7 7 7 6 5 5 ~ V 5 5 5 7 5 &.&.&.&.&.&.&.&.&.&.&.&.&.&.",
"&.&.&.&.&.&.&.&.&.&.&.&.&.&.&.&.5 5 5 7 6 n b a w 7 7 7 7 7 q 7 7 q 7 7 7 7 7 i V ! ! 5 7 5 6 5 5 &.&.&.&.&.&.&.&.&.&.&.&.&.&.&.",
"&.&.&.&.&.&.&.&.&.&.&.&.&.&.&.&.&.7 6 5 5 5 9 a b n G d 7 7 7 9 7 9 7 7 N ! ! J V i 5 5 5 6 8 7 &.&.&.&.&.&.&.&.&.&.&.&.&.&.&.&.",
"&.&.&.&.&.&.&.&.&.&.&.&.&.&.&.&.&.&.9 5 6 5 6 7 t a v D G D G D D G D G D V V h 7 6 5 5 5 9 &.&.&.&.&.&.&.&.&.&.&.&.&.&.&.&.&.&.",
"&.&.&.&.&.&.&.&.&.&.&.&.&.&.&.&.&.&.&.&.8 q 5 8 6 6 7 6 7 7 8 6 7 7 7 7 7 8 6 6 6 6 q 5 &.&.&.&.&.&.&.&.&.&.&.&.&.&.&.&.&.&.&.&.",
"&.&.&.&.&.&.&.&.&.&.&.&.&.&.&.&.&.&.&.&.&.&.&.6 5 6 6 6 6 6 7 7 7 7 5 6 6 6 6 5 6 6 &.&.&.&.&.&.&.&.&.&.&.&.&.&.&.&.&.&.&.&.&.&.",
"&.&.&.&.&.&.&.&.&.&.&.&.&.&.&.&.&.&.&.&.&.&.&.&.&.5 6 5 6 8 8 5 5 7 7 6 6 6 5 7 &.&.&.&.&.&.&.&.&.&.&.&.&.&.&.&.&.&.&.&.&.&.&.&.",
"&.&.&.&.&.&.&.&.&.&.&.&.&.&.&.&.&.&.&.&.&.&.&.&.&.&.&.&.6 6 5 6 6 5 6 6 &.&.&.&.&.&.&.&.&.&.&.&.&.&.&.&.&.&.&.&.&.&.&.&.&.&.&.&.",
"&.&.&.&.&.&.&.&.&.&.&.&.&.&.&.&.&.&.&.&.&.&.&.&.&.&.&.&.&.&.&.&.&.&.&.&.&.&.&.&.&.&.&.&.&.&.&.&.&.&.&.&.&.&.&.&.&.&.&.&.&.&.&.&.",
"&.&.&.&.&.&.&.&.&.&.&.&.&.&.&.&.&.&.&.&.&.&.&.&.&.&.&.&.&.&.&.&.&.&.&.&.&.&.&.&.&.&.&.&.&.&.&.&.&.&.&.&.&.&.&.&.&.&.&.&.&.&.&.&.",
"&.&.&.&.&.&.&.&.&.&.&.&.&.&.&.&.&.&.&.&.&.&.&.&.&.&.&.&.&.&.&.&.&.&.&.&.&.&.&.&.&.&.&.&.&.&.&.&.&.&.&.&.&.&.&.&.&.&.&.&.&.&.&.&."
};
