/* XPM */
static char *result[] = {
/* columns rows colors chars-per-pixel */
"64 64 156 2 ",
"   c #000000",
".  c #07070A",
"X  c #0A0012",
"o  c #100D13",
"O  c #181425",
"+  c #1D1827",
"@  c #1F1B28",
"#  c #171E33",
"$  c #201C29",
"%  c #1C2535",
"&  c #25202B",
"*  c #2A252D",
"=  c #2E282F",
"-  c #302A2F",
";  c #332D31",
":  c #352C3B",
">  c #2A323B",
",  c #363032",
"<  c #3B3534",
"1  c #3E3836",
"2  c #31353D",
"3  c #3D313D",
"4  c #423536",
"5  c #413A37",
"6  c #44363C",
"7  c #453B3A",
"8  c #4A3B3B",
"9  c #47403A",
"0  c #4E423A",
"q  c #50403E",
"w  c #51493E",
"e  c #756136",
"r  c #260046",
"t  c #182A43",
"y  c #133B5F",
"u  c #2B3949",
"i  c #3B3E40",
"p  c #3A3949",
"a  c #3A0068",
"s  c #443640",
"d  c #463941",
"f  c #4B3C42",
"g  c #423F4C",
"h  c #513F42",
"j  c #42007B",
"k  c #7B266D",
"l  c #3F4242",
"z  c #33414B",
"x  c #3A464E",
"c  c #2B4D64",
"v  c #2F5064",
"b  c #335265",
"n  c #3C5564",
"m  c #3C5A67",
"M  c #444443",
"N  c #4C4046",
"B  c #45424D",
"V  c #4B434C",
"C  c #474A4B",
"Z  c #534144",
"A  c #594545",
"S  c #5B4847",
"D  c #524449",
"F  c #53494D",
"G  c #5A4A4E",
"H  c #434E50",
"J  c #464A5A",
"K  c #4C4E5A",
"L  c #574C50",
"P  c #5F4E50",
"I  c #52515B",
"U  c #644646",
"Y  c #614C46",
"T  c #624C49",
"R  c #6A4E49",
"E  c #734D49",
"W  c #794D4A",
"Q  c #655048",
"!  c #6C534B",
"~  c #755749",
"^  c #7B534C",
"/  c #7A594E",
"(  c #6D5C5C",
")  c #7C614F",
"_  c #7F6450",
"`  c #435461",
"'  c #425F68",
"]  c #425F7B",
"[  c #48627A",
"{  c #536879",
"}  c #7D6C69",
"|  c #843574",
" . c #8D5A4F",
".. c #825D52",
"X. c #955D50",
"o. c #886953",
"O. c #8A6D53",
"+. c #976051",
"@. c #996252",
"#. c #956C57",
"$. c #9B7159",
"%. c #9C7C59",
"&. c #A6695A",
"*. c #A2755B",
"=. c #BB7259",
"-. c #8C4476",
";. c #806F6A",
":. c #966C64",
">. c #8B7A75",
",. c #AA6A65",
"<. c #AB6774",
"1. c #AA943C",
"2. c #D1BD3F",
"3. c #A7865D",
"4. c #AA895E",
"5. c #A8896E",
"6. c #B28F65",
"7. c #C2835C",
"8. c #D1BE41",
"9. c #CB9A67",
"0. c #D1AC6C",
"q. c #D1B86D",
"w. c #F4A765",
"e. c #E6BE6F",
"r. c #F7B76F",
"t. c #DFC84F",
"y. c #F9C95B",
"u. c #FBD868",
"i. c #FBE36F",
"p. c #4C008B",
"a. c #56009B",
"s. c #386F8F",
"d. c #3D718E",
"f. c #0B6FAE",
"g. c #287EAA",
"h. c #43738C",
"j. c #6F7B82",
"k. c #8E268F",
"l. c #973595",
"z. c #9C4498",
"x. c #B86795",
"c. c #2C80A9",
"v. c #3C86A4",
"b. c #529399",
"n. c #0099DB",
"m. c #26A5CF",
"M. c #43E8E9",
"N. c #9D8C83",
"B. c #899096",
"V. c #AA998F",
"C. c #AC9B90",
"Z. c #ADAAB1",
"A. c #ECBE91",
"S. c #FFEC8B",
"D. c #D3C3B2",
"F. c #D2CDBD",
/* pixels */
"O O O O O O O O O O O O O O O O O O O O O O O O O O + @ $ & & & & & & > % O O O O O O O O O O O O O O O O O O O O O O O O O O O ",
"O O O O O O O O O O O O O O O O O O O O O O O + @ * = , 1 5 7 7 7 7 1 < ; = * $ + O O O O y O O O O O O O O O O O O O O O O O O ",
"O O O O O O O O O O O O O O O O O O O y O O = < 1 < 1 1 1 , m.4 < < < < 5 1 1 1 < = O O O O O O O O O O O O O O O O O O O O O O ",
"O O O O y O O O O O O O O O O O O O O + * w 1 , , < ; , , c.M.g., = < , ; ; 1 , , 5 w * O O O O O O O O O O O O O O n.O O O O O ",
"O O O O O O O O O O O O O O O O O @ ; 5 9 ; , 1 < - , ; , 1 m.; ; < , ; , , c., 1 , , 8 5 - + O O O O f.O O O O O O O O O o O O ",
"O O O O O O O O O O O O O O O O ; < 5 < < , < , ; < , , 6 8 8 8 8 h 8 8 7 , < ; , , , < 1 7 1 ; + O O O O O O O O O O O O O O O ",
"O O O O O O O O O O O O O O O * 5 7 ; , ; 5 , p 7 8 8 8 f f f f f d f Z d 8 7 7 8 , 5 ; , ; 7 4 = @ O O O O O O O O O O n.O O O ",
"O O O O O O O O O O O O + * 9 5 < ; 1 ; 4 4 8 d ( } ;.N.V.C.C.C.C.C.C.V.N.} } ( d d 4 5 < < ; < 9 9 * + O O O O O O O O O O O O ",
"O O O O O O % O O O O + = 9 1 - < < 4 4 6 f G ;.N.C.C.) d f Z f h f f f ) C.C.N.} P d d 6 6 1 < - 1 9 = + O y O O O O O O O O O ",
"O O O O O O O O O O + , 5 1 b , ; , 6 f d V.N.;.P d g N f f Z f f Z Z f f N g P ;.N.V.d f d 4 ; < , 1 1 , + O O O O O O O O O O ",
"O O O O O O O O O O 1 5 1 ; - < 6 s d } D.d d d d f f f A f f Z Z f f A f f f d d d s D.;.f s d 7 = , < 1 < + O O O O O O O O O ",
"O O O O O O O O + , 5 1 ; = 1 1 d ( C.>.d h d d d h f f f Z f N N f f f f f Z d d d h.d >.5.! f 6 8 = , 1 5 , + O O O O O O O O ",
"O O O O O O O + ; 5 < ; c , 8 d >.B.s d d f f f d f A A Z Z A Z I A Z Z Z Z Z d f d f d d d o...8 d 7 ; 2 l l ; O O O O O O O O ",
"O O O O O O O = 7 4 ; - , 8 ( V.>.L d d d d f Z Z { D A A A Z Z Z Z A S A A f Z Z h d d d d h ..$.R f d u z x M * O O O O O O O ",
"O O O O O O @ 9 1 ; ; < 6 ( >.d d s f f f f Z h Z Z                       d Z Z h Z f f f d s d d ^ S d B c v x B @ O O O O O O ",
"O O O O O + - 7 ; , , 4 d V.d d s f s f h h A Z                               s Z A h h f d d d d 8 +.g B ` c.c H 2 O O O O O O ",
"O O O O O - 1 < < - 8 d >.>.6 d h d 6 A T Z                                       3 Z T Z d d h d d W W g V ` n x l ; + O O O O ",
"O O O O O < 7 ; 4 6 6 ( >.G d d f d Z T f                                             f Q A d d d s h ..U d g C u M < @ O O O O ",
"O O O O = 7 ; < < 6 f C.d d d d d A A 6               .                                 6 { A 8 s s s s X.f g f M ; 7 - O O O O ",
"O O O O 5 < , < 6 V } >.d d f f h R p                                                     3 T Z f f f f ^ E d d 8 , < 7 O O O O ",
"O O O * 9 < , 5 d d D.d s d f h T f                                                 o       h S h h d s f =.d d f ; < 9 * O O O ",
"O O + w , , 1 J d V.d d f d f h Z                                                             Z h f d f f s X.d d 0 , ; w O f.O ",
"O O = 5 , < ; d P N.d d f f Z A 3                                                     .       3 h h h J d d  .h d 6 < , 1 = O O ",
"O O 1 - 1 , 8 d ;.;.d d f Z Z h                                                                 h h A f d d W W f d 7 < , < + O ",
"O $ 5 - , ; d ( N.P f d d Z A s                                                                 6 Z Z d f f A  .U f 6 < - 4 $ O ",
"O * < 5 ; 8 f ;.C.d f h f Z N                                                                     h h 8 f f d *./ d d 4 5 1 * O ",
"O = 5 ; , 8 f ;.C.f f f Z A d                                                                     6 Z Z f f f *./ f d 8 - m = O ",
"@ , 5 ; ; 8 8 N.( f f h Z A                                                                         A A h f f ! #.d f 4 ; 7 ; $ ",
"& < < < , 5 f V.f f A f Z S                                 7.w.w.7.                                A h f A f f *.f d 7 , 1 < & ",
"& 1 < < 8 d d 4.f Z f N Z A                       . .     &.k a j k.&.                              Z Z h.f N f 5.f J f < , 5 & ",
"& 5 i = 7 f 8 3.f Z f f A Z                             9.| X r j a.l.9.                            Z Z f f h h C.d f f - < 5 & ",
"& 7 < , 4 f f 6.Z f Z f Z h                         ~ q.r.a r p.a.j j r.q.~                         Z q f Z f h C.f f 6 , 1 5 & ",
"& 7 1 ; 4 f f 4.Z f F Z Z Z       Z.F.8.8.8.1.  1.t.u.u.y.,.<.x.x.<.&.y.y.u.t.1.  1.8.8.8.8.1.      Z Z Z Z f h C.f f d ; 1 5 $ ",
"& 5 1 ; 8 f f 4.f f f f D Z                       e 8.2.8.i.A.e.q.y.i.t.8.8.e                       Z Z f f N 8 C.f f f ; < 7 & ",
"& 5 , , 7 8 f 4.f Z f h A A                               6.z.j a -.6.                              q Z f f f f C.f [ f , , 5 & ",
"& , 1 , 8 d f 4.f f Z f h A                                 q.S.S.q.                                A Z f A N f C.f d d , 1 < & ",
"$ , 5 - ` d d $.! f f f A A                                                                         A Z 8 h K ( N.d d d ; 7 ; @ ",
"O = 5 , 4 6 f / *.f f f Z Z                                                                         Z Z [ f f C.;.f d 8 ; 5 = + ",
"O * < 1 ; 8 d / *.d N f Z N h                                                                     Z h f [ f d C.} d d 1 1 < * O ",
"O $ 1 ; < 6 f R #.T d f d Z Z                                                                     F D d.b.h.P N.( f 8 8 , 1 @ O ",
"O + 1 ; 1 6 8 d / / d d f Z Z h                                                                 K F A h d.d ;.} d f d q , < + O ",
"O O = 5 , M 8 f A #.d d d h h A                                                               p L V V d ] d N.G f d h 5 5 = O O ",
"O O O w ; , h d s &.s h f d d h Z                                                           : N N N s d f d V.d d h 6 ; w O O O ",
"O O O * 9 , ; d s s 9.f d d f Z S f                                                         f Y Z f d s d D.d d d v.< 8 * O O O ",
"O O O + 7 1 , d s f j.W d d d f Z T 3                                                     3 R Z d d f d >.} f d 8 8 1 5 O y O O ",
"O O O O ; 5 ; q f ] b.:.d d f d 8 A A 3                                                 3 A Z d d d d d C.f s d f < 5 - O O O O ",
"O O O O + 1 5 4 8 f s.U ^ h d d d d A R f                                           : f Q Z d d J d G >.( s d f 8 7 1 + O O O O ",
"O O O O O ; 1 < 8 s s s ..W d d h d d D Q Z                                       3 Z S Z 8 d h 6 d >.>.d d d 8 7 1 - + O O O O ",
"O O O O O + = 5 , 7 d d d X.d d d f s f h h A h s                             d h A h h d d d d d d C.d d d d 4 7 ; + O O O O O ",
"O O O O O O @ 9 1 5 s d d U W d d d d f f f F h h h                       s h Z Z h f f d d s d d >.( d d s 8 7 7 + O O O O O O ",
"O O O O O O O * 7 1 ; 5 d f U X.W h d d f d f L D D G L S A Z Z Z Z Z S A Z N Z Z h d d f d A o.3.! d d 6 6 1 9 = O O O O O O O ",
"O O O O O O O O - 5 < 5 d d d d W ^ d f s f f g B V F G f D A Z Z Z Z Z A Z Z 8 f d f d J d O.O.d d d d 7 < 5 - + O O O O O O O ",
"O O O O O O O O + , 5 4 4 6 d d d U X.^ d f d d V [ V D f h f Z Z f f f N f f f d d f f O.6.Q d d d 6 6 7 5 , + O O O O O O O O ",
"O O O O O O O O O + < 5 1 ; g f d s f E =.s d g V V J f Z f f Z Z f f A f 8 f f d d d 0._ d d 6 d s 8 < 5 m O O O O O O O O O O ",
"O O O O O O O O y O O , 5 1 B B B g d f d X. ./ G g N V f h Z f f I f N N N 8 A ..%.3.d f d d d f 6 4 5 , + O O O O O O O O O O ",
"O O O O O O O O O O O $ u ' x b V N d d d d A W  .@.*.! N f f h f h f f ! 4.4.%.o.S d d d d f d 6 7 7 - + O O O O O O O O O O O ",
"O O O O O O O O O O O # t u H H C i f d d d f d U E / #.$.*.*.*.*.*.*.*.$._ _ ! d f 8 d d f 7 0 N m & O O O O O O O O O O O O O ",
"O o O O O O O O O O O # % y t c M 5 4 8 d h d d f f f d N f f f f f f h d f d d f d h d d 8 5 1 ; + O O O O O y O O O O O O O O ",
"O O O O O O O O O O O # y t t % ; 1 5 1 8 8 f 8 d f f d d d f f f f d d f d d d d f 8 8 8 7 1 = + O O O O O O O O O O O O O O O ",
"O O O O O O O O O O O O # # % O O + ; 5 7 ; 5 q f d d d f f f s d f f d d d d f f 7 ; 9 7 - @ + O O O O O O O O O O O O O O O O ",
"O O O O O O O O O O O O O O O O O O O O * w 5 ; ; 1 ; ; f d 8 d d 6 d d 6 ; 1 ; ; 7 w * O O O O O O O O O O O O O O O O O O O O ",
"O O O O O O O O O O O O O O O O O O O O O O = 1 5 1 1 5 1 , < < 1 < < 5 7 5 < 5 < - O O O O O O O O O O O O O O O O O O O O O O ",
"O O O O O O O O O O O O O O O O O O O O O O O O $ = = ; < 1 7 5 7 7 5 , ; = * $ O O O # O O O O O O O O o O O O O O O O O O O O ",
"O O O O O O O O O O O O O O O O O O O O O O O O O O O $ & & & & & & & & $ O O O O O O O O O O O O O O O O O O O O O O O O O O O "
};
