/* XPM */
static char *result[] = {
/* columns rows colors chars-per-pixel */
"64 64 155 2 ",
"   c black",
".  c #0A0012",
"X  c #181425",
"o  c #1D1827",
"O  c #1F1B28",
"+  c #171E33",
"@  c #201C29",
"#  c #1C2535",
"$  c #25202B",
"%  c #2A252D",
"&  c #2E282F",
"*  c #302A2F",
"=  c #332D31",
"-  c #362D3B",
";  c #2A323B",
":  c #363032",
">  c #3B3534",
",  c #3E3836",
"<  c #31353D",
"1  c #3D313D",
"2  c #423536",
"3  c #413A37",
"4  c #44363D",
"5  c #453B3A",
"6  c #4A3B3B",
"7  c #47403A",
"8  c #4E423A",
"9  c #50403E",
"0  c #51493E",
"q  c #756136",
"w  c #260046",
"e  c #182A43",
"r  c #133B5F",
"t  c #2B3949",
"y  c #3B3E40",
"u  c #3A3949",
"i  c #3A0068",
"p  c #443640",
"a  c #463941",
"s  c #4B3C42",
"d  c #423F4C",
"f  c #513F42",
"g  c #42007B",
"h  c #7B266D",
"j  c #3F4242",
"k  c #33414B",
"l  c #3A464E",
"z  c #2B4D64",
"x  c #2F5064",
"c  c #335265",
"v  c #3C5564",
"b  c #3C5A67",
"n  c #444443",
"m  c #4C4046",
"M  c #45424D",
"N  c #4B434C",
"B  c #474A4B",
"V  c #534144",
"C  c #594545",
"Z  c #5B4847",
"A  c #524449",
"S  c #53494D",
"D  c #5A4A4E",
"F  c #434E50",
"G  c #464A5A",
"H  c #4C4E5A",
"J  c #574C50",
"K  c #5F4E50",
"L  c #52515B",
"P  c #644646",
"I  c #614C46",
"U  c #624C49",
"Y  c #6A4E49",
"T  c #734D49",
"R  c #794D4A",
"E  c #655048",
"W  c #6C534B",
"Q  c #755749",
"!  c #7B534C",
"~  c #7A594E",
"^  c #6D5C5C",
"/  c #7C614F",
"(  c #7F6450",
")  c #435461",
"_  c #425F68",
"`  c #425F7B",
"'  c #48627A",
"]  c #536879",
"[  c #7D6C69",
"{  c #76727E",
"}  c #843574",
"|  c #8D5A4F",
" . c #825D52",
".. c #955D50",
"X. c #886953",
"o. c #8A6D53",
"O. c #996252",
"+. c #956C57",
"@. c #9B7159",
"#. c #9C7C59",
"$. c #A6695A",
"%. c #A2755B",
"&. c #BB7259",
"*. c #8C4476",
"=. c #806F6A",
"-. c #966C64",
";. c #8B7A75",
":. c #AA6A65",
">. c #AB6774",
",. c #AB943C",
"<. c #A7865D",
"1. c #AA895E",
"2. c #A8896E",
"3. c #B28F65",
"4. c #C2835C",
"5. c #D1BE41",
"6. c #E2BE5D",
"7. c #CB9A67",
"8. c #D1AC6C",
"9. c #D1B86D",
"0. c #F4A765",
"q. c #E6BE6F",
"w. c #F7B76F",
"e. c #DFC84F",
"r. c #F9C95B",
"t. c #DFCC75",
"y. c #FBD868",
"u. c #FBE36F",
"i. c #4C008B",
"p. c #56009B",
"a. c #386F8F",
"s. c #3D718E",
"d. c #0B6FAE",
"f. c #287EAA",
"g. c #43738C",
"h. c #6F7B82",
"j. c #8E268F",
"k. c #973595",
"l. c #9C4498",
"z. c #B86795",
"x. c #3C86A4",
"c. c #529399",
"v. c #0099DB",
"b. c #26A5CF",
"n. c #43E8E9",
"m. c #9D8C83",
"M. c #899096",
"N. c #AA998F",
"B. c #AC9B90",
"V. c #ECBE91",
"C. c #FFEC8B",
"Z. c #D3C3B2",
"A. c #D2D2D4",
"S. c #F9D9C1",
"D. c #FBF1DE",
/* pixels */
"X X X X X X X X X X X X X X X X X X X X X X X X X X o o @ % @ $ $ $ $ ; # X X X X X X X X X X X X X X X X X X X X X X X X X X X ",
"X X X X X X X X X X X X X X X X X X X X X X X o o % * : > 3 5 5 5 5 , > = & % @ o X X X X r X X X X X X X X X X X X X X X X X X ",
"X X X X X X X X X X X X X X X X X X X r X X * , , > , 3 2 : b., , , > , 7 , , , > & o X X X X X X X X X X X X X X X X X X X X X ",
"X X X X r X X X X X X X X X X X X X X X % 0 3 = = , = = : f.n.f.* * : : = = , = : 3 0 % X X X X X X X X X X X X X X v.X X X X X ",
"X X X X X X X X X X X X X X X X X o = 3 7 = > > > = = = > > b.= = , : : = : f.: > : = 6 3 * o o X X X d.X X X X X X X X X X X X ",
"X X X X X X X X X X X X X X X X = , 3 , > = : > = > = > 4 6 f 6 6 6 6 6 5 : : : > > = > , 3 > = o X X X X X X X X X X X X X X X ",
"X X X X X X X X X X X X X X X % 3 3 = = = 3 : u 5 6 6 6 s s a s s s s m 6 6 6 6 4 = 3 = : = 5 2 & O o X X X X X X X X X v.X X X ",
"X X X X X X X X X X X X o % 7 3 > = , = 5 2 6 s ^ [ =.m.B.B.B.B.B.B.B.N.m.[ [ ^ s s 2 3 : , = > 3 7 % o X X X X X X X X X X X X ",
"X X X X X X + X X X X o & 7 , * : 2 > 2 6 a D =.m.B.B.^ s s f m f f s s / B.B.m.=.J a a 4 6 , > : > 7 & o X r X X X X X X X X X ",
"X X X X X X X X X X o : 3 , c : = = a s a N.m.=.K s m s s s V s s f s s s m d K =.m.N.a s a 2 = : : , 3 : o X X X X X X X X X X ",
"X X X X X X X X X X , 3 , = * > 6 p a [ Z.a a a s s s s C s s V V s s C s s s s a a p Z.=.s p a 5 & : > 3 > o X X X X X X X X X ",
"X X X X X X X o o : 3 , = & , , a ^ B.;.a s a a s s V 6 m s s s V m s s s s s s a a g.a ;.2.W a 4 6 * * , 3 : o X X X X X X X X ",
"X X X X X X X o = 2 > = z : 6 a ;.M.a a p s s s a V V C V V C V L V V V C V V a s s s p a a X. .a 4 6 = < j n * o X X X X X X X ",
"X X X X X X X & 5 , : & : 6 ^ N.;.J p a a a s V V ' C C Z Z V V V V C Z C V s V f f a s a a f  .%.U 6 n t k l n % X X X X X X X ",
"X X X X X X O 7 , = = > 4 ^ ;.a a p s s s s V V V V 4                     a V V f f f s s a p a a ! P a N z x l n O o X X X X X ",
"X X X X X o * 5 = : : 2 a N.a a p s p s f f C f p                             p f Z f f s a a a a s ..d d ) f.z F t o X X . X X ",
"X X X X X & 3 > > = 4 a ;.;.a p f a a V U V u                                     1 V U V s s f a a R R a M ) v l j = o X X X X ",
"X X X X X > 3 : 2 2 a ^ ;.D p s s a C E s                                             s U V a s a 4 f  .P d d B t n , o X X X X ",
"X X X X * 3 : > , 4 a B.4 a a a a C C 1                                                 1 ] C 4 4 a p p ..s d s n = 5 = X X X X ",
"X X X X , > : > 4 N [ ;.a s a s f Y 1                                                     1 U V f a s s R T s a 6 : , , X X X X ",
"X X X % 7 > : 3 a a Z.a p a s f U f                                                         f I f s a p a &.s a a : > 5 % X X X ",
"X X X 0 : : , G a N.a s s a s f V -                                                           V f s a s s p ..a a 9 : = 0 X d.X ",
"X X & 3 > : = s D m.s a s s V C 1                                                               f f f G a a | f s 4 : > , & X X ",
"X o , = , = 5 s =.=.a a s V V V                                                                 f f C f a a R R s s 5 > : > o X ",
"X @ 2 = > = 4 ^ m.K a s s V V 4                                                                 4 V V 6 s s C | P s 4 : = 3 o X ",
"X % > , = 6 s [ B.s s s s V m                                                                     f s s s s s %.~ a s 2 2 , % X ",
"X & , = : 6 s =.B.s s s V C a                                                                     4 V V s s s %.~ s a 5 = b & X ",
"O : 3 = = 6 s m.^ s s f V C                                                                         C C s s s W +.4 s 2 = 5 = @ ",
"$ > > : : 4 s B.s s C s V Z                                 4.0.0.4.                                C f s C s s %.s 6 5 : , : $ ",
"$ 3 > : 6 s s 1.s V s s V C                               $.h i g j.$.                              V V g.s f s 2.s G s : > 3 $ ",
"$ 3 y = 5 s 6 1.s V s s C V                             7.} . w g p.k.7.                            V C s s f f B.a m s & > 3 $ ",
"$ 3 , = 2 s s 1.V s V m V f                         Q 9.w.i w i.p.g g w.9.Q                         6 V s V s s B.s s 4 : , 5 $ ",
"$ 5 2 * 4 s s 1.s s S V V V       ,.5.5.5.5.,.  ,.e.y.y.r.:.>.z.z.>.B.S.S.D.t.<.  ,.A.A.A.A.,.      V V V V s s B.s s a = > 3 $ ",
"$ 5 > * 5 s 6 1.V f s s V V                       q 5.5.5.u.V.q.6.t.D.A.A.A.{                       V V s s m f B.s s s = > 3 $ ",
"$ 3 > : 6 6 s 1.s s s s A C                               3.l.g g *.3.                              9 C s s s s B.s ' s : : 3 $ ",
"$ > > : 5 s 6 2.s s C s f Z                                 9.C.u.9.                                Z 6 s C s s N.s a s : , > $ ",
"o : 3 * ) a a #.W s s m C C                                                                         C V 6 s H ^ m.s a a : 3 : O ",
"X & 3 = > 6 s ! %.s s s C V p                                                                     4 V V ' s s B.[ s a 6 = , & o ",
"X & > , = 6 a ~ %.s s V V s s                                                                     V s f ' s s B.[ a s 2 , , % X ",
"X O , : : 4 s Y +.C s s s V V p                                                                 4 S A s.c.g.K m.^ s a 5 = , O X ",
"X o > : > 5 s s ~ ~ a a s V V V                                                                 H S A s s.a =.[ a s s 8 = > o X ",
"X X & 3 : n 4 6 C +.a a s f V C 1                                                             u S S f a ` a m.D a a s 3 3 * X X ",
"X X X 0 = : 6 s p $.p f s p s s V                                                             V N s p s s a N.a a f 6 = 0 X X X ",
"X X X % 7 > = a p p 7.s p a s f U s                                                         s I V s a 4 s Z.a a a x.> 6 % X X X ",
"X X X o 3 , = a p f h.R s s a s C U 1                                                     1 U V s s a s ;.[ s a a 6 , 3 X r X X ",
"X X X X = 3 = V p ` c.-.a a a a 6 V C u                                                 1 C V a p a a a N.s p a s , 3 = X X X X ",
"X X X X o , 3 2 6 s a.P R f p a s a V E s -                                         - s U V a a G p J ;.^ p a s 4 5 , o X X X X ",
"X X X X X = , > 6 a p 4  .R a a s s a C U V 1                                     4 f I V 6 s f a a ;.;.s 4 a 6 5 3 = X X X X X ",
"X X X X X o & 7 = 5 a a a ..a a p s p f f f C f p                             4 V C s V s p s p a a N.a p a s 2 7 & o X X X X X ",
"X X X X X X o 7 , 2 p s a C  .a p p a s s s S f f f a                     4 f V V V s s s a p a a ;.^ a s 4 4 5 7 O o X X X X X ",
"X X X X X X X % 5 , : 2 a s P ..R f a a a p f J A N J J C V V V V V V Z C V A V V s a a a a C X.<.Y a a 4 4 , 7 & X X X X X X X ",
"X X X X X X X X * 3 > , p a p 4 R  .a s p s a f d S S S f A C V V V V V C V m a s 6 s p G a o.o.a a a a 4 > , & o X X X X X X X ",
"X X X X X X X X o : 3 , 2 4 a p a P ..R a s a s N ` N N s f s V V s s s m s V s a a s s X.1.W a a a 4 4 5 5 : o X X X X X X X X ",
"X X X X X X X X X o , 3 2 = d s d p s R &.a s d N N N N C s s V V s s C s s s 6 s a a 8.( a p p a p 6 : 3 v o X X X X X X X X X ",
"X X X X X X X X r X X : 2 y M N d d a s a ..| W D f N N s f V s s L s m m 6 s Z X.#.<.4 s a a s s 6 , 3 : o X X X X X X X X X X ",
"X X X X X X X X X X X o < _ l c M f a a a a C T | O.%.Y d s s f s f s s W 1.1.#./ C a a a s s s 4 5 5 * o X X X X X X X X X X X ",
"X X X X X X X X X X X + e t F F B , m a a a s a P T ~ +.@.%.%.%.%.%.%.%.@.( ( W a s p a a s 5 6 8 _ # X X X X X X X X X X X X X ",
"X X X X X X X X X X X + e r e z j 7 , 4 a V a 6 s a s a s s s s s s s s a s a s s s s s a 6 3 3 * o X X X X X r X X X X X X X X ",
"X X X X X X X X X X X + r e e # & , 3 , 6 6 6 s a s a s s s s s s s s a s a a a s s 6 6 6 5 , * o o X X X X X X X X X X X X X X ",
"X X X X X X X X X X X X + + + X o O * 3 7 = 3 9 s a s a a s s a a s s s a a a s 6 5 = 7 3 * O X X X X X X X X X X X X X X X X X ",
"X X X X X X X X X X X X X X X X X X X X % m 3 = = , = = a s p a a p s a 4 = , = = 3 0 % X X X X X X X X X X X X X X . X X X X X ",
"X X X . X X X X X X X X X X X X X X X X X o & > 3 > , 3 , > > > > > > , 3 2 > , > & o X X X X X X X X X X X X X X X X X X X X X ",
"X X X X X X X X X X X X X X X X X X X X X X X o O $ * = > 3 3 3 3 3 3 > = & % @ X X X + X X X X X X X X X X X X X X X X X X X X ",
"X X X X X X X X X X X X X X X X X X X X X X X X o o o o $ $ $ $ $ $ $ $ o o X X X X X X X X X X X X X X X X X X X X X X X X X X "
};
