/* XPM */
static char *result[] = {
/* columns rows colors chars-per-pixel */
"64 64 119 2 ",
"   c #0A0013",
".  c #352D3D",
"X  c #382E3F",
"o  c #270048",
"O  c #382E41",
"+  c #3B3244",
"@  c #3F3448",
"#  c #3C006C",
"$  c #42364B",
"%  c #44394E",
"&  c #483C4F",
"*  c #463A50",
"=  c #483D50",
"-  c #44007E",
";  c #7E2771",
":  c #53434F",
">  c #554552",
",  c #594654",
"<  c #5D4A53",
"1  c #614E54",
"2  c #675156",
"3  c #6B5557",
"4  c #6E5759",
"5  c #6F5959",
"6  c #745C57",
"7  c #785D57",
"8  c #735B59",
"9  c #785E59",
"0  c #7B6057",
"q  c #7C615B",
"w  c #883778",
"e  c #805E59",
"r  c #806357",
"t  c #82655B",
"y  c #8D625A",
"u  c #87685C",
"i  c #8C6D5D",
"p  c #9C6359",
"a  c #936C5E",
"s  c #9B695B",
"d  c #92725E",
"f  c #A1675B",
"g  c #A1685B",
"h  c #AC6D5B",
"j  c #B16F5B",
"k  c #BF765C",
"l  c #904679",
"z  c #866E6A",
"x  c #966F60",
"c  c #8C726C",
"v  c #967660",
"b  c #9F7261",
"n  c #9B7960",
"m  c #AE6D68",
"M  c #A27561",
"N  c #A47862",
"B  c #AA7963",
"V  c #B57860",
"C  c #AF6A78",
"Z  c #B09241",
"A  c #B28C59",
"S  c #96807B",
"D  c #9C847B",
"F  c #A68463",
"G  c #AB8663",
"H  c #B58465",
"J  c #BA8767",
"K  c #B38C65",
"L  c #BC8867",
"P  c #BC8868",
"I  c #BC9568",
"U  c #BE9968",
"Y  c #E6955E",
"T  c #D1856C",
"R  c #CB956C",
"E  c #C49F6A",
"W  c #C0997D",
"Q  c #E69560",
"!  c #C5A16A",
"~  c #D5B06F",
"^  c #C5A77E",
"/  c #DFB579",
"(  c #F5AB68",
")  c #F0BE76",
"_  c #F8BB72",
"`  c #E3C745",
"'  c #E4C849",
"]  c #F9CC5E",
"[  c #F5E046",
"{  c #F5E048",
"}  c #F8E057",
"|  c #E5C160",
" . c #FBD465",
".. c #E8C172",
"X. c #F6DB7E",
"o. c #FCE472",
"O. c #4F008F",
"+. c #59009F",
"@. c #922793",
"#. c #9B3799",
"$. c #A1469C",
"%. c #BC6A99",
"&. c #A79288",
"*. c #AB9488",
"=. c #B39F93",
"-. c #BFAB9C",
";. c #B4B0B7",
":. c #B5B0B9",
">. c #C6B4A5",
",. c #EEC195",
"<. c #FFEE8F",
"1. c #D6C6B6",
"2. c #FDE9B6",
"3. c #F6E7BD",
"4. c #F6F1DC",
"5. c #E6E4E7",
"6. c #F9F3ED",
"7. c gray97",
"8. c None",
/* pixels */
"8.8.8.8.8.8.8.8.8.8.8.8.8.8.8.8.8.8.8.8.8.8.8.8.8.8.8.8.8.8.8.8.8.8.8.8.8.8.8.8.8.8.8.8.8.8.8.8.8.8.8.8.8.8.8.8.8.8.8.8.8.8.8.8.",
"8.8.8.8.8.8.8.8.8.8.8.8.8.8.8.8.8.8.8.8.8.8.8.8.8.8.8.8.8.8.8.8.8.8.8.8.8.8.8.8.8.8.8.8.8.8.8.8.8.8.8.8.8.8.8.8.8.8.8.8.8.8.8.8.",
"8.8.8.8.8.8.8.8.8.8.8.8.8.8.8.8.8.8.8.8.8.8.8.8.8.8.8.8.8.8.8.8.8.8.8.8.8.8.8.8.8.8.8.8.8.8.8.8.8.8.8.8.8.8.8.8.8.8.8.8.8.8.8.8.",
"8.8.8.8.8.8.8.8.8.8.8.8.8.8.8.8.8.8.8.8.8.8.8.8.8.8.8.8.8.8.8.8.8.8.8.8.8.8.8.8.8.8.8.8.8.8.8.8.8.8.8.8.8.8.8.8.8.8.8.8.8.8.8.8.",
"8.8.8.8.8.8.8.8.8.8.8.8.8.8.8.8.8.8.8.8.8.8.8.8.8.8.8.8.8.8.8.8.8.8.8.8.8.8.8.8.8.8.8.8.8.8.8.8.8.8.8.8.8.8.8.8.8.8.8.8.8.8.8.8.",
"8.8.8.8.8.8.8.8.8.8.8.8.8.8.8.8.8.8.8.8.8.8.8.8.8.8.8.8.8.8.8.8.8.8.8.8.8.8.8.8.8.8.8.8.8.8.8.8.8.8.8.8.8.8.8.8.8.8.8.8.8.8.8.8.",
"8.8.8.8.8.8.8.8.8.8.8.8.8.8.8.8.8.8.8.8.8.8.8.8.8.8.8.8.8 8 8 8 8 8 8 8 9 8.8.8.8.8.8.8.8.8.8.8.8.8.8.8.8.8.8.8.8.8.8.8.8.8.8.8.",
"8.8.8.8.8.8.8.8.8.8.8.8.8.8.8.8.8.8.8.8.8.8.8.5 D *.*.-.>.>.>.>.>.>.>.>.-.*.*.D 5 8 8.8.8.8.8.8.8.8.8.8.8.8.8.8.8.8.8.8.8.8.8.8.",
"8.8.8.8.8.8.8.8.8.8.8.8.8.8.8.8.8.8.8.8.8.4 z *.-.>.>.D 5 9 9 9 8 q 8 8 D >.>.-.*.z 5 3 8.8.8.8.8.8.8.8.8.8.8.8.8.8.8.8.8.8.8.8.",
"8.8.8.8.8.8.8.8.8.8.8.8.8.8.8.8.8.8.8.8 3 >.-.*.c 5 8 8 8 8 q 8 8 q 8 8 8 8 8 c *.-.>.5 5 4 8.8.8.8.8.8.8.8.8.8.8.8.8.8.8.8.8.8.",
"8.8.8.8.8.8.8.8.8.8.8.8.8.8.8.8.8.2 5 &.1.3 3 4 8 8 8 8 t 8 8 q q 8 8 t 8 8 8 8 5 3 2 1.I 8 2 2 8.8.8.8.8.8.8.8.8.8.8.8.8.8.8.8.",
"8.8.8.8.8.8.8.8.8.8.8.8.8.8.8.8.4 D >.=.8 8 3 3 8 8 8 q 8 9 8 9 q 6 q 8 9 8 8 5 3 4 8 5 =.=.n 4 4 8.8.8.8.8.8.8.8.8.8.8.8.8.8.8.",
"8.8.8.8.8.8.8.8.8.8.8.8.8.8.8.3 =.=.4 5 2 8 8 8 5 q q t 9 t t t q t q q z 7 q 4 8 8 8 3 4 3 G B 4 2 8.8.8.8.8.8.8.8.8.8.8.8.8.8.",
"8.8.8.8.8.8.8.8.8.8.8.8.8.8.S >.=.z 4 4 4 3 9 q q q q t t z e q q q u u t t 9 q t 8 3 3 8 3 t N J x q 8.8.8.8.8.8.8.8.8.8.8.8.8.",
"8.8.8.8.8.8.8.8.8.8.8.8.8.c =.3 5 2 5 5 8 8 q q q q 5 , = = * * * * = = , 3 q t q q 8 8 8 4 2 3 4 f y 3 8.8.8.8.8.8.8.8.8.8.8.8.",
"8.8.8.8.8.8.8.8.8.8.8.8.8 >.3 5 2 5 3 8 q 9 u q 3 = * * $ $ % % * % * $ % % * 2 q t q q 8 3 5 3 4 4 h 3 4 8.8.8.8.8.8.8.8.8.8.8.",
"8.8.8.8.8.8.8.8.8.8.8.4 =.=.3 3 8 8 3 t x q < = & % % % % $ % $ $ $ $ $ % $ $ % = 1 q i t 3 8 8 2 4 p f 4 3 8.8.8.8.8.8.8.8.8.8.",
"8.8.8.8.8.8.8.8.8.8.2 D =.z 2 5 8 8 t v 8 > * * % $ % % % @ $ $ $ $ $ $ $ $ $ $ % & > 8 d t 8 8 8 2 9 g y 2 8 8.8.8.8.8.8.8.8.8.",
"8.8.8.8.8.8.8.8.8.8.3 >.3 4 4 3 2 t u < * $ * % $ $ $ $ @ $ $ $ $ $ $ $ $ $ $ $ $ % % % < u t 3 3 5 5 3 j 5 3 8.8.8.8.8.8.8.8.8.",
"8.8.8.8.8.8.8.8.8.5 &.-.5 5 5 8 t v < = $ % % % $ $ $ $ @ @ @ @ $ + @ @ @ $ @ $ $ $ % % * < d t 8 5 5 5 f p 8 3 8.8.8.8.8.8.8.8.",
"8.8.8.8.8.8.8.8.3 3 1.8 2 3 8 q z 8 * * * $ $ $ $ @ @ @ @ @ + @ + $ + $ + $ @ @ $ @ $ $ $ $ 6 i 9 8 3 3 5 k 3 3 5 8.8.8.8.8.8.8.",
"8.8.8.8.8.8.8.5 3 >.3 8 8 4 8 9 0 > * * % @ * @ @ $ @ + @ @ + + + + + X + $ + @ @ @ @ @ $ $ : 0 9 9 3 8 8 3 j 3 3 8.8.8.8.8.8.8.",
"8.8.8.8.8.8.8.8 z -.4 4 8 8 q u 1 & $ $ @ @ @ @ @ + + + + + + + + + + + + + + $ + @ @ @ $ $ $ < t 9 9 5 3 3 h e 8 8.8.8.8.8.8.8.",
"8.8.8.8.8.8.8.5 *.*.3 4 9 q q q & % $ * $ @ @ @ @ + + + + + + O X X X + + + X + + + @ @ @ $ $ & 9 e q 7 3 3 s s 5 q 8.8.8.8.8.8.",
"8.8.8.8.8.8.8.&.-.z 5 5 4 q t 1 % % $ $ $ @ @ @ + + + O + X O O + X X + X + O + + + + @ @ @ $ $ 1 t q 3 5 8 t h y 5 8.8.8.8.8.8.",
"8.8.8.8.8.8.5 *.>.3 8 9 q 9 q * % $ $ @ @ @ @ + + + + O + O X X X X X X X O O + + + + @ + @ @ $ % 7 7 9 8 8 8 P M 4 8 8.8.8.8.8.",
"8.8.8.8.8.8.8 *.>.8 8 8 q t 3 % % $ $ @ @ + + + + O X O O . X X . . . . X . X O + + + + @ @ @ @ $ 3 q r 8 8 8 L M 8 4 8.8.8.8.8.",
"8.8.8.8.8.8.4 -.D 8 8 9 t u > % $ $ @ @ @ + + + + + O X . . . . . . . . . X X O . + + + + @ @ @ $ : r t 9 8 8 d H 4 8 8.8.8.8.8.",
"8.8.8.8.8.8.8 >.5 8 t 8 q u % % $ $ @ @ @ + + + X O . . . . Q ( ( Y . . . . . . . + O + + $ @ @ $ $ r 7 6 q 8 8 P 8 4 8.8.8.8.8.",
"8.8.8.8.8.4 8 ! 8 9 8 9 t t * % $ @ @ @ + + + X + . . . . T ; # # @.T . . . . . X X + O + O + @ $ $ r r 6 8 q 8 W 8 4 8 8.8.8.8.",
"8.8.8.8.8.8 8 ! 9 q 8 8 t q % % $ @ @ @ @ + + X . + . . ..w   o O.+.#.) . . . . X X X X + + @ @ $ $ 0 r 6 8 q q >.8 8 8 8.8.8.8.",
"8.8.8.8.8.8 8 ! 9 8 9 q q q % % $ @ @ @ + + + X X . ;.3._ # o O.+.# # ) X.A . . . X + X $ + + @ @ $ 0 0 6 q 8 8 >.8 8 3 8.8.8.8.",
"8.8.8.8.8.8 8 ! 9 8 q q q q % % $ ' { { [ 7.5.X 5.6.2. .] m C %.%.C M ]  .X.} ` . ` { { { { ` @ @ @ 0 q 0 q 5 6 >.5 8 3 8.8.8.8.",
"8.8.8.8.8.8 8 ! 8 q 8 8 t q @ % $ @ @ @ + + + + . ;.4.[ [ o.,...| .. .[ { [ Z . . X O + + + @ @ @ @ 0 q 6 5 q q >.5 8 8 8.8.8.8.",
"8.8.8.8.8.4 8 ! 9 q 8 8 t t % % @ @ @ @ + + + X . . . . . ~ $.- # w / . . . . . . X X + + + @ + @ $ 0 q 0 8 q 8 >.8 5 8 8.8.8.8.",
"8.8.8.8.8.5 8 E 5 8 t 8 q u % % % @ @ @ + + + X + X . . . . X.<.<.<.. . . . . . X X X + + + @ @ @ % u 0 6 q 8 5 >.8 5 5 8.8.8.8.",
"8.8.8.8.8.8 4 I v 8 8 8 u t > % @ $ @ @ @ + + X X . . . . . . . . . . . . . . . X + X + X $ @ + $ : r r 7 6 8 D -.4 8 4 8.8.8.8.",
"8.8.8.8.8.8.8 M P 8 8 8 q q 3 % % @ @ @ @ + + + + O X O . . . . . . . . . . . . X + + + + + @ $ $ 3 0 0 6 6 8 >.*.8 3 8.8.8.8.8.",
"8.8.8.8.8.8.5 M P 5 8 9 q q 9 % % $ @ @ @ + + + O O O X X . . . . . . . . . . . X + + X @ + + $ $ 0 0 0 8 8 8 >.*.4 8 8.8.8.8.8.",
"8.8.8.8.8.8.5 a H u 8 8 4 q t 2 % $ % @ @ @ @ + + + + O O . O . . . X X . . . . X + + $ + $ @ $ 1 0 0 3 8 5 c -.D 4 3 8.8.8.8.8.",
"8.8.8.8.8.8.8 5 N N 3 3 9 t q 9 & $ @ $ @ @ @ + + + X + X O . X . . . . X X + + X + + @ @ @ $ % 7 7 q 8 3 5 *.*.5 5 5 8.8.8.8.8.",
"8.8.8.8.8.8.8.8 t H 3 3 5 9 q u , : % @ $ @ @ @ @ O + + + + + . . . X X + + + + + + + @ @ @ $ < r q 8 5 3 3 -.z 8 4 8.8.8.8.8.8.",
"8.8.8.8.8.8.8.3 3 J 3 8 8 3 8 9 q : % @ $ @ @ @ + @ @ + + + + + + + + + + + + + + + @ $ @ $ : 7 7 6 3 8 8 3 >.3 3 q 8.8.8.8.8.8.",
"8.8.8.8.8.8.8.4 3 3 R 8 2 3 8 q i 8 & % $ $ @ @ @ @ @ @ + + + + + + + + + + + + @ @ @ $ $ $ 8 i 7 8 3 2 8 1.4 3 3 8.8.8.8.8.8.8.",
"8.8.8.8.8.8.8.4 4 8 b f 5 8 4 8 t d < = % % @ $ @ @ @ @ @ @ @ @ + @ + + @ + @ @ @ @ @ $ & < d 0 8 5 5 5 =.&.8 4 4 8.8.8.8.8.8.8.",
"8.8.8.8.8.8.8.8.4 2 5 j 3 3 4 3 4 t u < & % % @ $ @ @ @ @ O @ @ @ + @ @ $ $ $ @ @ $ @ & < r r 3 3 4 3 3 >.5 2 5 8 8.8.8.8.8.8.8.",
"8.8.8.8.8.8.8.8.8.4 3 y g 9 3 5 8 4 t d 8 > & % % @ $ $ @ $ @ @ @ @ @ @ @ + $ $ $ % : 6 d r 5 8 5 3 z =.D 2 4 8 8.8.8.8.8.8.8.8.",
"8.8.8.8.8.8.8.8.8.8 3 3 f f 3 4 8 5 3 t i q < & % % $ @ $ $ $ @ $ @ $ $ $ $ $ $ : > 0 i q 5 8 8 3 3 =.=.4 3 4 8.8.8.8.8.8.8.8.8.",
"8.8.8.8.8.8.8.8.8.8.8 2 3 j 5 5 3 5 3 8 9 9 u 9 1 * * % % % % % $ $ $ % % $ & 2 q t 9 9 8 3 5 3 4 3 >.3 2 8 8 8.8.8.8.8.8.8.8.8.",
"8.8.8.8.8.8.8.8.8.8.3 4 3 e f 3 4 3 4 4 8 9 t e t 9 3 > * * @ % % % % % : 2 0 q q q 8 8 5 5 2 3 3 =.c 3 5 2 8.8.8.8.8.8.8.8.8.8.",
"8.8.8.8.8.8.8.8.8.8.8.8.4 7 e j p 9 3 5 3 3 9 9 q q t u u t q q q q u u u q 8 q q 7 3 3 5 3 z G E v q 5 2 8.8.8.8.8.8.8.8.8.8.8.",
"8.8.8.8.8.8.8.8.8.8.8.8.8 4 4 4 f f 4 5 2 8 5 9 4 9 q t q t t q q u q q u q q 4 8 8 8 3 5 3 K K 4 4 5 5 8.8.8.8.8.8.8.8.8.8.8.8.",
"8.8.8.8.8.8.8.8.8.8.8.8.8.8.5 3 4 y j s 8 8 3 4 8 8 8 8 9 9 8 q q 8 q 8 q 6 8 8 3 3 6 8 K E n 4 2 4 2 8.8.8.8.8.8.8.8.8.8.8.8.8.",
"8.8.8.8.8.8.8.8.8.8.8.8.8.8.3 5 4 2 8 p k 3 4 4 8 8 8 8 t 8 8 q q 5 8 q 8 8 8 5 5 3 3 ~ F 5 2 4 5 2 8.8.8.8.8.8.8.8.8.8.8.8.8.8.",
"8.8.8.8.8.8.8.8.8.8.8.8.8.8.8.8.4 3 3 8 3 h h s t 5 8 8 8 9 q 8 6 q q 8 q 8 8 u G E E 3 8 2 4 4 5 8.8.8.8.8.8.8.8.8.8.8.8.8.8.8.",
"8.8.8.8.8.8.8.8.8.8.8.8.8.8.8.8.8.8 5 3 3 3 9 s h V P x 5 8 9 9 q q 8 5 d ! ! U G u 3 3 4 4 8 8 8.8.8.8.8.8.8.8.8.8.8.8.8.8.8.8.",
"8.8.8.8.8.8.8.8.8.8.8.8.8.8.8.8.8.8.8 4 4 3 8 4 y s M H J J P P J J J J K F F n 5 8 2 4 4 8 8.8.8.8.8.8.8.8.8.8.8.8.8.8.8.8.8.8.",
"8.8.8.8.8.8.8.8.8.8.8.8.8.8.8.8.8.8.8.8.8 q 5 5 5 4 8 4 8 8 8 8 6 5 8 8 8 8 4 8 5 4 q 4 8.8.8.8.8.8.8.8.8.8.8.8.8.8.8.8.8.8.8.8.",
"8.8.8.8.8.8.8.8.8.8.8.8.8.8.8.8.8.8.8.8.8.8.8.5 4 8 4 8 8 4 8 8 5 0 4 5 5 3 8 3 5 8 8.8.8.8.8.8.8.8.8.8.8.8.8.8.8.8.8.8.8.8.8.8.",
"8.8.8.8.8.8.8.8.8.8.8.8.8.8.8.8.8.8.8.8.8.8.8.8.8.2 4 4 4 8 8 2 2 8 5 5 3 5 3 5 8.8.8.8.8.8.8.8.8.8.8.8.8.8.8.8.8.8.8.8.8.8.8.8.",
"8.8.8.8.8.8.8.8.8.8.8.8.8.8.8.8.8.8.8.8.8.8.8.8.8.8.8.8.8 8 2 4 4 3 8 8 8.8.8.8.8.8.8.8.8.8.8.8.8.8.8.8.8.8.8.8.8.8.8.8.8.8.8.8.",
"8.8.8.8.8.8.8.8.8.8.8.8.8.8.8.8.8.8.8.8.8.8.8.8.8.8.8.8.8.8.8.8.8.8.8.8.8.8.8.8.8.8.8.8.8.8.8.8.8.8.8.8.8.8.8.8.8.8.8.8.8.8.8.8.",
"8.8.8.8.8.8.8.8.8.8.8.8.8.8.8.8.8.8.8.8.8.8.8.8.8.8.8.8.8.8.8.8.8.8.8.8.8.8.8.8.8.8.8.8.8.8.8.8.8.8.8.8.8.8.8.8.8.8.8.8.8.8.8.8.",
"8.8.8.8.8.8.8.8.8.8.8.8.8.8.8.8.8.8.8.8.8.8.8.8.8.8.8.8.8.8.8.8.8.8.8.8.8.8.8.8.8.8.8.8.8.8.8.8.8.8.8.8.8.8.8.8.8.8.8.8.8.8.8.8."
};
