/* XPM */
static char *result[] = {
/* columns rows colors chars-per-pixel */
"64 64 152 2 ",
"   c black",
".  c #0A0012",
"X  c #181425",
"o  c #1D1827",
"O  c #1F1B28",
"+  c #171E33",
"@  c #201C29",
"#  c #1C2535",
"$  c #25202B",
"%  c #2A252D",
"&  c #2E282F",
"*  c #302A2F",
"=  c #2F2739",
"-  c #332D31",
";  c #342B3A",
":  c #2A323B",
">  c #363032",
",  c #3B3534",
"<  c #3E3836",
"1  c #31353D",
"2  c #3D313D",
"3  c #423536",
"4  c #413A37",
"5  c #44363D",
"6  c #453B3A",
"7  c #4A3B3B",
"8  c #47403A",
"9  c #4E423A",
"0  c #50403E",
"q  c #51493E",
"w  c #756136",
"e  c #260046",
"r  c #182A43",
"t  c #133B5F",
"y  c #2B3949",
"u  c #3B3E40",
"i  c #3A0068",
"p  c #443640",
"a  c #463941",
"s  c #4B3C42",
"d  c #423F4C",
"f  c #513F42",
"g  c #42007B",
"h  c #7B266D",
"j  c #3F4242",
"k  c #33414B",
"l  c #3A464E",
"z  c #2B4D64",
"x  c #335265",
"c  c #3C5564",
"v  c #3C5A67",
"b  c #444443",
"n  c #4C4046",
"m  c #45424D",
"M  c #4B434C",
"N  c #474A4B",
"B  c #534144",
"V  c #594545",
"C  c #5B4847",
"Z  c #524449",
"A  c #53494D",
"S  c #5A4A4E",
"D  c #434E50",
"F  c #464A5A",
"G  c #4C4E5A",
"H  c #574C50",
"J  c #5F4E50",
"K  c #52515B",
"L  c #644646",
"P  c #614C46",
"I  c #624C49",
"U  c #6A4E49",
"Y  c #734D49",
"T  c #794D4A",
"R  c #655048",
"E  c #6C534B",
"W  c #755749",
"Q  c #7B534C",
"!  c #7A594E",
"~  c #6D5C5C",
"^  c #7C614F",
"/  c #7F6450",
"(  c #435461",
")  c #425F68",
"_  c #425F7B",
"`  c #48627A",
"'  c #536879",
"]  c #7D6C69",
"[  c #843574",
"{  c #8D5A4F",
"}  c #825D52",
"|  c #955D50",
" . c #886953",
".. c #8A6D53",
"X. c #976051",
"o. c #996252",
"O. c #956C57",
"+. c #9B7159",
"@. c #9C7C59",
"#. c #A6695A",
"$. c #A2755B",
"%. c #BB7259",
"&. c #8C4476",
"*. c #806F6A",
"=. c #966C64",
"-. c #8B7A75",
";. c #AA6A65",
":. c #AB6774",
">. c #AB943C",
",. c #D1BD3F",
"<. c #A7865D",
"1. c #AA895E",
"2. c #A8896E",
"3. c #B28F65",
"4. c #C2835C",
"5. c #D1BE41",
"6. c #CB9A67",
"7. c #D1AC6C",
"8. c #D1B86D",
"9. c #F4A765",
"0. c #E6BE6F",
"q. c #F7B76F",
"w. c #DFC84F",
"e. c #F9C95B",
"r. c #FBD868",
"t. c #FBE36F",
"y. c #4C008B",
"u. c #56009B",
"i. c #386F8F",
"p. c #3D718E",
"a. c #0B6FAE",
"s. c #287EAA",
"d. c #43738C",
"f. c #6F7B82",
"g. c #8E268F",
"h. c #973595",
"j. c #9C4498",
"k. c #B86795",
"l. c #2C80A9",
"z. c #3C86A4",
"x. c #529399",
"c. c #0099DB",
"v. c #26A5CF",
"b. c #43E8E9",
"n. c #9D8C83",
"m. c #899096",
"M. c #AA998F",
"N. c #AC9B90",
"B. c #ECBE91",
"V. c #FFEC8B",
"C. c #D3C3B2",
"Z. c #D1CBC2",
/* pixels */
"X X X X X X X X X X X X X X X X X X X X X X X X X X X @ @ % @ $ $ $ $ : # X X X X X X X X X X X X X X X X X X X X X X X X X X X ",
"X X X X X X X X X X X X X X X X X X X X X X X o @ % & - < 4 6 6 4 6 < , > & % @ o X X X X t X X X X X X X X X X X X X X X X X X ",
"X X X X X X X X X X X X X X X X X X X t X X & < 4 , 4 4 < > v.3 < < , < < < , < < & o X X X X X X X X X X X X X X X X X X X X X ",
"X X X X t X X X X X X X X X X X X X X X % q 4 - - < - - > l.b.s.* * > > > > < > * 4 q % X X X X X X X X X X X X X X c.X X X X X ",
"X X X X X X X X X X X X X X X X X @ - 4 7 - > < > - > - > < v.> - < > > - > s.> 3 > - 8 4 - o X X X X a.X X X X X X X X X X X X ",
"X X X X X X X X X X X X X X X X * < 4 < < > > , - > > > 5 7 7 7 7 s 7 7 6 > , - > > > , , 6 < - o X X X X X X X X X X X X X X X ",
"X X X X X X X X X X X X X X X % 4 4 - > - 4 - k 7 7 7 7 s s s s s s s s 7 7 7 7 5 > 4 - - - 6 4 * O X X X X X X X X X X c.X X X ",
"X X X X X X X X X X X X o % 8 4 , - < - 3 3 7 s ~ *.*.n.M.N.M.N.N.N.N.N.n.] ] ~ s s 3 6 > < - , 6 8 % o X X X X X X X X X X X X ",
"X X X X X X # X X X X o & 8 < * , 3 , 5 5 5 S *.n.N.N.~ 7 s B s s s s s ^ N.N.n.] H a a 5 7 < > * < 8 * o X t X X X X X X X X X ",
"X X X X X X X X X X o > 4 < x > - - 5 s s N.n.*.J s n s s f n s s B f s s n d J *.n.M.a s p 4 - > > < < > o X X X X X X X X X X ",
"X X X X X X X X X X < 4 < - * , a p a ] C.a a a s s s s V s s B B s s V s s s s a a a C.*.s p a 6 * > , < < o X X X X X X X X X ",
"X X X X X X X X o > 4 < - & < < a ~ N.-.a f 5 a s s s B s s s n B n s s s s s s a a d.a -.2.E s p 7 & > < < > o X X X X X X X X ",
"X X X X X X X o - 4 , - z > 7 a -.m.p s p s s f a B V V B V V B K V V s V V B a s s s p s a  .} a 5 6 - 1 j j * o X X X X X X X ",
"X X X X X X X & 6 3 - * > 7 ~ M.-.S a a p p f f B ` B V V V B B B B V V V B s B f f p a s a f } $.I s s y k l b $ X X X X X . X ",
"X X X X X X O 8 < - - , 5 ~ -.a a p a s s s f V V B p                     a B B f f s s a a p a a Q L a M z x l N o o X X X X X ",
"X X X X X o * 6 - > > 3 a M.a a p s p s f f f f u                             p V V f f s p s p s 5 X.d m ( s.z D 1 o X X X X X ",
"X X X X X & < , , - 5 a -.-.a p f a a B C V 2                                     2 B I V 5 s n 5 a T Q d m ( c l j * o X X X X ",
"X X X X X , 6 > < 3 5 ~ -.S p s s a V U s                                           ; s U B s s s p f Q L a d N y b < O X X X X ",
"X X X X - 4 - , 3 5 s N.a a a p a V V 2                                                 2 ' B 5 a a a a | s d s b - 6 * X X X X ",
"X X X X < , > , 5 m ] -.a s s s f U 2                                                     2 U B s a s a T Y s 5 7 > < 4 X X X X ",
"X X X % 8 , - 4 a a C.s a a s B I n                                                         s P f s a p a %.a a a > > 8 % X X X ",
"X X X q > > < F a M.5 s s a s s V ;                                                           B f f a s s a | a 5 B > > q X a.X ",
"X X & 4 , > - s S n.a a s s B V 2                                                             5 V f s F a a { V s 5 > > < * X X ",
"X o < - < - 6 s *.] a a s V B f                                                                 f f V s a a T Y s s 6 , > , o X ",
"X @ 3 - , - 7 ~ n.J s a s B V p                                                                 5 B B s s s V { L s 5 > - 4 @ X ",
"X % < < - 7 a *.M.s s f n s s                                                                     f s 7 s s s $.! 7 s 3 4 , % X ",
"X & < - > 5 s *.N.s s s B V a                                                                     5 B B s s s $.! s a 5 * v & X ",
"@ - 4 - > 7 5 n.~ s s f V V                                                                         V V s s s E O.a s 3 > 6 * @ ",
"$ , , > > 6 s M.s s V s B C                                 4.9.9.4.                                V B s V s s $.s s 7 > < , $ ",
"@ 4 , 1 6 s s 1.s f s s Z V                               #.h i g g.#.                              B B d.s s s 2.s F s > , < $ ",
"$ 6 < * 6 s 7 1.f B s s V B                             6.[ . e g u.h.6.                            0 V s s B f N.a 7 s & , 4 $ ",
"$ 6 < > 3 s s 3.s s B f B f                         W 8.q.i e y.u.g g q.Z.W                         7 B s B s s N.s n 5 - < 6 $ ",
"$ 6 < > 3 s s 1.s s A B B B       >.5.5.5.5.>.  >.w.r.r.e.;.:.k.k.:.;.e.r.r.w.>.  >.5.5.5.5.>.      B B B B s s N.s s a - < 4 $ ",
"$ 6 > * 7 s s 1.B n s s V B                       w 5.5.5.t.B.0.8.e.t.5.,.,.w                       B B s s n f M.s s s - , 6 $ ",
"$ 4 > > 6 5 s 1.s s s s B V                               3.j.g i &.3.                              0 V s s s s N.s ` s > > < $ ",
"$ > < > 7 s s 1.s s V s f V                                 8.V.V.8.                                C 7 s V s s M.n s 5 > < , $ ",
"@ * 6 * ( a a @.E s s n V V                                                                         V B 7 s G ~ n.s a a - 4 - O ",
"o & 4 - 3 5 s ! $.s s s B V p                                                                     5 B B ` s s N.] s a 7 - 4 * X ",
"X & < < - 7 a ! $.s s f s B s                                                                     B s f ` s s N.] s s 3 < , % X ",
"X @ 4 * > 5 s U O.C s s a B V p                                                                   A Z p.x.d.J n.~ s a 7 - 4 @ X ",
"X o , - < 5 s s ! ! a a s V B B                                                                 G M V s p.a *.] a s s 9 - < X X ",
"X X & 4 > 8 5 s V O.a a s s B V 2                                                               H A f a _ a n.S s a f 6 4 & X X ",
"X X X q - > 9 a p #.a s s p s s B                                                             Z M M p s s a M.a 5 s 7 - q X X X ",
"X X X % 8 , > a p p 6.s 5 p s B C s ;                                                       s P f s a p a C.a a a z.> 8 % X X X ",
"X X X o 4 < > p a s f.Q a s a s V I 2                                                     2 P f s s a s -.] s a a 7 < 4 X t X X ",
"X X X X * 6 - 9 a _ x.=.a a a a a V V 2                                                 2 V V 5 5 s 5 a M.s a a s < 4 - X X X X ",
"X X X X o < 6 < 7 s i.L Q f p a a a V I s ;                                           s I V a s F p S -.~ 5 a s 5 6 < o X X X X ",
"X X X X o - 4 > 5 p p 5 { T s a s s s Z R f 2 ;                                   2 B C B 7 s s a a -.-.a a a 7 6 4 * o X X X X ",
"X X X X X o * 6 > 5 a a a | a a p a a s f f C f p y =                         5 f V s B s p s p a a M.a p a s 3 6 * o X X X X X ",
"X X X X X X o 8 < 4 p a a L T a p p a a s f M f f f 5                     a s V B B s s a a p a a -.~ a s a 5 6 8 O X X X X X X ",
"X X X X X X X $ 8 < > 4 a s L | T f 5 a a a f H Z Z C H C V V s B B V V V V Z B B s a a s a V  .1.U a a 5 5 < 8 & X X X X X X X ",
"X X X X X X X X & < , 4 a s a a T { a 5 p s a f m M A S s B V V B V V s V B n a s s s p F a ....a a a a 6 , < & o X X X X X X X ",
"X X X X X X X X o > 4 < 3 5 s a a L | } s s 5 d M ` M Z s f s B s s s s n s s 7 a a s s ..<.E a p a 5 5 7 4 > o X X X X X X X X ",
"X X X X X X X X X X < 4 > - d s d p s Y %.5 7 d m M M M V s s B B s s V s s B s s 5 a 7.^ s p a a p 6 , 4 v X X X X X X X X X X ",
"X X X X X X X X t X X > 4 u m m m d a s s | { T S d Z M s f f s s G n s n 7 s V  .@.<.a s p a a s 5 3 4 > o X X X X X X X X X X ",
"X X X X X X X X X X X o 1 ) l x m f a 5 a a Z Y { o.$.U d s f s f B s s E 1.1.@./ C 5 a 5 s s s 5 6 6 * o X X X X X X X X X X X ",
"X X X . X X X X X X X # r y D D D a n 5 a a s s L E ! O.$.$.$.$.$.$.$.$.+.^ / E s s p a a s 5 9 8 ) % X X X X X X X X X X X X X ",
"X X X X X X X X X X X + r t r z j < , 7 a B a s s a s a s s s s s s s s a s s s s a s s a 7 8 < * O X X X X X t X X X X X X X X ",
"X X X X X X X X X X X + t r r # * < 6 < 6 7 s 7 a s a s s a s s s s s a s a s a s s 7 6 7 4 < * o o X X X X X X X X X X X X X X ",
"X X X X X X X X X X X X + + + X o O * 4 8 - 4 0 s a s a a s s a a s s a a a p s 7 4 > 8 4 * O o X X X X X X X X X X X X X X X X ",
"X X X X X X X X X X X X X X X X X X X X $ q 4 - - < - - s a 5 a s a s s 4 - < - > < Z % X X X X X X X X X X X X X X X X X X X X ",
"X X X X X X X X X X X X X X X X X X X X X o * , 3 < 3 4 < > , , , > > < 4 4 , < , & o X X X X X X X X X X X X X X X X X X X X X ",
"X X X X X X X X X X X X X X X X X X X X X X X o O % * - , < 6 6 4 6 5 < - * % @ X X X + X X X X X X X X X X X X X X X X X X X X ",
"X X X X X X X X X X X X X X X X X X X X X X X X X X o o $ $ $ $ $ $ @ @ @ X X X X X X X X X X X X X X X X X X X . X X X X X X X "
};
