/* XPM */
static char *result[] = {
/* columns rows colors chars-per-pixel */
"64 64 250 2 ",
"   c #050009",
".  c #18141B",
"X  c #18151B",
"o  c #18151C",
"O  c #19151C",
"+  c #19151D",
"@  c #19161D",
"#  c #1A161D",
"$  c #1A161E",
"%  c #1A161F",
"&  c #1B161F",
"*  c #1B171F",
"=  c #130023",
"-  c #1C1720",
";  c #1C1820",
":  c #1C1821",
">  c #1D1821",
",  c #1D1822",
"<  c #1D1922",
"1  c #1E1922",
"2  c #1E1923",
"3  c #1F1923",
"4  c #1F1A23",
"5  c #1F1A24",
"6  c #1D0034",
"7  c #201A24",
"8  c #201B24",
"9  c #201A25",
"0  c #201B25",
"q  c #211B25",
"w  c #211B26",
"e  c #211C25",
"r  c #221C24",
"t  c #221C25",
"y  c #231D25",
"u  c #211C26",
"i  c #221C26",
"p  c #221D26",
"a  c #231D26",
"s  c #221C27",
"d  c #231D27",
"f  c #241D26",
"g  c #241E26",
"h  c #241E27",
"j  c #21003D",
"k  c #3D1337",
"l  c #272026",
"z  c #292026",
"x  c #282027",
"c  c #292127",
"v  c #2C2427",
"b  c #292128",
"n  c #292228",
"m  c #292229",
"M  c #2A2228",
"N  c #2A2229",
"B  c #2B2229",
"V  c #2D2428",
"C  c #2E2428",
"Z  c #2E2429",
"A  c #2E2529",
"S  c #302628",
"D  c #312729",
"F  c #322729",
"G  c #32272A",
"H  c #322828",
"J  c #322829",
"K  c #322929",
"L  c #332929",
"P  c #32282A",
"I  c #32292A",
"U  c #33292A",
"Y  c #34292A",
"T  c #35292A",
"R  c #34292B",
"E  c #35292B",
"W  c #352A2A",
"Q  c #352A2B",
"!  c #362A2A",
"~  c #372B2A",
"^  c #362A2B",
"/  c #362B2B",
"(  c #372B2B",
")  c #372C2A",
"_  c #372C2B",
"`  c #372D2B",
"'  c #382C29",
"]  c #3A2D29",
"[  c #3A2E29",
"{  c #382C2A",
"}  c #382D2A",
"|  c #392D2A",
" . c #382C2B",
".. c #382D2B",
"X. c #392D2B",
"o. c #3A2D2A",
"O. c #3A2D2B",
"+. c #392E2A",
"@. c #392E2B",
"#. c #3A2E2A",
"$. c #3B2E2A",
"%. c #3A2E2B",
"&. c #3B2E2B",
"*. c #3C2C2B",
"=. c #3C2E2A",
"-. c #3C2F2A",
";. c #3C2E2B",
":. c #3C2F2B",
">. c #3D2F2B",
",. c #3E2E2B",
"<. c #392D2C",
"1. c #3A2E2C",
"2. c #3B2E2C",
"3. c #3C2E2C",
"4. c #3C2F2C",
"5. c #3D2F2C",
"6. c #3E2F2C",
"7. c #3D302B",
"8. c #3E302A",
"9. c #3E302B",
"0. c #3F312B",
"q. c #3D302C",
"w. c #3E302C",
"e. c #3E312C",
"r. c #3F312C",
"t. c #3E302D",
"y. c #3E312D",
"u. c #3F312D",
"i. c #421A3A",
"p. c #402F2B",
"a. c #432E2B",
"s. c #40322B",
"d. c #46302B",
"f. c #40302D",
"g. c #40322C",
"h. c #40322D",
"j. c #41322D",
"k. c #41332D",
"l. c #46302C",
"z. c #46332E",
"x. c #43342D",
"c. c #44342C",
"v. c #44352D",
"b. c #46372D",
"n. c #45352E",
"m. c #46372E",
"M. c #47372E",
"N. c #4A302B",
"B. c #4E302B",
"V. c #4C322C",
"C. c #4F322C",
"Z. c #49352E",
"A. c #4A362E",
"S. c #4D342D",
"D. c #4F372F",
"F. c #4A392E",
"G. c #4C3B2E",
"H. c #4D3B2E",
"J. c #50322C",
"K. c #56352C",
"L. c #59352C",
"P. c #59362C",
"I. c #5A362C",
"U. c #50382F",
"Y. c #50392F",
"T. c #513A2F",
"R. c #5D3A2E",
"E. c #46223B",
"W. c #413533",
"Q. c #413633",
"!. c #443734",
"~. c #4A3E3C",
"^. c #583532",
"/. c #543A30",
"(. c #553B30",
"). c #59333A",
"_. c #64392D",
"`. c #59471F",
"'. c #5A4820",
"]. c #5A442B",
"[. c #5B452C",
"{. c #4D403C",
"}. c #4D413C",
"|. c #534030",
" X c #544130",
".X c #554130",
"XX c #594131",
"oX c #5D4031",
"OX c #5E4232",
"+X c #594431",
"@X c #5A4531",
"#X c #5B4531",
"$X c #604132",
"%X c #614232",
"&X c #624232",
"*X c #624932",
"=X c #634B32",
"-X c #674E33",
";X c #684F33",
":X c #694F33",
">X c #6E4934",
",X c #654B3C",
"<X c #734134",
"1X c #69543D",
"2X c #775936",
"3X c #260046",
"4X c #2B004F",
"5X c #471348",
"6X c #4C1A4B",
"7X c #4F224D",
"8X c #62334B",
"9X c #544742",
"0X c #554842",
"qX c #564942",
"wX c #5A4E48",
"eX c #5B4F48",
"rX c #5C4F48",
"tX c #64564D",
"yX c #685B52",
"uX c #6A5C52",
"iX c #796A5E",
"pX c #8D492E",
"aX c #835D3B",
"sX c #B05632",
"dX c #896A21",
"fX c #896B22",
"gX c #8A6B22",
"hX c #8B6C23",
"jX c #8B6C24",
"kX c #8B662E",
"lX c #916637",
"zX c #A06339",
"xX c #B96137",
"cX c #B27E3D",
"vX c #B27F3D",
"bX c #C26F2E",
"nX c #C87731",
"mX c #9C6649",
"MX c #AF8422",
"NX c #AF8522",
"BX c #AF8523",
"VX c #B08523",
"CX c #B08524",
"ZX c #B28624",
"AX c #BD852A",
"SX c #CC8C37",
"DX c #D78637",
"FX c #F39C46",
"GX c #B4A089",
"HX c None",
/* pixels */
"HXHXHXHXHXHXHXHXHXHXHXHXHXHXHXHXHXHXHXHXHXHXHXHXHXHXHXHXHXHXHXHXHXHXHXHXHXHXHXHXHXHXHXHXHXHXHXHXHXHXHXHXHXHXHXHXHXHXHXHXHXHXHXHX",
"HXHXHXHXHXHXHXHXHXHXHXHXHXHXHXHXHXHXHXHXHXHXHXHXHXHXHXHXHXHXHXHXHXHXHXHXHXHXHXHXHXHXHXHXHXHXHXHXHXHXHXHXHXHXHXHXHXHXHXHXHXHXHXHX",
"HXHXHXHXHXHXHXHXHXHXHXHXHXHXHXHXHXHXHXHXHXHXHXHXHXHXHXHXHXHXHXHXHXHXHXHXHXHXHXHXHXHXHXHXHXHXHXHXHXHXHXHXHXHXHXHXHXHXHXHXHXHXHXHX",
"HXHXHXHXHXHXHXHXHXHXHXHXHXHXHXHXHXHXHXHXHXHXHXHXHXHXHXHXHXHXHXHXHXHXHXHXHXHXHXHXHXHXHXHXHXHXHXHXHXHXHXHXHXHXHXHXHXHXHXHXHXHXHXHX",
"HXHXHXHXHXHXHXHXHXHXHXHXHXHXHXHXHXHXHXHXHXHXHXHXHXHXHXHXHXHXHXHXHXHXHXHXHXHXHXHXHXHXHXHXHXHXHXHXHXHXHXHXHXHXHXHXHXHXHXHXHXHXHXHX",
"HXHXHXHXHXHXHXHXHXHXHXHXHXHXHXHXHXHXHXHXHXHXHXHXHXHXHXHXHXHXHXHXHXHXHXHXHXHXHXHXHXHXHXHXHXHXHXHXHXHXHXHXHXHXHXHXHXHXHXHXHXHXHXHX",
"HXHXHXHXHXHXHXHXHXHXHXHXHXHXHXHXHXHXHXHXHXHXHXHXHXHXHXHX.._ ( _ _ ( _ ..%.HXHXHXHXHXHXHXHXHXHXHXHXHXHXHXHXHXHXHXHXHXHXHXHXHXHXHX",
"HXHXHXHXHXHXHXHXHXHXHXHXHXHXHXHXHXHXHXHXHXHXHX/ {.0X0XtXuXuXuXuXuXuXuXuXtX0X0X{./ ( HXHXHXHXHXHXHXHXHXHXHXHXHXHXHXHXHXHXHXHXHXHX",
"HXHXHXHXHXHXHXHXHXHXHXHXHXHXHXHXHXHXHXHXHXY Q.qXtXuXuX}./ X.%.%.%.%.X./ }.uXuXtXqXQ.Y Y HXHXHXHXHXHXHXHXHXHXHXHXHXHXHXHXHXHXHXHX",
"HXHXHXHXHXHXHXHXHXHXHXHXHXHXHXHXHXHXHX_ W yXtXqX!.( ` ` ..%.2.....2.%...` ` ( !.qXtXyXW _ I HXHXHXHXHXHXHXHXHXHXHXHXHXHXHXHXHXHX",
"HXHXHXHXHXHXHXHXHXHXHXHXHXHXHXHXHXP / 9XiXU W W ( .._ _ e._ _ 3.3._ _ e._ _ ..( W W U iX9X/ P U HXHXHXHXHXHXHXHXHXHXHXHXHXHXHXHX",
"HXHXHXHXHXHXHXHXHXHXHXHXHXHXHXHXQ {.uXrX( ..Y Y ( X...%.X.%...2.2...%.X.%...X.( Y Y ..( rX1XG.Q I HXHXHXHXHXHXHXHXHXHXHXHXHXHXHX",
"HXHXHXHXHXHXHXHXHXHXHXHXHXHXHXY eXrXW / P _ / X.Q 2.q.u.3.t.u.q.q.u.t.3.u.q.2.Q X./ _ P / W XX(.Y Y HXHXHXHXHXHXHXHXHXHXHXHXHXHX",
"HXHXHXHXHXHXHXHXHXHXHXHXHXHX~.uXwXW.T / Y U %.q.4.2.y.h.j.h.5.4.4.5.h.j.h.y.2.4.q.%.U Y / T 6./.%Xz.4.HXHXHXHXHXHXHXHXHXHXHXHXHX",
"HXHXHXHXHXHXHXHXHXHXHXHXHX~.rXY W P ^ /  ...4.5.t.3.Y B d d s s s s d d N U ;.t.5.4... ./ ^ P W Y J.a.Y HXHXHXHXHXHXHXHXHXHXHXHX",
"HXHXHXHXHXHXHXHXHXHXHXHXY uXY ^ U / U _ 3.&.j.3.P d d w w w w w w w w w w i s P 3.j.&.3._ U / U ^ Y P.Y I HXHXHXHXHXHXHXHXHXHXHX",
"HXHXHXHXHXHXHXHXHXHXHXQ eXwXW U 1.( T t.n.4.A h s w w 0 9 9 9 9 7 7 9 9 9 9 0 u h Z ;.n.t.T ( 1.U W B.C.Q U HXHXHXHXHXHXHXHXHXHX",
"HXHXHXHXHXHXHXHXHXHXP {.rXW.P / ( ^ r.M.@.m d w w 0 9 9 7 5 5 5 5 5 5 5 5 7 7 9 q a b X.M.r.^ ( / P *.C.l.P X.HXHXHXHXHXHXHXHXHX",
"HXHXHXHXHXHXHXHXHXHX/ uXW T ^ U T r.j.A d w q 0 9 7 5 5 5 5 5 5 5 5 5 5 5 5 5 5 7 9 0 a Z g.e.T U ^ T W I./ I HXHXHXHXHXHXHXHXHX",
"HXHXHXHXHXHXHXHXHX_ 9XrX/ / / _ t.M.A h w w 9 9 5 5 5 5 5 5 5 4 4 4 4 5 5 5 5 5 5 5 9 0 a Z M.q._ / / / C.N._ Y HXHXHXHXHXHXHXHX",
"HXHXHXHXHXHXHXHXY W iX( P Y  .3.n.@.d w q 9 5 5 5 5 4 4 2 1 1 1 1 1 1 1 1 2 2 4 5 5 5 5 9 i } v.3. .Y P ( _.W Y Q HXHXHXHXHXHXHX",
"HXHXHXHXHXHXHXU Y yXU .._ U ..&.4.b w 0 7 5 5 5 4 3 2 1 1 1 , > > > > , , 1 1 2 2 4 5 5 5 7 x ;.O. .U _ ..U L.Y U HXHXHXHXHXHXHX",
"HXHXHXHXHXHXHX( Q.tXW Y / %.4.j.Z d 9 7 5 5 5 4 2 1 1 , > > > > > > > > > > > 1 1 2 4 5 5 5 t V g.;.X./ Y W K.,.( HXHXHXHXHXHXHX",
"HXHXHXHXHXHXHX/ qXqXW Y X.q.5.3.h q 9 5 5 5 4 2 1 > > > - - - - * * * - - - ; > > 1 1 4 5 5 5 y $.:.>.X.Y W V.V./ 2.HXHXHXHXHXHX",
"HXHXHXHXHXHXHX{.tX!.( ( Q 4.t.F u 0 5 5 5 4 2 1 < > : - - * * * & & & * * - - : > > < 2 4 5 5 8 D 7.;.W ( ( p.K.d./ HXHXHXHXHXHX",
"HXHXHXHXHXHX^ 0XuX( ..X.2.2.&.s 9 7 5 5 4 2 1 > > - - * * & % % % % % % & & * - - ; > 1 1 2 5 5 q o.%.%.....( &XY.^ ( HXHXHXHXHX",
"HXHXHXHXHXHX_ 0XuX` _ ..q.y.L i 9 5 5 5 2 1 , > ; - * & & % % $ $ $ $ % % % & * - - > > 1 2 4 5 8 J 7.>..._ ` &XU._ Q HXHXHXHXHX",
"HXHXHXHXHXHX! tX}.` _ %.u.h.M 0 7 5 5 4 2 < > ; - * & % $ $ $ # @ @ # # $ $ % & * - - > < 1 4 5 5 z 0.9.%._ ` A.oX! ( HXHXHXHXHX",
"HXHXHXHXHXHX..uX/ ..e.X.3.j.i 0 5 5 5 4 1 > > - * & % $ $ # pXsXsXpXO + @ $ $ % % * - ; > 1 2 4 5 8 s.$.{ e.../ &X..^ HXHXHXHXHX",
"HXHXHXHXHX^ _ :XX.%._ %.t.r.i 9 5 5 4 2 1 > ; * * % % $ # <Xk 6 j 5X<XO O @ # $ % & * - > , 1 3 5 8 8.>.| _ %.X.,X_ ^ _ HXHXHXHX",
"HXHXHXHXHX..( :X%.2._ ..u.4.q 9 5 5 4 2 , > ; * & % $ # zXi.  = j 4X6XzXo + # $ % & * - > > 1 2 5 5 =.9.) _ 2.%.uX( .._ HXHXHXHX",
"HXHXHXHXHX_ _ :X%...3.2.q.3.0 9 5 5 4 2 > > - * & % [.vXxX6 = 3X4Xj j xXGX].@ $ $ % * - > > 1 2 5 5 $.-.+.3...%.uX_ _ U HXHXHXHX",
"HXHXHXHXHX_ _ :X%...3.2.q.3.0 9 5 jXZXCXVXVXgX* fXAXDXnXbX^.).8X8X).^.bXnXDXAXdX$ fXVXVXVXVXhX2 5 5 $.-.+.3...%.uX_ _ U HXHXHXHX",
"HXHXHXHXHX..( :X%.2._ ..u.4.0 9 5 5 4 2 > > - * % '.BXNXMXSXmXlXkXlXSXMXMXMX`.$ $ % * - > > 1 2 5 5 =.9.) _ 2.%.uX( .._ HXHXHXHX",
"HXHXHXHXHX^ _ :XX.%._ %.t.r.e 9 5 5 4 2 > > - * & % $ # + aX7Xj 6 E.aX. X O @ $ $ % * - > > 1 2 5 7 8.>.| _ %.X.uX_ ^ _ HXHXHXHX",
"HXHXHXHXHX^ ..;X/ ..e.X.3.j.i 9 5 5 4 2 , > ; * & % % # @ O cXFXFXcX. o o @ # $ % & * - > , 1 2 5 8 s.$.{ e.../ uX..^ ^ HXHXHXHX",
"HXHXHXHXHX( ! *XA.` _ %.u.g.b 9 5 5 5 3 1 > > - * & % $ # + O O o o o O + # $ % % * * ; > 1 2 4 5 z 0.9.| _ ` }.tX! ( R HXHXHXHX",
"HXHXHXHXHXHX_ U.&X` _ ..q.w.K e 5 5 5 4 1 < > - - & % % $ $ # # @ @ @ # $ $ $ % & * - : > 1 2 4 7 H >.:. ._ ` uX0X_ Q HXHXHXHXHX",
"HXHXHXHXHXHX^ Y.&X( ..X.2.2.&.i 7 5 5 4 2 1 > ; - * & % % $ $ $ $ $ $ $ $ $ % & * - ; > < 1 4 5 8 ] o.#.....( uX0X^ ( HXHXHXHXHX",
"HXHXHXHXHXHX/ Z.oXj.( ( Q 4.w.F q 7 5 5 4 1 1 > > - - * & % % % $ $ $ % % & & - - ; > 1 1 2 5 5 S -.;.T ( ( !.tX{./ Y HXHXHXHXHX",
"HXHXHXHXHXHX/ / T.T.W Y X.q.4.&.f 9 5 5 5 2 1 < > ; - - * & & % % % % % & * * - ; > > 1 2 4 5 r [ =.:...Y W qXqX/ / / HXHXHXHXHX",
"HXHXHXHXHXHXHX( f.oXW Y / %.4.h.Z p 5 5 5 5 2 1 1 > > ; - - - * * * * - - - - > > > 1 2 4 5 q v 0.;.X./ Y W tXQ.( Q HXHXHXHXHXHX",
"HXHXHXHXHXHXHXU Y $XU .._ U ..%.;.c 9 7 5 5 5 2 1 1 , > > : - - - - - - ; > > > , 1 2 4 5 5 l $.| ) P _ ..U yXY U 2.HXHXHXHXHXHX",
"HXHXHXHXHXHXHXQ Y W >X( P Y  .3.n.X.a 0 7 5 5 5 4 2 1 1 > > > > > > > > > > , 1 2 2 4 5 5 e ' c.&.~ Y P ( iXW Y Q HXHXHXHXHXHXHX",
"HXHXHXHXHXHXHXR Y _ D.C./ / / _ t.M.Z a q 9 5 5 5 4 4 2 2 1 1 1 1 1 1 1 1 1 2 4 4 5 5 5 t C b.:.( / / / rX9X_ Y R HXHXHXHXHXHXHX",
"HXHXHXHXHXHXHXHX^ I / I.W T ^ U T r.g.Z a 9 7 5 5 5 5 5 4 3 2 2 2 2 2 2 3 4 4 5 5 5 5 t C s.9.Y U ^ T W uX/ I ^ X.HXHXHXHXHXHXHX",
"HXHXHXHXHXHXHXHXHXR P l.C.*.P / ( ^ r.M.X.b p 0 9 5 5 5 5 5 5 5 4 4 4 5 5 5 5 5 7 e x { m.w.W ( / P W.rX{.P R X.HXHXHXHXHXHXHXHX",
"HXHXHXHXHXHXHXHXHX .U Q C.B.W U 1.( T t.n.;.Z g q 9 7 5 5 5 5 5 5 5 5 5 5 5 5 0 y V ;.v.5.Y ( 1.U W wXeXQ U R HXHXHXHXHXHXHXHXHX",
"HXHXHXHXHXHXHXHXHXHX( I Y P.Y ^ U / U _ 3.&.h.;.F i u 0 9 9 9 9 7 7 7 9 9 q e D &.g.O.;._ U / U ^ Y uXY I ( / HXHXHXHXHXHXHXHXHX",
"HXHXHXHXHXHXHXHXHXHXP ^ Y a.J.Y W P ^ /  ...4.5.w.&.L n i e 0 0 0 0 e u c K &.q.:.4. . ./ ^ P W Y rX~.Y ^ P HXHXHXHXHXHXHXHXHXHX",
"HXHXHXHXHXHXHXHXHXHXHXHXQ _ a.P.B.*.T / Y U %.q.4.2.y.h.j.r.4.3.3.4.r.j.g.w.&.4.q.%.U Y / T h.+X;XF._ Q G HXHXHXHXHXHXHXHXHXHXHX",
"HXHXHXHXHXHXHXHXHXHXHXHX .Q Y Y C.C.W / P _ / X.Q 2.q.u.3.t.u.q.q.u.t.3.u.q.2.Q X./ _ P / W #X@XY Y Q Y HXHXHXHXHXHXHXHXHXHXHXHX",
"HXHXHXHXHXHXHXHXHXHXHXHXHXHX^ I Q l.I.C.( ..Y Y ( X...%.X.%...2.2...%.X.%...X.( Y Y ..( #X;XG.Q I ^ G HXHXHXHXHXHXHXHXHXHXHXHXHX",
"HXHXHXHXHXHXHXHXHXHXHXHXHXHXP ( U P / N._.U W W ( .._ _ e._ _ 3.3._ _ e._ _ ..( W W U 2X|./ P U ( P HXHXHXHXHXHXHXHXHXHXHXHXHXHX",
"HXHXHXHXHXHXHXHXHXHXHXHXHXHXHXHXR R I _ W L.K.V.p.( ` ` ..%.2.....2.%...` ` ( x..X=X-XW _ I R R / HXHXHXHXHXHXHXHXHXHXHXHXHXHXHX",
"HXHXHXHXHXHXHXHXHXHXHXHXHXHXHXHXHXX.^ Y Y Y ,.V.K.R.&XA./ X.%.%.%.%.X./ H.;X:X=X.Xk.Y Y Y ^ X.( HXHXHXHXHXHXHXHXHXHXHXHXHXHXHXHX",
"HXHXHXHXHXHXHXHXHXHXHXHXHXHXHXHXHXHXX.R Q U ( / d.S.U.oX&X&X&X&X&X&X&X&XOX X XG./ ( U Q R X.HXHXHXHXHXHXHXHXHXHXHXHXHXHXHXHXHXHX",
"HXHXHXHXHXHXHXHXHXHXHXHXHXHXHXHXHXHXHXHX<.2.Q / / ^ _ ! .._ ( _ _ ( _ ..! _ ^ / / Q 2.Q HXHXHXHXHXHXHXHXHXHXHXHXHXHXHXHXHXHXHXHX",
"HXHXHXHXHXHXHXHXHXHXHXHXHXHXHXHXHXHXHXHXHXHXHX/ Y ( Q ( ^ ^ .._ _ ..^ ^ ( Q ( Y / ( HXHXHXHXHXHXHXHXHXHXHXHXHXHXHXHXHXHXHXHXHXHX",
"HXHXHXHXHXHXHXHXHXHXHXHXHXHXHXHXHXHXHXHXHXHXHXHXHXU ^ R ^ _ _ U U _ _ ^ R ^ U ( HXHXHXHXHXHXHXHXHXHXHXHXHXHXHXHXHXHXHXHXHXHXHXHX",
"HXHXHXHXHXHXHXHXHXHXHXHXHXHXHXHXHXHXHXHXHXHXHXHXHXHXHXHX( ( I E E I ( ( HXHXHXHXHXHXHXHXHXHXHXHXHXHXHXHXHXHXHXHXHXHXHXHXHXHXHXHX",
"HXHXHXHXHXHXHXHXHXHXHXHXHXHXHXHXHXHXHXHXHXHXHXHXHXHXHXHXHXHXHXHXHXHXHXHXHXHXHXHXHXHXHXHXHXHXHXHXHXHXHXHXHXHXHXHXHXHXHXHXHXHXHXHX",
"HXHXHXHXHXHXHXHXHXHXHXHXHXHXHXHXHXHXHXHXHXHXHXHXHXHXHXHXHXHXHXHXHXHXHXHXHXHXHXHXHXHXHXHXHXHXHXHXHXHXHXHXHXHXHXHXHXHXHXHXHXHXHXHX",
"HXHXHXHXHXHXHXHXHXHXHXHXHXHXHXHXHXHXHXHXHXHXHXHXHXHXHXHXHXHXHXHXHXHXHXHXHXHXHXHXHXHXHXHXHXHXHXHXHXHXHXHXHXHXHXHXHXHXHXHXHXHXHXHX"
};
