/* XPM */
static char *result[] = {
/* columns rows colors chars-per-pixel */
"64 64 107 2 ",
"   c #0A0012",
".  c #2F2635",
"X  c #2F2837",
"o  c #302837",
"O  c #342C3C",
"+  c #250043",
"@  c #372F40",
"#  c #382F40",
"$  c #3C3244",
"%  c #3F3448",
"&  c #380065",
"*  c #423747",
"=  c #413649",
"-  c #43384A",
";  c #4D3F4A",
":  c #400077",
">  c #77256A",
",  c #4F404D",
"<  c #53434D",
"1  c #58474F",
"2  c #5E4B4E",
"3  c #5A4850",
"4  c #614D4E",
"5  c #624E52",
"6  c #665152",
"7  c #6B5553",
"8  c #6F5853",
"9  c #725652",
"0  c #735A54",
"q  c #795E55",
"w  c #7D6156",
"e  c #7D6763",
"r  c #7F6863",
"t  c #803370",
"y  c #855C54",
"u  c #935D53",
"i  c #836657",
"p  c #886A57",
"a  c #856758",
"s  c #8B6558",
"d  c #8B6A59",
"f  c #936355",
"g  c #986155",
"h  c #976B5B",
"j  c #9A6E5B",
"k  c #93725A",
"l  c #9C705C",
"z  c #9E7C5D",
"x  c #A46755",
"c  c #A96855",
"v  c #B76F57",
"b  c #A2725D",
"n  c #AD705A",
"m  c #A27E5D",
"M  c #AD7C5F",
"N  c #884272",
"B  c #836B65",
"V  c #8E7873",
"C  c #947C73",
"Z  c #B27F60",
"A  c #CA7D65",
"S  c #A98B3E",
"D  c #AA8454",
"F  c #AA855F",
"G  c #AF8060",
"H  c #B48061",
"J  c #B48D62",
"K  c #B69162",
"L  c #BD9763",
"P  c #BE9863",
"I  c #B99175",
"U  c #BE9F77",
"Y  c #E18D59",
"T  c #DEBF40",
"R  c #C48D65",
"E  c #CEA868",
"W  c #D9AD72",
"Q  c #F3A362",
"!  c #ECB66F",
"~  c #F6B36B",
"^  c #DEC043",
"/  c #F3DB43",
"(  c #F8C558",
")  c #F9CD5F",
"_  c #F7DB52",
"`  c #FCDC6A",
"'  c #F3D577",
"]  c #4A0087",
"[  c #530097",
"{  c #8A258B",
"}  c #933391",
"|  c #984294",
" . c #9F8A80",
".. c #A38C80",
"X. c #AB978B",
"o. c #B7A394",
"O. c #BFAC9C",
"+. c #A888BE",
"@. c #D0BFAE",
"#. c #FEEA87",
"$. c #B688D1",
"%. c #F4EED7",
"&. c #E2E1E3",
"*. c #E5E2E8",
"=. c #EBE2F2",
"-. c #FBF5F1",
";. c None",
/* pixels */
";.;.;.;.;.;.;.;.;.;.;.;.;.;.;.;.;.;.;.;.;.;.;.;.;.;.;.;.;.;.;.;.;.;.;.;.;.;.;.;.;.;.;.;.;.;.;.;.;.;.;.;.;.;.;.;.;.;.;.;.;.;.;.;.",
";.;.;.;.;.;.;.;.;.;.;.;.;.;.;.;.;.;.;.;.;.;.;.;.;.;.;.;.;.;.;.;.;.;.;.;.;.;.;.;.;.;.;.;.;.;.;.;.;.;.;.;.;.;.;.;.;.;.;.;.;.;.;.;.",
";.;.;.;.;.;.;.;.;.;.;.;.;.;.;.;.;.;.;.;.;.;.;.;.;.;.;.;.;.;.;.;.;.;.;.;.;.;.;.;.;.;.;.;.;.;.;.;.;.;.;.;.;.;.;.;.;.;.;.;.;.;.;.;.",
";.;.;.;.;.;.;.;.;.;.;.;.;.;.;.;.;.;.;.;.;.;.;.;.;.;.;.;.;.;.;.;.;.;.;.;.;.;.;.;.;.;.;.;.;.;.;.;.;.;.;.;.;.;.;.;.;.;.;.;.;.;.;.;.",
";.;.;.;.;.;.;.;.;.;.;.;.;.;.;.;.;.;.;.;.;.;.;.;.;.;.;.;.;.;.;.;.;.;.;.;.;.;.;.;.;.;.;.;.;.;.;.;.;.;.;.;.;.;.;.;.;.;.;.;.;.;.;.;.",
";.;.;.;.;.;.;.;.;.;.;.;.;.;.;.;.;.;.;.;.;.;.;.;.;.;.;.;.;.;.;.;.;.;.;.;.;.;.;.;.;.;.;.;.;.;.;.;.;.;.;.;.;.;.;.;.;.;.;.;.;.;.;.;.",
";.;.;.;.;.;.;.;.;.;.;.;.;.;.;.;.;.;.;.;.;.;.;.;.;.;.;.;.7 6 7 7 7 7 7 8 9 ;.;.;.;.;.;.;.;.;.;.;.;.;.;.;.;.;.;.;.;.;.;.;.;.;.;.;.",
";.;.;.;.;.;.;.;.;.;.;.;.;.;.;.;.;.;.;.;.;.;.;.7 C ....o.@.o.O.O.O.O.O.O.o.....C 7 7 ;.;.;.;.;.;.;.;.;.;.;.;.;.;.;.;.;.;.;.;.;.;.",
";.;.;.;.;.;.;.;.;.;.;.;.;.;.;.;.;.;.;.;.;.6 r ..o.O.O.C 6 0 8 8 0 8 8 7 C O.O.o...r 6 6 ;.;.;.;.;.;.;.;.;.;.;.;.;.;.;.;.;.;.;.;.",
";.;.;.;.;.;.;.;.;.;.;.;.;.;.;.;.;.;.;.7 6 O.o...B 7 7 7 7 7 0 8 7 0 8 7 7 7 7 B ..o.O.6 7 5 ;.;.;.;.;.;.;.;.;.;.;.;.;.;.;.;.;.;.",
";.;.;.;.;.;.;.;.;.;.;.;.;.;.;.;.;.5 6 ..@.6 6 6 7 8 7 7 q 7 8 0 0 7 7 q 7 7 7 7 6 6 6 @. .7 5 5 ;.;.;.;.;.;.;.;.;.;.;.;.;.;.;.;.",
";.;.;.;.;.;.;.;.;.;.;.;.;.;.;.;.6 C O.X.7 7 6 6 7 8 7 0 8 0 8 0 0 7 0 8 0 7 9 7 6 6 8 6 X.U k 5 5 ;.;.;.;.;.;.;.;.;.;.;.;.;.;.;.",
";.;.;.;.;.;.;.;.;.;.;.;.;.;.;.6 X.X.6 6 5 7 6 9 6 0 q e 9 q q q q w q 0 e 0 0 7 8 6 7 5 7 7 M b 6 5 ;.;.;.;.;.;.;.;.;.;.;.;.;.;.",
";.;.;.;.;.;.;.;.;.;.;.;.;.;.V O.X.e 6 7 6 5 9 q 0 0 q q e w 0 0 0 0 q e q q 0 0 q 0 5 5 7 6 q l H s 0 ;.;.;.;.;.;.;.;.;.;.;.;.;.",
";.;.;.;.;.;.;.;.;.;.;.;.;.V X.6 6 5 6 6 8 8 0 0 q 0 5 < - - - % - - - - < 5 0 0 0 0 7 7 6 7 5 7 6 g y 6 ;.;.;.;.;.;.;.;.;.;.;.;.",
";.;.;.;.;.;.;.;.;.;.;.;.6 O.6 6 5 7 5 7 0 9 e q 3 - - % % % % % % % % % - - - 5 0 e 0 0 7 5 6 5 6 6 x 6 5 ;.;.;.;.;.;.;.;.;.;.;.",
";.;.;.;.;.;.;.;.;.;.;.5 X.X.6 6 7 7 7 q a 0 3 - - = = % % % % % % % % % % % % % - 1 0 a q 6 7 8 5 6 u g 6 6 ;.;.;.;.;.;.;.;.;.;.",
";.;.;.;.;.;.;.;.;.;.6 F X.e 5 6 7 7 q B 7 < - - = = % % % % % % % $ $ % % % % % = = , 0 p w 6 7 7 5 0 g y 5 7 ;.;.;.;.;.;.;.;.;.",
";.;.;.;.;.;.;.;.;.;.6 O.5 6 6 6 6 q q 3 - = - % % $ $ $ $ % # % $ % $ $ % $ $ $ * % % = 1 w w 6 5 6 6 6 c 7 5 ;.;.;.;.;.;.;.;.;.",
";.;.;.;.;.;.;.;.;.7  .X.6 6 7 7 e B 3 - % % % % % $ = * # % % # $ $ $ $ $ $ $ $ $ % % % = 1 p 0 7 7 6 7 g u 7 5 ;.;.;.;.;.;.;.;.",
";.;.;.;.;.;.;.;.6 6 @.7 5 6 7 0 B 7 - % % % % % * $ $ O $ $ $ $ O $ $ O O $ $ $ $ $ $ % % * 8 i 0 9 6 5 7 v 7 5 7 ;.;.;.;.;.;.;.",
";.;.;.;.;.;.;.6 6 O.6 7 7 6 7 7 0 , % % % % % $ O $ $ $ O $ O $ O $ O $ $ $ $ $ $ $ $ $ % % , 0 9 7 5 7 7 5 c 5 6 ;.;.;.;.;.;.;.",
";.;.;.;.;.;.;.6 r o.6 6 7 7 w w 3 - % % $ % $ # * $ $ $ O $ $ O $ $ $ O $ O O $ @ $ $ $ $ % * 1 q 0 9 6 6 6 x 0 7 ;.;.;.;.;.;.;.",
";.;.;.;.;.;.;.7 ....6 6 7 w 0 0 - = % $ $ $ $ $ O $ O O $ O O O O O O O O $ O $ O $ @ $ $ $ % * 0 0 q 9 6 7 f f 6 0 ;.;.;.;.;.;.",
";.;.;.;.;.;.;.C o.B 7 7 6 w 0 5 - % % % % $ # $ # # @ @ O O O O O O O O O O O $ $ O $ $ $ $ % $ 2 q 0 6 7 7 q x y 7 ;.;.;.;.;.;.",
";.;.;.;.;.;.7 ..O.7 7 7 8 8 0 % % % % $ $ # # # # @ @ O O O O O O O O O O O O O O $ O * O $ % $ $ 9 9 9 7 9 7 H l 6 7 ;.;.;.;.;.",
";.;.;.;.;.;.7 ..O.7 7 9 0 w 5 , % % $ $ # $ # @ @ @ O O O O O O O O O O O O O O $ O $ O $ $ $ $ * 4 q 0 7 7 7 H j 7 6 ;.;.;.;.;.",
";.;.;.;.;.;.6 o.F 7 7 0 w e , % $ % $ $ $ # # O O @ O O O o o O X o o o O O O O O O O $ $ O $ $ $ , q q 0 7 9 B M 6 7 ;.;.;.;.;.",
";.;.;.;.;.;.7 O.5 7 e 7 0 w % % % $ $ $ $ @ @ @ O O O o O o Y Q Q Y X O o O o O O O O O $ O $ O $ % w 9 8 q 7 6 H 8 7 ;.;.;.;.;.",
";.;.;.;.;.6 7 P 7 7 7 0 w w % % % $ $ $ @ @ @ @ O O O o o A > & : { R o o o o O O O O O O $ $ $ $ * q q 8 7 8 8 I 7 6 7 ;.;.;.;.",
";.;.;.;.;.8 7 P 0 0 7 7 w 0 % % % $ $ # # @ @ O @ o O o ! t   + : [ } ! X o o O O O O $ $ O * $ O * 8 q 7 7 0 8 O.7 8 7 ;.;.;.;.",
";.;.;.;.;.7 7 P 0 7 0 0 0 8 % % $ $ $ @ @ @ @ O O O M ' ~ & + ] [ : : ~ ' D o o O O O O $ O O $ * O 8 0 8 0 8 8 O.7 7 5 ;.;.;.;.",
";.;.;.;.;.7 8 R 0 7 0 0 q 0 % % % ^ / / / / ^ O ^ _ ` ) ( +.+.$.$.+.+.( ) ` _ T O ^ / / / %.&.$ % $ w 8 8 0 7 7 O.7 7 5 ;.;.;.;.",
";.;.;.;.;.7 7 P 8 0 7 7 w 0 % % $ $ $ $ $ O $ O O S / / / -.=.=.&.*.-./ / / S o O O O O $ O O $ $ $ 8 q 7 7 0 0 O.7 7 7 ;.;.;.;.",
";.;.;.;.;.7 7 P 8 8 7 8 q q % % % $ $ $ O $ O O O O o o o W } : & N W . o o o o O O O O O O $ $ O , q q 8 7 7 7 O.7 7 7 ;.;.;.;.",
";.;.;.;.;.7 7 L 7 8 q 8 0 w - % % $ $ $ $ O $ O O O O O o o ' #.#.' . o o o o O O O O $ $ $ O % $ O w 8 7 w 7 5 O.7 7 7 ;.;.;.;.",
";.;.;.;.;.7 7 J B 8 7 0 q w , % $ $ $ $ $ O O O O O O O o o o o X X o o o o O O O O O O O $ $ % $ < q 0 8 7 7 F o.7 7 7 ;.;.;.;.",
";.;.;.;.;.;.7 h H 7 7 7 q 0 5 - $ % $ $ $ $ $ O O O O O o O O o o O o o O o o O O O O $ $ $ O O $ 4 q q 8 7 8 O. .7 6 ;.;.;.;.;.",
";.;.;.;.;.;.7 l Z 7 8 8 0 0 9 - % $ $ $ $ O O O $ O O O O o o O O o O o O O O O O $ O O O % $ $ % 8 8 8 8 7 7 O...6 7 ;.;.;.;.;.",
";.;.;.;.;.;.7 s M q 7 7 7 0 q 5 % % $ $ $ $ $ $ O O O O O O O o O O o O O O O O O O $ % O $ $ $ 4 0 0 6 7 7 a o.F 7 7 ;.;.;.;.;.",
";.;.;.;.;.;.7 7 l l 6 6 7 q 0 0 - % $ % $ $ @ @ # # @ @ @ O O O O O O o O O O O $ O $ $ $ $ $ * 8 0 q 7 6 7 ....5 5 7 ;.;.;.;.;.",
";.;.;.;.;.;.;.7 q M 7 5 6 0 0 q 3 - $ $ $ $ $ $ # # # @ @ @ @ O O O O O $ O O $ O $ O $ $ $ * 1 q q 7 6 6 6 o.r 7 6 ;.;.;.;.;.;.",
";.;.;.;.;.;.;.6 6 Z 5 8 7 5 7 0 w , % % $ $ $ $ # $ @ @ @ @ @ O $ O @ O $ O $ O $ O $ $ $ $ , 8 8 7 5 7 7 6 O.6 5 e ;.;.;.;.;.;.",
";.;.;.;.;.;.;.6 5 6 R 7 5 6 7 q w 8 - % % % $ $ $ # $ @ @ @ @ @ O $ O $ O O $ $ $ $ $ $ * O 7 i 0 7 6 5 6 @.6 6 6 ;.;.;.;.;.;.;.",
";.;.;.;.;.;.;.6 5 7 h g 7 6 7 7 w p 1 % % % % $ $ # $ $ $ # # # $ $ O $ $ O O $ $ $ $ $ , < p q 7 7 6 7 X...7 6 6 ;.;.;.;.;.;.;.",
";.;.;.;.;.;.;.;.7 5 7 c 6 6 6 6 6 w w 1 - % $ % % $ $ $ # $ $ # $ $ $ $ $ $ $ $ $ $ $ % 1 q q 4 5 6 5 6 O.6 5 6 7 ;.;.;.;.;.;.;.",
";.;.;.;.;.;.;.;.;.6 5 y h 9 5 6 7 6 w a 8 , % % % % % # % % # % O $ $ $ % $ $ % % % , 8 p q 6 7 7 5 r X.C 5 6 0 ;.;.;.;.;.;.;.;.",
";.;.;.;.;.;.;.;.;.7 6 6 g u 6 5 8 7 6 w a 8 1 , % % % % % $ % % % $ $ $ $ % % * , < 8 p 0 6 7 8 5 6 X.X.6 5 6 ;.;.;.;.;.;.;.;.;.",
";.;.;.;.;.;.;.;.;.;.7 5 5 x 6 7 5 6 5 7 0 0 e 9 5 = = = % % % % % % % % % % = 5 8 w 0 0 7 5 6 5 6 6 O.5 5 7 7 ;.;.;.;.;.;.;.;.;.",
";.;.;.;.;.;.;.;.;.;.5 7 5 y g 5 7 5 6 7 7 7 0 0 q 9 5 ; - - % % % % % % , 6 8 0 0 0 7 7 6 7 5 6 6 X.V 6 6 5 ;.;.;.;.;.;.;.;.;.;.",
";.;.;.;.;.;.;.;.;.;.;.;.7 7 y c u 0 6 7 6 5 0 q q 0 q q w q 0 0 0 0 w w w w 0 0 w 8 5 6 7 6 w F R B 8 6 5 ;.;.;.;.;.;.;.;.;.;.;.",
";.;.;.;.;.;.;.;.;.;.;.;.7 7 5 5 g g 6 6 5 7 6 0 7 0 q q 0 0 e w q w w 8 w 0 0 6 8 6 7 5 7 6 G G 7 6 6 6 ;.;.;.;.;.;.;.;.;.;.;.;.",
";.;.;.;.;.;.;.;.;.;.;.;.;.;.7 5 6 y c g 7 8 6 5 7 7 8 9 8 9 7 0 8 7 0 7 8 8 8 7 6 6 8 6 G L k 6 6 7 5 ;.;.;.;.;.;.;.;.;.;.;.;.;.",
";.;.;.;.;.;.;.;.;.;.;.;.;.;.5 7 5 5 7 u v 5 6 6 7 7 7 7 q 7 7 0 0 7 7 w 7 7 7 7 6 6 6 E z 7 5 5 7 3 ;.;.;.;.;.;.;.;.;.;.;.;.;.;.",
";.;.;.;.;.;.;.;.;.;.;.;.;.;.;.;.6 6 5 7 6 c x h q 7 7 9 8 0 0 8 8 0 8 8 8 7 6 w F K P 6 7 5 6 5 7 ;.;.;.;.;.;.;.;.;.;.;.;.;.;.;.",
";.;.;.;.;.;.;.;.;.;.;.;.;.;.;.;.;.7 7 6 5 6 0 f x n Z s 6 7 7 0 8 8 8 6 k P P J F w 5 6 5 7 9 7 ;.;.;.;.;.;.;.;.;.;.;.;.;.;.;.;.",
";.;.;.;.;.;.;.;.;.;.;.;.;.;.;.;.;.;.8 6 6 6 7 7 y h h M H H H H J G G J G z z k 7 7 5 6 6 8 ;.;.;.;.;.;.;.;.;.;.;.;.;.;.;.;.;.;.",
";.;.;.;.;.;.;.;.;.;.;.;.;.;.;.;.;.;.;.;.7 0 6 6 6 7 7 7 7 7 7 7 7 7 7 7 6 7 6 7 6 6 0 6 ;.;.;.;.;.;.;.;.;.;.;.;.;.;.;.;.;.;.;.;.",
";.;.;.;.;.;.;.;.;.;.;.;.;.;.;.;.;.;.;.;.;.;.;.7 6 7 6 7 7 7 7 7 7 7 7 6 7 6 7 6 7 7 ;.;.;.;.;.;.;.;.;.;.;.;.;.;.;.;.;.;.;.;.;.;.",
";.;.;.;.;.;.;.;.;.;.;.;.;.;.;.;.;.;.;.;.;.;.;.;.;.5 6 6 6 7 7 6 5 7 7 7 6 6 5 7 ;.;.;.;.;.;.;.;.;.;.;.;.;.;.;.;.;.;.;.;.;.;.;.;.",
";.;.;.;.;.;.;.;.;.;.;.;.;.;.;.;.;.;.;.;.;.;.;.;.;.;.;.;.7 7 5 6 6 5 7 7 ;.;.;.;.;.;.;.;.;.;.;.;.;.;.;.;.;.;.;.;.;.;.;.;.;.;.;.;.",
";.;.;.;.;.;.;.;.;.;.;.;.;.;.;.;.;.;.;.;.;.;.;.;.;.;.;.;.;.;.;.;.;.;.;.;.;.;.;.;.;.;.;.;.;.;.;.;.;.;.;.;.;.;.;.;.;.;.;.;.;.;.;.;.",
";.;.;.;.;.;.;.;.;.;.;.;.;.;.;.;.;.;.;.;.;.;.;.;.;.;.;.;.;.;.;.;.;.;.;.;.;.;.;.;.;.;.;.;.;.;.;.;.;.;.;.;.;.;.;.;.;.;.;.;.;.;.;.;.",
";.;.;.;.;.;.;.;.;.;.;.;.;.;.;.;.;.;.;.;.;.;.;.;.;.;.;.;.;.;.;.;.;.;.;.;.;.;.;.;.;.;.;.;.;.;.;.;.;.;.;.;.;.;.;.;.;.;.;.;.;.;.;.;."
};
