/* XPM */
static char *result[] = {
/* columns rows colors chars-per-pixel */
"64 64 112 2 ",
"   c #0A0012",
".  c #302837",
"X  c #352C3D",
"o  c #260046",
"O  c #382E41",
"+  c #3C3245",
"@  c #3F3549",
"#  c #3A0068",
"$  c #41364A",
"%  c #45394C",
"&  c #493C4E",
"*  c #42007B",
"=  c #7B266D",
"-  c #4F414D",
";  c #52424E",
":  c #5A474F",
">  c #544451",
",  c #5C4952",
"<  c #624E4F",
"1  c #644F54",
"2  c #675154",
"3  c #6B5555",
"4  c #6F5856",
"5  c #735A56",
"6  c #7A5D56",
"7  c #765D58",
"8  c #7A5E58",
"9  c #7D6156",
"0  c #7D6158",
"q  c #843574",
"w  c #865D56",
"e  c #8B6056",
"r  c #826459",
"t  c #8B6259",
"y  c #866859",
"u  c #8B6C5A",
"i  c #946056",
"p  c #9A6056",
"a  c #976558",
"s  c #9C6458",
"d  c #926C5D",
"f  c #9A6C5C",
"g  c #96755D",
"h  c #9E735E",
"j  c #A76A58",
"k  c #AC6C58",
"l  c #B1745D",
"z  c #BB7259",
"x  c #8C4476",
"c  c #826B67",
"v  c #886F68",
"b  c #927C77",
"n  c #987F77",
"m  c #AA6A65",
"M  c #A57560",
"N  c #A27F60",
"B  c #B17F62",
"V  c #AB6774",
"C  c #AC8E3F",
"Z  c #AD8856",
"A  c #AF8958",
"S  c #988177",
"D  c #A68260",
"F  c #AB8162",
"G  c #AE8962",
"H  c #B58463",
"J  c #B88464",
"K  c #B99465",
"L  c #BC9579",
"P  c #E3915C",
"I  c #E2BE5D",
"U  c #CD8168",
"Y  c #C29C67",
"T  c #C89168",
"R  c #D1AC6C",
"E  c #C2A37B",
"W  c #DCB176",
"Q  c #F4A765",
"!  c #E6BE6F",
"~  c #F7B76F",
"^  c #EEBA72",
"/  c #E1C445",
"(  c #F4DE46",
")  c #F9C95B",
"_  c #F8DE54",
"`  c #FAD162",
"'  c #FCDE6D",
"]  c #F5D87B",
"[  c #FBE36F",
"{  c #F8E37F",
"}  c #4C008B",
"|  c #56009B",
" . c #8E268F",
".. c #973595",
"X. c #9C4498",
"o. c #B86795",
"O. c #A58F84",
"+. c #A79184",
"@. c #AE9B8F",
"#. c #B09B8F",
"$. c #BBA798",
"%. c #B1ACB5",
"&. c #ECBE91",
"*. c #C1AFA1",
"=. c #C3B0A1",
"-. c #FFEC8B",
";. c #D3C3B2",
":. c #F9D9C1",
">. c #FAE0C4",
",. c #FDEACB",
"<. c #F6F5F6",
"1. c None",
/* pixels */
"1.1.1.1.1.1.1.1.1.1.1.1.1.1.1.1.1.1.1.1.1.1.1.1.1.1.1.1.1.1.1.1.1.1.1.1.1.1.1.1.1.1.1.1.1.1.1.1.1.1.1.1.1.1.1.1.1.1.1.1.1.1.1.1.",
"1.1.1.1.1.1.1.1.1.1.1.1.1.1.1.1.1.1.1.1.1.1.1.1.1.1.1.1.1.1.1.1.1.1.1.1.1.1.1.1.1.1.1.1.1.1.1.1.1.1.1.1.1.1.1.1.1.1.1.1.1.1.1.1.",
"1.1.1.1.1.1.1.1.1.1.1.1.1.1.1.1.1.1.1.1.1.1.1.1.1.1.1.1.1.1.1.1.1.1.1.1.1.1.1.1.1.1.1.1.1.1.1.1.1.1.1.1.1.1.1.1.1.1.1.1.1.1.1.1.",
"1.1.1.1.1.1.1.1.1.1.1.1.1.1.1.1.1.1.1.1.1.1.1.1.1.1.1.1.1.1.1.1.1.1.1.1.1.1.1.1.1.1.1.1.1.1.1.1.1.1.1.1.1.1.1.1.1.1.1.1.1.1.1.1.",
"1.1.1.1.1.1.1.1.1.1.1.1.1.1.1.1.1.1.1.1.1.1.1.1.1.1.1.1.1.1.1.1.1.1.1.1.1.1.1.1.1.1.1.1.1.1.1.1.1.1.1.1.1.1.1.1.1.1.1.1.1.1.1.1.",
"1.1.1.1.1.1.1.1.1.1.1.1.1.1.1.1.1.1.1.1.1.1.1.1.1.1.1.1.1.1.1.1.1.1.1.1.1.1.1.1.1.1.1.1.1.1.1.1.1.1.1.1.1.1.1.1.1.1.1.1.1.1.1.1.",
"1.1.1.1.1.1.1.1.1.1.1.1.1.1.1.1.1.1.1.1.1.1.1.1.1.1.1.1.5 4 4 5 4 4 5 5 7 1.1.1.1.1.1.1.1.1.1.1.1.1.1.1.1.1.1.1.1.1.1.1.1.1.1.1.",
"1.1.1.1.1.1.1.1.1.1.1.1.1.1.1.1.1.1.1.1.1.1.1.4 n O.O.$.=.=.*.*.*.*.=.*.$.O.O.n 3 4 1.1.1.1.1.1.1.1.1.1.1.1.1.1.1.1.1.1.1.1.1.1.",
"1.1.1.1.1.1.1.1.1.1.1.1.1.1.1.1.1.1.1.1.1.3 c +.$.=.=.S 3 5 7 5 7 5 5 3 n *.=.$.O.v 2 2 1.1.1.1.1.1.1.1.1.1.1.1.1.1.1.1.1.1.1.1.",
"1.1.1.1.1.1.1.1.1.1.1.1.1.1.1.1.1.1.1.4 3 *.$.+.v 3 4 4 5 5 7 5 5 7 5 5 4 4 4 v +.$.*.3 4 1 1.1.1.1.1.1.1.1.1.1.1.1.1.1.1.1.1.1.",
"1.1.1.1.1.1.1.1.1.1.1.1.1.1.1.1.1.1 3 O.;.2 2 3 4 4 4 4 0 4 4 7 7 4 4 0 4 4 4 3 4 2 2 ;.O.4 1 2 1.1.1.1.1.1.1.1.1.1.1.1.1.1.1.1.",
"1.1.1.1.1.1.1.1.1.1.1.1.1.1.1.1.3 n *.@.3 5 3 2 4 5 5 5 5 5 5 7 7 5 5 5 7 5 4 4 2 2 4 4 #.E g 3 2 1.1.1.1.1.1.1.1.1.1.1.1.1.1.1.",
"1.1.1.1.1.1.1.1.1.1.1.1.1.1.1.2 @.#.3 4 1 4 3 5 3 7 0 0 7 8 w 0 0 0 8 7 r 7 7 4 5 4 4 2 3 3 B M 2 2 1.1.1.1.1.1.1.1.1.1.1.1.1.1.",
"1.1.1.1.1.1.1.1.1.1.1.1.1.1.b =.@.c 3 3 2 2 7 0 7 7 0 0 c 0 7 7 7 7 8 c r 0 7 7 7 5 2 2 3 3 6 M J u 7 1.1.1.1.1.1.1.1.1.1.1.1.1.",
"1.1.1.1.1.1.1.1.1.1.1.1.1.b #.3 3 1 3 3 5 5 8 8 8 7 2 > & & % $ & & & & > 2 7 8 8 8 5 4 4 3 1 3 2 s w 2 1.1.1.1.1.1.1.1.1.1.1.1.",
"1.1.1.1.1.1.1.1.1.1.1.1.3 =.2 3 1 4 1 4 7 7 0 7 1 & & % $ $ $ $ $ $ @ $ $ % % 1 7 r 7 7 4 2 3 2 4 3 k 3 2 1.1.1.1.1.1.1.1.1.1.1.",
"1.1.1.1.1.1.1.1.1.1.1.3 @.@.2 2 7 4 3 0 u 7 , & & @ $ $ $ $ $ $ $ $ $ $ $ $ $ $ % , 9 y 6 2 3 7 2 3 p s 3 2 1.1.1.1.1.1.1.1.1.1.",
"1.1.1.1.1.1.1.1.1.1.1 n @.c 1 4 3 3 r u 5 > & $ $ $ $ $ $ @ @ @ @ @ @ $ @ $ $ $ $ % - 5 d 0 4 4 3 1 6 s e 1 5 1.1.1.1.1.1.1.1.1.",
"1.1.1.1.1.1.1.1.1.1.3 =.2 2 3 1 3 0 r , & $ $ $ $ $ $ $ @ @ @ @ + $ $ + + $ @ @ $ $ $ & , 9 9 3 2 3 2 2 k 3 2 1.1.1.1.1.1.1.1.1.",
"1.1.1.1.1.1.1.1.1.5 O.#.4 4 4 4 8 d , & $ $ $ $ @ $ + $ + @ + + + + + @ + + + $ @ @ $ @ & , u 0 4 4 3 4 s i 5 3 1.1.1.1.1.1.1.1.",
"1.1.1.1.1.1.1.1.2 3 ;.3 2 2 4 8 c 4 & $ $ $ @ @ $ + + + + + + + + + + X + + + + + + @ @ $ % 5 y 7 4 2 1 3 z 2 2 3 1.1.1.1.1.1.1.",
"1.1.1.1.1.1.1.2 2 =.2 5 4 2 5 7 7 > $ $ $ @ @ @ + + + + + + + + + + + + + + + + + @ @ + $ $ & 6 6 4 2 4 5 2 k 2 2 1.1.1.1.1.1.1.",
"1.1.1.1.1.1.1.4 c $.3 2 4 7 7 r , & @ @ @ @ @ + + + + O X + + X + + X + + X X + + + + @ $ + % : 8 7 5 4 2 3 j 6 4 1.1.1.1.1.1.1.",
"1.1.1.1.1.1.1.3 +.+.3 2 4 8 7 7 & % @ @ @ + @ + + X + + + X + X X X X O + X + + + + + + + $ + % 7 6 6 5 3 3 p a 3 7 1.1.1.1.1.1.",
"1.1.1.1.1.1.1.n $.v 3 4 3 8 0 1 $ $ @ @ + + + + + + O X + X X + X O X X X X + + + X + + + + $ $ < 9 6 3 3 4 6 j e 4 1.1.1.1.1.1.",
"1.1.1.1.1.1.4 O.*.4 4 4 7 7 7 $ $ $ @ + + + + + + X O O X X X X X X X X X + X X + X + + + + + $ $ 5 5 5 5 4 4 J h 3 4 1.1.1.1.1.",
"1.1.1.1.1.1.4 O.*.4 4 4 0 0 1 % $ @ @ + + + + O + X X O X X X X X X X X X X X + X + $ X + + + + $ < 6 6 4 4 5 J h 4 3 1.1.1.1.1.",
"1.1.1.1.1.1.4 $.S 4 4 7 0 r ; $ $ @ @ + + + + + O + X X X X X . X X . X X X X X + X X + + + + $ $ ; r 6 7 4 4 d B 3 3 1.1.1.1.1.",
"1.1.1.1.1.1.5 =.4 4 6 7 7 r % $ @ + @ O + O + X X X X X X X P Q Q P . X X X X X X X + + + + + + $ $ 9 6 4 0 4 3 J 5 3 1.1.1.1.1.",
"1.1.1.1.1.4 4 Y 5 7 4 7 0 6 % $ @ $ @ + + + + X O X X X X U = # *  .U . . X . X X + X X X + + + + $ 9 6 4 4 7 5 L 4 3 4 1.1.1.1.",
"1.1.1.1.1.5 3 Y 7 7 4 4 r 7 % $ @ $ + @ O + + O X X X X ^ q   o * | ..^ . . X X X X X + + + X $ + $ 6 9 4 4 7 7 *.4 5 4 1.1.1.1.",
"1.1.1.1.1.4 4 Y 5 4 7 7 6 7 $ $ @ O @ O + O X X X X A ] ~ # o } | * * ~ ] Z . X X X X X + X + + $ X 5 6 5 7 4 7 *.4 4 2 1.1.1.1.",
"1.1.1.1.1.4 4 Y 5 5 7 7 9 8 $ $ $ / ( ( ( ( / + / { ,.>.:.m V o.o.V m ) ` ' _ / X / ( ( ( ( / + @ @ 9 9 5 9 4 4 =.4 4 2 1.1.1.1.",
"1.1.1.1.1.4 4 Y 5 7 4 5 0 8 $ $ $ + @ + + + X X X %.<.<.<.[ &.! I ! [ ( ( ( C . X X X + + O + + + + 5 9 4 4 9 4 =.3 5 4 1.1.1.1.",
"1.1.1.1.1.4 4 Y 5 5 4 5 0 0 $ $ @ + + + X + + X X X . X . W X.* # x W . . . X X X X X X O + + + X $ 9 5 5 4 5 5 =.4 4 4 1.1.1.1.",
"1.1.1.1.1.3 5 K 3 5 0 5 7 r % $ $ + + + + + X X X X X X X . ] -.-.] . . . . X . X X + + + O + + $ $ r 5 5 0 4 3 =.4 3 3 1.1.1.1.",
"1.1.1.1.1.4 3 K d 4 4 7 r 0 ; $ @ @ + + + X + + + X X X . X . X . . . . X X X X X X X X + + + + $ ; 9 9 4 4 4 S $.2 4 2 1.1.1.1.",
"1.1.1.1.1.1.4 M J 4 4 4 7 0 2 $ @ @ + @ + + + X X O X X X X X . X X X . X . X X + X + + X + + $ $ < 9 6 4 4 4 =.+.4 3 1.1.1.1.1.",
"1.1.1.1.1.1.3 h J 4 5 5 7 7 7 & $ @ @ + + + + X O X X X X X X X . X X X X X X X X + + X @ + + + $ 5 5 6 5 5 3 =.O.4 4 1.1.1.1.1.",
"1.1.1.1.1.1.3 u B r 4 3 2 8 8 2 $ $ @ @ + + + + + O O + X X X X X X X X X X O O X + X + + + + + < 9 6 < 3 4 u $.n 4 3 1.1.1.1.1.",
"1.1.1.1.1.1.4 3 M h 3 2 5 0 7 7 % $ $ + + + + + + X O O X X X X X X X X X O X X O X + + + + $ % 5 7 0 7 3 3 +.+.2 4 4 1.1.1.1.1.",
"1.1.1.1.1.1.1.4 8 B 2 3 3 5 7 0 : % $ $ $ O + + + + + O O + O X X O X + O X + + + + + + + + % : 0 7 4 3 2 3 $.v 3 3 1.1.1.1.1.1.",
"1.1.1.1.1.1.1.2 2 J 1 4 4 2 5 5 7 & % $ $ + + + + + O + + + X X O O O O O + + + + + + + + $ - 5 5 4 1 3 4 2 $.3 2 7 1.1.1.1.1.1.",
"1.1.1.1.1.1.1.3 3 3 T 4 2 2 5 7 y 7 % $ $ + $ $ + + + + + X + + + X + + + X + + + + + + + $ 5 y 5 3 3 2 3 ;.3 3 3 1.1.1.1.1.1.1.",
"1.1.1.1.1.1.1.3 3 4 f s 4 4 4 4 0 d : & $ $ $ O + + @ + @ + + + + + + + + + @ + @ + + $ % : u 6 4 3 3 4 #.O.4 2 3 1.1.1.1.1.1.1.",
"1.1.1.1.1.1.1.1.3 2 4 k 2 3 2 1 3 0 0 , % $ $ $ @ + @ + + + + + + + @ + + + + + + @ @ $ : r 9 3 2 4 2 3 =.3 1 3 5 1.1.1.1.1.1.1.",
"1.1.1.1.1.1.1.1.1.3 2 w s 6 1 4 4 2 r u 4 ; & $ $ @ $ + @ + @ + + + + + + + + $ $ $ - 4 u 0 3 3 3 1 c @.n 1 3 5 1.1.1.1.1.1.1.1.",
"1.1.1.1.1.1.1.1.1.4 3 2 p p 3 1 7 4 2 r y 7 : & $ $ $ @ @ $ + + + $ $ + $ $ $ $ & : 9 y 9 2 3 7 2 3 @.@.3 2 2 1.1.1.1.1.1.1.1.1.",
"1.1.1.1.1.1.1.1.1.1.4 1 2 k 3 3 2 3 2 4 8 7 w 8 1 % $ $ $ $ $ $ $ $ $ $ @ $ @ 1 7 r 5 7 4 2 4 2 4 2 =.2 1 4 3 1.1.1.1.1.1.1.1.1.",
"1.1.1.1.1.1.1.1.1.1.1 4 2 w s 2 3 1 3 4 4 4 8 8 8 7 2 > & $ $ $ $ $ $ % ; 2 7 0 7 8 4 4 4 3 1 3 2 #.b 3 4 1 1.1.1.1.1.1.1.1.1.1.",
"1.1.1.1.1.1.1.1.1.1.1.1.3 4 w k p 5 3 3 2 2 7 8 8 7 0 0 r 0 7 7 7 8 0 r 0 0 7 7 8 7 2 3 3 3 0 G K g 5 2 1 1.1.1.1.1.1.1.1.1.1.1.",
"1.1.1.1.1.1.1.1.1.1.1.1.5 3 2 3 s s 3 4 1 4 3 5 3 7 0 0 7 0 0 0 9 0 0 7 0 0 7 3 4 3 4 1 3 3 G G 3 3 3 2 1.1.1.1.1.1.1.1.1.1.1.1.",
"1.1.1.1.1.1.1.1.1.1.1.1.1.1.4 1 3 w k s 4 4 3 2 4 4 5 5 5 5 4 7 7 5 5 5 7 5 5 3 2 2 7 4 G Y g 3 2 3 1 1.1.1.1.1.1.1.1.1.1.1.1.1.",
"1.1.1.1.1.1.1.1.1.1.1.1.1.1.1 4 2 1 4 i z 1 3 3 4 5 4 4 0 4 4 7 7 4 4 0 4 4 4 4 4 2 1 R N 3 1 2 4 2 1.1.1.1.1.1.1.1.1.1.1.1.1.1.",
"1.1.1.1.1.1.1.1.1.1.1.1.1.1.1.1.3 3 2 5 3 j j a 8 5 5 4 5 5 7 5 5 7 5 5 4 4 3 y F K Y 2 4 1 2 3 3 1.1.1.1.1.1.1.1.1.1.1.1.1.1.1.",
"1.1.1.1.1.1.1.1.1.1.1.1.1.1.1.1.1.4 3 2 2 2 8 a j m J d 3 5 5 7 5 5 5 3 g Y Y K A r 2 2 2 3 7 4 1.1.1.1.1.1.1.1.1.1.1.1.1.1.1.1.",
"1.1.1.1.1.1.1.1.1.1.1.1.1.1.1.1.1.1.5 3 3 2 4 3 e a m B J J H H J J J J H D D g 4 3 2 3 2 5 1.1.1.1.1.1.1.1.1.1.1.1.1.1.1.1.1.1.",
"1.1.1.1.1.1.1.1.1.1.1.1.1.1.1.1.1.1.1.1.7 7 3 3 3 3 4 3 4 4 4 4 4 4 4 4 3 4 4 3 3 3 7 3 1.1.1.1.1.1.1.1.1.1.1.1.1.1.1.1.1.1.1.1.",
"1.1.1.1.1.1.1.1.1.1.1.1.1.1.1.1.1.1.1.1.1.1.1.4 2 4 3 3 3 3 5 4 3 5 3 4 4 3 3 2 4 3 1.1.1.1.1.1.1.1.1.1.1.1.1.1.1.1.1.1.1.1.1.1.",
"1.1.1.1.1.1.1.1.1.1.1.1.1.1.1.1.1.1.1.1.1.1.1.1.1.2 3 3 3 4 4 2 2 4 4 3 3 3 1 4 1.1.1.1.1.1.1.1.1.1.1.1.1.1.1.1.1.1.1.1.1.1.1.1.",
"1.1.1.1.1.1.1.1.1.1.1.1.1.1.1.1.1.1.1.1.1.1.1.1.1.1.1.1.4 4 1 3 3 2 4 4 1.1.1.1.1.1.1.1.1.1.1.1.1.1.1.1.1.1.1.1.1.1.1.1.1.1.1.1.",
"1.1.1.1.1.1.1.1.1.1.1.1.1.1.1.1.1.1.1.1.1.1.1.1.1.1.1.1.1.1.1.1.1.1.1.1.1.1.1.1.1.1.1.1.1.1.1.1.1.1.1.1.1.1.1.1.1.1.1.1.1.1.1.1.",
"1.1.1.1.1.1.1.1.1.1.1.1.1.1.1.1.1.1.1.1.1.1.1.1.1.1.1.1.1.1.1.1.1.1.1.1.1.1.1.1.1.1.1.1.1.1.1.1.1.1.1.1.1.1.1.1.1.1.1.1.1.1.1.1.",
"1.1.1.1.1.1.1.1.1.1.1.1.1.1.1.1.1.1.1.1.1.1.1.1.1.1.1.1.1.1.1.1.1.1.1.1.1.1.1.1.1.1.1.1.1.1.1.1.1.1.1.1.1.1.1.1.1.1.1.1.1.1.1.1."
};
