/* XPM */
static char *result[] = {
/* columns rows colors chars-per-pixel */
"64 64 85 1 ",
"  c #06000B",
". c #17002A",
"X c #1E1A23",
"o c #211C26",
"O c #241E2A",
"+ c #23003F",
"@ c #27202C",
"# c #29222E",
"$ c #31272F",
"% c #33292F",
"& c #352A31",
"* c #3B2E32",
"= c #3E3133",
"- c #433534",
"; c #4A3634",
": c #473835",
"> c #4A3A35",
", c #533B35",
"< c #5C3C35",
"1 c #603D35",
"2 c #4F413E",
"3 c #544137",
"4 c #584037",
"5 c #52433F",
"6 c #5B4438",
"7 c #6D5727",
"8 c #6B4135",
"9 c #624539",
"0 c #6A403D",
"q c #664E3A",
"w c #6B4E3B",
"e c #794536",
"r c #704638",
"t c #714D3B",
"y c #6E5335",
"u c #6D533B",
"i c #76503C",
"p c #76583D",
"a c #7C5E3E",
"s c #7F603E",
"d c #28004A",
"f c #2E0054",
"g c #34005F",
"h c #4A1742",
"j c #561757",
"k c #502046",
"l c #552947",
"z c #5C205B",
"x c #6B3E46",
"c c #60295D",
"v c #763E5B",
"b c #5C4D48",
"n c #7A5B49",
"m c #665750",
"M c #6C5C55",
"N c #7F654A",
"B c #79685D",
"V c #7E6E63",
"C c #6E6B71",
"Z c #8B4E3F",
"A c #85583F",
"S c #A95837",
"D c #A95838",
"F c #A77B38",
"G c #CD683D",
"H c #906C41",
"J c #9E7047",
"K c #AD7B43",
"L c #BD7845",
"P c #B97B58",
"I c #806F63",
"U c #D57543",
"Y c #A58129",
"T c #CC9F29",
"R c #DC8637",
"E c #E18F3B",
"W c #CDA02A",
"Q c #D8A033",
"! c #928071",
"~ c #CE984A",
"^ c #ECA142",
"/ c #E4A843",
"( c #FBB954",
") c #D1D0D2",
"_ c None",
/* pixels */
"________________________________________________________________",
"________________________________________________________________",
"________________________________________________________________",
"________________________________________________________________",
"________________________________________________________________",
"________________________________________________________________",
"____________________________::----:-:___________________________",
"_______________________=bMmBVVVVIIIIBmmb--______________________",
"_____________________=2mVVIb=::::::=bVIBm>==____________________",
"___________________:-VBMb-:---::-::::--bmBV-==__________________",
"_________________==m!===*=-->--:>-->-----==!m=*=________________",
"________________=mVM-:==---:::-::-:-:---==--MH6==_______________",
"_______________=MM::*--:=>>>>>>>>>>>>>:-:=-=-=ww==______________",
"______________bIMl==-*:>>->>,>>>>>>>5>->>:==-->9n,>_____________",
"_____________bM====--:>>>>-&####@###&=:>>>:-=-*=-1,=____________",
"____________=I=-=-=-::>:=##@####@######=:>::-=-=--1==___________",
"___________=MM==:-=>3:*####@@@#O@@@@@@@#$%>3>--:*-<1-=__________",
"__________=bMb=--=>3:&##@@@@@@@@@@@@@@@@@#$:3>=--=;1,=:_________",
"__________-I=-===>,*#@##@@@@@O@OOO@O@@@@@@##%,>-*--*8-=_________",
"_________-mM==-->5=####@@@O@OOO@o@@@o@o@@@@@#%3>----<<-=________",
"________==I-*--:5-#@#@@@OO@Oo@o@@@oo@@@@@@@@@@:3;-==-e==-_______",
"_______=*V:>-=->:$#@@@@O@Oo@@@ooXOo@X@X@@o@@@@$>--=--=8==_______",
"_______-bB-=--:>&#@@@@OOOO@ooo@oo@o@@o@oX@o@@@@%>;:===8>-_______",
"_______-mm=-->>:##@@@@OOOOo@ooooooXoooX@o@X@OO@$;>>:=-<<-:______",
"_______bB5--->>=##O#@OOOXOXOooooooooooo@OOo@O@@@&>:--->8,-______",
"______-mI---:>:##@OO@XOOOOOXoooooXXoooooooOOOo@O@:::---i9=-_____",
"______:mV--:>>=#@@O@OOOOOXXXooXXXXooooooOoOoOOO@@=>>--:i9--_____",
"______-Bb--:>>%@@#OOOOOXXOXOXXXXXXXXXXXooooOo@@OO$>>:--4w--_____",
"______-V-:>-:>#@@O@OOOOOOXXXXXSGGSXXXXXXooooo@o@@@,:->--n--_____",
"_____--A-:-:>>###OOOOXXOOXoooZh+djAXXXXoXooOoo@oO@>>>->-n---____",
"_____--a::-:>>#@@OO@OXOXXXXXLk .dgcGXXXXooooOOO@o@;>--;-V---____",
"_____--N:-::>>#@@OOOOOXOOXu~Ud.fgddG)CXXXoooOoo@@o::-;--V--=____",
"_____--s:->:>:@#@YWWWWYoYQ^ERxxvmx1EE^QFoYWWWWYo@@::=3==V==*____",
"_____--s::-->>@@O@@O@oOoX7WWT/PKFLQTTT7XXXoo@o@o@@::=23=V-3-____",
"_____--s-:-:>>@@@O@ooOoooXXXXJcddlJXXXXXoooooo@@OO>>==2=V==-____",
"_____--a-->::,##@O@OOoooooXXXX~((~XXXXXXooooo@o@OX3;=3==I3==____",
"_____--p4--:>>%@@OOOOooooooXXXXXXXXXXXXooooooo@@@%3:--=qB=-=____",
"______-9i--->>=#@@O@@o@oooXooXXXXXXXXXXXooo@@@ooO=;;--2VM--_____",
"______-9i:::::>@@@@OoO@oooooXXXXXXoXoXooooooo@o@O--:---Vm=:_____",
"______-4w>=-=>>*#@@O@OOoOoooOXooXXXXoooooo@o@o@@=3;=--3Nb-=_____",
"______--99-=->>>#@@OOOOOooooooXXXoooooooOOoOo@@@::::==mM-=-_____",
"_______->0-=-->>&#@@@OOOOOOooOOooooooXOoOoOO@@@%>::===B2-=______",
"_______==n=;-=-->%@OO@OOoOOOOOXXOoooOOOOoOOOo@$::-=-:=V==:______",
"_______==-A;=-->3-###OO@OOOOoOOOoooooOOO@oOO@@-3:-==-!-=-_______",
"_______==-61-=-->6&###OOOOOOOOOO@O@Oo@o@@O@@@&3>---=MM-==_______",
"________==-1=-==->>*#O##@O@@OOOOOOoOOOO@O@@@%,>====-V===:_______",
"_________-*,1;=--->3-$##@@@OO@OO@O@O@@O@@#%:3>=--=3Mb==:________",
"_________-=-1<=*:-->3>&##@@@#OOO@OO@O@@@#&>,,=-:==MM-==_________",
"__________-==1--=-=->->>*##@##@#@@@@@@@=:>::-====-I===-_________",
"__________=-=,1-==-=-->>>>=&###@@@@@%*:>>>--=-=-=Mb=-=__________",
"____________--,1<;=--=->>:>>>>>::>>33::>>:==-=>uN6-==___________",
"____________----11=-=---=>>>>>>>>>>>>::=:=-=--uu==-=____________",
"______________-==,81-:==-:->-;->:-:::-:-==--un6-===_____________",
"______________*-==-<e===---->-->>-->----=-=Hq===-=______________",
"________________===:=80<>---:::--::---=3qps=-==-=_______________",
"_________________:====;<1ri6---::::=6ssaq3===-:-________________",
"__________________---=--,<9wiiiiiiiiiqq6--===-__________________",
"____________________-:=----=--------=----=--____________________",
"_______________________--------------=-=--______________________",
"_________________________*==---==--==-=-________________________",
"____________________________--=-==--____________________________",
"________________________________________________________________",
"________________________________________________________________",
"________________________________________________________________"
};
