/* XPM */
static char *result[] = {
/* columns rows colors chars-per-pixel */
"64 64 224 2 ",
"   c #050009",
".  c #17131A",
"X  c #17131B",
"o  c #17141B",
"O  c #18141B",
"+  c #18141C",
"@  c #19141C",
"#  c #19151C",
"$  c #19151D",
"%  c #1A151D",
"&  c #1A151E",
"*  c #1A161E",
"=  c #1A171E",
"-  c #1A171F",
";  c #1B171F",
":  c #120021",
">  c #1B1720",
",  c #1C1720",
"<  c #1C1721",
"1  c #1D1721",
"2  c #1D1821",
"3  c #1E1821",
"4  c #1E1822",
"5  c #1E1922",
"6  c #1E1923",
"7  c #1E1A22",
"8  c #1E1A23",
"9  c #1F1A23",
"0  c #1F1A24",
"q  c #1B0031",
"w  c #1F003A",
"e  c #201A22",
"r  c #201A23",
"t  c #211B23",
"y  c #201A24",
"u  c #201B24",
"i  c #211B24",
"p  c #201A25",
"a  c #211B25",
"s  c #211C24",
"d  c #211C25",
"f  c #221C25",
"g  c #251E24",
"h  c #251E25",
"j  c #261E24",
"k  c #261F25",
"l  c #271F25",
"z  c #3A1233",
"x  c #3E1936",
"c  c #272025",
"v  c #272026",
"b  c #282025",
"n  c #292125",
"m  c #2A2125",
"M  c #2B2125",
"N  c #282026",
"B  c #2B2226",
"V  c #2C2327",
"C  c #2D2425",
"Z  c #2F2525",
"A  c #2E2526",
"S  c #2F2526",
"D  c #2F2527",
"F  c #2F2627",
"G  c #2F2528",
"H  c #2F2628",
"J  c #302627",
"K  c #352927",
"L  c #362A27",
"P  c #362B27",
"I  c #302628",
"U  c #302728",
"Y  c #312728",
"T  c #322728",
"R  c #322828",
"E  c #332828",
"W  c #332928",
"Q  c #342828",
"!  c #342928",
"~  c #352928",
"^  c #342A28",
"/  c #352A28",
"(  c #362A28",
")  c #362B28",
"_  c #372B28",
"`  c #362A29",
"'  c #362B29",
"]  c #372C28",
"[  c #372C29",
"{  c #392928",
"}  c #3A2B28",
"|  c #382C28",
" . c #392C28",
".. c #382C29",
"X. c #392C29",
"o. c #3A2C28",
"O. c #3A2D28",
"+. c #3A2C29",
"@. c #3A2D29",
"#. c #3B2E28",
"$. c #3A2E29",
"%. c #3B2E29",
"&. c #3A2D2A",
"*. c #3A2E2A",
"=. c #3B2E2A",
"-. c #3C2C28",
";. c #3F2C28",
":. c #3C2F28",
">. c #3C2F29",
",. c #3C2D2A",
"<. c #3C2F2A",
"1. c #3D2F2A",
"2. c #3D302A",
"3. c #3F312A",
"4. c #3D3230",
"5. c #3D3330",
"6. c #412D28",
"7. c #412D29",
"8. c #462D28",
"9. c #492D28",
"0. c #482F29",
"q. c #4B2F29",
"w. c #403129",
"e. c #42302B",
"r. c #40322A",
"t. c #41322B",
"y. c #42332A",
"u. c #42332B",
"i. c #43332B",
"p. c #44322B",
"a. c #43342B",
"s. c #45332C",
"d. c #45362C",
"f. c #48312A",
"g. c #4A342C",
"h. c #4B352C",
"j. c #48372C",
"k. c #4B362C",
"l. c #4C362C",
"z. c #4E362D",
"x. c #4E3C2D",
"c. c #4F3D2D",
"v. c #513229",
"b. c #533229",
"n. c #543329",
"m. c #553329",
"M. c #52322F",
"N. c #50372D",
"B. c #57362C",
"V. c #5E362A",
"C. c #503D2D",
"Z. c #533D2E",
"A. c #573C2E",
"S. c #5A3D2F",
"D. c #593E2F",
"F. c #5B3E2F",
"G. c #5C3E2F",
"H. c #422037",
"J. c #403431",
"K. c #453A38",
"L. c #483C38",
"P. c #483D38",
"I. c #533036",
"U. c #6C3D31",
"Y. c #54431E",
"T. c #55441E",
"R. c #554028",
"E. c #554129",
"W. c #54402E",
"Q. c #55412E",
"!. c #5C442F",
"~. c #5D472F",
"^. c #4E433E",
"/. c #50443E",
"(. c #51443E",
"). c #5F4739",
"_. c #674431",
"`. c #614930",
"'. c #624A30",
"]. c #624B30",
"[. c #634B30",
"{. c #634E3A",
"}. c #705433",
"|. c #7C5737",
" X c #240041",
".X c #28004A",
"XX c #431244",
"oX c #481947",
"OX c #4B2048",
"+X c #5C3047",
"@X c #554944",
"#X c #554A44",
"$X c #564A44",
"%X c #5E5148",
"&X c #62554D",
"*X c #63564D",
"=X c #726358",
"-X c #81631F",
";X c #86442B",
":X c #86442C",
">X c #985D36",
",X c #A9512F",
"<X c #B25B34",
"1X c #816420",
"2X c #826420",
"3X c #836521",
"4X c #84602C",
"5X c #896034",
"6X c #BB682B",
"7X c #A87D20",
"8X c #A87E20",
"9X c #A87E21",
"0X c #A97E21",
"qX c #B67E28",
"wX c #AA773A",
"eX c #AA783A",
"rX c #C26F2E",
"tX c #D27F33",
"yX c #946044",
"uX c #C68534",
"iX c #AE9C79",
"pX c #F19441",
"aX c #868488",
"sX c None",
/* pixels */
"sXsXsXsXsXsXsXsXsXsXsXsXsXsXsXsXsXsXsXsXsXsXsXsXsXsXsXsXsXsXsXsXsXsXsXsXsXsXsXsXsXsXsXsXsXsXsXsXsXsXsXsXsXsXsXsXsXsXsXsXsXsXsXsX",
"sXsXsXsXsXsXsXsXsXsXsXsXsXsXsXsXsXsXsXsXsXsXsXsXsXsXsXsXsXsXsXsXsXsXsXsXsXsXsXsXsXsXsXsXsXsXsXsXsXsXsXsXsXsXsXsXsXsXsXsXsXsXsXsX",
"sXsXsXsXsXsXsXsXsXsXsXsXsXsXsXsXsXsXsXsXsXsXsXsXsXsXsXsXsXsXsXsXsXsXsXsXsXsXsXsXsXsXsXsXsXsXsXsXsXsXsXsXsXsXsXsXsXsXsXsXsXsXsXsX",
"sXsXsXsXsXsXsXsXsXsXsXsXsXsXsXsXsXsXsXsXsXsXsXsXsXsXsXsXsXsXsXsXsXsXsXsXsXsXsXsXsXsXsXsXsXsXsXsXsXsXsXsXsXsXsXsXsXsXsXsXsXsXsXsX",
"sXsXsXsXsXsXsXsXsXsXsXsXsXsXsXsXsXsXsXsXsXsXsXsXsXsXsXsXsXsXsXsXsXsXsXsXsXsXsXsXsXsXsXsXsXsXsXsXsXsXsXsXsXsXsXsXsXsXsXsXsXsXsXsX",
"sXsXsXsXsXsXsXsXsXsXsXsXsXsXsXsXsXsXsXsXsXsXsXsXsXsXsXsXsXsXsXsXsXsXsXsXsXsXsXsXsXsXsXsXsXsXsXsXsXsXsXsXsXsXsXsXsXsXsXsXsXsXsXsX",
"sXsXsXsXsXsXsXsXsXsXsXsXsXsXsXsXsXsXsXsXsXsXsXsXsXsXsXsX/ ! E ! ! E ! / ) sXsXsXsXsXsXsXsXsXsXsXsXsXsXsXsXsXsXsXsXsXsXsXsXsXsXsX",
"sXsXsXsXsXsXsXsXsXsXsXsXsXsXsXsXsXsXsXsXsXsXsXE L././.%X*X*X*X*X*X*X*X*X%X/./.L.E E sXsXsXsXsXsXsXsXsXsXsXsXsXsXsXsXsXsXsXsXsXsX",
"sXsXsXsXsXsXsXsXsXsXsXsXsXsXsXsXsXsXsXsXsXY 5.(.%X*X*XP.E ( ) ) ) ) ( E P.*X*X%X(.5.Y Y sXsXsXsXsXsXsXsXsXsXsXsXsXsXsXsXsXsXsXsX",
"sXsXsXsXsXsXsXsXsXsXsXsXsXsXsXsXsXsXsX! R &X%X(.J.E ^ ^ / ) [ / / [ ) / ^ ^ E J.(.%X&XR ! H sXsXsXsXsXsXsXsXsXsXsXsXsXsXsXsXsXsX",
"sXsXsXsXsXsXsXsXsXsXsXsXsXsXsXsXsXG E ^.=XI R R E / ! ! $.! ! ....! ! $.! ! / E R R I =X^.E G U sXsXsXsXsXsXsXsXsXsXsXsXsXsXsXsX",
"sXsXsXsXsXsXsXsXsXsXsXsXsXsXsXsXR L.*X$XE / Y Y E ( / ) ( ) / [ [ / ) ( ) / ( E Y Y / E $X{.j.R H sXsXsXsXsXsXsXsXsXsXsXsXsXsXsX",
"sXsXsXsXsXsXsXsXsXsXsXsXsXsXsXY #X$XR E G ! E ( R [ @.=...&.=.@.@.=.&...=.@.[ R ( E ! G E R Z.N.Y Y sXsXsXsXsXsXsXsXsXsXsXsXsXsX",
"sXsXsXsXsXsXsXsXsXsXsXsXsXsXK.*X@X4.T E Y I ) @.X.[ *.<.1.<.+.X.X.+.<.1.<.*.[ X.@.) I Y E T +.z.F.e...sXsXsXsXsXsXsXsXsXsXsXsXsX",
"sXsXsXsXsXsXsXsXsXsXsXsXsXK.$XY R G E E ~ / X.+.&...Y N a a p p p p a a N U | &.+.X./ ~ E E G R Y q.;.Y sXsXsXsXsXsXsXsXsXsXsXsX",
"sXsXsXsXsXsXsXsXsXsXsXsXY *XY E I E I ! .._ 1...G a a 0 0 0 0 0 0 0 0 0 0 y p G ..1._ ..! I E I E Y n.Y H sXsXsXsXsXsXsXsXsXsXsX",
"sXsXsXsXsXsXsXsXsXsXsXR #X@XR I ' E T &.t.X.V f p 0 0 8 6 6 6 6 5 5 6 6 6 6 8 0 d B  .t.&.T E ' I R 9.q.R U sXsXsXsXsXsXsXsXsXsX",
"sXsXsXsXsXsXsXsXsXsXG L.$X4.G E E E %.a.) v a 0 0 8 6 6 5 5 5 5 5 5 5 5 5 5 5 6 9 i k ( a.%.E E E G { q.7.G ( sXsXsXsXsXsXsXsXsX",
"sXsXsXsXsXsXsXsXsXsXE *XR T E I T %.1.V a 0 9 8 6 5 5 5 5 3 3 3 3 3 3 3 3 3 5 5 5 6 8 i B >.$.T I E T R m.E H sXsXsXsXsXsXsXsXsX",
"sXsXsXsXsXsXsXsXsX! ^.$XE E E ! &.a.V d 0 0 6 6 5 5 3 3 2 2 2 2 2 2 2 2 2 2 2 3 5 5 6 8 i B i.@.! E E E q.8.! Y sXsXsXsXsXsXsXsX",
"sXsXsXsXsXsXsXsXY R =XE G Y ~ ..t.) a 0 9 6 5 5 3 2 2 2 < , , , , , , , , < < 2 2 2 3 5 6 y / r...~ Y G E V.R Y R sXsXsXsXsXsXsX",
"sXsXsXsXsXsXsXU Y &XI / ! I / _ X.k 0 8 5 5 5 2 2 1 < , , , > ; ; ; ; > > , , < < 2 2 3 5 5 h | ( ~ I ! / I b.Y U sXsXsXsXsXsXsX",
"sXsXsXsXsXsXsXE 5.%XR Y E ) X.1.B a 6 5 5 4 2 2 < , , > ; ; ; ; ; ; ; ; ; ; ; , , < 2 2 3 4 r m >.| ( E Y R v.} E sXsXsXsXsXsXsX",
"sXsXsXsXsXsXsXE (.(.R Y ( @.+...d 9 6 5 4 2 2 < , ; ; ; * * * * * * * * * * = ; ; , , 2 2 3 5 t ]  .o.( Y R 0.0.E [ sXsXsXsXsXsX",
"sXsXsXsXsXsXsXL.%XJ.E E R X.&.D 0 8 5 5 3 2 < , > ; - * * * * * & & & * * * * - ; ; > < 2 2 4 7 A O.| R E E -.v.6.E sXsXsXsXsXsX",
"sXsXsXsXsXsXE /.*XE / ( [ [ ] p 6 5 4 2 2 < , ; ; * * * * % $ $ $ $ $ $ % & * * * = ; , , < 2 3 9 ( ) ) / / E G.k.E E sXsXsXsXsX",
"sXsXsXsXsXsX! /.*X^ ! / @.*.J y 6 5 3 2 < , > ; = * * & % $ $ # @ @ # $ $ $ % * * * ; ; , < 2 2 7 S O.o./ ! ^ G.h.! R sXsXsXsXsX",
"sXsXsXsXsXsXE %XP.^ ! ) =.<.b 8 5 5 2 2 < > ; = * * & $ @ + + O o o O O + @ $ & * * * ; > , 2 2 4 j #.O.) ! ^ s.A.E E sXsXsXsXsX",
"sXsXsXsXsXsX/ *XE / $.( ..1.y 8 5 3 2 2 , ; ; * * & $ + + O :X,X,X;X. X o + + $ $ * * = ; , < 2 3 7 :._ ~ $./ E G./ E sXsXsXsXsX",
"sXsXsXsXsXE ! [.( ) ! ) &.%.y 6 5 3 2 < , ; = * * $ $ + O U.z q w XXU.. . o O @ $ & * * ; > , 1 2 7 O.o.( ! ) ( ).! E ! sXsXsXsX",
"sXsXsXsXsX/ E [.) [ ! / =.X.9 6 5 2 2 < > ; = * & $ @ O >Xx   : w .XoX>X. X O + $ % * * ; ; , < 2 4 | O.! ! [ ) *XE / ! sXsXsXsX",
"sXsXsXsXsXW ! [.) / ..[ @...8 6 4 2 2 < ; ; * * % $ E.eX<Xq :  X.Xw w <XwXR.o + @ $ * * ; ; , < 2 3 ]  .) ../ ) *X! W I sXsXsXsX",
"sXsXsXsXsXW ! [.) / ..[ @...8 6 3 aXiX0X0X0X2X* 1XqXtXrX6XM.I.+X+XI.M.6XrXtXqX-X+ 1X0X0X0X0X3X< 2 3 ]  .) ../ ) *X! W I sXsXsXsX",
"sXsXsXsXsX/ E [.) [ ! / =.X.8 6 3 2 2 < ; ; * * $ T.9X8X7XuXyX5X4X5XuX7X7X7XY.+ + $ * * ; ; , < 2 3 | O.! ! [ ) *XE / ! sXsXsXsX",
"sXsXsXsXsXE ! [.( ) ! ) &.%.9 6 4 2 2 < ; ; * * % $ + O X |.OXw q H.|.. . . o + @ $ * * ; ; , < 2 5 O.o.( ! ) ( *X! E ! sXsXsXsX",
"sXsXsXsXsXE / '.E / $.( ..1.y 6 5 2 2 < > ; = * & $ $ O o . wXpXpXwX. . . o O + $ & * * ; > , < 2 7 :._ ~ $./ E *X/ E E sXsXsXsX",
"sXsXsXsXsXE E !.s.^ ! ) =.>.l 6 5 3 2 1 , ; ; * * % $ + O X . . . . . . X O + $ $ * * = ; , < 2 3 j #.O.( ! ^ P.%XE E Y sXsXsXsX",
"sXsXsXsXsXsX! h.G.^ ! / @.@.F 9 5 4 2 2 , > ; * * & $ $ @ + O O o o o O + + @ $ & * * - ; , < 2 5 Z o. .~ ! ^ *X/.! R sXsXsXsXsX",
"sXsXsXsXsXsXE k.G.E / ( [ [ _ y 5 5 2 2 < , ; = * * & $ $ + + + + + + + + # $ & * * = ; > , 2 2 7 L ( ) / / E *X/.E E sXsXsXsXsX",
"sXsXsXsXsXsXE p.A.1.E E R X.@.D 9 5 4 2 2 , , ; ; * * * % $ $ $ # # # $ $ % & * * = ; , , < 2 5 C  .| T E E J.%XL.E Y sXsXsXsXsX",
"sXsXsXsXsXsXE E l.l.R Y ( @.X.] i 6 5 3 2 < , > ; = * * * & % $ $ $ $ $ & * * * = ; ; , < 2 3 e P |  ./ Y R (.(.E E E sXsXsXsXsX",
"sXsXsXsXsXsXsXE ,.A.R Y E ) X.<.B u 5 5 3 2 < , , ; ; = * * * * * * * * * * * ; ; ; , < 2 2 9 n #.| ( E Y R %X5.E R sXsXsXsXsXsX",
"sXsXsXsXsXsXsXU Y S.I / ! I / ) | k 6 5 4 2 2 < , , > ; ; - * * * * * * = ; ; ; > , < 2 2 4 g _ ( ! G ! / I &XY U [ sXsXsXsXsXsX",
"sXsXsXsXsXsXsXR Y R _.E G Y ~ ..t.( i 8 5 4 3 2 2 < , , ; ; ; ; ; ; ; ; ; ; > , < < 2 3 5 9 K w._ Q Y G E =XR Y R sXsXsXsXsXsXsX",
"sXsXsXsXsXsXsXY Y ! g.q.E E E ! &.a.B i 9 6 5 3 2 2 2 < < , , , , , , , , , < 2 2 2 3 5 r M y. .E E E E $X^.! Y Y sXsXsXsXsXsXsX",
"sXsXsXsXsXsXsXsXE H E m.R T E I T %.>.B i 6 5 5 5 2 2 2 2 1 < < < < < < 1 2 2 2 2 3 5 r M :.O.Y I E T R *XE H E ( sXsXsXsXsXsXsX",
"sXsXsXsXsXsXsXsXsXY G 7.q.{ G E E E %.a.( k u 8 6 5 5 3 2 2 2 2 2 2 2 2 2 2 3 5 5 9 h ~ u.@.R E E G 4.$XL.G Y ( sXsXsXsXsXsXsXsX",
"sXsXsXsXsXsXsXsXsX~ U R q.9.R I ' E T &.t. .B s 9 6 5 5 5 3 3 3 3 3 3 3 3 5 5 8 t m | r.+.Y E ' I R @X#XR U Y sXsXsXsXsXsXsXsXsX",
"sXsXsXsXsXsXsXsXsXsXE H Y n.Y E I E I ! .._ <.| D y 0 8 6 6 6 6 5 5 5 6 6 9 9 A ] >.( | ! I E I E Y *XY H E E sXsXsXsXsXsXsXsXsX",
"sXsXsXsXsXsXsXsXsXsXG E Y ;.q.Y R G E E ~ / X.+.@._ J c y 9 8 8 8 8 9 0 l F _ @. .X.~ ~ E E G R Y $XK.Y E G sXsXsXsXsXsXsXsXsXsX",
"sXsXsXsXsXsXsXsXsXsXsXsXR ! ;.n.9.{ T E Y I ) @.X.[ *.<.1.%.X.....X.%.1.>.@._ X.@.) I Y E T <.W.'.d.! R G sXsXsXsXsXsXsXsXsXsXsX",
"sXsXsXsXsXsXsXsXsXsXsXsX~ R Y Y q.q.R E G ! E ( R [ @.=...&.=.@.@.=.&...=.@.[ R ( E ! G E R Q.Q.Y Y R Y sXsXsXsXsXsXsXsXsXsXsXsX",
"sXsXsXsXsXsXsXsXsXsXsXsXsXsXE H R 7.m.q.E / Y Y E ( / ) ( ) / [ [ / ) ( ) / ( E Y Y / E Q.'.j.R H E G sXsXsXsXsXsXsXsXsXsXsXsXsX",
"sXsXsXsXsXsXsXsXsXsXsXsXsXsXG E U G E 8.V.I R R E / ! ! $.! ! ....! ! $.! ! / E R R I }.x.E G U E G sXsXsXsXsXsXsXsXsXsXsXsXsXsX",
"sXsXsXsXsXsXsXsXsXsXsXsXsXsXsXsXY Y H ! R b.v.0.-.E ^ ^ / ) [ / / [ ) / ^ ^ E 3.C.~.`.R ! H Y Y E sXsXsXsXsXsXsXsXsXsXsXsXsXsXsX",
"sXsXsXsXsXsXsXsXsXsXsXsXsXsXsXsXsX( E Y Y Y } 0.v.B.G.s.E ( ) ) ) ) ( E j.].[.~.C.2.Y Y Y E ( Q sXsXsXsXsXsXsXsXsXsXsXsXsXsXsXsX",
"sXsXsXsXsXsXsXsXsXsXsXsXsXsXsXsXsXsX( Y R U E E 6.f.h.A.G.G.G.G.G.G.G.G.D.c.c.j.E E U R Y ( sXsXsXsXsXsXsXsXsXsXsXsXsXsXsXsXsXsX",
"sXsXsXsXsXsXsXsXsXsXsXsXsXsXsXsXsXsXsXsX` [ R E E E ! E / ! E ! ! E ! / E ! E E E R [ R sXsXsXsXsXsXsXsXsXsXsXsXsXsXsXsXsXsXsXsX",
"sXsXsXsXsXsXsXsXsXsXsXsXsXsXsXsXsXsXsXsXsXsXsXE Y E R E E E / W W / E E E R E Y E E sXsXsXsXsXsXsXsXsXsXsXsXsXsXsXsXsXsXsXsXsXsX",
"sXsXsXsXsXsXsXsXsXsXsXsXsXsXsXsXsXsXsXsXsXsXsXsXsXI E Y E ! ! I I ! ! E Y E I Q sXsXsXsXsXsXsXsXsXsXsXsXsXsXsXsXsXsXsXsXsXsXsXsX",
"sXsXsXsXsXsXsXsXsXsXsXsXsXsXsXsXsXsXsXsXsXsXsXsXsXsXsXsXE E H T T H E E sXsXsXsXsXsXsXsXsXsXsXsXsXsXsXsXsXsXsXsXsXsXsXsXsXsXsXsX",
"sXsXsXsXsXsXsXsXsXsXsXsXsXsXsXsXsXsXsXsXsXsXsXsXsXsXsXsXsXsXsXsXsXsXsXsXsXsXsXsXsXsXsXsXsXsXsXsXsXsXsXsXsXsXsXsXsXsXsXsXsXsXsXsX",
"sXsXsXsXsXsXsXsXsXsXsXsXsXsXsXsXsXsXsXsXsXsXsXsXsXsXsXsXsXsXsXsXsXsXsXsXsXsXsXsXsXsXsXsXsXsXsXsXsXsXsXsXsXsXsXsXsXsXsXsXsXsXsXsX",
"sXsXsXsXsXsXsXsXsXsXsXsXsXsXsXsXsXsXsXsXsXsXsXsXsXsXsXsXsXsXsXsXsXsXsXsXsXsXsXsXsXsXsXsXsXsXsXsXsXsXsXsXsXsXsXsXsXsXsXsXsXsXsXsX"
};
