/* XPM */
static char *result[] = {
/* columns rows colors chars-per-pixel */
"64 58 11 1 ",
"  c black",
". c #040107",
"X c #0B0211",
"o c #12031A",
"O c #180321",
"+ c #2B083A",
"@ c #340C44",
"# c #3B0F4E",
"$ c #3F1052",
"% c #421157",
"& c #49145F",
/* pixels */
"+&&&&&&&&&&&&&&&&&&&&&&&&&&&&&&&&&&&&&&&&&&&&&&&&&&&&&&&&&&&&&&+",
"+&&&&&&&&&&&&&&&&&&&&&&&&&&&&&&&&&&&&&&&&&&&&&&&&&&&&&&&&&&&&&&+",
"+&&&&&&&&&&&&&&&&&&&&&&&&&&&&&&&&&&&&&&&&&&&&&&&&&&&&&&&&&&&&&&+",
"+&&&&&&&&&&&&&&&&&&&&&&&&&&&&&&&&&&&&&&&&&&&&&&&&&&&&&&&&&&&&&&+",
"+&&&&&&&&&&&&&&&&&&&&&&&&&&&&&&&&&&&&&&&&&&&&&&&&&&&&&&&&&&&&&&+",
"+&&&&&&&&&&&&&&&&&&&&&&&&&&&&&&&&&&&&&&&&&&&&&&&&&&&&&&&&&&&&&&+",
"+&&&&&&&&&&&&&&&&&&&&&&&&&&&&&&&&&&&&&&&&&&&&&&&&&&&&&&&&&&&&&&+",
"+&&&&&&&&&&&&&&&&&&&&&&&&&&&&&&&&&&&&&&&&&&&&&&&&&&&&&&&&&&&&&&+",
"+&&&&&&&&&&&&&&&&&&&&&&&&&&&&&&&&&&&&&&&&&&&&&&&&&&&&&&&&&&&&&&+",
"+&&&&&&&&&&&&&&&&&&&&&&&&&&&&&&&&&&&&&&&&&&&&&&&&&&&&&&&&&&&&&&+",
"+&&&&&&&&&&&&&&&&&&&&&&&&&&&&&&&&&&&&&&&&&&&&&&&&&&&&&&&&&&&&&&+",
"O+++++++++++++++++++++++++++++++++@&&&&&&&&&&&&&&&&&&&&&&&&&&&&+",
"                                  O&&&&&&&&&&&&&&&&&&&&&&&&&&&&+",
"                                  O&&&&&&&&&&&&&&&&&&&&&&&&&&&&+",
"                                  O&&&&&&&&&&&&&&&&&&&&&&&&&&&&+",
"                                  O&&&&&&&&&&&&&&&&&&&&&&&&&&&&+",
"                                  O&&&&&&&&&&&&&&&&&&&&&&&&&&&&+",
"                             &&&&&&&&&&&&&&&&&&&&&&&&&&&&$OOOOOX",
"                             &&&&&&&&&&&&&&&&&&&&&&&&&&&&#      ",
"                             &&&&&&&&&&&&&&&&&&&&&&&&&&&&#      ",
"                             &&&&&&&&&&&&&&&&&&&&&&&&&&&&#      ",
"                             &&&&&&&&&&&&&&&&&&&&&&&&&&&&#      ",
"                       oOOOOO&&&&&&&&&&&&&&&&&&&&&&&&&&&&#      ",
"                       #&&&&&&&&&&&&&&&&&&&&&&&&&&&&            ",
"                       #&&&&&&&&&&&&&&&&&&&&&&&&&&&&            ",
"                       #&&&&&&&&&&&&&&&&&&&&&&&&&&&&            ",
"                       #&&&&&&&&&&&&&&&&&&&&&&&&&&&&            ",
"                       #&&&&&&&&&&&&&&&&&&&&&&&&&&&&            ",
"                 O+++++%&&&&&&&&&&&&&&&&&&&&&&$#####            ",
"                 +&&&&&&&&&&&&&&&&&&&&&&&&&&&&O                 ",
"                 +&&&&&&&&&&&&&&&&&&&&&&&&&&&&O                 ",
"                 +&&&&&&&&&&&&&&&&&&&&&&&&&&&&O                 ",
"                 +&&&&&&&&&&&&&&&&&&&&&&&&&&&&O                 ",
"                 +&&&&&&&&&&&&&&&&&&&&&&&&&&&&O                 ",
"            &&&&&&&&&&&&&&&&&&&&&&&&&&&&$OOOOO.                 ",
"            &&&&&&&&&&&&&&&&&&&&&&&&&&&&#                       ",
"            &&&&&&&&&&&&&&&&&&&&&&&&&&&&#                       ",
"            &&&&&&&&&&&&&&&&&&&&&&&&&&&&#                       ",
"            &&&&&&&&&&&&&&&&&&&&&&&&&&&&#                       ",
"      oOOOOO&&&&&&&&&&&&&&&&&&&&&&&&&&&&#                       ",
"      #&&&&&&&&&&&&&&&&&&&&&&&&&&&&                             ",
"      #&&&&&&&&&&&&&&&&&&&&&&&&&&&&                             ",
"      #&&&&&&&&&&&&&&&&&&&&&&&&&&&&                             ",
"      #&&&&&&&&&&&&&&&&&&&&&&&&&&&&                             ",
"      #&&&&&&&&&&&&&&&&&&&&&&&&&&&&                             ",
"O+++++%&&&&&&&&&&&&&&&&&&&&&&$#####                             ",
"+&&&&&&&&&&&&&&&&&&&&&&&&&&&&O                                  ",
"+&&&&&&&&&&&&&&&&&&&&&&&&&&&&O                                  ",
"+&&&&&&&&&&&&&&&&&&&&&&&&&&&&O                                  ",
"+&&&&&&&&&&&&&&&&&&&&&&&&&&&&O                                  ",
"+&&&&&&&&&&&&&&&&&&&&&&&&&&&&O                                  ",
"+&&&&&&&&&&&&&&&&&&&&&&#+++++X                                  ",
"+&&&&&&&&&&&&&&&&&&&&&&+                                        ",
"+&&&&&&&&&&&&&&&&&&&&&&+                                        ",
"+&&&&&&&&&&&&&&&&&&&&&&+                                        ",
"+&&&&&&&&&&&&&&&&&&&&&&+                                        ",
"+&&&&&&&&&&&&&&&&&&&&&&+                                        ",
"XOOOOOOOOOOOOOOOOOOOOOOX                                        "
};
