/* XPM */
static char *result[] = {
/* columns rows colors chars-per-pixel */
"18 17 13 1 ",
"  c black",
". c #040107",
"X c #0B0211",
"o c #12031A",
"O c #180321",
"+ c #22062E",
"@ c #2B083A",
"# c #300A3F",
"$ c #340C44",
"% c #3B0F4E",
"& c #3F1052",
"* c #421157",
"= c #49145F",
/* pixels */
"OOOOOOOOOOOOOOOOOo",
"=================%",
"=================%",
"=================%",
"OOOOOOOOO$=======%",
"        @%======&#",
"        ========O ",
"      +%======*@X ",
"    .O$=======%   ",
"    O========     ",
"   #&======%@     ",
"   %=======@      ",
" @=======&OX      ",
"@%======&#        ",
"========O         ",
"======*@X         ",
"======%           "
};
