/* XPM */
static char *result[] = {
/* columns rows colors chars-per-pixel */
"10 17 7 1 ",
"  c black",
". c #0B0211",
"X c #12031A",
"o c #180321",
"O c #2B083A",
"+ c #3B0F4E",
"@ c #49145F",
/* pixels */
" X++++++X ",
" o@@@@@@o ",
" o@@@@@@o ",
" o@@@@@@o ",
" o@@@@@@o ",
" o@@@@@@o ",
" o@@@@@@o ",
" o@@@@@@o ",
" o@@@@@@o ",
" o@@@@@@o ",
" o@@@@@@o ",
" o@@@@@@o ",
" o@@@@@@o ",
" o@@@@@@o ",
" o@@@@@@o ",
" o@@@@@@o ",
" .OOOOOO. "
};
