/* XPM */
static char *result[] = {
/* columns rows colors chars-per-pixel */
"36 33 9 1 ",
"  c black",
". c #040107",
"X c #0B0211",
"o c #12031A",
"O c #180321",
"+ c #2B083A",
"@ c #340C44",
"# c #3B0F4E",
"$ c #49145F",
/* pixels */
"oOOOOOOOOOOOO.        XOOOOOOOOOOOOX",
"#$$$$$$$$$$$$O        +$$$$$$$$$$$$+",
"#$$$$$$$$$$$$O        +$$$$$$$$$$$$+",
"#$$$$$$$$$$$$O        +$$$$$$$$$$$$+",
"#$$$$$$$$$$$$O        +$$$$$$$$$$$$+",
"#$$$$$$$$$$$$O        +$$$$$$$$$$$$+",
"#$$$$$$$$$$$$O        +$$$$$$$$$$$$+",
"#$$$$$$$$$$$$O        +$$$$$$$$$$$$+",
"#$$$$$$$$$$$$O        +$$$$$$$$$$$$+",
"#$$$$$$$$$$$$O        +$$$$$$$$$$$$+",
"#$$$$$$$$$$$$O        +$$$$$$$$$$$$+",
"#$$$$$$$$$$$$O        +$$$$$$$$$$$$+",
"#$$$$$$$$$$$$O        +$$$$$$$$$$$$+",
"#$$$$$$$$$$$$@++++++++#$$$$$$$$$$$$+",
"#$$$$$$$$$$$$$$$$$$$$$$$$$$$$$$$$$$+",
"#$$$$$$$$$$$$$$$$$$$$$$$$$$$$$$$$$$+",
"#$$$$$$$$$$$$$$$$$$$$$$$$$$$$$$$$$$+",
"   #$$$$$$$$$$$$$$$$$$$$$$$$$$$$$$$+",
"   #$$$$$$$$$$$$$$$$$$$$$$$$$$$$$$$+",
"   #$$$$$$$$$$$$$$$$$$$$$$$$$$$$$$$+",
"                      +$$$$$$$$$$$$+",
"                      +$$$$$$$$$$$$+",
"                      +$$$$$$$$$$$$+",
"                      +$$$$$$$$$$$$+",
"                      +$$$$$$$$$$$$+",
"                      +$$$$$$$$$$$$+",
"                      +$$$$$$$$$$$$+",
"                      +$$$$$$$$$$$$+",
"                      +$$$$$$$$$$$$+",
"                      +$$$$$$$$$$$$+",
"                      +$$$$$$$$$$$$+",
"                      +$$$$$$$$$$$$+",
"                      +$$$$$$$$$$$$+"
};
