/* XPM */
static char *result[] = {
/* columns rows colors chars-per-pixel */
"16 33 6 1 ",
"  c black",
". c #040107",
"X c #12031A",
"o c #180321",
"O c #3B0F4E",
"+ c #49145F",
/* pixels */
" Xoooooooooooo. ",
" O++++++++++++o ",
" O++++++++++++o ",
" O++++++++++++o ",
" O++++++++++++o ",
" O++++++++++++o ",
" O++++++++++++o ",
" O++++++++++++o ",
" O++++++++++++o ",
" O++++++++++++o ",
" O++++++++++++o ",
" O++++++++++++o ",
" O++++++++++++o ",
" O++++++++++++o ",
" O++++++++++++o ",
" O++++++++++++o ",
" O++++++++++++o ",
" O++++++++++++o ",
" O++++++++++++o ",
" O++++++++++++o ",
" O++++++++++++o ",
" O++++++++++++o ",
" O++++++++++++o ",
" O++++++++++++o ",
" O++++++++++++o ",
" O++++++++++++o ",
" O++++++++++++o ",
" O++++++++++++o ",
" O++++++++++++o ",
" O++++++++++++o ",
" O++++++++++++o ",
" O++++++++++++o ",
" O++++++++++++o "
};
