/* XPM */
static char *result[] = {
/* columns rows colors chars-per-pixel */
"64 64 168 2 ",
"   c #060000",
".  c #0C0000",
"X  c #140000",
"o  c #1D0000",
"O  c #230200",
"+  c #2A0501",
"@  c #2E0803",
"#  c #2D0D08",
"$  c #340604",
"%  c #330A05",
"&  c #3A0A06",
"*  c #3D0608",
"=  c #370C09",
"-  c #3D0E08",
";  c #2F120B",
":  c #34120B",
">  c #3C170C",
",  c #3C180F",
"<  c #181425",
"1  c #171E33",
"2  c #172634",
"3  c #420B09",
"4  c #490B09",
"5  c #540C0D",
"6  c #590F0E",
"7  c #45130D",
"8  c #4C130D",
"9  c #441A0B",
"0  c #481D0C",
"q  c #53120D",
"w  c #58150F",
"e  c #431E12",
"r  c #4E1D12",
"t  c #531712",
"y  c #5C1411",
"u  c #561A15",
"i  c #5A1A15",
"p  c #5C1B18",
"a  c #6A0102",
"s  c #790A0B",
"d  c #621014",
"f  c #641B15",
"g  c #6A1E17",
"h  c #611F1B",
"j  c #6B1E1D",
"k  c #472015",
"l  c #4D2411",
"z  c #502017",
"x  c #532915",
"c  c #5E2F15",
"v  c #59301E",
"b  c #682017",
"n  c #66201E",
"m  c #69221E",
"M  c #712119",
"N  c #7B251E",
"B  c #643315",
"V  c #673618",
"C  c #693718",
"Z  c #5B3525",
"A  c #5F3927",
"S  c #6E2420",
"D  c #702521",
"F  c #7C2720",
"G  c #7C2A25",
"H  c #623A28",
"J  c #693F2A",
"K  c #6D412C",
"L  c #794322",
"P  c #76462A",
"I  c #7F4B2E",
"U  c #764831",
"Y  c #7B4C34",
"T  c #152742",
"R  c #123A5F",
"E  c #133B5F",
"W  c #841B1A",
"Q  c #81261E",
"!  c #82281F",
"~  c #802721",
"^  c #8A2522",
"/  c #842921",
"(  c #8B2C25",
")  c #862F2B",
"_  c #8D2E29",
"`  c #992727",
"'  c #85362F",
"]  c #8B332D",
"[  c #93322D",
"{  c #99342D",
"}  c #923430",
"|  c #9C3631",
" . c #9E3936",
".. c #A43634",
"X. c #A33A35",
"o. c #A93B37",
"O. c #A33C38",
"+. c #AC3E3B",
"@. c #865233",
"#. c #8B5A36",
"$. c #86563B",
"%. c #8B5A3E",
"&. c #A6443E",
"*. c #AE403D",
"=. c #B1413F",
"-. c #A76732",
";. c #A76831",
":. c #AD6B32",
">. c #B16C33",
",. c #BA7438",
"<. c #AD4944",
"1. c #B44341",
"2. c #BC4643",
"3. c #BF4846",
"4. c #BE504A",
"5. c #B6594E",
"6. c #9E6A48",
"7. c #AF7345",
"8. c #AC744B",
"9. c #B37544",
"0. c #BE7F4D",
"q. c #AA755E",
"w. c #B77D51",
"e. c #B87E52",
"r. c #BC7F6B",
"t. c #C14946",
"y. c #C46257",
"u. c #C16958",
"i. c #CA7D6A",
"p. c #CD823D",
"a. c #BA9174",
"s. c #CB8141",
"d. c #D58944",
"f. c #DC904C",
"g. c #C78652",
"h. c #C2875B",
"j. c #D18E56",
"k. c #DA945B",
"l. c #E8984D",
"z. c #E79953",
"x. c #EC9D55",
"c. c #EEA058",
"v. c #F2A053",
"b. c #F8A354",
"n. c #F1A35B",
"m. c #C8896F",
"M. c #CF8972",
"N. c #E39F65",
"B. c #E0927A",
"V. c #0B6FAE",
"C. c #0099DB",
"Z. c #2CE8F5",
"A. c #CAAA83",
"S. c #E8AD8D",
"D. c #EEB297",
"F. c #F1BA9D",
"G. c #E8CFA3",
"H. c #F3CCA3",
"J. c #E5DAAD",
"K. c #EFD8AC",
"L. c #F1D4A9",
"P. c #ECDEB7",
"I. c #F3D2B1",
"U. c #F2E3BA",
"Y. c #FAF3C6",
"T. c #FFFCCE",
"R. c #FFFFD8",
"E. c LightYellow",
/* pixels */
"< < < < < < < < < < < < < < < < < < < < < < < < < < < < < < < < < < < 2 2 < < < < < < < < < < < < < < < < < < < < < < < < < < < ",
"< < < < < < < < < < < < < < < < < < < < < < < < < < < < < < < < < < < < < < < < < < < < < E < < < < < < < < < < < < < < < < < < ",
"< < < < < < < < < < < < < < < < < < < E < < < < < < < < < < C.< < < < < < < < < < < < < < < < < < < < < < < < < < < < < < < < < ",
"< < < < R < < < < < < < < < < < < < < < < < < < < < < < < V.Z.V.< < < < < < < < < < < < < < < < < < < < < < < < < < C.< < < < < ",
"< < < < < < < < < < < < < < < < < < < < < < < < < < < < < < C.< < < < < < < V.< < < < < < < < < < < < V.< < < < < < < < < < < < ",
"< < < < < < < < < < < < < < < < < < < < < < < < < < < < < < < < < < < < < < < < < < < < < < < < < < < < < < < < < < < < < < < < ",
"< < < < < < < < < < < < < < < < < < < < < < < T < < < < < < < < < < < < < < < < < < < < < < < < < < < < < < < < < < < < C.< < < ",
"< < < < < < < < < < < < < < < < < < < < < < < < < < < < < < < < < < < < < < < < < < < < < < < < < < < < < < < < < < < < < < < < ",
"< < < < < < 1 < < < < < < < < < < < < < < < < < < < 1 < < < < < < < < < < < < < < < < < < < < < < < < < < < E < < < < < < < < < ",
"< < < < < < < < < < < < < < E < < < < < < < < < < < < < < < < < < < < < < < < < < @ % % @ @ % % % % @ + + < < < < < < < < < < < ",
"< < < < < < < < < < < < < < < < < < < < < < < < < < < < < < < < < < < < < < < < % t p u u u u p p y 7 % + < < < < < < < < < < < ",
"< < < < < < < < < < < < < < < < < < < < < < < < < < < < < < < < < < + + + + O O t } +.X. . .O.&. .] b - + < < < < < < < < < < < ",
"< < < < < < < < < < < < E < < < < V.< < < < < < < < < < < < < < R = h S m m n h ' 1.3.2.2.3.t.2.X./ w % + 1 1 < < < < < < < < < ",
"< < < < < < < < < < < < < < < < < < < < < < < < < V.< < < < < < @ h  .1.+.+.+.+.=.1.=.1.=.2.=.X.N 8 @ 1 T T T 1 < < < < < < < < ",
"< < < < < < < < < < < < < < < < < < < < < < < < < < < < < < 1 = S | 1.3.2.2.2.2.1.=.+.*.1.=.| N 8 @ < 1 T R R T 1 < < < < < < < ",
"< < < < < < < < < < < < < < < < < < < < < < < < < < < < < < o 7 ] =.2.1.1.=.+.=.=.=.=.=.*.X.N q + < < 1 T R V.R T 1 < < < < < < ",
"< < < < < < < < < < < < < < < < < < < < < < < < < < < < < < O - F X.=.1.1.1.=.*.*.=.1.*.| N 7 + < < < < 1 T R R T 1 < < < < < < ",
"< < < < < < < < < < < < < < < < < < < < < < < < < < < < < < O = g ( X.X.X.+.1.1.1.*.1.+.{ g % o < < < < < 1 T T T 1 < < < < < < ",
"< < < < < < < < < < < < < < < < < < < < < < < < < < < C.< < O = g / / / ) X.1.1.*.1.1.+.[ g % o < < < < < < 1 1 1 < < < < < < < ",
"< < < < < < < < < T < < < < < < < < < < < < < < < < < < < < O - M ( Q N N ( { | X.1.2.+.G 7 @ < < < < < < < < < < < < < < < < < ",
"< < < < < < < < < < < < < < < < < < < < < V.< < < < < < < < o % f N N N N / Q ~ [ +.2.X.p + < < < < < < < < < < < < < < < < < < ",
"< < < < < < < R < < < < < < < < < < < < < < < < < < < < o o o O 3 8 q g Q ^ N N ( { .._ 8 o < < < < < < < < < < < < < < < < V.< ",
"< < < < < < < < < < < < < < < < < < < < < < < < < < < : , > , : O X o 3 f g g f f g g y $ O < < < < < E < < < < < < < < < < < < ",
"< < < < < < < < < < < < < < < < < < < < < < < < < o e U $.$.$.J # . X O $ $ $ $ $ $ $ $ O O < < < < < < < < < < < < < < < < < < ",
"< < < < < < < < < < < < < < < < < < < < < < < 1 1 e @.g.k.j.j.9.L c V C C C C C C B B c x e < < < < < < < < < < < < < < < < < < ",
"< < < < < < < < < < < < < < < < < < O + O O o o : U g.c.b.v.v.l.d.p.p.p.p.p.p.p.p.p.p.s.8.Y , o < < < < < < < < < < < < < < < < ",
"< < < < < < < < < < < < < < < < < O 4 6 6 6 6 3 r K #.-.s.z.c.c.n.f.,.>.>.:.:.;.;.:.d.n.N.6.k o < < < < < < < < < < < < < E < < ",
"< < < < < < < < < < < < < @ % + O 7 ] <.<.<.&.] b 7 : > P 8.e.e.w.#.l : 9 9 7 9 > 0 I w.h.%.e o < < < < < < < < < < < < < < < < ",
"< < < < < < < < < < < @ 7 D G j d ' m.D.F.F.D.u.( 6 O X ; Z A H Z e X   X + 3 3 * 3 z H P v : < < < < < < < < < < < < < < < < < ",
"< < < < < < < < < < < @ t ] +.+.1.i.K.Y.U.P.G.i...Q y % + % = = % % @ + % f / Q ! Q t @ O + < < < < < < C.< < < < < E < < < < < ",
"< < 1 < < < < < < < < < = p _ 4.B.I.T.J.a.q.q.5.+.^ M f t q q q q w f y g ] X.o.+.X.f o X < < < < < < < < < < < < < < < < < < < ",
"< < < < < < < < < < < < < O d 5.H.E.R.A.G a W ..+.| / / ! / ! ! ( ! ! ! ( X.1.2.t.=.m + < < < < < < < < < < < < < < < < < < < < ",
"< < < < < < < < < < T < < o 6 5.H.E.R.A./ s ` o.*.+.{ / ! ! ( ! ! / ! ! ( O.1.2.t.=.m @ < < < < < < < < < < < < < < < < < < < < ",
"< < < < < < < < < < < < = p _ 4.B.I.T.J.a.r.M.y.1.o._ b q q q q q w y w b _ X.o.+...f o X < < < < < < < < < < < < < < < < < < < ",
"< < < < < < < < < < < @ t ] 1.+.1.i.K.Y.P.U.L.i...^ f % + % % % % % $ + = f Q / / N t @ O @ < < < < < < < < < < < < V.< < < < < ",
"< < < < < < < < < < < @ 7 S G j d ' m.D.F.F.S.u.( 6 O X : Z A A A e X   X + 3 3 3 3 r H K v : < < < < < < < < < < < < < < < < < ",
"< < < < E < < < < < < < < @ @ + O 7 ] <.<.<.<.] g 7 ; > P 8.e.e.w.#.x : > 9 9 7 > 0 Y e.h.%.e o < < < < < < E < < < < < < < < < ",
"< < < < < < < < < < < < < < < < < + 4 6 6 6 5 3 r K #.-.s.z.x.x.n.f.,.:.>.>.;.;.;.:.d.c.N.6.k o 1 < < < V.< < < < < < < < < < < ",
"< < < < < < < < < < < < < < < < < < + O + O o o , Y 0.x.b.v.v.l.d.p.p.p.p.p.p.p.p.p.p.p.7.Y , O T 1 < < V.< < < < < < < < < < < ",
"< < < < < < < < < < < < < < < < < < < < < < < < < e @.g.k.j.j.9.L c V C C C V C V C B c x e R V.R T 1 C.Z.C.< < < < < < < < < < ",
"< < < < < < < < < < < < < < < < < < < < < < < < < o e U %.$.%.J # . X O $ & $ % $ $ $ $ O O T R R T 1 < C.< < < < < < < < < < < ",
"< < < < < 1 < < < < < < < < < < < < < < < < < < < < < : , , , : O X o 3 f g f f f f g d & O 1 T T T 1 < V.< < < < < < < < < < < ",
"< < < < < < < < < < < < < < < < < < < < < < < < < < < < o o X O 7 8 8 g ! ! N N ( { .._ 8 o < 1 1 1 < < < < < < < < < < < < < < ",
"< < < < < < < < < < < < < < < < < < < < < < < E < < < < < < o % g N N N Q / Q ~ [ +.2.X.p + < < < < < < < < < < < C.< < < < < < ",
"< < < < < < < < < < C.< < < < < < < < < < < < < < < < < < < o - M ( Q N N ( | | X.1.2.+.F 7 @ < < < < < < < < < < < < < < E < < ",
"< < < < < < < < < V.Z.V.< < < < < < < < < < < < < < < < < < O & g / ( ~ ( X.1.1.*.1.1.+.[ f % O < < < < < < < < < < < < < < < < ",
"< < < < < < < < < < C.< < < < < < < < < < < < < < < < < < < O = g ( X.X.X.+.1.1.1.+.1.+.{ g % o E < < < < < < < < < < < < < < < ",
"< < < < < < < < < < < < < < < < < < < < 1 < < < < < < < < < o - N X.=.1.1.=.+.*.*.1.1.=.| F 8 @ < < < < < < < < < < < < < < < < ",
"< < < < < < < < < < < < < < < < < < < < < 1 < < < < < < < 1 o 7 ] 1.1.1.1.=.=.=.=.*.1.=.+.| F 8 @ < < < < < < < < < < < < < < < ",
"< < < < < < < < < < < < < < < < < < < < < < 1 < < < < < 1 < < = S | 1.3.2.2.1.1.1.1.*.=.2.=.| N 8 + < < < < < < < < < < < < < < ",
"< < < < < < < < < < < < < < < < < < < < < < < T 1 1 1 T < < < < # h  .1.*.*.+.+.+.1.1.=.=.=.=.X.F 8 + < < < < < < < < < < < < < ",
"< < < < < < < < < < < < < < < < < < < < < < < 1 T T T 1 < < < < < = h S n S h S ) 1.3.3.3.3.3.3.*./ y % + < < < < < < < < < < < ",
"< < < < < < < < < < < < < < < < < < < < < < < 1 T V.T 1 < < < < < < + + + + O O r } +.X. . .X.O. ._ b - + < < < < < < < < < < < ",
"< < < < < < < < < < < < < < 1 1 1 < < < < < < 1 T T T 1 < < < < < < < < < < < < % t p i u u u u p u 7 % + E < < < < < < < < < < ",
"< < < < < < < < E < < < < 1 T T T 1 < < < < < 1 1 1 1 T < < < < < R < < < < < < < @ % @ @ % % % @ % @ + + < < < < < < < < < < < ",
"< < < < < < < < < < < < 1 R T R T 1 < < < < 1 < < < < < 1 < < < < < < < < < < < < < < < < < < < < < < < < < < < < < < < < < < < ",
"< < < < < < < < < < < 1 T T T T T 1 < < < < < < < < < < < 1 < < < < < < < < < < < < < < < < < < < E < < < < < < < < < < < < < < ",
"< < < < < < < < < < < 1 T R T R 1 < < < < < < < < < < < < < < < < < < < < < < < < < < < < < < < < < < < < < < R < < < < < < < < ",
"< < < < < < < < < < < 1 R T T 1 < < < < < < < < < < < < < < < < < < < < < < < < < < < < < < < < < < < < < < < < < < < < < < < < ",
"< < < < < < < < < < < < 1 1 1 < < < < < < < < < < < < < < < < < < < < < < < < < < < < < < < < < < < < < < < < < < < < < < < < < ",
"< < < < < < < < < < < < < < < < < < < < < < < < < < < < < < < < < < < < < < < < < < < < < < < < < < < < < < < < < < < < < < < < ",
"< < < < < < < < < < < < < < < < < < < < < < < < < < < < < < < < < < < < < < < < < < < < < < < < < < < < < < < < < < < < < < < < ",
"< < < < < < < < < < < < < < < < < < < < < < < < < < < < < < < < < < < < < < < < < < < 1 < < < < < < < < < < < < < < < < < < < < ",
"< < < < < < < < < < < < < < < < < < < < < < < < < < < < < < < < < < < < < < < < < < < < < < < < < < < < < < < < < < < < < < < < "
};
