/* XPM */
static char *result[] = {
/* columns rows colors chars-per-pixel */
"15 15 21 1 ",
"  c #23162C",
". c #26192F",
"X c #261930",
"o c #261A30",
"O c #281C33",
"+ c #291D33",
"@ c #2B2036",
"# c #2C2037",
"$ c #2C2137",
"% c #2D2239",
"& c #2E2239",
"* c #30253C",
"= c #30263C",
"- c #32283E",
"; c #32283F",
": c #33283F",
"> c #332940",
", c #342940",
"< c #342A41",
"1 c #352B42",
"2 c None",
/* pixels */
"222222222222222",
"2222 22222 2222",
"222XoX222XoX222",
"22X*-*X X*-*X22",
" +&,1>&$&,1>%+ ",
" $11111111111# ",
" $11111111111# ",
" $11111111111# ",
" @;<1111111<;@ ",
"2.O:1111111;O.2",
"22.@=11111=@.22",
"222 @;<1<;@ 222",
"2222.O:1;O.2222",
"22222.@#@.22222",
"222222   222222"
};
