/* XPM */
static char *result[] = {
/* columns rows colors chars-per-pixel */
"47 47 6 1 ",
"  c #372C29",
". c #423A36",
"X c #504C47",
"o c #625C56",
"O c #7A746E",
"+ c None",
/* pixels */
"+++++++++++++++++++++++++++++++++++++++++++++++",
"+++++++++++++++++++++++++++++++++++++++++++++++",
"+++++++++++++++++++++++++++++++++++++++++++++++",
"+++++++++++++++++++++++++++++++++++++++++++++++",
"+++++++++++++++++++++++++++++++++++++++++++++++",
"+++++++++++++++++++++++++++++++++++++++++++++++",
"+++++++.OOOOOOOOOoOOOOOOOOOXOOOOOOOOOXOO ++++++",
"++++++..OOOOOOOOOoOOOOOOOOoXOOOOOOOOOXOO ++++++",
"++++++. OOOOOOooX.oOOOOoooX.oOOOOOooXXOO  +++++",
"+++++   ...XoooX..XXXooooo..XXXXXX...Xoo  +++++",
"+++++    ....   .XXXooo.....XXXXX.        +++++",
"+++++...  ...    XXXXoo.    XXXX.          ++++",
"++++....  ..  .. XXXXX.      XX.     ...    +++",
"++++XX..  .  ... .XXX.      ....     ...  . +++",
"+++XXX.. ..  ..  ..XX       .XX....XX... ..  ++",
"+++ooXX. ...     ....       XXX....XXXX  ... ++",
"++XooXX  ..XXX   ..        .XXXX...XXXX  ..oo++",
"++XooX. ..XXoooX    ..    .XXXXX..XXXX  ..XooX+",
"++oooX. ..XXoooooX....  ...XXXX..XXXXX  ..XooX+",
"+XoooX  .XXXoooooXX... ...XXXXX..XXXXX  .XXooo+",
"+Xooo. ..ooXooooo....  ...XXXX..oooXX. ..XXooo+",
"+oooo. .XooXooooX..    ..XoooX..ooooX  .XXXooo+",
"+oooo  .oooXoooo...     .oooo..oooooX ..XXXXoo+",
"+oooX ..oooXXoo...   .  Xoooo..ooooX. ..X.XXoo+",
"++ooX ....XXXXX..   ..  oooooXXoooo. .....XXX++",
"++++  ..ooo....    ..  XooooXXXXXoo. ...oooXX++",
"++++....ooooo.     .. .XooooXoooXXX.....ooooo++",
"++++....Xoooo.... .. ..XooooXooooX......Xoooo++",
"+++++..XXoooX............XXXXoooo......XXoooo++",
"+++++..oooXX. ........XXooooXooooXX ...ooooo+++",
"++++++ Xooo.  .XXX..XoooooooXoooXXX   .Xoooo+++",
"++++++XXXXX  .oooX .XoooooooooooXXX   XXXXX++++",
"++++++XXXX. .XoooX .oooooooXoooXXX.  .XXXXX++++",
"++++++..XX...oooo  XoooooooXoooXXX   ...XX+++++",
"++++++X......oooo .oooooooo.XXX.XX XXXX...+++++",
"++++++XXXX..ooooX .oooooooX.XXXX   XXXXXXX+++++",
"+++++++XXX Xoooo  Xooooooo..XXXX  .oooXXXX+++++",
"+++++++o.  XoooX. XXXXoooo..XX.......Xoo.++++++",
"+++++++++ .XXoo.....ooooo..   ....  ....+++++++",
"++++++++++.XXoX..+XoooooX     .XX.  ...++++++++",
"+++++++++++XXX.+++Xooooo  .. .XXX   ..+++++++++",
"+++++++++++++++++++ooooX ... XXX.  ++++++++++++",
"++++++++++++++++++++++++ ...+XXX ++++++++++++++",
"+++++++++++++++++++++++++++++++++++++++++++++++",
"+++++++++++++++++++++++++++++++++++++++++++++++",
"+++++++++++++++++++++++++++++++++++++++++++++++",
"+++++++++++++++++++++++++++++++++++++++++++++++"
};
