/* XPM */
static char *result[] = {
/* columns rows colors chars-per-pixel */
"64 64 189 2 ",
"   c #000008",
".  c #03031C",
"X  c #0C0E1C",
"o  c #0B0819",
"O  c #0E141A",
"+  c #1A161F",
"@  c #17111D",
"#  c #140D19",
"$  c #000021",
"%  c #0A0925",
"&  c #00002C",
"*  c #090724",
"=  c #100F21",
"-  c #151323",
";  c #1A1624",
":  c #1E1A24",
">  c #171429",
",  c #1A162B",
"<  c #1D192C",
"1  c #1B053C",
"2  c #211C26",
"3  c #241E2A",
"4  c #2B1F26",
"5  c #200039",
"6  c #1F202F",
"7  c #272121",
"8  c #2F2425",
"9  c #26202D",
"0  c #2A232E",
"q  c #302325",
"w  c #392E26",
"e  c #32262B",
"r  c #35292C",
"t  c #3A2D2E",
"y  c #312825",
"u  c #3E312E",
"i  c #3C3125",
"p  c #272433",
"a  c #2C2430",
"s  c #2E2830",
"d  c #302731",
"f  c #342B32",
"g  c #3A2E32",
"h  c #332D3B",
"j  c #363033",
"k  c #3D3133",
"l  c #38313C",
"z  c #443729",
"x  c #463B29",
"c  c #46392A",
"v  c #433534",
"b  c #4A3734",
"n  c #473835",
"m  c #4B3A35",
"M  c #433738",
"N  c #44393C",
"B  c #4C3E3B",
"V  c #513E36",
"C  c #5C3B34",
"Z  c #582734",
"A  c #643E35",
"S  c #683F35",
"D  c #534137",
"F  c #5B4536",
"G  c #52423C",
"H  c #5B4538",
"J  c #5C4939",
"K  c #674035",
"L  c #6B4236",
"P  c #634639",
"I  c #634C3A",
"U  c #6B4B3A",
"Y  c #68473B",
"T  c #704336",
"R  c #734E3B",
"E  c #7F4430",
"W  c #6B523B",
"Q  c #76513D",
"!  c #75593D",
"~  c #7B5D3D",
"^  c #7F603E",
"/  c #1E0542",
"(  c #3D3844",
")  c #290067",
"_  c #69284F",
"`  c #76305C",
"'  c #7F3666",
"]  c #454047",
"[  c #544542",
"{  c #5D4E49",
"}  c #51464A",
"|  c #5E514E",
" . c #534A50",
".. c #64554F",
"X. c #645652",
"o. c #6C5C55",
"O. c #6D5F5C",
"+. c #775847",
"@. c #73645C",
"#. c #78675C",
"$. c #7B6A5F",
"%. c #544C76",
"&. c #6D5F74",
"*. c #7D6C61",
"=. c #8F701A",
"-. c #90711B",
";. c #8C5C28",
":. c #865E3C",
">. c #945938",
",. c #844438",
"<. c #8F7029",
"1. c #8F7326",
"2. c #82623F",
"3. c #8E6A3F",
"4. c #906C3F",
"5. c #99703D",
"6. c #94742B",
"7. c #905D42",
"8. c #B4584D",
"9. c #866540",
"0. c #886640",
"q. c #8D6941",
"w. c #866949",
"e. c #916D42",
"r. c #8C7143",
"t. c #957142",
"y. c #9B7544",
"u. c #A77E45",
"i. c #AA7E46",
"p. c #806F63",
"a. c #837165",
"s. c #CC6357",
"d. c #9F8425",
"f. c #A08525",
"g. c #BD932A",
"h. c #BD9122",
"j. c #BE9F39",
"k. c #C1A22A",
"l. c #CCA22E",
"z. c #AD8247",
"x. c #AB8348",
"c. c #B28447",
"v. c #B48648",
"b. c #B58B49",
"n. c #BC8C49",
"m. c #B88A46",
"M. c #BE904B",
"N. c #C08E4A",
"B. c #C3914A",
"V. c #CC994C",
"C. c #C8974C",
"Z. c #C29B5D",
"A. c #D39B4D",
"S. c #E68450",
"D. c #E5844E",
"F. c #CCA44F",
"G. c #DDA34F",
"H. c #D4A04E",
"J. c #DDA750",
"K. c #DDAC51",
"L. c #E0A64F",
"P. c #FFBC40",
"I. c #FFBE4C",
"U. c #E0A650",
"Y. c #E2A950",
"T. c #E9AE51",
"R. c #F0AF52",
"E. c #E6B353",
"W. c #EDB955",
"Q. c #EBB252",
"!. c #F3B352",
"~. c #FAB753",
"^. c #F5BD55",
"/. c #FCBA54",
"(. c #C49C60",
"). c #FFC356",
"_. c #FFCC59",
"`. c #FCC557",
"'. c #FFD25A",
"]. c #8E5FB4",
"[. c #98A08D",
"{. c #9FA09A",
"}. c #8D96AD",
"|. c #9797A6",
" X c #C1BFB8",
".X c #A096D0",
"XX c #FFE0CB",
"oX c #FFE1D3",
"OX c None",
/* pixels */
"OXOXOXOXOXOXOXOXOXOXOXOXOXOXOXOXOXOXOXOXOXOXOXOXOXOXOXOXOXOXOXOXOXOXOXOXOXOXOXOXOXOXOXOXOXOXOXOXOXOXOXOXOXOXOXOXOXOXOXOXOXOXOXOX",
"OXOXOXOXOXOXOXOXOXOXOXOXOXOXOXOXOXOXOXOXOXOXOXOXOXOXOX/.~./././././.~././.OXOXOXOXOXOXOXOXOXOXOXOXOXOXOXOXOXOXOXOXOXOXOXOXOXOXOX",
"OXOXOXOXOXOXOXOXOXOXOXOXOXOXOXOXOXOXOXOXOXOXOX/.~./././././././././.~./.~././././.OXOXOXOXOXOXOXOXOXOXOXOXOXOXOXOXOXOXOXOXOXOXOX",
"OXOXOXOXOXOXOXOXOXOXOXOXOXOXOXOXOXOXOXOXOX/./././././././././././././././././././././.OXOXOXOXOXOXOXOXOXOXOXOXOXOXOXOXOXOXOXOXOX",
"OXOXOXOXOXOXOXOXOXOXOXOXOXOXOXOXOXOXOX/././././././././.`._._._._.`._._.).~./././././.~./.OXOXOXOXOXOXOXOXOXOXOXOXOXOXOXOXOXOXOX",
"OXOXOXOXOXOXOXOXOXOXOXOXOXOXOXOXOX/././././././.)._._.'.C.v.n.n.M.M.m.c.G.'._._.)././././././.OXOXOXOXOXOXOXOXOXOXOXOXOXOXOXOXOX",
"OXOXOXOXOXOXOXOXOXOXOXOXOXOXOXOX/././././././._.x.+.5.3.r 3 9 9 9 9 0 , n r.3.~ V._.)./././././.OXOXOXOXOXOXOXOXOXOXOXOXOXOXOXOX",
"OXOXOXOXOXOXOXOXOXOXOXOXOXOX/././././._./.W.B.c k h h  .*.a.*.$.$.$.p.a.X.h l p r W U.Q./._././././.OXOXOXOXOXOXOXOXOXOXOXOXOXOX",
"OXOXOXOXOXOXOXOXOXOXOXOXOX/././.~./.).F.! 2 v } @.p.p.{ n B G B D G G M { p.*.#.| e e f e.K.)././././.OXOXOXOXOXOXOXOXOXOXOXOXOX",
"OXOXOXOXOXOXOXOXOXOXOXOX/././.~.)._.t.3 3 X.@.$.n t t g v v n v v n v v k t r B $.#.| e a a M.'./.~././.OXOXOXOXOXOXOXOXOXOXOXOX",
"OXOXOXOXOXOXOXOXOXOXOX/./././._.m.H d [ p.o.[ q v n v n n n v n n v n v v n v v q [ o.a.{ e f W G._./././.OXOXOXOXOXOXOXOXOXOXOX",
"OXOXOXOXOXOXOXOXOXOX/./././.'.M.3 h p.o.[ v e g v v v n n v v b b v v n n v v v k e k G o.w.n < n J.OX~././.OXOXOXOXOXOXOXOXOXOX",
"OXOXOXOXOXOXOXOXOX/././.~._.n.; N *.M g g v v v k n n b N b m b n n n b b n n k v v v g g n Q m < n Y._.~././.OXOXOXOXOXOXOXOXOX",
"OXOXOXOXOXOXOXOX/./.~./._.m.a O.*.g g v g g v V n n B V V B V m m B V V V B n n m v g g n g g Y U a g K.OX~././.OXOXOXOXOXOXOXOX",
"OXOXOXOXOXOXOX~./././.'.n.a X.X.n e v g v v n m D D v g f d a a e a d f g n V D n n n v v v f M H K a n J._.~././.OXOXOXOXOXOXOX",
"OXOXOXOXOXOXOX/./.~.'.M.; O...e g M k v M b D m g a a 3 9 9 3 9 3 9 3 p 3 0 a g m D b n v g v g f C K < v Y._.~./.OXOXOXOXOXOXOX",
"OXOXOXOXOXOX/./.~._.N.2 N O.M g v v g m V V v 0 0 3 0 a 3 9 a 3 0 3 3 a 9 9 3 3 a g V D m g v n k n C b p g J._.~./.OXOXOXOXOXOX",
"OXOXOXOXOX/./.~._.C.3 N *.M e v v g m H M a 9 9 0 9 3 3 a 3 3 0 3 0 3 3 3 3 0 0 9 9 a v J n g v k f v S V 9 g T.).~./.OXOXOXOXOX",
"OXOXOXOXOX/././.'.~ < a.N t v g g m J g 9 p 9 9 9 9 9 9 3 3 3 3 3 3 3 0 3 a 0 3 3 9 3 9 g J m g g v g n T v < c.'././.OXOXOXOXOX",
"OXOXOXOX/././.`.t.0 { o.g v v v b J v 9 9 9 9 9 9 9 9 9 3 3 0 3 3 9 3 3 3 3 3 3 9 9 3 0 3 g J n n g n g C V k f v.)././.OXOXOXOX",
"OXOXOXOX/.~./.!.f e p.B g g v n C M 9 0 9 9 9 9 2 9 9 2 9 2 2 3 3 3 3 2 3 3 3 3 3 3 3 a 9 3 v D n v g k b T f 0 F `././.OXOXOXOX",
"OXOXOX/././.).~ 2 X.o.v v g n n B a 9 9 9 9 9 3 9 3 2 9 3 3 3 3 3 3 2 3 3 2 4 3 3 3 3 3 9 3 0 B b v k k v C C h f u.`././.OXOXOX",
"OXOXOX/./.~.'.I a #.[ r v v n D v 3 9 9 3 9 3 3 3 3 9 3 2 2 2 2 3 3 3 2 3 3 3 3 3 3 3 3 9 9 3 k V b n v f m K n < t.'././.OXOXOX",
"OXOX/././.).C.r { $.q g v n m m 9 9 0 9 9 3 3 3 9 2 2 2 2 3 2 2 2 2 2 2 2 2 2 2 3 3 3 3 3 9 3 9 b n n v k j L C p H K.)././.OXOX",
"OXOX/././._.~ p #.B v v k n D g 9 9 9 9 3 3 3 3 2 3 2 2 2 2 2 2 2 2 2 2 2 2 2 2 3 3 2 2 9 9 9 3 t D b u v v b S m < i._././.OXOX",
"OXOX/./._.B.0 [ *.r v v n b V 0 9 9 9 9 3 3 3 4 3 2 2 2 2 2 2 2 2 2 : 2 2 2 2 2 2 2 3 9 2 9 9 2 9 V v n v v k Q m k b U.).~.OXOX",
"OXOX/./._.b.3 B a.t v v n V v 0 9 9 3 9 3 3 3 3 2 2 3 2 2 : 2 2 : : 2 2 : 2 2 2 2 3 3 2 2 9 9 9 9 v m n v v g R n v f J.)./.OXOX",
"OX/./.~._.B.3 o.{ v v v n B g 9 9 9 3 3 3 2 3 2 2 2 2 2 2 ; : 7 7 + ; : : 2 2 2 2 2 2 3 9 2 2 9 9 r D n v v v F Y k k T.)././.OX",
"OX/.~./.`.z.0 p.n v n v n V f 9 9 3 3 3 3 3 3 2 2 2 : 2 - O ,.8.8.E O @ 2 : : 2 2 2 2 2 2 3 3 9 3 e D v v n v v R k g V.).~./.OX",
"OX/.~.).U.g k ~ m v n v n V 0 3 9 9 3 3 3 2 2 2 2 2 2 ; O >._ 5 1 ` >.O @ : : 2 2 2 2 2 3 2 3 3 3 0 m n v v n B +.v f H /././.OX",
"OX/./.).L.k k ~ D n v v m m 0 9 9 3 , 3 , , 2 2 ; ; - X 7.`   o 5 ) ' :.o O ; ; 2 ; ; ; : ; : 9 3 0 m m v v n G *.v g H /././.OX",
"OX/./.).G.k v ~ V v n n n m 0 9 3 t z z z z w ; i 7 U F.s.$   ) ) $ & s.F.U 7 i ; w z z z ] ( : 3 0 x n v n v B $.v f D /././.OX",
"OX/./.).G.u v ~ V v n n n m a 3 > 6.k.g.g.k.<.% 1.l.I.P.D.%.&.].].&.%.D.P.I.l.1.* <.k.g.h. X|.# 3 0 b b n n v G *.v f V /././.OX",
"OX/./.).G.v k ~ B n v k V m 0 3 9 < , > > > ; 9 % y f.=.j.XX.X{.[.}.oXj.=.d.8 * 2 - - - > - + 3 2 0 m m z v n B #.v g H /././.OX",
"OX/./.).Y.k k +.V v n v b V 0 3 3 9 3 3 2 3 2 2 2 : $ $ . ;._ & $ Z ;.. . . - 2 2 2 2 2 2 3 3 3 2 0 V v v n v B *.k f F /././.OX",
"OX/./.).G.g k :.n v n n n V f 3 9 3 9 3 3 2 2 2 2 2 2 2 = O 5.Z.(.y.X = : 2 + 2 2 2 2 2 2 2 3 3 9 r m b v v v n p.v f F /././.OX",
"OX/./.).G.a g W F v v n n V g 3 9 9 3 3 3 2 2 2 2 2 : : 2 @ + 7 7 + @ 2 ; : : 2 2 2 2 2 2 3 3 3 3 r V n b v v { o.g f n /././.OX",
"OXOX/./.^.9.f b R k v v n B v 0 9 3 9 3 3 2 9 2 2 2 2 2 2 : : + : + 2 + 2 2 2 : 2 3 2 3 3 3 3 3 9 v m v v v g p.B v f i.)./.OXOX",
"OXOX/./._.V.3 V Q k v n n n D 0 3 9 3 9 3 3 3 2 2 2 2 2 2 : 2 : : : : : : 2 : 2 2 2 2 2 3 3 3 3 9 m n n v n r p.[ t g !.)./.OXOX",
"OXOX/./._.m.p m U n k v k b D g 3 9 9 3 3 3 3 2 3 2 2 2 2 : 2 2 2 2 2 : 2 2 2 2 2 2 3 3 3 3 3 3 t D c k v z B @.m v g L.)./.OXOX",
"OXOX/./._.m.< j P R f g v m n m 0 3 9 3 3 3 3 2 2 2 2 2 2 2 2 2 : 2 : 2 2 2 2 2 2 2 2 9 3 3 3 0 n n b g k q #...r v a J.)./.OXOX",
"OXOXOX/./.W.I a v R m f v n n V v 3 9 3 3 a 3 3 3 3 3 2 2 3 3 2 2 2 2 2 3 2 2 9 2 9 4 3 3 3 9 g D b v v e [ #.v v 9 q.`.~.OXOXOX",
"OXOXOX/.~.'.v.f a H Y v v g n n V 0 3 9 3 3 3 3 3 2 2 3 3 2 2 2 2 2 2 2 2 2 3 2 3 2 3 9 3 3 9 V n v g v z o.X.0 k g H._./.OXOXOX",
"OXOXOXOX/./.).I a r +.V g g v n V n 3 9 0 0 3 3 3 3 3 3 2 3 3 2 3 3 2 3 3 2 3 2 2 3 9 3 3 3 c D v v g g [ p.e v 6 e._./.OXOXOXOX",
"OXOXOXOX/./.).J a v V C k M k v n P g 9 3 9 9 3 3 3 9 3 3 3 3 3 3 3 9 2 9 2 2 9 9 9 3 9 < k F n c v v g o.{ v v 3 0._./.OXOXOXOX",
"OXOXOXOXOX/./.A.g g g T b g v k k m H k 3 9 9 9 9 3 3 9 3 9 3 3 3 3 2 9 3 9 9 3 9 9 3 3 u F n g g v t B a.g g d B W./.OXOXOXOXOX",
"OXOXOXOXOX/./.).U 6 k b A v f v v k m H M a 9 9 9 9 0 3 3 9 3 3 9 2 9 2 9 2 9 9 3 3 9 v J n k k v d v *.G f k 9 q._.~.OXOXOXOXOX",
"OXOXOXOXOXOX/.).^.I d g b C v g M v g m V V g 9 3 9 3 3 0 3 3 3 9 9 9 9 9 9 9 3 9 k D D n g v n g M O.B t k d e.)./.OXOXOXOXOXOX",
"OXOXOXOXOXOXOX~.'.b.> g h A C j g v k n n b D m g a a 3 3 3 3 3 3 3 3 3 3 3 0 g b V n n v g v g e X.@.4 v g 9 J._.OXOXOXOXOXOXOX",
"OXOXOXOXOXOXOX/./.`.9.6 k k C C v f v k v v n m D V v g f e a a p 0 a f g c B D n n v M v v f v I o.M v f 6 x.`./.OXOXOXOXOXOXOX",
"OXOXOXOXOXOXOXOX~./.).:.6 v v A C k k k g g M m n n B V V V m n m m V V V B v n B v g g v g v W ! g v g 3 i._./.OXOXOXOXOXOXOXOX",
"OXOXOXOXOXOXOXOXOX/.)._.9.9 k f b K n k g k v v k b n n n n m b b B n b m n n v v v v g g b ~ m a v g 9 c.'./.OXOXOXOXOXOXOXOXOX",
"OXOXOXOXOXOXOXOXOXOX~.)._.+.3 k k n T C m v j k n n v n n v v n n v v n v v n v g f v V U 9.B f v f 6 x._./.OXOXOXOXOXOXOXOXOXOX",
"OXOXOXOXOXOXOXOXOXOXOX/./._.2.9 k k k C T C m j k v v v n n v n b n v n v v v k d D W :.J g g v g 6 x._./.OXOXOXOXOXOXOXOXOXOXOX",
"OXOXOXOXOXOXOXOXOXOXOXOX/./._.9.0 g k k g C K L b k k v v v n v v n v v v k f m ~ ! J f k k k g a c._.~.OXOXOXOXOXOXOXOXOXOXOXOX",
"OXOXOXOXOXOXOXOXOXOXOXOXOX~.)._.2.g f k k h k C A T Q D n n V B m V m v H 2.^ ! I v 0 v M k g g i._.~.OXOXOXOXOXOXOXOXOXOXOXOXOX",
"OXOXOXOXOXOXOXOXOXOXOXOXOXOX~.).).T.W , f n v j b m n Y Q R R W R R R R Y B V m f v v v p , 0.W.)./.OXOXOXOXOXOXOXOXOXOXOXOXOXOX",
"OXOXOXOXOXOXOXOXOXOXOXOXOXOXOXOX/.).!.r.V < a v v k v k v v k n v k v v g v k v v g d < I y.).).OXOXOXOXOXOXOXOXOXOXOXOXOXOXOXOX",
"OXOXOXOXOXOXOXOXOXOXOXOXOXOXOXOXOX~.).'.J.b.t.a r f f f k v n k k n v v k f f e f v x.b.!.'./.OXOXOXOXOXOXOXOXOXOXOXOXOXOXOXOXOX",
"OXOXOXOXOXOXOXOXOXOXOXOXOXOXOXOXOXOXOX/.)._.).K.~ n H H a 9 a 9 p 0 0 6 g J D n t.W._.'./.OXOXOXOXOXOXOXOXOXOXOXOXOXOXOXOXOXOXOX",
"OXOXOXOXOXOXOXOXOXOXOXOXOXOXOXOXOXOXOXOXOX/./.`././././.e.! ~ +.~ ~ ~ W u.)./././.)./.OXOXOXOXOXOXOXOXOXOXOXOXOXOXOXOXOXOXOXOXOX",
"OXOXOXOXOXOXOXOXOXOXOXOXOXOXOXOXOXOXOXOXOXOXOX/././././.)._._.)._._._._.)././././.OXOXOXOXOXOXOXOXOXOXOXOXOXOXOXOXOXOXOXOXOXOXOX",
"OXOXOXOXOXOXOXOXOXOXOXOXOXOXOXOXOXOXOXOXOXOXOXOXOXOXOX/././././.~././././.OXOXOXOXOXOXOXOXOXOXOXOXOXOXOXOXOXOXOXOXOXOXOXOXOXOXOX",
"OXOXOXOXOXOXOXOXOXOXOXOXOXOXOXOXOXOXOXOXOXOXOXOXOXOXOXOXOXOXOXOXOXOXOXOXOXOXOXOXOXOXOXOXOXOXOXOXOXOXOXOXOXOXOXOXOXOXOXOXOXOXOXOX"
};
