/* XPM */
static char *result[] = {
/* columns rows colors chars-per-pixel */
"32 32 5 1 ",
"  c black",
". c #040107",
"X c #180321",
"o c #270734",
"O c #49145F",
/* pixels */
"                                ",
" XOOOOOOOOOOOOOOOOOOOOOOOOOOO   ",
" XOOOOOOOOOOOOOOOOOOOOOOOOOOO   ",
" XOOOOOOOOOOOOOOOOOOOOOOOOOOO   ",
"OOOOOOOOOOOOOOOOOOOOOOOOOOOOOOOO",
"OOOOOOOOOOOOOOOOOOOOOOOOOOOOOOOO",
"OOOOOOOOOOOOOOOOOOOOOOOOOOOOOOOO",
"OOOOOOOOOOOXXXXXXXXoOOOOOOOOOOOO",
"OOOOOOOOOOO        XOOOOOOOOOOOO",
"OOOOOOOOOOO        XOOOOOOOOOOOO",
"OOOOOOOOOOO        XOOOOOOOOOOOO",
"OOOOOOOOOOO        XOOOOOOOOOOOO",
"OOOOOOOOOOO        XOOOOOOOOOOOO",
"OOOOOOOOOOO        XOOOOOOOOOOOO",
"OOOOOOOOOOO        XOOOOOOOOOOOO",
"OOOOOOOOOOO        XOOOOOOOOOOOO",
"OOOOOOOOOOO        XOOOOOOOOOOOO",
"OOOOOOOOOOO        XOOOOOOOOOOOO",
"OOOOOOOOOOO        XOOOOOOOOOOOO",
"OOOOOOOOOOO        XOOOOOOOOOOOO",
"OOOOOOOOOOO        XOOOOOOOOOOOO",
"OOOOOOOOOOO        XOOOOOOOOOOOO",
"OOOOOOOOOOO        XOOOOOOOOOOOO",
"OOOOOOOOOOO        XOOOOOOOOOOOO",
"OOOOOOOOOOO        XOOOOOOOOOOOO",
"OOOOOOOOOOOOOOOOOOOOOOOOOOOOOOOO",
"OOOOOOOOOOOOOOOOOOOOOOOOOOOOOOOO",
"OOOOOOOOOOOOOOOOOOOOOOOOOOOOOOOO",
"XoOOOOOOOOOOOOOOOOOOOOOOOOOOOXXX",
" XOOOOOOOOOOOOOOOOOOOOOOOOOOO   ",
" XOOOOOOOOOOOOOOOOOOOOOOOOOOO   ",
" .XXXXXXXXXXXXXXXXXXXXXXXXXXX   "
};
