/* XPM */
static char *result[] = {
/* columns rows colors chars-per-pixel */
"32 32 5 1 ",
"  c black",
". c #040107",
"X c #180321",
"o c #270734",
"O c #49145F",
/* pixels */
"XXXXXXXXXXXXXXXXXXXXXXXXXXXXXX. ",
"OOOOOOOOOOOOOOOOOOOOOOOOOOOOOOX ",
"OOOOOOOOOOOOOOOOOOOOOOOOOOOOOOX ",
"OOOOOOOOOOOOOOOOOOOOOOOOOOOOOOoX",
"OOOOOOOOOOOOOOOOOOOOOOOOOOOOOOOO",
"OOOOOOOOOOOOOOOOOOOOOOOOOOOOOOOO",
"OOOOOOOOOOOOOOOOOOOOOOOOOOOOOOOO",
"                     OOOOOOOOOOO",
"                     OOOOOOOOOOO",
"                     OOOOOOOOOOO",
"                     OOOOOOOOOOO",
"                     OOOOOOOOOOO",
"            XXXXXXXXXOOOOOOOOOOO",
"            OOOOOOOOOOOOOOOOOOX ",
"            OOOOOOOOOOOOOOOOOOX ",
"            OOOOOOOOOOOOOOOOOOX ",
"            OOOOOOOOOOOOOOOOOOX ",
"            OOOOOOOOOOOOOOOOOOX ",
"            OOOOOOOOOOOOOOOOOOoX",
"                     OOOOOOOOOOO",
"                     OOOOOOOOOOO",
"                     OOOOOOOOOOO",
"                     OOOOOOOOOOO",
"                     OOOOOOOOOOO",
"XXXXXXXXXXXXXXXXXXXXXOOOOOOOOOOO",
"OOOOOOOOOOOOOOOOOOOOOOOOOOOOOOOO",
"OOOOOOOOOOOOOOOOOOOOOOOOOOOOOOOO",
"OOOOOOOOOOOOOOOOOOOOOOOOOOOOOOOO",
"OOOOOOOOOOOOOOOOOOOOOOOOOOOOOOX ",
"OOOOOOOOOOOOOOOOOOOOOOOOOOOOOOX ",
"OOOOOOOOOOOOOOOOOOOOOOOOOOOOOOX ",
"                                "
};
