/* XPM */
static char *result[] = {
/* columns rows colors chars-per-pixel */
"64 58 11 1 ",
"  c black",
". c #0B0211",
"X c #12031A",
"o c #180321",
"O c #22062E",
"+ c #2B083A",
"@ c #340C44",
"# c #3B0F4E",
"$ c #421157",
"% c #46135B",
"& c #49145F",
/* pixels */
"+&&&&&&&&&&&&&&&&&&&&&&&&&&&&&&&&&&&&&&&&&&&&&&&&&&&&&&&&&&&&&&+",
"+&&&&&&&&&&&&&&&&&&&&&&&&&&&&&&&&&&&&&&&&&&&&&&&&&&&&&&&&&&&&&&+",
"+&&&&&&&&&&&&&&&&&&&&&&&&&&&&&&&&&&&&&&&&&&&&&&&&&&&&&&&&&&&&&&+",
"+&&&&&&&&&&&&&&&&&&&&&&&&&&&&&&&&&&&&&&&&&&&&&&&&&&&&&&&&&&&&&&+",
"+&&&&&&&&&&&&&&&&&&&&&&&&&&&&&&&&&&&&&&&&&&&&&&&&&&&&&&&&&&&&&&+",
"+&&&&&&&&&&&&&&&&&&&&&&&&&&&&&&&&&&&&&&&&&&&&&&&&&&&&&&&&&&&&&&+",
"+&&&&&&&&&&&&&&&&&&&&&&&&&&&&&&&&&&&&&&&&&&&&&&&&&&&&&&&&&&&&&&+",
"+&&&&&&&&&&&&&&&&&&&&&&&&&&&&&&&&&&&&&&&&&&&&&&&&&&&&&&&&&&&&&&+",
"+&&&&&&&&&&&&&&&&&&&&&&&&&&&&&&&&&&&&&&&&&&&&&&&&&&&&&&&&&&&&&&+",
"+&&&&&&&&&&&&&&&&&&&&&&&&&&&&&&&&&&&&&&&&&&&&&&&&&&&&&&&&&&&&&&+",
"+&&&&&&&&&&&&&&&&&&&&&&&&&&&&&&&&&&&&&&&&&&&&&&&&&&&&&&&&&&&&&&+",
"+&&&&&&&&&&&&&&&&&&&&&&#+++++++++++++++++++++++++++++++++++++++o",
"+&&&&&&&&&&&&&&&&&&&&&&+                                        ",
"+&&&&&&&&&&&&&&&&&&&&&&+                                        ",
"+&&&&&&&&&&&&&&&&&&&&&&+                                        ",
"+&&&&&&&&&&&&&&&&&&&&&&+                                        ",
"+&&&&&&&&&&&&&&&&&&&&&&+                                        ",
"+&&&&&&&&&&&&&&&&&&&&&&+                                        ",
"+&&&&&&&&&&&&&&&&&&&&&&+                                        ",
"+&&&&&&&&&&&&&&&&&&&&&&+                                        ",
"+&&&&&&&&&&&&&&&&&&&&&&+                                        ",
"+&&&&&&&&&&&&&&&&&&&&&&+                                        ",
"+&&&&&&&&&&&&&&&&&&&&&&@oooooooooooooooooooooooooooooooooX      ",
"+&&&&&&&&&&&&&&&&&&&&&&&&&&&&&&&&&&&&&&&&&&&&&&&&&&&&&&&&#      ",
"+&&&&&&&&&&&&&&&&&&&&&&&&&&&&&&&&&&&&&&&&&&&&&&&&&&&&&&&&#      ",
"+&&&&&&&&&&&&&&&&&&&&&&&&&&&&&&&&&&&&&&&&&&&&&&&&&&&&&&&&#      ",
"+&&&&&&&&&&&&&&&&&&&&&&&&&&&&&&&&&&&&&&&&&&&&&&&&&&&&&&&&#      ",
"+&&&&&&&&&&&&&&&&&&&&&&&&&&&&&&&&&&&&&&&&&&&&&&&&&&&&&&&&#      ",
"O#####%&&&&&&&&&&&&&&&&&&&&&&&&&&&&&&&&&&&&&&&&&&&&&&&&&&$+++++o",
"      #&&&&&&&&&&&&&&&&&&&&&&&&&&&&&&&&&&&&&&&&&&&&&&&&&&&&&&&&+",
"      #&&&&&&&&&&&&&&&&&&&&&&&&&&&&&&&&&&&&&&&&&&&&&&&&&&&&&&&&+",
"      #&&&&&&&&&&&&&&&&&&&&&&&&&&&&&&&&&&&&&&&&&&&&&&&&&&&&&&&&+",
"      #&&&&&&&&&&&&&&&&&&&&&&&&&&&&&&&&&&&&&&&&&&&&&&&&&&&&&&&&+",
"      #&&&&&&&&&&&&&&&&&&&&&&&&&&&&&&&&&&&&&&&&&&&&&&&&&&&&&&&&+",
"      Xooooooooooooooooooooooooooooooooo@&&&&&&&&&&&&&&&&&&&&&&+",
"                                        +&&&&&&&&&&&&&&&&&&&&&&+",
"                                        +&&&&&&&&&&&&&&&&&&&&&&+",
"                                        +&&&&&&&&&&&&&&&&&&&&&&+",
"                                        +&&&&&&&&&&&&&&&&&&&&&&+",
"                                        +&&&&&&&&&&&&&&&&&&&&&&+",
"                                        +&&&&&&&&&&&&&&&&&&&&&&+",
"                                        +&&&&&&&&&&&&&&&&&&&&&&+",
"                                        +&&&&&&&&&&&&&&&&&&&&&&+",
"                                        +&&&&&&&&&&&&&&&&&&&&&&+",
"                                        +&&&&&&&&&&&&&&&&&&&&&&+",
"o+++++++++++++++++++++++++++++++++++++++#&&&&&&&&&&&&&&&&&&&&&&+",
"+&&&&&&&&&&&&&&&&&&&&&&&&&&&&&&&&&&&&&&&&&&&&&&&&&&&&&&&&&&&&&&+",
"+&&&&&&&&&&&&&&&&&&&&&&&&&&&&&&&&&&&&&&&&&&&&&&&&&&&&&&&&&&&&&&+",
"+&&&&&&&&&&&&&&&&&&&&&&&&&&&&&&&&&&&&&&&&&&&&&&&&&&&&&&&&&&&&&&+",
"+&&&&&&&&&&&&&&&&&&&&&&&&&&&&&&&&&&&&&&&&&&&&&&&&&&&&&&&&&&&&&&+",
"+&&&&&&&&&&&&&&&&&&&&&&&&&&&&&&&&&&&&&&&&&&&&&&&&&&&&&&&&&&&&&&+",
"+&&&&&&&&&&&&&&&&&&&&&&&&&&&&&&&&&&&&&&&&&&&&&&&&&&&&&&&&$+++++o",
"+&&&&&&&&&&&&&&&&&&&&&&&&&&&&&&&&&&&&&&&&&&&&&&&&&&&&&&&&#      ",
"+&&&&&&&&&&&&&&&&&&&&&&&&&&&&&&&&&&&&&&&&&&&&&&&&&&&&&&&&#      ",
"+&&&&&&&&&&&&&&&&&&&&&&&&&&&&&&&&&&&&&&&&&&&&&&&&&&&&&&&&#      ",
"+&&&&&&&&&&&&&&&&&&&&&&&&&&&&&&&&&&&&&&&&&&&&&&&&&&&&&&&&#      ",
"+&&&&&&&&&&&&&&&&&&&&&&&&&&&&&&&&&&&&&&&&&&&&&&&&&&&&&&&&#      ",
".ooooooooooooooooooooooooooooooooooooooooooooooooooooooooX      "
};
