/* XPM */
static char *result[] = {
/* columns rows colors chars-per-pixel */
"26 58 5 1 ",
"  c black",
". c #0B0211",
"X c #180321",
"o c #2B083A",
"O c #49145F",
/* pixels */
" oOOOOOOOOOOOOOOOOOOOOOOo ",
" oOOOOOOOOOOOOOOOOOOOOOOo ",
" oOOOOOOOOOOOOOOOOOOOOOOo ",
" oOOOOOOOOOOOOOOOOOOOOOOo ",
" oOOOOOOOOOOOOOOOOOOOOOOo ",
" oOOOOOOOOOOOOOOOOOOOOOOo ",
" oOOOOOOOOOOOOOOOOOOOOOOo ",
" oOOOOOOOOOOOOOOOOOOOOOOo ",
" oOOOOOOOOOOOOOOOOOOOOOOo ",
" oOOOOOOOOOOOOOOOOOOOOOOo ",
" oOOOOOOOOOOOOOOOOOOOOOOo ",
" oOOOOOOOOOOOOOOOOOOOOOOo ",
" oOOOOOOOOOOOOOOOOOOOOOOo ",
" oOOOOOOOOOOOOOOOOOOOOOOo ",
" oOOOOOOOOOOOOOOOOOOOOOOo ",
" oOOOOOOOOOOOOOOOOOOOOOOo ",
" oOOOOOOOOOOOOOOOOOOOOOOo ",
" oOOOOOOOOOOOOOOOOOOOOOOo ",
" oOOOOOOOOOOOOOOOOOOOOOOo ",
" oOOOOOOOOOOOOOOOOOOOOOOo ",
" oOOOOOOOOOOOOOOOOOOOOOOo ",
" oOOOOOOOOOOOOOOOOOOOOOOo ",
" oOOOOOOOOOOOOOOOOOOOOOOo ",
" oOOOOOOOOOOOOOOOOOOOOOOo ",
" oOOOOOOOOOOOOOOOOOOOOOOo ",
" oOOOOOOOOOOOOOOOOOOOOOOo ",
" oOOOOOOOOOOOOOOOOOOOOOOo ",
" oOOOOOOOOOOOOOOOOOOOOOOo ",
" oOOOOOOOOOOOOOOOOOOOOOOo ",
" oOOOOOOOOOOOOOOOOOOOOOOo ",
" oOOOOOOOOOOOOOOOOOOOOOOo ",
" oOOOOOOOOOOOOOOOOOOOOOOo ",
" oOOOOOOOOOOOOOOOOOOOOOOo ",
" oOOOOOOOOOOOOOOOOOOOOOOo ",
" oOOOOOOOOOOOOOOOOOOOOOOo ",
" oOOOOOOOOOOOOOOOOOOOOOOo ",
" oOOOOOOOOOOOOOOOOOOOOOOo ",
" oOOOOOOOOOOOOOOOOOOOOOOo ",
" oOOOOOOOOOOOOOOOOOOOOOOo ",
" oOOOOOOOOOOOOOOOOOOOOOOo ",
" oOOOOOOOOOOOOOOOOOOOOOOo ",
" oOOOOOOOOOOOOOOOOOOOOOOo ",
" oOOOOOOOOOOOOOOOOOOOOOOo ",
" oOOOOOOOOOOOOOOOOOOOOOOo ",
" oOOOOOOOOOOOOOOOOOOOOOOo ",
" oOOOOOOOOOOOOOOOOOOOOOOo ",
" oOOOOOOOOOOOOOOOOOOOOOOo ",
" oOOOOOOOOOOOOOOOOOOOOOOo ",
" oOOOOOOOOOOOOOOOOOOOOOOo ",
" oOOOOOOOOOOOOOOOOOOOOOOo ",
" oOOOOOOOOOOOOOOOOOOOOOOo ",
" oOOOOOOOOOOOOOOOOOOOOOOo ",
" oOOOOOOOOOOOOOOOOOOOOOOo ",
" oOOOOOOOOOOOOOOOOOOOOOOo ",
" oOOOOOOOOOOOOOOOOOOOOOOo ",
" oOOOOOOOOOOOOOOOOOOOOOOo ",
" oOOOOOOOOOOOOOOOOOOOOOOo ",
" .XXXXXXXXXXXXXXXXXXXXXX. "
};
