/* XPM */
static char *result[] = {
/* columns rows colors chars-per-pixel */
"64 58 8 1 ",
"  c black",
". c #12031A",
"X c #180321",
"o c #2B083A",
"O c #340C44",
"+ c #3B0F4E",
"@ c #421157",
"# c #49145F",
/* pixels */
"      +##################################################+      ",
"      +##################################################+      ",
"      +##################################################+      ",
"      +##################################################+      ",
"      +##################################################+      ",
"Xooooo@##################################################@oooooX",
"o##############################################################o",
"o##############################################################o",
"o##############################################################o",
"o##############################################################o",
"o##############################################################o",
"o######################+oooooooooooooooo+######################o",
"o######################o                o######################o",
"o######################o                o######################o",
"o######################o                o######################o",
"o######################o                o######################o",
"o######################o                o######################o",
"o######################o                o######################o",
"o######################o                o######################o",
"o######################o                o######################o",
"o######################o                o######################o",
"o######################o                o######################o",
"o######################OXXXXXXXXXXXXXXXXO######################o",
"      +##################################################+      ",
"      +##################################################+      ",
"      +##################################################+      ",
"      +##################################################+      ",
"      +##################################################+      ",
"      +##################################################+      ",
"      +##################################################+      ",
"      +##################################################+      ",
"      +##################################################+      ",
"      +##################################################+      ",
"      +##################################################+      ",
"o######################OXXXXXXXXXXXXXXXXO######################o",
"o######################o                o######################o",
"o######################o                o######################o",
"o######################o                o######################o",
"o######################o                o######################o",
"o######################o                o######################o",
"o######################o                o######################o",
"o######################o                o######################o",
"o######################o                o######################o",
"o######################o                o######################o",
"o######################o                o######################o",
"o######################+oooooooooooooooo+######################o",
"o##############################################################o",
"o##############################################################o",
"o##############################################################o",
"o##############################################################o",
"o##############################################################o",
"Xooooo@##################################################@oooooX",
"      +##################################################+      ",
"      +##################################################+      ",
"      +##################################################+      ",
"      +##################################################+      ",
"      +##################################################+      ",
"      .XXXXXXXXXXXXXXXXXXXXXXXXXXXXXXXXXXXXXXXXXXXXXXXXXX.      "
};
