/* XPM */
static char *result[] = {
/* columns rows colors chars-per-pixel */
"14 14 10 1 ",
"  c black",
". c #0B0211",
"X c #12031A",
"o c #180321",
"O c #22062E",
"+ c #270734",
"@ c #2B083A",
"# c #3B0F4E",
"$ c #3F1052",
"% c #49145F",
/* pixels */
"Xooooooooooo. ",
"#%%%%%%%%%%%@ ",
"#%%%%%%%%%%%%@",
"O@@@@@@@#%%%%@",
"        @%%%%@",
" O@@@@@@#%%%%@",
"X$%%%%%%%%%%%@",
"#%%%%%%%%%%%@ ",
"#%%%%+oooooo. ",
"#%%%%o        ",
"#%%%%$#######O",
"#%%%%%%%%%%%%@",
"#%%%%%%%%%%%%@",
"              "
};
