/* XPM */
static char *result[] = {
/* columns rows colors chars-per-pixel */
"14 14 10 1 ",
"  c black",
". c #370F47",
"X c #49145F",
"o c #441259",
"O c #360F47",
"+ c #2D0C3B",
"@ c #240A2F",
"# c #120518",
"$ c #3B104D",
"% c #120517",
/* pixels */
"              ",
" .XXXXXXXXXXX ",
".oXXXXXXXXXXXO",
"XXXXX+@@@XXXXX",
"XXXXX#   XXXXX",
"XXXXX#   XXXXX",
"#$XXX$OOOXXXX#",
" .XXXXXXXXXXX ",
"#$XXX$...XXXX%",
"XXXXX#   XXXXX",
"XXXXX#   XXXXX",
"XXXXX+@@@XXXXX",
".oXXXXXXXXXXX.",
" .XXXXXXXXXXX "
};
