/* XPM */
static char *result[] = {
/* columns rows colors chars-per-pixel */
"19 17 9 1 ",
"  c black",
". c #0B0211",
"X c #12031A",
"o c #180321",
"O c #22062E",
"+ c #2B083A",
"@ c #3B0F4E",
"# c #46135B",
"$ c #49145F",
/* pixels */
"X@@@@@@@@@@@@@@@@  ",
"o$$$$$$$$$$$$$$$$o.",
"o$$$$$$$$$$$$$$$$$+",
".+++++++++++$$$$$$+",
"            $$$$$$+",
"            $$$$$$+",
"  O+++++++++$$$$$$+",
"  @$$$$$$$$$$$$$$$+",
"X@#$$$$$$$$$$$$$$+o",
"o$$$$$$$$$$$$$$$$  ",
"o$$$$$$o           ",
"o$$$$$$o           ",
"o$$$$$$o           ",
"o$$$$$$$$$$$$$$$$$+",
"o$$$$$$$$$$$$$$$$$+",
"o$$$$$$$$$$$$$$$$$+",
".+++++++++++++++++o"
};
