/* XPM */
static char *result[] = {
/* columns rows colors chars-per-pixel */
"19 17 11 1 ",
"  c black",
". c #040107",
"X c #0B0211",
"o c #180321",
"O c #2B083A",
"+ c #300A3F",
"@ c #340C44",
"# c #3B0F4E",
"$ c #3F1052",
"% c #421157",
"& c #49145F",
/* pixels */
"  +##############  ",
".o$&&&&&&&&&&&&&&oX",
"o&&&&&&&&&&&&&&&&&O",
"o&&&&&&@OOOO&&&&&&O",
"o&&&&&&o    &&&&&&O",
"o&&&&&&o    &&&&&&O",
"o&&&&&&@OOOO&&&&&&O",
"o&&&&&&&&&&&&&&&&&O",
"XO%&&&&&&&&&&&&&&&O",
"  #&&&&&&&&&&&&&&&O",
"            &&&&&&O",
"            &&&&&&O",
"            &&&&&&O",
"            &&&&&&O",
"            &&&&&&O",
"            &&&&&&O",
"            OOOOOOo"
};
