/* XPM */
static char *result[] = {
/* columns rows colors chars-per-pixel */
"14 14 12 1 ",
"  c black",
". c #12031A",
"X c #180321",
"o c #22062E",
"O c #270734",
"+ c #2B083A",
"@ c #300A3F",
"# c #340C44",
"$ c #3B0F4E",
"% c #3F1052",
"& c #421157",
"* c #49145F",
/* pixels */
"              ",
" o$$$$$$$$$$$@",
"@&***********$",
"$****%$$$$$$$@",
"$****X        ",
"$****X        ",
"$***********+ ",
"$***********&@",
"$****#++$****$",
"$****X  +****$",
"$****OXX#****$",
"$************$",
".#**********#.",
" X++++++++++X "
};
