/* XPM */
static char *result[] = {
/* columns rows colors chars-per-pixel */
"36 33 10 1 ",
"  c black",
". c #0B0211",
"X c #12031A",
"o c #180321",
"O c #270734",
"+ c #2B083A",
"@ c #340C44",
"# c #3B0F4E",
"$ c #3F1052",
"% c #49145F",
/* pixels */
"   Xoooooooooooooooooooooooooooo.   ",
"   #%%%%%%%%%%%%%%%%%%%%%%%%%%%%+   ",
"   #%%%%%%%%%%%%%%%%%%%%%%%%%%%%+   ",
"Xoo$%%%%%%%%%%%%%%%%%%%%%%%%%%%%@oo.",
"#%%%%%%%%%%%%%%%%%%%%%%%%%%%%%%%%%%+",
"#%%%%%%%%%%%%%%%%%%%%%%%%%%%%%%%%%%+",
"#%%%%%%%%%%%%%%%%%%%%%%%%%%%%%%%%%%+",
"#%%%%%%%%%%%%Ooooooooo@%%%%%%%%%%%%+",
"#%%%%%%%%%%%%o        +%%%%%%%%%%%%+",
"#%%%%%%%%%%%%o        +%%%%%%%%%%%%+",
"#%%%%%%%%%%%%o        +%%%%%%%%%%%%+",
"#%%%%%%%%%%%%o        +%%%%%%%%%%%%+",
"#%%%%%%%%%%%%o        +%%%%%%%%%%%%+",
"#%%%%%%%%%%%%@++++++++#%%%%%%%%%%%%+",
"#%%%%%%%%%%%%%%%%%%%%%%%%%%%%%%%%%%+",
"#%%%%%%%%%%%%%%%%%%%%%%%%%%%%%%%%%%+",
"#%%%%%%%%%%%%%%%%%%%%%%%%%%%%%%%%%%+",
"   #%%%%%%%%%%%%%%%%%%%%%%%%%%%%%%%+",
"   #%%%%%%%%%%%%%%%%%%%%%%%%%%%%%%%+",
"   #%%%%%%%%%%%%%%%%%%%%%%%%%%%%%%%+",
"                      +%%%%%%%%%%%%+",
"                      +%%%%%%%%%%%%+",
"                      +%%%%%%%%%%%%+",
"                      +%%%%%%%%%%%%+",
"                      +%%%%%%%%%%%%+",
"                      +%%%%%%%%%%%%+",
"                      +%%%%%%%%%%%%+",
"                      +%%%%%%%%%%%%+",
"                      +%%%%%%%%%%%%+",
"                      +%%%%%%%%%%%%+",
"                      +%%%%%%%%%%%%+",
"                      +%%%%%%%%%%%%+",
"                      +%%%%%%%%%%%%+"
};
