/* XPM */
static char *result[] = {
/* columns rows colors chars-per-pixel */
"64 64 163 2 ",
"   c gray5",
".  c black",
"X  c gray6",
"o  c #101010",
"O  c gray9",
"+  c #202020",
"@  c #1D1D1D",
"#  c #F3F3F3",
"$  c gray7",
"%  c #0B0B0B",
"&  c #010101",
"*  c #0C0C0C",
"=  c gray3",
"-  c #020202",
";  c #060606",
":  c gray11",
">  c #DFDFDF",
",  c #2A2A2A",
"<  c #111111",
"1  c white",
"2  c gray8",
"3  c #BCFFFF",
"4  c #4BD1EF",
"5  c #4599DB",
"6  c #9DFFFF",
"7  c #EFEFEF",
"8  c #B2FFFF",
"9  c #CBFFFF",
"0  c #AAFFFF",
"q  c #74D9FF",
"w  c #A4F4FF",
"e  c #D3FAFF",
"r  c #A9F6FF",
"t  c #54D2FD",
"y  c #45A2DC",
"u  c #C9FFFF",
"i  c #CCFFFF",
"p  c #ECFFFF",
"a  c #E4FFFF",
"s  c #F5FFFF",
"d  c #B1FBFF",
"f  c #66D4FD",
"g  c #2375F3",
"h  c #256BF1",
"j  c #2182F4",
"k  c #299EF7",
"l  c #1883F5",
"z  c #3956D9",
"x  c #B7F2FE",
"c  c #62D7ED",
"v  c #58CCF6",
"b  c #C3FFFF",
"n  c #DBF3FF",
"m  c #DEFFFF",
"M  c #99CCFB",
"N  c #45A5F9",
"B  c #98D0FB",
"V  c #B0FFFF",
"C  c #A8E1FD",
"Z  c #57A4F6",
"A  c #389EF7",
"S  c #3D99F9",
"D  c #BCF2FE",
"F  c #77E2FD",
"G  c #47A3F9",
"H  c #4EB6FA",
"J  c #4DB2FA",
"K  c #4CB0FA",
"L  c #4CAFFA",
"P  c #4CB4FC",
"I  c #4AB4FE",
"U  c #35AAFD",
"Y  c #2083EB",
"T  c #77CAFA",
"R  c #E8FCFC",
"E  c #5194E7",
"W  c #4DB4FA",
"Q  c #3F9BF9",
"!  c #3584F4",
"~  c #388DF7",
"^  c #3A81EE",
"/  c #2B67F1",
"(  c #4494ED",
")  c #B8FFFF",
"_  c #CAFDFF",
"`  c #BAFFFF",
"'  c #F8FFFF",
"]  c #EEFFFF",
"[  c #A5E8FD",
"{  c #B5DFFD",
"}  c #F9FDFF",
"|  c #D6F8FF",
" . c #7BDDFF",
".. c #49D3FE",
"X. c #B3FEFF",
"o. c #AEF8FF",
"O. c #B4E8FF",
"+. c #5FECFF",
"@. c #62DDFF",
"#. c #4DB2FB",
"$. c #439FF9",
"%. c #489FF3",
"&. c #4798F0",
"*. c #47A7F4",
"=. c #3C97FB",
"-. c #46C4FB",
";. c #B0FCFF",
":. c #3F9DFD",
">. c #4F89E1",
",. c #6CFFFF",
"<. c #C1FFFF",
"1. c #52E6FF",
"2. c #E5FFFF",
"3. c #E2FFFF",
"4. c #81FFFF",
"5. c #88CDFA",
"6. c #44B7FA",
"7. c #69D1FC",
"8. c #9FB8F8",
"9. c #69BDFA",
"0. c #2A73E4",
"q. c #2F5CDE",
"w. c #123A5F",
"e. c #BBF1FF",
"r. c #72DAFC",
"t. c #407AC4",
"y. c #9D9D9D",
"u. c LightCyan",
"i. c #B7F9FF",
"p. c #F7FFFF",
"a. c #71F6FF",
"s. c #46ABFC",
"d. c #3273E9",
"f. c #194FD6",
"g. c #BEFFFF",
"h. c #72E0E0",
"j. c #B9FFFF",
"k. c #3DDCFF",
"l. c #78ECFE",
"z. c #F4F8FE",
"x. c #95D7FA",
"c. c #B3D6FB",
"v. c #A8F0F0",
"b. c #DDFFFF",
"n. c #0C203D",
"m. c #95CFCF",
"M. c #68FFFF",
"N. c #ADC0C0",
"B. c #8BE0E0",
"V. c #808080",
"C. c #070707",
"Z. c #040404",
"A. c #373737",
"S. c gray33",
"D. c gray82",
"F. c #222222",
"G. c gray2",
"H. c #A7A7A7",
"J. c gray35",
"K. c #272727",
"L. c #1B1B1B",
"P. c #181818",
"I. c gray17",
/* pixels */
"  . . . . . . . . . . . . . . . . . . . . . . . . . . . . . . . . . . . . . . . . . . . . . . . . . . . . . . . . . . . . . . . ",
". . . . . . . . . . . . . . . . . . . . . . . . . . . . . . . . . . . . . . . . . . . . . . . . . . . . . . . . . . . . . . . . ",
". . . . . . . . . . . . . . . . . . . . . . . . . . . . . . . . . . . . . . . . . . . . . . . . . . . . . . . . . . . . . . . . ",
". . . . . . . . . . . . . . . . . . . . . . . . . . . . . . . . . . . . . . . . . . . . . . . . . . . . . . . . . . . . . . . . ",
". . . . . . . . . . . . . . . X . . . . . . . . o . . . . . . . . . . . . . . . . . . . . . . . . . . . . . . . . . . . . . . . ",
". . . . . . . . . . . . . . . . . . . . . O . . . + . . . . . . . . . . . . . . . . . . . . . . . . . . . . . . . . . . . . . . ",
". . . . . . . . . . . . . . . . . . . . . . . . . . . . . . . . . . . . . . . . . . . . . . . . . . . . . . . . . . . . . . . . ",
". . . . . . . . . . . . . . . . . . @ . . . . . . . . . . . . . . . . . . . . . . . . . . . . . . . . . . . . . . . . . . . . . ",
". . . . . . . . . . . . . . . . . . . . . . . . . . . . . . . . . . . . . . . . . . . . . . . . . . . . . . . . . . . . . . . . ",
". . . . . . . . . . . . . . . . . . . . . . . # . . . . . . . . . . . . . . . . . . . . . . . . . . . . . . . . . . . . . . . . ",
". . . . . . . . . . . . . . . . . . . . . . . . . . . . . . . . . . . . . . . . . . . . . . . . . . . . . . . $ . . . . . . . . ",
". . . . . . . . % . . . . . . . . . . . . . . . . . . . . . . . . . . . . . . . . . . . . . . . . . . . . . . . . . . . . . . . ",
". . . . . . . . . . . . . . . . . . . . . . . . . . . . . . . . . . . . . . . . . . . . . . . . . . . . . . . . . . . . . . . . ",
". . . & . . $ . . . . . . . . . . . . . . . . . . . . . . . . . . . . . . . . . . . . . . . . . . . . . . . . . . . . . . . . . ",
". . . . . . . . . . . . . . * . . . . . . . . . . . . . . . . . . . . . . . . . . . . . . . . . . . . . . . . . . . . . . . . . ",
". . . . . . . . . . . . . . . . . . = . . . . . . . . . . . . . . . . . . . . . . . . . . . . . . . . . . . . . . . . . . . . . ",
". . . . . . . . . . . . . . . . . . . . . . . . . . . . . . . . . . . . . . . . . . . . . . . - . . . . . . . . . . . . . . . . ",
". . . . . . . . . . . . . . . . . . . . . . . . . . . . . . ; . . . . . . . . . . . . . . . . . . . . . . . . . . . . . . . . . ",
". . . . . . . . . . . . . . . . . . . . . . . . . . . . : . . . . . . . . . . . . . . . . . . . . . . . . . . . . . . . . . . . ",
". . . . . . . . . . . . . . . . . . . . . . . . . . . . > . . . . . . . . . . . . . . . . . . . . . . . . . . . . . . . . . . . ",
". . . . . . . . . ; . . . . . . . . . . . . . . . . . . . . . . . . . . . . . . . . . . . . . . . . . . . . . . . . . . . . . . ",
". . . . . . . . . . . . . . . . . . . . . . . . . . . . . . . . . . . . . . . . . , . . . . . . . . . . . . . . . . . . . . . . ",
". . . . . . . . . . . . . . . . . . . . . . . . . . . . . . . . . . . . . . . . . . . . . . . . . . . . . . . . . . . . . & . . ",
". . . . . . . . . . . . . . . . . . . . . . . . . . . . . . . . . . . . . . . . . . . . . . . . . . . . X . . . . . . . . . . . ",
". . . . . . . . . . . . . . . . . . . . . . . . . . . * . . . . . . . . . . . . < . . . . . . . . . . . . . . . . . . . . . . . ",
". . . * . . . . . . . . . . . . . . . . . . . . . . . . . . . . . . . . . . . . . . . . . . . . . . . . . . . . . . . . . . . . ",
". . . . . . . . . . . . . . . . . . . . . . . . . . . . . 1 . . . . . . . . . . . . . . . . . . . . . . . . . . . . . . . - . . ",
". . . . 2 . . . . . . . . . . . . . . . . . . . . . . . . 3 . . . . . . . . . . . . . . . . . . . . . . . . . . . . . . . . . . ",
". . . . . . . . . . . . . . . . . . 4 5 . . . . . . . . . 6 7 . . . . . . . . . 8 9 . . . . . . . . . . . . . . . . . . . . . . ",
". . . . . . . . . . . . . . 0 . . q w e r t y . . . . . u . i . . . . . . . . . p 1 . . . . . . . . . . . . . . . . . . . . . . ",
". . . . . . . . . . . . . . a . . 1 1 s d f g h j k l z . . x c . . . . . . . . . . . . . . . . . . v . . . . . . . . . . . . . ",
". . . . . . . . . . . . . . b . n m 1 1 1 1 M N B V C Z A S D F G H J K L P I U Y T R E W Q ! ~ ^ / ( . . . . . . . . . . . . . ",
". . . . . . . . . . . . . . ) . _ ` 1 1 ' ] [ { } 1 1 |  ...X.o.O.+.@.#.$.%.&.*.=.-.;.:.>.. . . . . ,.. . . . . . . . . . . . . ",
". . . . . . . . . . . . . % <.. 1.2.1 1 3.4.5.6.7.8.9.0.q.w.e.r.. . . . . . . t.. . a . . . . . . . . . . . . . . . . . . y.. . ",
". . . . . . . . . . . . . . u.. . i.p.1 1 i a.s.d.f.. . . . g.h.. . . . . . . . . . 1 . . . . . . . . . . . . . . . . . . . . . ",
". . . . . . . . . . . . . . j.. . k.l.z.x.c.. . . . . . . . v.. . . . . . . . . b.1 . . . . . . . . . . . . . . . . . . . . . . ",
". . . . . . . . . . . . . . . . . . . n.. . . . . . . . m.M.N.. . . . . . . . . B.1 . . . . . . . . . . . . . . . . . . . . . . ",
". . . . . . . . . . . . . . . . . . . . . . . . . . . . p 3 . . . . . . . . . . . . . . . . . . . . . . . . . . . . . . . . . . ",
". . . . . . . . . . . . . . . . . . . . . . . . . . . . . 1 . . . . . . . . . . . . . . . . . . . . . . . . . . . . . . . . . . ",
". . . . . . . . . . . . . . . . . . . . . . . . . . . . . . . . . . . . . . . . . . . . . . . . . . . . . .   . . . . . . . . . ",
". . . . . . . . . . . . . . . . & . . . . . . . . . . . . . . . . . . . . . . . . . . . . . . . . . . . . . . . . . . . . . . . ",
". . . . . . . . . . . & . . . . . . . . . . . . . . . . . . . . . . . . . . . . . . . . . . . . . . . . . . . . . . . . . . . . ",
". . . . . . . . . . . . . . . . . . . . . . . . . . . . . . . . . . . . . . . . . . . . . . . . . . . . . . . . . . . . . . . . ",
". . . . . . . V.. . . . . . . . . . . . . . . . . . . . . C.. . . C.. . . . . . . . . . . . . & . . . . . . . . . . . . . . . . ",
". . . . . . . . . . . . . . . . . . . . . . . . . . . . . . . . . . . . . . . % . . . . . @ . . . . . . . . . . . . . . : . . . ",
". . . . . . . . Z.. . . . . . . . A.. . . . . . . . . . . . . . . . . . . . . . . . . . . . . . . . . . . = . . . . . . . . . . ",
". . . . . . . . . . . . . . . . . . . . . . . . . . . . . . . . . . . . . . . . . . . . . . . . . . . . . . . . . . . . . . . . ",
". . . . . . . . . = . . . . . . . . . . . . . . . . . . . . . S.. . . . . . . . . . . . . . . . . . . . . . . . . . . . . . . . ",
". . . . . . . . . . . . . . . . . . . . . . . D.. . . . . . . . . . . . . . . . . . . . . . . . . . F.. . . . . . . . . . . . . ",
". . . . . . . . . . . . . . . . . . . . . . . . . . . . . . . . . . . . . . . . . . . . . . . . . . . . . . . . . . . . . . . . ",
". . . . . . . . . . . . . . . G.. . . . . . . . . . . . . . . . . . . . . . . . . . . . . . . . . . . . . . . . . . . . . . . . ",
". . . . . . . . . . . . . . . . . . . . . . . . . . . . . . . . . . . . . . . . . . . . . . . . . . . . . . . . . . . . . . . . ",
". . . . . . . . . . . . . . . . . . . . . . . . . . . . . . . . . . . . . . . . . . . . . . . . . . . . . . . . . . . . . . . . ",
". . . . . . . . . . . . . . . . . . . . . . . . . . . . . . . . . . . . . . . . . . . . . . . . . . . . . . . . . . . . . . . . ",
"X . . . H.. . . . . . . . . . . . . . . . . = . . . . . . . . . . . . . . . . . . . . . . . . . . & . . . . . . . . . . . . . . ",
". J.. . . . . . . . . . K.. . . . . . . . . . . . . . . . . . . . . . . . . . . . . . . . L.. . . . . . . . . . . . . . . . . . ",
". . . . . . . . . . . . . . . . . . . . . . . . . . . . . . . . . . . . . . . . . . . . . . . . . . . . . . . . . . . . . . . . ",
". . . % . . . . . . . . . . . . . . . . . . . . . . . . . . . . . . . . . . . . . . . . . . . . . . . . . . . . . . . . - o . . ",
". . . . . . . . . . . . . . . . . . . . 2 . . . . . . . . . . . . . . . . . . . . . . . . . . . . . . . . . . . . . . . . . . . ",
". . . . . . . . . . . . . . . . . . . . . . . . . . . . . . . . . . . . . . . . . . . . . G.. P.. . . . . . . . . . . . . . . . ",
". . . . . . . . . . . . . & . . . . . . . . . . . . . . . . . . . . . . . . . . . . . . . . . . . . . . . . . . . . . . . . . . ",
". . . . . . . . . . . . . . . . . . . . . . . . . . . . . . . . . . . . . . . . & . . . . . . . . . . . . . . . . . I.. . . . . ",
". . . . . . . . . . . . . . . . . . . . . . . . . . . . . . . . . . . . . . . . . . . . . . . . . . . . . . . . . . . . . . . . ",
". . . . . . . . . - . . . . . . . . . . . . . . . . . . . . . . . . . . . . . . . . . . . . . . . . . . . . . . . . . . . . . . "
};
