/* XPM */
static char *result[] = {
/* columns rows colors chars-per-pixel */
"64 64 150 2 ",
"   c #181425",
".  c #171E33",
"X  c #172634",
"o  c #152742",
"O  c #123A5F",
"+  c #133B5F",
"@  c #0B6FAE",
"#  c #1874F2",
"$  c #3A76EA",
"%  c #3C7AE9",
"&  c #2A70F3",
"*  c #2B79F3",
"=  c #3478F3",
"-  c #347FF3",
";  c #0099DB",
":  c #2E86F9",
">  c #3581F3",
",  c #3686F4",
"<  c #378BF6",
"1  c #388AF5",
"2  c #388BF5",
"3  c #388AF6",
"4  c #398CF5",
"5  c #388CF6",
"6  c #2191F5",
"7  c #2898F7",
"8  c #3097F6",
"9  c #3F96F7",
"0  c #3C9AF6",
"q  c #3B9EF8",
"w  c #31ABF8",
"e  c #34ACF8",
"r  c #39AAFA",
"t  c #3FA9FB",
"y  c #24BBFA",
"u  c #35B0F7",
"i  c #4082EB",
"p  c #4097F7",
"a  c #409AF7",
"s  c #7199F6",
"d  c #48A0F6",
"f  c #43A6FA",
"g  c #46A4F8",
"h  c #4AA4F9",
"j  c #4BAEFA",
"k  c #4FB3FA",
"l  c #4CB5FB",
"z  c #4BB3FD",
"x  c #55BBFC",
"c  c #65BBFB",
"v  c #6DBAF9",
"b  c #2BC6FA",
"n  c #2CE8F5",
"m  c #42C4FA",
"M  c #41C6FA",
"N  c #41C0FD",
"B  c #57C4FC",
"V  c #59C7FD",
"C  c #59C8FD",
"Z  c #5ACEFD",
"A  c #43D3FB",
"S  c #4ED3FF",
"D  c #4ED6FC",
"F  c #5ED0FE",
"G  c #5ED1FE",
"H  c #5DDFFF",
"J  c #77CEFB",
"K  c #61D7FF",
"L  c #62DDFD",
"P  c #6DDBFE",
"I  c #56E0FF",
"U  c #57EDFF",
"Y  c #53F1FF",
"T  c #55FFFF",
"R  c #59FFFF",
"E  c #67E0FF",
"W  c #66E1FF",
"Q  c #69E6FF",
"!  c #74E2FC",
"~  c #79E5FD",
"^  c #78E8FF",
"/  c #74F2FF",
"(  c #77FEFF",
")  c #7BFFFF",
"_  c #7DFFFF",
"`  c #80CFF1",
"'  c #8EC2FA",
"]  c #99C6FC",
"[  c #87D3FB",
"{  c #80DDFD",
"}  c #87DDFD",
"|  c #90DAFC",
" . c #ADDCF9",
".. c #8EEDFF",
"X. c #91E9FD",
"o. c #81F2FF",
"O. c #81F6FF",
"+. c #86FFFF",
"@. c #89FBFF",
"#. c #97FFFF",
"$. c #99FFFF",
"%. c #9EFFFF",
"&. c #BFE0FD",
"*. c #ACF2FF",
"=. c #AEF4FF",
"-. c #A3FFFF",
";. c #A4FFFF",
":. c #AEFFFF",
">. c #B1FFFF",
",. c #B2FFFF",
"<. c #B6FFFF",
"1. c #B8FEFF",
"2. c #B9FFFF",
"3. c #BBFFFF",
"4. c #BCFFFF",
"5. c #C9DEFE",
"6. c #C6F5FF",
"7. c #C0FFFF",
"8. c #C1FFFF",
"9. c #C2FFFF",
"0. c #C4FFFF",
"q. c #C5FFFF",
"w. c #C9FAFF",
"e. c #C8FFFF",
"r. c #CBFFFF",
"t. c #CDFFFF",
"y. c #CEFFFF",
"u. c #D1FFFF",
"i. c #DAFFFF",
"p. c #DFFFFF",
"a. c #E2FFFF",
"s. c #E3FFFF",
"d. c #E4FFFF",
"f. c #E5FFFF",
"g. c #E7FFFF",
"h. c #E8FFFF",
"j. c #EBFFFF",
"k. c #EEFFFF",
"l. c #EFFFFF",
"z. c #F2FFFF",
"x. c #F4FFFF",
"c. c #F5FFFF",
"v. c #F6FFFF",
"b. c #FFFBFF",
"n. c #F9FCFF",
"m. c #F9FFFF",
"M. c #FAFFFF",
"N. c #FBFFFF",
"B. c #FCFFFF",
"V. c white",
/* pixels */
"                                                                      X X                                                       ",
"                                                                                          +                                     ",
"                                      +                     ;                                                                   ",
"        O                                                 @ n @                                                     ;           ",
"                                                            ;               @                         @                         ",
"                                                                                                                                ",
"                                              o                                                                         ;       ",
"                                                                                                                                ",
"            .                                       .                                                       +                   ",
"                            +                                                                                                   ",
"                                                                                                                                ",
"                                                                                    ;                                           ",
"                        +         @                             O                                       . . .                   ",
"                                                  @                                                   . o o o .                 ",
"                                                            .                                         . o O O o .               ",
"                                                                                                      . o O @ O o .             ",
"                                                              =.b./                                     . o O O o .             ",
"                                                          S *.m.V.7.U                                     . o o o .             ",
"                                                      ;   o.M.V.B.V.n.+                   @                 . . .               ",
"                  o                                       _ N.c.$.y.N.^                                                         ",
"                                          @               D &.0.m.2.( H                                                         ",
"              O                                           g ' 1.V.0.| j                                                     @   ",
"                                                            ~ ..z.} v                                 +                         ",
"                                                            O.Y ;.w c   ;                                                       ",
"                                              . . .   B.f.w.[ A T N   M.2.V.                                                    ",
"                                            . o o V.;.%.    # q @.          ) s.                                                ",
"                                            . o O O x.d.V.u.! X.6.    +.x.k.x.            +                               +     ",
"                                +           . o O @ O o V.d.3.7.4.r.9.>.t.    .                                                 ",
"                                              . o O O o .   y I { M                                                             ",
"                                                . o o o .   3 E L                   o                   ;           +           ",
"    .                                             . . .     p W Z                                                               ",
"                                                            9 W C                                                               ",
"                    o                                       a Q C                                                               ",
"                                                          O , B G                                                               ",
"                                            ;               * k K                                                   @           ",
"                                                            = l F                                                               ",
"        +                                                 2.s r V m   V.                  . . .             +                   ",
"                                                      h.x.e.8 f x e   q.a.j.            . o o o .       @                       ",
"                                    @                 i.v.  0 h 7       p.p.            . o O O o .     @                       ",
"                                                        V.g.8.<.-.#.,.f.l.              . o O @ O o . ; n ;                     ",
"                                                            b J ] 5.                      . o O O o .   ;                       ",
"          .                                                 & t 6                           . o o o .   @                       ",
"                                                            - z d                             . . .                             ",
"                                              +             1 5 %             ;                                   ;             ",
"                    ;                                       2 <                                                           +     ",
"                  @ n @                                     4 >                                                                 ",
"                    ;                                       : i   O                             +                               ",
"                                        .                   $ u   :.                                                            ",
"                                          .               .  .P R +.m.                                                          ",
"                                            .           .     `                                                                 ",
"                                              o . . . o                     .                                                   ",
"                                              . o o o .                                 O                                       ",
"                                              . o @ o .                                                                         ",
"                            . . .             . o o o .                                                   +                     ",
"                +         . o o o .           . . . . o           O                                                             ",
"                        . O o O o .         .           .                                                                       ",
"                      . o o o o o .                       .                                       +                             ",
"                      . o O o O .                                                                             O                 ",
"                      . O o o .                                                                                                 ",
"                        . . .                                                                                                   ",
"                                                                                                                                ",
"                                                                                                                                ",
"                                                                                      .                                         ",
"                                                                                                                                "
};
