/* XPM */
static char *result[] = {
/* columns rows colors chars-per-pixel */
"64 64 116 2 ",
"   c gray5",
".  c black",
"X  c gray6",
"o  c #101010",
"O  c gray9",
"+  c #202020",
"@  c #1D1D1D",
"#  c #F3F3F3",
"$  c gray7",
"%  c #0B0B0B",
"&  c #010101",
"*  c #0C0C0C",
"=  c gray3",
"-  c #020202",
";  c #060606",
":  c gray11",
">  c #DFDFDF",
",  c #2A2A2A",
"<  c #111111",
"1  c #69FFFF",
"2  c #BFFFFF",
"3  c white",
"4  c #B4FFFF",
"5  c #DAFFFF",
"6  c #E6FFFF",
"7  c gray8",
"8  c #E3FFFF",
"9  c #F2FFFF",
"0  c #8FFFFF",
"q  c #C7FFFF",
"w  c #A5FFFF",
"e  c #63E1FF",
"r  c #CDFFFF",
"t  c #EAFFFF",
"y  c #A1FFFF",
"u  c #EBFFFF",
"i  c #C3FFFF",
"p  c #76C5FA",
"a  c #6BBBFA",
"s  c #7FD3FD",
"d  c #C4F0FF",
"f  c #8CF0FF",
"g  c #57D3FB",
"h  c #60A1F7",
"j  c #388AF5",
"k  c #51C5FA",
"l  c #E3EEFE",
"z  c #7AB1F8",
"x  c #3C76E6",
"c  c #49A7F5",
"v  c #80D8FD",
"b  c #B3FAFF",
"n  c #D8F5FF",
"m  c #65EBFF",
"M  c #4061D6",
"N  c #3985F1",
"B  c #57C4FD",
"V  c #5ED2FE",
"C  c #61D7FF",
"Z  c #62DCFF",
"A  c #81E9FF",
"S  c #3C77E7",
"D  c #4098F7",
"F  c #4FB5FB",
"G  c #5AD3FD",
"H  c #81F0FE",
"J  c #A0FAFF",
"K  c #D9FDFF",
"L  c #63DFFF",
"P  c #66EEFF",
"I  c #67F5FF",
"U  c #BBF5FF",
"Y  c #D9FAFF",
"T  c #F6FFFF",
"R  c #3A82EF",
"E  c #3A80ED",
"W  c #D2EBFE",
"Q  c #4DB1FA",
"!  c #8DC9FB",
"~  c #8DF5FF",
"^  c #98F2FF",
"/  c #9D9D9D",
"(  c #87FFFF",
")  c #5DE2FD",
"_  c #D1E4F9",
"`  c #3D8DF1",
"'  c #4CA1F7",
"]  c #549BF6",
"[  c #51B0F6",
"{  c #54BDF5",
"}  c #81DDFD",
"|  c #D8F8FF",
" . c #ECFFFF",
".. c #519CEB",
"X. c #50A1EE",
"o. c #4FBBFA",
"O. c #79F0FF",
"+. c #B2F5FF",
"@. c #D4FFFF",
"#. c #E8FFFF",
"$. c #AEFFFF",
"%. c #9BFFFF",
"&. c #808080",
"*. c #070707",
"=. c #040404",
"-. c #373737",
";. c gray33",
":. c gray82",
">. c #222222",
",. c gray2",
"<. c #A7A7A7",
"1. c gray35",
"2. c #272727",
"3. c #1B1B1B",
"4. c #181818",
"5. c gray17",
/* pixels */
"  . . . . . . . . . . . . . . . . . . . . . . . . . . . . . . . . . . . . . . . . . . . . . . . . . . . . . . . . . . . . . . . ",
". . . . . . . . . . . . . . . . . . . . . . . . . . . . . . . . . . . . . . . . . . . . . . . . . . . . . . . . . . . . . . . . ",
". . . . . . . . . . . . . . . . . . . . . . . . . . . . . . . . . . . . . . . . . . . . . . . . . . . . . . . . . . . . . . . . ",
". . . . . . . . . . . . . . . . . . . . . . . . . . . . . . . . . . . . . . . . . . . . . . . . . . . . . . . . . . . . . . . . ",
". . . . . . . . . . . . . . . X . . . . . . . . o . . . . . . . . . . . . . . . . . . . . . . . . . . . . . . . . . . . . . . . ",
". . . . . . . . . . . . . . . . . . . . . O . . . + . . . . . . . . . . . . . . . . . . . . . . . . . . . . . . . . . . . . . . ",
". . . . . . . . . . . . . . . . . . . . . . . . . . . . . . . . . . . . . . . . . . . . . . . . . . . . . . . . . . . . . . . . ",
". . . . . . . . . . . . . . . . . . @ . . . . . . . . . . . . . . . . . . . . . . . . . . . . . . . . . . . . . . . . . . . . . ",
". . . . . . . . . . . . . . . . . . . . . . . . . . . . . . . . . . . . . . . . . . . . . . . . . . . . . . . . . . . . . . . . ",
". . . . . . . . . . . . . . . . . . . . . . . # . . . . . . . . . . . . . . . . . . . . . . . . . . . . . . . . . . . . . . . . ",
". . . . . . . . . . . . . . . . . . . . . . . . . . . . . . . . . . . . . . . . . . . . . . . . . . . . . . . $ . . . . . . . . ",
". . . . . . . . % . . . . . . . . . . . . . . . . . . . . . . . . . . . . . . . . . . . . . . . . . . . . . . . . . . . . . . . ",
". . . . . . . . . . . . . . . . . . . . . . . . . . . . . . . . . . . . . . . . . . . . . . . . . . . . . . . . . . . . . . . . ",
". . . & . . $ . . . . . . . . . . . . . . . . . . . . . . . . . . . . . . . . . . . . . . . . . . . . . . . . . . . . . . . . . ",
". . . . . . . . . . . . . . * . . . . . . . . . . . . . . . . . . . . . . . . . . . . . . . . . . . . . . . . . . . . . . . . . ",
". . . . . . . . . . . . . . . . . . = . . . . . . . . . . . . . . . . . . . . . . . . . . . . . . . . . . . . . . . . . . . . . ",
". . . . . . . . . . . . . . . . . . . . . . . . . . . . . . . . . . . . . . . . . . . . . . . - . . . . . . . . . . . . . . . . ",
". . . . . . . . . . . . . . . . . . . . . . . . . . . . . . ; . . . . . . . . . . . . . . . . . . . . . . . . . . . . . . . . . ",
". . . . . . . . . . . . . . . . . . . . . . . . . . . . : . . . . . . . . . . . . . . . . . . . . . . . . . . . . . . . . . . . ",
". . . . . . . . . . . . . . . . . . . . . . . . . . . . > . . . . . . . . . . . . . . . . . . . . . . . . . . . . . . . . . . . ",
". . . . . . . . . ; . . . . . . . . . . . . . . . . . . . . . . . . . . . . . . . . . . . . . . . . . . . . . . . . . . . . . . ",
". . . . . . . . . . . . . . . . . . . . . . . . . . . . . . . . . . . . . . . . . , . . . . . . . . . . . . . . . . . . . . . . ",
". . . . . . . . . . . . . . . . . . . . . . . . . . . . . . . . . . . . . . . . . . . . . . . . . . . . . . . . . . . . . & . . ",
". . . . . . . . . . . . . . . . . . . . . . . . . . . . . . . . . . . . . . . . . . . . . . . . . . . . X . . . . . . . . . . . ",
". . . . . . . . . . . . . . . . . . . . . . . . . . . * . . . . . . . . . . . . < . . . . . . . . . . . . . . . . . . . . . . . ",
". . . * . . . . . . . . . . . . . . . . . . . . . . . . . . . . 1 2 . . . . . . . . . . . . . 3 . . . . . . . . . . . . . . . . ",
". . . . . . . . . . . . . . . . . . . . . . . . . . . . . . . . 3 3 3 . . . . . . . . . . . 4 5 6 . . . . . . . . . . . . - . . ",
". . . . 7 . . . . . . . . . . . . . . . 3 . . . . . . . . . . . 8 2 9 . . . . . . . . . . . 3 0 9 . . . . . . . . . . . . . . . ",
". . . . . . . . . . . . . . . . . . . 3 3 . . . . . . . . . . q w . 6 . . . . . . . . e 4 3 2 . r 3 . . . . . . . . . . . . . . ",
". . . . . . . . . . . . . . . . . . . t y t . . . . . . . . . u . . i 3 . . . . . . p a s d f . w 3 . . . . . . . . . . . . . . ",
". . . . . . . . . . . . . . . . . . . 0 g p h j j j j j j j k l j j h z j j j j x c v b n 3 q m . 3 . . . . . . . . . . . . . . ",
". . . . . . . . . . . . . . . . . . 3 . M N j j j j B B B V m n C C C C C C C C Z A q 3 3 3 3 d d 3 . . . . . . . . . . . . . . ",
". . . . . . . . . . . . . . . . . . 0 . . . S j D B j F G H J K L C C C P I I U Y T 3 3 3 3 3 3 3 3 . . . . . . . . . . . . . . ",
". . . . . . . . . . . . . % . . . . 1 . . 1 . x R x E j j j k W Q Q Q Q Q Q Q Q Q ! ~ 3 3 3 3 ^ . 3 . . . . . . . . . . . / . . ",
". . . . . . . . . . . . . . . . . . 0 . . ( . . X . . . . . ) _ ` j ' ] j j j j [ { } |  .3 8 . . 3 . . . . . . . . . . . . . . ",
". . . . . . . . . . . . . . . . . . 3 1 . 4 . . . . . . . . .  .. . r 3 . . . . ..X.o.O.+.d w . 4 3 . . . . . . . . . . . . . . ",
". . . . . . . . . . . . . . . . . . . @.4 5 . . . . . . . . . 8 . . #.5 . . . . . . . . . . $.. 4 3 . . . . . . . . . . . . . . ",
". . . . . . . . . . . . . . . . . . . r 3 r . . . . . . . . . w q %.@.. . . . . . . . . . . t . 3 3 . . . . . . . . . . . . . . ",
". . . . . . . . . . . . . . . . . . . . 3 . . . . . . . . . . . 3 q 3 . . . . . . . . . . . 3 q 3 . . . . . . . . . . . . . . . ",
". . . . . . . . . . . . . . . . . . . . . . . . . . . . . . . . 0 q . . . . . . . . . . . . . 3 3 . . . . .   . . . . . . . . . ",
". . . . . . . . . . . . . . . . & . . . . . . . . . . . . . . . . . . . . . . . . . . . . . . . . . . . . . . . . . . . . . . . ",
". . . . . . . . . . . & . . . . . . . . . . . . . . . . . . . . . . . . . . . . . . . . . . . . . . . . . . . . . . . . . . . . ",
". . . . . . . . . . . . . . . . . . . . . . . . . . . . . . . . . . . . . . . . . . . . . . . . . . . . . . . . . . . . . . . . ",
". . . . . . . &.. . . . . . . . . . . . . . . . . . . . . *.. . . *.. . . . . . . . . . . . . & . . . . . . . . . . . . . . . . ",
". . . . . . . . . . . . . . . . . . . . . . . . . . . . . . . . . . . . . . . % . . . . . @ . . . . . . . . . . . . . . : . . . ",
". . . . . . . . =.. . . . . . . . -.. . . . . . . . . . . . . . . . . . . . . . . . . . . . . . . . . . . = . . . . . . . . . . ",
". . . . . . . . . . . . . . . . . . . . . . . . . . . . . . . . . . . . . . . . . . . . . . . . . . . . . . . . . . . . . . . . ",
". . . . . . . . . = . . . . . . . . . . . . . . . . . . . . . ;.. . . . . . . . . . . . . . . . . . . . . . . . . . . . . . . . ",
". . . . . . . . . . . . . . . . . . . . . . . :.. . . . . . . . . . . . . . . . . . . . . . . . . . >.. . . . . . . . . . . . . ",
". . . . . . . . . . . . . . . . . . . . . . . . . . . . . . . . . . . . . . . . . . . . . . . . . . . . . . . . . . . . . . . . ",
". . . . . . . . . . . . . . . ,.. . . . . . . . . . . . . . . . . . . . . . . . . . . . . . . . . . . . . . . . . . . . . . . . ",
". . . . . . . . . . . . . . . . . . . . . . . . . . . . . . . . . . . . . . . . . . . . . . . . . . . . . . . . . . . . . . . . ",
". . . . . . . . . . . . . . . . . . . . . . . . . . . . . . . . . . . . . . . . . . . . . . . . . . . . . . . . . . . . . . . . ",
". . . . . . . . . . . . . . . . . . . . . . . . . . . . . . . . . . . . . . . . . . . . . . . . . . . . . . . . . . . . . . . . ",
"X . . . <.. . . . . . . . . . . . . . . . . = . . . . . . . . . . . . . . . . . . . . . . . . . . & . . . . . . . . . . . . . . ",
". 1.. . . . . . . . . . 2.. . . . . . . . . . . . . . . . . . . . . . . . . . . . . . . . 3.. . . . . . . . . . . . . . . . . . ",
". . . . . . . . . . . . . . . . . . . . . . . . . . . . . . . . . . . . . . . . . . . . . . . . . . . . . . . . . . . . . . . . ",
". . . % . . . . . . . . . . . . . . . . . . . . . . . . . . . . . . . . . . . . . . . . . . . . . . . . . . . . . . . . - o . . ",
". . . . . . . . . . . . . . . . . . . . 7 . . . . . . . . . . . . . . . . . . . . . . . . . . . . . . . . . . . . . . . . . . . ",
". . . . . . . . . . . . . . . . . . . . . . . . . . . . . . . . . . . . . . . . . . . . . ,.. 4.. . . . . . . . . . . . . . . . ",
". . . . . . . . . . . . . & . . . . . . . . . . . . . . . . . . . . . . . . . . . . . . . . . . . . . . . . . . . . . . . . . . ",
". . . . . . . . . . . . . . . . . . . . . . . . . . . . . . . . . . . . . . . . & . . . . . . . . . . . . . . . . . 5.. . . . . ",
". . . . . . . . . . . . . . . . . . . . . . . . . . . . . . . . . . . . . . . . . . . . . . . . . . . . . . . . . . . . . . . . ",
". . . . . . . . . - . . . . . . . . . . . . . . . . . . . . . . . . . . . . . . . . . . . . . . . . . . . . . . . . . . . . . . "
};
