/* XPM */
static char *result[] = {
/* columns rows colors chars-per-pixel */
"64 64 181 2 ",
"   c gray5",
".  c black",
"X  c gray6",
"o  c #101010",
"O  c gray9",
"+  c #202020",
"@  c #1D1D1D",
"#  c #F3F3F3",
"$  c gray7",
"%  c #0B0B0B",
"&  c #010101",
"*  c #0C0C0C",
"=  c gray3",
"-  c #AEF4FF",
";  c #FFFBFF",
":  c #74F2FF",
">  c #020202",
",  c #4ED3FF",
"<  c #ACF2FF",
"1  c #F9FFFF",
"2  c white",
"3  c #C0FFFF",
"4  c #51DEEF",
"5  c gray11",
"6  c #81F2FF",
"7  c #FAFFFF",
"8  c #FCFFFF",
"9  c #F9FCFF",
"0  c #DFDFDF",
"q  c #7DFFFF",
"w  c #FBFFFF",
"e  c #F5FFFF",
"r  c #99FFFF",
"t  c #CEFFFF",
"y  c #78E8FF",
"u  c #060606",
"i  c #4ED6FC",
"p  c #BFE0FD",
"a  c #C4FFFF",
"s  c #B9FFFF",
"d  c #77FEFF",
"f  c #5DDFFF",
"g  c #3986CA",
"h  c #8EC2FA",
"j  c #B8FEFF",
"k  c #90DAFC",
"l  c #4BAEFA",
"z  c #2A2A2A",
"x  c #79E5FD",
"c  c #8EEDFF",
"v  c #F2FFFF",
"b  c #87DDFD",
"n  c #6DBAF9",
"m  c #81F6FF",
"M  c #53F1FF",
"N  c #A4FFFF",
"B  c #31ABF8",
"V  c #65BBFB",
"C  c #0073A4",
"Z  c #B1B3B3",
"A  c #E5FFFF",
"S  c #C9FAFF",
"D  c #87D3FB",
"F  c #43D3FB",
"G  c #55FFFF",
"H  c #41C0FD",
"J  c #111111",
"K  c gray69",
"L  c #9EFFFF",
"P  c #1874F2",
"I  c #3B9EF8",
"U  c #89FBFF",
"Y  c #7BFFFF",
"T  c #E3FFFF",
"R  c #F4FFFF",
"E  c #E4FFFF",
"W  c #D1FFFF",
"Q  c #74E2FC",
"!  c #91E9FD",
"~  c #C6F5FF",
"^  c #86FFFF",
"/  c #EEFFFF",
"(  c gray8",
")  c #01070B",
"_  c #071624",
"`  c #BBFFFF",
"'  c #BCFFFF",
"]  c #CBFFFF",
"[  c #C2FFFF",
"{  c #B1FFFF",
"}  c #CDFFFF",
"|  c #24BBFA",
" . c #56E0FF",
".. c #80DDFD",
"X. c #41C6FA",
"o. c #388AF6",
"O. c #67E0FF",
"+. c #62DDFD",
"@. c #4097F7",
"#. c #66E1FF",
"$. c #5ACEFD",
"%. c #3F96F7",
"&. c #59C8FD",
"*. c #393939",
"=. c #070707",
"-. c #409AF7",
";. c #69E6FF",
":. c #3686F4",
">. c #57C4FC",
",. c #5ED1FE",
"<. c #9D9D9D",
"1. c #2B79F3",
"2. c #4FB3FA",
"3. c #61D7FF",
"4. c #3478F3",
"5. c #4CB5FB",
"6. c #5ED0FE",
"7. c #7199F6",
"8. c #39AAFA",
"9. c #59C7FD",
"0. c #42C4FA",
"q. c #E8FFFF",
"w. c #C8FFFF",
"e. c #3097F6",
"r. c #43A6FA",
"t. c #55BBFC",
"y. c #34ACF8",
"u. c #C5FFFF",
"i. c #E2FFFF",
"p. c #EBFFFF",
"a. c #DAFFFF",
"s. c #F6FFFF",
"d. c #3C9AF6",
"f. c #4AA4F9",
"g. c #2898F7",
"h. c #DFFFFF",
"j. c #E7FFFF",
"k. c #C1FFFF",
"l. c #B6FFFF",
"z. c #A3FFFF",
"x. c #97FFFF",
"c. c #B2FFFF",
"v. c #EFFFFF",
"b. c #2BC6FA",
"n. c #77CEFB",
"m. c #99C6FC",
"M. c #C9DEFE",
"N. c #2A70F3",
"B. c #3FA9FB",
"V. c #2191F5",
"C. c #347FF3",
"Z. c #4BB3FD",
"A. c #48A0F6",
"S. c #808080",
"D. c #388AF5",
"F. c #388CF6",
"G. c #3C7AE9",
"H. c #388BF5",
"J. c #378BF6",
"K. c #040404",
"L. c #373737",
"P. c #398CF5",
"I. c #3581F3",
"U. c #2E86F9",
"Y. c #4082EB",
"T. c #3A76EA",
"R. c #35B0F7",
"E. c #AEFFFF",
"W. c gray82",
"Q. c #A3CFEA",
"!. c #6DDBFE",
"~. c #59FFFF",
"^. c #222222",
"/. c #78C3E3",
"(. c gray2",
"). c #A7A7A7",
"_. c gray35",
"`. c #272727",
"'. c #1B1B1B",
"]. c #181818",
"[. c gray17",
/* pixels */
"  . . . . . . . . . . . . . . . . . . . . . . . . . . . . . . . . . . . . . . . . . . . . . . . . . . . . . . . . . . . . . . . ",
". . . . . . . . . . . . . . . . . . . . . . . . . . . . . . . . . . . . . . . . . . . . . . . . . . . . . . . . . . . . . . . . ",
". . . . . . . . . . . . . . . . . . . . . . . . . . . . . . . . . . . . . . . . . . . . . . . . . . . . . . . . . . . . . . . . ",
". . . . . . . . . . . . . . . . . . . . . . . . . . . . . . . . . . . . . . . . . . . . . . . . . . . . . . . . . . . . . . . . ",
". . . . . . . . . . . . . . . X . . . . . . . . o . . . . . . . . . . . . . . . . . . . . . . . . . . . . . . . . . . . . . . . ",
". . . . . . . . . . . . . . . . . . . . . O . . . + . . . . . . . . . . . . . . . . . . . . . . . . . . . . . . . . . . . . . . ",
". . . . . . . . . . . . . . . . . . . . . . . . . . . . . . . . . . . . . . . . . . . . . . . . . . . . . . . . . . . . . . . . ",
". . . . . . . . . . . . . . . . . . @ . . . . . . . . . . . . . . . . . . . . . . . . . . . . . . . . . . . . . . . . . . . . . ",
". . . . . . . . . . . . . . . . . . . . . . . . . . . . . . . . . . . . . . . . . . . . . . . . . . . . . . . . . . . . . . . . ",
". . . . . . . . . . . . . . . . . . . . . . . # . . . . . . . . . . . . . . . . . . . . . . . . . . . . . . . . . . . . . . . . ",
". . . . . . . . . . . . . . . . . . . . . . . . . . . . . . . . . . . . . . . . . . . . . . . . . . . . . . . $ . . . . . . . . ",
". . . . . . . . % . . . . . . . . . . . . . . . . . . . . . . . . . . . . . . . . . . . . . . . . . . . . . . . . . . . . . . . ",
". . . . . . . . . . . . . . . . . . . . . . . . . . . . . . . . . . . . . . . . . . . . . . . . . . . . . . . . . . . . . . . . ",
". . . & . . $ . . . . . . . . . . . . . . . . . . . . . . . . . . . . . . . . . . . . . . . . . . . . . . . . . . . . . . . . . ",
". . . . . . . . . . . . . . * . . . . . . . . . . . . . . . . . . . . . . . . . . . . . . . . . . . . . . . . . . . . . . . . . ",
". . . . . . . . . . . . . . . . . . = . . . . . . . . . . . . . . . . . . . . . . . . . . . . . . . . . . . . . . . . . . . . . ",
". . . . . . . . . . . . . . . . . . . . . . . . . . . . . . . - ; : . . . . . . . . . . . . . > . . . . . . . . . . . . . . . . ",
". . . . . . . . . . . . . . . . . . . . . . . . . . . . . , < 1 2 3 4 . . . . . . . . . . . . . . . . . . . . . . . . . . . . . ",
". . . . . . . . . . . . . . . . . . . . . . . . . . . . 5 6 7 2 8 2 9 . . . . . . . . . . . . . . . . . . . . . . . . . . . . . ",
". . . . . . . . . . . . . . . . . . . . . . . . . . . . 0 q w e r t w y . . . . . . . . . . . . . . . . . . . . . . . . . . . . ",
". . . . . . . . . u . . . . . . . . . . . . . . . . . . . i p a 1 s d f . . . . . . . . . . . . . . . . . . . . . . . . . . . . ",
". . . . . . . . . . . . . . . . . . . . . . . . . . . . . g h j 2 a k l . . . . . z . . . . . . . . . . . . . . . . . . . . . . ",
". . . . . . . . . . . . . . . . . . . . . . . . . . . . . . x c v b n . . . . . . . . . . . . . . . . . . . . . . . . . . & . . ",
". . . . . . . . . . . . . . . . . . . . . . . . . . . . . . m M N B V . C . . . . . . . . . . . . . . . X . . . . . . . . . . . ",
". . . . . . . . . . . . . . . . . . . . . . . . . . . Z A S D F G H . 7 s 2 . . J . . . . . . . . . . . . . . . . . . . . . . . ",
". . . * . . . . . . . . . . . . . . . . . . . . . K N L . . P I U . . . . . Y T . . . . . . . . . . . . . . . . . . . . . . . . ",
". . . . . . . . . . . . . . . . . . . . . . . . . . R E 2 W Q ! ~ . . ^ R / R . . . . . . . . . . . . . . . . . . . . . . > . . ",
". . . . ( . . . . . . . . . . . . . . . . . . . . ) _ . 2 E ` 3 ' ] [ { } . . . . . . . . . . . . . . . . . . . . . . . . . . . ",
". . . . . . . . . . . . . . . . . . . . . . . . . . . . . . |  ...X.. . . . . . . . . . . . . . . . . . . . . . . . . . . . . . ",
". . . . . . . . . . . . . . . . . . . . . . . . . . . . . . o.O.+.. . . . . . . . . . . . . . . . . . . . . . . . . . . . . . . ",
". . . . . . . . . . . . . . . . . . . . . . . . . . . . . . @.#.$.. . . . . . . . . . . . . . . . . . . . . . . . . . . . . . . ",
". . . . . . . . . . . . . . . . . . . . . . . . . . . . . . %.#.&.. . . . . *.. . . . =.. . . . . . . . . . . . . . . . . . . . ",
". . . . . . . . . . . . . . . . . . . . . . . . . . . . . . -.;.&.. . . . . . . . . . . . . . . . . . . . . . . . . . . . . . . ",
". . . . . . . . . . . . . % . . . . . . . . . . . . . . . _ :.>.,.. . . . . . . . . . . . . . . . . . . . . . . . . . . . <.. . ",
". . . . . . . . . . . . . . . . . . . . . . . . X . . . . . 1.2.3.. . . . . . . . . . . . . . . . . . . . . . . . . . . . . . . ",
". . . . . . . . . . . . . . . . . . . . . . . . . . . . . . 4.5.6.. . . . . . . . . . . . . . . . . . . . . . . . . . . . . . . ",
". . . . . . . . . . . . . . . . . . . . . . . . . . . . . s 7.8.9.0.. 2 . . . . . . . . . . . . . . . . . . . . . . . . . . . . ",
". . . . . . . . . . . . . . . . . . . . . . . . . . . q.R w.e.r.t.y.. u.i.p.. . . . . . . . . . . . . . . . . . . . . . . . . . ",
". . . . . . . . . . . . . . . . . . . . . . . . . . . a.s.. d.f.g.. . . h.h.. . . . . . . . . . . . . . . . . . . . . . . . . . ",
". . . . . . . . . . . . . . . . . . . . . . . . . . . . 2 j.k.l.z.x.c.A v.. . . . . . . . . . . . . . . . .   . . . . . . . . . ",
". . . . . . . . . . . . . . . . & . . . . . . . . . . . . . b.n.m.M.. . . . . . . . . . . . . . . . . . . . . . . . . . . . . . ",
". . . . . . . . . . . & . . . . . . . . . . . . . . . . . . N.B.V.. . . . . . . . . . . . . . . . . . . . . . . . . . . . . . . ",
". . . . . . . . . . . . . . . . . . . . . . . . . . . . . . C.Z.A.. . . . . . . . . . . . . . . . . . . . . . . . . . . . . . . ",
". . . . . . . S.. . . . . . . . . . . . . . . . . . . . . =.D.F.G.=.. . . . . . . . . . . . . & . . . . . . . . . . . . . . . . ",
". . . . . . . . . . . . . . . . . . . . . . . . . . . . . . H.J.. . . . . . . % . . . . . @ . . . . . . . . . . . . . . 5 . . . ",
". . . . . . . . K.. . . . . . . . L.. . . . . . . . . . . . P.I.. . . . . . . . . . . . . . . . . . . . . = . . . . . . . . . . ",
". . . . . . . . . . . . . . . . . . . . . . . . . . . . . . U.Y.. . . . . . . . . . . . . . . . . . . . . . . . . . . . . . . . ",
". . . . . . . . . = . . . . . . . . . . . . . . . . . . . . T.R.. E.. . . . . . . . . . . . . . . . . . . . . . . . . . . . . . ",
". . . . . . . . . . . . . . . . . . . . . . . W.. . . . . . Q.!.~.^ 1 . . . . . . . . . . . . . . . ^.. . . . . . . . . . . . . ",
". . . . . . . . . . . . . . . . . . . . . . . . . . . . . . . /.. . . . . . . . . . . . . . . . . . . . . . . . . . . . . . . . ",
". . . . . . . . . . . . . . . (.. . . . . . . . . . . . . . . . . . . . . . . . . . . . . . . . . . . . . . . . . . . . . . . . ",
". . . . . . . . . . . . . . . . . . . . . . . . . . . . . . . . . . . . . . . . . . . . . . . . . . . . . . . . . . . . . . . . ",
". . . . . . . . . . . . . . . . . . . . . . . . . . . . . . . . . . . . . . . . . . . . . . . . . . . . . . . . . . . . . . . . ",
". . . . . . . . . . . . . . . . . . . . . . . . . . . . . . . . . . . . . . . . . . . . . . . . . . . . . . . . . . . . . . . . ",
"X . . . ).. . . . . . . . . . . . . . . . . = . . . . . . . . . . . . . . . . . . . . . . . . . . & . . . . . . . . . . . . . . ",
". _.. . . . . . . . . . `.. . . . . . . . . . . . . . . . . . . . . . . . . . . . . . . . '.. . . . . . . . . . . . . . . . . . ",
". . . . . . . . . . . . . . . . . . . . . . . . . . . . . . . . . . . . . . . . . . . . . . . . . . . . . . . . . . . . . . . . ",
". . . % . . . . . . . . . . . . . . . . . . . . . . . . . . . . . . . . . . . . . . . . . . . . . . . . . . . . . . . . > o . . ",
". . . . . . . . . . . . . . . . . . . . ( . . . . . . . . . . . . . . . . . . . . . . . . . . . . . . . . . . . . . . . . . . . ",
". . . . . . . . . . . . . . . . . . . . . . . . . . . . . . . . . . . . . . . . . . . . . (.. ].. . . . . . . . . . . . . . . . ",
". . . . . . . . . . . . . & . . . . . . . . . . . . . . . . . . . . . . . . . . . . . . . . . . . . . . . . . . . . . . . . . . ",
". . . . . . . . . . . . . . . . . . . . . . . . . . . . . . . . . . . . . . . . & . . . . . . . . . . . . . . . . . [.. . . . . ",
". . . . . . . . . . . . . . . . . . . . . . . . . . . . . . . . . . . . . . . . . . . . . . . . . . . . . . . . . . . . . . . . ",
". . . . . . . . . > . . . . . . . . . . . . . . . . . . . . . . . . . . . . . . . . . . . . . . . . . . . . . . . . . . . . . . "
};
