/* XPM */
static char *result[] = {
/* columns rows colors chars-per-pixel */
"64 64 180 2 ",
"   c gray5",
".  c black",
"X  c gray6",
"o  c #101010",
"O  c gray9",
"+  c #202020",
"@  c #1D1D1D",
"#  c #F3F3F3",
"$  c gray7",
"%  c #0B0B0B",
"&  c #010101",
"*  c #0C0C0C",
"=  c gray3",
"-  c #020202",
";  c #060606",
":  c gray11",
">  c #DFDFDF",
",  c #2A2A2A",
"<  c #111111",
"1  c white",
"2  c #BBFFFF",
"3  c #FAFFFF",
"4  c gray8",
"5  c #FBFFFF",
"6  c #51FFFF",
"7  c #CEFFFF",
"8  c #BDCFCF",
"9  c #DBFFFF",
"0  c #EFFFFF",
"q  c #F5FFFF",
"w  c #C3FFFF",
"e  c #D4FFFF",
"r  c #FDFFFF",
"t  c #43B8DF",
"y  c #81F2FF",
"u  c #7DFFFF",
"i  c #42D0FC",
"p  c #6EBBFA",
"a  c #A4FFFF",
"s  c #D0EFFE",
"d  c #C2FFFF",
"f  c #65D1DE",
"g  c #C2FCFF",
"h  c #ACF2FF",
"j  c #B7DBFD",
"k  c #ACD3FC",
"l  c #98F8FF",
"z  c #5AF7FF",
"x  c #6BDAFC",
"c  c #055FF0",
"v  c #6FD5FB",
"b  c #C4FFFF",
"n  c #2EA9F8",
"m  c #3A8BF6",
"M  c #3F96F7",
"N  c #4099F7",
"B  c #3686F4",
"V  c #317DF3",
"C  c #2675F3",
"Z  c #5386F4",
"A  c #368EF5",
"S  c #3383F4",
"D  c #CAFFFF",
"F  c #35B4F8",
"G  c #2D6BF2",
"H  c #3381F4",
"J  c #388AF5",
"K  c #388BF5",
"L  c #3591FA",
"P  c #256BE6",
"I  c #C0EEFB",
"U  c #AEF4FF",
"Y  c #F9FFFF",
"T  c #C6FFFF",
"R  c #AEF8FF",
"E  c #85E7FF",
"W  c #5FF1FF",
"Q  c #4CD0FB",
"!  c #40A4F9",
"~  c #92EDFD",
"^  c #C1FFFF",
"/  c #59E9FF",
"(  c #67E0FF",
")  c #66E1FF",
"_  c #69E6FF",
"`  c #57C4FC",
"'  c #4DB2FA",
"]  c #53B9FB",
"[  c #44B0FA",
"{  c #42A9FA",
"}  c #4DABFA",
"|  c #B5FFFF",
" . c #7AD5FC",
".. c #40ACFB",
"X. c #4BB0FB",
"o. c #378AF6",
"O. c #3989F4",
"+. c #3775EB",
"@. c #3197F6",
"#. c #67CDFF",
"$. c #779DE4",
"%. c #FCFFFF",
"&. c #99FFFF",
"*. c #F3FFFF",
"=. c #A1FFFF",
"-. c #52FFFF",
";. c #8BFDFF",
":. c #D5F8FF",
">. c #BFFFFF",
",. c #83E7FD",
"<. c #63DFFD",
"1. c #5ACDFD",
"2. c #59C8FD",
"3. c #5ED1FE",
"4. c #60D5FF",
"5. c #5DCEFE",
"6. c #58C1FD",
"7. c #2DA2F8",
"8. c #A7CDFC",
"9. c #2A95F5",
"0. c #45A3F9",
"q. c #3875DC",
"w. c #53FCFF",
"e. c #71E4FF",
"r. c #C0FFFF",
"t. c #B9FFFF",
"y. c #84D0FC",
"u. c #43BCFA",
"i. c #58D6FF",
"p. c #319DF6",
"a. c #06121E",
"s. c gray30",
"d. c #32A5F7",
"f. c #3892F6",
"g. c #9DFFFF",
"h. c #90BEFE",
"j. c #8DC0C0",
"k. c #88FFFF",
"l. c #9D9D9D",
"z. c #5AEEFF",
"x. c #EDF9FF",
"c. c #79FFFF",
"v. c #8FD5FB",
"b. c #70CEFB",
"n. c #4FCAFC",
"m. c #73A0A0",
"M. c #99F1FF",
"N. c #53DDFF",
"B. c #479EEB",
"V. c #9CF2FF",
"C. c #9AFFFF",
"Z. c gray94",
"A. c #85EFEF",
"S. c #ADCFCF",
"D. c #B3FFFF",
"F. c #E3FFFF",
"G. c #B3F0F0",
"H. c #DFFFFF",
"J. c #D7FFFF",
"K. c #DAFFFF",
"L. c #C0C0C0",
"P. c #E8FFFF",
"I. c #C5F0F0",
"U. c #AEF0F0",
"Y. c #89FFFF",
"T. c #D8F0F0",
"R. c #808080",
"E. c #070707",
"W. c #040404",
"Q. c #373737",
"!. c gray33",
"~. c gray82",
"^. c #222222",
"/. c gray2",
"(. c #A7A7A7",
"). c gray35",
"_. c #272727",
"`. c #1B1B1B",
"'. c #181818",
"]. c gray17",
/* pixels */
"  . . . . . . . . . . . . . . . . . . . . . . . . . . . . . . . . . . . . . . . . . . . . . . . . . . . . . . . . . . . . . . . ",
". . . . . . . . . . . . . . . . . . . . . . . . . . . . . . . . . . . . . . . . . . . . . . . . . . . . . . . . . . . . . . . . ",
". . . . . . . . . . . . . . . . . . . . . . . . . . . . . . . . . . . . . . . . . . . . . . . . . . . . . . . . . . . . . . . . ",
". . . . . . . . . . . . . . . . . . . . . . . . . . . . . . . . . . . . . . . . . . . . . . . . . . . . . . . . . . . . . . . . ",
". . . . . . . . . . . . . . . X . . . . . . . . o . . . . . . . . . . . . . . . . . . . . . . . . . . . . . . . . . . . . . . . ",
". . . . . . . . . . . . . . . . . . . . . O . . . + . . . . . . . . . . . . . . . . . . . . . . . . . . . . . . . . . . . . . . ",
". . . . . . . . . . . . . . . . . . . . . . . . . . . . . . . . . . . . . . . . . . . . . . . . . . . . . . . . . . . . . . . . ",
". . . . . . . . . . . . . . . . . . @ . . . . . . . . . . . . . . . . . . . . . . . . . . . . . . . . . . . . . . . . . . . . . ",
". . . . . . . . . . . . . . . . . . . . . . . . . . . . . . . . . . . . . . . . . . . . . . . . . . . . . . . . . . . . . . . . ",
". . . . . . . . . . . . . . . . . . . . . . . # . . . . . . . . . . . . . . . . . . . . . . . . . . . . . . . . . . . . . . . . ",
". . . . . . . . . . . . . . . . . . . . . . . . . . . . . . . . . . . . . . . . . . . . . . . . . . . . . . . $ . . . . . . . . ",
". . . . . . . . % . . . . . . . . . . . . . . . . . . . . . . . . . . . . . . . . . . . . . . . . . . . . . . . . . . . . . . . ",
". . . . . . . . . . . . . . . . . . . . . . . . . . . . . . . . . . . . . . . . . . . . . . . . . . . . . . . . . . . . . . . . ",
". . . & . . $ . . . . . . . . . . . . . . . . . . . . . . . . . . . . . . . . . . . . . . . . . . . . . . . . . . . . . . . . . ",
". . . . . . . . . . . . . . * . . . . . . . . . . . . . . . . . . . . . . . . . . . . . . . . . . . . . . . . . . . . . . . . . ",
". . . . . . . . . . . . . . . . . . = . . . . . . . . . . . . . . . . . . . . . . . . . . . . . . . . . . . . . . . . . . . . . ",
". . . . . . . . . . . . . . . . . . . . . . . . . . . . . . . . . . . . . . . . . . . . . . . - . . . . . . . . . . . . . . . . ",
". . . . . . . . . . . . . . . . . . . . . . . . . . . . . . ; . . . . . . . . . . . . . . . . . . . . . . . . . . . . . . . . . ",
". . . . . . . . . . . . . . . . . . . . . . . . . . . . : . . . . . . . . . . . . . . . . . . . . . . . . . . . . . . . . . . . ",
". . . . . . . . . . . . . . . . . . . . . . . . . . . . > . . . . . . . . . . . . . . . . . . . . . . . . . . . . . . . . . . . ",
". . . . . . . . . ; . . . . . . . . . . . . . . . . . . . . . . . . . . . . . . . . . . . . . . . . . . . . . . . . . . . . . . ",
". . . . . . . . . . . . . . . . . . . . . . . . . . . . . . . . . . . . . . . . . , . . . . . . . . . . . . . . . . . . . . . . ",
". . . . . . . . . . . . . . . . . . . . . . . . . . . . . . . . . . . . . . . . . . . . . . . . . . . . . . . . . . . . . & . . ",
". . . . . . . . . . . . . . . . . . . . . . . . . . . . . . . . . . . . . . . . . . . . . . . . . . . . X . . . . . . . . . . . ",
". . . . . . . . . . . . . . . . . . . . . . . . . . . * . . . . . . . . . . . . < . . . . . . . . . . . . . . . . . . . . . . . ",
". . . * . . . . . . . . . . . . . . . . . . . . . 1 . . . . . . . . . . . . . . . . . . . . . . . . . . . . . . . . . . . . . . ",
". . . . . . . . . . . . . . . . . . . . . . . . . 2 3 . . . . . . . . . . . . . . . . . . . . . . . . . . . . . . . . . . - . . ",
". . . . 4 . . . . . . . . . . . . . . . . . . . 5 6 7 . . . . . . . . . . 8 9 . . . . . . . . . . . . . . . . . . . . . . . . . ",
". . . . . . . . . . . . . . . . . . . . . . . . 0 . 1 q . . . . . . . . . w e r . . . . . . . . . . . . . . . . . . . . . . . . ",
". . . . . . . . . . . . . . . . . t y u i p . . a . s d . . . . . . . . f g . 9 . . . . . . . . . . . . . . . . . . . . . . . . ",
". . . . . . . . . . . . . . . . . h 3 5 j k l z x c v b n m M M N B V C Z A S D F G H J J K L P I . . . . . . . . . . . . . . . ",
". . . . . . . . . . . . . . . . U Y 1 q T R E W Q ! ~ ^ / ( ) ) _ ` ' ] [ { } |  ...X.K o.O.+.@.#.$.. . . . . . . . . . . . . . ",
". . . . . . . . . . . . . . . . 1 1 %.&.3 1 *.=.-.;.:.>.,.<.1.2.2.3.4.4.5.6.7.=.8.9.0.q.. . . . w.. . . . . . . . . . . . . . . ",
". . . . . . . . . . . . . % . . e.r.1 7 t.b y.u.i.. . r.p.a.s.. . . . . d.f.. g.h.. . . . . . j.k.. . . . . . . . . . . . l.. . ",
". . . . . . . . . . . . . . . . . z.x.*.c.v.b.n.X . . r.. . . . . . . . . . . m.. . . . . . . . Y . . . . . . . . . . . . . . . ",
". . . . . . . . . . . . . . . . . . . M.N.B.. . V.. C.t.. . . . . . . . Z.A.. S.. . . . . . . . . . . . . . . . . . . . . . . . ",
". . . . . . . . . . . . . . . . . . . . . . . . D.. F.G.. . . . . . . . . H.J.K.. . . . . . . . . . . . . . . . . . . . . . . . ",
". . . . . . . . . . . . . . . . . . . . . . . . L.. P.. . . . . . . . . . I.U.. . . . . . . . . . . . . . . . . . . . . . . . . ",
". . . . . . . . . . . . . . . . . . . . . . . . . Y.L.. . . . . . . . . . . . . . . . . . . . . . . . . . . . . . . . . . . . . ",
". . . . . . . . . . . . . . . . . . . . . . . . . T.. . . . . . . . . . . . . . . . . . . . . . . . . . . .   . . . . . . . . . ",
". . . . . . . . . . . . . . . . & . . . . . . . . . . . . . . . . . . . . . . . . . . . . . . . . . . . . . . . . . . . . . . . ",
". . . . . . . . . . . & . . . . . . . . . . . . . . . . . . . . . . . . . . . . . . . . . . . . . . . . . . . . . . . . . . . . ",
". . . . . . . . . . . . . . . . . . . . . . . . . . . . . . . . . . . . . . . . . . . . . . . . . . . . . . . . . . . . . . . . ",
". . . . . . . R.. . . . . . . . . . . . . . . . . . . . . E.. . . E.. . . . . . . . . . . . . & . . . . . . . . . . . . . . . . ",
". . . . . . . . . . . . . . . . . . . . . . . . . . . . . . . . . . . . . . . % . . . . . @ . . . . . . . . . . . . . . : . . . ",
". . . . . . . . W.. . . . . . . . Q.. . . . . . . . . . . . . . . . . . . . . . . . . . . . . . . . . . . = . . . . . . . . . . ",
". . . . . . . . . . . . . . . . . . . . . . . . . . . . . . . . . . . . . . . . . . . . . . . . . . . . . . . . . . . . . . . . ",
". . . . . . . . . = . . . . . . . . . . . . . . . . . . . . . !.. . . . . . . . . . . . . . . . . . . . . . . . . . . . . . . . ",
". . . . . . . . . . . . . . . . . . . . . . . ~.. . . . . . . . . . . . . . . . . . . . . . . . . . ^.. . . . . . . . . . . . . ",
". . . . . . . . . . . . . . . . . . . . . . . . . . . . . . . . . . . . . . . . . . . . . . . . . . . . . . . . . . . . . . . . ",
". . . . . . . . . . . . . . . /.. . . . . . . . . . . . . . . . . . . . . . . . . . . . . . . . . . . . . . . . . . . . . . . . ",
". . . . . . . . . . . . . . . . . . . . . . . . . . . . . . . . . . . . . . . . . . . . . . . . . . . . . . . . . . . . . . . . ",
". . . . . . . . . . . . . . . . . . . . . . . . . . . . . . . . . . . . . . . . . . . . . . . . . . . . . . . . . . . . . . . . ",
". . . . . . . . . . . . . . . . . . . . . . . . . . . . . . . . . . . . . . . . . . . . . . . . . . . . . . . . . . . . . . . . ",
"X . . . (.. . . . . . . . . . . . . . . . . = . . . . . . . . . . . . . . . . . . . . . . . . . . & . . . . . . . . . . . . . . ",
". ).. . . . . . . . . . _.. . . . . . . . . . . . . . . . . . . . . . . . . . . . . . . . `.. . . . . . . . . . . . . . . . . . ",
". . . . . . . . . . . . . . . . . . . . . . . . . . . . . . . . . . . . . . . . . . . . . . . . . . . . . . . . . . . . . . . . ",
". . . % . . . . . . . . . . . . . . . . . . . . . . . . . . . . . . . . . . . . . . . . . . . . . . . . . . . . . . . . - o . . ",
". . . . . . . . . . . . . . . . . . . . 4 . . . . . . . . . . . . . . . . . . . . . . . . . . . . . . . . . . . . . . . . . . . ",
". . . . . . . . . . . . . . . . . . . . . . . . . . . . . . . . . . . . . . . . . . . . . /.. '.. . . . . . . . . . . . . . . . ",
". . . . . . . . . . . . . & . . . . . . . . . . . . . . . . . . . . . . . . . . . . . . . . . . . . . . . . . . . . . . . . . . ",
". . . . . . . . . . . . . . . . . . . . . . . . . . . . . . . . . . . . . . . . & . . . . . . . . . . . . . . . . . ].. . . . . ",
". . . . . . . . . . . . . . . . . . . . . . . . . . . . . . . . . . . . . . . . . . . . . . . . . . . . . . . . . . . . . . . . ",
". . . . . . . . . - . . . . . . . . . . . . . . . . . . . . . . . . . . . . . . . . . . . . . . . . . . . . . . . . . . . . . . "
};
