/* XPM */
static char *result[] = {
/* columns rows colors chars-per-pixel */
"64 64 168 2 ",
"   c gray5",
".  c black",
"X  c gray6",
"o  c #101010",
"O  c gray9",
"+  c #202020",
"@  c #1D1D1D",
"#  c #F3F3F3",
"$  c gray7",
"%  c #0B0B0B",
"&  c #113659",
"*  c #010101",
"=  c #73FFFF",
"-  c #54B9F1",
";  c #48A8BA",
":  c #0C0C0C",
">  c #3773E9",
",  c gray3",
"<  c #336DEB",
"1  c #327ED9",
"2  c #020202",
"3  c #060606",
"4  c #2864B8",
"5  c gray11",
"6  c #2F75BC",
"7  c #DFDFDF",
"8  c #387EE1",
"9  c #3E89BD",
"0  c #57ABFD",
"q  c #377BD6",
"w  c #FCFFFF",
"e  c #EFFFFF",
"r  c #C8FFFF",
"t  c #D5EFFA",
"y  c #0A6198",
"u  c #2A2A2A",
"i  c #FEFFFF",
"p  c white",
"a  c #48DCFD",
"s  c #8DD4FB",
"d  c #F1FFFF",
"f  c #DEFFFF",
"g  c #A2E0E0",
"h  c #ECFFFF",
"j  c #46B5FD",
"k  c #288DEE",
"l  c #F7FFFF",
"z  c #C4FFFF",
"x  c #007DB3",
"c  c #60C0EF",
"v  c #3F92F0",
"b  c #30B0FD",
"n  c #111111",
"m  c #4291EF",
"M  c #3DAEFD",
"N  c #49A0F4",
"B  c #4FB5FC",
"V  c gray8",
"C  c #449FF9",
"Z  c #4CAEFA",
"A  c #4EB2FB",
"S  c #4DB0FA",
"D  c #133B5F",
"F  c #62DDFF",
"G  c #4EB4FA",
"H  c #60EDFF",
"J  c #4DB4FA",
"K  c #AFDFFE",
"L  c #47A1F9",
"P  c #393939",
"I  c #070707",
"U  c #69FFFF",
"Y  c #71F4FE",
"T  c #B0F1FE",
"R  c #78E9FE",
"E  c #57DFDF",
"W  c #919F9F",
"Q  c #A9FFFF",
"!  c #E7FFFF",
"~  c #A5F9FE",
"^  c #C9F8FF",
"/  c #DDFFFF",
"(  c #C9FFFF",
")  c #EFEFEF",
"_  c #9D9D9D",
"`  c #D9FFFF",
"'  c #93FFFF",
"]  c #34CCFE",
"[  c #48A0F9",
"{  c #C7FFFF",
"}  c #B1FFFF",
"|  c #F4FFFF",
" . c #CFFFFF",
".. c #3962DF",
"X. c #79DDFF",
"o. c #2997F3",
"O. c #E5FFFF",
"+. c #327DE8",
"@. c #D1F4FF",
"#. c #4C9AF4",
"$. c #5D7FE6",
"%. c #5EB6F9",
"&. c #A6E0FC",
"*. c #1280F5",
"=. c #082B9B",
"-. c #A2BCF8",
";. c #2CA0F7",
":. c #3174DE",
">. c #68CEFC",
",. c #F9FDFF",
"<. c #99D0FB",
"1. c #1E7DF3",
"2. c #4BBAFF",
"3. c #43B1F9",
"4. c #B3DFFD",
"5. c #47A6F9",
"6. c #2369F1",
"7. c #78F4FE",
"8. c LightSkyBlue",
"9. c #A5E7FD",
"0. c #99CDFB",
"q. c #2376F3",
"w. c #4DB6FB",
"e. c #76A7F3",
"r. c #D8FFFF",
"t. c #83FFFF",
"y. c #EDFFFF",
"u. c #69D5FD",
"i. c #50D0FD",
"p. c #808080",
"a. c #A7E0FA",
"s. c #E2FFFF",
"d. c #F8FFFF",
"f. c #BCFFFF",
"g. c #99EDFF",
"h. c #3287E9",
"j. c #F3FAFF",
"k. c #F5FFFF",
"l. c #D2FAFF",
"z. c #55B2FB",
"x. c #040404",
"c. c #373737",
"v. c #77E6FE",
"b. c #A7F4FF",
"n. c #48DDFF",
"m. c #1687A0",
"M. c #B0FBFF",
"N. c #E6FFFF",
"B. c #BEFFFF",
"V. c #FDFEFF",
"C. c #60D4FF",
"Z. c #4BEEFF",
"A. c #B7FBFF",
"S. c #E0F9FF",
"D. c gray82",
"F. c #222222",
"G. c #DAFFFF",
"H. c #C2FFFF",
"J. c #B9FFFF",
"K. c #C1FFFF",
"L. c #DCFFFF",
"P. c gray2",
"I. c #A7A7A7",
"U. c gray35",
"Y. c #272727",
"T. c #1B1B1B",
"R. c #181818",
"E. c gray17",
/* pixels */
"  . . . . . . . . . . . . . . . . . . . . . . . . . . . . . . . . . . . . . . . . . . . . . . . . . . . . . . . . . . . . . . . ",
". . . . . . . . . . . . . . . . . . . . . . . . . . . . . . . . . . . . . . . . . . . . . . . . . . . . . . . . . . . . . . . . ",
". . . . . . . . . . . . . . . . . . . . . . . . . . . . . . . . . . . . . . . . . . . . . . . . . . . . . . . . . . . . . . . . ",
". . . . . . . . . . . . . . . . . . . . . . . . . . . . . . . . . . . . . . . . . . . . . . . . . . . . . . . . . . . . . . . . ",
". . . . . . . . . . . . . . . X . . . . . . . . o . . . . . . . . . . . . . . . . . . . . . . . . . . . . . . . . . . . . . . . ",
". . . . . . . . . . . . . . . . . . . . . O . . . + . . . . . . . . . . . . . . . . . . . . . . . . . . . . . . . . . . . . . . ",
". . . . . . . . . . . . . . . . . . . . . . . . . . . . . . . . . . . . . . . . . . . . . . . . . . . . . . . . . . . . . . . . ",
". . . . . . . . . . . . . . . . . . @ . . . . . . . . . . . . . . . . . . . . . . . . . . . . . . . . . . . . . . . . . . . . . ",
". . . . . . . . . . . . . . . . . . . . . . . . . . . . . . . . . . . . . . . . . . . . . . . . . . . . . . . . . . . . . . . . ",
". . . . . . . . . . . . . . . . . . . . . . . # . . . . . . . . . . . . . . . . . . . . . . . . . . . . . . . . . . . . . . . . ",
". . . . . . . . . . . . . . . . . . . . . . . . . . . . . . . . . . . . . . . . . . . . . . . . . . . . . . . $ . . . . . . . . ",
". . . . . . . . % . . . . . . . . . . . . . . . . . . . . . . . . . . . . . . . . . . . . . . . . . . . . . . . . . . . . . . . ",
". . . . . . . . . . . . . . . . . . . . . . . . . . . . . . . . & . . . . . . . . . . . . . . . . . . . . . . . . . . . . . . . ",
". . . * . . $ . . . . . . . . . . . . . . . . . . . . . . . . = - ; . . . . . . . . . . . . . . . . . . . . . . . . . . . . . . ",
". . . . . . . . . . . . . . : . . . . . . . . . . . . . . . . . > . . . . . . . . . . . . . . . . . . . . . . . . . . . . . . . ",
". . . . . . . . . . . . . . . . . . , . . . . . . . . . . . . . < . . . . . . . . . . . . . . . . . . . . . . . . . . . . . . . ",
". . . . . . . . . . . . . . . . . . . . . . . . . . . . . . . . 1 . . . . . . . . . . . . . . 2 . . . . . . . . . . . . . . . . ",
". . . . . . . . . . . . . . . . . . . . . . . . . . . . . . 3 . 4 . . . . . . . . . . . . . . . . . . . . . . . . . . . . . . . ",
". . . . . . . . . . . . . . . . . . . . . . . . . . . . 5 . . . 6 . . . . . . . . . . . . . . . . . . . . . . . . . . . . . . . ",
". . . . . . . . . . . . . . . . . . . . . . . . . . . . 7 . . 8 9 . . . . . . . . . . . . . . . . . . . . . . . . . . . . . . . ",
". . . . . . . . . 3 . . . . . . . . . . . . . . . . . . . . . 0 q . . . . . . . . . . . . . . . . . . . . . . . . . . . . . . . ",
". . . . . . . . . . . . . . . . . . . . . . . . . . . . . w e r t y . . . . . . . u . . . . . . . . . . . . . . . . . . . . . . ",
". . . . . . . . . . . . . . . . . . . . . . . . . . . i p . . a s . d f . . . . . . . . . . . . . . . . . . . . . . . . . * . . ",
". . . . . . . . . . . . . . . . . . . . . . . . . . . g h . . j k . l z x . . . . . . . . . . . . . . . X . . . . . . . . . . . ",
". . . . . . . . . . . . . . . . . . . . . . . . . . . : . . c v b . . . . . . . n . . . . . . . . . . . . . . . . . . . . . . . ",
". . . : . . . . . . . . . . . . . . . . . . . . . . . . . . . m M . . . . . . . . . . . . . . . . . . . . . . . . . . . . . . . ",
". . . . . . . . . . . . . . . . . . . . . . . . . . . . . . . N B . . . . . . . . . . . . . . . . . . . . . . . . . . . . 2 . . ",
". . . . V . . . . . . . . . . . . . . . . . . . . . . . . . . C Z . . . . . . . . . . . . . . . . . . . . . . . . . . . . . . . ",
". . . . . . . . . . . . . . . . . . . . . . . . . . . . . . . A S D . . . . . . . . . . . . . . . . . . . . . . . . . . . . . . ",
". . . . . . . . . . . . . . . . . . . . . . . . . . . . . . . F G . . . . . . . . . . . . . . . . . . . . . . . . . . . . . . . ",
". . . . . . . . . . . . . . . . . . . . . . . . . . . . . . . H J . . . . . . . . . . . . . . . . . . . . . . . . . . . . . . . ",
". . . . . . . . . . . . . . . . . . . . . . . . . . . . . . . K L . . . . . P . . . . I . . . . . . . . . . . . . . . . . . . . ",
". . . . . . . . . . . . . . . . . . . . . . . . . . . . . U Y T R E . . . . . . . . . . . . . . . . . . . . . . . . . . . . . . ",
". . . . . . . . . . . . . % . . . . . . . . . . . . . W Q ! h ~ ^ / ( ) . . . . . . . . . . . . . . . . . . . . . . . . . _ . . ",
". . . . . . . . . . . . . . . . . . . . . . . . X p ` ' . . . ] [ . . { } ) . . . . . . . . . . . . . . . . . . . . . . . . . . ",
". . . . . . . . . . . . . . . . . . . . . . . . . . |  .. . ..X.o.. O.. . . . . . . . . . . . . . . . . . . . . . . . . . . . . ",
". . . . . . . . . . . . . . . . . . . . . . . . . . . . . . +.@.#.$.. . . . . . . . . . . . . . . . . . . . . . . . . . . . . . ",
". . . . . . . . . . . . . . . . . . . . . . . . . . . . . . %.p &.*.. . . . . . . . . . . . . . . . . . . . . . . . . . . . . . ",
". . . . . . . . . . . . . . . . . . . . . . . . . . . . . =.-.p } ;.. . . . . . . . . . . . . . . . . . . . . . . . . . . . . . ",
". . . . . . . . . . . . . . . . . . . . . . . . . . . . . :.>.,.<.1.. . . . . . . . . . . . . . . . . . . .   . . . . . . . . . ",
". . . . . . . . . . . . . . . . * . . . . . . . . . . . . 2.3.4.5.6.. . . . . . . . . . . . . . . . . . . . . . . . . . . . . . ",
". . . . . . . . . . . * . . . . . . . . . . . . . . . . . 7.8.9.0.q.w.. . . . . . . . . . . . . . . . . . . . . . . . . . . . . ",
". . . . . . . . . . . . . . . . . . . . . . . . . . . . e.r.t.y.p u.i.. . . . . . . . . . . . . . . . . . . . . . . . . . . . . ",
". . . . . . . p.. . . . . . . . . . . . . . . . . . . . a.p s.d.p f.g.. . . . . . . . . . . . * . . . . . . . . . . . . . . . . ",
". . . . . . . . . . . . . . . . . . . . . . . . . . . h.j.p p p p k.l.z.. . . % . . . . . @ . . . . . . . . . . . . . . 5 . . . ",
". . . . . . . . x.. . . . . . . . c.. . . . . . . . . . v.d.p p i p b.n.. . . . . . . . . . . . . . . . . , . . . . . . . . . . ",
". . . . . . . . . . . . . . . . . . . . . . . . . . . . m.M.N.B.f V.C.. . . . . . . . . . . . . . . . . . . . . . . . . . . . . ",
". . . . . . . . . , . . . . . . . . . . . . . . . . . . . . Z.A.S.. . . . . . . . . . . . . . . . . . . . . . . . . . . . . . . ",
". . . . . . . . . . . . . . . . . . . . . . . D.. . . . . . . . . . . . . . . . . . . . . . . . . . F.. . . . . . . . . . . . . ",
". . . . . . . . . . . . . . . . . . . . . . . . . . . . ( G.H.J.K.r.L.. . . . . . . . . . . . . . . . . . . . . . . . . . . . . ",
". . . . . . . . . . . . . . . P.. . . . . . . . . . . . . . . . . . . . . . . . . . . . . . . . . . . . . . . . . . . . . . . . ",
". . . . . . . . . . . . . . . . . . . . . . . . . . . . . . . . . . . . . . . . . . . . . . . . . . . . . . . . . . . . . . . . ",
". . . . . . . . . . . . . . . . . . . . . . . . . . . . . . . . . . . . . . . . . . . . . . . . . . . . . . . . . . . . . . . . ",
". . . . . . . . . . . . . . . . . . . . . . . . . . . . . . . . . . . . . . . . . . . . . . . . . . . . . . . . . . . . . . . . ",
"X . . . I.. . . . . . . . . . . . . . . . . , . . . . . . . . . . . . . . . . . . . . . . . . . . * . . . . . . . . . . . . . . ",
". U.. . . . . . . . . . Y.. . . . . . . . . . . . . . . . . . . . . . . . . . . . . . . . T.. . . . . . . . . . . . . . . . . . ",
". . . . . . . . . . . . . . . . . . . . . . . . . . . . . . . . . . . . . . . . . . . . . . . . . . . . . . . . . . . . . . . . ",
". . . % . . . . . . . . . . . . . . . . . . . . . . . . . . . . . . . . . . . . . . . . . . . . . . . . . . . . . . . . 2 o . . ",
". . . . . . . . . . . . . . . . . . . . V . . . . . . . . . . . . . . . . . . . . . . . . . . . . . . . . . . . . . . . . . . . ",
". . . . . . . . . . . . . . . . . . . . . . . . . . . . . . . . . . . . . . . . . . . . . P.. R.. . . . . . . . . . . . . . . . ",
". . . . . . . . . . . . . * . . . . . . . . . . . . . . . . . . . . . . . . . . . . . . . . . . . . . . . . . . . . . . . . . . ",
". . . . . . . . . . . . . . . . . . . . . . . . . . . . . . . . . . . . . . . . * . . . . . . . . . . . . . . . . . E.. . . . . ",
". . . . . . . . . . . . . . . . . . . . . . . . . . . . . . . . . . . . . . . . . . . . . . . . . . . . . . . . . . . . . . . . ",
". . . . . . . . . 2 . . . . . . . . . . . . . . . . . . . . . . . . . . . . . . . . . . . . . . . . . . . . . . . . . . . . . . "
};
