/* XPM */
static char *result[] = {
/* columns rows colors chars-per-pixel */
"64 64 166 2 ",
"   c #181425",
".  c #171E33",
"X  c #172634",
"o  c #152742",
"O  c #123A5F",
"+  c #133B5F",
"@  c #0B6FAE",
"#  c #3F5AD4",
"$  c #3655D8",
"%  c #0D6FF1",
"&  c #2265E7",
"*  c #3360E1",
"=  c #306FEE",
"-  c #3A71E3",
";  c #2B6DF3",
":  c #317CF3",
">  c #0099DB",
",  c #0E97F6",
"<  c #3A81EE",
"1  c #2780F4",
"2  c #2782F4",
"3  c #2683F6",
"4  c #2883F5",
"5  c #2386FB",
"6  c #3581F2",
"7  c #3280F4",
"8  c #3384F5",
"9  c #3385F7",
"0  c #3584F4",
"q  c #378AF5",
"w  c #3D89F6",
"e  c #358DF8",
"r  c #2790F7",
"t  c #3E95F6",
"y  c #36A4FA",
"u  c #39ABF9",
"i  c #3EADFA",
"p  c #25B2FB",
"a  c #3DB5FD",
"s  c #38B8FF",
"d  c #4789E4",
"f  c #539AE2",
"g  c #449AF4",
"h  c #7F9AEE",
"j  c #48A6F7",
"k  c #4AA9F1",
"l  c #43A0F8",
"z  c #45A6FA",
"x  c #47AAFB",
"c  c #44AEFA",
"v  c #48A9F9",
"b  c #49AAF9",
"n  c #4FA8FA",
"m  c #4EAFFA",
"M  c #58ACF7",
"N  c #53A6F9",
"B  c #42B4F9",
"V  c #4AB0FB",
"C  c #4DB4FC",
"Z  c #4BBCFB",
"A  c #54B5FB",
"S  c #51B9FB",
"D  c #50BCFA",
"F  c #53BDFB",
"G  c #2CE8F5",
"H  c #49CDFF",
"J  c #5AC2FA",
"K  c #5BC9FD",
"L  c #5DCDFE",
"P  c #5DCFFE",
"I  c #5ED5FE",
"U  c #56D9FD",
"Y  c #57DCFD",
"T  c #78C7FE",
"R  c #4DE8FF",
"E  c #54E4FF",
"W  c #57E6FF",
"Q  c #5BE1FE",
"!  c #4BF5FF",
"~  c #57FFFF",
"^  c #5FFFFF",
"/  c #61E1FE",
"(  c #6CE3FE",
")  c #69E4FF",
"_  c #69E6FF",
"`  c #6AECFF",
"'  c #68F9FF",
"]  c #6DF9FF",
"[  c #68FFFF",
"{  c #77F9FF",
"}  c #79FFFF",
"|  c #97C6FC",
" . c #89DCFF",
".. c #95D0FB",
"X. c #95D1FC",
"o. c #97DBFD",
"O. c #A5DEF6",
"+. c #B5D7FB",
"@. c #B1D4FC",
"#. c #9EEFFF",
"$. c #81FFFF",
"%. c #84FFFF",
"&. c #8AFFFF",
"*. c #96F2FF",
"=. c #97FFFF",
"-. c #9AFFFF",
";. c #AAE9FF",
":. c #B6E0FC",
">. c #B8E0FC",
",. c #A0F0FF",
"<. c #A6F8FF",
"1. c #A7F8FF",
"2. c #A7FAFF",
"3. c #A3FFFF",
"4. c #A5FFFF",
"5. c #A8FEFF",
"6. c #A9FFFF",
"7. c #ADFFFF",
"8. c #B3FAFF",
"9. c #B2FFFF",
"0. c #B4FFFF",
"q. c #B6FFFF",
"w. c #B9FDFE",
"e. c #B8FFFF",
"r. c #BBFFFF",
"t. c #BCFFFF",
"y. c #CFE2FC",
"u. c #CBEFFF",
"i. c #C0FFFF",
"p. c #C1FFFF",
"a. c #C3FFFF",
"s. c #C7FFFF",
"d. c #CBFFFF",
"f. c #CEFFFF",
"g. c #D0F7FF",
"h. c #DBF5FF",
"j. c #D1FFFF",
"k. c #D3FFFF",
"l. c #DEFAFF",
"z. c #D9FFFF",
"x. c #DCFFFF",
"c. c #DDFFFF",
"v. c #DEFFFF",
"b. c #E9F0FE",
"n. c #E3FBFF",
"m. c #E1FFFF",
"M. c #E2FFFF",
"N. c #E4FFFF",
"B. c #E9FCFF",
"V. c #E9FFFF",
"C. c #EDFEFF",
"Z. c #ECFFFF",
"A. c #EEFFFF",
"S. c #F2FFFF",
"D. c #F4FFFF",
"F. c #F5FFFF",
"G. c #F6FFFF",
"H. c #F7FFFF",
"J. c #FFF8FF",
"K. c #F8FFFF",
"L. c #F9FFFF",
"P. c #FAFFFF",
"I. c #FCFFFF",
"U. c #FDFFFF",
"Y. c #FEFFFF",
"T. c white",
/* pixels */
"                                                                      X X                                                       ",
"                                                                                          +                                     ",
"                                      +                     >                                                                   ",
"        O                                                 @ G @                                                     >           ",
"                                                            >               @                         @                         ",
"                                                                                                                                ",
"                                              o                                                                         >       ",
"                                                                                                                                ",
"            .                                       .                                                       +                   ",
"                            +                                                                                                   ",
"                                                                                                                                ",
"                                                                                    >                                           ",
"                        +         @                             O                                       . . .                   ",
"                                                  @                                                   . o o o .                 ",
"                                                            .                                         . o O O o .               ",
"                                                      T.D.s.Y.        F.i.G.T.                        . o O @ O o .             ",
"                                                    L.-.        J.#.        K.D.T.                      . o O O o .             ",
"                                                  T.v.d.    E v.T.H.*.      m.V.                          . o o o .             ",
"                                                      >   g.n.T.T.T.T.B.l.0.              @                 . . .               ",
"                  o                                       ;.u.T.T.T.T.h. .                                                      ",
"                                          @               D X.U.T.T.T.6.2.                                                      ",
"              O                                           N ..8.T.q.p.T !                                                   @   ",
"                                                            Z J T.b.Y k K                             +                         ",
"                                                            - a a.@.u f >                                                       ",
"                                              . . .         $ s <.o.r                                                           ",
"                                            . o o o .         C { ( 7                                                           ",
"                                            . o O O o .       A ' Q w                     +                               +     ",
"                                +           . o O @ O o .     V ] / 8         .                                                 ",
"                                              . o O O o .     i ` I 1                                                           ",
"                                                . o o o T.S.+.c ) L 2 >.T.k.        o                   >           +           ",
"    .                                             . v.A.r.    m _ P 4     e.j.v.                                                ",
"                                                  c.Z.c.4.    y W H %     =.9.M.                                                ",
"                    o                                 T.V.f.:.| 1.,.h O.T.x.T.                                                  ",
"                                                          O C.3.t.w.5.S.                                                        ",
"                                            >                 p %.M ,                                               @           ",
"                                                              n U B ;                                                           ",
"        +                                                     b S v 9                     . . .             +                   ",
"                                                              F l 0 <                   . o o o .       @                       ",
"                                    @                         t x g #                   . o O O o .     @                       ",
"                                                              : z j .                   . o O @ O o . > G >                     ",
"                                                              q e =                       . o O O o .   >                       ",
"          .                                                   3 6 d                         . o o o .   @                       ",
"                                                            y.5 *   [ a.K.e.                  . . .                             ",
"                                              +         T.z.R &         $.I.T.>                                   >             ",
"                    >                                   T.S.}           &.D.                                              +     ",
"                  @ G @                                     Z.P.z.~ ^ 7.N.                                                      ",
"                    >                                             O                             +                               ",
"                                        .                                                                                       ",
"                                          .               .                                                                     ",
"                                            .           .                                                                       ",
"                                              o . . . o                     .                                                   ",
"                                              . o o o .                                 O                                       ",
"                                              . o @ o .                                                                         ",
"                            . . .             . o o o .                                                   +                     ",
"                +         . o o o .           . . . . o           O                                                             ",
"                        . O o O o .         .           .                                                                       ",
"                      . o o o o o .                       .                                       +                             ",
"                      . o O o O .                                                                             O                 ",
"                      . O o o .                                                                                                 ",
"                        . . .                                                                                                   ",
"                                                                                                                                ",
"                                                                                                                                ",
"                                                                                      .                                         ",
"                                                                                                                                "
};
