/* XPM */
static char *result[] = {
/* columns rows colors chars-per-pixel */
"64 64 210 2 ",
"   c gray5",
".  c black",
"X  c gray6",
"o  c #101010",
"O  c gray9",
"+  c #202020",
"@  c #1D1D1D",
"#  c #F3F3F3",
"$  c gray7",
"%  c #0B0B0B",
"&  c #010101",
"*  c #0C0C0C",
"=  c gray3",
"-  c #020202",
";  c #7DFFFF",
":  c #DDFFFF",
">  c #C3DCF5",
",  c #B9DFDF",
"<  c #CCFFFF",
"1  c #A0FFFF",
"2  c #2674E3",
"3  c #2FB3F9",
"4  c #C0FDFE",
"5  c white",
"6  c #DFDFDF",
"7  c #2DB9F3",
"8  c #2785F8",
"9  c #626CE1",
"0  c #B0F7FA",
"q  c #060606",
"w  c #3675E6",
"e  c #3899FC",
"r  c #3C7FF4",
"t  c #0A6199",
"y  c #0099DB",
"u  c #3B84F0",
"i  c #368AF8",
"p  c #377BEB",
"a  c #2A2A2A",
"s  c #3A92F8",
"d  c #3F97F7",
"f  c #3884F2",
"g  c #3C64DB",
"h  c #40A1FB",
"j  c #52C0FD",
"k  c #3870E6",
"l  c #3E68DC",
"z  c #3D9BFA",
"x  c #4EBCFF",
"c  c #3C5FD9",
"v  c #111111",
"b  c #2E71EE",
"n  c #51BEFD",
"m  c #56C3FD",
"M  c #377BEF",
"N  c #2A7EF6",
"B  c #55C5FC",
"V  c #47C7FD",
"C  c #0D6FF4",
"Z  c gray8",
"A  c #010406",
"S  c #050A11",
"D  c #86EFEF",
"F  c #FAFFFF",
"G  c #A3FEFE",
"H  c #8DCAFA",
"J  c #08192A",
"K  c #AAEFEF",
"L  c #F1FFFF",
"P  c #9DC0FA",
"I  c #99D5FD",
"U  c #ACF2FF",
"Y  c #ACD7FC",
"T  c #F7F8FE",
"R  c #EFEFEF",
"E  c #FEFFFF",
"W  c #EAFFFF",
"Q  c #ACFFFF",
"!  c #0761F2",
"~  c #37B0FB",
"^  c #4CE1FF",
"/  c #4694F7",
"(  c #ADFFFF",
")  c #E9FFFF",
"_  c #B5FFFF",
"`  c #3064EC",
"'  c #53BFFD",
"]  c #6DE6FF",
"[  c #36A0F8",
"{  c #BFFFFF",
"}  c #F5FFFF",
"|  c #D4FFFF",
" . c #71A1E5",
".. c #205FE8",
"X. c #51BDFE",
"o. c #61E3FF",
"O. c #4CADF9",
"+. c #E5F3FE",
"@. c #DCFFFF",
"#. c #393939",
"$. c #070707",
"%. c #81A4F4",
"&. c #2689F4",
"*. c #62DAFF",
"=. c #59DBFF",
"-. c #57A7F8",
";. c #1A74F4",
":. c #46A5F9",
">. c #68E3FF",
",. c #66DFFF",
"<. c #3396F7",
"1. c #9D9D9D",
"2. c #2F7EF4",
"3. c #44A0F8",
"4. c #66E0FF",
"5. c #47A2F8",
"6. c #3481F4",
"7. c #65DCFF",
"8. c #43A0F8",
"9. c #3380F4",
"0. c #459EF8",
"q. c #5EE9FF",
"w. c #63E3FF",
"e. c #449EF8",
"r. c #3680F4",
"t. c #2C93F7",
"y. c #9EF4FF",
"u. c #74E4FF",
"i. c #409FF8",
"p. c #267CF4",
"a. c #65BBFB",
"s. c #FDFFFF",
"d. c #A3EBFF",
"f. c #3AA6F9",
"g. c #2990F7",
"h. c #7BCFFC",
"j. c #CAF3FF",
"k. c #2793F8",
"l. c #49C9FD",
"z. c #81FFFF",
"x. c #6FE7FD",
"c. c #65EEFE",
"v. c #B4FBFF",
"b. c #66D8FD",
"n. c #69F2FE",
"m. c #F2FFFF",
"M. c #D9FFFF",
"N. c #DAEBFD",
"B. c #D1F6FE",
"V. c #A1FFFF",
"C. c #C3FFFF",
"Z. c #E1FFFF",
"A. c #C4FFFF",
"S. c #E8FFFF",
"D. c #D0D0D0",
"F. c #D1FFFF",
"G. c #D5FFFF",
"H. c #86FFFF",
"J. c #B2E2FD",
"K. c #B2F1FE",
"L. c #46FFFF",
"P. c #A6CFFB",
"I. c #15C7FC",
"U. c #ECFFFF",
"Y. c #808080",
"T. c #E5FFFF",
"R. c #B0FFFF",
"E. c #F3FFFF",
"W. c #5CFFFF",
"Q. c #E6FFFF",
"!. c #CBFFFF",
"~. c #81CBFB",
"^. c #45C8FC",
"/. c #D6FFFF",
"(. c #C2FFFF",
"). c #ABFCFF",
"_. c #51EBFF",
"`. c #C0FEFF",
"'. c #D0FFFF",
"]. c #5DFFFF",
"[. c #E3FFFF",
"{. c #B4FFFF",
"}. c gray11",
"|. c #040404",
" X c #373737",
".X c #3ADDFF",
"XX c #91FFFF",
"oX c #98FFFF",
"OX c #9CFFFF",
"+X c #B8F8FF",
"@X c #57E5FF",
"#X c #81EBFF",
"$X c #A9FFFF",
"%X c #83FFFF",
"&X c #BAFFFF",
"*X c #EEF6FF",
"=X c #71D6FF",
"-X c #5FC5D0",
";X c #B4E5FF",
":X c #B1E7FF",
">X c #5FCAF0",
",X c gray82",
"<X c #222222",
"1X c gray2",
"2X c #A7A7A7",
"3X c gray35",
"4X c #272727",
"5X c #1B1B1B",
"6X c #181818",
"7X c gray17",
/* pixels */
"  . . . . . . . . . . . . . . . . . . . . . . . . . . . . . . . . . . . . . . . . . . . . . . . . . . . . . . . . . . . . . . . ",
". . . . . . . . . . . . . . . . . . . . . . . . . . . . . . . . . . . . . . . . . . . . . . . . . . . . . . . . . . . . . . . . ",
". . . . . . . . . . . . . . . . . . . . . . . . . . . . . . . . . . . . . . . . . . . . . . . . . . . . . . . . . . . . . . . . ",
". . . . . . . . . . . . . . . . . . . . . . . . . . . . . . . . . . . . . . . . . . . . . . . . . . . . . . . . . . . . . . . . ",
". . . . . . . . . . . . . . . X . . . . . . . . o . . . . . . . . . . . . . . . . . . . . . . . . . . . . . . . . . . . . . . . ",
". . . . . . . . . . . . . . . . . . . . . O . . . + . . . . . . . . . . . . . . . . . . . . . . . . . . . . . . . . . . . . . . ",
". . . . . . . . . . . . . . . . . . . . . . . . . . . . . . . . . . . . . . . . . . . . . . . . . . . . . . . . . . . . . . . . ",
". . . . . . . . . . . . . . . . . . @ . . . . . . . . . . . . . . . . . . . . . . . . . . . . . . . . . . . . . . . . . . . . . ",
". . . . . . . . . . . . . . . . . . . . . . . . . . . . . . . . . . . . . . . . . . . . . . . . . . . . . . . . . . . . . . . . ",
". . . . . . . . . . . . . . . . . . . . . . . # . . . . . . . . . . . . . . . . . . . . . . . . . . . . . . . . . . . . . . . . ",
". . . . . . . . . . . . . . . . . . . . . . . . . . . . . . . . . . . . . . . . . . . . . . . . . . . . . . . $ . . . . . . . . ",
". . . . . . . . % . . . . . . . . . . . . . . . . . . . . . . . . . . . . . . . . . . . . . . . . . . . . . . . . . . . . . . . ",
". . . . . . . . . . . . . . . . . . . . . . . . . . . . . . . . . . . . . . . . . . . . . . . . . . . . . . . . . . . . . . . . ",
". . . & . . $ . . . . . . . . . . . . . . . . . . . . . . . . . . . . . . . . . . . . . . . . . . . . . . . . . . . . . . . . . ",
". . . . . . . . . . . . . . * . . . . . . . . . . . . . . . . . . . . . . . . . . . . . . . . . . . . . . . . . . . . . . . . . ",
". . . . . . . . . . . . . . . . . . = . . . . . . . . . . . . . . . . . . . . . . . . . . . . . . . . . . . . . . . . . . . . . ",
". . . . . . . . . . . . . . . . . . . . . . . . . . . . . . . . . . . . . . . . . . . . . . . - . . . . . . . . . . . . . . . . ",
". . . . . . . . . . . . . . . . . . . . . . . . . . . . . ; : . > , . . . . . . . . . . . . . . . . . . . . . . . . . . . . . . ",
". . . . . . . . . . . . . . . . . . . . . . . . . . . . < 1 . . 2 3 4 5 . . . . . . . . . . . . . . . . . . . . . . . . . . . . ",
". . . . . . . . . . . . . . . . . . . . . . . . . . . . 6 5 . 7 8 9 0 . . . . . . . . . . . . . . . . . . . . . . . . . . . . . ",
". . . . . . . . . q . . . . . . . . . . . . . . . . . . . . . w e r . . . . . . . . . . . . . . . . . . . . . . . . . . . . . . ",
". . . . . . . . . . . . . . . . . . . . . . . . . . . . . t y u i p . . . . . . . a . . . . . . . . . . . . . . . . . . . . . . ",
". . . . . . . . . . . . . . . . . . . . . . . . . . . . . . . s d f . . . . . . . . . . . . . . . . . . . . . . . . . . . & . . ",
". . . . . . . . . . . . . . . . . . . . . . . . . . . . . . g h j k . . . . . . . . . . . . . . . . . . X . . . . . . . . . . . ",
". . . . . . . . . . . . . . . . . . . . . . . . . . . * . . l z x c . . . . . . v . . . . . . . . . . . . . . . . . . . . . . . ",
". . . * . . . . . . . . . . . . . . . . . . . . . . . . . . b n m M . . . . . . . . . . . . . . . . . . . . . . . . . . . . . . ",
". . . . . . . . . . . . . . . . . . . . . . . . . . . . . . N B V C . . . . . . . . . . . . . . . . . . . . . . . . . . . - . . ",
". . . . Z . . . . . . . . . . . . . . . . . . . . . A S . D F 5 G H . . . . . . . . . . . . . . . . . . . . . . . . . . . . . . ",
". . . . . . . . . . . . . . . . . . . . . . . . . J K L 5 . P I U Y T R . . . . . . . . . . . . . . . . . . . . . . . . . . . . ",
". . . . . . . . . . . . . . . . . . . . . . . . . E W Q . . ! ~ ^ / . ( R . . . . . . . . . . . . . . . . . . . . . . . . . . . ",
". . . . . . . . . . . . . . . . . . . . . . . . . E ) _ . . ` ' ] [ . { 5 . . . . . . . . . . . . . . . . . . . . . . . . . . . ",
". . . . . . . . . . . . . . . . . . . . . . . . . . . } |  ...X.o.O.+.@.. . #.. . . . $.. . . . . . . . . . . . . . . . . . . . ",
". . . . . . . . . . . . . . . . . . . . . . . . . . . . . %.&.*.=.-.. . . . . . . . . . . . . . . . . . . . . . . . . . . . . . ",
". . . . . . . . . . . . . % . . . . . . . . . . . . . . . ;.:.>.,.<.. . . . . . . . . . . . . . . . . . . . . . . . . . . 1.. . ",
". . . . . . . . . . . . . . . . . . . . . . . . X . . . . 2.3.4.4.5.. . . . . . . . . . . . . . . . . . . . . . . . . . . . . . ",
". . . . . . . . . . . . . . . . . . . . . . . . . . . . . 6.3.7.,.8.. . . . . . . . . . . . . . . . . . . . . . . . . . . . . . ",
". . . . . . . . . . . . . . . . . . . . . . . . . . . . . 9.0.q.w.e.. . . . . . . . . . . . . . . . . . . . . . . . . . . . . . ",
". . . . . . . . . . . . . . . . . . . . . . . . . . . . . r.t.y.u.i.. . . . . . . . . . . . . . . . . . . . . . . . . . . . . . ",
". . . . . . . . . . . . . . . . . . . . . . . . . . . . . p.a.s.d.f.. . . . . . . . . . . . . . . . . . . . . . . . . . . . . . ",
". . . . . . . . . . . . . . . . . . . . . . . . . . . . . g.h.5 j.k.l.. . . . . . . . . . . . . . . . . . .   . . . . . . . . . ",
". . . . . . . . . . . . . . . . & . . . . . . . . . . z.; x.c.Q v.b.n.. . . . . . . . . . . . . . . . . . . . . . . . . . . . . ",
". . . . . . . . . . . & . . . . . . . . . . . . . 5 m._ M.N.B.( V.C.Z.A.S.5 5 . . . . . . . . . . . . . . . . . . . . . . . . . ",
". . . . . . . . . . . . . . . . . . . . . . . D.F.G.. . H.J.K.L.z.F P.I.. . U.} . . . . . . . . . . . . . . . . . . . . . . . . ",
". . . . . . . Y.. . . . . . . . . . . . . . . T.R.E.. . W.Q.5 !.m.5 ~.^.. . /.(.5 . . . . . . & . . . . . . . . . . . . . . . . ",
". . . . . . . . . . . . . . . . . . . . . . . . . G.5 )._.`.5 5 5 '.].H.[.{.. % . . . . . @ . . . . . . . . . . . . . . }.. . . ",
". . . . . . . . |.. . . . . . . .  X. . . . . . . . . . .XXX(.oXOX: +X@X. . . . . . . . . . . . . . . . . = . . . . . . . . . . ",
". . . . . . . . . . . . . . . . . . . . . . . . . . . . . #X$X%X&X*X=X. . . . . . . . . . . . . . . . . . . . . . . . . . . . . ",
". . . . . . . . . = . . . . . . . . . . . . . . . . . . . . -X;X:X>X. . . . . . . . . . . . . . . . . . . . . . . . . . . . . . ",
". . . . . . . . . . . . . . . . . . . . . . . ,X. . . . . . . . . . . . . . . . . . . . . . . . . . <X. . . . . . . . . . . . . ",
". . . . . . . . . . . . . . . . . . . . . . . . . . . . . . . . . . . . . . . . . . . . . . . . . . . . . . . . . . . . . . . . ",
". . . . . . . . . . . . . . . 1X. . . . . . . . . . . . . . . . . . . . . . . . . . . . . . . . . . . . . . . . . . . . . . . . ",
". . . . . . . . . . . . . . . . . . . . . . . . . . . . . . . . . . . . . . . . . . . . . . . . . . . . . . . . . . . . . . . . ",
". . . . . . . . . . . . . . . . . . . . . . . . . . . . . . . . . . . . . . . . . . . . . . . . . . . . . . . . . . . . . . . . ",
". . . . . . . . . . . . . . . . . . . . . . . . . . . . . . . . . . . . . . . . . . . . . . . . . . . . . . . . . . . . . . . . ",
"X . . . 2X. . . . . . . . . . . . . . . . . = . . . . . . . . . . . . . . . . . . . . . . . . . . & . . . . . . . . . . . . . . ",
". 3X. . . . . . . . . . 4X. . . . . . . . . . . . . . . . . . . . . . . . . . . . . . . . 5X. . . . . . . . . . . . . . . . . . ",
". . . . . . . . . . . . . . . . . . . . . . . . . . . . . . . . . . . . . . . . . . . . . . . . . . . . . . . . . . . . . . . . ",
". . . % . . . . . . . . . . . . . . . . . . . . . . . . . . . . . . . . . . . . . . . . . . . . . . . . . . . . . . . . - o . . ",
". . . . . . . . . . . . . . . . . . . . Z . . . . . . . . . . . . . . . . . . . . . . . . . . . . . . . . . . . . . . . . . . . ",
". . . . . . . . . . . . . . . . . . . . . . . . . . . . . . . . . . . . . . . . . . . . . 1X. 6X. . . . . . . . . . . . . . . . ",
". . . . . . . . . . . . . & . . . . . . . . . . . . . . . . . . . . . . . . . . . . . . . . . . . . . . . . . . . . . . . . . . ",
". . . . . . . . . . . . . . . . . . . . . . . . . . . . . . . . . . . . . . . . & . . . . . . . . . . . . . . . . . 7X. . . . . ",
". . . . . . . . . . . . . . . . . . . . . . . . . . . . . . . . . . . . . . . . . . . . . . . . . . . . . . . . . . . . . . . . ",
". . . . . . . . . - . . . . . . . . . . . . . . . . . . . . . . . . . . . . . . . . . . . . . . . . . . . . . . . . . . . . . . "
};
