/* XPM */
static char *result[] = {
/* columns rows colors chars-per-pixel */
"64 64 213 2 ",
"   c gray5",
".  c black",
"X  c gray6",
"o  c #101010",
"O  c gray9",
"+  c #202020",
"@  c #1D1D1D",
"#  c #F3F3F3",
"$  c gray7",
"%  c #0B0B0B",
"&  c #010101",
"*  c #0C0C0C",
"=  c gray3",
"-  c #020202",
";  c #060606",
":  c gray11",
">  c #DFDFDF",
",  c #2A2A2A",
"<  c #EAFFFF",
"1  c #B1FFFF",
"2  c #FBFFFF",
"3  c #111111",
"4  c #B8FFFF",
"5  c #D9FFFF",
"6  c white",
"7  c #9DFFFF",
"8  c gray8",
"9  c #E2FFFF",
"0  c #E8FFFF",
"q  c #F7FFFF",
"w  c #EFEFEF",
"e  c #47E8FF",
"r  c #73FFFF",
"t  c #48BFFC",
"y  c #18BDFC",
"u  c #BDFFFF",
"i  c #070910",
"p  c #F4FFFF",
"a  c #C2FFFF",
"s  c #BBFFFF",
"d  c #AFAFAF",
"f  c #6FD6FF",
"g  c #C0F8FF",
"h  c #62FFFF",
"j  c #80CEFB",
"k  c #A6D2FB",
"l  c #E1FFFF",
"z  c #65E9FE",
"x  c #4BB5DD",
"c  c #0C1625",
"v  c #050A10",
"b  c #010204",
"n  c #DEF4FE",
"m  c #FBF9FE",
"M  c #7CBFDF",
"N  c #D1FDFE",
"B  c #65D7FF",
"V  c #EEF6FF",
"C  c #DDFFFF",
"Z  c #D0FFFF",
"A  c #F9FFFF",
"S  c #C3FFFF",
"D  c #66DBFD",
"F  c #2896F8",
"G  c #37A0F8",
"H  c #3F9DF8",
"J  c #449FF8",
"K  c #43A0F8",
"L  c #409DF8",
"P  c #3C98F7",
"I  c #48ADF9",
"U  c #3490F7",
"Y  c #2883F6",
"T  c #ABD7FC",
"R  c #72BBF9",
"E  c #1876F5",
"W  c #3479EF",
"Q  c #3C5FD9",
"!  c #376FE6",
"~  c #3884F3",
"^  c #3C7FEB",
"/  c #307CF0",
"(  c #495ADC",
")  c #36B1F8",
"_  c #D3FFFF",
"`  c #B1E7FF",
"'  c #B9FFFF",
"]  c #9CFFFF",
"[  c #F2FFFF",
"{  c #80FFFF",
"}  c #A2FFFF",
"|  c #B3FBFF",
" . c #CAF2FF",
".. c #A4EEFF",
"X. c #74E6FF",
"o. c #63E3FF",
"O. c #66DFFF",
"+. c #66E0FF",
"@. c #67E0FF",
"#. c #62E0FF",
"$. c #6DEAFF",
"%. c #54E6FF",
"&. c #ACF2FF",
"*. c #ABFFFF",
"=. c #49C8FD",
"-. c #56C3FD",
";. c #4EBCFF",
":. c #53C0FD",
">. c #3F97F7",
",. c #3489F8",
"<. c #3D9BFC",
"1. c #297AF4",
"2. c #318AE8",
"3. c #D6FFFF",
"4. c #B4E6FF",
"5. c #83FFFF",
"6. c #98FFFF",
"7. c #CBFFFF",
"8. c #45FFFF",
"9. c #ADFFFF",
"0. c #ACFFFF",
"q. c #FDFFFF",
"w. c #9FF4FF",
"e. c #5EE9FF",
"r. c #65DDFF",
"t. c #68E3FF",
"y. c #62DAFF",
"u. c #51BDFD",
"i. c #53BCFC",
"p. c #3BB2FB",
"a. c #A1DAFD",
"s. c #56CAFD",
"d. c #3D9BFB",
"f. c #419FF9",
"g. c #3A90F6",
"h. c #3B83EF",
"j. c #3D84ED",
"k. c #30B6F8",
"l. c #69D5F0",
"z. c #AAFFFF",
"x. c #C1FFFF",
"c. c #B2F2FE",
"v. c #D1F6FE",
"b. c #64EEFE",
"n. c #7ED6FD",
"m. c #65BBFB",
"M. c #2C92F7",
"N. c #459EF8",
"B. c #439FF8",
"V. c #48A6F9",
"C. c #3793F5",
"Z. c #2060E9",
"A. c #3274F2",
"S. c #0B63F2",
"D. c #80B0F9",
"F. c #FAFFFF",
"G. c #2775F5",
"H. c #337AEF",
"J. c #3E63D9",
"K. c #3971E5",
"L. c #9D9D9D",
"P. c #81EBFF",
"I. c #92FFFF",
"U. c #C0FFFF",
"Y. c #E6FFFF",
"T. c #B1E2FD",
"R. c #DAEBFD",
"E. c #6EE7FD",
"W. c #1E79F5",
"Q. c #287FF4",
"!. c #357FF4",
"~. c #3380F4",
"^. c #3582F4",
"/. c #1F76F5",
"(. c #447FF0",
"). c #71A3E7",
"_. c #97FFFF",
"`. c #5FFFFF",
"'. c #43DAFF",
"]. c #51E9FF",
"[. c #72FFFF",
"{. c #88FFFF",
"}. c #7EFAFF",
"|. c #DFFFFF",
" X c #CEFFFF",
".X c #A7F9FF",
"XX c #BAFFFF",
"oX c #68E0E0",
"OX c #96FFFF",
"+X c #8DFFFF",
"@X c #D2FFFF",
"#X c #B8F0F0",
"$X c #010E16",
"%X c #D1FFFF",
"&X c #CAFFFF",
"*X c #94FFFF",
"=X c #BBC0C0",
"-X c #B2C0C0",
";X c #D4FFFF",
":X c #808080",
">X c #070707",
",X c #040404",
"<X c #373737",
"1X c gray33",
"2X c gray82",
"3X c #222222",
"4X c gray2",
"5X c #A7A7A7",
"6X c gray35",
"7X c #272727",
"8X c #1B1B1B",
"9X c #181818",
"0X c gray17",
/* pixels */
"  . . . . . . . . . . . . . . . . . . . . . . . . . . . . . . . . . . . . . . . . . . . . . . . . . . . . . . . . . . . . . . . ",
". . . . . . . . . . . . . . . . . . . . . . . . . . . . . . . . . . . . . . . . . . . . . . . . . . . . . . . . . . . . . . . . ",
". . . . . . . . . . . . . . . . . . . . . . . . . . . . . . . . . . . . . . . . . . . . . . . . . . . . . . . . . . . . . . . . ",
". . . . . . . . . . . . . . . . . . . . . . . . . . . . . . . . . . . . . . . . . . . . . . . . . . . . . . . . . . . . . . . . ",
". . . . . . . . . . . . . . . X . . . . . . . . o . . . . . . . . . . . . . . . . . . . . . . . . . . . . . . . . . . . . . . . ",
". . . . . . . . . . . . . . . . . . . . . O . . . + . . . . . . . . . . . . . . . . . . . . . . . . . . . . . . . . . . . . . . ",
". . . . . . . . . . . . . . . . . . . . . . . . . . . . . . . . . . . . . . . . . . . . . . . . . . . . . . . . . . . . . . . . ",
". . . . . . . . . . . . . . . . . . @ . . . . . . . . . . . . . . . . . . . . . . . . . . . . . . . . . . . . . . . . . . . . . ",
". . . . . . . . . . . . . . . . . . . . . . . . . . . . . . . . . . . . . . . . . . . . . . . . . . . . . . . . . . . . . . . . ",
". . . . . . . . . . . . . . . . . . . . . . . # . . . . . . . . . . . . . . . . . . . . . . . . . . . . . . . . . . . . . . . . ",
". . . . . . . . . . . . . . . . . . . . . . . . . . . . . . . . . . . . . . . . . . . . . . . . . . . . . . . $ . . . . . . . . ",
". . . . . . . . % . . . . . . . . . . . . . . . . . . . . . . . . . . . . . . . . . . . . . . . . . . . . . . . . . . . . . . . ",
". . . . . . . . . . . . . . . . . . . . . . . . . . . . . . . . . . . . . . . . . . . . . . . . . . . . . . . . . . . . . . . . ",
". . . & . . $ . . . . . . . . . . . . . . . . . . . . . . . . . . . . . . . . . . . . . . . . . . . . . . . . . . . . . . . . . ",
". . . . . . . . . . . . . . * . . . . . . . . . . . . . . . . . . . . . . . . . . . . . . . . . . . . . . . . . . . . . . . . . ",
". . . . . . . . . . . . . . . . . . = . . . . . . . . . . . . . . . . . . . . . . . . . . . . . . . . . . . . . . . . . . . . . ",
". . . . . . . . . . . . . . . . . . . . . . . . . . . . . . . . . . . . . . . . . . . . . . . - . . . . . . . . . . . . . . . . ",
". . . . . . . . . . . . . . . . . . . . . . . . . . . . . . ; . . . . . . . . . . . . . . . . . . . . . . . . . . . . . . . . . ",
". . . . . . . . . . . . . . . . . . . . . . . . . . . . : . . . . . . . . . . . . . . . . . . . . . . . . . . . . . . . . . . . ",
". . . . . . . . . . . . . . . . . . . . . . . . . . . . > . . . . . . . . . . . . . . . . . . . . . . . . . . . . . . . . . . . ",
". . . . . . . . . ; . . . . . . . . . . . . . . . . . . . . . . . . . . . . . . . . . . . . . . . . . . . . . . . . . . . . . . ",
". . . . . . . . . . . . . . . . . . . . . . . . . . . . . . . . . . . . . . . . . , . . . . . . . . . . . . . . . . . . . . . . ",
". . . . . . . . . . . . . . . . . . . . . . . . . . . . . . . . . . . . . . . . . . . . . . . . . . . . . . . . . . . . . & . . ",
". . . . . . . . . . . . . . . . . . . . < . . . . . . . . . . . . . . . . . . . . . . . . . . . . . . . X . . . . . . . . . . . ",
". . . . . . . . . . . . . . . . . . . . 1 2 . . . . . * . . . . . . . . . . . . 3 . . . . . . . . . . . . . . . . . . . . . . . ",
". . . * . . . . . . . . . . . . . . . . 4 5 6 . . . . . . . . . . . . . . . . . . . . . . . . . . . . . . . . . . . . . . . . . ",
". . . . . . . . . . . . . . . . . . . 7 . . 6 . . . . . . . . . . . . . . . . . . . . . . . . . . . . . . . . . . . . . . - . . ",
". . . . 8 . . . . . . . . . . . . . . 9 . . 0 . . . . . . . . . . q w . . . . . . . . . . . . . . . . . . . . . . . . . . . . . ",
". . . . . . . . . . . . . . . . . . e r t y u i . . . . . . . . p a s d . . . . . . . . . q . . . . . . . . . . . . . . . . . . ",
". . . . . . . . . . . . . . . . . f g h j k l z x c v b . . . . n . . m . . . . . . b . M N . . . . . . . . . . . . . . . . . . ",
". . . . . . . . . . . . . . . . B V C Z 6 A S D F G H J K J L P I U Y T R E W Q ! ~ ^ / ( ) _ . . . . . . . . . . . . . . . . . ",
". . . . . . . . . . . . . . . . ` ' ] 6 [ { } |  ...X.o.O.+.@.#.o.$.%.&.*.=.-.;.:.>.,.<.1.2.3.. . . . . . . . . . . . . . . . . ",
". . . . . . . . . . . . . . . . 4.5.6.6 7.8.9.0.6 q.w.e.r.+.t.y.u.i.p.a.6 s.u.d.f.g.h.j.k.. . . . . . . . . . . . . . . . . . . ",
". . . . . . . . . . . . . % . . l.z.x.6 6 c.v.b.n.m.M.N.K B.V.C.Z.A.S.D.F.G.H.J.K.. . . . . u . . . . . . . . . . . . . . L.. . ",
". . . . . . . . . . . . . . . . . P.I.U.Y.T.R.E.W.Q.!.~.~.^./.(.).. . . _.. . . . . . . 6 `.' . . . . . . . . . . . . . . . . . ",
". . . . . . . . . . . . . . . . . . '.].[.{.5 }.. . . . . . . . |.. . 6 . . . . . . . . .  X. . . . . . . . . . . . . . . . . . ",
". . . . . . . . . . . . . . . . . . . .X. . XXoX. . . . . . . . 6 OX+X6 . . . . . . . . . . . . . . . . . . . . . . . . . . . . ",
". . . . . . . . . . . . . . . . . . . 6 . . [ . . . . . . . . . . @XS #X. . . . . . . . . . . . . . . . . . . . . . . . . . . . ",
". . . . . . . . . . . . . . . . . . $X%X&X*X6 . . . . . . . . . . =X-X. . . . . . . . . . . . . . . . . . . . . . . . . . . . . ",
". . . . . . . . . . . . . . . . . . . . 0.;X. . . . . . . . . . . . . . . . . . . . . . . . . . . . . . . .   . . . . . . . . . ",
". . . . . . . . . . . . . . . . & . . . a 6 . . . . . . . . . . . . . . . . . . . . . . . . . . . . . . . . . . . . . . . . . . ",
". . . . . . . . . . . & . . . . . . . . . . . . . . . . . . . . . . . . . . . . . . . . . . . . . . . . . . . . . . . . . . . . ",
". . . . . . . . . . . . . . . . . . . . . . . . . . . . . . . . . . . . . . . . . . . . . . . . . . . . . . . . . . . . . . . . ",
". . . . . . . :X. . . . . . . . . . . . . . . . . . . . . >X. . . >X. . . . . . . . . . . . . & . . . . . . . . . . . . . . . . ",
". . . . . . . . . . . . . . . . . . . . . . . . . . . . . . . . . . . . . . . % . . . . . @ . . . . . . . . . . . . . . : . . . ",
". . . . . . . . ,X. . . . . . . . <X. . . . . . . . . . . . . . . . . . . . . . . . . . . . . . . . . . . = . . . . . . . . . . ",
". . . . . . . . . . . . . . . . . . . . . . . . . . . . . . . . . . . . . . . . . . . . . . . . . . . . . . . . . . . . . . . . ",
". . . . . . . . . = . . . . . . . . . . . . . . . . . . . . . 1X. . . . . . . . . . . . . . . . . . . . . . . . . . . . . . . . ",
". . . . . . . . . . . . . . . . . . . . . . . 2X. . . . . . . . . . . . . . . . . . . . . . . . . . 3X. . . . . . . . . . . . . ",
". . . . . . . . . . . . . . . . . . . . . . . . . . . . . . . . . . . . . . . . . . . . . . . . . . . . . . . . . . . . . . . . ",
". . . . . . . . . . . . . . . 4X. . . . . . . . . . . . . . . . . . . . . . . . . . . . . . . . . . . . . . . . . . . . . . . . ",
". . . . . . . . . . . . . . . . . . . . . . . . . . . . . . . . . . . . . . . . . . . . . . . . . . . . . . . . . . . . . . . . ",
". . . . . . . . . . . . . . . . . . . . . . . . . . . . . . . . . . . . . . . . . . . . . . . . . . . . . . . . . . . . . . . . ",
". . . . . . . . . . . . . . . . . . . . . . . . . . . . . . . . . . . . . . . . . . . . . . . . . . . . . . . . . . . . . . . . ",
"X . . . 5X. . . . . . . . . . . . . . . . . = . . . . . . . . . . . . . . . . . . . . . . . . . . & . . . . . . . . . . . . . . ",
". 6X. . . . . . . . . . 7X. . . . . . . . . . . . . . . . . . . . . . . . . . . . . . . . 8X. . . . . . . . . . . . . . . . . . ",
". . . . . . . . . . . . . . . . . . . . . . . . . . . . . . . . . . . . . . . . . . . . . . . . . . . . . . . . . . . . . . . . ",
". . . % . . . . . . . . . . . . . . . . . . . . . . . . . . . . . . . . . . . . . . . . . . . . . . . . . . . . . . . . - o . . ",
". . . . . . . . . . . . . . . . . . . . 8 . . . . . . . . . . . . . . . . . . . . . . . . . . . . . . . . . . . . . . . . . . . ",
". . . . . . . . . . . . . . . . . . . . . . . . . . . . . . . . . . . . . . . . . . . . . 4X. 9X. . . . . . . . . . . . . . . . ",
". . . . . . . . . . . . . & . . . . . . . . . . . . . . . . . . . . . . . . . . . . . . . . . . . . . . . . . . . . . . . . . . ",
". . . . . . . . . . . . . . . . . . . . . . . . . . . . . . . . . . . . . . . . & . . . . . . . . . . . . . . . . . 0X. . . . . ",
". . . . . . . . . . . . . . . . . . . . . . . . . . . . . . . . . . . . . . . . . . . . . . . . . . . . . . . . . . . . . . . . ",
". . . . . . . . . - . . . . . . . . . . . . . . . . . . . . . . . . . . . . . . . . . . . . . . . . . . . . . . . . . . . . . . "
};
