/* XPM */
static char *result[] = {
/* columns rows colors chars-per-pixel */
"64 64 150 2 ",
"   c #181425",
".  c #171E33",
"X  c #172634",
"o  c #152742",
"O  c #123A5F",
"+  c #133B5F",
"@  c #0B6FAE",
"#  c #1874F2",
"$  c #3863E3",
"%  c #3C7AE9",
"&  c #3D7FED",
"*  c #2A70F3",
"=  c #2B79F3",
"-  c #3478F3",
";  c #347FF3",
":  c #0099DB",
">  c #2A8AEC",
",  c #3686F4",
"<  c #378BF6",
"1  c #388AF5",
"2  c #388BF5",
"3  c #388AF6",
"4  c #388CF6",
"5  c #308EFB",
"6  c #2191F5",
"7  c #2898F7",
"8  c #3097F6",
"9  c #3F96F7",
"0  c #3C9AF6",
"q  c #3B9EF8",
"w  c #32ABF8",
"e  c #34ACF8",
"r  c #39AAFA",
"t  c #3FA9FB",
"y  c #24BBFA",
"u  c #4097F7",
"i  c #409AF7",
"p  c #7199F6",
"a  c #48A0F6",
"s  c #43A6FA",
"d  c #46A4F8",
"f  c #4AA4F9",
"g  c #4DAEFA",
"h  c #4FB3FA",
"j  c #4CB5FB",
"k  c #4BB3FD",
"l  c #55BBFC",
"z  c #63BBFB",
"x  c #70BBF9",
"c  c #2BC6FA",
"v  c #2CE8F5",
"b  c #42C4FA",
"n  c #41C6FA",
"m  c #44C0FD",
"M  c #57C4FC",
"N  c #59C7FD",
"B  c #59C8FD",
"V  c #5ACEFD",
"C  c #43D3FB",
"Z  c #4ED3FF",
"A  c #4ED6FC",
"S  c #5ED0FE",
"D  c #5ED1FE",
"F  c #5DDFFF",
"G  c #77CEFB",
"H  c #61D7FF",
"J  c #62DDFD",
"K  c #70DBFE",
"L  c #56E0FF",
"P  c #57EDFF",
"I  c #53F1FF",
"U  c #55FFFF",
"Y  c #5BFFFF",
"T  c #67E0FF",
"R  c #66E1FF",
"E  c #69E6FF",
"W  c #74E2FC",
"Q  c #7CE6FD",
"!  c #78E8FF",
"~  c #74F2FF",
"^  c #77FEFF",
"/  c #76FFFF",
"(  c #7DFFFF",
")  c #80CFF1",
"_  c #8DC2FA",
"`  c #99C6FC",
"'  c #87D3FB",
"]  c #80DDFD",
"[  c #87DDFD",
"{  c #8FDAFC",
"}  c #ACDCF9",
"|  c #8EEDFF",
" . c #91E9FD",
".. c #81F2FF",
"X. c #81F7FF",
"o. c #85FFFF",
"O. c #8AFCFF",
"+. c #90FFFF",
"@. c #97FFFF",
"#. c #99FFFF",
"$. c #9EFFFF",
"%. c #BFE0FD",
"&. c #ACF2FF",
"*. c #AEF4FF",
"=. c #A3FFFF",
"-. c #A4FFFF",
";. c #B1FFFF",
":. c #B2FFFF",
">. c #B6FFFF",
",. c #B8FEFF",
"<. c #B9FFFF",
"1. c #BBFFFF",
"2. c #BCFFFF",
"3. c #BEFFFF",
"4. c #C9DEFE",
"5. c #C7F5FF",
"6. c #C0FFFF",
"7. c #C1FFFF",
"8. c #C4FFFF",
"9. c #C5FFFF",
"0. c #C9FAFF",
"q. c #C8FFFF",
"w. c #CDFFFF",
"e. c #CEFFFF",
"r. c #CFFFFF",
"t. c #D1FFFF",
"y. c #DAFFFF",
"u. c #DDFFFF",
"i. c #DFFFFF",
"p. c #E2FFFF",
"a. c #E4FFFF",
"s. c #E5FFFF",
"d. c #E7FFFF",
"f. c #E8FFFF",
"g. c #EBFFFF",
"h. c #EFFFFF",
"j. c azure",
"k. c #F2FFFF",
"l. c #F3FFFF",
"z. c #F4FFFF",
"x. c #F5FFFF",
"c. c #F6FFFF",
"v. c #FFFBFF",
"b. c #F9FCFF",
"n. c #F9FFFF",
"m. c #FAFFFF",
"M. c #FBFFFF",
"N. c #FCFFFF",
"B. c #FDFFFF",
"V. c white",
/* pixels */
"                                                                      X X                                                       ",
"                                                                                          +                                     ",
"                                      +                     :                                                                   ",
"        O                                                 @ v @                                                     :           ",
"                                                            :               @                         @                         ",
"                                                                                                                                ",
"                                              o                                                                         :       ",
"                                                                                                                                ",
"            .                                       .                                                       +                   ",
"                            +                                                                                                   ",
"                                                                                                                                ",
"                                                                                    :                                           ",
"                        +         @                             O                                       . . .                   ",
"                                                  @                                                   . o o o .                 ",
"                                                            .   )                                     . o O O o .               ",
"                                                          n.o.Y K }                                   . o O @ O o .             ",
"                                                            ;.  > &                                     . o O O o .             ",
"                                                                $ 5                                       . o o o .             ",
"                                                      :         2 1   +                   @                 . . .               ",
"                  o                                           @ < 2                                                             ",
"                                          @                   % 4 1                                                             ",
"              O                                           @ : a k ;                                                         @   ",
"                                                              6 t *                                   +                         ",
"                                                            4.` G c     :                                                       ",
"                                              . . .   h.s.:.@.=.>.7.d.V.                                                        ",
"                                            . o o o i.i.      7 f 0   c.y.                                                      ",
"                                            . o O O g.p.9.  e l s 8 q.z.f.                +                               +     ",
"                                +           . o O @ O o V.  b N r p <.        .                                                 ",
"                                              . o O O o .     S j -                                                             ",
"                                                . o o o .     H h =                 o                   :           +           ",
"    .                                             . . .       D M ,                                                             ",
"                                                              B E i                                                             ",
"                    o                                         B R 9                                                             ",
"                                                          O   V R u                                                             ",
"                                            :                 J T 3                                                 @           ",
"                                                            n ] L y                                                             ",
"        +                                             w.;.r.w.2.6.1.a.V.                  . . .             +                   ",
"                                                  j.d.l./     5. .W t.V.a.z.            . o o o .       @                       ",
"                                    @           u.+.          O.q #     $.-.V.          . o O O o .     @                       ",
"                                                    V.3.B.  m U C ' 0.s.N.              . o O @ O o . : v :                     ",
"                                                          z w -.I X.                      . o O O o .   :                       ",
"          .                                               x [ k.| Q                         . o o o .   @                       ",
"                                                        g { 8.V.,._ d                         . . .                             ",
"                                              +         F ^ <.n.8.%.A         :                                   :             ",
"                    :                                   ! M.e.#.x.M.(                                                     +     ",
"                  @ v @                                   b.V.N.V.m...                                                          ",
"                    :                                     P 6.V.n.&.Z                           +                               ",
"                                        .                   ~ v.*.                                                              ",
"                                          .               .                                                                     ",
"                                            .           .                                                                       ",
"                                              o . . . o                     .                                                   ",
"                                              . o o o .                                 O                                       ",
"                                              . o @ o .                                                                         ",
"                            . . .             . o o o .                                                   +                     ",
"                +         . o o o .           . . . . o           O                                                             ",
"                        . O o O o .         .           .                                                                       ",
"                      . o o o o o .                       .                                       +                             ",
"                      . o O o O .                                                                             O                 ",
"                      . O o o .                                                                                                 ",
"                        . . .                                                                                                   ",
"                                                                                                                                ",
"                                                                                                                                ",
"                                                                                      .                                         ",
"                                                                                                                                "
};
