/* XPM */
static char *result[] = {
/* columns rows colors chars-per-pixel */
"64 64 127 2 ",
"   c gray5",
".  c black",
"X  c gray6",
"o  c #101010",
"O  c gray9",
"+  c #202020",
"@  c #1D1D1D",
"#  c #F3F3F3",
"$  c gray7",
"%  c #0B0B0B",
"&  c #010101",
"*  c #0C0C0C",
"=  c gray3",
"-  c #020202",
";  c #060606",
":  c gray11",
">  c #DFDFDF",
",  c #2A2A2A",
"<  c #111111",
"1  c white",
"2  c gray8",
"3  c #C3FFFF",
"4  c #C7EFEF",
"5  c #709F9F",
"6  c #CDFFFF",
"7  c #439BDB",
"8  c #61D7FF",
"9  c #C0C0C0",
"0  c #DAFFFF",
"q  c #F3FFFF",
"w  c #C7FFFF",
"e  c #56C2FC",
"r  c #5DD7FD",
"t  c #C0EDFE",
"y  c #C0EBFE",
"u  c #8CF0FF",
"i  c #92E3FF",
"p  c #D3EFEF",
"a  c #62EFEF",
"s  c #B4FFFF",
"d  c #69FFFF",
"f  c #A0B0EB",
"g  c #6589E4",
"h  c #388AF5",
"j  c #3E95F6",
"k  c #59CEFD",
"l  c #B1F0FF",
"z  c #B0EBFF",
"x  c #3E8AEF",
"c  c #2E6BC4",
"v  c #2B65B6",
"b  c #2A67B7",
"n  c #3072B9",
"m  c #3873BF",
"M  c #487FE0",
"N  c #ECFFFF",
"B  c #6AAEF4",
"V  c #458EEC",
"C  c #429DF8",
"Z  c #5FE7FD",
"A  c #A1CEFB",
"S  c #4CA0F8",
"D  c #7CD3FB",
"F  c #8FFFFF",
"G  c #73BDF9",
"H  c #85BBF9",
"J  c #E3FFFF",
"K  c #C4F0FF",
"L  c #79F0FF",
"P  c #477FE2",
"I  c #4CB6F9",
"U  c #52BAFB",
"Y  c #63DFFF",
"T  c #67F5FF",
"R  c #D8F5FF",
"E  c #85FDFF",
"W  c #B3FAFF",
"Q  c #9CE6FF",
"!  c #E1F8FF",
"~  c #BDFDFF",
"^  c #4061D6",
"/  c #3C76E6",
"(  c #62EEFE",
")  c #BDD8FC",
"_  c #3A82EF",
"`  c #4189EB",
"'  c #76C5FA",
"]  c #9CC5FA",
"[  c #73E1FE",
"{  c #4FBBFA",
"}  c #8FD3FB",
"|  c #66F2FF",
" . c #9D9D9D",
".. c #EAFFFF",
"X. c #0099DB",
"o. c #E1FFFF",
"O. c #B3C0EF",
"+. c #3D6FE0",
"@. c #4496F2",
"#. c #4BB1F9",
"$. c #7FEEFE",
"%. c #F6FFFF",
"&. c #73C8D0",
"*. c #A0FAFF",
"=. c #65EBFF",
"-. c #A9B0B0",
";. c #93C0C0",
":. c #4E8ACD",
">. c #7AB1F8",
",. c #4BB5F9",
"<. c #D4F0F0",
"1. c #5A8080",
"2. c gray94",
"3. c #808080",
"4. c #070707",
"5. c #040404",
"6. c #373737",
"7. c gray33",
"8. c gray82",
"9. c #222222",
"0. c gray2",
"q. c #A7A7A7",
"w. c gray35",
"e. c #272727",
"r. c #1B1B1B",
"t. c #181818",
"y. c gray17",
/* pixels */
"  . . . . . . . . . . . . . . . . . . . . . . . . . . . . . . . . . . . . . . . . . . . . . . . . . . . . . . . . . . . . . . . ",
". . . . . . . . . . . . . . . . . . . . . . . . . . . . . . . . . . . . . . . . . . . . . . . . . . . . . . . . . . . . . . . . ",
". . . . . . . . . . . . . . . . . . . . . . . . . . . . . . . . . . . . . . . . . . . . . . . . . . . . . . . . . . . . . . . . ",
". . . . . . . . . . . . . . . . . . . . . . . . . . . . . . . . . . . . . . . . . . . . . . . . . . . . . . . . . . . . . . . . ",
". . . . . . . . . . . . . . . X . . . . . . . . o . . . . . . . . . . . . . . . . . . . . . . . . . . . . . . . . . . . . . . . ",
". . . . . . . . . . . . . . . . . . . . . O . . . + . . . . . . . . . . . . . . . . . . . . . . . . . . . . . . . . . . . . . . ",
". . . . . . . . . . . . . . . . . . . . . . . . . . . . . . . . . . . . . . . . . . . . . . . . . . . . . . . . . . . . . . . . ",
". . . . . . . . . . . . . . . . . . @ . . . . . . . . . . . . . . . . . . . . . . . . . . . . . . . . . . . . . . . . . . . . . ",
". . . . . . . . . . . . . . . . . . . . . . . . . . . . . . . . . . . . . . . . . . . . . . . . . . . . . . . . . . . . . . . . ",
". . . . . . . . . . . . . . . . . . . . . . . # . . . . . . . . . . . . . . . . . . . . . . . . . . . . . . . . . . . . . . . . ",
". . . . . . . . . . . . . . . . . . . . . . . . . . . . . . . . . . . . . . . . . . . . . . . . . . . . . . . $ . . . . . . . . ",
". . . . . . . . % . . . . . . . . . . . . . . . . . . . . . . . . . . . . . . . . . . . . . . . . . . . . . . . . . . . . . . . ",
". . . . . . . . . . . . . . . . . . . . . . . . . . . . . . . . . . . . . . . . . . . . . . . . . . . . . . . . . . . . . . . . ",
". . . & . . $ . . . . . . . . . . . . . . . . . . . . . . . . . . . . . . . . . . . . . . . . . . . . . . . . . . . . . . . . . ",
". . . . . . . . . . . . . . * . . . . . . . . . . . . . . . . . . . . . . . . . . . . . . . . . . . . . . . . . . . . . . . . . ",
". . . . . . . . . . . . . . . . . . = . . . . . . . . . . . . . . . . . . . . . . . . . . . . . . . . . . . . . . . . . . . . . ",
". . . . . . . . . . . . . . . . . . . . . . . . . . . . . . . . . . . . . . . . . . . . . . . - . . . . . . . . . . . . . . . . ",
". . . . . . . . . . . . . . . . . . . . . . . . . . . . . . ; . . . . . . . . . . . . . . . . . . . . . . . . . . . . . . . . . ",
". . . . . . . . . . . . . . . . . . . . . . . . . . . . : . . . . . . . . . . . . . . . . . . . . . . . . . . . . . . . . . . . ",
". . . . . . . . . . . . . . . . . . . . . . . . . . . . > . . . . . . . . . . . . . . . . . . . . . . . . . . . . . . . . . . . ",
". . . . . . . . . ; . . . . . . . . . . . . . . . . . . . . . . . . . . . . . . . . . . . . . . . . . . . . . . . . . . . . . . ",
". . . . . . . . . . . . . . . . . . . . . . . . . . . . . . . . . . . . . . . . . , . . . . . . . . . . . . . . . . . . . . . . ",
". . . . . . . . . . . . . . . . . . . . . . . . . . . . . . . . . . . . . . . . . . . . . . . . . . . . . . . . . . . . . & . . ",
". . . . . . . . . . . . . . . . . . . . . . . . . . . . . . . . . . . . . . . . . . . . . . . . . . . . X . . . . . . . . . . . ",
". . . . . . . . . . . . . . . . . . . . . . . . . . . * . . . . . . . . . . . . < . . . . . . . . . . . . . . . . . . . . . . . ",
". . . * . . . . . . . . . . . . . . . . . . . . . . . . . . . . . . . . . . . . . . . . . . . . . . . . . . . . . . . . . . . . ",
". . . . . . . . . . . . . . . . . . . . . . . . . . . . . . . . . . 1 . . . . . . . . . . . . . . . . . . . . . . . . . . - . . ",
". . . . 2 . . . . . . . . . . . . . . . . . . . . . . . . . . . . 1 3 . . . . . . . . . . . . . . . . . . . . . . . . . . . . . ",
". . . . . . . . . . . . . . . . . . . . . . 4 5 . . . . . . . . . 1 6 1 . . . . . . . . 7 8 . . . 9 . . . . . . . . . . . . . . ",
". . . . . . . . . . . . . . . . . . . . . 0 q 6 . . . . . . . . . w . 6 . . . . . e r t y u i . . p . . . . . . . . . . . . . . ",
". . . . . . . . . . . . . a . . . . . . . 1 . s . . . . . . . . d 6 . f g h h h h j k l 0 1 1 z . 0 . . . . . . . . . . . . . . ",
". . . . . . . . . . . . . x c v b b n m M N B V C C C C C C C C Z A C C S D F G C H 1 1 1 1 J K L s . . . . . . . . . . . . . . ",
". . . . . . . . . . . . . . . . . . P V C s I C C C C C U Y T R E W Y Q ! 1 1 1 R ~ 1 1 1 1 J w s s . . . . . . . . . . . . . . ",
". . . . . . . . . . . . . % . . . . . . . s . d ^ ^ / h h h h h ( ) _ / ` ' ] [ { } F 1 1 1 1 | . s . . . . . . . . . . .  .. . ",
". . . . . . . . . . . . . . . . . . . . . ..X.0 X . . . . . . . d o.. O.. . +.@.#.$.s 1 1 %.0 . . w . . . . . . . . . . . . . . ",
". . . . . . . . . . . . . . . . . . . . . 1 1 6 . . . . . . . . d s . 1 . . . . . &.) w 1 *.=.. . 0 . . . . . . . . . . . . . . ",
". . . . . . . . . . . . . . . . . . . . . . -.;.. . . . . . . . . w . 6 . . . . . . . :.>.,.. . . <.. . . . . . . . . . . . . . ",
". . . . . . . . . . . . . . . . . . . . . . . . . . . . . . . . . 1 6 1 . . . . . . . . . . . . . 1.. . . . . . . . . . . . . . ",
". . . . . . . . . . . . . . . . . . . . . . . . . . . . . . . . . . 2.. . . . . . . . . . . . . . . . . . . . . . . . . . . . . ",
". . . . . . . . . . . . . . . . . . . . . . . . . . . . . . . . . . . . . . . . . . . . . . . . . . . . . .   . . . . . . . . . ",
". . . . . . . . . . . . . . . . & . . . . . . . . . . . . . . . . . . . . . . . . . . . . . . . . . . . . . . . . . . . . . . . ",
". . . . . . . . . . . & . . . . . . . . . . . . . . . . . . . . . . . . . . . . . . . . . . . . . . . . . . . . . . . . . . . . ",
". . . . . . . . . . . . . . . . . . . . . . . . . . . . . . . . . . . . . . . . . . . . . . . . . . . . . . . . . . . . . . . . ",
". . . . . . . 3.. . . . . . . . . . . . . . . . . . . . . 4.. . . 4.. . . . . . . . . . . . . & . . . . . . . . . . . . . . . . ",
". . . . . . . . . . . . . . . . . . . . . . . . . . . . . . . . . . . . . . . % . . . . . @ . . . . . . . . . . . . . . : . . . ",
". . . . . . . . 5.. . . . . . . . 6.. . . . . . . . . . . . . . . . . . . . . . . . . . . . . . . . . . . = . . . . . . . . . . ",
". . . . . . . . . . . . . . . . . . . . . . . . . . . . . . . . . . . . . . . . . . . . . . . . . . . . . . . . . . . . . . . . ",
". . . . . . . . . = . . . . . . . . . . . . . . . . . . . . . 7.. . . . . . . . . . . . . . . . . . . . . . . . . . . . . . . . ",
". . . . . . . . . . . . . . . . . . . . . . . 8.. . . . . . . . . . . . . . . . . . . . . . . . . . 9.. . . . . . . . . . . . . ",
". . . . . . . . . . . . . . . . . . . . . . . . . . . . . . . . . . . . . . . . . . . . . . . . . . . . . . . . . . . . . . . . ",
". . . . . . . . . . . . . . . 0.. . . . . . . . . . . . . . . . . . . . . . . . . . . . . . . . . . . . . . . . . . . . . . . . ",
". . . . . . . . . . . . . . . . . . . . . . . . . . . . . . . . . . . . . . . . . . . . . . . . . . . . . . . . . . . . . . . . ",
". . . . . . . . . . . . . . . . . . . . . . . . . . . . . . . . . . . . . . . . . . . . . . . . . . . . . . . . . . . . . . . . ",
". . . . . . . . . . . . . . . . . . . . . . . . . . . . . . . . . . . . . . . . . . . . . . . . . . . . . . . . . . . . . . . . ",
"X . . . q.. . . . . . . . . . . . . . . . . = . . . . . . . . . . . . . . . . . . . . . . . . . . & . . . . . . . . . . . . . . ",
". w.. . . . . . . . . . e.. . . . . . . . . . . . . . . . . . . . . . . . . . . . . . . . r.. . . . . . . . . . . . . . . . . . ",
". . . . . . . . . . . . . . . . . . . . . . . . . . . . . . . . . . . . . . . . . . . . . . . . . . . . . . . . . . . . . . . . ",
". . . % . . . . . . . . . . . . . . . . . . . . . . . . . . . . . . . . . . . . . . . . . . . . . . . . . . . . . . . . - o . . ",
". . . . . . . . . . . . . . . . . . . . 2 . . . . . . . . . . . . . . . . . . . . . . . . . . . . . . . . . . . . . . . . . . . ",
". . . . . . . . . . . . . . . . . . . . . . . . . . . . . . . . . . . . . . . . . . . . . 0.. t.. . . . . . . . . . . . . . . . ",
". . . . . . . . . . . . . & . . . . . . . . . . . . . . . . . . . . . . . . . . . . . . . . . . . . . . . . . . . . . . . . . . ",
". . . . . . . . . . . . . . . . . . . . . . . . . . . . . . . . . . . . . . . . & . . . . . . . . . . . . . . . . . y.. . . . . ",
". . . . . . . . . . . . . . . . . . . . . . . . . . . . . . . . . . . . . . . . . . . . . . . . . . . . . . . . . . . . . . . . ",
". . . . . . . . . - . . . . . . . . . . . . . . . . . . . . . . . . . . . . . . . . . . . . . . . . . . . . . . . . . . . . . . "
};
