/* XPM */
static char *result[] = {
/* columns rows colors chars-per-pixel */
"64 64 199 2 ",
"   c gray5",
".  c black",
"X  c gray6",
"o  c #101010",
"O  c gray9",
"+  c #202020",
"@  c #1D1D1D",
"#  c #F3F3F3",
"$  c gray7",
"%  c #0B0B0B",
"&  c #010101",
"*  c #0C0C0C",
"=  c gray3",
"-  c white",
";  c #F4FFFF",
":  c #C7FFFF",
">  c #FEFFFF",
",  c #F5FFFF",
"<  c #C0FFFF",
"1  c #F6FFFF",
"2  c #F9FFFF",
"3  c #9AFFFF",
"4  c #FFF8FF",
"5  c #9EEFFF",
"6  c #F8FFFF",
"7  c #020202",
"8  c #DEFFFF",
"9  c #A5CFCF",
"0  c #3790A1",
"q  c #F7FFFF",
"w  c #8DE3EF",
"e  c #E1FFFF",
"r  c #DBF0F0",
"t  c gray11",
"y  c #C4E8F0",
"u  c #E3FBFF",
"i  c #E9FCFF",
"p  c #DEFAFF",
"a  c #B4FFFF",
"s  c #DFDFDF",
"d  c #AAE9FF",
"f  c #CBEFFF",
"g  c #DBF5FF",
"h  c #89DCFF",
"j  c #060606",
"k  c #3C8DBC",
"l  c #95D1FC",
"z  c #FDFFFF",
"x  c #A9FFFF",
"c  c #A7FAFF",
"v  c #3E7DBB",
"b  c #95D0FB",
"n  c #B3FAFF",
"m  c #B6FFFF",
"M  c #C1FFFF",
"N  c #78C7FE",
"B  c #4BF5FF",
"V  c #2A2A2A",
"C  c #4BBCFB",
"Z  c #5AC2FA",
"A  c #E9F0FE",
"S  c #57DCFD",
"D  c #4AA9F1",
"F  c #5BC9FD",
"G  c #3A71E3",
"H  c #3DB5FD",
"J  c #C3FFFF",
"K  c #B1D4FC",
"L  c #39ABF9",
"P  c #539AE2",
"I  c #0086C0",
"U  c #3655D8",
"Y  c #38B8FF",
"T  c #A6F8FF",
"R  c #97DBFD",
"E  c #2790F7",
"W  c #111111",
"Q  c #4DB4FC",
"!  c #77F9FF",
"~  c #6CE3FE",
"^  c #3280F4",
"/  c #54B5FB",
"(  c #68F9FF",
")  c #5BE1FE",
"_  c #3D89F6",
"`  c gray8",
"'  c #4AB0FB",
"]  c #6DF9FF",
"[  c #61E1FE",
"{  c #3384F5",
"}  c #3EADFA",
"|  c #6AECFF",
" . c #5ED5FE",
".. c #2780F4",
"X. c #04070C",
"o. c #080F19",
"O. c #F2FFFF",
"+. c #B5D7FB",
"@. c #44AEFA",
"#. c #69E4FF",
"$. c #5DCDFE",
"%. c #2782F4",
"&. c #B8E0FC",
"*. c #D3FFFF",
"=. c #EEFFFF",
"-. c #BBFFFF",
";. c #4EAFFA",
":. c #69E6FF",
">. c #5DCFFE",
",. c #2883F5",
"<. c #B8FFFF",
"1. c #D1FFFF",
"2. c #D0EFEF",
"3. c #99B0B0",
"4. c #ECFFFF",
"5. c #DDFFFF",
"6. c #A5FFFF",
"7. c #36A4FA",
"8. c #57E6FF",
"9. c #49CDFF",
"0. c #0D6FF1",
"q. c #97FFFF",
"w. c #B2FFFF",
"e. c #E2FFFF",
"r. c #070707",
"t. c #E9FFFF",
"y. c #CEFFFF",
"u. c #B6E0FC",
"i. c #97C6FC",
"p. c #A7F8FF",
"a. c #A0F0FF",
"s. c #7F9AEE",
"d. c #A5DEF6",
"f. c #DCFFFF",
"g. c #EDFEFF",
"h. c #A3FFFF",
"j. c #BCFFFF",
"k. c #B9FDFE",
"l. c #A8FEFF",
"z. c #9D9D9D",
"x. c #25B2FB",
"c. c #84FFFF",
"v. c #58ACF7",
"b. c #0E97F6",
"n. c #4FA8FA",
"m. c #56D9FD",
"M. c #42B4F9",
"N. c #2B6DF3",
"B. c #49AAF9",
"V. c #51B9FB",
"C. c #48A9F9",
"Z. c #3385F7",
"A. c #53BDFB",
"S. c #43A0F8",
"D. c #3584F4",
"F. c #3A81EE",
"G. c #3E95F6",
"H. c #47AAFB",
"J. c #449AF4",
"K. c #374FBA",
"L. c #317CF3",
"P. c #45A6FA",
"I. c #48A6F7",
"U. c #378AF5",
"Y. c #358DF8",
"T. c #306FEE",
"R. c #2683F6",
"E. c #3581F2",
"W. c #4789E4",
"Q. c #CFE2FC",
"!. c #2386FB",
"~. c #3360E1",
"^. c #68FFFF",
"/. c #ACEFEF",
"(. c #808080",
"). c #D9FFFF",
"_. c #4DE8FF",
"`. c #2265E7",
"'. c #81FFFF",
"]. c #FCFFFF",
"[. c #79FFFF",
"{. c #8AFFFF",
"}. c #040404",
"|. c #373737",
" X c #FAFFFF",
".X c #57FFFF",
"XX c #5FFFFF",
"oX c #ADFFFF",
"OX c #E4FFFF",
"+X c gray33",
"@X c gray82",
"#X c #222222",
"$X c gray2",
"%X c #A7A7A7",
"&X c gray35",
"*X c #272727",
"=X c #1B1B1B",
"-X c #181818",
";X c gray17",
/* pixels */
"  . . . . . . . . . . . . . . . . . . . . . . . . . . . . . . . . . . . . . . . . . . . . . . . . . . . . . . . . . . . . . . . ",
". . . . . . . . . . . . . . . . . . . . . . . . . . . . . . . . . . . . . . . . . . . . . . . . . . . . . . . . . . . . . . . . ",
". . . . . . . . . . . . . . . . . . . . . . . . . . . . . . . . . . . . . . . . . . . . . . . . . . . . . . . . . . . . . . . . ",
". . . . . . . . . . . . . . . . . . . . . . . . . . . . . . . . . . . . . . . . . . . . . . . . . . . . . . . . . . . . . . . . ",
". . . . . . . . . . . . . . . X . . . . . . . . o . . . . . . . . . . . . . . . . . . . . . . . . . . . . . . . . . . . . . . . ",
". . . . . . . . . . . . . . . . . . . . . O . . . + . . . . . . . . . . . . . . . . . . . . . . . . . . . . . . . . . . . . . . ",
". . . . . . . . . . . . . . . . . . . . . . . . . . . . . . . . . . . . . . . . . . . . . . . . . . . . . . . . . . . . . . . . ",
". . . . . . . . . . . . . . . . . . @ . . . . . . . . . . . . . . . . . . . . . . . . . . . . . . . . . . . . . . . . . . . . . ",
". . . . . . . . . . . . . . . . . . . . . . . . . . . . . . . . . . . . . . . . . . . . . . . . . . . . . . . . . . . . . . . . ",
". . . . . . . . . . . . . . . . . . . . . . . # . . . . . . . . . . . . . . . . . . . . . . . . . . . . . . . . . . . . . . . . ",
". . . . . . . . . . . . . . . . . . . . . . . . . . . . . . . . . . . . . . . . . . . . . . . . . . . . . . . $ . . . . . . . . ",
". . . . . . . . % . . . . . . . . . . . . . . . . . . . . . . . . . . . . . . . . . . . . . . . . . . . . . . . . . . . . . . . ",
". . . . . . . . . . . . . . . . . . . . . . . . . . . . . . . . . . . . . . . . . . . . . . . . . . . . . . . . . . . . . . . . ",
". . . & . . $ . . . . . . . . . . . . . . . . . . . . . . . . . . . . . . . . . . . . . . . . . . . . . . . . . . . . . . . . . ",
". . . . . . . . . . . . . . * . . . . . . . . . . . . . . . . . . . . . . . . . . . . . . . . . . . . . . . . . . . . . . . . . ",
". . . . . . . . . . . . . . . . . . = . . . . . . . . - ; : > . . . . , < 1 - . . . . . . . . . . . . . . . . . . . . . . . . . ",
". . . . . . . . . . . . . . . . . . . . . . . . . . 2 3 . . . . 4 5 . . . . 6 ; - . . . . . . 7 . . . . . . . . . . . . . . . . ",
". . . . . . . . . . . . . . . . . . . . . . . . . - 8 9 . . 0 8 - q w . . . e r . . . . . . . . . . . . . . . . . . . . . . . . ",
". . . . . . . . . . . . . . . . . . . . . . . . . . . . t y u - - - - i p a . . . . . . . . . . . . . . . . . . . . . . . . . . ",
". . . . . . . . . . . . . . . . . . . . . . . . . . . . s d f - - - - g h . . . . . . . . . . . . . . . . . . . . . . . . . . . ",
". . . . . . . . . j . . . . . . . . . . . . . . . . . . . k l z - - - x c . . . . . . . . . . . . . . . . . . . . . . . . . . . ",
". . . . . . . . . . . . . . . . . . . . . . . . . . . . . v b n - m M N B . . . . V . . . . . . . . . . . . . . . . . . . . . . ",
". . . . . . . . . . . . . . . . . . . . . . . . . . . . . . C Z - A S D F . . . . . . . . . . . . . . . . . . . . . . . . & . . ",
". . . . . . . . . . . . . . . . . . . . . . . . . . . . . . G H J K L P I . . . . . . . . . . . . . . . X . . . . . . . . . . . ",
". . . . . . . . . . . . . . . . . . . . . . . . . . . * . . U Y T R E . . . . . W . . . . . . . . . . . . . . . . . . . . . . . ",
". . . * . . . . . . . . . . . . . . . . . . . . . . . . . . . Q ! ~ ^ . . . . . . . . . . . . . . . . . . . . . . . . . . . . . ",
". . . . . . . . . . . . . . . . . . . . . . . . . . . . . . . / ( ) _ . . . . . . . . . . . . . . . . . . . . . . . . . . 7 . . ",
". . . . ` . . . . . . . . . . . . . . . . . . . . . . . . . . ' ] [ { . . . . . . . . . . . . . . . . . . . . . . . . . . . . . ",
". . . . . . . . . . . . . . . . . . . . . . . . . . . . . . . } |  .... . . . . . . . . . . . . . . . . . . . . . . . . . . . . ",
". . . . . . . . . . . . . . . . . . . . . . . . . . X.o.- O.+.@.#.$.%.&.- *.. . . . . . . . . . . . . . . . . . . . . . . . . . ",
". . . . . . . . . . . . . . . . . . . . . . . . . . 8 =.-.. . ;.:.>.,.. . <.1.2.. . . . . . . . . . . . . . . . . . . . . . . . ",
". . . . . . . . . . . . . . . . . . . . . . . . . 3.4.5.6.. . 7.8.9.0.. . q.w.e.. . . r.. . . . . . . . . . . . . . . . . . . . ",
". . . . . . . . . . . . . . . . . . . . . . . . . . . - t.y.u.i.p.a.s.d.- f.- . . . . . . . . . . . . . . . . . . . . . . . . . ",
". . . . . . . . . . . . . % . . . . . . . . . . . . . . . . g.h.j.k.l.O.. . . . . . . . . . . . . . . . . . . . . . . . . z.. . ",
". . . . . . . . . . . . . . . . . . . . . . . . X . . . . . . x.c.v.b.. . . . . . . . . . . . . . . . . . . . . . . . . . . . . ",
". . . . . . . . . . . . . . . . . . . . . . . . . . . . . . . n.m.M.N.. . . . . . . . . . . . . . . . . . . . . . . . . . . . . ",
". . . . . . . . . . . . . . . . . . . . . . . . . . . . . . . B.V.C.Z.. . . . . . . . . . . . . . . . . . . . . . . . . . . . . ",
". . . . . . . . . . . . . . . . . . . . . . . . . . . . . . . A.S.D.F.. . . . . . . . . . . . . . . . . . . . . . . . . . . . . ",
". . . . . . . . . . . . . . . . . . . . . . . . . . . . . . . G.H.J.K.. . . . . . . . . . . . . . . . . . . . . . . . . . . . . ",
". . . . . . . . . . . . . . . . . . . . . . . . . . . . . . . L.P.I.. . . . . . . . . . . . . . . . . . . .   . . . . . . . . . ",
". . . . . . . . . . . . . . . . & . . . . . . . . . . . . . . U.Y.T.. . . . . . . . . . . . . . . . . . . . . . . . . . . . . . ",
". . . . . . . . . . . & . . . . . . . . . . . . . . . . . . . R.E.W.. . . . . . . . . . . . . . . . . . . . . . . . . . . . . . ",
". . . . . . . . . . . . . . . . . . . . . . . . . . . . . . Q.!.~.. ^.J 6 /.. . . . . . . . . . . . . . . . . . . . . . . . . . ",
". . . . . . . (.. . . . . . . . . . . . . . . . . . . . - )._.`.. r.. . '.].- . . . . . . . . & . . . . . . . . . . . . . . . . ",
". . . . . . . . . . . . . . . . . . . . . . . . . . . . - O.[.. . . . . {.; . % . . . . . @ . . . . . . . . . . . . . . t . . . ",
". . . . . . . . }.. . . . . . . . |.. . . . . . . . . . . . 4. X)..XXXoXOX. . . . . . . . . . . . . . . . = . . . . . . . . . . ",
". . . . . . . . . . . . . . . . . . . . . . . . . . . . . . . . . . . . . . . . . . . . . . . . . . . . . . . . . . . . . . . . ",
". . . . . . . . . = . . . . . . . . . . . . . . . . . . . . . +X. . . . . . . . . . . . . . . . . . . . . . . . . . . . . . . . ",
". . . . . . . . . . . . . . . . . . . . . . . @X. . . . . . . . . . . . . . . . . . . . . . . . . . #X. . . . . . . . . . . . . ",
". . . . . . . . . . . . . . . . . . . . . . . . . . . . . . . . . . . . . . . . . . . . . . . . . . . . . . . . . . . . . . . . ",
". . . . . . . . . . . . . . . $X. . . . . . . . . . . . . . . . . . . . . . . . . . . . . . . . . . . . . . . . . . . . . . . . ",
". . . . . . . . . . . . . . . . . . . . . . . . . . . . . . . . . . . . . . . . . . . . . . . . . . . . . . . . . . . . . . . . ",
". . . . . . . . . . . . . . . . . . . . . . . . . . . . . . . . . . . . . . . . . . . . . . . . . . . . . . . . . . . . . . . . ",
". . . . . . . . . . . . . . . . . . . . . . . . . . . . . . . . . . . . . . . . . . . . . . . . . . . . . . . . . . . . . . . . ",
"X . . . %X. . . . . . . . . . . . . . . . . = . . . . . . . . . . . . . . . . . . . . . . . . . . & . . . . . . . . . . . . . . ",
". &X. . . . . . . . . . *X. . . . . . . . . . . . . . . . . . . . . . . . . . . . . . . . =X. . . . . . . . . . . . . . . . . . ",
". . . . . . . . . . . . . . . . . . . . . . . . . . . . . . . . . . . . . . . . . . . . . . . . . . . . . . . . . . . . . . . . ",
". . . % . . . . . . . . . . . . . . . . . . . . . . . . . . . . . . . . . . . . . . . . . . . . . . . . . . . . . . . . 7 o . . ",
". . . . . . . . . . . . . . . . . . . . ` . . . . . . . . . . . . . . . . . . . . . . . . . . . . . . . . . . . . . . . . . . . ",
". . . . . . . . . . . . . . . . . . . . . . . . . . . . . . . . . . . . . . . . . . . . . $X. -X. . . . . . . . . . . . . . . . ",
". . . . . . . . . . . . . & . . . . . . . . . . . . . . . . . . . . . . . . . . . . . . . . . . . . . . . . . . . . . . . . . . ",
". . . . . . . . . . . . . . . . . . . . . . . . . . . . . . . . . . . . . . . . & . . . . . . . . . . . . . . . . . ;X. . . . . ",
". . . . . . . . . . . . . . . . . . . . . . . . . . . . . . . . . . . . . . . . . . . . . . . . . . . . . . . . . . . . . . . . ",
". . . . . . . . . 7 . . . . . . . . . . . . . . . . . . . . . . . . . . . . . . . . . . . . . . . . . . . . . . . . . . . . . . "
};
