/* XPM */
static char *result[] = {
/* columns rows colors chars-per-pixel */
"64 64 182 2 ",
"   c gray5",
".  c black",
"X  c gray6",
"o  c #101010",
"O  c gray9",
"+  c #202020",
"@  c #1D1D1D",
"#  c #F3F3F3",
"$  c gray7",
"%  c #0B0B0B",
"&  c #010101",
"*  c #0C0C0C",
"=  c #80CFF1",
"-  c gray3",
";  c #F9FFFF",
":  c #85FFFF",
">  c #5BFFFF",
",  c #70DBFE",
"<  c #81A6BB",
"1  c #B1FFFF",
"2  c #2A8AEC",
"3  c #2E60B2",
"4  c #020202",
"5  c #060606",
"6  c #3863E3",
"7  c #308EFB",
"8  c gray11",
"9  c #388BF5",
"0  c #388AF5",
"q  c #DFDFDF",
"w  c #0B6FAE",
"e  c #378BF6",
"r  c #3C7AE9",
"t  c #388CF6",
"y  c #0099DB",
"u  c #48A0F6",
"i  c #4BB3FD",
"p  c #347FF3",
"a  c #2A2A2A",
"s  c #2191F5",
"d  c #3FA9FB",
"f  c #2A70F3",
"g  c #C9DEFE",
"h  c #99C6FC",
"j  c #77CEFB",
"k  c #2BC6FA",
"l  c #EFFFFF",
"z  c #E5FFFF",
"x  c #B2FFFF",
"c  c #97FFFF",
"v  c #A3FFFF",
"b  c #B6FFFF",
"n  c #C1FFFF",
"m  c #E7FFFF",
"M  c white",
"N  c #111111",
"B  c #D2F0F0",
"V  c #DFFFFF",
"C  c #2898F7",
"Z  c #4AA4F9",
"A  c #3C9AF6",
"S  c #F6FFFF",
"D  c #DAFFFF",
"F  c #A2B0B0",
"G  c #E2FFFF",
"H  c #C5FFFF",
"J  c #34ACF8",
"K  c #55BBFC",
"L  c #43A6FA",
"P  c #3097F6",
"I  c #C8FFFF",
"U  c #F4FFFF",
"Y  c #839090",
"T  c gray8",
"R  c #010406",
"E  c #808080",
"W  c #42C4FA",
"Q  c #59C7FD",
"!  c #39AAFA",
"~  c #7199F6",
"^  c #B9FFFF",
"/  c #5ED0FE",
"(  c #4CB5FB",
")  c #3478F3",
"_  c #61D7FF",
"`  c #4FB3FA",
"'  c #2B79F3",
"]  c #5ED1FE",
"[  c #57C4FC",
"{  c #3686F4",
"}  c #59C8FD",
"|  c #69E6FF",
" . c #3074BA",
".. c #393939",
"X. c #070707",
"o. c #66E1FF",
"O. c #2F71BA",
"+. c gray30",
"@. c #5ACEFD",
"#. c #4097F7",
"$. c #9D9D9D",
"%. c #62DDFD",
"&. c #67E0FF",
"*. c #388AF6",
"=. c #41C6FA",
"-. c #80DDFD",
";. c #56E0FF",
":. c #24BBFA",
">. c #CDFFFF",
",. c #CFFFFF",
"<. c #BCFFFF",
"1. c #C0FFFF",
"2. c #BBFFFF",
"3. c #E4FFFF",
"4. c azure",
"5. c #F3FFFF",
"6. c #76FFFF",
"7. c #C7F5FF",
"8. c #91E9FD",
"9. c #74E2FC",
"0. c #D1FFFF",
"q. c #DDFFFF",
"w. c #90FFFF",
"e. c #8AFCFF",
"r. c #3B9EF8",
"t. c #1874F2",
"y. c #9EFFFF",
"u. c #A4FFFF",
"i. c gray88",
"p. c #BEFFFF",
"a. c #FDFFFF",
"s. c #44C0FD",
"d. c #55FFFF",
"f. c #43D3FB",
"g. c #87D3FB",
"h. c #C9FAFF",
"j. c #FCFFFF",
"k. c #63BBFB",
"l. c #32ABF8",
"z. c #53F1FF",
"x. c #81F7FF",
"c. c #70BBF9",
"v. c #87DDFD",
"b. c #F2FFFF",
"n. c #8EEDFF",
"m. c #7CE6FD",
"M. c #4DAEFA",
"N. c #8FDAFC",
"B. c #C4FFFF",
"V. c #B8FEFF",
"C. c #8DC2FA",
"Z. c #46A4F8",
"A. c #5DDFFF",
"S. c #77FEFF",
"D. c #BFE0FD",
"F. c #4ED6FC",
"G. c #78E8FF",
"H. c #FBFFFF",
"J. c #CEFFFF",
"K. c #99FFFF",
"L. c #F5FFFF",
"P. c #7DFFFF",
"I. c #040404",
"U. c #373737",
"Y. c #F9FCFF",
"T. c #FAFFFF",
"R. c #81F2FF",
"E. c #57EDFF",
"W. c #ACF2FF",
"Q. c #3184A0",
"!. c #4998A0",
"~. c #D5D2D5",
"^. c #99D6E0",
"/. c gray82",
"(. c #222222",
"). c gray2",
"_. c #A7A7A7",
"`. c gray35",
"'. c #272727",
"]. c #1B1B1B",
"[. c #181818",
"{. c gray17",
/* pixels */
"  . . . . . . . . . . . . . . . . . . . . . . . . . . . . . . . . . . . . . . . . . . . . . . . . . . . . . . . . . . . . . . . ",
". . . . . . . . . . . . . . . . . . . . . . . . . . . . . . . . . . . . . . . . . . . . . . . . . . . . . . . . . . . . . . . . ",
". . . . . . . . . . . . . . . . . . . . . . . . . . . . . . . . . . . . . . . . . . . . . . . . . . . . . . . . . . . . . . . . ",
". . . . . . . . . . . . . . . . . . . . . . . . . . . . . . . . . . . . . . . . . . . . . . . . . . . . . . . . . . . . . . . . ",
". . . . . . . . . . . . . . . X . . . . . . . . o . . . . . . . . . . . . . . . . . . . . . . . . . . . . . . . . . . . . . . . ",
". . . . . . . . . . . . . . . . . . . . . O . . . + . . . . . . . . . . . . . . . . . . . . . . . . . . . . . . . . . . . . . . ",
". . . . . . . . . . . . . . . . . . . . . . . . . . . . . . . . . . . . . . . . . . . . . . . . . . . . . . . . . . . . . . . . ",
". . . . . . . . . . . . . . . . . . @ . . . . . . . . . . . . . . . . . . . . . . . . . . . . . . . . . . . . . . . . . . . . . ",
". . . . . . . . . . . . . . . . . . . . . . . . . . . . . . . . . . . . . . . . . . . . . . . . . . . . . . . . . . . . . . . . ",
". . . . . . . . . . . . . . . . . . . . . . . # . . . . . . . . . . . . . . . . . . . . . . . . . . . . . . . . . . . . . . . . ",
". . . . . . . . . . . . . . . . . . . . . . . . . . . . . . . . . . . . . . . . . . . . . . . . . . . . . . . $ . . . . . . . . ",
". . . . . . . . % . . . . . . . . . . . . . . . . . . . . . . . . . . . . . . . . . . . . . . . . . . . . . . . . . . . . . . . ",
". . . . . . . . . . . . . . . . . . . . . . . . . . . . . . . . . . . . . . . . . . . . . . . . . . . . . . . . . . . . . . . . ",
". . . & . . $ . . . . . . . . . . . . . . . . . . . . . . . . . . . . . . . . . . . . . . . . . . . . . . . . . . . . . . . . . ",
". . . . . . . . . . . . . . * . . . . . . . . . . . . . . . . . = . . . . . . . . . . . . . . . . . . . . . . . . . . . . . . . ",
". . . . . . . . . . . . . . . . . . - . . . . . . . . . . ; : > , < . . . . . . . . . . . . . . . . . . . . . . . . . . . . . . ",
". . . . . . . . . . . . . . . . . . . . . . . . . . . . . . 1 . 2 3 . . . . . . . . . . . . . 4 . . . . . . . . . . . . . . . . ",
". . . . . . . . . . . . . . . . . . . . . . . . . . . . . . 5 . 6 7 . . . . . . . . . . . . . . . . . . . . . . . . . . . . . . ",
". . . . . . . . . . . . . . . . . . . . . . . . . . . . 8 . . . 9 0 . . . . . . . . . . . . . . . . . . . . . . . . . . . . . . ",
". . . . . . . . . . . . . . . . . . . . . . . . . . . . q . . w e 9 . . . . . . . . . . . . . . . . . . . . . . . . . . . . . . ",
". . . . . . . . . 5 . . . . . . . . . . . . . . . . . . . . . r t 0 . . . . . . . . . . . . . . . . . . . . . . . . . . . . . . ",
". . . . . . . . . . . . . . . . . . . . . . . . . . . . . w y u i p . . . . . . . a . . . . . . . . . . . . . . . . . . . . . . ",
". . . . . . . . . . . . . . . . . . . . . . . . . . . . . . . s d f . . . . . . . . . . . . . . . . . . . . . . . . . . . & . . ",
". . . . . . . . . . . . . . . . . . . . . . . . . . . . . . g h j k . . . . . . . . . . . . . . . . . . X . . . . . . . . . . . ",
". . . . . . . . . . . . . . . . . . . . . . . . . . . l z x c v b n m M . . . . N . . . . . . . . . . . . . . . . . . . . . . . ",
". . . * . . . . . . . . . . . . . . . . . . . . . . B V . . . C Z A . S D . . . . . . . . . . . . . . . . . . . . . . . . . . . ",
". . . . . . . . . . . . . . . . . . . . . . . . . . F G H . J K L P I U Y . . . . . . . . . . . . . . . . . . . . . . . . 4 . . ",
". . . . T . . . . . . . . . . . . . . . . . . . . . R . E . W Q ! ~ ^ . . . . . . . . . . . . . . . . . . . . . . . . . . . . . ",
". . . . . . . . . . . . . . . . . . . . . . . . . . . . . . . / ( ) . . . . . . . . . . . . . . . . . . . . . . . . . . . . . . ",
". . . . . . . . . . . . . . . . . . . . . . . . . . . . . . . _ ` ' . . . . . . . . . . . . . . . . . . . . . . . . . . . . . . ",
". . . . . . . . . . . . . . . . . . . . . . . . . . . . . . . ] [ { . . . . . . . . . . . . . . . . . . . . . . . . . . . . . . ",
". . . . . . . . . . . . . . . . . . . . . . . . . . . . . . . } |  .. . . . ... . . . X.. . . . . . . . . . . . . . . . . . . . ",
". . . . . . . . . . . . . . . . . . . . . . . . . . . . . . . } o.O.. . . . . . . . . . . . . . . . . . . . . . . . . . . . . . ",
". . . . . . . . . . . . . % . . . . . . . . . . . . . . . . +.@.o.#.. . . . . . . . . . . . . . . . . . . . . . . . . . . $.. . ",
". . . . . . . . . . . . . . . . . . . . . . . . X . . . . . . %.&.*.. . . . . . . . . . . . . . . . . . . . . . . . . . . . . . ",
". . . . . . . . . . . . . . . . . . . . . . . . . . . . . . =.-.;.:.. . . . . . . . . . . . . . . . . . . . . . . . . . . . . . ",
". . . . . . . . . . . . . . . . . . . . . . . . . . . >.1 ,.>.<.1.2.3.M . . . . . . . . . . . . . . . . . . . . . . . . . . . . ",
". . . . . . . . . . . . . . . . . . . . . . . . . 4.m 5.6.. . 7.8.9.0.M 3.U . . . . . . . . . . . . . . . . . . . . . . . . . . ",
". . . . . . . . . . . . . . . . . . . . . . . . q.w.. . . . . e.r.t.. . y.u.i.. . . . . . . . . . . . . . . . . . . . . . . . . ",
". . . . . . . . . . . . . . . . . . . . . . . . . . M p.a.. s.d.f.g.h.z j.. . . . . . . . . . . . . . . . .   . . . . . . . . . ",
". . . . . . . . . . . . . . . . & . . . . . . . . . . . . k.l.u.z.x.. . . . . . . . . . . . . . . . . . . . . . . . . . . . . . ",
". . . . . . . . . . . & . . . . . . . . . . . . . . . . . c.v.b.n.m.. . . . . . . . . . . . . . . . . . . . . . . . . . . . . . ",
". . . . . . . . . . . . . . . . . . . . . . . . . . . . M.N.B.M V.C.Z.. . . . . . . . . . . . . . . . . . . . . . . . . . . . . ",
". . . . . . . E . . . . . . . . . . . . . . . . . . . . A.S.^ ; B.D.F.. . . . . . . . . . . . & . . . . . . . . . . . . . . . . ",
". . . . . . . . . . . . . . . . . . . . . . . . . . . . G.H.J.K.L.H.P.. . . . % . . . . . @ . . . . . . . . . . . . . . 8 . . . ",
". . . . . . . . I.. . . . . . . . U.. . . . . . . . . . . Y.M j.M T.R.. . . . . . . . . . . . . . . . . . - . . . . . . . . . . ",
". . . . . . . . . . . . . . . . . . . . . . . . . . . . . E.1.M ; W.Q.. . . . . . . . . . . . . . . . . . . . . . . . . . . . . ",
". . . . . . . . . - . . . . . . . . . . . . . . . . . . . . !.~.^.. . . . . . . . . . . . . . . . . . . . . . . . . . . . . . . ",
". . . . . . . . . . . . . . . . . . . . . . . /.. . . . . . . . . . . . . . . . . . . . . . . . . . (.. . . . . . . . . . . . . ",
". . . . . . . . . . . . . . . . . . . . . . . . . . . . . . . . . . . . . . . . . . . . . . . . . . . . . . . . . . . . . . . . ",
". . . . . . . . . . . . . . . ).. . . . . . . . . . . . . . . . . . . . . . . . . . . . . . . . . . . . . . . . . . . . . . . . ",
". . . . . . . . . . . . . . . . . . . . . . . . . . . . . . . . . . . . . . . . . . . . . . . . . . . . . . . . . . . . . . . . ",
". . . . . . . . . . . . . . . . . . . . . . . . . . . . . . . . . . . . . . . . . . . . . . . . . . . . . . . . . . . . . . . . ",
". . . . . . . . . . . . . . . . . . . . . . . . . . . . . . . . . . . . . . . . . . . . . . . . . . . . . . . . . . . . . . . . ",
"X . . . _.. . . . . . . . . . . . . . . . . - . . . . . . . . . . . . . . . . . . . . . . . . . . & . . . . . . . . . . . . . . ",
". `.. . . . . . . . . . '.. . . . . . . . . . . . . . . . . . . . . . . . . . . . . . . . ].. . . . . . . . . . . . . . . . . . ",
". . . . . . . . . . . . . . . . . . . . . . . . . . . . . . . . . . . . . . . . . . . . . . . . . . . . . . . . . . . . . . . . ",
". . . % . . . . . . . . . . . . . . . . . . . . . . . . . . . . . . . . . . . . . . . . . . . . . . . . . . . . . . . . 4 o . . ",
". . . . . . . . . . . . . . . . . . . . T . . . . . . . . . . . . . . . . . . . . . . . . . . . . . . . . . . . . . . . . . . . ",
". . . . . . . . . . . . . . . . . . . . . . . . . . . . . . . . . . . . . . . . . . . . . ).. [.. . . . . . . . . . . . . . . . ",
". . . . . . . . . . . . . & . . . . . . . . . . . . . . . . . . . . . . . . . . . . . . . . . . . . . . . . . . . . . . . . . . ",
". . . . . . . . . . . . . . . . . . . . . . . . . . . . . . . . . . . . . . . . & . . . . . . . . . . . . . . . . . {.. . . . . ",
". . . . . . . . . . . . . . . . . . . . . . . . . . . . . . . . . . . . . . . . . . . . . . . . . . . . . . . . . . . . . . . . ",
". . . . . . . . . 4 . . . . . . . . . . . . . . . . . . . . . . . . . . . . . . . . . . . . . . . . . . . . . . . . . . . . . . "
};
