/* XPM */
static char *result[] = {
/* columns rows colors chars-per-pixel */
"64 64 112 2 ",
"   c gray5",
".  c black",
"X  c gray6",
"o  c #101010",
"O  c gray9",
"+  c #202020",
"@  c #1D1D1D",
"#  c #F3F3F3",
"$  c gray7",
"%  c #0B0B0B",
"&  c #010101",
"*  c #0C0C0C",
"=  c gray3",
"-  c #020202",
";  c #060606",
":  c gray11",
">  c #DFDFDF",
",  c #2A2A2A",
"<  c #F6FFFF",
"1  c #111111",
"2  c white",
"3  c #DAFFFF",
"4  c #5C7070",
"5  c gray81",
"6  c #CDFFFF",
"7  c #EFEFEF",
"8  c gray8",
"9  c #E3FFFF",
"0  c #A5FFFF",
"q  c #ECFFFF",
"w  c #9BFFFF",
"e  c #C7FFFF",
"r  c #A9C0C0",
"t  c #B4FFFF",
"y  c #3A84BB",
"u  c #62DCFF",
"i  c #65EBFF",
"p  c #D8F5FF",
"a  c #5BC9EF",
"s  c #8FFFFF",
"d  c #E1FFFF",
"f  c #74D1FD",
"g  c #6FD2FC",
"h  c #A7DDFD",
"j  c #7AF8FF",
"k  c #F5FDFF",
"l  c #83F5FF",
"z  c #91EFEF",
"x  c #1C457A",
"c  c #4CB9F9",
"v  c #388AF5",
"b  c #48B1F8",
"n  c #8DEEFE",
"m  c #CAF2FF",
"M  c #61D7FF",
"N  c #56CBFC",
"B  c #68CEFB",
"V  c #B2F5FF",
"C  c #98F2FF",
"Z  c #69FFFF",
"A  c #27458C",
"S  c #398BE6",
"D  c #429DF8",
"F  c #4CB6F9",
"G  c #52BAFB",
"H  c #66EEFF",
"J  c #9FF5FF",
"K  c #AAFDFF",
"L  c #BBF5FF",
"P  c #69FDFF",
"I  c #A1FFFF",
"U  c #96C4F4",
"Y  c #3F9BF6",
"T  c #3987F3",
"R  c #3D94F6",
"E  c #68B6F9",
"W  c #8DF5FF",
"Q  c #44A5F8",
"!  c #63E1FF",
"~  c #6CE1FF",
"^  c #89E1FF",
"/  c #8CF0FF",
"(  c #8DCAF1",
")  c #7CD3FB",
"_  c #78BCF9",
"`  c #5DE2FD",
"'  c #BDD8FC",
"]  c #A1CEFB",
"[  c #B1F0FF",
"{  c #9D9D9D",
"}  c #0099DB",
"|  c #94A0A0",
" . c #4397BE",
".. c #5CDEFC",
"X. c #68F8FF",
"o. c #8DF8FF",
"O. c #62DAFF",
"+. c gray94",
"@. c #808080",
"#. c #070707",
"$. c #040404",
"%. c #373737",
"&. c gray33",
"*. c gray82",
"=. c #222222",
"-. c gray2",
";. c #A7A7A7",
":. c gray35",
">. c #272727",
",. c #1B1B1B",
"<. c #181818",
"1. c gray17",
/* pixels */
"  . . . . . . . . . . . . . . . . . . . . . . . . . . . . . . . . . . . . . . . . . . . . . . . . . . . . . . . . . . . . . . . ",
". . . . . . . . . . . . . . . . . . . . . . . . . . . . . . . . . . . . . . . . . . . . . . . . . . . . . . . . . . . . . . . . ",
". . . . . . . . . . . . . . . . . . . . . . . . . . . . . . . . . . . . . . . . . . . . . . . . . . . . . . . . . . . . . . . . ",
". . . . . . . . . . . . . . . . . . . . . . . . . . . . . . . . . . . . . . . . . . . . . . . . . . . . . . . . . . . . . . . . ",
". . . . . . . . . . . . . . . X . . . . . . . . o . . . . . . . . . . . . . . . . . . . . . . . . . . . . . . . . . . . . . . . ",
". . . . . . . . . . . . . . . . . . . . . O . . . + . . . . . . . . . . . . . . . . . . . . . . . . . . . . . . . . . . . . . . ",
". . . . . . . . . . . . . . . . . . . . . . . . . . . . . . . . . . . . . . . . . . . . . . . . . . . . . . . . . . . . . . . . ",
". . . . . . . . . . . . . . . . . . @ . . . . . . . . . . . . . . . . . . . . . . . . . . . . . . . . . . . . . . . . . . . . . ",
". . . . . . . . . . . . . . . . . . . . . . . . . . . . . . . . . . . . . . . . . . . . . . . . . . . . . . . . . . . . . . . . ",
". . . . . . . . . . . . . . . . . . . . . . . # . . . . . . . . . . . . . . . . . . . . . . . . . . . . . . . . . . . . . . . . ",
". . . . . . . . . . . . . . . . . . . . . . . . . . . . . . . . . . . . . . . . . . . . . . . . . . . . . . . $ . . . . . . . . ",
". . . . . . . . % . . . . . . . . . . . . . . . . . . . . . . . . . . . . . . . . . . . . . . . . . . . . . . . . . . . . . . . ",
". . . . . . . . . . . . . . . . . . . . . . . . . . . . . . . . . . . . . . . . . . . . . . . . . . . . . . . . . . . . . . . . ",
". . . & . . $ . . . . . . . . . . . . . . . . . . . . . . . . . . . . . . . . . . . . . . . . . . . . . . . . . . . . . . . . . ",
". . . . . . . . . . . . . . * . . . . . . . . . . . . . . . . . . . . . . . . . . . . . . . . . . . . . . . . . . . . . . . . . ",
". . . . . . . . . . . . . . . . . . = . . . . . . . . . . . . . . . . . . . . . . . . . . . . . . . . . . . . . . . . . . . . . ",
". . . . . . . . . . . . . . . . . . . . . . . . . . . . . . . . . . . . . . . . . . . . . . . - . . . . . . . . . . . . . . . . ",
". . . . . . . . . . . . . . . . . . . . . . . . . . . . . . ; . . . . . . . . . . . . . . . . . . . . . . . . . . . . . . . . . ",
". . . . . . . . . . . . . . . . . . . . . . . . . . . . : . . . . . . . . . . . . . . . . . . . . . . . . . . . . . . . . . . . ",
". . . . . . . . . . . . . . . . . . . . . . . . . . . . > . . . . . . . . . . . . . . . . . . . . . . . . . . . . . . . . . . . ",
". . . . . . . . . ; . . . . . . . . . . . . . . . . . . . . . . . . . . . . . . . . . . . . . . . . . . . . . . . . . . . . . . ",
". . . . . . . . . . . . . . . . . . . . . . . . . . . . . . . . . . . . . . . . . , . . . . . . . . . . . . . . . . . . . . . . ",
". . . . . . . . . . . . . . . . . . . . . . . . . . . . . . . . . . . . . . . . . . . . . . . . . . . . . . . . . . . . . & . . ",
". . . . . . . . . . . . . . . . . . . . . . . . . . . . . . . . . . . . . . . . . . . . . . . . . . . . X . . . . . . . . . . . ",
". . . . . . . . . . . . . . . . . . . . . . . . . . . * . . . . . . . . . . < . 1 . . . . . . . . . . . . . . . . . . . . . . . ",
". . . * . . . . . . . . . . . . . . . . . . . . . . . . . . . . . . . . . 2 3 4 . . . . . . . . . . . . . . . . . . . . . . . . ",
". . . . . . . . . . . . . . . . . . . . . . . . . 5 6 . . . . . . . . . . 2 . 7 . . . . . . . . . . . . . . . . . . . . . - . . ",
". . . . 8 . . . . . . . . . . . . . . . . . . . . 9 3 . . . . . . . . . 0 q . w 5 . . . . . . . . . . . . . . . . . . . . . . . ",
". . . . . . . . . . . . . . . . . . . . . . . . e 0 . r . . . . . . . . w t . . 2 . y u i p a . . . . . . . . . . . . . . . . . ",
". . . . . . . . . . . . . . . . 3 . . . . . . . 9 . . s . . . . . . . . w d . . f g h j e k l . . . . . . . . . . . . . . . . . ",
". . . . . . . . . . . . . . . 0 z . . . . . . x 3 c v b v v v v v v v v n m M M N B V t t 2 e C . . . . . . . . . . . . . . . . ",
". . . . . . . . . . . . . . . Z Z . . . A S D D 3 F G M M M M M M M H J K q L P I 9 2 < t 2 2 2 . . . . . . . . . . . . . . . . ",
". . . . . . . . . . . . . . . U Y T T v v R D D I E D D D D D M M M M M W t D Q ! ~ ^ I q 2 2 / . . . . . . . . . . . . . . . . ",
". . . . . . . . . . . . . % . 3 ( v v v v v v v s ) b _ v v v v v v v v n t v ` w s ' ] V q [ M . . . . . . . . . . . . . { . . ",
". . . . . . . . . . . . . . . . . . . . . . } . X 9 3 t . . . . . . . . . | . w 2 .  ...X.o.O.. . . . . . . . . . . . . . . . . ",
". . . . . . . . . . . . . . . . . . . . . . . . . 2 6 . . . . . . . . . . > . 2 . . . . . . . . . . . . . . . . . . . . . . . . ",
". . . . . . . . . . . . . . . . . . . . . . . . . . 3 . . . . . . . . . . +.s d . . . . . . . . . . . . . . . . . . . . . . . . ",
". . . . . . . . . . . . . . . . . . . . . . . . . . . . . . . . . . . . . . q d . . . . . . . . . . . . . . . . . . . . . . . . ",
". . . . . . . . . . . . . . . . . . . . . . . . . . . . . . . . . . . . . . . . . . . . . . . . . . . . . . . . . . . . . . . . ",
". . . . . . . . . . . . . . . . . . . . . . . . . . . . . . . . . . . . . . . . . . . . . . . . . . . . . .   . . . . . . . . . ",
". . . . . . . . . . . . . . . . & . . . . . . . . . . . . . . . . . . . . . . . . . . . . . . . . . . . . . . . . . . . . . . . ",
". . . . . . . . . . . & . . . . . . . . . . . . . . . . . . . . . . . . . . . . . . . . . . . . . . . . . . . . . . . . . . . . ",
". . . . . . . . . . . . . . . . . . . . . . . . . . . . . . . . . . . . . . . . . . . . . . . . . . . . . . . . . . . . . . . . ",
". . . . . . . @.. . . . . . . . . . . . . . . . . . . . . #.. . . #.. . . . . . . . . . . . . & . . . . . . . . . . . . . . . . ",
". . . . . . . . . . . . . . . . . . . . . . . . . . . . . . . . . . . . . . . % . . . . . @ . . . . . . . . . . . . . . : . . . ",
". . . . . . . . $.. . . . . . . . %.. . . . . . . . . . . . . . . . . . . . . . . . . . . . . . . . . . . = . . . . . . . . . . ",
". . . . . . . . . . . . . . . . . . . . . . . . . . . . . . . . . . . . . . . . . . . . . . . . . . . . . . . . . . . . . . . . ",
". . . . . . . . . = . . . . . . . . . . . . . . . . . . . . . &.. . . . . . . . . . . . . . . . . . . . . . . . . . . . . . . . ",
". . . . . . . . . . . . . . . . . . . . . . . *.. . . . . . . . . . . . . . . . . . . . . . . . . . =.. . . . . . . . . . . . . ",
". . . . . . . . . . . . . . . . . . . . . . . . . . . . . . . . . . . . . . . . . . . . . . . . . . . . . . . . . . . . . . . . ",
". . . . . . . . . . . . . . . -.. . . . . . . . . . . . . . . . . . . . . . . . . . . . . . . . . . . . . . . . . . . . . . . . ",
". . . . . . . . . . . . . . . . . . . . . . . . . . . . . . . . . . . . . . . . . . . . . . . . . . . . . . . . . . . . . . . . ",
". . . . . . . . . . . . . . . . . . . . . . . . . . . . . . . . . . . . . . . . . . . . . . . . . . . . . . . . . . . . . . . . ",
". . . . . . . . . . . . . . . . . . . . . . . . . . . . . . . . . . . . . . . . . . . . . . . . . . . . . . . . . . . . . . . . ",
"X . . . ;.. . . . . . . . . . . . . . . . . = . . . . . . . . . . . . . . . . . . . . . . . . . . & . . . . . . . . . . . . . . ",
". :.. . . . . . . . . . >.. . . . . . . . . . . . . . . . . . . . . . . . . . . . . . . . ,.. . . . . . . . . . . . . . . . . . ",
". . . . . . . . . . . . . . . . . . . . . . . . . . . . . . . . . . . . . . . . . . . . . . . . . . . . . . . . . . . . . . . . ",
". . . % . . . . . . . . . . . . . . . . . . . . . . . . . . . . . . . . . . . . . . . . . . . . . . . . . . . . . . . . - o . . ",
". . . . . . . . . . . . . . . . . . . . 8 . . . . . . . . . . . . . . . . . . . . . . . . . . . . . . . . . . . . . . . . . . . ",
". . . . . . . . . . . . . . . . . . . . . . . . . . . . . . . . . . . . . . . . . . . . . -.. <.. . . . . . . . . . . . . . . . ",
". . . . . . . . . . . . . & . . . . . . . . . . . . . . . . . . . . . . . . . . . . . . . . . . . . . . . . . . . . . . . . . . ",
". . . . . . . . . . . . . . . . . . . . . . . . . . . . . . . . . . . . . . . . & . . . . . . . . . . . . . . . . . 1.. . . . . ",
". . . . . . . . . . . . . . . . . . . . . . . . . . . . . . . . . . . . . . . . . . . . . . . . . . . . . . . . . . . . . . . . ",
". . . . . . . . . - . . . . . . . . . . . . . . . . . . . . . . . . . . . . . . . . . . . . . . . . . . . . . . . . . . . . . . "
};
