/* XPM */
static char *result[] = {
/* columns rows colors chars-per-pixel */
"64 64 138 2 ",
"   c #181425",
".  c #171E33",
"X  c #172634",
"o  c #152742",
"O  c #123A5F",
"+  c #133B5F",
"@  c #0B6FAE",
"#  c #0938CD",
"$  c #3962DF",
"%  c #1E7DF3",
"&  c #336DEB",
"*  c #387EE1",
"=  c #3877EA",
"-  c #327DE8",
";  c #357DED",
":  c #2369F1",
">  c #2376F3",
",  c #5D7FE6",
"<  c #0099DB",
"1  c #1280F5",
"2  c #288DEE",
"3  c #3B83E4",
"4  c #3585F4",
"5  c #398FF7",
"6  c #2997F3",
"7  c #3F92F0",
"8  c #3590F8",
"9  c #3E9CFA",
"0  c #2CA0F7",
"q  c #3DAEFD",
"w  c #30B0FD",
"e  c #4291EF",
"r  c #4C9AF4",
"t  c #449FF9",
"y  c #49A0F4",
"u  c #47A1F9",
"i  c #47A6F9",
"p  c #48A0F9",
"a  c #4CAEFA",
"s  c #57ABFD",
"d  c #43B1F9",
"f  c #46B5FD",
"g  c #4DB0FA",
"h  c #4EB2FB",
"j  c #4DB4FA",
"k  c #4EB4FA",
"l  c #4DB6FB",
"z  c #4FB5FC",
"x  c #4BBAFF",
"c  c #54B9F1",
"v  c #55B2FB",
"b  c #52B6FB",
"n  c #5EB6F9",
"m  c #76A7F3",
"M  c #34CCFE",
"N  c #3BDBFF",
"B  c #2CE8F5",
"V  c #48DCFD",
"C  c #50D0FD",
"Z  c #50DFFF",
"A  c #60C0EF",
"S  c #68CEFC",
"D  c #69D5FD",
"F  c #62DDFF",
"G  c #74DAFF",
"H  c #79DDFF",
"J  c #54ECFF",
"K  c #60E0F8",
"L  c #60EDFF",
"P  c #75E6FE",
"I  c #78E9FE",
"U  c #64FFFF",
"Y  c #69FFFF",
"T  c #71F4FE",
"R  c #78F4FE",
"E  c #73FFFF",
"W  c #A2BCF8",
"Q  c LightSkyBlue",
"!  c #99CDFB",
"~  c #8DD4FB",
"^  c #99D0FB",
"/  c #AFDFFE",
"(  c #B3DFFD",
")  c #99EDFF",
"_  c #83FFFF",
"`  c #93FFFF",
"'  c #A7E0FA",
"]  c #A6E0FC",
"[  c #A5E7FD",
"{  c #A5F4FF",
"}  c #A5F9FE",
"|  c #A9FFFF",
" . c #B0F1FE",
".. c #B1FFFF",
"X. c #B8FBFF",
"o. c #B8FFFF",
"O. c #BAFFFF",
"+. c #BCFFFF",
"@. c #D5EFFA",
"#. c #C7FAFF",
"$. c #C0FFFF",
"%. c #C1FFFF",
"&. c #C4FFFF",
"*. c #C7FFFF",
"=. c #C9F8FF",
"-. c #C8FFFF",
";. c #C9FFFF",
":. c #CFFFFF",
">. c #D1F4FF",
",. c #D2FAFF",
"<. c #D5FFFF",
"1. c #D7FFFF",
"2. c #D8FFFF",
"3. c #D9FFFF",
"4. c #DCFFFF",
"5. c #DDFFFF",
"6. c #DEFFFF",
"7. c #E9F7FF",
"8. c LightCyan",
"9. c #E2FFFF",
"0. c #E4FFFF",
"q. c #E5FFFF",
"w. c #E7FFFF",
"e. c #E8FFFF",
"r. c #ECFFFF",
"t. c #EDFFFF",
"y. c #EFFFFF",
"u. c #F3FAFF",
"i. c #F1FFFF",
"p. c #F4FFFF",
"a. c #F5FFFF",
"s. c #F7FFFF",
"d. c #F9FDFF",
"f. c #F8FFFF",
"g. c #FDFEFF",
"h. c #FCFFFF",
"j. c #FEFFFF",
"k. c white",
/* pixels */
"                                                                      X X                                                       ",
"                                                                                          +                                     ",
"                                      +                     <                                                                   ",
"        O                                                 @ B @                                                     <           ",
"                                                            <               @                         @                         ",
"                                                                                                                                ",
"                                              o                                                                         <       ",
"                                                                                                                                ",
"            .                                       .                                                       +                   ",
"                            +                                                                                                   ",
"                                                                                                                                ",
"                                                                                    <                                           ",
"                        +         @                             O                                       . . .                   ",
"                                                  @                                                   . o o o .                 ",
"                                                          q.1.%.o.$.8.<.                              . o O O o .               ",
"                                                                                                      . o O @ O o .             ",
"                                                              7.#.J                                     . o O O o .             ",
"                                                          G g.4.O.0.X.N                                   . o o o .             ",
"                                                      < Z { k.j.k.k.f.P                   @                 . . .               ",
"                  o                                     v ,.a.k.k.k.k.u.8                                                       ",
"                                          @               ) +.k.f.9.k.'                                                         ",
"              O                                           C D k.t._ 2.m                                                     @   ",
"                                                          l > ! [ Q R                                 +                         ",
"                                                            : i ( d x   <                                                       ",
"                                              . . .         % ^ d.S ;                                                           ",
"                                            . o o o .       0 ..k.W #                                                           ",
"                                            . o O O o .     1 ] k.n                       +                               +     ",
"                                +           . o O @ O o .   , r >.-           .                                                 ",
"                                              . o O O o . q.  6 H $     :.p.                                                    ",
"                                                . o k...*.    p M       ` 3.k.      o                   <           +           ",
"    .                                             . . . k.;.5.=.} r.w.| e.                                                      ",
"                                                            U I  .T Y                                                           ",
"                    o                                         u /                                                               ",
"                                                          O   j L                                                               ",
"                                            <                 k F                                                   @           ",
"                                                              g h                                                               ",
"        +                                                     a t                         . . .             +                   ",
"                                                              z y                       . o o o .       @                       ",
"                                    @                         q e                       . o O O o .     @                       ",
"                                                              w 7 A .                   . o O @ O o . < B <                     ",
"                                                        &.s.  2 f     r.o.                . o O O o .   <                       ",
"          .                                             6.i.  ~ V     k.j.                  . o o o .   @                       ",
"                                                              @.-.y.h.                        . . .                             ",
"                                              +               3 s             <                                   <             ",
"                    <                                         b *                                                         +     ",
"                  @ B @                                       9                                                                 ",
"                    <                                         4   O                             +                               ",
"                                        .                     5                                                                 ",
"                                          .               .   &                                                                 ",
"                                            .           .     =                                                                 ",
"                                              o . . . o     K c E           .                                                   ",
"                                              . o o o .                                 O                                       ",
"                                              . o @ o .                                                                         ",
"                            . . .             . o o o .                                                   +                     ",
"                +         . o o o .           . . . . o           O                                                             ",
"                        . O o O o .         .           .                                                                       ",
"                      . o o o o o .                       .                                       +                             ",
"                      . o O o O .                                                                             O                 ",
"                      . O o o .                                                                                                 ",
"                        . . .                                                                                                   ",
"                                                                                                                                ",
"                                                                                                                                ",
"                                                                                      .                                         ",
"                                                                                                                                "
};
