/* XPM */
static char *result[] = {
/* columns rows colors chars-per-pixel */
"64 64 168 2 ",
"   c gray5",
".  c black",
"X  c gray6",
"o  c #101010",
"O  c gray9",
"+  c #202020",
"@  c #1D1D1D",
"#  c #F3F3F3",
"$  c gray7",
"%  c #0B0B0B",
"&  c #010101",
"*  c #0C0C0C",
"=  c #E5FFFF",
"-  c #D7FFFF",
";  c #C1FFFF",
":  c #B8FFFF",
">  c #C0FFFF",
",  c LightCyan",
"<  c #D5FFFF",
"1  c gray3",
"2  c #E9F7FF",
"3  c #C7FAFF",
"4  c #54ECFF",
"5  c #020202",
"6  c #74DAFF",
"7  c #FDFEFF",
"8  c #DCFFFF",
"9  c #BAFFFF",
"0  c #E4FFFF",
"q  c #B8FBFF",
"w  c #3BDBFF",
"e  c #0099DB",
"r  c #50DFFF",
"t  c #A5F4FF",
"y  c white",
"u  c #FEFFFF",
"i  c #F8FFFF",
"p  c #75E6FE",
"a  c #55B2FB",
"s  c #D2FAFF",
"d  c #F5FFFF",
"f  c #F3FAFF",
"g  c #3590F8",
"h  c #060606",
"j  c #99EDFF",
"k  c #BCFFFF",
"l  c #E2FFFF",
"z  c #A7E0FA",
"x  c #50D0FD",
"c  c #69D5FD",
"v  c #EDFFFF",
"b  c #83FFFF",
"n  c #D8FFFF",
"m  c #76A7F3",
"M  c #2A2A2A",
"N  c #4DB6FB",
"B  c #2376F3",
"V  c #99CDFB",
"C  c #A5E7FD",
"Z  c LightSkyBlue",
"A  c #78F4FE",
"S  c #2369F1",
"D  c #47A6F9",
"F  c #B3DFFD",
"G  c #43B1F9",
"H  c #4BBAFF",
"J  c #1E7DF3",
"K  c #99D0FB",
"L  c #F9FDFF",
"P  c #68CEFC",
"I  c #357DED",
"U  c #111111",
"Y  c #2CA0F7",
"T  c #B1FFFF",
"R  c #A2BCF8",
"E  c #0938CD",
"W  c #1280F5",
"Q  c #A6E0FC",
"!  c #5EB6F9",
"~  c gray8",
"^  c #5D7FE6",
"/  c #4C9AF4",
"(  c #D1F4FF",
")  c #327DE8",
"_  c #010406",
"`  c #2997F3",
"'  c #79DDFF",
"]  c #365CD2",
"[  c #A9D0D0",
"{  c #F4FFFF",
"}  c #C7FFFF",
"|  c #48A0F9",
" . c #34CCFE",
".. c #93FFFF",
"X. c #D9FFFF",
"o. c #C9FFFF",
"O. c #DDFFFF",
"+. c #C9F8FF",
"@. c #A5F9FE",
"#. c #ECFFFF",
"$. c #E7FFFF",
"%. c #A9FFFF",
"&. c #CCE0E0",
"*. c #64FFFF",
"=. c #78E9FE",
"-. c #B0F1FE",
";. c #71F4FE",
":. c #69FFFF",
">. c #393939",
",. c #070707",
"<. c #47A1F9",
"1. c #AFDFFE",
"2. c gray30",
"3. c #4DB4FA",
"4. c #60EDFF",
"5. c #9D9D9D",
"6. c #4EB4FA",
"7. c #62DDFF",
"8. c #4DB0FA",
"9. c #4EB2FB",
"0. c #4CAEFA",
"q. c #449FF9",
"w. c #4FB5FC",
"e. c #49A0F4",
"r. c #3DAEFD",
"t. c #4291EF",
"y. c #30B0FD",
"u. c #3F92F0",
"i. c #60C0EF",
"p. c #C4FFFF",
"a. c #F7FFFF",
"s. c #288DEE",
"d. c #46B5FD",
"f. c #DDEFEF",
"g. c #A1DFDF",
"h. c #DEFFFF",
"j. c #F1FFFF",
"k. c #8DD4FB",
"l. c #48DCFD",
"z. c #AEC3CC",
"x. c #C8FFFF",
"c. c #EFFFFF",
"v. c #FCFFFF",
"b. c #808080",
"n. c #25528F",
"m. c #57ABFD",
"M. c #489FDB",
"N. c #387EE1",
"B. c gray11",
"V. c #040404",
"C. c #373737",
"Z. c #3E9CFA",
"A. c #3585F4",
"S. c #4672A6",
"D. c gray82",
"F. c #1D3E85",
"G. c #222222",
"H. c #3470DB",
"J. c gray2",
"K. c #54C4D9",
"L. c #54B9F1",
"P. c #73FFFF",
"I. c #A7A7A7",
"U. c gray35",
"Y. c #272727",
"T. c #1B1B1B",
"R. c #181818",
"E. c gray17",
/* pixels */
"  . . . . . . . . . . . . . . . . . . . . . . . . . . . . . . . . . . . . . . . . . . . . . . . . . . . . . . . . . . . . . . . ",
". . . . . . . . . . . . . . . . . . . . . . . . . . . . . . . . . . . . . . . . . . . . . . . . . . . . . . . . . . . . . . . . ",
". . . . . . . . . . . . . . . . . . . . . . . . . . . . . . . . . . . . . . . . . . . . . . . . . . . . . . . . . . . . . . . . ",
". . . . . . . . . . . . . . . . . . . . . . . . . . . . . . . . . . . . . . . . . . . . . . . . . . . . . . . . . . . . . . . . ",
". . . . . . . . . . . . . . . X . . . . . . . . o . . . . . . . . . . . . . . . . . . . . . . . . . . . . . . . . . . . . . . . ",
". . . . . . . . . . . . . . . . . . . . . O . . . + . . . . . . . . . . . . . . . . . . . . . . . . . . . . . . . . . . . . . . ",
". . . . . . . . . . . . . . . . . . . . . . . . . . . . . . . . . . . . . . . . . . . . . . . . . . . . . . . . . . . . . . . . ",
". . . . . . . . . . . . . . . . . . @ . . . . . . . . . . . . . . . . . . . . . . . . . . . . . . . . . . . . . . . . . . . . . ",
". . . . . . . . . . . . . . . . . . . . . . . . . . . . . . . . . . . . . . . . . . . . . . . . . . . . . . . . . . . . . . . . ",
". . . . . . . . . . . . . . . . . . . . . . . # . . . . . . . . . . . . . . . . . . . . . . . . . . . . . . . . . . . . . . . . ",
". . . . . . . . . . . . . . . . . . . . . . . . . . . . . . . . . . . . . . . . . . . . . . . . . . . . . . . $ . . . . . . . . ",
". . . . . . . . % . . . . . . . . . . . . . . . . . . . . . . . . . . . . . . . . . . . . . . . . . . . . . . . . . . . . . . . ",
". . . . . . . . . . . . . . . . . . . . . . . . . . . . . . . . . . . . . . . . . . . . . . . . . . . . . . . . . . . . . . . . ",
". . . & . . $ . . . . . . . . . . . . . . . . . . . . . . . . . . . . . . . . . . . . . . . . . . . . . . . . . . . . . . . . . ",
". . . . . . . . . . . . . . * . . . . . . . . . . . . . . = - ; : > , < . . . . . . . . . . . . . . . . . . . . . . . . . . . . ",
". . . . . . . . . . . . . . . . . . 1 . . . . . . . . . . . . . . . . . . . . . . . . . . . . . . . . . . . . . . . . . . . . . ",
". . . . . . . . . . . . . . . . . . . . . . . . . . . . . . . 2 3 4 . . . . . . . . . . . . . 5 . . . . . . . . . . . . . . . . ",
". . . . . . . . . . . . . . . . . . . . . . . . . . . . . 6 7 8 9 0 q w . . . . . . . . . . . . . . . . . . . . . . . . . . . . ",
". . . . . . . . . . . . . . . . . . . . . . . . . . . e r t y u y y i p . . . . . . . . . . . . . . . . . . . . . . . . . . . . ",
". . . . . . . . . . . . . . . . . . . . . . . . . . . . a s d y y y y f g . . . . . . . . . . . . . . . . . . . . . . . . . . . ",
". . . . . . . . . h . . . . . . . . . . . . . . . . . . . j k y i l y z . . . . . . . . . . . . . . . . . . . . . . . . . . . . ",
". . . . . . . . . . . . . . . . . . . . . . . . . . . . . x c y v b n m . . . . . M . . . . . . . . . . . . . . . . . . . . . . ",
". . . . . . . . . . . . . . . . . . . . . . . . . . . . . N B V C Z A . . . . . . . . . . . . . . . . . . . . . . . . . . & . . ",
". . . . . . . . . . . . . . . . . . . . . . . . . . . . . . S D F G H . . . . . . . . . . . . . . . . . X . . . . . . . . . . . ",
". . . . . . . . . . . . . . . . . . . . . . . . . . . * . . J K L P I . . . . . U . . . . . . . . . . . . . . . . . . . . . . . ",
". . . * . . . . . . . . . . . . . . . . . . . . . . . . . . Y T y R E . . . . . . . . . . . . . . . . . . . . . . . . . . . . . ",
". . . . . . . . . . . . . . . . . . . . . . . . . . . . . . W Q y ! . . . . . . . . . . . . . . . . . . . . . . . . . . . 5 . . ",
". . . . ~ . . . . . . . . . . . . . . . . . . . . . . . . . ^ / ( ) . . . . . . . . . . . . . . . . . . . . . . . . . . . . . . ",
". . . . . . . . . . . . . . . . . . . . . . . . . . _ . . = . ` ' ] . . [ { . . . . . . . . . . . . . . . . . . . . . . . . . . ",
". . . . . . . . . . . . . . . . . . . . . . . . . . y T } . . |  .. . . ..X.y . . . . . . . . . . . . . . . . . . . . . . . . . ",
". . . . . . . . . . . . . . . . . . . . . . . . . . . . y o.O.+.@.#.$.%.&.. . . . . . . . . . . . . . . . . . . . . . . . . . . ",
". . . . . . . . . . . . . . . . . . . . . . . . . . . . . . *.=.-.;.:.. . . >.. . . . ,.. . . . . . . . . . . . . . . . . . . . ",
". . . . . . . . . . . . . . . . . . . . . . . . . . . . . . . <.1.. . . . . . . . . . . . . . . . . . . . . . . . . . . . . . . ",
". . . . . . . . . . . . . % . . . . . . . . . . . . . . . . 2.3.4.. . . . . . . . . . . . . . . . . . . . . . . . . . . . 5.. . ",
". . . . . . . . . . . . . . . . . . . . . . . . X . . . . . . 6.7.. . . . . . . . . . . . . . . . . . . . . . . . . . . . . . . ",
". . . . . . . . . . . . . . . . . . . . . . . . . . . . . . . 8.9.. . . . . . . . . . . . . . . . . . . . . . . . . . . . . . . ",
". . . . . . . . . . . . . . . . . . . . . . . . . . . . . . . 0.q.. . . . . . . . . . . . . . . . . . . . . . . . . . . . . . . ",
". . . . . . . . . . . . . . . . . . . . . . . . . . . . . . . w.e.. . . . . . . . . . . . . . . . . . . . . . . . . . . . . . . ",
". . . . . . . . . . . . . . . . . . . . . . . . . . . . . . . r.t.. . . . . . . . . . . . . . . . . . . . . . . . . . . . . . . ",
". . . . . . . . . . . . . . . . . . . . . . . . . . . . . . . y.u.i.. . . . . . . . . . . . . . . . . . . .   . . . . . . . . . ",
". . . . . . . . . . . . . . . . & . . . . . . . . . . . p.a.. s.d.. . f.g.. . . . . . . . . . . . . . . . . . . . . . . . . . . ",
". . . . . . . . . . . & . . . . . . . . . . . . . . . . h.j.. k.l.. . y u . . . . . . . . . . . . . . . . . . . . . . . . . . . ",
". . . . . . . . . . . . . . . . . . . . . . . . . . . . . . . z.x.c.v.. . . . . . . . . . . . . . . . . . . . . . . . . . . . . ",
". . . . . . . b.. . . . . . . . . . . . . . . . . . . . . ,.. n.m.,.. . . . . . . . . . . . . & . . . . . . . . . . . . . . . . ",
". . . . . . . . . . . . . . . . . . . . . . . . . . . . . . . M.N.. . . . . . % . . . . . @ . . . . . . . . . . . . . . B.. . . ",
". . . . . . . . V.. . . . . . . . C.. . . . . . . . . . . . . Z.. . . . . . . . . . . . . . . . . . . . . 1 . . . . . . . . . . ",
". . . . . . . . . . . . . . . . . . . . . . . . . . . . . . . A.. . . . . . . . . . . . . . . . . . . . . . . . . . . . . . . . ",
". . . . . . . . . 1 . . . . . . . . . . . . . . . . . . . . . S.. . . . . . . . . . . . . . . . . . . . . . . . . . . . . . . . ",
". . . . . . . . . . . . . . . . . . . . . . . D.. . . . . . . F.. . . . . . . . . . . . . . . . . . G.. . . . . . . . . . . . . ",
". . . . . . . . . . . . . . . . . . . . . . . . . . . . . . . H.. . . . . . . . . . . . . . . . . . . . . . . . . . . . . . . . ",
". . . . . . . . . . . . . . . J.. . . . . . . . . . . . . . K.L.P.. . . . . . . . . . . . . . . . . . . . . . . . . . . . . . . ",
". . . . . . . . . . . . . . . . . . . . . . . . . . . . . . . . . . . . . . . . . . . . . . . . . . . . . . . . . . . . . . . . ",
". . . . . . . . . . . . . . . . . . . . . . . . . . . . . . . . . . . . . . . . . . . . . . . . . . . . . . . . . . . . . . . . ",
". . . . . . . . . . . . . . . . . . . . . . . . . . . . . . . . . . . . . . . . . . . . . . . . . . . . . . . . . . . . . . . . ",
"X . . . I.. . . . . . . . . . . . . . . . . 1 . . . . . . . . . . . . . . . . . . . . . . . . . . & . . . . . . . . . . . . . . ",
". U.. . . . . . . . . . Y.. . . . . . . . . . . . . . . . . . . . . . . . . . . . . . . . T.. . . . . . . . . . . . . . . . . . ",
". . . . . . . . . . . . . . . . . . . . . . . . . . . . . . . . . . . . . . . . . . . . . . . . . . . . . . . . . . . . . . . . ",
". . . % . . . . . . . . . . . . . . . . . . . . . . . . . . . . . . . . . . . . . . . . . . . . . . . . . . . . . . . . 5 o . . ",
". . . . . . . . . . . . . . . . . . . . ~ . . . . . . . . . . . . . . . . . . . . . . . . . . . . . . . . . . . . . . . . . . . ",
". . . . . . . . . . . . . . . . . . . . . . . . . . . . . . . . . . . . . . . . . . . . . J.. R.. . . . . . . . . . . . . . . . ",
". . . . . . . . . . . . . & . . . . . . . . . . . . . . . . . . . . . . . . . . . . . . . . . . . . . . . . . . . . . . . . . . ",
". . . . . . . . . . . . . . . . . . . . . . . . . . . . . . . . . . . . . . . . & . . . . . . . . . . . . . . . . . E.. . . . . ",
". . . . . . . . . . . . . . . . . . . . . . . . . . . . . . . . . . . . . . . . . . . . . . . . . . . . . . . . . . . . . . . . ",
". . . . . . . . . 5 . . . . . . . . . . . . . . . . . . . . . . . . . . . . . . . . . . . . . . . . . . . . . . . . . . . . . . "
};
