/* XPM */
static char *result[] = {
/* columns rows colors chars-per-pixel */
"64 64 137 2 ",
"   c #181425",
".  c #171E33",
"X  c #172634",
"o  c #152742",
"O  c #123A5F",
"+  c #133B5F",
"@  c #0B6FAE",
"#  c #0B39CE",
"$  c #3962DF",
"%  c #1E7DF3",
"&  c #336DEB",
"*  c #387EE1",
"=  c #3773E9",
"-  c #327DE8",
";  c #347CED",
":  c #2369F1",
">  c #2376F3",
",  c #5D7FE6",
"<  c #0099DB",
"1  c #1280F5",
"2  c #288DEE",
"3  c #3B83E4",
"4  c #3585F4",
"5  c #398FF7",
"6  c #2997F3",
"7  c #3F92F0",
"8  c #3590F8",
"9  c #3E9CFA",
"0  c #2CA0F7",
"q  c #3DAEFD",
"w  c #30B0FD",
"e  c #4291EF",
"r  c #4C9AF4",
"t  c #449FF9",
"y  c #49A0F4",
"u  c #47A1F9",
"i  c #47A6F9",
"p  c #48A0F9",
"a  c #4CAEFA",
"s  c #57ABFD",
"d  c #43B1F9",
"f  c #46B5FD",
"g  c #4DB0FA",
"h  c #4EB2FB",
"j  c #4DB4FA",
"k  c #4EB4FA",
"l  c #4DB6FB",
"z  c #4FB5FC",
"x  c #4BBAFF",
"c  c #54B9F1",
"v  c #55B2FB",
"b  c #52B6FB",
"n  c #5EB6F9",
"m  c #76A7F3",
"M  c #34CCFE",
"N  c #23D7FF",
"B  c #2CE8F5",
"V  c #48DCFD",
"C  c #48DDFF",
"Z  c #50D0FD",
"A  c #60C0EF",
"S  c #68CEFC",
"D  c #60D4FF",
"F  c #69D5FD",
"G  c #62DDFF",
"H  c #79DDFF",
"J  c #4BEEFF",
"K  c #60E0F8",
"L  c #60EDFF",
"P  c #77E6FE",
"I  c #78E9FE",
"U  c #64FFFF",
"Y  c #69FFFF",
"T  c #71F4FE",
"R  c #78F4FE",
"E  c #73FFFF",
"W  c #A2BCF8",
"Q  c LightSkyBlue",
"!  c #99CDFB",
"~  c #8DD4FB",
"^  c #99D0FB",
"/  c #AFDFFE",
"(  c #B3DFFD",
")  c #99EDFF",
"_  c #83FFFF",
"`  c #93FFFF",
"'  c #A7E0FA",
"]  c #A6E0FC",
"[  c #A5E7FD",
"{  c #A7F4FF",
"}  c #A5F9FE",
"|  c #A9FFFF",
" . c #B0F1FE",
".. c #B0FBFF",
"X. c #B7FBFF",
"o. c #B1FFFF",
"O. c #B8FFFF",
"+. c #B9FFFF",
"@. c #BCFFFF",
"#. c #BEFFFF",
"$. c #D5EFFA",
"%. c #C1FFFF",
"&. c #C2FFFF",
"*. c #C4FFFF",
"=. c #C7FFFF",
"-. c #C9F8FF",
";. c #C8FFFF",
":. c #C9FFFF",
">. c #CFFFFF",
",. c #D1F4FF",
"<. c #D2FAFF",
"1. c #D8FFFF",
"2. c #D9FFFF",
"3. c #DAFFFF",
"4. c #DCFFFF",
"5. c #DDFFFF",
"6. c #DEFFFF",
"7. c #E0F9FF",
"8. c #E2FFFF",
"9. c #E5FFFF",
"0. c #E6FFFF",
"q. c #E7FFFF",
"w. c #E8FFFF",
"e. c #ECFFFF",
"r. c #EDFFFF",
"t. c #EFFFFF",
"y. c #F3FAFF",
"u. c #F1FFFF",
"i. c #F4FFFF",
"p. c #F5FFFF",
"a. c #F7FFFF",
"s. c #F9FDFF",
"d. c #F8FFFF",
"f. c #FDFEFF",
"g. c #FCFFFF",
"h. c #FEFFFF",
"j. c white",
/* pixels */
"                                                                      X X                                                       ",
"                                                                                          +                                     ",
"                                      +                     <                                                                   ",
"        O                                                 @ B @                                                     <           ",
"                                                            <               @                         @                         ",
"                                                                                                                                ",
"                                              o                                                                         <       ",
"                                                                                                                                ",
"            .                                       .                                                       +                   ",
"                            +                                                                                                   ",
"                                                                                                                                ",
"                                                                                    <                                           ",
"                        +         @                             O                                       . . .                   ",
"                                                  @           E c K                                   . o o o .                 ",
"                                                            .   =                                     . o O O o .               ",
"                                                                &                                     . o O @ O o .             ",
"                                                                5                                       . o O O o .             ",
"                                                                4                                         . o o o .             ",
"                                                      <         9     +                   @                 . . .               ",
"                  o                                           * b                                                               ",
"                                          @                   s 3                                                               ",
"              O                                           g.t.;.$.@                                                         @   ",
"                                                      h.j.    V ~   u.6.                              +                         ",
"                                                      O.e.    f 2   a.*.<                                                       ",
"                                              . . .         A 7 w                                                               ",
"                                            . o o o .         e q                                                               ",
"                                            . o O O o .       y z                         +                               +     ",
"                                +           . o O @ O o .     t a             .                                                 ",
"                                              . o O O o .     h g +                                                             ",
"                                                . o o o .     G k                   o                   <           +           ",
"    .                                             . . .       L j                                                               ",
"                                                              / u                                                               ",
"                    o                                     Y T  .I U                                                             ",
"                                                      w.| q.e.} -.5.:.j.                                                        ",
"                                            <     j.2.`       M p     =.o.j.                                        @           ",
"                                                    i.>.    $ H 6   9.                                                          ",
"        +                                                   - ,.r ,                       . . .             +                   ",
"                                                            n j.] 1                     . o o o .       @                       ",
"                                    @                     # W j.o.0                     . o O O o .     @                       ",
"                                                          ; S s.^ % .                   . o O @ O o . < B <                     ",
"                                                          x d ( i :                       . o O O o .   <                       ",
"          .                                               R Q [ ! > l                       . o o o .   @                       ",
"                                                        m 1._ r.j.F Z                         . . .                             ",
"                                              +         ' j.8.d.j.@.)         <                                   <             ",
"                    <                                 8 y.j.j.j.j.p.<.v                                                   +     ",
"                  @ B @                                 P d.j.j.h.j.{ C                                                         ",
"                    <                                   N ..0.#.6.f.D                           +                               ",
"                                        .                   J X.7.                                                              ",
"                                          .               .                                                                     ",
"                                            .           :.3.&.+.%.1.4.                                                          ",
"                                              o . . . o                     .                                                   ",
"                                              . o o o .                                 O                                       ",
"                                              . o @ o .                                                                         ",
"                            . . .             . o o o .                                                   +                     ",
"                +         . o o o .           . . . . o           O                                                             ",
"                        . O o O o .         .           .                                                                       ",
"                      . o o o o o .                       .                                       +                             ",
"                      . o O o O .                                                                             O                 ",
"                      . O o o .                                                                                                 ",
"                        . . .                                                                                                   ",
"                                                                                                                                ",
"                                                                                                                                ",
"                                                                                      .                                         ",
"                                                                                                                                "
};
