/* XPM */
static char *result[] = {
/* columns rows colors chars-per-pixel */
"64 64 210 2 ",
"   c gray5",
".  c black",
"X  c gray6",
"o  c #101010",
"O  c gray9",
"+  c #202020",
"@  c #1D1D1D",
"#  c #F3F3F3",
"$  c gray7",
"%  c #0B0B0B",
"&  c #010101",
"*  c #0C0C0C",
"=  c gray3",
"-  c #5FC9EF",
";  c #B1E7FF",
":  c #B4E5FF",
">  c #74F2FF",
",  c #020202",
"<  c #6AC8EF",
"1  c #EEF6FF",
"2  c #BAFFFF",
"3  c #83FFFF",
"4  c #A9FFFF",
"5  c #81EBFF",
"6  c #0086BF",
"7  c #57E5FF",
"8  c #B8F8FF",
"9  c #DDFFFF",
"0  c #9CFFFF",
"q  c #98FFFF",
"w  c #C2FFFF",
"e  c #91FFFF",
"r  c #3ADDFF",
"t  c #B4FFFF",
"y  c #E3FFFF",
"u  c #86FFFF",
"i  c #5DFFFF",
"p  c #D0FFFF",
"a  c white",
"s  c #C0FEFF",
"d  c #51EBFF",
"f  c #ABFCFF",
"g  c #DFFFFF",
"h  c #060606",
"j  c #D0D0D0",
"k  c #D6FFFF",
"l  c #45C8FC",
"z  c #81CBFB",
"x  c #F2FFFF",
"c  c #CBFFFF",
"v  c #E6FFFF",
"b  c #67FFFF",
"n  c #CCFFFF",
"m  c #99FFFF",
"M  c #ECFFFF",
"N  c #F5FFFF",
"B  c #15C7FC",
"V  c #A6CFFB",
"C  c #FAFFFF",
"Z  c #81FFFF",
"A  c #46FFFF",
"S  c #B2F1FE",
"D  c #B2E2FD",
"F  c #8BFFFF",
"G  c #C3FFFF",
"H  c #C7FFFF",
"J  c #2A2A2A",
"K  c #E8FFFF",
"L  c #C4FFFF",
"P  c #E1FFFF",
"I  c #A1FFFF",
"U  c #ADFFFF",
"Y  c #D1F6FE",
"T  c #DAEBFD",
"R  c #D8FFFF",
"E  c #B9FFFF",
"W  c gray88",
"Q  c #69F2FE",
"!  c #66D8FD",
"~  c #B4FBFF",
"^  c #ACFFFF",
"/  c #65EEFE",
"(  c #6FE7FD",
")  c #7DFFFF",
"_  c #79F0F0",
"`  c #49C9FD",
"'  c #2793F8",
"]  c #CAF3FF",
"[  c #7BCFFC",
"{  c #2990F7",
"}  c #111111",
"|  c #3AA6F9",
" . c #A3EBFF",
".. c #FDFFFF",
"X. c #65BBFB",
"o. c #267CF4",
"O. c #409FF8",
"+. c #74E4FF",
"@. c #9EF4FF",
"#. c #2C93F7",
"$. c #3680F4",
"%. c gray8",
"&. c #449EF8",
"*. c #63E3FF",
"=. c #5EE9FF",
"-. c #459EF8",
";. c #3380F4",
":. c #43A0F8",
">. c #66DFFF",
",. c #65DCFF",
"<. c #44A0F8",
"1. c #3481F4",
"2. c #47A2F8",
"3. c #66E0FF",
"4. c #2F7EF4",
"5. c #3396F7",
"6. c #68E3FF",
"7. c #46A5F9",
"8. c #1A74F4",
"9. c #57A7F8",
"0. c #59DBFF",
"q. c #62DAFF",
"w. c #2689F4",
"e. c #81A4F4",
"r. c #393939",
"t. c #070707",
"y. c #C0DFDF",
"u. c #E5F3FE",
"i. c #4CADF9",
"p. c #61E3FF",
"a. c #51BDFE",
"s. c #205FE8",
"d. c #71A1E5",
"f. c #C8FFFF",
"g. c #F3FFFF",
"h. c #BFFFFF",
"j. c #36A0F8",
"k. c #6DE6FF",
"l. c #53BFFD",
"z. c #3064EC",
"x. c #CECFCF",
"c. c #9D9D9D",
"v. c #4694F7",
"b. c #4CE1FF",
"n. c #37B0FB",
"m. c #0661F2",
"M. c #B0FFFF",
"N. c #E9FFFF",
"B. c #FEFFFF",
"V. c #F7F8FE",
"C. c #ACD7FC",
"Z. c #ACF2FF",
"A. c #99D5FD",
"S. c #9DC0FA",
"D. c #F1FFFF",
"F. c #B5FFFF",
"G. c #8DCAFA",
"H. c #A3FEFE",
"J. c #8FFFFF",
"K. c #0D6FF4",
"L. c #47C7FD",
"P. c #55C5FC",
"I. c #2A7EF6",
"U. c #377BEF",
"Y. c #56C3FD",
"T. c #51BEFD",
"R. c #2E71EE",
"E. c #3C5FD9",
"W. c #4EBCFF",
"Q. c #3D9BFA",
"!. c #2F4EA6",
"~. c #3870E6",
"^. c #52C0FD",
"/. c #40A1FB",
"(. c #2D4BA5",
"). c #3884F2",
"_. c #3F97F7",
"`. c #3A92F8",
"'. c #377BEB",
"]. c #368CF9",
"[. c #397DEE",
"{. c #808080",
"}. c #3C7FF4",
"|. c #3691FA",
" X c #3C8DEC",
".X c #B0F7FA",
"XX c #646DE1",
"oX c #1770F2",
"OX c #32D8FB",
"+X c gray11",
"@X c #040404",
"#X c #373737",
"$X c #C0FDFE",
"%X c #28ADF7",
"&X c #549AED",
"*X c #61FFFF",
"=X c #D9FFFF",
"-X c #CEFFFF",
";X c #EBFFFF",
":X c #DEFFFF",
">X c gray33",
",X c gray82",
"<X c #222222",
"1X c gray2",
"2X c #A7A7A7",
"3X c gray35",
"4X c #272727",
"5X c #1B1B1B",
"6X c #181818",
"7X c gray17",
/* pixels */
"  . . . . . . . . . . . . . . . . . . . . . . . . . . . . . . . . . . . . . . . . . . . . . . . . . . . . . . . . . . . . . . . ",
". . . . . . . . . . . . . . . . . . . . . . . . . . . . . . . . . . . . . . . . . . . . . . . . . . . . . . . . . . . . . . . . ",
". . . . . . . . . . . . . . . . . . . . . . . . . . . . . . . . . . . . . . . . . . . . . . . . . . . . . . . . . . . . . . . . ",
". . . . . . . . . . . . . . . . . . . . . . . . . . . . . . . . . . . . . . . . . . . . . . . . . . . . . . . . . . . . . . . . ",
". . . . . . . . . . . . . . . X . . . . . . . . o . . . . . . . . . . . . . . . . . . . . . . . . . . . . . . . . . . . . . . . ",
". . . . . . . . . . . . . . . . . . . . . O . . . + . . . . . . . . . . . . . . . . . . . . . . . . . . . . . . . . . . . . . . ",
". . . . . . . . . . . . . . . . . . . . . . . . . . . . . . . . . . . . . . . . . . . . . . . . . . . . . . . . . . . . . . . . ",
". . . . . . . . . . . . . . . . . . @ . . . . . . . . . . . . . . . . . . . . . . . . . . . . . . . . . . . . . . . . . . . . . ",
". . . . . . . . . . . . . . . . . . . . . . . . . . . . . . . . . . . . . . . . . . . . . . . . . . . . . . . . . . . . . . . . ",
". . . . . . . . . . . . . . . . . . . . . . . # . . . . . . . . . . . . . . . . . . . . . . . . . . . . . . . . . . . . . . . . ",
". . . . . . . . . . . . . . . . . . . . . . . . . . . . . . . . . . . . . . . . . . . . . . . . . . . . . . . $ . . . . . . . . ",
". . . . . . . . % . . . . . . . . . . . . . . . . . . . . . . . . . . . . . . . . . . . . . . . . . . . . . . . . . . . . . . . ",
". . . . . . . . . . . . . . . . . . . . . . . . . . . . . . . . . . . . . . . . . . . . . . . . . . . . . . . . . . . . . . . . ",
". . . & . . $ . . . . . . . . . . . . . . . . . . . . . . . . . . . . . . . . . . . . . . . . . . . . . . . . . . . . . . . . . ",
". . . . . . . . . . . . . . * . . . . . . . . . . . . . . . . . . . . . . . . . . . . . . . . . . . . . . . . . . . . . . . . . ",
". . . . . . . . . . . . . . . . . . = . . . . . . . . . . . . . . . . . . . . . . . . . . . . . . . . . . . . . . . . . . . . . ",
". . . . . . . . . . . . . . . . . . . . . . . . . . . . . . - ; : > . . . . . . . . . . . . . , . . . . . . . . . . . . . . . . ",
". . . . . . . . . . . . . . . . . . . . . . . . . . . . . < 1 2 3 4 5 . . . . . . . . . . . . . . . . . . . . . . . . . . . . . ",
". . . . . . . . . . . . . . . . . . . . . . . . . . . 6 7 8 9 0 q w e r . . . . . . . . . . . . . . . . . . . . . . . . . . . . ",
". . . . . . . . . . . . . . . . . . . . . . . . . . t y u i p a a a s d f a g . . . . . . . . . . . . . . . . . . . . . . . . . ",
". . . . . . . . . h . . . . . . . . . . . . . j w k . . l z a x c a v b . . n m M . . . . . . . . . . . . . . . . . . . . . . . ",
". . . . . . . . . . . . . . . . . . . . . . . . N M . . B V C Z A S D F . . G H a J . . . . . . . . . . . . . . . . . . . . . . ",
". . . . . . . . . . . . . . . . . . . . . . . . . a a K L P G I U Y T R E N W . . . . . . . . . . . . . . . . . . . . . . & . . ",
". . . . . . . . . . . . . . . . . . . . . . . . . . . . . Q ! ~ ^ / ( ) _ . . . . . . . . . . . . . . . X . . . . . . . . . . . ",
". . . . . . . . . . . . . . . . . . . . . . . . . . . * . ` ' ] a [ { . . . . . } . . . . . . . . . . . . . . . . . . . . . . . ",
". . . * . . . . . . . . . . . . . . . . . . . . . . . . . . |  ...X.o.. . . . . . . . . . . . . . . . . . . . . . . . . . . . . ",
". . . . . . . . . . . . . . . . . . . . . . . . . . . . . . O.+.@.#.$.. . . . . . . . . . . . . . . . . . . . . . . . . . , . . ",
". . . . %.. . . . . . . . . . . . . . . . . . . . . . . . . &.*.=.-.;.. . . . . . . . . . . . . . . . . . . . . . . . . . . . . ",
". . . . . . . . . . . . . . . . . . . . . . . . . . . . . . :.>.,.<.1.. . . . . . . . . . . . . . . . . . . . . . . . . . . . . ",
". . . . . . . . . . . . . . . . . . . . . . . . . . . . . . 2.3.3.<.4.. . . . . . . . . . . . . . . . . . . . . . . . . . . . . ",
". . . . . . . . . . . . . . . . . . . . . . . . . . . . . . 5.>.6.7.8.. . . . . . . . . . . . . . . . . . . . . . . . . . . . . ",
". . . . . . . . . . . . . . . . . . . . . . . . . . . . . . 9.0.q.w.e.. . . r.. . . . t.. . . . . . . . . . . . . . . . . . . . ",
". . . . . . . . . . . . . . . . . . . . . . . . . . . . y.u.i.p.a.s.d.f.g.. . . . . . . . . . . . . . . . . . . . . . . . . . . ",
". . . . . . . . . . . . . % . . . . . . . . . . . . . a h.. j.k.l.z.. . 2 K x.. . . . . . . . . . . . . . . . . . . . . . c.. . ",
". . . . . . . . . . . . . . . . . . . . . . . . X . . a U . v.b.n.m.. . M.N.B.. . . . . . . . . . . . . . . . . . . . . . . . . ",
". . . . . . . . . . . . . . . . . . . . . . . . . . . . a V.C.Z.A.S.. a D.F.. . . . . . . . . . . . . . . . . . . . . . . . . . ",
". . . . . . . . . . . . . . . . . . . . . . . . . . . . . . G.H.a C J.. . . . . . . . . . . . . . . . . . . . . . . . . . . . . ",
". . . . . . . . . . . . . . . . . . . . . . . . . . . . . . K.L.P.I.. . . . . . . . . . . . . . . . . . . . . . . . . . . . . . ",
". . . . . . . . . . . . . . . . . . . . . . . . . . . . . . U.Y.T.R.. . . . . . . . . . . . . . . . . . . . . . . . . . . . . . ",
". . . . . . . . . . . . . . . . . . . . . . . . . . . . . . E.W.Q.!.. . . . . . . . . . . . . . . . . . . .   . . . . . . . . . ",
". . . . . . . . . . . . . . . . & . . . . . . . . . . . . . ~.^./.(.. . . . . . . . . . . . . . . . . . . . . . . . . . . . . . ",
". . . . . . . . . . . & . . . . . . . . . . . . . . . . . . )._.`.. . . . . . . . . . . . . . . . . . . . . . . . . . . . . . . ",
". . . . . . . . . . . . . . . . . . . . . . . . . . . . . . '.].[.. . . . . . . . . . . . . . . . . . . . . . . . . . . . . . . ",
". . . . . . . {.. . . . . . . . . . . . . . . . . . . . . t.}.|. Xt.. . . . . . . . . . . . . & . . . . . . . . . . . . . . . . ",
". . . . . . . . . . . . . . . . . . . . . . . . . . . . . .XXXoXOX. a . . . . % . . . . . @ . . . . . . . . . . . . . . +X. . . ",
". . . . . . . . @X. . . . . . . . #X. . . . . . . . . . a $X%X&X. . *X=X. . . . . . . . . . . . . . . . . = . . . . . . . . . . ",
". . . . . . . . . . . . . . . . . . . . . . . . . . . . . . -X;X. :XZ . . . . . . . . . . . . . . . . . . . . . . . . . . . . . ",
". . . . . . . . . = . . . . . . . . . . . . . . . . . . . . . >X. . . . . . . . . . . . . . . . . . . . . . . . . . . . . . . . ",
". . . . . . . . . . . . . . . . . . . . . . . ,X. . . . . . . . . . . . . . . . . . . . . . . . . . <X. . . . . . . . . . . . . ",
". . . . . . . . . . . . . . . . . . . . . . . . . . . . . . . . . . . . . . . . . . . . . . . . . . . . . . . . . . . . . . . . ",
". . . . . . . . . . . . . . . 1X. . . . . . . . . . . . . . . . . . . . . . . . . . . . . . . . . . . . . . . . . . . . . . . . ",
". . . . . . . . . . . . . . . . . . . . . . . . . . . . . . . . . . . . . . . . . . . . . . . . . . . . . . . . . . . . . . . . ",
". . . . . . . . . . . . . . . . . . . . . . . . . . . . . . . . . . . . . . . . . . . . . . . . . . . . . . . . . . . . . . . . ",
". . . . . . . . . . . . . . . . . . . . . . . . . . . . . . . . . . . . . . . . . . . . . . . . . . . . . . . . . . . . . . . . ",
"X . . . 2X. . . . . . . . . . . . . . . . . = . . . . . . . . . . . . . . . . . . . . . . . . . . & . . . . . . . . . . . . . . ",
". 3X. . . . . . . . . . 4X. . . . . . . . . . . . . . . . . . . . . . . . . . . . . . . . 5X. . . . . . . . . . . . . . . . . . ",
". . . . . . . . . . . . . . . . . . . . . . . . . . . . . . . . . . . . . . . . . . . . . . . . . . . . . . . . . . . . . . . . ",
". . . % . . . . . . . . . . . . . . . . . . . . . . . . . . . . . . . . . . . . . . . . . . . . . . . . . . . . . . . . , o . . ",
". . . . . . . . . . . . . . . . . . . . %.. . . . . . . . . . . . . . . . . . . . . . . . . . . . . . . . . . . . . . . . . . . ",
". . . . . . . . . . . . . . . . . . . . . . . . . . . . . . . . . . . . . . . . . . . . . 1X. 6X. . . . . . . . . . . . . . . . ",
". . . . . . . . . . . . . & . . . . . . . . . . . . . . . . . . . . . . . . . . . . . . . . . . . . . . . . . . . . . . . . . . ",
". . . . . . . . . . . . . . . . . . . . . . . . . . . . . . . . . . . . . . . . & . . . . . . . . . . . . . . . . . 7X. . . . . ",
". . . . . . . . . . . . . . . . . . . . . . . . . . . . . . . . . . . . . . . . . . . . . . . . . . . . . . . . . . . . . . . . ",
". . . . . . . . . , . . . . . . . . . . . . . . . . . . . . . . . . . . . . . . . . . . . . . . . . . . . . . . . . . . . . . . "
};
