/* XPM */
static char *result[] = {
/* columns rows colors chars-per-pixel */
"64 64 143 2 ",
"   c #000001",
".  c #090406",
"X  c #04060A",
"o  c #0B060A",
"O  c #05090D",
"+  c #0B0A0B",
"@  c #11060C",
"#  c #110A0E",
"$  c #060B12",
"%  c #0C0C14",
"&  c #090F19",
"*  c #140710",
"=  c #140C12",
"-  c #1B0A14",
";  c #110E1A",
":  c #1F0B19",
">  c #0E1116",
",  c #0C111B",
"<  c #121113",
"1  c #181016",
"2  c #13151B",
"3  c #1C141A",
"4  c #13181F",
"5  c #1D1B1D",
"6  c #2A0D12",
"7  c #240C1B",
"8  c #2C0E1D",
"9  c #23131E",
"0  c #2E141C",
"q  c #0D1624",
"w  c #0C1926",
"e  c #161322",
"r  c #181322",
"t  c #151B23",
"y  c #1E1F24",
"u  c #191F2B",
"i  c #2F0E20",
"p  c #251120",
"a  c #2B1423",
"s  c #241A22",
"d  c #2C1925",
"f  c #2B1728",
"g  c #3E1425",
"h  c #35162A",
"j  c #39142A",
"k  c #391B2F",
"l  c #3E1631",
"z  c #1C2027",
"x  c #1B222C",
"c  c #132133",
"v  c #1A2536",
"b  c #15253E",
"n  c #1B2638",
"m  c #222323",
"M  c #212329",
"N  c #2E222F",
"B  c #2C2C2D",
"V  c #232731",
"C  c #282D35",
"Z  c #372933",
"A  c #3B2C38",
"S  c #3D2334",
"D  c #3D3039",
"F  c #41152D",
"G  c #5B1D26",
"H  c #451632",
"J  c #491C3A",
"K  c #5B1C31",
"L  c #531B3F",
"P  c #631F3D",
"I  c #49233C",
"U  c #5E2133",
"Y  c #1B2B47",
"T  c #1B2F4C",
"R  c #1C2F51",
"E  c #253045",
"W  c #2B3546",
"Q  c #22344E",
"!  c #2A3648",
"~  c #3E3546",
"^  c #353C45",
"/  c #353E4C",
"(  c #273D62",
")  c #591C42",
"_  c #621F40",
"`  c #522241",
"'  c #572947",
"]  c #572F49",
"[  c #463D44",
"{  c #60234B",
"}  c #682651",
"|  c #602C52",
" . c #6C2F57",
".. c #7E2950",
"X. c #603050",
"o. c #633F57",
"O. c #71345C",
"+. c #7C3964",
"@. c #344156",
"#. c #344460",
"$. c #364F7A",
"%. c #4B4248",
"&. c #494A4B",
"*. c #54424E",
"=. c #554450",
"-. c #595759",
";. c #625565",
":. c #6E676E",
">. c #68696F",
",. c #6B6F74",
"<. c #83295E",
"1. c #A53857",
"2. c #A6385A",
"3. c #842A62",
"4. c #9C3472",
"5. c #AF3D6D",
"6. c #A93571",
"7. c #AF3E72",
"8. c #966C6C",
"9. c #405983",
"0. c #5D6C81",
"q. c #787B81",
"w. c #B65293",
"e. c #8F7687",
"r. c #A37995",
"t. c #A97999",
"y. c #C14F8E",
"u. c #C25795",
"i. c #C15F9C",
"p. c #CB5E9C",
"a. c #CF6C9D",
"s. c #8C8F94",
"d. c #8F949C",
"f. c #9A9B9B",
"g. c #8993A4",
"h. c #8A99B4",
"j. c #DA89AF",
"k. c #DE95B3",
"l. c #E3A4BC",
"z. c #ECC2D5",
"x. c #F5DFE8",
"c. c #E9E8EA",
"v. c #FEFBFC",
/* pixels */
"                                                                    X + X                         . = t u                       ",
"                        X     X                                     + 9 =                               X                       ",
"                                                  . X   . .         @ = @                                                 X     ",
"                                                  o     . .           .                                                         ",
"                          . o                                                 X                                               . ",
"- o .         t         = 7 9 o         X                                           +                                           ",
"` A %       X O       @ j J I 9 o       X                                                                                   X   ",
"Z / O     X   X X   o 7 ) 4.w.O.3 +                                                   X                                         ",
"X & X = 2         o 7 L 4.j.z.y.{ 9 o                               X               . +                                         ",
"                . - F 3.p.x.v.k.6.) - X                       .   .                                                             ",
"                  . - l 3.a.l.5.P i @                           X @                                                             ",
"      X           .   = h 3.7.P i @       .                       .               o     X               +   X                   ",
"                      o - H P i @                                               . .                       X $ X                 ",
"                .       X : 8 @                         o             .                                     X                   ",
"X                         . : .                         .   X X       +                                                         ",
"                          @ 9 # .       X   %                 X                                           X                     ",
"            +               + X         .     8.8.;.;.~ ~ ~ 8.        X                                                   , d 7 ",
"                                    X     ~ ;.8.8.8.8.;.;.~ 8.8.8.8.8.                                                    s o.- ",
"O                                 .   N ~ ~ ;.;.8.8.8.8.;.8.8.8.8.~ ~ 8.                        < - o     X               + = o ",
"y X   X   .                     O   N ~ ;.;.;.;.;.;.;.;.;.8.8.8.;.;.~ 8.8.                    O W ;.9                   +       ",
"+ +               X     q         N N ~ ;.;.;.~ ~ ;.;.;.;.;.;.8.8.;.;.~ 8.8.  O               , Q ^ +                           ",
"                      X O       N N ~ ~ ~ ;.8.;.~ ~ ~ ;.8.;.;.;.8.8.;.;.~ 8.8.    X               % O                           ",
"                  . >       o   N N ~ ;.;.8.8.;.;.~ ~ ~ 8.8.8.;.;.8.8.8.8.8.8.;.~     ; .                                       ",
"                              ~ ~ N ~ ~ 8.8.;.;.;.;.~ ~ ~ ~ 8.8.;.8.8.8.8.8.8.8.;.~ ~     O                                     ",
"                              8.;.~ ~ ~ 8.8.;.;.;.;.~ ;.~ ~ ~ 8.8.8.~ ~ ~ 8.8.8.;.;.;.~ ~   %           X                       ",
"                          +   8.;.;.~ ~ ;.8.8.;.;.~ ~ ;.;.~ ~ 8.8.8.;.;.~ ~ 8.8.8.;.;.;.8.8.  e                                 ",
"                  @         ~ ~ 8.;.;.~ ;.;.8.8.;.8.8.;.;.;.~ 8.8.;.;.;.;.~ 8.8.8.8.8.8.8.8.8.  %           X X     X           ",
"                  X     X   ~ ~ ~ 8.~ ~ ~ ;.;.8.8.8.;.;.;.;.8.8.8.8.;.;.~ 8.8.~ ~ ~ ~ 8.8.8.;.;.  %                             ",
"                        X   ~ ~ ~ ~ ~ ~ ~ ~ ;.;.;.8.8.;.;.;.8.8.8.8.8.8.8.8.~ ;.;.~ ~ ~ 8.8.8.;.  e                             ",
"            X X   X   X X   ~ 8.8.~ ~ ~ ~ ~ ~ ~ ;.;.8.8.8.8.8.;.8.8.8.8.8.8.;.;.;.;.~ ~ 8.8.8.8.8.  X                         . ",
"            x R c +     o   8.8.;.;.;.~ ~ ~ ;.;.;.;.;.;.;.;.;.8.8.~ ~ 8.8.8.8.;.;.;.;.~ 8.8.8.~ ~   o                           ",
"            x d.0.%     O   8.;.;.;.;.~ ~ ;.;.~ ~ ~ ;.;.;.8.8.8.~ ;.~ ~ 8.;.8.8.8.;.;.~ 8.8.8.;.~ ~         X                 X ",
"          . V ,.=.@     +   8.8.;.;.;.~ ~ ;.8.8.;.~ ~ ~ ;.;.8.8.;.;.;.~ 8.;.;.8.8.8.8.8.8.8.;.;.;.~   X                         ",
"      o < X + 1 j @ . X     ~ 8.8.;.;.~ ;.;.;.8.8.;.;.~ ~ ;.;.8.8.;.;.~ 8.8.;.;.;.8.8.8.8.8.;.;.;.~                             ",
"      X O     X   . X + .   ~ ~ 8.8.~ ;.;.~ ~ ~ ;.;.;.;.~ ~ ;.;.8.8.8.8.;.8.8.8.;.;.;.8.8.8.8.8.;.  ;                           ",
"                  X # 3 +   ~ ~ ~ ~ ;.;.8.;.;.;.;.;.;.;.;.~ ~ ;.;.8.8.8.8.8.;.;.;.;.;.;.8.8.8.8.8.                  .     $ X   ",
"X               X , M B s . ~ ~ ~ ~ ;.;.8.8.;.;.~ 8.;.;.;.;.~ ~ ;.;.;.8.;.;.;.;.~ ~ ~ ;.;.;.8.8.  %                     O t &   ",
"              O q E #.:.] f   ~ ~ ~ ;.;.;.8.8.~ ~ 8.8.;.;.;.~ ~ ;.;.;.;.;.;.~ ~ ~ ~ ~ ~ ;.;.;.;.  X                   X > x t & ",
"            $ w R 9.h.c.t.|   N ~ ~ ~ ;.;.;.;.;.;.;.8.8.8.~ ~ ;.;.~ ;.;.~ ~ ~ ;.;.;.;.~ ~ ;.;.;.                  . + = d [ C t ",
"        5   O q Y $.g.c.r. .o N N ~ ~ ~ ;.;.;.;.~ ;.;.8.8.8.;.;.;.~ ;.8.8.8.;.;.;.;.;.;.;.~ ~   X   X             . 7 k X.e.=.z ",
"              X , n @.>.D s 3   N N N N ~ ~ ;.~ ~ ;.;.;.;.;.;.;.~ ~ ;.;.;.8.8.8.;.;.8.8.8.;.~                       o 7 )  .S - ",
"                X , n ! u & X o   N ~ ~ ~ ~ ~ ~ ;.;.;.;.;.;.;.~ ~ ~ ~ ~ ;.;.;.8.8.8.~ ~ 8.;.                        . o 7 L a @ ",
"            = X X X , u , X         N ~ ~ ~ ~ ~ ~ ~ ~ ~ ;.;.;.;.;.~ ~ ~ ~ ~ ~ ~ ~ ~ ~ N N                               o 7 *   ",
"                    O & X         M o ~ ~ ~ ~ ~ ~ N ~ ~ ~ ~ ~ ~ ~ ~ ~ ~ ~ ~ N N N N N N   X   o X                     < @ % =   ",
"                  +   X           O       ~ N N N N ~ ~ ~ ~ ~ ~ ~ N ~ ~ ~ ~ ~ ~ N N N   X         X             . + < I -.5     ",
"X               X                   o     X   N N N N ~ ~ ~ ~ N N N ~ ~ ~ ~ ~ N N                               + Z 5 %.q.t     ",
"                X                           $       N N N N N N N N N N N ~                                 . < < &.5 + t %     ",
"          X     +                                 %                               .         .                 X . # =     X     ",
"    +                                         X         . 3 9 = o       X         .         < y 2 +                             ",
"                  .                                   . * g U 0 @                   X       Y s.^ +                             ",
"                  o                                   @ j <.1.G 6 .                       X b ( Y X                             ",
"                      X                             O d } u.k.2.K 6 o                       X X %                               ",
"            X B         X                           X # k +.i.<.H - .                                                           ",
"            < f.B                                     X < m ' h - .     X                                                       ",
"      o                     . <                         . < 9 # .             +                                                 ",
"              m                                 %         . + X                                     X                           ",
"                                        . 3     $           . X       X .     m                   X                             ",
"                              +                                     . 3 o       X .             +                               ",
"              m                 t                             X     . o X               X                                     X ",
"              +                 O   o                                                                               X           ",
"    o         X                 +   . @                                                                                   X     ",
"    +                         +             +                                             X                               O     ",
"                                                                                                  +                             ",
"                                                                          X                                                     "
};
