/* XPM */
static char *result[] = {
/* columns rows colors chars-per-pixel */
"64 64 207 2 ",
"   c #010101",
".  c #090808",
"X  c #000011",
"o  c #181711",
"O  c #211E19",
"+  c #37361D",
"@  c #181425",
"#  c #19162D",
"$  c #0F0D3D",
"%  c #110E3B",
"&  c #171E33",
"*  c #1A1838",
"=  c #231F2D",
"-  c #211E36",
";  c #003F2F",
":  c #172634",
">  c #26252A",
",  c #292535",
"<  c #312D3C",
"1  c #353537",
"2  c #00523D",
"3  c #026B2F",
"4  c #52503B",
"5  c #050548",
"6  c #110E42",
"7  c #1A194B",
"8  c #010155",
"9  c #00005C",
"0  c #0A0959",
"q  c #001458",
"w  c #131454",
"e  c #17185C",
"r  c #211E45",
"t  c #211F5D",
"y  c #0F264E",
"u  c #152742",
"i  c #123A5F",
"p  c #262442",
"a  c #2A2844",
"s  c #363545",
"d  c #272658",
"f  c #24235D",
"g  c #353557",
"h  c #000064",
"j  c #090A65",
"k  c #00016C",
"l  c #010174",
"z  c #0B0D77",
"x  c #00017B",
"c  c #161770",
"v  c #141673",
"b  c #1B1B76",
"n  c #13167C",
"m  c #191A7B",
"M  c #1E217B",
"N  c #1B3570",
"B  c #282967",
"V  c #2B3866",
"C  c #383668",
"Z  c #222275",
"A  c #2D2D79",
"S  c #353376",
"D  c #413E4A",
"F  c #17584B",
"G  c #3D4254",
"H  c #156F53",
"J  c #2C4F77",
"K  c #464642",
"L  c #4C4B47",
"P  c #565644",
"I  c #484656",
"U  c #504D5A",
"Y  c #58575A",
"T  c #666656",
"R  c #484C6D",
"E  c #5B5A67",
"W  c #615E67",
"Q  c #727261",
"!  c #7D7D78",
"~  c #01B509",
"^  c #038024",
"/  c #00C603",
"(  c #00CC01",
")  c #00D400",
"_  c #00E900",
"`  c #01F300",
"'  c #01FF00",
"]  c #7F8079",
"[  c #63CE63",
"{  c #7BE174",
"}  c #838162",
"|  c #000282",
" . c #0A0A83",
".. c #00028B",
"X. c #000793",
"o. c #131390",
"O. c #2F078D",
"+. c #292B86",
"@. c #363786",
"#. c #333099",
"$. c #0007A5",
"%. c #53398C",
"&. c #5B38AB",
"*. c #0B6FAE",
"=. c #377EB1",
"-. c #44458C",
";. c #535580",
":. c #454699",
">. c #4D519F",
",. c #57589B",
"<. c #695095",
"1. c #476683",
"2. c #666786",
"3. c #7C7A81",
"4. c #6C6B9F",
"5. c #787899",
"6. c #444AA4",
"7. c #4E52A1",
"8. c #5657A6",
"9. c #6C6FA9",
"0. c #797BA7",
"q. c #817F83",
"w. c #7F809B",
"e. c #7F80A9",
"r. c #0099DB",
"t. c #2CE8F5",
"y. c #8B8A85",
"u. c #888789",
"i. c #918F8D",
"p. c #94938C",
"a. c #9C9C8B",
"s. c #87889B",
"d. c #959494",
"f. c #989791",
"g. c #9B9A94",
"h. c #969699",
"j. c #9E9D9A",
"k. c #A09F9D",
"l. c #AFAD91",
"z. c #A2A29D",
"x. c #A9A898",
"c. c #898AAA",
"v. c #8096A7",
"b. c #9D9CA2",
"n. c #888BB4",
"m. c #93A4A9",
"M. c #A5A5A2",
"N. c #A8A7A3",
"B. c #ABABA5",
"V. c #ADADAA",
"C. c #B2B2AE",
"Z. c #B9B9AA",
"A. c #A8A8B6",
"S. c #BDAFB5",
"D. c #B5B4B1",
"F. c #BABAB5",
"G. c #B4B4BD",
"H. c #B7BABA",
"J. c #BCBCBA",
"K. c #C6B7BE",
"L. c #8FE585",
"P. c #BEEAB2",
"I. c #C2C2AE",
"U. c #CAC8AC",
"Y. c #C4C4B5",
"T. c #CBCBB6",
"R. c #C2C1BC",
"E. c #D0CEBF",
"W. c #D5D5BE",
"Q. c #B9B9C2",
"!. c #C1BAC0",
"~. c #BFC1C1",
"^. c #C4C4C3",
"/. c #C9C9C7",
"(. c #C7C7C8",
"). c #CCCCCB",
"_. c #CFD0CD",
"`. c #D7D8C4",
"'. c #D4D4CE",
"]. c #DADBCA",
"[. c #D8C7D2",
"{. c #CFD0D0",
"}. c #D3D4D3",
"|. c #D7D8D5",
" X c #DDDDD5",
".X c #D6D7D9",
"XX c #DBDBDA",
"oX c #E0DFCA",
"OX c #EEC5DD",
"+X c #C4ECC0",
"@X c #DDE7DA",
"#X c #EFF0C9",
"$X c #E2E2D5",
"%X c #EAEAD4",
"&X c #E6E7D9",
"*X c #F3F2DB",
"=X c #FAFADD",
"-X c #DFDFE0",
";X c #FED4F9",
":X c #DFE0E2",
">X c #E4E4E3",
",X c #EEEEE7",
"<X c #EBECEB",
"1X c #FAF9E5",
"2X c #EFEFF0",
"3X c #FFEAFD",
"4X c #FAFBF2",
/* pixels */
"@ @ @ @ @ @ @ @ @ @ @ @ @ @ @ @ @ @ @ @ @ @ @ @ @ @ @ @ @ @ @ @ @ @ @ : : @ @ @ @ @ @ @ @ @ @ @ @ @ @ @ @ @ @ @ @ @ @ @ @ @ @ @ ",
"@ @ @ @ @ @ @ @ @ @ @ @ @ @ @ @ @ @ @ @ @ @ @ @ @ @ @ @ @ @ @ @ @ @ @ @ @ @ @ @ @ @ @ @ @ i @ @ @ @ @ @ @ @ @ @ @ @ @ @ @ @ @ @ ",
"@ @ @ @ @ @ @ @ @ @ @ @ @ @ @ @ @ @ @ i @ @ @ @ @ @ @ @ @ @ r.@ @ @ @ @ @ @ @ @ @ @ @ @ @ @ @ @ @ @ @ @ @ @ @ @ @ @ @ @ @ @ @ @ ",
"@ @ @ @ i @ @ @ @ @ @ @ @ @ @ @ @ @ @ @ @ @ @ @ @ @ @ @ @ *.t.*.@ @ @ @ @ @ @ @ @ @ @ @ @ @ @ @ @ @ @ @ @ @ @ @ @ @ r.@ @ @ @ @ ",
"@ @ @ @ @ @ @ @ @ @ @ @ @ @ @ @ @ @ @ @ @ @ @ @ @ @ @ @ @ @ r.@ @ @ @ @ @ @ *.@ @ @ @ @ @ @ @ @ @ @ @ *.@ @ @ @ @ @ @ @ @ @ @ @ ",
"@ @ @ @ @ @ @ @ @ @ @ @ @ @ @ @ @ @ @ @ @ @ @ @ @ @ @ @ @ @ @ @ @ @ @ @ @ @ @ @ @ @ @ @ @ @ @ @ @ @ @ @ @ @ @ @ @ @ @ @ @ @ @ @ ",
"@ @ @ @ @ @ @ @ @ @ @ @ @ @ @ @ @ @ @ @ @ @ @ u @ @ @ @ @ @ @ @ @ @ @ @ @ @ @ @ @ @ @ @ @ @ @ @ @ @ @ @ @ @ @ @ @ @ @ @ r.@ @ @ ",
"@ @ @ @ @ @ @ @ @ @ @ @ @ @ @ @ @ @ @ @ @ @ @ @ @ @ @ @ @ @ @ @ @ @ @ @ @ @ @ @ @ @ @ @ @ @ @ @ @ @ @ @ @ @ @ @ @ @ @ @ @ @ @ @ ",
"@ @ @ @ @ @ & @ @ @ @ @ @ @ @ @ @ @ @ @ @ @ @ @ @ @ : @ @ @ @ @ @ @ @ @ @ @ @ @ @ @ @ @ @ @ @ @ @ @ @ @ @ @ i @ @ @ @ @ @ @ @ @ ",
"@ @ @ @ @ @ @ @ @ @ @ @ @ @ i @ @ @ @ @ @ @ @ @ @ @ @ @ @ @ @ @ @ @ @ @ @ @ @ @ @ @ @ @ @ @ @ @ @ @ @ @ @ @ @ @ @ @ @ @ @ @ @ @ ",
"@ @ @ @ @ @ @ @ @ @ @ @ @ @ @ @ @ @ @ @ @ @ @ @ @ @ @ @ @ @ @ @ @ @ @ @ @ @ @ @ @ @ @ @ @ @ @ @ @ @ @ @ @ @ @ @ @ @ @ @ @ @ @ @ ",
"@ @ @ @ @ @ @ @ @ @ @ @ @ @ @ @ @ @ @ @ @ @ @ @ @ @ @ @ @ @ @ @ @ @ @ @ @ @ @ @ @ @ r.@ @ @ @ @ @ @ @ @ @ @ @ @ @ @ @ @ @ @ @ @ ",
"@ @ @ @ @ @ @ @ @ @ @ @ i @ @ @ @ *.@ @ @ @ @ @ @ @ @ @ @ @ @ # i @ @ @ @ @ @ @ @ @ @ @ @ @ @ @ @ @ @ @ & & & @ @ @ @ @ @ @ @ @ ",
"@ @ @ @ @ @ @ @ @ @ @ @ @ @ @ @ @ @ @ @ @ @ @ @ @ *.@ @ @ @ @ . > @ @ @ @ @ @ @ @ @ @ @ @ @ @ @ @ @ @ & u u u & @ @ @ @ @ @ @ @ ",
"@ @ @ @ @ @ @ @ @ @ @ @ @ @ @ @ @ @ @ @ @ @ @ @ @ @ @ @ @ @ & o O @ @ @ @ @ @ @ @ @ @ @ @ @ @ @ @ @ @ & u i i u & @ @ @ @ @ @ @ ",
"@ @ @ @ @ @ @ @ @ @ @ @ @ @ @ @ @ @ @ @ @ @ @ @ @ @ @ @ @ # p # # * # @ @ @ @ @ @ @ @ @ @ @ @ @ @ @ @ & u i *.i u & @ @ @ @ @ @ ",
"@ @ @ @ @ @ @ @ @ @ @ @ @ @ @ @ @ @ @ @ @ @ @ @ @ @ @ @ @ 7 l ....x # @ @ @ @ @ @ @ @ @ @ @ @ @ @ @ @ @ & u i i u & @ @ @ @ @ @ ",
"@ @ @ @ @ @ @ @ @ @ @ @ @ @ @ @ @ @ @ @ @ @ @ @ @ @ @ @ # g h z l h r @ @ @ @ @ @ @ @ @ @ @ @ @ @ @ @ @ @ & u u u & @ @ @ @ @ @ ",
"@ @ @ @ @ @ @ @ @ @ @ @ @ @ @ @ @ @ @ @ @ @ @ @ @ @ @ r.(.-XG.G.G.G.,Xv.@ @ @ @ @ @ @ @ @ *.@ @ @ @ @ @ @ @ & & & @ @ @ @ @ @ @ ",
"@ @ @ @ @ @ @ @ @ u @ @ @ @ @ @ @ @ @ @ @ @ @ @ @ @ @ @ 1 ] ,X X&X$XK W @ @ @ @ @ @ @ @ @ @ @ @ @ @ @ @ @ @ @ @ @ @ @ @ @ @ @ @ ",
"@ @ @ @ @ @ @ @ @ @ @ @ @ @ @ @ @ @ @ @ @ *.@ @ @ @ , E   1 <X}. X{.  Y U @ @ @ @ @ @ @ @ @ @ @ @ @ @ @ @ @ @ @ @ @ @ @ @ @ @ @ ",
"@ @ @ @ @ @ @ i @ @ @ @ @ @ @ @ @ @ @ @ @ @ @ @ @ @ s >X, 1 >X).|.{.  L {.@ @ @ @ @ @ @ @ @ @ @ @ @ @ @ @ @ @ @ @ @ @ @ @ @ *.@ ",
"@ @ @ @ @ @ @ @ @ @ @ @ @ @ @ @ @ @ @ @ @ @ @ @ @ @ < x.z.[.;Xo.&.3X!.f.k.@ @ @ @ @ @ @ @ @ @ @ @ @ @ i @ @ @ @ @ @ @ @ @ @ @ @ ",
"@ @ @ @ @ @ @ @ @ @ @ @ @ @ @ @ @ @ @ @ @ @ @ @ @ @ < j.[.+X[ u F { @XS.m.@ @ @ @ @ @ @ @ @ @ @ @ @ @ @ @ @ @ @ @ @ @ @ @ @ @ @ ",
"@ @ @ @ @ @ @ @ @ @ @ @ @ @ @ @ @ @ @ @ @ @ @ & & & < h.OXL.( ( ) ( P.!.d.@ @ @ @ @ @ @ @ @ @ @ @ @ @ @ @ @ @ @ @ @ @ @ @ @ @ @ ",
"@ @ @ @ @ @ @ @ @ @ @ @ @ @ @ @ @ @ @ @ @ @ & u u u s Z.&.H _ ~ / ) J <.x.@ @ @ @ @ @ @ @ @ @ @ @ @ @ @ @ @ @ @ @ @ @ @ @ @ @ @ ",
"@ @ @ @ @ @ @ @ @ @ @ @ @ @ @ @ @ @ @ @ @ @ & u i F R ].O.; ` ~ ( ) 5 %.K.@ @ @ @ @ @ @ @ i @ @ @ @ @ @ @ @ @ @ @ @ @ @ @ i @ @ ",
"@ @ @ @ @ @ @ @ @ @ @ @ @ @ @ @ i @ @ @ @ @ & u i *.1.I.O.2 ' ) ` ' q %.I.@ @ * @ @ @ @ @ @ @ @ @ @ @ @ @ @ @ @ @ @ @ @ @ @ @ @ ",
"@ @ @ @ @ @ @ @ @ @ @ @ @ @ @ @ @ @ @ @ @ @ @ & y J H.I.#.q ^ 3 3 3 l :.l.y.@ @ @ @ @ @ @ @ @ @ @ @ @ @ @ @ @ @ @ @ @ @ @ @ @ @ ",
"@ @ @ @ @ @ @ @ @ @ @ @ @ @ @ @ @ @ @ @ @ @ @ @ g G.p.].6.x x x x x x 9.U.j.h.@ @ @ u @ @ @ @ @ @ @ @ @ r.@ @ @ @ @ i @ @ @ @ @ ",
"@ @ & @ @ @ @ @ @ @ @ @ @ @ @ @ @ @ @ @ @ @ @ s ^.J.g.`.6.x | x z | l 9.oXj.^.b.@ @ @ @ @ @ @ @ @ @ @ @ @ @ @ @ @ @ @ @ @ @ @ @ ",
"@ @ @ @ @ @ @ @ @ @ @ @ @ @ @ @ j 7 @ @ S z A G.$X).f.W.6.x | k l X.k 4.W.z.). XA.+.z E @ @ A B @ @ @ @ @ @ @ @ @ @ @ @ @ @ @ @ ",
"@ @ @ @ @ @ @ @ @ @ u @ @ @ @ @ z x 7 @ S 8  .Q.Y.z.V.&X-.h | x x  .h 4.*XB.N.E.A.l 5 I @ e x A @ @ @ @ @ @ @ @ @ @ @ @ @ @ @ @ ",
"@ @ @ @ @ @ @ @ @ @ @ @ @ @ @ @ v l k @ S 9  .b.x.V.R.Y.0.m x X...l +.c./.R.M.l.s.x 8 I - 9 h S @ @ @ @ @ @ @ @ @ @ @ @ @ @ @ @ ",
"@ @ @ @ @ @ @ @ @ @ @ @ @ @ @ @ m l x s.A.0.n.f.C.:XJ.y.1Xf.        T.`.y./.^.z.V.n.0.V.5.k l B @ @ @ @ @ @ @ @ @ @ *.@ @ @ @ @ ",
"@ @ @ @ @ @ @ @ @ @ @ @ @ @ @ @ j 9 l G.=X*X%Xg.k.|.H.f.{.B.4 Q Q P J.J.f.^.F.j.}.*X=X*Xc.h h w @ @ @ @ @ @ @ @ @ @ @ @ @ @ @ @ ",
"@ @ @ @ i @ @ @ @ @ @ * 0 d y.q.5.0.e.^.'.).).F.^.<X^.p.K.(.F.,X2XR./.V.f.|.).f.).).).'.Q.0.0.s.! 3.B e # @ i @ @ @ @ @ @ @ @ @ ",
"@ @ @ @ @ @ @ @ @ , = d x #.^.].*X*X%X_././.).|.).V.z.f.^.H.j.)._.N.(.C.p.M.N.B.)._.).(.'.*X*X%XoXA.z  .=.< > @ @ @ @ @ @ @ @ @ ",
"@ @ @ @ @ @ @ @ @ L   } 4X*X%X$X_.)._.)./._.).>XV.  K B.^.F.V.}.).N.(.F.i.o K >X'.).).)._.).).|.$X$X1X%X+   D @ @ @ @ @ @ @ @ @ ",
"@ @ @ @ @ @ @ @ B c 8 M 7.:.A @.'.=X%X%X%X%X%X1XY.  Y }.}.V.M..X/.g.R.}.~.O L 4X%X%X%X%X%X%X1XA.v @.:.:.j 8 b f @ @ @ @ @ @ @ @ ",
"@ @ @ @ @ @ @ @ 0 | $...x | k h -.,.7.7.>.7.7.8.R . ! <X.XR.H.}.).D.)..X>XP @ 8.>.7.7.7.7.7.,.A 9 l | x X.$.l 6 @ @ @ @ @ @ @ @ ",
"@ @ @ @ @ & @ @ 0 h k l l l l h 8 h | x x x x x 8 . i.<XD.J.}.(.).}.D.J.,XT X h x x x x x x 9 8 l | x x k h k j @ @ @ @ @ @ @ @ ",
"@ @ @ @ @ @ @ @ g B B B f t e f e j l x x x x | h   ] 2Xj.B.}.).)._.g.C.2XP X x x | | x x | t t e w 5 w C C e 6 @ @ @ @ @ @ @ @ ",
"@ @ @ @ @ @ @ @ @ @ @ @ @ @ @ @ @ - r r r r - N n T B.@XM.V.}.).{.).z.D.>Xa.g o.p * % % $ % * @ @ @ @ @ @ # @ @ @ r.@ @ @ @ @ @ ",
"@ @ @ @ @ @ @ @ @ @ r.@ @ @ @ @ @ @ @ @ @ @ @ e o.Z.E.{.N.V.(.^.^.^.M.D.}.].5.x d @ @ @ @ @ @ @ @ @ @ @ @ @ @ @ @ @ @ @ @ i @ @ ",
"@ @ @ @ @ @ @ @ @ *.t.*.@ @ @ @ @ @ @ @ @ @ @ x n z.Y.|.k.b.d.h.h.h.j.C..XU.2.k b @ @ @ @ @ @ @ @ @ @ @ @ @ @ @ @ @ @ @ @ @ @ @ ",
"@ @ @ @ @ @ @ @ @ @ r.@ @ @ @ @ @ @ @ @ @ @ @ x n a.K.}.g.u.@ @ @ i d.B..XU.2.k b @ @ @ @ @ @ @ i @ @ @ @ @ @ @ @ @ @ @ @ @ @ @ ",
"@ @ @ @ @ @ @ @ @ @ @ @ @ @ @ @ @ @ @ @ & @ @ l b U.].}.i.q.@ @ @ @ i.M.XX#Xw.h Z @ @ @ @ @ @ @ @ @ @ @ @ @ @ @ @ @ @ @ @ @ @ @ ",
"@ @ @ @ @ @ @ @ @ @ @ @ @ @ @ @ @ @ @ @ @ & @ # d #.;.D E G # @ @ @ U Y s -.@.a a @ @ @ @ @ @ @ @ @ @ @ @ @ @ @ @ @ @ @ @ @ @ @ ",
"@ @ @ @ @ @ @ @ @ @ @ @ @ @ @ @ @ @ @ @ @ @ & @ g 9 w @ & @ @ @ @ @ @ @ @ 9 Z @ @ @ @ @ @ @ @ @ @ @ @ @ @ @ @ @ @ @ @ @ @ @ @ @ ",
"@ @ @ @ @ @ @ @ @ @ @ @ @ @ @ @ @ @ @ @ @ @ @ u g h B u @ @ @ @ @ @ @ @ @ v b # @ @ @ @ @ @ @ @ @ @ @ @ @ @ @ @ @ @ @ @ @ @ @ @ ",
"@ @ @ @ @ @ @ @ @ @ @ @ @ @ @ @ @ @ @ @ @ @ @ & V l V & @ @ @ @ @ @ @ @ @ b Z @ @ @ @ @ i @ @ @ @ @ @ @ @ @ @ @ @ @ @ @ @ @ @ @ ",
"@ @ @ @ @ @ @ @ @ @ @ @ @ @ @ @ @ @ @ @ @ @ @ & : *.u & @ @ @ @ @ @ @ @ @ @ @ @ @ @ @ @ @ @ @ @ @ @ @ @ @ @ @ @ @ @ @ @ @ @ @ @ ",
"@ @ @ @ @ @ @ @ @ @ @ @ @ @ & & & @ @ @ @ @ @ & u u u & @ @ @ @ @ @ @ @ @ @ @ @ @ @ @ @ @ @ @ @ @ @ @ @ @ i @ @ @ @ @ @ @ @ @ @ ",
"@ @ @ @ @ @ @ @ i @ @ @ @ & u u u & @ @ @ @ @ & : & & u @ @ @ @ @ i @ @ @ @ @ @ @ @ @ @ @ @ @ @ @ @ @ @ @ @ @ @ @ @ @ @ @ @ @ @ ",
"@ @ @ @ @ @ @ @ @ @ @ @ & i u i u & @ @ @ @ & @ @ @ @ @ & @ @ @ @ @ @ @ @ @ @ @ @ @ @ @ @ @ @ @ @ @ @ @ @ @ @ @ @ @ @ @ @ @ @ @ ",
"@ @ @ @ @ @ @ @ @ @ @ & u u u u u & @ @ @ @ @ @ @ @ @ @ @ & @ @ @ @ @ @ @ @ @ @ @ @ @ @ @ @ @ @ @ i @ @ @ @ @ @ @ @ @ @ @ @ @ @ ",
"@ @ @ @ @ @ @ @ @ @ @ & u i u i & @ @ @ @ @ @ @ @ @ @ @ @ @ @ @ @ @ @ @ @ @ @ @ @ @ @ @ @ @ @ @ @ @ @ @ @ @ @ i @ @ @ @ @ @ @ @ ",
"@ @ @ @ @ @ @ @ @ @ @ & i u u & @ @ @ @ @ @ @ @ @ @ @ @ @ @ @ @ @ @ @ @ @ @ @ @ @ @ @ @ @ @ @ @ @ @ @ @ @ @ @ @ @ @ @ @ @ @ @ @ ",
"@ @ @ @ @ @ @ @ @ @ @ @ & & & @ @ @ @ @ @ @ @ @ @ @ @ @ @ @ @ @ @ @ @ @ @ @ @ @ @ @ @ @ @ @ @ @ @ @ @ @ @ @ @ @ @ @ @ @ @ @ @ @ ",
"@ @ @ @ @ @ @ @ @ @ @ @ @ @ @ @ @ @ @ @ @ @ @ @ @ @ @ @ @ @ @ @ @ @ @ @ @ @ @ @ @ @ @ @ @ @ @ @ @ @ @ @ @ @ @ @ @ @ @ @ @ @ @ @ ",
"@ @ @ @ @ @ @ @ @ @ @ @ @ @ @ @ @ @ @ @ @ @ @ @ @ @ @ @ @ @ @ @ @ @ @ @ @ @ @ @ @ @ @ @ @ @ @ @ @ @ @ @ @ @ @ @ @ @ @ @ @ @ @ @ ",
"@ @ @ @ @ @ @ @ @ @ @ @ @ @ @ @ @ @ @ @ @ @ @ @ @ @ @ @ @ @ @ @ @ @ @ @ @ @ @ @ @ @ @ : @ @ @ @ @ @ @ @ @ @ @ @ @ @ @ @ @ @ @ @ ",
"@ @ @ @ @ @ @ @ @ @ @ @ @ @ @ @ @ @ @ @ @ @ @ @ @ @ @ @ @ @ @ @ @ @ @ @ @ @ @ @ @ @ @ @ @ @ @ @ @ @ @ @ @ @ @ @ @ @ @ @ @ @ @ @ "
};
