/* XPM */
static char *result[] = {
/* columns rows colors chars-per-pixel */
"64 64 196 2 ",
"   c #010101",
".  c #090808",
"X  c #000011",
"o  c #181711",
"O  c #211E19",
"+  c #37361D",
"@  c #181425",
"#  c #19172D",
"$  c #0F0D3D",
"%  c #110E3B",
"&  c #171E33",
"*  c #1C1D35",
"=  c #181639",
"-  c #231F2D",
";  c #211E36",
":  c #003F2F",
">  c #172634",
",  c #26252A",
"<  c #292535",
"1  c #312E3C",
"2  c #353537",
"3  c #026B2F",
"4  c #52503B",
"5  c #050548",
"6  c #110E42",
"7  c #14134E",
"8  c #1D1B4B",
"9  c #010155",
"0  c #00005C",
"q  c #0A0959",
"w  c #001458",
"e  c #1C1C55",
"r  c #14155A",
"t  c #211E45",
"y  c #211F5D",
"u  c #152742",
"i  c #123A5F",
"p  c #262442",
"a  c #2A2844",
"s  c #3A3745",
"d  c #232251",
"f  c #24235D",
"g  c #2B2A5C",
"h  c #313458",
"j  c #000064",
"k  c #090A65",
"l  c #00016C",
"z  c #010174",
"x  c #0F0F70",
"c  c #00017B",
"v  c #090C7C",
"b  c #141673",
"n  c #161876",
"m  c #1B1B76",
"M  c #13167C",
"N  c #1C1C7C",
"B  c #292967",
"V  c #363867",
"C  c #222275",
"Z  c #2D2D79",
"A  c #353376",
"S  c #413E4D",
"D  c #17584B",
"F  c #3F4555",
"G  c #156F53",
"H  c #2A4C7A",
"J  c #464642",
"K  c #4C4B47",
"L  c #565644",
"P  c #444257",
"I  c #4C4955",
"U  c #504D5A",
"Y  c #58575A",
"T  c #666656",
"R  c #5B5A67",
"E  c #45467D",
"W  c #615E67",
"Q  c #727261",
"!  c #7D7D78",
"~  c #01B509",
"^  c #00C603",
"/  c #00CC01",
"(  c #00D400",
")  c #00E900",
"_  c #01F300",
"`  c #01FF00",
"'  c #7F8079",
"]  c #63CE63",
"[  c #7BE174",
"{  c #838162",
"}  c #000282",
"|  c #0A0A83",
" . c #00028B",
".. c #1A0F8F",
"X. c #000793",
"o. c #2F078D",
"O. c #292B86",
"+. c #363786",
"@. c #333099",
"#. c #0007A5",
"$. c #53398C",
"%. c #5B38AB",
"&. c #205AAA",
"*. c #0B6FAE",
"=. c #44458C",
"-. c #525C8A",
";. c #454699",
":. c #4D519F",
">. c #57589B",
",. c #695095",
"<. c #7C7A81",
"1. c #6C6B9F",
"2. c #787899",
"3. c #444AA4",
"4. c #4E52A1",
"5. c #5657A6",
"6. c #6C6FA9",
"7. c #797BA7",
"8. c #817F83",
"9. c #0099DB",
"0. c #3B9ED5",
"q. c #2CE8F5",
"w. c #8B8A85",
"e. c #878588",
"r. c #918F8D",
"t. c #94938C",
"y. c #9C9D8B",
"u. c #878898",
"i. c #959394",
"p. c #989791",
"a. c #9B9A94",
"s. c #969699",
"d. c #9E9D9A",
"f. c #A09F9D",
"g. c #9FA59B",
"h. c #A8A797",
"j. c #AFAD91",
"k. c #A2A29D",
"l. c #898AAA",
"z. c #9D9CA2",
"x. c #888AB4",
"c. c #A5A5A2",
"v. c #A8A7A3",
"b. c #ABABA5",
"n. c #ADADAA",
"m. c #B2B2AE",
"M. c #B5B0AD",
"N. c #B9B9AA",
"B. c #A8A8B6",
"V. c #B6B5B2",
"C. c #BABAB5",
"Z. c #B4B4BD",
"A. c #BCBCBA",
"S. c #C6B7BE",
"D. c #8FE585",
"F. c #BEEAB2",
"G. c #C6C6AD",
"H. c #C5C5B5",
"J. c #CBCCB6",
"K. c #C2C2BC",
"L. c #D0CEBF",
"P. c #B9B9C2",
"I. c #C1BAC0",
"U. c #BFC1C1",
"Y. c #C4C4C3",
"T. c #C8C8C7",
"R. c #CCCCCB",
"E. c #C8D1CC",
"W. c #D7D8C4",
"Q. c #D4D4CE",
"!. c #DADBCA",
"~. c #D8C7D2",
"^. c #CFD0D0",
"/. c #D3D4D3",
"(. c #D7D8D5",
"). c #DDDDD5",
"_. c #D6D7D9",
"`. c #DBDBDA",
"'. c #E0DFCA",
"]. c #EEC5DD",
"[. c #C4ECC0",
"{. c #DDE7DA",
"}. c #EFF0C9",
"|. c #E2E2D5",
" X c #EAEAD4",
".X c #E6E7D9",
"XX c #F3F2DB",
"oX c #FAFADD",
"OX c #FED4F9",
"+X c #E4E4E3",
"@X c #EEEEE7",
"#X c #EBECEB",
"$X c #FAF9E5",
"%X c #EFEFF0",
"&X c #FFEAFD",
"*X c #FAFBF2",
/* pixels */
"@ @ @ @ @ @ @ @ @ @ @ @ @ @ @ @ @ @ @ @ @ @ @ @ @ @ @ @ @ @ @ @ @ @ @ > > @ @ @ @ @ @ @ @ @ @ @ @ @ @ @ @ @ @ @ @ @ @ @ @ @ @ @ ",
"@ @ @ @ @ @ @ @ @ @ @ @ @ @ @ @ @ @ @ @ @ @ @ @ @ @ @ @ @ @ @ @ @ @ @ @ @ @ @ @ @ @ @ @ @ i @ @ @ @ @ @ @ @ @ @ @ @ @ @ @ @ @ @ ",
"@ @ @ @ @ @ @ @ @ @ @ @ @ @ @ @ @ @ @ i @ @ @ @ @ @ @ @ @ @ 9.@ @ @ @ @ @ @ @ @ @ @ @ @ @ @ @ @ @ @ @ @ @ @ @ @ @ @ @ @ @ @ @ @ ",
"@ @ @ @ i @ @ @ @ @ @ @ @ @ @ @ @ @ @ @ @ @ @ @ @ @ @ @ @ *.q.*.@ @ @ @ @ @ @ @ @ @ @ @ @ @ @ @ @ @ @ @ @ @ @ @ @ @ 9.@ @ @ @ @ ",
"@ @ @ @ @ @ @ @ @ @ @ @ @ @ @ @ @ @ @ @ @ @ @ @ @ @ @ @ @ @ 9.@ @ @ @ @ @ @ *.@ @ @ @ @ @ @ @ @ @ @ @ *.@ @ @ @ @ @ @ @ @ @ @ @ ",
"@ @ @ @ @ @ @ @ @ @ @ @ @ @ @ @ @ @ @ @ @ @ @ @ @ @ @ @ @ @ @ @ @ @ @ @ @ @ @ @ @ @ @ @ @ @ @ @ @ @ @ @ @ @ @ @ @ @ @ @ @ @ @ @ ",
"@ @ @ @ @ @ @ @ @ @ @ @ @ @ @ @ @ @ @ @ @ @ @ u @ @ @ @ @ @ @ @ @ @ @ @ @ @ @ @ @ @ @ @ @ @ @ @ @ @ @ @ @ @ @ @ @ @ @ @ 9.@ @ @ ",
"@ @ @ @ @ @ @ @ @ @ @ @ @ @ @ @ @ @ @ @ @ @ @ @ @ @ @ @ @ @ @ @ @ @ @ @ @ @ @ @ @ @ @ @ @ @ @ @ @ @ @ @ @ @ @ @ @ @ @ @ @ @ @ @ ",
"@ @ @ @ @ @ & @ @ @ @ @ @ @ @ @ @ @ @ @ @ @ @ @ @ @ & @ @ @ @ @ @ @ @ @ @ @ y 7 q 6 @ @ @ @ @ @ @ @ @ @ @ @ i @ @ @ @ @ @ @ @ @ ",
"@ @ @ @ @ @ @ @ @ @ @ @ @ @ i @ @ @ @ @ @ @ @ @ @ @ @ @ @ @ @ @ @ @ @ @ - P m l l r @ @ @ @ @ @ @ @ @ @ @ @ @ @ @ @ @ @ @ @ @ @ ",
"@ @ @ @ @ @ @ @ @ @ @ @ @ @ @ @ @ @ @ @ @ @ @ @ @ @ @ @ @ @ @ @ @ @ @ @ 1   0 #.j V @ @ @ @ @ @ @ @ @ @ @ @ @ @ @ @ @ @ @ @ @ @ ",
"@ @ @ @ @ @ @ @ @ @ @ @ @ @ @ @ @ @ @ @ @ @ @ @ @ @ @ @ @ @ @ @ @ @ @ # s + k X.l A 9.@ @ @ @ @ @ @ @ @ @ @ @ @ @ @ @ @ @ @ @ @ ",
"@ @ @ @ @ @ @ @ @ @ @ @ i @ @ @ @ *.@ @ @ @ @ @ @ @ @ @ @ @ @ @ i @ @ y |  X;.} c 7 @ @ @ @ @ @ @ @ @ @ & & & @ @ @ @ @ @ @ @ @ ",
"@ @ @ @ @ @ @ @ @ @ @ @ @ @ @ @ @ @ @ @ @ @ @ @ @ *.@ @ @ @ @ @ @ @ @ f v oX;.} } 5 @ @ @ @ @ @ @ @ @ & u u u & @ @ @ @ @ @ @ @ ",
"@ @ @ @ @ @ @ @ @ @ @ @ @ @ @ @ @ @ @ @ @ @ @ @ @ @ @ @ @ @ & @ @ @ @ <.B.|.+.z c 7 @ @ @ @ @ @ @ @ @ & u i i u & @ @ @ @ @ @ @ ",
"@ @ @ @ @ @ @ @ @ @ @ @ @ @ @ @ @ @ @ @ @ @ @ @ @ @ @ @ @ @ @ @ @ @ @ <.'.|.b 0 z e @ @ @ @ @ @ @ @ @ & u i *.i u & @ @ @ @ @ @ ",
"@ @ @ @ @ @ @ @ @ @ @ @ @ @ @ @ @ @ @ @ @ @ @ @ @ @ @ @ @ @ B Z B B r u. X(.B.Z 0 e @ @ @ @ @ @ @ @ @ @ & u i i u & @ @ @ @ @ @ ",
"@ @ @ @ @ @ @ @ @ @ @ @ @ @ @ @ @ @ @ @ @ @ @ @ @ @ @ @ @ @ Z c l z 0 7.XXR.$X>.0 y ; @ @ @ @ @ @ @ @ @ @ & u u u & @ @ @ @ @ @ ",
"@ @ @ @ @ @ @ @ @ @ @ @ @ @ @ @ @ @ @ @ @ @ @ @ @ @ @ 9.@ @ @ r 0 z j l.XXR. X:.c c $ @ @ *.@ @ @ @ @ @ @ @ & & & @ @ @ @ @ @ @ ",
"@ @ @ @ @ @ @ @ @ u @ @ @ @ @ @ @ @ @ @ @ @ @ @ @ @ @ @ @ @ @ *.< 2.l.P.Q.R. X:.c c $ @ @ @ @ @ @ @ @ @ @ @ @ @ @ @ @ @ @ @ @ @ ",
"@ @ @ @ @ @ @ @ @ @ @ @ @ @ @ @ @ @ @ @ @ *.@ @ @ @ @ @ @ @ R 0.P n.XX(.R.R. X:.c } % @ @ @ @ @ @ @ @ @ @ @ @ @ @ @ @ @ @ @ @ @ ",
"@ @ @ @ @ @ @ i @ @ @ @ @ @ @ @ @ @ @ @ @ @ @ @ @ @ @ @ @ *.v $ 5 7.XXR.R.R. X:.c } % @ @ @ @ @ @ @ @ @ @ @ @ @ @ @ @ @ @ @ *.@ ",
"@ @ @ @ @ @ @ @ @ @ @ @ @ @ @ @ @ @ @ @ @ @ @ @ @ @ @ @ @ @ O.l c x.XXR.R.R. X4.c c = @ @ @ @ @ @ @ @ i @ @ @ @ @ @ @ @ @ @ @ @ ",
"@ @ @ @ @ @ @ @ @ @ @ @ @ @ @ @ @ @ @ @ @ @ @ @ @ @ @ @ @ @ B.B.u.n.(.R.R.Q. X4.c c p g n N C a @ @ @ @ @ @ @ @ @ @ @ @ @ @ @ @ ",
"@ @ @ @ @ @ @ @ @ @ @ @ @ @ @ @ @ @ @ @ @ @ @ * & & @ @ @ z.).R.j.k.d.p.b.+X*X5.j z | c z l j a @ @ @ @ @ @ @ @ @ @ @ @ @ @ @ @ ",
"@ @ @ @ @ @ @ @ @ @ @ @ @ @ @ @ @ @ @ @ @ @ * u > u & @ d.K.R.c.c.Y.C.E.v.J K @ X X h 2.1.W u.+.C N C @ @ @ @ @ @ @ @ @ @ @ @ @ ",
"@ @ @ @ @ @ @ @ @ @ @ @ @ @ @ @ @ @ @ @ @ @ * u i i u u.a.d.k.b.S.T.Y.`.c.o , 4 T 4 h.W.J.G.}.=.0 x m @ @ @ @ @ @ @ @ @ @ i @ @ ",
"@ @ @ @ @ @ @ @ @ @ @ @ @ @ @ @ i @ @ U /.f.i.s.n.E.H.j.G.!.W.XXL.w.p.p.t.w.U.+X@X%X`._.(.(.`.S @ @ @ @ @ @ @ @ @ @ @ @ @ @ @ @ ",
"@ @ @ @ @ @ @ @ @ @ @ @ @ @ @ @ @ 8.R Y K p.V.I.,.=.$.=.6.6.1.1.l.W.A.n.V.C.Q._.A.n.V.V.M.n.v.Y @ @ @ @ @ @ @ @ @ @ @ @ @ @ @ @ ",
"@ @ @ @ @ @ @ @ @ @ @ @ @ @ @ # p #XJ     I.{.F.H 5 w z } z l j O.H.A.R.Y.E.A.R.V.d.k.f.f.p.r.I @ @ @ @ 9.@ @ @ @ @ i @ @ @ @ @ ",
"@ @ & @ @ @ @ @ @ @ @ @ @ @ * c l Z..X^./.&X[ / ( ( ` 3 c } X.} z   L Y.c.v.a.V._.R.R.Y.s.@ @ @ @ @ @ @ @ @ @ @ @ @ @ @ @ @ @ @ ",
"@ @ @ @ @ @ @ @ @ @ @ @ , O = } z Z.|.)._.%.D ( ^ / _ 3 c c z v  .  Q %XR.T.R.R.R.R.R.Y.i.@ @ @ @ @ @ @ @ @ @ @ @ @ @ @ @ @ @ @ ",
"@ @ @ @ @ @ @ @ @ @ u @ . o #  .v P.{.(.Q.#.> / ~ ~ ( 3 } v l c X.  Q @XR./._./.T.R.R.I.s.@ @ @ @ @ @ @ @ @ @ @ @ @ @ @ @ @ @ @ ",
"@ @ @ @ @ @ @ @ @ @ @ @ @ @ p z j B.@X#X#XOX] ^ ) _ ` 3 c } } } z   4 C.g.n.v.C././.^.T.s.@ @ @ @ @ @ @ @ @ @ @ @ @ @ @ @ @ @ @ ",
"@ @ @ @ @ @ @ @ @ @ @ @ @ @ * 8 h .X{ 1 2 ~.[.D.G : D w c c c j ..p.b.Y.A.C.n.Y.A.b.m.b.z.8.8.s @ @ @ @ @ @ @ @ @ @ *.@ @ @ @ @ ",
"@ @ @ @ @ @ @ @ @ @ @ @ @ @ @ @ @ I.2 . , k.~.].%.o.o.@.3.;.3.=.2.$XQ.U.Y.Y.^./.m.f.c.v.c.a.r.W @ @ @ @ @ @ @ @ @ @ @ @ @ @ @ @ ",
"@ @ @ @ i @ @ @ @ @ @ @ @ @ @ @ @ @ @ W +Xv.a.f.N.W.H.G.W.W.W..XH.w.p.t.a.b./.#X#X%X{./.(.(./.F @ @ @ @ @ @ i @ @ @ @ @ @ @ @ @ ",
"@ @ @ @ @ @ @ @ @ @ @ @ @ @ @ @ @ @ @ < s 1 1 1 2 I I m.t.a.t.n.U.A.C.Y.k.J Y ! w.' b.T.K.S.!.-.e B g @ *.@ @ @ @ @ @ @ @ @ @ @ ",
"@ @ @ @ @ @ @ @ @ @ @ @ @ @ @ @ @ @ *.@ @ @ @ @ @ @ @ s A.A.T.k.n.{._.#Xn.    . .   T N.y.y.J.@.j l z @ *.@ @ @ @ @ @ @ @ @ @ @ ",
"@ @ @ @ @ @ @ @ @ @ @ @ @ @ @ @ @ @ @ @ @ @ @ @ @ @ @ @ s I.{.H.b.n.f.K.R.b.H.E 0 w N ..M M b &.H F h 9.q.9.@ @ @ @ @ @ @ @ @ @ ",
"@ @ @ @ @ @ @ @ @ @ @ @ @ @ @ @ @ @ @ @ @ @ @ @ @ @ @ @ @ s Z.P.f.p.a.C.(.{.*X5.z } t r c c z i i u & @ 9.@ @ @ @ @ @ @ @ @ @ @ ",
"@ @ @ @ @ & @ @ @ @ @ @ @ @ @ @ @ @ @ @ @ @ @ @ @ @ @ @ @ @ O.| | x. XR.R.R. X:.} z ; # @ @ > u u u & @ *.@ @ @ @ @ @ @ @ @ @ @ ",
"@ @ @ @ @ @ @ @ @ @ @ @ @ @ @ @ @ @ @ @ @ @ @ @ @ @ @ @ @ @ l 9 z 8.$XR.R.R. X:.} c t @ @ @ @ * & & @ @ @ @ @ @ @ @ @ @ @ @ @ @ ",
"@ @ @ @ @ @ @ @ @ @ @ @ @ @ @ @ @ @ @ @ @ @ @ i @ @ @ @ @ @ A A A z.oXQ.Y.R. X:.c c t @ @ @ @ @ @ @ @ @ @ @ @ @ @ 9.@ @ @ @ @ @ ",
"@ @ @ @ @ @ @ @ @ @ 9.@ @ @ @ @ @ @ @ @ @ @ @ @ @ @ @ @ @ @ @ @ # u.Z.I.^.R. X:.c c t @ @ @ @ @ @ @ @ @ @ @ @ @ @ @ @ @ @ i @ @ ",
"@ @ @ @ @ @ @ @ @ *.q.*.@ @ @ @ @ @ @ @ @ @ @ @ @ @ @ @ @ @ @ 7 l } z l. XR. X:.} z 8 @ @ @ @ @ @ @ @ @ @ @ @ @ @ @ @ @ @ @ @ @ ",
"@ @ @ @ @ @ @ @ @ @ 9.@ @ @ @ @ @ @ @ @ @ @ @ @ @ @ @ @ @ @ t } c z 0 7.XXR.oX>.j x * @ @ @ @ @ i @ @ @ @ @ @ @ @ @ @ @ @ @ @ @ ",
"@ @ @ @ @ @ @ @ @ @ @ @ @ @ @ @ @ @ @ @ & @ @ @ @ @ @ @ @ @ k v b n k 2.XX^.Q.=.9 e @ @ @ @ @ @ @ @ @ @ @ @ @ @ @ @ @ @ @ @ @ @ ",
"@ @ @ @ @ @ @ @ @ @ @ @ @ @ @ @ @ @ @ @ @ & @ @ @ @ @ @ @ & @ @ @ @ @ 8.!.|.+.0 j y @ @ @ @ @ @ @ @ @ @ @ @ @ @ @ @ @ @ @ @ @ @ ",
"@ @ @ @ @ @ @ @ @ @ @ @ @ @ @ @ @ @ @ @ @ @ & @ @ @ @ @ & @ @ @ @ @ @ e.Y..XZ z z y @ @ @ @ @ @ @ @ @ @ @ @ @ @ @ @ @ @ @ @ @ @ ",
"@ @ @ @ @ @ @ @ @ @ @ @ @ @ @ @ @ @ @ @ @ @ @ u & & & u @ @ @ @ @ @ @ g +.XX;.} c y @ @ @ @ @ @ @ @ @ @ @ @ @ @ @ @ @ @ @ @ @ @ ",
"@ @ @ @ @ @ @ @ @ @ @ @ @ @ @ @ @ @ @ @ @ @ @ & u u u & @ @ @ @ @ @ @ q } *X4.c z f @ @ i @ @ @ @ @ @ @ @ @ @ @ @ @ @ @ @ @ @ @ ",
"@ @ @ @ @ @ @ @ @ @ @ @ @ @ @ @ @ @ @ @ @ @ @ & u *.u & @ @ @ @ @ @ @ = d { N  .l g @ @ @ @ @ @ @ @ @ @ @ @ @ @ @ @ @ @ @ @ @ @ ",
"@ @ @ @ @ @ @ @ @ @ @ @ @ @ & & & @ @ @ @ @ @ & u u u & @ @ @ @ @ @ @ @ -   9 #.l B @ @ @ @ @ @ @ @ @ @ @ i @ @ @ @ @ @ @ @ @ @ ",
"@ @ @ @ @ @ @ @ i @ @ @ @ & u u u & @ @ @ @ @ & & & & u @ @ @ @ @ i @ @ < K b c j B @ @ @ @ @ @ @ @ @ @ @ @ @ @ @ @ @ @ @ @ @ @ ",
"@ @ @ @ @ @ @ @ @ @ @ @ & i u i u & @ @ @ @ & @ @ @ @ @ & @ @ @ @ @ @ @ @ @ B q k g @ @ @ @ @ @ @ @ @ @ @ @ @ @ @ @ @ @ @ @ @ @ ",
"@ @ @ @ @ @ @ @ @ @ @ & u u u u u & @ @ @ @ @ @ @ @ @ @ @ & @ @ @ @ @ @ @ @ @ @ @ @ @ @ @ @ @ @ @ i @ @ @ @ @ @ @ @ @ @ @ @ @ @ ",
"@ @ @ @ @ @ @ @ @ @ @ & u i u i & @ @ @ @ @ @ @ @ @ @ @ @ @ @ @ @ @ @ @ @ @ @ @ @ @ @ @ @ @ @ @ @ @ @ @ @ @ @ i @ @ @ @ @ @ @ @ ",
"@ @ @ @ @ @ @ @ @ @ @ & i u u & @ @ @ @ @ @ @ @ @ @ @ @ @ @ @ @ @ @ @ @ @ @ @ @ @ @ @ @ @ @ @ @ @ @ @ @ @ @ @ @ @ @ @ @ @ @ @ @ ",
"@ @ @ @ @ @ @ @ @ @ @ @ & & & @ @ @ @ @ @ @ @ @ @ @ @ @ @ @ @ @ @ @ @ @ @ @ @ @ @ @ @ @ @ @ @ @ @ @ @ @ @ @ @ @ @ @ @ @ @ @ @ @ ",
"@ @ @ @ @ @ @ @ @ @ @ @ @ @ @ @ @ @ @ @ @ @ @ @ @ @ @ @ @ @ @ @ @ @ @ @ @ @ @ @ @ @ @ @ @ @ @ @ @ @ @ @ @ @ @ @ @ @ @ @ @ @ @ @ ",
"@ @ @ @ @ @ @ @ @ @ @ @ @ @ @ @ @ @ @ @ @ @ @ @ @ @ @ @ @ @ @ @ @ @ @ @ @ @ @ @ @ @ @ @ @ @ @ @ @ @ @ @ @ @ @ @ @ @ @ @ @ @ @ @ ",
"@ @ @ @ @ @ @ @ @ @ @ @ @ @ @ @ @ @ @ @ @ @ @ @ @ @ @ @ @ @ @ @ @ @ @ @ @ @ @ @ @ @ @ & @ @ @ @ @ @ @ @ @ @ @ @ @ @ @ @ @ @ @ @ ",
"@ @ @ @ @ @ @ @ @ @ @ @ @ @ @ @ @ @ @ @ @ @ @ @ @ @ @ @ @ @ @ @ @ @ @ @ @ @ @ @ @ @ @ @ @ @ @ @ @ @ @ @ @ @ @ @ @ @ @ @ @ @ @ @ "
};
