/* XPM */
static char *result[] = {
/* columns rows colors chars-per-pixel */
"64 64 205 2 ",
"   c #010101",
".  c #090909",
"X  c #19170D",
"o  c #000011",
"O  c #161615",
"+  c #37361D",
"@  c #181425",
"#  c #18162D",
"$  c #0F0D3D",
"%  c #110E3B",
"&  c #171E33",
"*  c #1C1939",
"=  c #231F2D",
"-  c #211E36",
";  c #003F2F",
":  c #192536",
">  c #272727",
",  c #262536",
"<  c #312E3C",
"1  c #353537",
"2  c #00523D",
"3  c #026B2F",
"4  c #52503B",
"5  c #050548",
"6  c #110E42",
"7  c #14134E",
"8  c #1D1B4B",
"9  c #010155",
"0  c #00005C",
"q  c #0A0959",
"w  c #001458",
"e  c #141353",
"r  c #1C1D57",
"t  c #14145E",
"y  c #211E45",
"u  c #211F5D",
"i  c #002A41",
"p  c #152742",
"a  c #123A5F",
"s  c #2C2946",
"d  c #3A3745",
"f  c #30364F",
"g  c #242455",
"h  c #24245C",
"j  c #2B2A5C",
"k  c #363456",
"l  c #000064",
"z  c #080A67",
"x  c #00006C",
"c  c #13156C",
"v  c #010174",
"b  c #0F0F70",
"n  c #00017B",
"m  c #090C7C",
"M  c #141673",
"N  c #161876",
"B  c #1B1B76",
"V  c #13167C",
"C  c #1C1C7C",
"Z  c #1D227A",
"A  c #282867",
"S  c #383668",
"D  c #222275",
"F  c #2B2D77",
"G  c #353476",
"H  c #403D4A",
"J  c #17584B",
"K  c #156F53",
"L  c #30496D",
"P  c #464642",
"I  c #4C4B47",
"U  c #565644",
"Y  c #434456",
"T  c #4C4955",
"R  c #504D5A",
"E  c #58575A",
"W  c #666656",
"Q  c #48476F",
"!  c #5B5A67",
"~  c #615E67",
"^  c #727261",
"/  c #7D7D78",
"(  c #01B509",
")  c #00C603",
"_  c #00CC01",
"`  c #00D400",
"'  c #00E900",
"]  c #01F300",
"[  c #01FF00",
"{  c #7F8079",
"}  c #63CE63",
"|  c #7BE174",
" . c #838162",
".. c #000282",
"X. c #0A0A83",
"o. c #00028C",
"O. c #11108A",
"+. c #000793",
"@. c #2F078D",
"#. c #292B86",
"$. c #363786",
"%. c #333099",
"&. c #0007A5",
"*. c #53398C",
"=. c #5B38AB",
"-. c #2C56A8",
";. c #0B6FAE",
":. c #44458C",
">. c #535580",
",. c #454699",
"<. c #4D519F",
"1. c #57589B",
"2. c #695095",
"3. c #666786",
"4. c #7C7A81",
"5. c #6C6B9F",
"6. c #787899",
"7. c #444AA4",
"8. c #4E52A1",
"9. c #5657A6",
"0. c #6C6FA9",
"q. c #797BA7",
"w. c #817F83",
"e. c #7F809B",
"r. c #7F80A8",
"t. c #0099DB",
"y. c #2CE8F5",
"u. c #8B8A85",
"i. c #878589",
"p. c #918F8D",
"a. c #94938C",
"s. c #9C9C8B",
"d. c #87879A",
"f. c #959494",
"g. c #989791",
"h. c #9B9A94",
"j. c #969699",
"k. c #9E9D9A",
"l. c #A09F9D",
"z. c #9FA59B",
"x. c #AFAD91",
"c. c #A2A29D",
"v. c #A9A898",
"b. c #898BAB",
"n. c #9D9CA2",
"m. c #888AB4",
"M. c #A5A5A2",
"N. c #A8A7A3",
"B. c #ABABA5",
"V. c #ADADAA",
"C. c #B2B2AE",
"Z. c #B9B9AA",
"A. c #A8A8B6",
"S. c #BDAFB5",
"D. c #B6B5B2",
"F. c #BABAB5",
"G. c #B4B4BD",
"H. c #BCBCBA",
"J. c #C6B7BE",
"K. c #8FE585",
"L. c #BEEAB2",
"P. c #C2C2AE",
"I. c #CAC8AC",
"U. c #C4C4B5",
"Y. c #CBCBB6",
"T. c #C2C1BC",
"R. c #D0CEBF",
"E. c #D5D5BE",
"W. c #B9B9C2",
"Q. c #C1BAC0",
"!. c #BFC1C1",
"~. c #C4C4C3",
"^. c #C9C9C7",
"/. c #C7C7C8",
"(. c #CCCCCB",
"). c #CFD0CD",
"_. c #D7D8C4",
"`. c #D4D4CE",
"'. c #DADBCA",
"]. c #D8C7D2",
"[. c #CFD0D0",
"{. c #D3D4D3",
"}. c #D7D8D5",
"|. c #DDDDD5",
" X c #D6D7D9",
".X c #DBDBDA",
"XX c #E0DFCA",
"oX c #EEC5DD",
"OX c #C4ECC0",
"+X c #DDE7DA",
"@X c #EFF0C9",
"#X c #E2E2D5",
"$X c #EAEAD4",
"%X c #E6E7D9",
"&X c #F3F2DB",
"*X c #FAFADD",
"=X c #FED4F9",
"-X c #DFE0E2",
";X c #E4E4E3",
":X c #EEEEE7",
">X c #EBECEB",
",X c #FAF9E5",
"<X c #EFEFF0",
"1X c #FFEAFD",
"2X c #FAFBF2",
/* pixels */
"@ @ @ @ @ @ @ @ @ @ @ @ @ @ @ @ @ @ @ @ @ @ @ @ @ @ @ @ @ @ @ @ @ @ @ : : @ @ @ @ @ @ @ @ @ @ @ @ @ @ @ @ @ @ @ @ @ @ @ @ @ @ @ ",
"@ @ @ @ @ @ @ @ @ @ @ @ @ @ @ @ @ @ @ @ @ @ @ @ @ @ @ @ @ @ @ @ @ @ @ @ @ @ @ @ @ @ @ @ @ a @ @ @ @ @ @ @ @ @ @ @ @ @ @ @ @ @ @ ",
"@ @ @ @ @ @ @ @ @ @ @ @ @ @ @ @ @ @ @ a @ @ @ @ @ @ @ @ @ @ t.@ @ @ @ @ @ @ @ @ @ @ @ @ @ @ @ @ @ @ @ @ @ @ @ @ @ @ @ @ @ @ @ @ ",
"@ @ @ @ a @ @ @ @ @ @ @ @ @ @ @ @ @ @ @ @ @ @ @ @ @ @ @ @ ;.y.;.@ @ @ @ @ @ @ @ @ @ @ @ @ @ @ @ @ @ @ @ @ @ @ @ @ @ t.@ @ @ @ @ ",
"@ @ @ @ @ @ @ @ @ @ @ @ @ @ @ @ @ @ @ @ @ @ @ @ @ @ @ @ @ @ t.@ @ @ @ @ @ @ ;.@ @ @ @ @ @ @ @ @ @ @ @ ;.@ @ @ @ @ @ @ @ @ @ @ @ ",
"@ @ @ @ @ @ @ @ @ @ @ @ @ @ @ @ @ @ @ @ @ @ @ @ @ @ @ @ @ @ @ @ @ @ @ @ @ @ @ @ @ @ @ @ @ @ @ @ @ @ @ @ @ @ @ @ @ @ @ @ @ @ @ @ ",
"@ @ @ @ @ @ @ @ @ @ @ @ @ @ @ @ @ @ @ @ @ @ @ p @ @ @ @ @ @ @ @ @ @ @ @ @ @ @ @ @ @ @ @ @ @ @ @ @ @ @ @ @ @ @ @ @ @ @ @ t.@ @ @ ",
"@ @ @ @ @ @ @ @ @ @ @ @ @ @ @ @ @ @ @ @ @ @ @ @ @ @ @ @ @ @ @ @ @ @ @ @ @ @ @ @ @ @ @ @ @ @ @ @ @ @ @ @ @ @ @ @ @ @ @ @ @ @ @ @ ",
"@ @ @ @ @ @ & @ @ @ @ @ @ @ @ @ @ @ @ @ @ A q q A @ & @ @ @ @ @ @ @ @ @ @ @ @ @ @ @ @ @ @ @ @ @ @ @ @ @ @ @ a @ @ @ @ @ @ @ @ @ ",
"@ @ @ @ @ @ @ @ @ @ @ @ @ @ a @ @ @ @ @ @ A l ..c I , @ @ @ @ @ @ @ @ @ @ @ @ @ @ @ @ @ @ @ @ @ @ @ @ @ @ @ @ @ @ @ @ @ @ @ @ @ ",
"@ @ @ @ @ @ @ @ @ @ @ @ @ @ @ @ @ @ @ @ @ j x &.9   # @ @ @ @ @ @ @ @ @ @ @ @ @ @ @ @ @ @ @ @ @ @ @ @ @ @ @ @ @ @ @ @ @ @ @ @ @ ",
"@ @ @ @ @ @ @ @ @ @ @ @ @ @ @ @ @ @ @ @ @ A x o.Z  .g * @ @ @ @ @ @ @ @ @ @ @ @ @ @ t.@ @ @ @ @ @ @ @ @ @ @ @ @ @ @ @ @ @ @ @ @ ",
"@ @ @ @ @ @ @ @ @ @ @ @ a @ @ @ @ ;.@ @ @ h v n 8.2X..q @ @ @ @ a @ @ @ @ @ @ @ @ @ @ @ @ @ @ @ @ @ @ @ & & & @ @ @ @ @ @ @ @ @ ",
"@ @ @ @ @ @ @ @ @ @ @ @ @ @ @ @ @ @ @ @ @ u v n ,.$X$.j @ @ @ @ @ @ @ @ @ @ @ @ @ @ @ @ @ @ @ @ @ @ @ & p p p & @ @ @ @ @ @ @ @ ",
"@ @ @ @ @ @ @ @ @ @ @ @ @ @ @ @ @ @ @ @ @ u v v F %X^.i.@ @ : @ @ @ @ @ @ @ @ @ @ @ @ @ @ @ @ @ @ @ @ & p a a p & @ @ @ @ @ @ @ ",
"@ @ @ @ @ @ @ @ @ @ @ @ @ @ @ @ @ @ @ @ @ u l l $.#X'.w.@ @ @ @ @ @ @ @ @ @ @ @ @ @ @ @ @ @ @ @ @ @ @ & p a ;.a p & @ @ @ @ @ @ ",
"@ @ @ @ @ @ @ @ @ @ @ @ @ @ @ @ @ @ @ @ @ r 9 :.`.`.$X6.z N M m l @ @ @ @ @ @ @ @ @ @ @ @ @ @ @ @ @ @ @ & p a a p & @ @ @ @ @ @ ",
"@ @ @ @ @ @ @ @ @ @ @ @ @ @ @ @ @ @ @ @ * z l 1.*X(.&Xq.0 v v m y @ @ @ @ @ @ @ @ @ @ @ @ @ @ @ @ @ @ @ @ & p p p & @ @ @ @ @ @ ",
"@ @ @ @ @ @ @ @ @ @ @ @ @ @ @ @ @ @ @ @ 8 v n 8.$X(.%Xb.v n x 7 @ @ @ a @ @ @ @ @ @ @ @ @ ;.@ @ @ @ @ @ @ @ & & & @ @ @ @ @ @ @ ",
"@ @ @ @ @ @ @ @ # : @ @ @ @ @ @ @ @ @ @ y n n <.$X(.(.~.G.d.@ ;.@ @ @ @ @ @ @ @ @ @ @ @ @ @ @ @ @ @ @ @ @ @ @ @ @ @ @ @ @ @ @ @ ",
"@ @ @ @ @ @ @ @ @ @ @ @ @ @ @ @ @ @ @ @ y v n 8.$X(.^.`.&XA.G -.G # @ @ @ @ @ @ @ @ @ @ @ @ @ @ @ @ @ @ @ @ @ @ @ @ @ @ @ @ @ @ ",
"@ @ @ @ @ @ @ a @ @ @ @ @ @ @ @ @ @ @ @ y n n 8.$X^.(.(.&Xr.9 0 X.;.@ @ @ @ @ @ @ @ @ @ @ @ @ @ @ @ @ @ @ @ @ @ @ @ @ @ @ @ ;.@ ",
"@ @ @ @ @ @ @ @ @ @ @ @ @ @ @ @ @ @ @ @ - v n 8.$X(.(.(.$Xm.X.X.F @ @ @ @ @ @ @ @ @ @ @ @ @ @ @ @ @ @ a @ @ @ @ @ @ @ @ @ @ @ @ ",
"@ @ @ @ @ @ @ @ @ @ @ @ @ @ @ # v n n t r ..n 9.2X%X}.F.k.g.n.W.G.d @ @ t.@ @ @ @ @ @ @ @ @ @ @ @ @ @ @ @ @ @ @ @ @ @ @ @ @ @ @ ",
"@ @ @ @ @ @ @ @ @ @ @ @ s k k j B V V O.V l 9 Q U.V.).T.z.V.v.U..X~.d @ @ @ @ @ @ @ @ @ @ @ @ @ @ @ @ @ @ @ @ @ @ @ @ @ @ @ @ @ ",
"@ @ @ @ @ @ @ @ @ @ @ @ v l 0 %.Y.s.v.P.W   . .     V.>X X-XC.c./.H.F.d @ @ @ @ @ @ @ @ @ @ @ @ @ @ @ @ @ @ @ @ @ @ @ @ @ @ @ @ ",
"@ @ @ @ @ @ @ @ @ @ @ @ j h e >.XXH.U.^.V.{ u./ E P M.~.F.F.T.V.a.h.a.D.T T < < < < d = @ a @ @ @ @ @ @ @ @ @ @ @ @ @ @ @ a @ @ ",
"@ @ @ @ @ @ @ @ @ @ @ @ @ @ @ H {.{.}.)..X<X>X>X`.N.h.a.g.u.U.%X_._._.P.P.'.Z.k.l.N.;X~ @ @ @ @ @ @ @ @ @ @ @ @ @ @ @ @ @ @ @ @ ",
"@ @ @ @ @ @ @ @ @ @ @ @ @ @ @ ~ a.h.c.N.M.l.D. X).~.~.T.).,Xr.:.7.7.8.%.@.@.=.oXQ.B.<   1 ~.@ @ @ @ @ @ @ @ @ @ @ @ @ @ @ @ @ @ ",
"@ @ @ @ @ @ @ @ @ @ @ @ @ @ @ d 4.i.n.B.V.B.H.Q.V.F.H.^.B.g.O.l n n n w 2 ; K K.OX].1 1 / .XS 8 # @ @ @ t.@ @ @ @ @ a @ @ @ @ @ ",
"@ @ & @ @ @ @ @ @ @ @ @ @ @ @ @ @ @ f./.{.{.{.H.N.V.k.F.4   v ......n 3 [ ] ' _ } =X>X>X,XA.l v s @ @ @ @ @ @ @ @ @ @ @ @ @ @ @ ",
"@ @ @ @ @ @ @ @ @ @ @ @ @ @ @ @ @ @ j.~.(.(./.[.}. X(.>X^   +.n x n ..3 ` ( ( _ i O.`.{.|.W.m o.# X . @ @ @ @ @ @ @ @ @ @ @ @ @ ",
"@ @ @ @ @ @ @ @ @ @ p @ @ @ @ @ @ @ j.~.[.(.(.(./.(.(.<X^   o...v m n 3 ] _ ) ` J =. X}.+XG.v n # X . @ @ @ @ @ @ @ @ @ @ @ @ @ ",
"@ @ @ @ @ @ @ @ @ @ @ @ @ @ @ @ @ @ j.~.(.(.{.D.h.N.B.T.U   v ..+...m 3 [ ` ` _ | 1X[.[.%XG.l n : @ @ @ @ @ @ @ @ @ @ @ @ @ @ @ ",
"@ @ @ @ @ @ @ @ @ @ @ @ @ @ @ T p.f.k.k.c.k.D.(.J.^./.(.T.U.#.l x v ..v w 5 L L.+XT.    P :X, # @ @ @ @ @ @ @ @ @ @ ;.@ @ @ @ @ ",
"@ @ @ @ @ @ @ @ @ @ @ @ @ @ @ ! M.V.C.D.D.C.F.}.).F.D.V.F._.b.5.5.0.0.:.*.*.2.Q.S.g.T E ! i.# @ @ @ @ @ @ @ @ @ @ @ @ @ @ @ @ @ ",
"@ @ @ @ a @ @ @ @ @ @ @ @ @ @ d .X X X X.X>X>X-X!.u.a.g.g.u.R.&XE.XXI.Z.F.J.x.g.p.k.{.R @ & & * @ @ @ @ @ @ a @ @ @ @ @ @ @ @ @ ",
"@ @ @ @ @ @ @ @ @ @ @ @ B b 0 :.@XI.Y._.x.U W U > O M.}.~.^.T.B.c.k.g.i.@ @ @ @ @ @ @ @ & p p p * @ @ @ ;.@ @ @ @ @ @ @ @ @ @ @ ",
"@ @ @ @ @ @ @ @ @ @ @ @ B D D $.e.3.3.6.k o o @ P P N.(.F.~.M.M.(.T.j.@ @ @ @ @ @ @ @ @ & p a a p : @ @ ;.@ @ @ @ @ @ @ @ @ @ @ ",
"@ @ @ @ @ @ @ @ @ @ @ @ @ @ @ s l x x n m n l 9.2X;XB.g.k.c.v._.|.k.& @ @ @ @ @ @ @ @ @ & p a ;.a p & t.y.t.@ @ @ @ @ @ @ @ @ @ ",
"@ @ @ @ @ @ @ @ @ @ @ @ @ @ @ s D Z N j , n n <.$X).(.(.}.V.d.A.A.@ @ @ @ @ @ @ @ @ @ @ @ & p a a p & @ t.@ @ @ @ @ @ @ @ @ @ @ ",
"@ @ @ @ @ : @ @ @ @ @ @ @ @ @ @ @ @ @ @ * ..n 8.$X(.(.(.&Xm.n x #.@ @ @ @ @ @ @ @ @ @ @ @ @ & p p p & @ ;.@ @ @ @ @ @ @ @ @ @ @ ",
"@ @ @ @ @ @ @ @ @ @ @ @ @ @ @ @ @ @ @ @ % n n 8.$X(.(.(.&Xq.9 5 V @ @ @ @ @ @ @ @ @ @ @ @ @ @ & & & @ @ @ @ @ @ @ @ @ @ @ @ @ @ ",
"@ @ @ @ @ @ @ @ @ @ @ @ @ @ @ @ @ @ @ @ $ ..n 8.$X(./.`.&XV.Y R ! @ @ @ @ @ @ t.@ @ @ @ @ @ @ @ @ @ @ @ @ @ @ @ @ t.@ @ @ @ @ @ ",
"@ @ @ @ @ @ @ @ @ @ t.@ @ @ @ @ @ @ @ @ $ n n 8.$X(.`.W.m.w., @ @ @ @ @ @ @ @ @ @ @ @ @ @ @ @ @ @ @ @ @ @ @ @ @ @ @ @ @ @ a @ @ ",
"@ @ @ @ @ @ @ @ @ ;.y.;.@ @ @ @ @ @ @ @ $ ..n 8.$X(.&Xb.x x 0 t @ @ @ @ @ @ @ @ @ @ @ @ @ @ @ @ @ @ @ @ @ @ @ @ @ @ @ @ @ @ @ @ ",
"@ @ @ @ @ @ @ @ @ @ t.@ @ @ @ @ @ @ @ @ * u 0 1.,X(.&Xq.l v x v F a @ @ @ @ @ @ @ @ @ @ @ @ @ @ a @ @ @ @ @ @ @ @ @ @ @ @ @ @ @ ",
"@ @ @ @ @ @ @ @ @ @ @ @ @ @ @ @ @ @ @ @ & r 9 G A.`.%Xd.e A A F A @ @ @ @ @ @ @ @ @ @ @ @ @ @ @ @ @ @ @ @ @ @ @ @ @ @ @ @ @ @ @ ",
"@ @ @ @ @ @ @ @ @ @ @ @ @ @ @ @ @ @ @ @ @ r v 0 M #X'.w.@ & @ @ @ @ @ @ @ @ @ @ @ @ @ @ @ @ @ @ @ @ @ @ @ @ @ @ @ @ @ @ @ @ @ @ ",
"@ @ @ @ @ @ @ @ @ @ @ @ @ @ @ @ @ @ @ @ @ e ..v $.#XA./ & @ @ @ @ @ @ @ @ @ @ @ @ @ @ @ @ @ @ @ @ @ @ @ @ @ @ @ @ @ @ @ @ @ @ @ ",
"@ @ @ @ @ @ @ @ @ @ @ @ @ @ @ @ @ @ @ @ @ 5 n ..7.*Xm D @ @ @ @ @ @ @ @ @ @ & @ @ @ @ @ @ @ @ @ @ @ @ @ @ @ @ @ @ @ @ @ @ @ @ @ ",
"@ @ @ @ @ @ @ @ @ @ @ @ @ @ @ @ @ @ @ @ @ e n ..,.$Xm A @ @ @ @ @ @ @ @ @ @ @ @ @ @ @ @ a @ @ @ @ @ @ @ @ @ @ @ @ @ @ @ @ @ @ @ ",
"@ @ @ @ @ @ @ @ @ @ @ @ @ @ @ @ @ @ @ @ # S x +.z + L , @ @ @ @ @ @ @ @ @ @ @ @ @ @ @ @ @ @ @ @ @ @ @ @ @ @ @ @ @ @ @ @ @ @ @ @ ",
"@ @ @ @ @ @ @ @ @ @ @ @ @ @ & & & @ @ @ @ S l &.9   f & @ @ @ @ @ @ @ @ @ @ @ @ @ @ @ @ @ @ @ @ @ @ @ @ @ a @ @ @ @ @ @ @ @ @ @ ",
"@ @ @ @ @ @ @ @ a @ @ @ @ & : p p & @ @ @ t x x C Y : p @ @ @ @ @ a @ @ @ @ @ @ @ @ @ @ @ @ @ @ @ @ @ @ @ @ @ @ @ @ @ @ @ @ @ @ ",
"@ @ @ @ @ @ @ @ @ @ @ @ & a p a p & @ @ @ 6 z 7 h @ @ @ : @ @ @ @ @ @ @ @ @ @ @ @ @ @ @ @ @ @ @ @ @ @ @ @ @ @ @ @ @ @ @ @ @ @ @ ",
"@ @ @ @ @ @ @ @ @ @ @ & p p p p : & @ @ @ @ @ @ @ @ @ @ @ & @ @ @ @ @ @ @ @ @ @ @ @ @ @ @ @ @ @ @ a @ @ @ @ @ @ @ @ @ @ @ @ @ @ ",
"@ @ @ @ @ @ @ @ @ @ @ & p a p a & @ @ @ @ @ @ @ @ @ @ @ @ @ @ @ @ @ @ @ @ @ @ @ @ @ @ @ @ @ @ @ @ @ @ @ @ @ @ a @ @ @ @ @ @ @ @ ",
"@ @ @ @ @ @ @ @ @ @ @ & a p p & @ @ @ @ @ @ @ @ @ @ @ @ @ @ @ @ @ @ @ @ @ @ @ @ @ @ @ @ @ @ @ @ @ @ @ @ @ @ @ @ @ @ @ @ @ @ @ @ ",
"@ @ @ @ @ @ @ @ @ @ @ @ & & & @ @ @ @ @ @ @ @ @ @ @ @ @ @ @ @ @ @ @ @ @ @ @ @ @ @ @ @ @ @ @ @ @ @ @ @ @ @ @ @ @ @ @ @ @ @ @ @ @ ",
"@ @ @ @ @ @ @ @ @ @ @ @ @ @ @ @ @ @ @ @ @ @ @ @ @ @ @ @ @ @ @ @ @ @ @ @ @ @ @ @ @ @ @ @ @ @ @ @ @ @ @ @ @ @ @ @ @ @ @ @ @ @ @ @ ",
"@ @ @ @ @ @ @ @ @ @ @ @ @ @ @ @ @ @ @ @ @ @ @ @ @ @ @ @ @ @ @ @ @ @ @ @ @ @ @ @ @ @ @ @ @ @ @ @ @ @ @ @ @ @ @ @ @ @ @ @ @ @ @ @ ",
"@ @ @ @ @ @ @ @ @ @ @ @ @ @ @ @ @ @ @ @ @ @ @ @ @ @ @ @ @ @ @ @ @ @ @ @ @ @ @ @ @ @ @ & @ @ @ @ @ @ @ @ @ @ @ @ @ @ @ @ @ @ @ @ ",
"@ @ @ @ @ @ @ @ @ @ @ @ @ @ @ @ @ @ @ @ @ @ @ @ @ @ @ @ @ @ @ @ @ @ @ @ @ @ @ @ @ @ @ @ @ @ @ @ @ @ @ @ @ @ @ @ @ @ @ @ @ @ @ @ "
};
