/* XPM */
static char *result[] = {
/* columns rows colors chars-per-pixel */
"32 32 5 1 ",
"  c black",
". c #040107",
"X c #180321",
"o c #270734",
"O c #49145F",
/* pixels */
"                                ",
"   OOOOOOOOOOOOOOOOOOOOOOOOOOOOO",
"   OOOOOOOOOOOOOOOOOOOOOOOOOOOOO",
"   OOOOOOOOOOOOOOOOOOOOOOOOOOOOO",
"OOOOOOOOOOOOOOOOOOOOOOOOOOOOOOOO",
"OOOOOOOOOOOOOOOOOOOOOOOOOOOOOOOO",
"OOOOOOOOOOOOOOOOOOOOOOOOOOOOOOOO",
"OOOOOOOOOOOOoXXXXXXXXXXXXXXXXXXX",
"OOOOOOOOOOOOX                   ",
"OOOOOOOOOOOOX                   ",
"OOOOOOOOOOOOX                   ",
"OOOOOOOOOOOOX                   ",
"OOOOOOOOOOOOX                   ",
"OOOOOOOOOOOOOOOOOOOOOOOOOOOOOOX ",
"OOOOOOOOOOOOOOOOOOOOOOOOOOOOOOX ",
"OOOOOOOOOOOOOOOOOOOOOOOOOOOOOOX ",
"OOOOOOOOOOOOOOOOOOOOOOOOOOOOOOOO",
"OOOOOOOOOOOOOOOOOOOOOOOOOOOOOOOO",
"OOOOOOOOOOOOOOOOOOOOOOOOOOOOOOOO",
"OOOOOOOOOOOOoXXXXXXXXOOOOOOOOOOO",
"OOOOOOOOOOOOX        OOOOOOOOOOO",
"OOOOOOOOOOOOX        OOOOOOOOOOO",
"OOOOOOOOOOOOX        OOOOOOOOOOO",
"OOOOOOOOOOOOX        OOOOOOOOOOO",
"OOOOOOOOOOOOX        OOOOOOOOOOO",
"OOOOOOOOOOOOOOOOOOOOOOOOOOOOOOOO",
"OOOOOOOOOOOOOOOOOOOOOOOOOOOOOOOO",
"OOOOOOOOOOOOOOOOOOOOOOOOOOOOOOOO",
"XXXOOOOOOOOOOOOOOOOOOOOOOOOOOOoX",
"   OOOOOOOOOOOOOOOOOOOOOOOOOOOX ",
"   OOOOOOOOOOOOOOOOOOOOOOOOOOOX ",
"   XXXXXXXXXXXXXXXXXXXXXXXXXXX. "
};
