/* XPM */
static char *result[] = {
/* columns rows colors chars-per-pixel */
"32 32 8 1 ",
"  c black",
". c #22062E",
"X c #2B083A",
"o c #300A3F",
"O c #3B0F4E",
"+ c #421157",
"@ c #46135B",
"# c #49145F",
/* pixels */
"                                ",
"   oOOOOOOOOOOOOOOOOOOOOOOOOOO. ",
"   O##########################X ",
"   O##########################X ",
"oOO@##########################+O",
"O###############################",
"O###############################",
"O###########OXXXXXXXX+##########",
"O###########X        O##########",
"O###########X        O##########",
"O###########X        O##########",
"O###########X        O##########",
"O###########X        O##########",
"O###########+OOOOOOOO@##########",
"O###############################",
"O###############################",
".XX+############################",
"   O############################",
"   O############################",
"   .XXXXXXXXXXXXXXXXX+##########",
"                     O##########",
"                     O##########",
"                     O##########",
"                     O##########",
"                     O##########",
"                     O##########",
"                     O##########",
"                     O##########",
"                     O##########",
"                     O##########",
"                     O##########",
"                     .XXXXXXXXXX"
};
