/* XPM */
static char *result[] = {
/* columns rows colors chars-per-pixel */
"64 64 209 2 ",
"   c #000001",
".  c #010000",
"X  c #010202",
"o  c #020202",
"O  c #000100",
"+  c black",
"@  c #010001",
"#  c #010101",
"$  c #000101",
"%  c #020102",
"&  c #010100",
"*  c #010102",
"=  c gray1",
"-  c #040404",
";  c #020101",
":  c #050405",
">  c #040406",
",  c #060506",
"<  c #090807",
"1  c #060605",
"2  c #030202",
"3  c #010201",
"4  c #020203",
"5  c #020303",
"6  c #020201",
"7  c #040304",
"8  c #262727",
"9  c #030304",
"0  c #080708",
"q  c #030404",
"w  c #030203",
"e  c #050606",
"r  c #050506",
"t  c #09080A",
"y  c #0A0A0B",
"u  c #08080A",
"i  c #060607",
"p  c #030201",
"a  c #080908",
"s  c #181919",
"d  c #282730",
"f  c #121216",
"g  c #1C1C21",
"h  c #24232A",
"j  c #1C1D22",
"k  c #141317",
"l  c #0A0B0C",
"z  c #040403",
"x  c #070506",
"c  c #0A0A0C",
"v  c #0E0E10",
"b  c #080709",
"n  c #151519",
"m  c #40404C",
"M  c #8886A1",
"N  c #A3A2C2",
"B  c #8D8AA6",
"V  c #474654",
"C  c #17171C",
"Z  c #060505",
"A  c #413535",
"S  c #050404",
"D  c #0F0F12",
"F  c #27272F",
"G  c #9C9AB9",
"H  c #F0EDFF",
"J  c white",
"K  c #F7F3FF",
"L  c #A6A4C4",
"P  c #31313A",
"I  c #101013",
"U  c #181413",
"Y  c #050303",
"T  c gray2",
"R  c #1E1E23",
"E  c #605F72",
"W  c #DBD9FF",
"Q  c #EAE8FF",
"!  c #6B697E",
"~  c #18181D",
"^  c #060608",
"/  c gray3",
"(  c #1A191E",
")  c #717085",
"_  c #F6F3FF",
"`  c #8786A1",
"'  c #08090A",
"]  c #070708",
"[  c #18181C",
"{  c #69677C",
"}  c #EEEAFF",
"|  c #8786A0",
" . c #1E1E24",
".. c #09090B",
"X. c #0C0C0C",
"o. c #0E0C0C",
"O. c #211B1B",
"+. c #020001",
"@. c #131317",
"#. c #494856",
"$. c #C7C5EC",
"%. c #E9E7FF",
"&. c #727086",
"*. c #1A1A1E",
"=. c #070709",
"-. c #0C0C0E",
";. c #232229",
":. c #8C8AA5",
">. c #E6E4FF",
",. c #FDFBFF",
"<. c #B4B1D4",
"1. c #43424F",
"2. c #040405",
"3. c #0C0B0E",
"4. c #080809",
"5. c #070809",
"6. c #070608",
"7. c #151418",
"8. c #464653",
"9. c #9895B4",
"0. c #BEBCE1",
"q. c #B0AED1",
"w. c #1D1D23",
"e. c #0B0A0D",
"r. c #2E2E37",
"t. c #050607",
"y. c #0E0D10",
"u. c #4C4B5A",
"i. c #504E5D",
"p. c #050406",
"a. c #090A0C",
"s. c #16171B",
"d. c #42424E",
"f. c #656478",
"g. c #5D5C6D",
"h. c #282830",
"j. c #050507",
"k. c #060507",
"l. c #030305",
"z. c #1B1B21",
"x. c #585767",
"c. c #4D4C5B",
"v. c #09090A",
"b. c #100F12",
"n. c #131417",
"m. c #0D0C0F",
"M. c #0A0A0D",
"N. c #32323C",
"B. c #16171A",
"V. c #040505",
"C. c #030405",
"Z. c #222322",
"A. c #080909",
"S. c #040303",
"D. c #1A1A1B",
"F. c #0F1013",
"G. c #070606",
"H. c #050504",
"J. c #080606",
"K. c gray15",
"L. c #0A0B0A",
"P. c #0C0C0D",
"I. c #0D0D10",
"U. c #0B0B0D",
"Y. c #030204",
"T. c #0F0C0B",
"R. c #030403",
"E. c #131216",
"W. c gray30",
"Q. c #020302",
"!. c #0C0B0B",
"~. c #060606",
"^. c #090909",
"/. c #040506",
"(. c #010103",
"). c #2E2D2E",
"_. c #020103",
"`. c #020204",
"'. c #070607",
"]. c #07080A",
"[. c #060708",
"{. c gray12",
"}. c #030302",
"|. c gray7",
" X c #1B1B1B",
".X c gray6",
"XX c #2E2D36",
"oX c #080707",
"OX c #0B090A",
"+X c #0B0809",
"@X c gray4",
"#X c #0F0D0C",
"$X c #3C3132",
"%X c #241E1E",
"&X c #0D0B0B",
"*X c #0A0809",
"=X c #241D1E",
"-X c #A48484",
";X c #8B7171",
":X c #120E0F",
">X c #09080B",
",X c #100D0D",
"<X c #3D3131",
"1X c #413434",
"2X c #0D0B0C",
"3X c #0D0A0B",
"4X c #0D0A0A",
"5X c #080607",
"6X c #070707",
/* pixels */
"  . X   o . O   + + + + o + + @ + # @ + o . $   + + +   % . @   + + $ & o & # & @ # # * = # + $ O O . + o + O O O O # % - ; # + ",
"O + + + +   + . $     + + +   . $ :   +   O O O $ + + + + + + # . + . . # ; ; @ # @   # # . O O # > $ # & + + + . # & # # #   . ",
"  $ + + # . + # + + + + $ + O + + $   + # # , + . @ + + #   < @   @   ; 1 = 2 X $ ; &   # + + # 3 4 X # # .     . # O   & . + + ",
"+ $ & * ; * $ & + o   + # O O . + O   # # $ $ O . 5 + . + . $ $ . + . 6 7 8 9 o # 0   & +   $ # 5 q w % + O + + @ e + . + + + + ",
"$ 5 r t y u i = # +   # X p *   + $ # a @ 2 O $ O # & + +   + . + +   X = s 9 o $ #   +   + O X q d y o @ o +   . + . . + + + + ",
"= t f g h j k l 9 @ 2 % z x = % O #     # .   X # c #   . + O + +   + # 2 2 o % . + 2   # o $ X w v 4 * # + . @ . & + + & + + + ",
"b n m M N B V C u o @ 5 Z A S 2 .     . + #   + # # $ . + & + O + + + O @ X # . + + O   . 2 . # % o % # #   + & .   $ + + $ + + ",
"D F G H J K L P I e # o - U Y o + + + . O   . . @ T @ O   O # + + O +   $ + + O   ; + O & O @ O + # . &   + + . $ o + $   + O + ",
"R E W J J J Q ! ~ ^ # # - = w ; & @ O . X   O $   + & . 4 $ o + O   . + X + +   + + . . - @ + + . $ # + X   + & / * # # = . . + ",
"( ) _ J J J J ` R ' # & # 3 6 6 * ] # . # O + O #   .     . . O 9 . . + + O + + @ + & @ +   . $ # ] # #   + . @ * * 2 5 o # + + ",
"[ { } J J J J |  ...# $ * # # X.# # # O # O O   + O + + @ + . + . @ + + #   $ @   @   . # O . # X o 3 # # + + # # 2 o.O.= +.    ",
"@.#.$.J J J %.&.*.] # 5 $ - # 3 # 5 $ $ + +   q . +   w     +   + 4 $ $ # o * -   + . 5     3 = r =.- X # + + q O 3 o T * # + + ",
"-.;.:.>.J ,.<.1.f 2.$   @ # $ 4 $ O # r .   # + + + + O O O +   O @ @ # = 7 4 % . + + &   # 9 =.3.@.4.5.$ .   O & & # # # . . O ",
"6.7.8.9.0.q.&.w.e.w @     . $ # O O   . @   + + + + + + O + . # & 4.# T - r.' o # + + + & X t.y.u.i.-.p.#   O $ + + & . $ $ + # ",
"= a.s.d.f.g.h.D j.# . +   w O + +   .   # @ + + + + + O + # + + + + # % 4 7 k.% . &   O @ l.6.z.x.c.-.T # $ . & + + + + . & + + ",
"* r v.b.n.f m.M.o &   + O     + . 3 & # 6 # @ o + + + + . O + # + * & # o X o = @ O + O O % e D N.B.' = @   O 6 +   +     +   + ",
"@ * = V.=., C.o # & + + o . # O + $ # o - 4 * . . O   . %   + & + $ @ O 4 @ # @ : $   + o % 9 k.b 6.2.* o $ # $ + + +   X + + + ",
"$ 2.&   # # $ + @   O .   ^ . $ # + * o Z.A.3 + o + +     @ # $ % V.O # $ #   # @ +   O $ ] X X = o # + + r . + % . + + .   O   ",
"O # $ + # + + + + # . + w . + + & = # o w o * . O $ .   # , # * o o # # 6 # $ #   . $   = # & $ . S.  + # + O @ + # @ + @ . O @ ",
"+ .   + + + O . O o + .     & + .     # 3 3 & + O o O O O $ # % D.o # $ # F.* . . 2 + . O   O # + + & +   $ + + O 4 . + O . # 4 ",
"+ + + O   o O +   + . O & . & O     # # o # & $ . # + + .   # # o 3 @ O # = # @ O + + O O + @   O . +   +     +   + + O + + o - ",
"+ + & . @ . + # + + + O $ + G.+ . + $ o H.o # * @   o &   o O $   @ # O # # & #     + + # @ J.$ . . + + 2 + . O + & o O $ 5 5 r ",
"+ O +   + @ . + + . + + O $ . $ + + # o K.= * # & @ $   @ 4 + O   + + +   @ & O O + O +   # # & # . . O . # + + .   # O & = o - ",
". # L.# $ #   .   * + . O $ . . + + # o 5 o # # @ b p.. $   + + .   + .   + + + O % O O $ & @ # #   . + + $ + O . * 2.  $ O # o ",
"# # # # o . O + . + + . 4 # O . O + O # 5 # 9 & + # # $ o +   O .     + o   + + + + O + o & # o P.@ @ + X   5 + # # # $ 4 + + # ",
"# ] * #   . + . # + + & $ t $ O + + + . +   & O @ $   @   + +   # ] #   + . O O . & O   # v.# # % # $ + # + + . @ # # # & + + O ",
"$ 3 @ . = O . +   & + # ; # 9 . + @   + + $   + O     + @ . + . # # # & $ + $ O + O + . # $ - & @ $   . @ + &   # X I.* # & O & ",
"+ 5 $ O + +   q . +   w # # +   + o O + + + + 9   + . 5     + + $ 4 . + # + + - O O O 5   # O @ + o   . + + . 9 . # * 9 @   +   ",
". @ + + &   O @   +   . O $ .   O . O + + # + # O + O #   .     . . O   + . + + & $ $ @ + # # # @ . O + + # .   + . @   + + O # ",
". 4.@ O @ +   O   + + & @ $ $ # + O   . + O . +   + + + . O + # + .   # + O   @ # ..@ +   # @ U.# O + + $ + $ + + + + +   + + # ",
"$ # &   + & + . O + O # j.@ $ Y.. . O   + @   + & + + + + #   + @ . # @ O $ . $ @ 7 @   + @ $ - $ O + +   $ + + + + + + + # . . ",
"  o   # + + + 3 + + O   # O + + + o . + + . + Z #   O     + + . & o T.* R.# & o + . . # O . $ # $ ;     + . O X + + + + & # o = ",
"O     + o . + . O + # + % .   # # # # @ o + O O   O + + o O + +   # & $ 4 + $   +   + + X + + O + +     o       O + +   2 o - r ",
"$ $ + + O   . + $ . +   + + . . 6 E.#   .     + $   + O +   + + # . @ # O + O O . O + + + + + + $ 2.O . $   @   + O   + $ 5 r W.",
"# & O + z O     + # # . # O + # # * # @ # + + O + & O 5 #   O + + O O + @   5 . +   +   # + + + + $ O + # + r $   #     * Q.!.~.",
"+ + + & O + O # $ 0 #   + . O   & @   + O + + . + w @ # @ . + + + + + + + .     + o $ . O + + +     & $ # $   # O 5 . + O # Q.= ",
". +   + . O   . . $ + & + O . + .   +   . Q.  + + & # S .   + + + + + O + + .     . + .   +   + + . + ^.$ 5 O O $ # @ $ + & O # ",
"+ + +   $ . +   + # 4 + @ o + + + + + + +   + # +   @ = O     + + # + o # + O S $   o + @ o + + . + . . # + # * # M.  @ $ + + $ ",
". + # + + o + + O O   @ O o + + + . + + . + + .   O @   @ # + + + .   O & &   # . . # O . 5 #   .     . & #   . @ # # & + $ . O ",
". $ # 3 # #   + . *   + . $ . O + + .   + + + + + # $ O O . + + + O O O + + . $ # ; + . $   . + . O # $ @ O #     T @ $ $ + + O ",
"+ # Q.= q # + + + +   . 9 . . + + #   $ 4 + + + + O O . /.O . O + + + + o O + $ #   .   (.. . O $ # % o = & + O @ + # @ o @ 2 O ",
"@ # = ).= 3 . O @ + + O +   O + # ] 3 + +   O .     + $ $ +   + O + + + + + +     @     @ O +   * 4.4 [ *     + O O $   + + + + ",
"$ X o = w ; + O + O   O   . . O @ # + . #   + $ $ @ O + @ + + + + @ . + # O O + $ $ + O # . +   # o % X _.@   + O   + O $   + . ",
"+ = ; 6 # & + 7     + 5   + + +   4   # . . & q # & $ = $ + + + + o + + + + . q   @   v.&   + O   `.# % # & + z O     4 . . + . ",
"    # # $ +   + + O + + + + +   + @ $ > @ O + # * '.$ # + + + + + O O + + + + + +   .   . . + ; #   $ r   @   . O + .   O . O   ",
"$ ].# R.@ + + $ . + + . + + & @ O @   @ $ . O $ # c # # & + + # + . O + $ #   .     . & #   . @ + + & + $ . + .   + + . $ + + # ",
"+   #   . @ @ # O + + + + 5 O + + + + +   # O . $ @ @   + &   + + +   + . # O + O +     + 2 & + . O + # + + . + + + + O + O + O ",
". X $ . . . & ..$   O #   + & .   X +   O   . o $ & +   + + + . O % + + .   + # O + + O +   + + . # . . + + & X + O + + + + + + ",
"& # $ # 4 . #   r # O   o @   + & # # # o # @ +   . O   X + +   + .     * + $ + + + + . 4 $ & + + + + # o O & # #   $ O o + + . ",
"X :   . . + + # * $ @   @ ] & O 3 6 4 X ; T   + o + . O + +     . 2.  . . O   + . + + &   [.@ + # @ + @ . r # # = # # @ @ @ $ $ ",
"o o *   #       O $ $ $ =   #   # T {.o o $   + + @ + + # . + + . # + & @ O     @ # . O 5 & $ O & S.+ + # . # }.|.o o X o * * ; ",
" X= 4 % . O   + + 4   + . @     # X o X #   .     o + + + + + + O . + + + O O O O 2.. $ + . O . O   . + . O @ # * q o P..X6 ; o ",
"}.R.q 2 * 5 . O + + + + # & & $ # # ; #   . . O   . . + + & + + + + .   + 4 . O   + + .   + . @   + + $ & $ & # # # * o * ; # # ",
"o z XX5 o O . # +   . O @ + G.&   + .   4   @ X # $ o $ & 4   + + .   + # + O # + O + O & O G.O + + @ . = 2 = = ; # w # % 5 @ # ",
"X 4 = 4 #   + . O + + + . # # + O + + + + * # % o # @ # O = & O + $ $ + O + + + + + + . $ # @   + +   # = oXOX+XG.}.& & & Q.    ",
"# % % X @ + + + + # .       @ $ + + + + . # X k =.= > $ # ~.O . + # @X# O O + + + * + + O & $   . + . # x #X$X%X&X, 2.& .   $ + ",
"+ + # . * + + + + .   $ 4   @   . + + . 4 $ - o o # # # = & & $ # # # # 4 . . O   + .   o &   O + + . % *X=X-X;X:XZ # # o + .   ",
"@ ] # $ . + + . + + &   # >X  @ $ + O + . $ $ ; 6 * # # & # O . # 4.X . $   . . &   . . # u & + $ . + 6 x ,X<X1Xo.: # + .   + . ",
"+ # #   $     @   & O $ ; # R.# & # + + & # & # $ o I.# *   + . & * & . 9 + & + O @ + # * # 9 . O @ + # S 2X3X4X5X=   . $ + + O ",
"$ o $ + + + + 7 +   . = . $   @   o O   + O   9 @ # # = & & +   $ w & # . . $ 7 # + + =   # O . O o + O # o 7 6Xo # O 5 + +   O ",
"O . O   +   + O   + + +   + # O O + O +   * + . # @ & $ . & + + & @ # + + O + + + + + @ & +   O O + +   O ;     . $   +   + + + ",
"+   + + # . O   + + .   # + $ # + O + + + + . + . . + + & + + # $ 4.O + . + + . + . $   #   + #   + + +   + # O O + O +     + # ",
"  + + + . $ $ @ ; % 3 # O @ O 9   + O +   $ + + O + + + O # +   O + # . O @ + + + +   + t.#   = +   + + . @ . . + + + + + $ + + ",
"  # + O + + & - ~.4.] T o     O + o   . + # + * + + + + O + + + + * + $ . + + ; + + &   $ @   @   ; O O .   O o O + + + + . O + "
};
