/* XPM */
static char *result[] = {
/* columns rows colors chars-per-pixel */
"64 64 159 2 ",
"   c #000001",
".  c #090407",
"X  c #04060A",
"o  c #0C060A",
"O  c #05090D",
"+  c #0B0A0B",
"@  c #11060C",
"#  c #110A0E",
"$  c #060B11",
"%  c #0B0D13",
"&  c #090F19",
"*  c #140710",
"=  c #190710",
"-  c #140C12",
";  c #1B0A15",
":  c #1F0B19",
">  c #0E1116",
",  c #0B111B",
"<  c #131114",
"1  c #191217",
"2  c #13151B",
"3  c #1C141A",
"4  c #13181F",
"5  c #1D1C1D",
"6  c #240C1B",
"7  c #2C0E1D",
"8  c #2A0D12",
"9  c #24121E",
"0  c #2E141C",
"q  c #0D1624",
"w  c #0C1926",
"e  c #111720",
"r  c #151B23",
"t  c #1E1F24",
"y  c #131C28",
"u  c #191F2B",
"i  c #2F0E20",
"p  c #271220",
"a  c #2A1423",
"s  c #241A22",
"d  c #2A1C25",
"f  c #2C1E29",
"g  c #35162A",
"h  c #3A152C",
"j  c #32192A",
"k  c #391A2E",
"l  c #3E1425",
"z  c #3E1631",
"x  c #1C2027",
"c  c #1C222C",
"v  c #132133",
"b  c #15253E",
"n  c #1B2738",
"m  c #1A2536",
"M  c #222323",
"N  c #24252A",
"B  c #2C2028",
"V  c #2C2C2D",
"C  c #232731",
"Z  c #282D35",
"A  c #242C3B",
"S  c #3B2533",
"D  c #372933",
"F  c #3B2C38",
"G  c #2A323E",
"H  c #3C3139",
"J  c #41152D",
"K  c #5B1D26",
"L  c #451632",
"P  c #491C3A",
"I  c #531B3F",
"U  c #5B1C31",
"Y  c #631F3D",
"T  c #4B233E",
"R  c #452D3C",
"E  c #5E2133",
"W  c #1B2F4C",
"Q  c #1B2B47",
"!  c #1C2F51",
"~  c #253045",
"^  c #2A3648",
"/  c #27354A",
"(  c #303743",
")  c #353C45",
"_  c #3F3C40",
"`  c #353E4C",
"'  c #273D62",
"]  c #591C42",
"[  c #621F40",
"{  c #4F2240",
"}  c #522241",
"|  c #572947",
" . c #572F49",
".. c #5C2E4C",
"X. c #463D44",
"o. c #60234B",
"O. c #682651",
"+. c #6C2F57",
"@. c #7E2950",
"#. c #603050",
"$. c #633F57",
"%. c #71335C",
"&. c #7C3964",
"*. c #344156",
"=. c #344460",
"-. c #364F7A",
";. c #4B4248",
":. c #494A4B",
">. c #54424E",
",. c #554450",
"<. c #57565A",
"1. c #595759",
"2. c #64445F",
"3. c #7F426A",
"4. c #655660",
"5. c #6D646B",
"6. c #68696F",
"7. c #6B6F74",
"8. c #83295E",
"9. c #A53857",
"0. c #A6385A",
"q. c #842A62",
"w. c #9C3472",
"e. c #AF3D6D",
"r. c #A93571",
"t. c #AF3E72",
"y. c #80466E",
"u. c #405983",
"i. c #5D6C81",
"p. c #687280",
"a. c #787B81",
"s. c #B65293",
"d. c #986F8A",
"f. c #8F7687",
"g. c #A97999",
"h. c #A37995",
"j. c #C14F8E",
"k. c #C25795",
"l. c #C15F9C",
"z. c #CB5E9C",
"x. c #CF6C9D",
"c. c #8B8B8D",
"v. c #8C8F94",
"b. c #8F949C",
"n. c #909192",
"m. c #9A9B9B",
"M. c #8993A4",
"N. c #8A99B4",
"B. c #DA89AF",
"V. c #DE95B3",
"C. c #E3A4BC",
"Z. c #BBB1C2",
"A. c #C5B4C0",
"S. c #D0D2D6",
"D. c #ECC2D5",
"F. c #F5DFE8",
"G. c #E7E3E6",
"H. c #E9E8EA",
"J. c #FFFDFE",
/* pixels */
"                                                                    X + X                         . - r u                       ",
"                        X     X                                     + 9 -                               X                       ",
"                                                  . X   . .         @ - @                                                 X     ",
"                                                  o     . .           .                                                         ",
"                          X o                                                 X                                               . ",
"; o .         r         = 6 9 +         X                                           +                                           ",
"} F %       X O       @ g P T 9 +       X                                                                                   X   ",
"D ` $     X   X .   o 6 I w.s.%.9 X                                                   X                                         ",
"O & X = 2         @ 6 I r.B.D.s.o.9 o                               X               . +                                         ",
"                . ; J q.z.F.J.V.r.] ; X                       .   .                                                             ",
"                  . = h q.x.C.e.Y i @                           . #                                                             ",
"      X           X X # g q.e.Y i @       X                       .               X     X               +   X                   ",
"                    . X = L [ 7 @                                               . o                       X $ X                 ",
"                .       . : i @                         o             .                                     X                   ",
"X                         o ; o                         .     X       +                                                         ",
"                          + 6 = .       X   +               X                                             X                     ",
"            +               + X                                       X                                                   , a 6 ",
"                                    X                                                                                     s 2.; ",
"O .                                                       , > $                                 > ; o     X               + # @ ",
"t X       .                                                                                   O ^ 4.9                   +       ",
"+ +               X     ,                 X                     X           + X               , / ) +                           ",
"                      X $       O % $                             .                             X % O                           ",
"                  . >           % ( e                     X                                                                     ",
"                                + 2 +                                           +                                               ",
"                                    X                                 X           O                     X                       ",
"                                          X                   X # .                         X +                                 ",
"                  #       X                                 X + a ; o                                       X X     X           ",
"                  X           X +                         % + 5 R k : .             X                                           ",
"                                  O X + +               . # 5 _ 5...j = .       . +   +                                         ",
"              X   X   X           y m 2 X             o ; B H v.G.d...g = X       . X               X                         . ",
"            c ! v +             X t n.d             . - p D <.S.J.A.3.} p @ 5                                                   ",
"            c b.i.%     X       X 3 A M .               + 1 G 7.Z.3.} 9 o                                   X                 X ",
"      .   . C 7.,.#     X           O +             +     + y G 2.{ p @                                                         ",
"      o % . + 1 g @ . X                                 1 X + 4 N 9 @   X   .                                                   ",
"      X O     X .     # X                     X               + - X .                     X X                                   ",
"                  . + 3 # .               X X .                 X                                                   .     $ X   ",
"X               X , N V d # . .             + 9 + .                                                                     O e & X ",
"              O q ~ =.5. .j = X             + # . . 3 X               .   +                                           X > c y % ",
"            $ w ! u.N.H.g.%.k ; o           O +     X .                                                             o - f X.Z e ",
"        5   O w Q -.M.H.h.+.j ; .             .             X                                       X             o : k #.f.>.N ",
"              X , n *.6.H 9 3 %       O   X                       X   #                     X                       o 7 I +.S ; ",
"                O , n ^ c > X .     - < %                             .                                               o 7 I i + ",
"            - X X X , v , X         ; f +                                 . X                                         X o 6 *   ",
"                    X % X         N - +           X                       5 V #     X         X X                   . + * % -   ",
"                  +   X           +       &                               9 d X X                 X             + + - F 1.5 .   ",
"X               X                   X     q                               X . .                                 + D 9 ;.a.e     ",
"                X                                                                                           . 1 < :.5 % r >     ",
"          X     +                                         . @ .                             .                   . # -           ",
"    +                                         X         X @ 7 @         X         .         < t < + X                           ",
"                  .                                   . = l E 0 @                   X       Q v.) +                             ",
"                  o                                   # l @.9.K 8 @                       X b ' W .                             ",
"                      X                           X + p O.k.B.r.U 8 o                       X X $                               ",
"        .   X V         X                           X # k &.x.@.J ; .                                                           ",
"            - m.V                                     X + B | g = .     X                                                       ",
"      X                     . <                         X % 0 # .             +                                                 ",
"              M                                 %         . >                                       X                           ",
"                                        o 1     $           . X       . .     M                   X                             ",
"                              +                                     . 3 X       . X             +                               ",
"              M                 t                             X     . + X                                                     X ",
"              +                 X   X                                                                               X           ",
"    X         X                 +   . @                                                                                   X     ",
"    #                         +             +                                             X                               O     ",
"                                                                                                  +                             ",
"                                                                          X                                                     "
};
