/* XPM */
static char *result[] = {
/* columns rows colors chars-per-pixel */
"64 64 78 1 ",
"  c #000000",
". c #02030B",
"X c #06090D",
"o c #040513",
"O c #060916",
"+ c #090C13",
"@ c #040719",
"# c #060A1B",
"$ c #090D1D",
"% c #0E121A",
"& c #10151D",
"* c #0A0E24",
"= c #090E2B",
"- c #0C1125",
"; c #0E142A",
": c #101623",
"> c #121921",
", c #11182E",
"< c #0D1432",
"1 c #101734",
"2 c #121A34",
"3 c #141D3B",
"4 c #1C242E",
"5 c #16203C",
"6 c #18213C",
"7 c #302F2B",
"8 c #212937",
"9 c #2A343F",
"0 c #121C42",
"q c #162145",
"w c #1A2543",
"e c #19254B",
"r c #1E2A4C",
"t c #192755",
"y c #1C2951",
"u c #1F2D59",
"i c #333F4C",
"p c #212E52",
"a c #233154",
"s c #24325C",
"d c #2B395D",
"f c #223262",
"g c #293A66",
"h c #27396B",
"j c #2B3C6A",
"k c #2E416F",
"l c #334573",
"z c #374B76",
"x c #364A7D",
"c c #384D7C",
"v c #40557C",
"b c #55616B",
"n c #626E76",
"m c #2E4280",
"M c #324785",
"N c #344983",
"B c #486096",
"V c #435DA1",
"C c #4661A5",
"Z c #4B65A1",
"A c #506BA8",
"S c #5974AD",
"D c #4D6AB4",
"F c #5A7BC3",
"G c #5E80CF",
"H c #6B8AC9",
"J c #6E92DD",
"K c #7A9CD4",
"L c #96BEEC",
"P c #98C0F4",
"I c #96C8F6",
"U c #9FC8F7",
"Y c #A6DAFB",
"T c #AEE4FD",
"R c #B8E6FD",
"E c #BAEAFE",
"W c #C0F6FF",
"Q c #D9FEFF",
/* pixels */
"                                                        .       ",
"                                                       .o       ",
"                                                       o#       ",
"                                                       #-       ",
"                                                      .*;.      ",
"                                                      .22.      ",
"                                             .        oeqo      ",
"                                             +.     ..*fu*.     ",
"                                             &.   ..o*sDVe#..   ",
"                                            X8%O$-;3ehFYICt1*#o.",
"                                        ..+%4ni---1quMJWTGxfeq1-",
"                                           X>b9%X...#1MJFh<#O...",
"                                            .4X     ..2Mf*..    ",
"                                             %       .*f3o      ",
"                                             +        #e;.      ",
"                                             .        oq#       ",
"                                                      .1o       ",
"                                             7        .*.       ",
"                                                       #.       ",
"                                                       o        ",
"                                                       .        ",
"                                                                ",
"                   .$.                                          ",
"                   @d.                                          ",
"                    .                                           ",
"                                                                ",
"                                                                ",
"                                                                ",
"                                                                ",
"  $                                                             ",
"                                                                ",
"                                                                ",
"                                                                ",
"                                                                ",
"                                                                ",
"                                                                ",
"                                                                ",
"                                                                ",
"                                                                ",
"                                                                ",
"                                                                ",
"                                 *.                   ..        ",
"          .                     .*                    ..        ",
"          o                                           o+        ",
"         .#                                           $O        ",
"         o=.                                          -*        ",
"     ...@3g*..                                       X2-.       ",
"      ..#ez<#o..                                     X61.       ",
"         @<.                                        .Op6X       ",
"         .#                                        ..:jrO.      ",
"         ..                                        .*aAc2o.     ",
"          .                                  ..XO$;2pSUKz2-O..  ",
"              .                           ..o$-,wrskZPQEHxgr3;$O",
"              .                                .o$;3kHRLBpr2:*$o",
"              #                                   .X>lHBw*<o.   ",
"             o0.                                   .o3cr*=h<..  ",
"          ..@;z<@.                                  .;g5*0ct=#o.",
"             .=.                                     %p-..3o    ",
"              @                                      #r$ .*.    ",
"              .                                      .6o  @     ",
"                                                     .;.  o     ",
"                                                     .%.  .     ",
"                                                      O         ",
"                                                      o         "
};
