/* XPM */
static char *result[] = {
/* columns rows colors chars-per-pixel */
"46 46 209 2 ",
"   c #1C1818",
".  c #1D1818",
"X  c #1E1919",
"o  c #1F1919",
"O  c #1B1A1E",
"+  c #3F0707",
"@  c #201919",
"#  c #221B1B",
"$  c #231B1B",
"%  c #241B1B",
"&  c #271A1A",
"*  c #231C1D",
"=  c #251C1C",
"-  c #251D1D",
";  c #261C1C",
":  c #261D1D",
">  c #271D1D",
",  c #261D1E",
"<  c #261F1F",
"1  c #271F1F",
"2  c #291A1A",
"3  c #281D1D",
"4  c #2B1D1D",
"5  c #281E1E",
"6  c #291E1E",
"7  c #2A1E1E",
"8  c #2A1F1F",
"9  c #2B1F1F",
"0  c #2D1F1F",
"q  c #3F1717",
"w  c #321A1A",
"e  c #331A1A",
"r  c #331B1B",
"t  c #371919",
"y  c #321E1E",
"u  c #391818",
"i  c #1C1C20",
"p  c #221F24",
"a  c #1F2121",
"s  c #222323",
"d  c #252424",
"f  c #2B2020",
"g  c #2B2121",
"h  c #2A2222",
"j  c #2C2020",
"k  c #2F2121",
"l  c #282525",
"z  c #282A2A",
"x  c #302020",
"c  c #302222",
"v  c #312222",
"b  c #312323",
"n  c #322323",
"m  c #332323",
"M  c #352424",
"N  c #342525",
"B  c #352525",
"V  c #362525",
"C  c #372525",
"Z  c #342626",
"A  c #382626",
"S  c #392626",
"D  c #392727",
"F  c #3A2727",
"G  c #3E2727",
"H  c #352929",
"J  c #392929",
"K  c #3A2828",
"L  c #3B2828",
"P  c #3C2828",
"I  c #3D2929",
"U  c #3F2A2A",
"Y  c #382E2E",
"T  c #333434",
"R  c #393737",
"E  c #3B3A3A",
"W  c #3E3838",
"Q  c #4A0000",
"!  c #530808",
"~  c #411515",
"^  c #4A1111",
"/  c #4D1313",
"(  c #461B1B",
")  c #461C1C",
"_  c #4B1818",
"`  c #4C1818",
"'  c #4C1919",
"]  c #551717",
"[  c #6B0303",
"{  c #640B0B",
"}  c #6E0F0F",
"|  c #770000",
" . c #700E0E",
".. c #7A0F0F",
"X. c #7D0D0D",
"o. c #651010",
"O. c #711010",
"+. c #402B2B",
"@. c #412B2B",
"#. c #432B2B",
"$. c #442B2B",
"%. c #422C2C",
"&. c #432C2C",
"*. c #442C2C",
"=. c #442D2D",
"-. c #452D2D",
";. c #462D2D",
":. c #462E2E",
">. c #472E2E",
",. c #492F2F",
"<. c #4A2F2F",
"1. c #4A3030",
"2. c #4B3030",
"3. c #4C3030",
"4. c #4C3131",
"5. c #4D3131",
"6. c #4D3232",
"7. c #4E3232",
"8. c #4F3232",
"9. c #4E3333",
"0. c #4F3333",
"q. c #423F3F",
"w. c #503333",
"e. c #513333",
"r. c #503434",
"t. c #513434",
"y. c #523434",
"u. c #533434",
"i. c #434343",
"p. c #464343",
"a. c #444444",
"s. c #464444",
"d. c #474646",
"f. c #494747",
"g. c #4B4949",
"h. c #544F4F",
"j. c #545050",
"k. c #545252",
"l. c #555252",
"z. c #585353",
"x. c #595454",
"c. c #595555",
"v. c #5B5454",
"b. c #5A5555",
"n. c #5B5656",
"m. c #5C5656",
"M. c #5D5757",
"N. c #5E5858",
"B. c #5F5959",
"V. c #625D5D",
"C. c #635D5D",
"Z. c #605F5F",
"A. c #635F5F",
"S. c #645D5D",
"D. c #676262",
"F. c #6A6464",
"G. c #6A6565",
"H. c #6B6666",
"J. c #6C6464",
"K. c #6E6868",
"L. c #6F6868",
"P. c #716969",
"I. c #726C6C",
"U. c #726D6D",
"Y. c #746C6C",
"T. c #746D6D",
"R. c #756D6D",
"E. c #746E6E",
"W. c #767070",
"Q. c #777070",
"!. c #787171",
"~. c #830C0C",
"^. c #970000",
"/. c #9F0101",
"(. c #960B0B",
"). c #970B0B",
"_. c #9A0C0C",
"`. c #9A0D0D",
"'. c #980E0E",
"]. c #9C0E0E",
"[. c #A00A0A",
"{. c #A10C0C",
"}. c #B21111",
"|. c #882E13",
" X c #A43411",
".X c #D10909",
"XX c #D31010",
"oX c #FA0505",
"OX c #F40B0B",
"+X c #F30C0C",
"@X c #E21010",
"#X c #E91010",
"$X c #FD1010",
"%X c #FF1111",
"&X c #F84207",
"*X c #F94207",
"=X c #FF5A16",
"-X c #FF611A",
";X c #FF782D",
":X c #FF792E",
">X c #A04040",
",X c #A74040",
"<X c #A65A5A",
"1X c #BC6666",
"2X c #FD5353",
"3X c #FF893A",
"4X c #FF9745",
"5X c #FFBDBD",
"6X c None",
/* pixels */
"6X6X6X6X6X6X6X6X6X6X6X6X6X6X6X6X6X6X6X6X6X6X6X6X6X6X6X6X6X6X6X6X6X6X6X6X6X6X6X6X6X6X6X6X6X6X",
"6X6X6X6X6X6X6X6X6X6X6X6X6X6X6X6X6X6X6X6X6X6X6X6X6X6X6X6X6X6X6X6X6X6X6X6X6X6X6X6X6X6X6X6X6X6X",
"6X6X6X6X6X6X6X6X6X6X6X6X6X6X6X6X6X6X6X6X6X6X6X6X6X6X6X6X6X6X6X6X6X6X6X6X6X6X6X6X6X6X6X6X6X6X",
"6X6X6X6X6X6X6X6X6X6X6X6X6X6X6X6X6X6X6X6X6X6X6X6X6X6X6X6X6X6X6X6X6X6X6X6X6X6X6X6X6X6X6X6X6X6X",
"6X6X6X6X6X6X6X6X6X6X6X6X6X6X6X6X6X6X6X6X6X6X6X6X6X6X6X6X6X6X6X6X6X6X6X6X6X6X6X6X6X6X6X6X6X6X",
"6X6X6X6X6X6X6X6X6X6X6X6X6X6X6X6X6X6X6X6X6X6X6X6X6X6X6X6X6X6X6X6X6X6X6X6X6X6X6X6X6X6X6X6X6X6X",
"6X6X6X6X6X6X6X6X6X6X6X6X6X6X6X6X6X6X6X6X6X6X6X6X6X6X6X6X6X6X6X6X6X6X6X6X6X6X6X6X6X6X6X6X6X6X",
"6X6X6X6X6X6X6X6X6X6X6X6X6X6X6X6X6X6X6X6X6X6X6X6X6X6X6X6X6X6X6X6X6X6X6X6X6X6X6X6X6X6X6X6X6X6X",
"6X6X6X6X6X6X6X6X6X6X6X6X6X6X6X6X6X6X6X6X6X6X6Xg.g.6X6X6X6X6X6X6X6X6X6X6X6X6X6X6X6X6X6X6X6X6X",
"6X6X6X6X6X6X6X6X6X6X6X6X6X6X6X6X6X6X6X6X6X6X6Xv.v.6X6X6X6X6X6X6X6X6X6X6X6X6X6X6X6X6X6X6X6X6X",
"6X6X6X6X6X6X6X6X6X6X6X6X6X6X6X6X6X6X6X6X6X6Xd.J.J.d.6X6X6X6X6X6X6X6X6X6X6X6X6X6X6X6X6X6X6X6X",
"6X6X6X6X6X6X6X6X6X6X6X6X6X6X6X6X6X6X6X6X6X6Xb.R.R.b.6X6X6X6X6X6X6X6X6X6X6X6X6X6X6X6X6X6X6X6X",
"6X6X6X6X6X6X6X6X6X6X6X6X6X6X6X6X6X6X6X6X6Xa.c.G.G.c.a.6X6X6X6X6X6X6X6X6X6X6X6X6X6X6X6X6X6X6X",
"6X6X6X6X6X6X6X6X6X6X6X6X6X6X6X6X6X6X6X6Xi.m.n.f.f.n.m.i.6X6X6X6X6X6X6X6X6X6X6X6X6X6X6X6X6X6X",
"6X6X6X5 6X6X6X6X6X6X6X4X4X6X6X6X6X6X6X6X6Xz.Y.P.P.Y.z.6X6X6X6X6X6X6X6X4X4X6X6X6X6X6X6X6X5 6X",
"6X6X6X9 7 6X6X6X6X6X6X:X;X3X6X6X6X6X6X6Xs.C.T.A.A.T.C.s.6X6X6X6X6X6X3X;X:X6X6X6X6X6X6X7 9 6X",
"6X6X6Xk V > 6X6X6X6X-X*X&X=X6X6X6X6X6X6Xh.!.E T T E !.h.6X6X6X6X6X6X=X&X*X-X6X6X6X6X> V k 6X",
"6X6X6X8 :.L * 6X6X6X X6X6X|.6X6X6X6X6X6Xj.R s D.D.s R j.6X6X6X6X6X6X|.6X6X X6X6X6X* L :.8 6X",
"6X6X6X7 >.t.F , 6X6Xi p p O 6X6X6X6X6Xx.l.z V.W.W.V.z l.x.6X6X6X6X6XO p p i 6X6X, F t.>.7 6X",
"6X6X6X7 -.u.-.8 3 6X9 V V 4 6X6X6Xa.j.L.H.H.I.K.K.I.H.H.L.j.a.6X6X6X4 V V 9 6X3 8 -.u.-.7 6X",
"6X6X6X7 -.y.@.6 K m 6 9 9 7 9 q.k.F.Q.E.E.Q.U.I.I.U.Q.E.E.Q.F.k.q.9 7 9 9 6 m K 6 @.y.-.7 6X",
"6X6X6X7 -.y.U = %.7.;.>.>.1.y Y S.B.N.M.M.M.M.M.M.M.M.M.M.N.B.S.Y y 1.>.>.;.7.%.= U y.-.7 6X",
"6X6X6X7 -.t.-.6 V y.t.8.0.e.4.B g f 9 f f f f f f f f f f 9 f g B 4.e.0.8.t.y.V 6 -.t.-.7 6X",
"6X6X6X7 >.0.w.-.5 C w.7.4.4.9.2.#.$.*.*.*.*.*.*.*.*.*.*.*.*.$.#.2.9.4.4.7.w.C 5 -.w.0.>.7 6X",
"6X6X6X6 @.7.5.t.=.> C w.6.4.6.w.+.S P P F D D D D D D F P P S +.w.6.4.6.w.C > =.t.5.7.@.6 6X",
"6X6X6X6Xc 5.8.4.t.&.3 D 8.6.6.L @   X . # > : : : : > # . X   @ L 6.6.8.D 3 &.t.4.8.5.c 6X6X",
"6X6X6X6X6 L w.6.4.t.*.> L w.<.0 o X X . $ b n n n n b $ . X X o 0 <.w.L > *.t.4.6.w.L 6 6X6X",
"6X6X6X6X6X; L w.0.r.,.5 B w.5.S o   o X % 8 6 6 6 6 8 % X o   o S 5.w.B 5 ,.r.0.w.L ; 6X6X6X",
"6X6X6X6X6X6X> V *.y.1.5 N 8.6.7.I M v n v k k c c k k v n v M I 7.6.8.N 5 1.y.*.V > 6X6X6X6X",
"6X6X6X6X6X6X6X= 9 S +.j +.e.4.0.3.J d l l l l l l l l l l d J 3.0.4.e.+.j +.S 9 = 6X6X6X6X6X",
"6X6X6X6X6X6X6X6X6X6X> v G >.w.t.H e ] _ ` ` ` ` ` ` ` ' ^ ! r H t.w.>.G v > 6X6X6X6X6X6X6X6X",
"6X6X6X6X6X6X6X6X6X6X6X& 1 2 A Z c o.[.{._.).(.).).(.'.^./.,X{ c Z A 2 1 & 6X6X6X6X6X6X6X6X6X",
"6X6X6X6X6X6X6X6X6X6X6X6Xp.W < - x } }.+XOX$X%X%X%X%XoX2X5X1X[ x - < W p.6X6X6X6X6X6X6X6X6X6X",
"6X6X6X6X6X6X6X6X6X6X6X6Xk.Z.6X6Xh ( ..].`.XX#X@X@X#X.X>X<X| ) h 6X6XZ.k.6X6X6X6X6X6X6X6X6X6X",
"6X6X6X6X6X6X6X6X6X6X6X6X6X6X6X6X6Xa q / ~  .~.X.X.~.O.+ Q q a 6X6X6X6X6X6X6X6X6X6X6X6X6X6X6X",
"6X6X6X6X6X6X6X6X6X6X6X6X6X6X6X6X6X6X6X6X6Xw u t t u w 6X6X6X6X6X6X6X6X6X6X6X6X6X6X6X6X6X6X6X",
"6X6X6X6X6X6X6X6X6X6X6X6X6X6X6X6X6X6X6X6X6X6X6X6X6X6X6X6X6X6X6X6X6X6X6X6X6X6X6X6X6X6X6X6X6X6X",
"6X6X6X6X6X6X6X6X6X6X6X6X6X6X6X6X6X6X6X6X6X6X6X6X6X6X6X6X6X6X6X6X6X6X6X6X6X6X6X6X6X6X6X6X6X6X",
"6X6X6X6X6X6X6X6X6X6X6X6X6X6X6X6X6X6X6X6X6X6X6X6X6X6X6X6X6X6X6X6X6X6X6X6X6X6X6X6X6X6X6X6X6X6X",
"6X6X6X6X6X6X6X6X6X6X6X6X6X6X6X6X6X6X6X6X6X6X6X6X6X6X6X6X6X6X6X6X6X6X6X6X6X6X6X6X6X6X6X6X6X6X",
"6X6X6X6X6X6X6X6X6X6X6X6X6X6X6X6X6X6X6X6X6X6X6X6X6X6X6X6X6X6X6X6X6X6X6X6X6X6X6X6X6X6X6X6X6X6X",
"6X6X6X6X6X6X6X6X6X6X6X6X6X6X6X6X6X6X6X6X6X6X6X6X6X6X6X6X6X6X6X6X6X6X6X6X6X6X6X6X6X6X6X6X6X6X",
"6X6X6X6X6X6X6X6X6X6X6X6X6X6X6X6X6X6X6X6X6X6X6X6X6X6X6X6X6X6X6X6X6X6X6X6X6X6X6X6X6X6X6X6X6X6X",
"6X6X6X6X6X6X6X6X6X6X6X6X6X6X6X6X6X6X6X6X6X6X6X6X6X6X6X6X6X6X6X6X6X6X6X6X6X6X6X6X6X6X6X6X6X6X",
"6X6X6X6X6X6X6X6X6X6X6X6X6X6X6X6X6X6X6X6X6X6X6X6X6X6X6X6X6X6X6X6X6X6X6X6X6X6X6X6X6X6X6X6X6X6X",
"6X6X6X6X6X6X6X6X6X6X6X6X6X6X6X6X6X6X6X6X6X6X6X6X6X6X6X6X6X6X6X6X6X6X6X6X6X6X6X6X6X6X6X6X6X6X"
};
