/* XPM */
static char *result[] = {
/* columns rows colors chars-per-pixel */
"64 64 217 2 ",
"   c #1C1818",
".  c #1D1818",
"X  c #1E1919",
"o  c #1F1919",
"O  c #1B1A1E",
"+  c #3F0707",
"@  c #201919",
"#  c #221B1B",
"$  c #231B1B",
"%  c #241B1B",
"&  c #271A1A",
"*  c #231C1D",
"=  c #251C1C",
"-  c #251D1D",
";  c #261C1C",
":  c #261D1D",
">  c #271D1D",
",  c #261D1E",
"<  c #261F1F",
"1  c #271F1F",
"2  c #291A1A",
"3  c #281D1D",
"4  c #2B1D1D",
"5  c #281E1E",
"6  c #291E1E",
"7  c #2A1E1E",
"8  c #2A1F1F",
"9  c #2B1F1F",
"0  c #2D1F1F",
"q  c #3F1717",
"w  c #321A1A",
"e  c #331A1A",
"r  c #331B1B",
"t  c #371919",
"y  c #321E1E",
"u  c #391818",
"i  c #181425",
"p  c #1C1C20",
"a  c #171E33",
"s  c #221F24",
"d  c #1F2121",
"f  c #172634",
"g  c #222323",
"h  c #252424",
"j  c #2B2020",
"k  c #2B2121",
"l  c #2A2222",
"z  c #2C2020",
"x  c #2F2121",
"c  c #282525",
"v  c #282A2A",
"b  c #302020",
"n  c #302222",
"m  c #312222",
"M  c #312323",
"N  c #322323",
"B  c #332323",
"V  c #352424",
"C  c #342525",
"Z  c #352525",
"A  c #362525",
"S  c #372525",
"D  c #342626",
"F  c #382626",
"G  c #392626",
"H  c #392727",
"J  c #3A2727",
"K  c #3E2727",
"L  c #352929",
"P  c #392929",
"I  c #3A2828",
"U  c #3B2828",
"Y  c #3C2828",
"T  c #3D2929",
"R  c #3F2A2A",
"E  c #382E2E",
"W  c #333434",
"Q  c #393737",
"!  c #3B3A3A",
"~  c #3E3838",
"^  c #4A0000",
"/  c #530808",
"(  c #411515",
")  c #4A1111",
"_  c #4D1313",
"`  c #461B1B",
"'  c #461C1C",
"]  c #4B1818",
"[  c #4C1818",
"{  c #4C1919",
"}  c #551717",
"|  c #6B0303",
" . c #640B0B",
".. c #6E0F0F",
"X. c #770000",
"o. c #700E0E",
"O. c #7A0F0F",
"+. c #7D0D0D",
"@. c #651010",
"#. c #711010",
"$. c #402B2B",
"%. c #412B2B",
"&. c #432B2B",
"*. c #442B2B",
"=. c #422C2C",
"-. c #432C2C",
";. c #442C2C",
":. c #442D2D",
">. c #452D2D",
",. c #462D2D",
"<. c #462E2E",
"1. c #472E2E",
"2. c #492F2F",
"3. c #4A2F2F",
"4. c #4A3030",
"5. c #4B3030",
"6. c #4C3030",
"7. c #4C3131",
"8. c #4D3131",
"9. c #4D3232",
"0. c #4E3232",
"q. c #4F3232",
"w. c #4E3333",
"e. c #4F3333",
"r. c #423F3F",
"t. c #503333",
"y. c #513333",
"u. c #503434",
"i. c #513434",
"p. c #523434",
"a. c #533434",
"s. c #152742",
"d. c #123A5F",
"f. c #133B5F",
"g. c #434343",
"h. c #464343",
"j. c #444444",
"k. c #464444",
"l. c #474646",
"z. c #494747",
"x. c #4B4949",
"c. c #544F4F",
"v. c #545050",
"b. c #545252",
"n. c #555252",
"m. c #585353",
"M. c #595454",
"N. c #595555",
"B. c #5B5454",
"V. c #5A5555",
"C. c #5B5656",
"Z. c #5C5656",
"A. c #5D5757",
"S. c #5E5858",
"D. c #5F5959",
"F. c #625D5D",
"G. c #635D5D",
"H. c #605F5F",
"J. c #635F5F",
"K. c #645D5D",
"L. c #676262",
"P. c #6A6464",
"I. c #6A6565",
"U. c #6B6666",
"Y. c #6C6464",
"T. c #6E6868",
"R. c #6F6868",
"E. c #716969",
"W. c #726C6C",
"Q. c #726D6D",
"!. c #746C6C",
"~. c #746D6D",
"^. c #756D6D",
"/. c #746E6E",
"(. c #767070",
"). c #777070",
"_. c #787171",
"`. c #830C0C",
"'. c #970000",
"]. c #9F0101",
"[. c #960B0B",
"{. c #970B0B",
"}. c #9A0C0C",
"|. c #9A0D0D",
" X c #980E0E",
".X c #9C0E0E",
"XX c #A00A0A",
"oX c #A10C0C",
"OX c #B21111",
"+X c #882E13",
"@X c #A43411",
"#X c #D10909",
"$X c #D31010",
"%X c #FA0505",
"&X c #F40B0B",
"*X c #F30C0C",
"=X c #E21010",
"-X c #E91010",
";X c #FD1010",
":X c #FF1111",
">X c #F84207",
",X c #F94207",
"<X c #FF5A16",
"1X c #FF611A",
"2X c #FF782D",
"3X c #FF792E",
"4X c #A04040",
"5X c #A74040",
"6X c #A65A5A",
"7X c #BC6666",
"8X c #FD5353",
"9X c #FF893A",
"0X c #FF9745",
"qX c #0B6FAE",
"wX c #0099DB",
"eX c #2CE8F5",
"rX c #FFBDBD",
/* pixels */
"i i i i i i i i i i i i i i i i i i i i i i i i i i i i i i i i i i i f f i i i i i i i i i i i i i i i i i i i i i i i i i i i ",
"i i i i i i i i i i i i i i i i i i i i i i i i i i i i i i i i i i i i i i i i i i i i i f.i i i i i i i i i i i i i i i i i i ",
"i i i i i i i i i i i i i i i i i i i f.i i i i i i i i i i wXi i i i i i i i i i i i i i i i i i i i i i i i i i i i i i i i i ",
"i i i i d.i i i i i i i i i i i i i i i i i i i i i i i i qXeXqXi i i i i i i i i i i i i i i i i i i i i i i i i i wXi i i i i ",
"i i i i i i i i i i i i i i i i i i i i i i i i i i i i i i wXi i i i i i i qXi i i i i i i i i i i i qXi i i i i i i i i i i i ",
"i i i i i i i i i i i i i i i i i i i i i i i i i i i i i i i i i i i i i i i i i i i i i i i i i i i i i i i i i i i i i i i i ",
"i i i i i i i i i i i i i i i i i i i i i i i s.i i i i i i i i i i i i i i i i i i i i i i i i i i i i i i i i i i i i wXi i i ",
"i i i i i i i i i i i i i i i i i i i i i i i i i i i i i i i i i i i i i i i i i i i i i i i i i i i i i i i i i i i i i i i i ",
"i i i i i i a i i i i i i i i i i i i i i i i i i i a i i i i i i i i i i i i i i i i i i i i i i i i i i i f.i i i i i i i i i ",
"i i i i i i i i i i i i i i f.i i i i i i i i i i i i i i i i i i i i i i i i i i i i i i i i i i i i i i i i i i i i i i i i i ",
"i i i i i i i i i i i i i i i i i i i i i i i i i i i i i i i i i i i i i i i i i i i i i i i i i i i i i i i i i i i i i i i i ",
"i i i i i i i i i i i i i i i i i i i i i i i i i i i i i i i i i i i i i i i i i i wXi i i i i i i i i i i i i i i i i i i i i ",
"i i i i i i i i i i i i f.i i i i qXi i i i i i i i i i i i i i d.i i i i i i i i i i i i i i i i i i i a a a i i i i i i i i i ",
"i i i i i i i i i i i i i i i i i i i i i i i i i qXi i i i i i i i i i i i i i i i i i i i i i i i i a s.s.s.a i i i i i i i i ",
"i i i i i i i i i i i i i i i i i i i i i i i i i i i i i i a i i i i i i i i i i i i i i i i i i i i a s.d.d.s.a i i i i i i i ",
"i i i i i i i i i i i i i i i i i i i i i i i i i i i i i i i i i i i i i i i i i i i i i i i i i i i a s.d.qXd.s.a i i i i i i ",
"i i i i i i i i i i i i i i i i i i i i i i i i i i i i i i i i i i i i i i i i i i i i i i i i i i i i a s.d.d.s.a i i i i i i ",
"i i i i i i i i i i i i i i i i i i i i i i i i i i i i i i i i x.x.i i i i i i i i i i i i i i i i i i i a s.s.s.a i i i i i i ",
"i i i i i i i i i i i i i i i i i i i i i i i i i i i wXi i i i B.B.i f.i i i i i i i i i qXi i i i i i i i a a a i i i i i i i ",
"i i i i i i i i i s.i i i i i i i i i i i i i i i i i i i i i l.Y.Y.l.i i i i i i i i i i i i i i i i i i i i i i i i i i i i i ",
"i i i i i i i i i i i i i i i i i i i i i qXi i i i i i i i i V.^.^.V.i i i i i i i i i i i i i i i i i i i i i i i i i i i i i ",
"i i i i i i i d.i i i i i i i i i i i i i i i i i i i i i qXj.N.I.I.N.j.i i i i i i i i i i i i i i i i i i i i i i i i i i qXi ",
"i i i i i i i i i i i i i i i i i i i i i i i i i i i i i g.Z.C.z.z.C.Z.g.i i i i i i i i i i i i i i f.i i i i i i i i i i i i ",
"i i i i i i i i i i i i 5 i i i i i i i 0X0Xi i i i i i i i m.!.E.E.!.m.wXi i i i i i i 0X0Xi i i i i i i 5 i i i i i i i i i i ",
"i i i i i i i i i i i i 9 7 i i i i i i 3X2X9Xa a a i i i k.G.~.J.J.~.G.k.i i i i i i 9X2X3Xi i i i i i 7 9 i i i i i i i i i i ",
"i i i i i i i i i i i i x A > i i i i 1X,X>X<Xs.s.s.a i i c._.! W W ! _.c.i i i i i i <X>X,X1Xi i i i > A x i i i i i i i i i i ",
"i i i i i i i i i i i i 8 <.U * i i i @Xi i +Xs.d.d.s.a i v.Q g L.L.g Q v.i i i i i i +Xi f.@Xi i i * U <.8 i i i i i i i f.i i ",
"i i i i i i i i i i i i 7 1.i.J , i i p s s O s.d.qXd.s.M.n.v F.(.(.F.v n.M.i a i i i O s s p i i , J i.1.7 i i i i i i i i i i ",
"i i i i i i i i i i i i 7 >.a.>.8 3 i 9 A A 4 a s.d.j.v.R.U.U.W.T.T.W.U.U.R.v.j.i i i 4 A A 9 i 3 8 >.a.>.7 i i i i i i i i i i ",
"i i i i i i i i i i i i 7 >.p.%.6 I B 6 9 9 7 9 r.b.P.)././.).Q.W.W.Q.)././.).P.b.r.9 7 9 9 6 B I 6 %.p.>.7 i i i i f.i i i i i ",
"i i a i i i i i i i i i 7 >.p.R = =.0.,.1.1.4.y E K.D.S.A.A.A.A.A.A.A.A.A.A.S.D.K.E y 4.1.1.,.0.=.= R p.>.7 i i i i i i i i i i ",
"i i i i i i i i i i i i 7 >.i.>.6 A p.i.q.e.y.7.Z k j 9 j j j j j j j j j j 9 j k Z 7.y.e.q.i.p.A 6 >.i.>.7 i i i i i i i i i i ",
"i i i i i i i i i i s.i 7 1.e.t.>.5 S t.0.7.7.w.5.&.*.;.;.;.;.;.;.;.;.;.;.;.;.*.&.5.w.7.7.0.t.S 5 >.t.e.1.7 i i i i i i i i i i ",
"i i i i i i i i i i i i 6 %.0.8.i.:.> S t.9.7.9.t.$.G Y Y J H H H H H H J Y Y G $.t.9.7.9.t.S > :.i.8.0.%.6 i i i i i i i i i i ",
"i i i i i i i i i i i i i n 8.q.7.i.-.3 H q.9.9.U @   X . # > : : : : > # . X   @ U 9.9.q.H 3 -.i.7.q.8.n i i i i i qXi i i i i ",
"i i i i i i i i i i i i i 6 U t.9.7.i.;.> U t.3.0 o X X . $ M N N N N M $ . X X o 0 3.t.U > ;.i.7.9.t.U 6 i i i i i i i i i i i ",
"i i i i f.i i i i i i i i i ; U t.e.u.2.5 Z t.8.G o   o X % 8 6 6 6 6 8 % X o   o G 8.t.Z 5 2.u.e.t.U ; i i f.i i i i i i i i i ",
"i i i i i i i i i i i i i i i > A ;.p.4.5 C q.9.0.T V m N m x x n n x x m N m V T 0.9.q.C 5 4.p.;.A > i qXi i i i i i i i i i i ",
"i i i i i i i i i i i i i i i i = 9 G $.z $.y.7.e.6.P h c c c c c c c c c c h P 6.e.7.y.$.z $.G 9 = i i qXi i i i i i i i i i i ",
"i i i i i i i i i i i i i i i i i i i > m K 1.t.i.L e } ] [ [ [ [ [ [ [ { ) / r L i.t.1.K m > qXd.s.a wXeXwXi i i i i i i i i i ",
"i i i i i i i i i i i i i i i i i i i i & 1 2 F D n @.XXoX}.{.[.{.{.[. X'.].5X .n D F 2 1 & s.d.d.s.a i wXi i i i i i i i i i i ",
"i i i i i a i i i i i i i i i i i i i i i h.~ < - b ..OX*X&X;X:X:X:X:X%X8XrX7X| b - < ~ h.i a s.s.s.a i qXi i i i i i i i i i i ",
"i i i i i i i i i i i i i i i i i i i i i b.H.i i l ` O..X|.$X-X=X=X-X#X4X6XX.' l i i H.b.i i a a a i i i i i i i i i i i i i i ",
"i i i i i i i i i i i i i i i i i i i i i i i f.i i d q _ ( o.`.+.+.`.#.+ ^ q d i i i i i i i i i i i i i i i i i wXi i i i i i ",
"i i i i i i i i i i wXi i i i i i i i i i i i i i i i i i i w u t t u w i i i i i i i i i i i i i i i i i i i i i i i i i f.i i ",
"i i i i i i i i i qXeXqXi i i i i i i i i i i i i i i i i i i i i i i i i i i i i i i i i i i i i i i i i i i i i i i i i i i i ",
"i i i i i i i i i i wXi i i i i i i i i i i i i i i i i i i i i i d.i i i i i i i i i i i i i i f.i i i i i i i i i i i i i i i ",
"i i i i i i i i i i i i i i i i i i i i a i i i i i i i i i i i i i i i i i i i i i i i i i i i i i i i i i i i i i i i i i i i ",
"i i i i i i i i i i i i i i i i i i i i i a i i i i i i i a i i i i i i i i i i i i i i i i i i i i i i i i i i i i i i i i i i ",
"i i i i i i i i i i i i i i i i i i i i i i a i i i i i a i i i i i i i i i i i i i i i i i i i i i i i i i i i i i i i i i i i ",
"i i i i i i i i i i i i i i i i i i i i i i i s.a a a s.i i i i i i i i i i a i i i i i i i i i i i i i i i i i i i i i i i i i ",
"i i i i i i i i i i i i i i i i i i i i i i i a s.s.s.a i i i i i i i i i i i i i i i i d.i i i i i i i i i i i i i i i i i i i ",
"i i i i i i i i i i i i i i i i i i i i i i i a s.qXs.a i i i i i i i i i i i i i i i i i i i i i i i i i i i i i i i i i i i i ",
"i i i i i i i i i i i i i i a a a i i i i i i a s.s.s.a i i i i i i i i i i i i i i i i i i i i i i i i i f.i i i i i i i i i i ",
"i i i i i i i i f.i i i i a s.s.s.a i i i i i a a a a s.i i i i i d.i i i i i i i i i i i i i i i i i i i i i i i i i i i i i i ",
"i i i i i i i i i i i i a d.s.d.s.a i i i i a i i i i i a i i i i i i i i i i i i i i i i i i i i i i i i i i i i i i i i i i i ",
"i i i i i i i i i i i a s.s.s.s.s.a i i i i i i i i i i i a i i i i i i i i i i i i i i i i i i i f.i i i i i i i i i i i i i i ",
"i i i i i i i i i i i a s.d.s.d.a i i i i i i i i i i i i i i i i i i i i i i i i i i i i i i i i i i i i i i d.i i i i i i i i ",
"i i i i i i i i i i i a d.s.s.a i i i i i i i i i i i i i i i i i i i i i i i i i i i i i i i i i i i i i i i i i i i i i i i i ",
"i i i i i i i i i i i i a a a i i i i i i i i i i i i i i i i i i i i i i i i i i i i i i i i i i i i i i i i i i i i i i i i i ",
"i i i i i i i i i i i i i i i i i i i i i i i i i i i i i i i i i i i i i i i i i i i i i i i i i i i i i i i i i i i i i i i i ",
"i i i i i i i i i i i i i i i i i i i i i i i i i i i i i i i i i i i i i i i i i i i i i i i i i i i i i i i i i i i i i i i i ",
"i i i i i i i i i i i i i i i i i i i i i i i i i i i i i i i i i i i i i i i i i i i a i i i i i i i i i i i i i i i i i i i i ",
"i i i i i i i i i i i i i i i i i i i i i i i i i i i i i i i i i i i i i i i i i i i i i i i i i i i i i i i i i i i i i i i i "
};
