/* XPM */
static char *result[] = {
/* columns rows colors chars-per-pixel */
"46 46 216 2 ",
"   c #1C1818",
".  c #1D1818",
"X  c #1D1919",
"o  c #1E1818",
"O  c #1E1919",
"+  c #1F1919",
"@  c #191A1D",
"#  c #201A1A",
"$  c #221B1B",
"%  c #231B1B",
"&  c #271818",
"*  c #241B1B",
"=  c #231C1D",
"-  c #251C1C",
";  c #241D1D",
":  c #261C1C",
">  c #271C1C",
",  c #261D1D",
"<  c #271D1D",
"1  c #261D1E",
"2  c #271E1E",
"3  c #281D1D",
"4  c #2A1D1D",
"5  c #281E1E",
"6  c #291E1E",
"7  c #2A1E1E",
"8  c #2B1E1E",
"9  c #2A1F1F",
"0  c #2B1F1F",
"q  c #2E1D1D",
"w  c #2C1F1F",
"e  c #321A1A",
"r  c #331A1A",
"t  c #371919",
"y  c #331D1D",
"u  c #311E1E",
"i  c #391818",
"p  c #3F1818",
"a  c #1C1B20",
"s  c #1E1C21",
"d  c #221E23",
"f  c #221F24",
"g  c #1F2121",
"h  c #222323",
"j  c #252424",
"k  c #282121",
"l  c #2B2020",
"z  c #2B2121",
"x  c #2A2222",
"c  c #2C2020",
"v  c #2F2121",
"b  c #282525",
"n  c #282A2A",
"m  c #312121",
"M  c #302222",
"N  c #312323",
"B  c #322323",
"V  c #332424",
"C  c #342424",
"Z  c #352525",
"A  c #362525",
"S  c #372525",
"D  c #342626",
"F  c #372626",
"G  c #382525",
"H  c #392626",
"J  c #392727",
"K  c #3A2727",
"L  c #3B2727",
"P  c #3E2727",
"I  c #332A2A",
"U  c #362929",
"Y  c #392929",
"T  c #3B2828",
"R  c #3C2828",
"E  c #3D2828",
"W  c #3F2A2A",
"Q  c #382E2E",
"!  c #333434",
"~  c #393737",
"^  c #3D3636",
"/  c #3C3A3A",
"(  c #4A0000",
")  c #400A0A",
"_  c #530808",
"`  c #411616",
"'  c #4A1111",
"]  c #4D1313",
"[  c #461B1B",
"{  c #461C1C",
"}  c #4B1818",
"|  c #4C1818",
" . c #4C1A1A",
".. c #551717",
"X. c #640606",
"o. c #6B0000",
"O. c #6E0E0E",
"+. c #780404",
"@. c #710F0F",
"#. c #7A0F0F",
"$. c #7D0D0D",
"%. c #651010",
"&. c #721212",
"*. c #402A2A",
"=. c #402B2B",
"-. c #412B2B",
";. c #432B2B",
":. c #422C2C",
">. c #432C2C",
",. c #442C2C",
"<. c #452D2D",
"1. c #462D2D",
"2. c #452E2E",
"3. c #462E2E",
"4. c #472E2E",
"5. c #472F2F",
"6. c #493030",
"7. c #4A3030",
"8. c #4B3030",
"9. c #4C3030",
"0. c #4C3131",
"q. c #4D3232",
"w. c #4E3232",
"e. c #4F3232",
"r. c #4E3333",
"t. c #4F3333",
"y. c #503333",
"u. c #513333",
"i. c #503434",
"p. c #513434",
"a. c #523434",
"s. c #533535",
"d. c #404141",
"f. c #434343",
"g. c #444141",
"h. c #444444",
"j. c #444545",
"k. c #464545",
"l. c #484646",
"z. c #494747",
"x. c #4B4949",
"c. c #544F4F",
"v. c #535151",
"b. c #555050",
"n. c #545151",
"m. c #585353",
"M. c #595353",
"N. c #595555",
"B. c #5A5555",
"V. c #5B5656",
"C. c #5C5555",
"Z. c #5D5757",
"A. c #5E5757",
"S. c #5F5959",
"D. c #635C5C",
"F. c #605F5F",
"G. c #625E5E",
"H. c #635F5F",
"J. c #645D5D",
"K. c #676262",
"L. c #696565",
"P. c #6A6464",
"I. c #6B6464",
"U. c #6B6666",
"Y. c #6C6767",
"T. c #6D6767",
"R. c #706868",
"E. c #716969",
"W. c #726C6C",
"Q. c #726D6D",
"!. c #736E6E",
"~. c #746C6C",
"^. c #746E6E",
"/. c #756F6F",
"(. c #767070",
"). c #777070",
"_. c #777171",
"`. c #787070",
"'. c #830C0C",
"]. c #970000",
"[. c #970B0B",
"{. c #980B0B",
"}. c #990D0D",
"|. c #9A0C0C",
" X c #9C0E0E",
".X c #9F1717",
"XX c #A10B0B",
"oX c #A10C0C",
"OX c #B21111",
"+X c #A03F3F",
"@X c #D20303",
"#X c #D30F0F",
"$X c #FA0000",
"%X c #F50B0B",
"&X c #F30D0D",
"*X c #E21010",
"=X c #E91010",
"-X c #FC1010",
";X c #FF1111",
":X c #FF1212",
">X c #D7410E",
",X c #E0420D",
"<X c #FC4306",
"1X c #FD4407",
"2X c #FF5C15",
"3X c #FF631A",
"4X c #FF782D",
"5X c #FF782E",
"6X c #A74040",
"7X c #A66060",
"8X c #BD6565",
"9X c #FB5151",
"0X c #FE893A",
"qX c #FF9745",
"wX c #FFC0C0",
"__ c None",
/* pixels */
"____________________________________________________________________________________________",
"____________________________5 0 v 9 6 7 7 7 7 9 6 __________________________________________",
"______________________________7 A 3.4.<.<.<.<.4.=.M 6 ______________________________________",
"________________________________< T a.s.a.s.p.t.w.w.T : ____________________________________",
"__________________________________@ K <.-.W 2.y.0.e.y.L < __________________________________",
"____________________________________1 6 6 * 6 1.p.0.q.y.A - ________________________________",
"______________________________________< T :.A 3 <.u.0.t.,.0 ________________________________",
"________________________________________B w.a.F < ,.p.y.p.J ________________________________",
"________________________________3X,Xa 0 5 1.p.y.S 3 >.6.7.*.> ______________________________",
"____________________________qX5X1X__d A 0 4.t.w.y.J < 6 5 w q I ____________________________",
"____________________________qX4X<X__f A 0 4.t.0.q.t.T Z C *.P k l.v.________________________",
"______________________________0X2X>Xs 8 4 7.i.0.0.w.p.y.e.y.5.& ^ F.________________________",
"________________________________________c u 9.r.q.q.7.q.w.8.y.G ; __________________________",
"________________________________________g.Q A 8.y.T c H w.w.a.D ; __________________________",
"________________________________________n.J.z ;.*.# O + E 0.U M m x ________________________",
"______________________________________j.P.S.l ,.K   X . A Y y X.o.{ g ______________________",
"______________________________________n._.A.l ,.R O O + N j _ 6X8X+.p ______________________",
"____________________________________M.R.!.Z.l ,.R .   o B b ' .XwX7X( ______________________",
"__________________________f.d.k.c.b.n.Y./.Z.l ,.T $ % % N b  .].9X+X) ______________________",
"________________________h.V.m.D.`.~ n U.).Z.l ,.J 2 B 7 M b | }.$X@X&.e ____________________",
"____________________l.B.N.V.~.!./ h G.W.Q.Z.l ,.J , V 6 M b | [.:X=X'.i ____________________",
"________________x.C.I.^.L.z.E.H.! K.(.T.Q.Z.l ,.J , B 6 M b | [.;X*X$.t ____________________",
"________________x.C.I.^.L.z.E.H.! K.(.T.Q.Z.l ,.J , B 6 M b | [.;X*X$.t ____________________",
"____________________l.B.N.V.~.!./ h G.W.Q.Z.l ,.J , V 6 M b | [.:X=X'.i ____________________",
"________________________h.V.m.D.`.~ n U.).Z.l ,.J 2 B 7 M b | {.-X#X@.e ____________________",
"__________________________f.d.k.c.b.n.Y./.Z.l ,.T $ % % N b | |.%X|.` ______________________",
"____________________________________M.R.!.Z.l ,.R .   o B b } oX&X X] ______________________",
"______________________________________n._.A.l ,.R O O + N j ..XXOX#.p ______________________",
"______________________________________j.P.S.l ,.K   X . A Y r %.O.[ g ______________________",
"________________________________________n.J.z ;.*.# O + E 0.U M m x ________________________",
"________________________________________g.Q A 8.y.T c H w.w.a.D ; __________________________",
"________________________________________c u 9.r.q.q.7.q.w.8.y.G ; __________________________",
"______________________________0X2X>Xs 8 4 7.i.0.0.w.p.y.e.y.5.& ^ F.________________________",
"____________________________qX4X<X__f A 0 4.t.0.q.t.T Z C *.P k l.v.________________________",
"____________________________qX5X1X__d A 0 4.t.w.y.J < 6 5 w q I ____________________________",
"________________________________3X,Xa 0 5 1.p.y.S 3 >.6.7.*.> ______________________________",
"________________________________________B w.a.F < ,.p.y.p.J ________________________________",
"______________________________________3 T :.A 3 <.u.0.t.,.0 ________________________________",
"____________________________________1 7 6 * 6 1.p.0.q.y.A - ________________________________",
"__________________________________= K <.-.W 2.y.0.e.y.L < __________________________________",
"________________________________< T a.s.a.s.p.t.w.w.T : ____________________________________",
"______________________________7 A 3.4.<.<.<.<.4.=.M 6 ______________________________________",
"____________________________5 0 v 9 6 7 7 7 7 9 6 __________________________________________",
"____________________________________________________________________________________________",
"____________________________________________________________________________________________",
"____________________________________________________________________________________________"
};
