/* XPM */
static char *result[] = {
/* columns rows colors chars-per-pixel */
"46 46 214 2 ",
"   c #1C1818",
".  c #1D1818",
"X  c #1E1919",
"o  c #1F1919",
"O  c #1B1A1E",
"+  c #3F0707",
"@  c #201919",
"#  c #221B1B",
"$  c #231B1B",
"%  c #241B1B",
"&  c #271A1A",
"*  c #231C1D",
"=  c #251C1C",
"-  c #251D1D",
";  c #261C1C",
":  c #261D1D",
">  c #271D1D",
",  c #261D1E",
"<  c #261F1F",
"1  c #271F1F",
"2  c #291A1A",
"3  c #281D1D",
"4  c #281E1E",
"5  c #291E1E",
"6  c #2A1E1E",
"7  c #2A1F1F",
"8  c #2B1F1F",
"9  c #2C1E1D",
"0  c #2D1F1F",
"q  c #3F1717",
"w  c #321A1A",
"e  c #331A1A",
"r  c #331B1B",
"t  c #371919",
"y  c #321E1E",
"u  c #391818",
"i  c #121921",
"p  c #111B25",
"a  c #141C25",
"s  c #1F2121",
"d  c #222323",
"f  c #252424",
"g  c #2B2020",
"h  c #2B2121",
"j  c #2A2222",
"k  c #2C2020",
"l  c #2F2121",
"z  c #282525",
"x  c #282A2A",
"c  c #302020",
"v  c #302222",
"b  c #312222",
"n  c #312323",
"m  c #322323",
"M  c #332323",
"N  c #352424",
"B  c #342525",
"V  c #352525",
"C  c #362525",
"Z  c #372525",
"A  c #342626",
"S  c #392625",
"D  c #3A2625",
"F  c #382626",
"G  c #392626",
"H  c #392727",
"J  c #3A2727",
"K  c #3E2727",
"L  c #352929",
"P  c #392929",
"I  c #3A2828",
"U  c #3B2828",
"Y  c #3C2828",
"T  c #3D2929",
"R  c #3F2A2A",
"E  c #382E2E",
"W  c #333434",
"Q  c #393737",
"!  c #3B3A3A",
"~  c #3E3838",
"^  c #4A0000",
"/  c #530808",
"(  c #411515",
")  c #4A1111",
"_  c #4D1313",
"`  c #461B1B",
"'  c #461C1C",
"]  c #4B1818",
"[  c #4C1818",
"{  c #4C1919",
"}  c #551717",
"|  c #6B0303",
" . c #640B0B",
".. c #6E0F0F",
"X. c #770000",
"o. c #700E0E",
"O. c #7A0F0F",
"+. c #7D0D0D",
"@. c #651010",
"#. c #711010",
"$. c #58291C",
"%. c #402B2B",
"&. c #412B2B",
"*. c #432B2B",
"=. c #442B2B",
"-. c #422C2C",
";. c #432C2C",
":. c #442C2C",
">. c #442D2D",
",. c #452D2D",
"<. c #462D2D",
"1. c #462E2E",
"2. c #472E2E",
"3. c #492F2F",
"4. c #4A2F2F",
"5. c #4A3030",
"6. c #4B3030",
"7. c #4C3030",
"8. c #4C3131",
"9. c #4D3131",
"0. c #4D3232",
"q. c #4E3232",
"w. c #4F3232",
"e. c #4E3333",
"r. c #4F3333",
"t. c #423F3F",
"y. c #503333",
"u. c #513333",
"i. c #503434",
"p. c #513434",
"a. c #523434",
"s. c #533434",
"d. c #434343",
"f. c #464343",
"g. c #444444",
"h. c #464444",
"j. c #474646",
"k. c #494747",
"l. c #4B4949",
"z. c #544F4F",
"x. c #545050",
"c. c #545252",
"v. c #555252",
"b. c #585353",
"n. c #595454",
"m. c #595555",
"M. c #5B5454",
"N. c #5A5555",
"B. c #5B5656",
"V. c #5C5656",
"C. c #5D5757",
"Z. c #5E5858",
"A. c #5F5959",
"S. c #625D5D",
"D. c #635D5D",
"F. c #605F5F",
"G. c #635F5F",
"H. c #645D5D",
"J. c #676262",
"K. c #6A6464",
"L. c #6A6565",
"P. c #6B6666",
"I. c #6C6464",
"U. c #6E6868",
"Y. c #6F6868",
"T. c #716969",
"R. c #726C6C",
"E. c #726D6D",
"W. c #746C6C",
"Q. c #746D6D",
"!. c #756D6D",
"~. c #746E6E",
"^. c #767070",
"/. c #777070",
"(. c #787171",
"). c #830C0C",
"_. c #970000",
"`. c #9F0101",
"'. c #960B0B",
"]. c #970B0B",
"[. c #9A0C0C",
"{. c #9A0D0D",
"}. c #980E0E",
"|. c #9C0E0E",
" X c #A00A0A",
".X c #A10C0C",
"XX c #B21111",
"oX c #803319",
"OX c #D10909",
"+X c #D31010",
"@X c #FA0505",
"#X c #F40B0B",
"$X c #F30C0C",
"%X c #E21010",
"&X c #E91010",
"*X c #FD1010",
"=X c #FF1111",
"-X c #FF4705",
";X c #FF4806",
":X c #F2480D",
">X c #FF4B0A",
",X c #FF5916",
"<X c #FF5E1B",
"1X c #FD772D",
"2X c #FD782E",
"3X c #A04040",
"4X c #A74040",
"5X c #A65A5A",
"6X c #BC6666",
"7X c #FD5353",
"8X c #FF893A",
"9X c #FF9745",
"0X c #FFBDBD",
"qX c None",
/* pixels */
"qXqXqXqXqXqXqXqXqXqXqXqXqXqXqXqXqXqXqXqXqXqXqXqXqXqXqXqXqXqXqXqXqXqXqXqXqXqXqXqXqXqXqXqXqXqX",
"qXqXqXqXqXqXqXqXqXqXqXqXqXqXqXqXqXqXqXqXqXqXqXqXqXqXqXqXqXqXqXqXqXqXqXqXqXqXqXqXqXqXqXqXqXqX",
"qXqXqXqXqXqXqXqXqXqXqXqXqXqXqXqXqXqXqXqXqXqXqXqXqXqXqXqXqXqXqXqXqXqXqXqXqXqXqXqXqXqXqXqXqXqX",
"qXqXqXqXqXqXqXqXqXqXqXqXqXqXqXqXqXqXqXqXqXqXqXqXqXqXqXqXqXqXqXqXqXqXqXqXqXqXqXqXqXqXqXqXqXqX",
"qXqXqXqXqXqXqXqXqXqXqXqXqXqXqXqXqXqXqXqXqXqXqXqXqXqXqXqXqXqXqXqXqXqXqXqXqXqXqXqXqXqXqXqXqXqX",
"qXqXqXqXqXqXqXqXqXqXqXqXqXqXqXqXqXqXqXqXqXqXqXqXqXqXqXqXqXqXqXqXqXqXqXqXqXqXqXqXqXqXqXqXqXqX",
"qXqXqXqXqXqXqXqXqXqXqXqXqXqXqXqXqXqXqXqXqXqXqXqXqXqXqXqXqXqXqXqXqXqXqXqXqXqXqXqXqXqXqXqXqXqX",
"qXqXqXqXqXqXqXqXqXqXqXqXqXqXqXqXqXqXqXqXqXqXqXqXqXqXqXqXqXqXqXqXqXqXqXqXqXqXqXqXqXqXqXqXqXqX",
"qXqXqXqXqXqXqXqXqXqXqXqXqXqXqXqXqXqXqXqXqXqXqXqXqXqXqXqXqXqXqXqXqXqXqXqXqXqXqXqXqXqXqXqXqXqX",
"qXqXqXqXqXqXqXqXqXqXqXqXqXqXqXqXqXqXqXqXqXqXqXqXqXqXqXqXqXqXqXqXqXqXqXqXqXqXqXqXqXqXqXqXqXqX",
"qXqXqXqXqXqXqXqXqXqXqXqXqXqXqXqXqXqXqXw u t t u w qXqXqXqXqXqXqXqXqXqXqXqXqXqXqXqXqXqXqXqXqX",
"qXqXqXqXqXqXqXqXqXqXqXqXqXqXqXs q ^ + #.).+.+.).o.( _ q s qXqXqXqXqXqXqXqXqXqXqXqXqXqXqXqXqX",
"qXqXqXqXqXqXqXqXqXqXc.F.qXqXj ' X.5X3XOX&X%X%X&X+X{.|.O.` j qXqXF.c.qXqXqXqXqXqXqXqXqXqXqXqX",
"qXqXqXqXqXqXqXqXqXqXf.~ < - c | 6X0X7X@X=X=X=X=X*X#X$XXX..c - < ~ f.qXqXqXqXqXqXqXqXqXqXqXqX",
"qXqXqXqXqXqXqXqXqX& 1 2 F A v  .4X`._.}.'.].].'.].[..X X@.v A F 2 1 & qXqXqXqXqXqXqXqXqXqXqX",
"qXqXqXqXqXqXqXqX> b K 2.y.p.L r / ) { [ [ [ [ [ [ [ ] } e L p.y.2.K b > qXqXqXqXqXqXqXqXqXqX",
"qXqXqXqXqX= 8 G %.k %.u.8.r.7.P f z z z z z z z z z z f P 7.r.8.u.%.k %.G 8 = qXqXqXqXqXqXqX",
"qXqXqXqX> C :.a.5.4 B w.0.q.T N b m b l l v v l l b m b N T q.0.w.B 4 5.a.:.C > qXqXqXqXqXqX",
"qXqXqX; U y.r.i.3.4 V y.9.G o   o X % 7 5 5 5 5 7 % X o   o G 9.y.V 4 3.i.r.y.U ; qXqXqXqXqX",
"qXqX5 U y.0.8.p.:.> U y.4.0 o X X . $ n m m m m n $ . X X o 0 4.y.U > :.p.8.0.y.U 5 qXqXqXqX",
"qXqXv 9.w.8.p.;.3 H w.0.0.U @   X . # > : : : : > # . X   @ U 0.0.w.H 3 ;.p.8.w.9.v qXqXqXqX",
"qX5 &.q.9.p.>.> Z y.0.8.0.y.%.G Y Y J H H H H H H J Y Y G %.y.0.8.0.y.Z > >.p.9.q.&.5 qXqXqX",
"qX6 2.r.y.,.4 Z y.q.8.8.e.6.*.=.:.:.:.:.:.:.:.:.:.:.:.:.=.*.6.e.8.8.q.y.Z 4 ,.y.r.2.6 qXqXqX",
"qX6 ,.p.,.5 C a.p.w.r.u.8.V h g 8 g g g g g g g g g g 8 g h V 8.u.r.w.p.a.C 5 ,.p.,.6 qXqXqX",
"qX6 ,.a.R = -.q.<.2.2.5.y E H.A.Z.C.C.C.C.C.C.C.C.C.C.Z.A.H.E y 5.2.2.<.q.-.= R a.,.6 qXqXqX",
"qX6 ,.a.&.5 I M 5 8 8 6 8 t.c.K./.~.~./.E.R.R.E./.~.~./.K.c.t.8 6 8 8 5 M I 5 &.a.,.6 qXqXqX",
"qX6 ,.s.,.7 9 qXi S D O qXqXqXg.x.Y.P.P.R.U.U.R.P.P.Y.x.g.qXqXqXO D S i qX9 7 ,.s.,.6 qXqXqX",
"qX6 2.p.J , qXqXoXa p $.qXqXqXqXqXn.v.x S.^.^.S.x v.n.qXqXqXqXqX$.p a oXqXqX, J p.2.6 qXqXqX",
"qX7 1.U * qXqXqX>XqXqX:XqXqXqXqXqXqXx.Q d J.J.d Q x.qXqXqXqXqXqX:XqXqX>XqXqXqX* U 1.7 qXqXqX",
"qXl C > qXqXqXqX<X;X-X,XqXqXqXqXqXqXz.(.! W W ! (.z.qXqXqXqXqXqX,X-X;X<XqXqXqXqX> C l qXqXqX",
"qX8 6 qXqXqXqXqXqX2X1X8XqXqXqXqXqXqXh.D.Q.G.G.Q.D.h.qXqXqXqXqXqX8X1X2XqXqXqXqXqXqX6 8 qXqXqX",
"qX4 qXqXqXqXqXqXqX9X9XqXqXqXqXqXqXqXqXb.W.T.T.W.b.qXqXqXqXqXqXqXqX9X9XqXqXqXqXqXqXqX4 qXqXqX",
"qXqXqXqXqXqXqXqXqXqXqXqXqXqXqXqXqXqXd.V.B.k.k.B.V.d.qXqXqXqXqXqXqXqXqXqXqXqXqXqXqXqXqXqXqXqX",
"qXqXqXqXqXqXqXqXqXqXqXqXqXqXqXqXqXqXqXg.m.L.L.m.g.qXqXqXqXqXqXqXqXqXqXqXqXqXqXqXqXqXqXqXqXqX",
"qXqXqXqXqXqXqXqXqXqXqXqXqXqXqXqXqXqXqXqXN.!.!.N.qXqXqXqXqXqXqXqXqXqXqXqXqXqXqXqXqXqXqXqXqXqX",
"qXqXqXqXqXqXqXqXqXqXqXqXqXqXqXqXqXqXqXqXj.I.I.j.qXqXqXqXqXqXqXqXqXqXqXqXqXqXqXqXqXqXqXqXqXqX",
"qXqXqXqXqXqXqXqXqXqXqXqXqXqXqXqXqXqXqXqXqXM.M.qXqXqXqXqXqXqXqXqXqXqXqXqXqXqXqXqXqXqXqXqXqXqX",
"qXqXqXqXqXqXqXqXqXqXqXqXqXqXqXqXqXqXqXqXqXl.l.qXqXqXqXqXqXqXqXqXqXqXqXqXqXqXqXqXqXqXqXqXqXqX",
"qXqXqXqXqXqXqXqXqXqXqXqXqXqXqXqXqXqXqXqXqXqXqXqXqXqXqXqXqXqXqXqXqXqXqXqXqXqXqXqXqXqXqXqXqXqX",
"qXqXqXqXqXqXqXqXqXqXqXqXqXqXqXqXqXqXqXqXqXqXqXqXqXqXqXqXqXqXqXqXqXqXqXqXqXqXqXqXqXqXqXqXqXqX",
"qXqXqXqXqXqXqXqXqXqXqXqXqXqXqXqXqXqXqXqXqXqXqXqXqXqXqXqXqXqXqXqXqXqXqXqXqXqXqXqXqXqXqXqXqXqX",
"qXqXqXqXqXqXqXqXqXqXqXqXqXqXqXqXqXqXqXqXqXqXqXqXqXqXqXqXqXqXqXqXqXqXqXqXqXqXqXqXqXqXqXqXqXqX",
"qXqXqXqXqXqXqXqXqXqXqXqXqXqXqXqXqXqXqXqXqXqXqXqXqXqXqXqXqXqXqXqXqXqXqXqXqXqXqXqXqXqXqXqXqXqX",
"qXqXqXqXqXqXqXqXqXqXqXqXqXqXqXqXqXqXqXqXqXqXqXqXqXqXqXqXqXqXqXqXqXqXqXqXqXqXqXqXqXqXqXqXqXqX",
"qXqXqXqXqXqXqXqXqXqXqXqXqXqXqXqXqXqXqXqXqXqXqXqXqXqXqXqXqXqXqXqXqXqXqXqXqXqXqXqXqXqXqXqXqXqX",
"qXqXqXqXqXqXqXqXqXqXqXqXqXqXqXqXqXqXqXqXqXqXqXqXqXqXqXqXqXqXqXqXqXqXqXqXqXqXqXqXqXqXqXqXqXqX"
};
