/* XPM */
static char *result[] = {
/* columns rows colors chars-per-pixel */
"64 64 224 2 ",
"   c #1C1818",
".  c #1D1818",
"X  c #1D1919",
"o  c #1E1818",
"O  c #1E1919",
"+  c #1F1919",
"@  c #191A1D",
"#  c #201A1A",
"$  c #221B1B",
"%  c #231B1B",
"&  c #271818",
"*  c #241B1B",
"=  c #231C1D",
"-  c #251C1C",
";  c #241D1D",
":  c #261C1C",
">  c #271C1C",
",  c #261D1D",
"<  c #271D1D",
"1  c #261D1E",
"2  c #271E1E",
"3  c #281D1D",
"4  c #2A1D1D",
"5  c #281E1E",
"6  c #291E1E",
"7  c #2A1E1E",
"8  c #2B1E1E",
"9  c #2A1F1F",
"0  c #2B1F1F",
"q  c #2E1D1D",
"w  c #2C1F1F",
"e  c #321A1A",
"r  c #331A1A",
"t  c #371919",
"y  c #331D1D",
"u  c #311E1E",
"i  c #391818",
"p  c #3F1818",
"a  c #181425",
"s  c #1C1B20",
"d  c #1E1C21",
"f  c #171E33",
"g  c #221E23",
"h  c #221F24",
"j  c #1F2121",
"k  c #172634",
"l  c #222323",
"z  c #252424",
"x  c #282121",
"c  c #2B2020",
"v  c #2B2121",
"b  c #2A2222",
"n  c #2C2020",
"m  c #2F2121",
"M  c #282525",
"N  c #282A2A",
"B  c #312121",
"V  c #302222",
"C  c #312323",
"Z  c #322323",
"A  c #332424",
"S  c #342424",
"D  c #352525",
"F  c #362525",
"G  c #372525",
"H  c #342626",
"J  c #372626",
"K  c #382525",
"L  c #392626",
"P  c #392727",
"I  c #3A2727",
"U  c #3B2727",
"Y  c #3E2727",
"T  c #332A2A",
"R  c #362929",
"E  c #392929",
"W  c #3B2828",
"Q  c #3C2828",
"!  c #3D2828",
"~  c #3F2A2A",
"^  c #382E2E",
"/  c #333434",
"(  c #393737",
")  c #3D3636",
"_  c #3C3A3A",
"`  c #4A0000",
"'  c #400A0A",
"]  c #530808",
"[  c #411616",
"{  c #4A1111",
"}  c #4D1313",
"|  c #461B1B",
" . c #461C1C",
".. c #4B1818",
"X. c #4C1818",
"o. c #4C1A1A",
"O. c #551717",
"+. c #640606",
"@. c #6B0000",
"#. c #6E0E0E",
"$. c #780404",
"%. c #710F0F",
"&. c #7A0F0F",
"*. c #7D0D0D",
"=. c #651010",
"-. c #721212",
";. c #402A2A",
":. c #402B2B",
">. c #412B2B",
",. c #432B2B",
"<. c #422C2C",
"1. c #432C2C",
"2. c #442C2C",
"3. c #452D2D",
"4. c #462D2D",
"5. c #452E2E",
"6. c #462E2E",
"7. c #472E2E",
"8. c #472F2F",
"9. c #493030",
"0. c #4A3030",
"q. c #4B3030",
"w. c #4C3030",
"e. c #4C3131",
"r. c #4D3232",
"t. c #4E3232",
"y. c #4F3232",
"u. c #4E3333",
"i. c #4F3333",
"p. c #503333",
"a. c #513333",
"s. c #503434",
"d. c #513434",
"f. c #523434",
"g. c #533535",
"h. c #152742",
"j. c #123A5F",
"k. c #133B5F",
"l. c #404141",
"z. c #434343",
"x. c #444141",
"c. c #444444",
"v. c #444545",
"b. c #464545",
"n. c #484646",
"m. c #494747",
"M. c #4B4949",
"N. c #544F4F",
"B. c #535151",
"V. c #555050",
"C. c #545151",
"Z. c #585353",
"A. c #595353",
"S. c #595555",
"D. c #5A5555",
"F. c #5B5656",
"G. c #5C5555",
"H. c #5D5757",
"J. c #5E5757",
"K. c #5F5959",
"L. c #635C5C",
"P. c #605F5F",
"I. c #625E5E",
"U. c #635F5F",
"Y. c #645D5D",
"T. c #676262",
"R. c #696565",
"E. c #6A6464",
"W. c #6B6464",
"Q. c #6B6666",
"!. c #6C6767",
"~. c #6D6767",
"^. c #706868",
"/. c #716969",
"(. c #726C6C",
"). c #726D6D",
"_. c #736E6E",
"`. c #746C6C",
"'. c #746E6E",
"]. c #756F6F",
"[. c #767070",
"{. c #777070",
"}. c #777171",
"|. c #787070",
" X c #830C0C",
".X c #970000",
"XX c #970B0B",
"oX c #980B0B",
"OX c #990D0D",
"+X c #9A0C0C",
"@X c #9C0E0E",
"#X c #9F1717",
"$X c #A10B0B",
"%X c #A10C0C",
"&X c #B21111",
"*X c #A03F3F",
"=X c #D20303",
"-X c #D30F0F",
";X c #FA0000",
":X c #F50B0B",
">X c #F30D0D",
",X c #E21010",
"<X c #E91010",
"1X c #FC1010",
"2X c #FF1111",
"3X c #FF1212",
"4X c #D7410E",
"5X c #E0420D",
"6X c #FC4306",
"7X c #FD4407",
"8X c #FF5C15",
"9X c #FF631A",
"0X c #FF782D",
"qX c #FF782E",
"wX c #A74040",
"eX c #A66060",
"rX c #BD6565",
"tX c #FB5151",
"yX c #FE893A",
"uX c #FF9745",
"iX c #0B6FAE",
"pX c #0099DB",
"aX c #2CE8F5",
"sX c #FFC0C0",
/* pixels */
"a a a a a a a a a a a a a a a a a a a a a a a a a a a a a a a a a a a k k a a a a a a a a a a a a a a a a a a a a a a a a a a a ",
"a a a a a a a a a a a a a a a a a a a a a a a a a a a a a a a a a a a a a a a a a a a a a k.a a a a a a a a a a a a a a a a a a ",
"a a a a a a a a a a a a a a a a a a a k.a a a a a a a a a a pXa a a a a a a a a a a a a a a a a a a a a a a a a a a a a a a a a ",
"a a a a j.a a a a a a a a a a a a a a a a a a a a a a a a iXaXiXa a a a a a a a a a a a a a a a a a a a a a a a a a pXa a a a a ",
"a a a a a a a a a a a a a a a a a a a a a a a a a a a a a a pXa a a a a a a iXa a a a a a a a a a a a iXa a a a a a a a a a a a ",
"a a a a a a a a a a a a a a a a a a a a a a a a a a a a a a a a a a a a a a a a a a a a a a a a a a a a a a a a a a a a a a a a ",
"a a a a a a a a a a a a a a a a a a a a a a a h.a a a a a a a a a a a a a a a a a a a a a a a a a a a a a a a a a a a a pXa a a ",
"a a a a a a a a a a a a a a a a a a a a a a a a a a a a a a a a a a a a a a a a a a a a a a a a a a a a a a a a a a a a a a a a ",
"a a a a a a f a a a a a a a a a a a a a a a a a a a f a a a a a a a a a a a a a a a a a a a a a a a a a a a k.a a a a a a a a a ",
"a a a a a a a a a a a a a a k.a a a a a a a a a a a a a a a a a a a a a a a a a a a a a a a a a a a a a a a a a a a a a a a a a ",
"a a a a a a a a a a a a a a a a a a a a a a a 5 0 m 9 6 7 7 7 7 9 6 a a a a a a a a a a a a a a a a a a a a a a a a a a a a a a ",
"a a a a a a a a a a a a a a a a a a a a a a a a 7 F 6.7.3.3.3.3.7.:.V 6 a a a a a a pXa a a a a a a a a a a a a a a a a a a a a ",
"a a a a a a a a a a a a k.a a a a iXa a a a a a a < W f.g.f.g.d.i.t.t.W : a a a a a a a a a a a a a a a f f f a a a a a a a a a ",
"a a a a a a a a a a a a a a a a a a a a a a a a a iX@ I 3.>.~ 5.p.e.y.p.U < a a a a a a a a a a a a a f h.h.h.f a a a a a a a a ",
"a a a a a a a a a a a a a a a a a a a a a a a a a a a 1 6 6 * 6 4.d.e.r.p.F - a a a a a a a a a a a a f h.j.j.h.f a a a a a a a ",
"a a a a a a a a a a a a a a a a a a a a a a a a a a a a < W <.F 3 3.a.e.i.2.0 a a a a a a a a a a a a f h.j.iXj.h.f a a a a a a ",
"a a a a a a a a a a a a a a a a a a a a a a a a a a a a a Z t.f.J < 2.d.p.d.P a a a a a a a a a a a a a f h.j.j.h.f a a a a a a ",
"a a a a a a a a a a a a a a a a a a a a a a a a a 9X5Xs 0 5 4.d.p.G 3 1.9.0.;.> a a a a a a a a a a a a a f h.h.h.f a a a a a a ",
"a a a a a a a a a a a a a a a a a a a a a a a uXqX7Xa g F 0 7.i.t.p.P < 6 5 w q T a a a a iXa a a a a a a a f f f a a a a a a a ",
"a a a a a a a a a h.a a a a a a a a a a a a a uX0X6Xa h F 0 7.i.e.r.i.W D S ;.Y x n.B.a a a a a a a a a a a a a a a a a a a a a ",
"a a a a a a a a a a a a a a a a a a a a a iXa a yX8X4Xd 8 4 0.s.e.e.t.d.p.y.p.8.& ) P.a a a a a a a a a a a a a a a a a a a a a ",
"a a a a a a a j.a a a a a a a a a a a a a a a a a a a a a n u w.u.r.r.0.r.t.q.p.K ; a a a a a a a a a a a a a a a a a a a a iXa ",
"a a a a a a a a a a a a a a a a a a a a a a a a a a a a a x.^ F q.p.W n L t.t.f.H ; a a a a a a a a a k.a a a a a a a a a a a a ",
"a a a a a a a a a a a a a a a a a a a a a a a a a a a a a C.Y.v ,.;.# O + ! e.R V B b a a a a a a a a a a a a a a a a a a a a a ",
"a a a a a a a a a a a a a a a a a a a a a a a f f f a a v.E.K.c 2.I   X . F E y +.@. .j a a a a a a a a a a a a a a a a a a a a ",
"a a a a a a a a a a a a a a a a a a a a a a f h.h.h.f a C.}.J.c 2.Q O O + C z ] wXrX$.p a a a a a a a a a a a a a a a a a a a a ",
"a a a a a a a a a a a a a a a a a a a a a a f h.j.j.h.A.^._.H.c 2.Q .   o Z M { #XsXeX` a k.a a a a a a a a a a a a a a a k.a a ",
"a a a a a a a a a a a a a a a a k.a a a a a z.l.b.N.V.C.!.].H.c 2.W $ % % C M o..XtX*X' a a a a a a a a a a a a a a a a a a a a ",
"a a a a a a a a a a a a a a a a a a a a a c.F.Z.L.|.( N Q.{.H.c 2.P 2 Z 7 V M X.OX;X=X-.e a a a a a a a a a a a a a a a a a a a ",
"a a a a a a a a a a a a a a a a a a a n.D.S.F.`._._ l I.(.).H.c 2.P , A 6 V M X.XX3X<X Xi a a a a a a a pXa a a a a k.a a a a a ",
"a a f a a a a a a a a a a a a a a M.G.W.'.R.m./.U./ T.[.~.).H.c 2.P , Z 6 V M X.XX2X,X*.t a a a a a a a a a a a a a a a a a a a ",
"a a a a a a a a a a a a a a a a a M.G.W.'.R.m./.U./ T.[.~.).H.c 2.P , Z 6 V M X.XX2X,X*.t a a a a a a a a a a a a a a a a a a a ",
"a a a a a a a a a a h.a a a a a a a a n.D.S.F.`._._ l I.(.).H.c 2.P , A 6 V M X.XX3X<X Xi a a a a a a a a a a a a a a a a a a a ",
"a a a a a a a a a a a a a a a a a a a a a c.F.Z.L.|.( N Q.{.H.c 2.P 2 Z 7 V M X.oX1X-X%.e a a a a a a a a a a a a a a a a a a a ",
"a a a a a a a a a a a a a a a a a a a a a a z.l.b.N.V.C.!.].H.c 2.W $ % % C M X.+X:X+X[ a a a a a a a a a a a a a a iXa a a a a ",
"a a a a a a a a a a a a a a a a a a a a a a a a a a a A.^._.H.c 2.Q .   o Z M ..%X>X@X} a a a a a a a a a a a a a a a a a a a a ",
"a a a a k.a a a a a a a a a a a a a a a a a a a a a a a C.}.J.c 2.Q O O + C z O.$X&X&.p a f f f a a a a a a k.a a a a a a a a a ",
"a a a a a a a a a a a a a a a a a a a a a a a a a a a a v.E.K.c 2.I   X . F E r =.#.| j f h.h.h.f a a a iXa a a a a a a a a a a ",
"a a a a a a a a a a a a a a a a a a iXa a a a a a a a a a C.Y.v ,.;.# O + ! e.R V B b a f h.j.j.h.f a a iXa a a a a a a a a a a ",
"a a a a a a a a a a a a a a a a a a a a a a a a a a a a a x.^ F q.p.W n L t.t.f.H ; a a f h.j.iXj.h.f pXaXpXa a a a a a a a a a ",
"a a a a a a a a a a a a a a a a a a a a a a a a a a a a a n u w.u.r.r.0.r.t.q.p.K ; a a a f h.j.j.h.f a pXa a a a a a a a a a a ",
"a a a a a f a a a a a a a a a a a a a a a a a a yX8X4Xd 8 4 0.s.e.e.t.d.p.y.p.8.& ) P.a a a f h.h.h.f a iXa a a a a a a a a a a ",
"a a a a a a a a a a a a a a a a a a a a a a a uX0X6Xa h F 0 7.i.e.r.i.W D S ;.Y x n.B.a a a a f f f a a a a a a a a a a a a a a ",
"a a a a a a a a a a a a a a a a a a a a a a a uXqX7Xa g F 0 7.i.t.p.P < 6 5 w q T a a a a a a a a a a a a a a a a pXa a a a a a ",
"a a a a a a a a a a pXa a a a a a a a a a a a a a 9X5Xs 0 5 4.d.p.G 3 1.9.0.;.> a a a a a a a a a a a a a a a a a a a a a k.a a ",
"a a a a a a a a a iXaXiXa a a a a a a a a a a a a a a a a Z t.f.J < 2.d.p.d.P a a a a a a a a a a a a a a a a a a a a a a a a a ",
"a a a a a a a a a a pXa a a a a a a a a a a a a a a a a 3 W <.F 3 3.a.e.i.2.0 a a a a a a a a a k.a a a a a a a a a a a a a a a ",
"a a a a a a a a a a a a a a a a a a a a f a a a a a a 1 7 6 * 6 4.d.e.r.p.F - a a a a a a a a a a a a a a a a a a a a a a a a a ",
"a a a a a a a a a a a a a a a a a a a a a f a a a a = I 3.>.~ 5.p.e.y.p.U < a a a a a a a a a a a a a a a a a a a a a a a a a a ",
"a a a a a a a a a a a a a a a a a a a a a a f a a < W f.g.f.g.d.i.t.t.W : a a a a a a a a a a a a a a a a a a a a a a a a a a a ",
"a a a a a a a a a a a a a a a a a a a a a a a h.7 F 6.7.3.3.3.3.7.:.V 6 a a f a a a a a a a a a a a a a a a a a a a a a a a a a ",
"a a a a a a a a a a a a a a a a a a a a a a a 5 0 m 9 6 7 7 7 7 9 6 a a a a a a a a a a j.a a a a a a a a a a a a a a a a a a a ",
"a a a a a a a a a a a a a a a a a a a a a a a f h.iXh.f a a a a a a a a a a a a a a a a a a a a a a a a a a a a a a a a a a a a ",
"a a a a a a a a a a a a a a f f f a a a a a a f h.h.h.f a a a a a a a a a a a a a a a a a a a a a a a a a k.a a a a a a a a a a ",
"a a a a a a a a k.a a a a f h.h.h.f a a a a a f f f f h.a a a a a j.a a a a a a a a a a a a a a a a a a a a a a a a a a a a a a ",
"a a a a a a a a a a a a f j.h.j.h.f a a a a f a a a a a f a a a a a a a a a a a a a a a a a a a a a a a a a a a a a a a a a a a ",
"a a a a a a a a a a a f h.h.h.h.h.f a a a a a a a a a a a f a a a a a a a a a a a a a a a a a a a k.a a a a a a a a a a a a a a ",
"a a a a a a a a a a a f h.j.h.j.f a a a a a a a a a a a a a a a a a a a a a a a a a a a a a a a a a a a a a a j.a a a a a a a a ",
"a a a a a a a a a a a f j.h.h.f a a a a a a a a a a a a a a a a a a a a a a a a a a a a a a a a a a a a a a a a a a a a a a a a ",
"a a a a a a a a a a a a f f f a a a a a a a a a a a a a a a a a a a a a a a a a a a a a a a a a a a a a a a a a a a a a a a a a ",
"a a a a a a a a a a a a a a a a a a a a a a a a a a a a a a a a a a a a a a a a a a a a a a a a a a a a a a a a a a a a a a a a ",
"a a a a a a a a a a a a a a a a a a a a a a a a a a a a a a a a a a a a a a a a a a a a a a a a a a a a a a a a a a a a a a a a ",
"a a a a a a a a a a a a a a a a a a a a a a a a a a a a a a a a a a a a a a a a a a a f a a a a a a a a a a a a a a a a a a a a ",
"a a a a a a a a a a a a a a a a a a a a a a a a a a a a a a a a a a a a a a a a a a a a a a a a a a a a a a a a a a a a a a a a "
};
