/* XPM */
static char *result[] = {
/* columns rows colors chars-per-pixel */
"20 20 19 1 ",
"  c #FFDB87",
". c #FFDC8A",
"X c #FFDC8B",
"o c #FFDD8D",
"O c #FFDE90",
"+ c #FFDF93",
"@ c #FFE095",
"# c #FFE096",
"$ c #FFE198",
"% c #FFE29E",
"& c #FFE39E",
"* c #FFE4A4",
"= c #FFE5A7",
"- c #FFE6AA",
"; c #FFE7AC",
": c #FFE8AE",
"> c #FFE8AF",
", c #FFEAB5",
"< c None",
/* pixels */
"<<<<<<<<<<<<<<<<<<<<",
"<<<<<<<<<<<<<<<<<<<<",
"<<<<<<<<<<<<<<<<<<<<",
"<<<<<,,<<<<<<<,,,<<<",
"<<<<,+ %<,,,,,+ O:<<",
"<<<,& <,,,-&**&<<#,<",
"<<<,* ,,,$ << ><<@,<",
"<<<,,-,,; <<<<$%X=,<",
"<<<<,,,,+ <<<< >;,<<",
"<<<<,,,,+  <<  ,,,<<",
"<<<,+,,,,     &,<<<<",
"<<,+ ,,,,*o .+,,<<<<",
"<<,+ -,,,,>-;,,<<<<<",
"<<,+  ,,,,,,,,,<<<<<",
"<<,,+ o>,,,,,,<<<<<<",
"<<,,,,,,,,,,<<<<<<<<",
"<<<,,,,,<<<<<<<<<<<<",
"<<<<<<<<<<<<<<<<<<<<",
"<<<<<<<<<<<<<<<<<<<<",
"<<<<<<<<<<<<<<<<<<<<"
};
