/* XPM */
static char *result[] = {
/* columns rows colors chars-per-pixel */
"38 38 18 1 ",
"  c #FF9900",
". c #FF9D01",
"X c #FF9E01",
"o c #FF9F01",
"O c #FFA002",
"+ c #FFA102",
"@ c #FFA202",
"# c #FFA402",
"$ c #FFA703",
"% c #FFA904",
"& c #FFAB04",
"* c #FFAE05",
"= c #FFB005",
"- c #FFB205",
"; c #FFB306",
": c #FFB907",
"> c #FFAF15",
", c None",
/* pixels */
",,,,,,,,,,,,,,,,,,,,,,,,,,,,,,,,,,,,,,",
",,,,,,,,,,,,,,,,,,,,,,,,,,,,,,,,,,,,,,",
",,,,,,,,,,,,,,,,,,,,,,,,,,,,,,,,,,,,,,",
",,,,,,,,,,,,,,,,,,,,,,,,,,,,,,,,,,,,,,",
",,,,,,,,,,,,,,,,,,,,,,,,,,,,,,,,,,,,,,",
",,,,,,,,,,     ,,,,,,,,,,     ,,,,,,,,",
",,,,,,,,@#:,,,,, ,,,,,  O#=:::#  ,,,,,",
",,,,,,,o=:,,,,,, .####O &:,,,,,,,,,,,,",
",,,,,,@=,,,,,  $*-::$#$&,,,,,,,,,::,,,",
",,,,,,#:,,,,  $;,,:$  =,,,:,,,,,,,::,,",
",,,,, :,,,,  #,,,,,# :,,,,::,,,,,,,:,,",
",,,,, :,,, .%,,,,,, O:,,,,,::,,,,,,,,,",
",,,,, :,,  %,,,,,,, *,,,,,,:::,,,,,,:,",
",,,,, :,, #,,,,,,,, *,,,,,,,::,,,,,,,,",
",,,,, :,  :   ,,,,, *,,,,,,,,:,,,,,,,,",
",,,,,,%*  :,,,,,:,& *,,,,,,,,,:,,,,,,,",
",,,,,,   *,,,,,,,:* *,,,,,,,,,:,,,,,:,",
",,,,, %& *,,,,,,,-:# :,,,,,,,,,,,,,:,,",
",,,, #,, *,,,,,=*#:+ *,,,,,,,,,,,,,:,,",
",,, $,,, *#####o,,,*O %,,,,,,,,,,,::,,",
",,, *,,, *,,,,,,,,,,, .%,,,,,,,,,=$,,,",
",,,*,,,,  :,,,,,,,,,,,  *:,,,,::: ,,,,",
",, *,,,,  :,,,,,,,,,,:,   $**-$  ,,,,,",
",, *,,,,, *,,,,,,,,,,,,,,,  X%,,,,,,,,",
",, *,,,,,  %,,,,,,,,,:,,,,,,::,,,,,,,,",
",, *,,,,,, .%,,,,,,,,:,,,,,:$,,,,,,,,,",
",, O=,,,,,, .%,,,,,,,:,,,,,#,,,,,,,,,,",
",,, *,,,,,,,  *,,,,,:,,,,:#,,,,,,,,,,,",
",,,  :,,,,,,,  $*=,:>,;*@ ,,,,,,,,,,,,",
",,,  *,,,,,,,,,  O****% ,,,,,,,,,,,,,,",
",,,,  %:,,,,,,,,,*$ ,,,,,,,,,,,,,,,,,,",
",,,,, .#=:,,,,,,:#@,,,,,,,,,,,,,,,,,,,",
",,,,,,    :::::#  ,,,,,,,,,,,,,,,,,,,,",
",,,,,,,          ,,,,,,,,,,,,,,,,,,,,,",
",,,,,,,,,,    ,,,,,,,,,,,,,,,,,,,,,,,,",
",,,,,,,,,,,,,,,,,,,,,,,,,,,,,,,,,,,,,,",
",,,,,,,,,,,,,,,,,,,,,,,,,,,,,,,,,,,,,,",
",,,,,,,,,,,,,,,,,,,,,,,,,,,,,,,,,,,,,,"
};
