/* XPM */
static char *result[] = {
/* columns rows colors chars-per-pixel */
"64 64 111 2 ",
"   c #000000",
".  c #060509",
"X  c #08070D",
"o  c #03090E",
"O  c #0B0B0C",
"+  c #120D0D",
"@  c #050A10",
"#  c #0C0A13",
"$  c #100F11",
"%  c #110E1B",
"&  c #011018",
"*  c #141313",
"=  c #1E1616",
"-  c #17171A",
";  c #18171A",
":  c #1D1919",
">  c #3F0707",
",  c #201717",
"<  c #241B1B",
"1  c #291E1E",
"2  c #3F1717",
"3  c #341A1A",
"4  c #391818",
"5  c #031B2A",
"6  c #171424",
"7  c #1F1D21",
"8  c #232323",
"9  c #2D2121",
"0  c #332424",
"q  c #392727",
"w  c #352929",
"e  c #3C2828",
"r  c #353636",
"t  c #393737",
"y  c #3B3A3A",
"u  c #4A0000",
"i  c #411515",
"p  c #461C1C",
"a  c #6B0303",
"s  c #640B0B",
"d  c #6E0F0F",
"f  c #770000",
"g  c #700E0E",
"h  c #7D0D0D",
"j  c #651010",
"k  c #711010",
"l  c #722710",
"z  c #442D2D",
"x  c #4A2F2F",
"c  c #4D3232",
"v  c #513434",
"b  c #7F5114",
"n  c #444343",
"m  c #4B4B4B",
"M  c #545252",
"N  c #5B5555",
"B  c #5F5959",
"V  c #625E5E",
"C  c #656262",
"Z  c #6B6464",
"A  c #6E6969",
"S  c #736C6C",
"D  c #767272",
"F  c #7E7E7E",
"G  c #830C0C",
"H  c #9F0101",
"J  c #A00A0A",
"K  c #B21111",
"L  c #9C3210",
"P  c #D10909",
"I  c #D31010",
"U  c #FA0505",
"Y  c #E21010",
"T  c #E91010",
"R  c #FF1111",
"E  c #F94207",
"W  c #FF5A16",
"Q  c #FF611A",
"!  c #FF792E",
"~  c #A44040",
"^  c #A65A5A",
"/  c #BC6666",
"(  c #FD5353",
")  c #D98A21",
"_  c #C0972F",
"`  c #E49123",
"'  c #EF9825",
"]  c #FB9F26",
"[  c #FF893A",
"{  c #FFA227",
"}  c #FFA62A",
"|  c #F7AC2F",
" . c #FFAE2E",
".. c #E7B639",
"X. c #EEB838",
"o. c #FFB332",
"O. c #FFBB36",
"+. c #FFBE38",
"@. c #FFC23B",
"#. c #FFC93F",
"$. c #FF9745",
"%. c #818181",
"&. c #8B8B8B",
"*. c #FFBDBD",
"=. c gray77",
"-. c #CACACA",
";. c gray83",
":. c #DCDCDC",
">. c #E2E2E2",
",. c #EEEEEE",
"<. c #F6F6F6",
/* pixels */
"      O                                                                                                                       * ",
"                                                                  ;.                                                            ",
"                                                                                                                                ",
"                                                                                                        8                       ",
"                                                                                    <.                                          ",
"                                                                                                                          C     ",
"                                                                              .                               O                 ",
"                                                                                            <.                                  ",
"                                                                                                                            *   ",
"                                                                                                                                ",
"                                                                                                                                ",
"                                                                                                                                ",
"                8                                                                                                               ",
"                                  =.                                                  O                                         ",
"            O                       %.                                                                                          ",
"  O                                                                                                                             ",
"                                                                                                                                ",
"  O                                                             m n                                                             ",
"                                          O                 >.% N N .                                               :.          ",
"                                                  n   -       n Z Z n                                                           ",
"                                                            . N S S N .     . .                                                 ",
"    =.                                        . $ .       5 y N Z Z N n % { { { { { .                                           ",
"                                            . { { {  . .6 n { { }  . .{ { {  .#._ #     X .                                     ",
"                        <             . $.{ { o.O.O.O. .{ { } @.@.S  .{ { { .         # $.$..           ; < %                   ",
"                      X 1 1 #         X ! { } X.... ] { { O.O.S V V { { o.|           [ ! ! %           , 1 %             *     ",
"                        9 q 1 #     . Q { { #.@ . ` { { O.#.#.y r { { { O.#         . W E E Q .     . < q 1 .                   ",
"                      . 9 z q < #     L { { #.O.{ { { O.#.M t 8 C { {  .M % )         l . { L     . < q x 1                     ",
"                      . 1 z v q < %   - { { #.o.{ { O.#.N M { V D { {  .M M * . X     ; : { ;     = e v z ,                     ",
"                      . 1 z v z 9 < % 9 { { #. .{ { #.#.Z { { S A { {  .#.A M n { X   = q { 1 % = 1 z v z ,                     ",
"                      . 1 z v z 1 e 0 9 1 { { { { { #.#.#.{ D S S { {  .#.S D Z M '   < 9 { < q e 1 z v z ,                     ",
"                      . 1 z v z < z c z z { { { { { #.#. .N N N B B { { o.#.#.B V  .3 @.o.z z c z < e v z <                     ",
"                      . 1 z v z 1 q c v v { { { { { #.+.} 1 9 9 1 1 { { ] o.O.+.#.#.+.o.{ c v v q 1 z v z *                     ",
"                      . 1 z c v z 1 q c { { { { { { #.#.z z z z z z z { { { { }  . .{ { c c c q < z v c x +                     ",
"                      . 1 z c c v z < { { O.o.{ { { O.#.q q q q q q q w q { { { { { c c c c q < z v c c z O                     ",
"                        # 0 c v c v z { O.#.#.{ { { { o.: < < { < < 1 1 < : : : : { c c c e 1 z c c v c 9       n               ",
"                        # < e v c c { { O.#.v { { { { } O.< 0 { 0 0 9 0 < : : : o.{ x v e < z v c c v e +                       ",
"                            < e c c { { +.#.v c { { { { {  .O.{ 1 1 1 1 < : : +. .q c v q < x v c v e <                     m   ",
"                            X < q z { { O.#.c c c { { { { { o.o.0 9 0 9 9 0 #.} { c c c 0 < c c z q < .             $           ",
"                                  9 { { +.#.v c c x { { { { { o.#.#.#.#.#.o.{ { c c c v e 9 z q 1 : .                           ",
"                  O               # { { O.#.z v v w 3 { { { { { { { { { { { { 3 w v c x e 0 , & o                               ",
"      O                               { o.#.1 q 0 9 j H } { { { { { { { { H ~ s 9 q q < 9 < .                                   ",
"                    *                 b { #.#.#.< 0 k K #.{ { R R R R U ( *./ a 0 < < t n .                                     ",
"                                      . { { #.#.#.#.#.O.{ { I T Y Y T P ~ ^ f p 9 # . V M                                       ",
"                                        % { { { { { { { { i k G h h G d > u 2 O       . .                                       ",
"                                          . % { { { ] X . X 3 4 4 4 4 3 .                                                       ",
"                                              # X .         . X X . .                   y         .                             ",
"                                                                        ,.                                                      ",
"                                      O                                 m                                                       ",
"                                                            O                                                                   ",
"                                                                                                                              n ",
"                                                                                                                                ",
"                                                                                                                                ",
"                                                                                                                                ",
"                                      -.                                                                                O       ",
"                                                                                                                                ",
"                                                                                                                                ",
"        D                                                 F                                                                     ",
"                          %.                                          O       .   A                                             ",
"                                                                                          O           :                         ",
"                            .                 t                     :.        D                                       O         ",
"        8                   &.                                                                                                  ",
"                              O                                           N                                                     ",
"                                                          ;.                                                    8               ",
"                                                                                                                                "
};
