/* XPM */
static char *result[] = {
/* columns rows colors chars-per-pixel */
"64 64 115 2 ",
"   c #000000",
".  c #090707",
"X  c #060509",
"o  c #08070D",
"O  c #0B0B0C",
"+  c #130E0E",
"@  c #030A11",
"#  c #0D0B13",
"$  c #0F0D18",
"%  c #110E1A",
"&  c #06121D",
"*  c #141314",
"=  c #1C1414",
"-  c #17151C",
";  c #181619",
":  c #1D1919",
">  c #3F0707",
",  c #201616",
"<  c #251C1C",
"1  c #2A1E1E",
"2  c #3D1717",
"3  c #341B1B",
"4  c #391818",
"5  c #071725",
"6  c #161222",
"7  c #181425",
"8  c #1F2121",
"9  c #232323",
"0  c #2B2222",
"q  c #28292A",
"w  c #332323",
"e  c #3A2727",
"r  c #3B2929",
"t  c #373737",
"y  c #393737",
"u  c #3C3939",
"i  c #4A0000",
"p  c #530808",
"a  c #401313",
"s  c #4A1111",
"d  c #461C1C",
"f  c #4C1818",
"g  c #551717",
"h  c #6B0303",
"j  c #770000",
"k  c #7C0E0E",
"l  c #711010",
"z  c #442C2C",
"x  c #492F2F",
"c  c #4D3232",
"v  c #413E3E",
"b  c #513434",
"n  c #454444",
"m  c #484646",
"M  c #4C4C4C",
"N  c #544F4F",
"B  c #545151",
"V  c #5B5555",
"C  c #5F5959",
"Z  c #625E5E",
"A  c #626262",
"S  c #6B6565",
"D  c #6D6969",
"F  c #746D6D",
"G  c #767272",
"H  c #787171",
"J  c #7E7E7E",
"K  c #830C0C",
"L  c #970000",
"P  c #9F0101",
"I  c #970B0B",
"U  c #990D0D",
"Y  c #A10C0C",
"T  c #882E13",
"R  c #A43411",
"E  c #FF1111",
"W  c #9B7004",
"Q  c #A07404",
"!  c #F94207",
"~  c #FF5A16",
"^  c #CF7C00",
"/  c #D27E00",
"(  c #FF611A",
")  c #FF792E",
"_  c #A65A5A",
"`  c #B48305",
"'  c #D09706",
"]  c #D49A06",
"[  c #EC8D00",
"{  c #E99A04",
"}  c #F09000",
"|  c #FA9600",
" . c #F19902",
".. c #FF9900",
"X. c #DCA006",
"o. c #EAA907",
"O. c #FFA402",
"+. c #F0AE07",
"@. c #FFAD05",
"#. c #F4B107",
"$. c #FFB105",
"%. c #FFB907",
"&. c #FFAF15",
"*. c #FF893A",
"=. c #FE9745",
"-. c #0099DB",
";. c #818181",
":. c #8B8B8B",
">. c gray69",
",. c #C4C4C5",
"<. c #CACACA",
"1. c gray83",
"2. c #DCDCDC",
"3. c #EEEEEE",
"4. c #F6F6F6",
/* pixels */
"      O                                                                                                                       * ",
"                                                                  1.                                                            ",
"                                                                                                                                ",
"                                                                                                        9                       ",
"                                                                                    4.                                          ",
"                                                                                                                          A     ",
"                                                                              X                               O                 ",
"                                                                                            4.                                  ",
"                                                                                                                            *   ",
"                                                                                                                                ",
"                                                                                                                                ",
"                                                                                                                                ",
"                9                                                                                                               ",
"                                  ,.                                                  O                                         ",
"            O                       ;.                                                                                          ",
"  O                                                                                                                             ",
"                                                                                                                                ",
"  O                                             X o o           m n                                                             ",
"                                          * $ | ......[     >.% V B $ & X o ^ ......| X   X                         2.          ",
"                                        X | O.#.o q   *   ..$ m S S n ....O.O.@.%.%.%.O...[                                     ",
"                                      X O.@.W         X % ....O.O.O.O.O...@.' o   X         o X                                 ",
"    ,.                                 .@.#     : $ ....O.@.$.%.%.O.O.O.@.$                 %.%.X                               ",
"                                    # O.%.o     % ....O.%.n V %.O.....$.n X   %.X           % %.Q                               ",
"                        1         X ..%.=.=.o 7 ....O.%   ,.B F O...%.B -.    %.o.    - =.=.  $ ]       - *                     ",
"                        1 < q     o ..%.) ) *.....@.7 o $ n Z F ..O.%.Z n     $ %.o.@ *.) ) o   o     % 1 ,               *     ",
"                        1 e =     X ..%.! ! ....{ X     X N H u ..@.u H B X     +.%.%.~ ! ! (     %.$ < e =                     ",
"                        = z r O     ..%.o 7 ..O.5     o $ N t 9 ..@.9 y B 6     o %.%.T     R     7 < r z =                     ",
"                        < x b e + o ..%.; ....%.} ' ..  n B q Z ..@.Z q B V %     # %.: - - *     1 r b z =                     ",
"                        0 z b z 0 < 7 @.@.....%.  @ n N D %.D @...@.F S S F N n $ X 6 %.e w 1 $ < 1 z b z =                     ",
"                        1 z b z 1 r w ......@.0 v B S H F F %.@...@.F H F F F S B v 0 %.1 1 1 w r %.z b z =                     ",
"                        1 x b z < z ..O.@...@.3 r Z C V V C $.%.O...%.V V V C C Z r 3 x x z z b %.< r b z 1                     ",
"                        1 z b z 1 ..O.b c ..@.c e 0 0 0 @.@.O.%.O...@.0 0 0 1 0 0 e c b c b b b %.0 z b z 1                     ",
"                        < z c b ..O.e c c ..@.O.O.O.O.O...z z z @.....@.z z z z z c c c c c b %.%.z b c z 1                     ",
"                        , z c c ..@.< e c ..@.c c z e r r e e e e r ..O.O.r e e r b c c c c @.@.z b c c z ,                     ",
"                          w c c @.b z < r ....%.r : : : : < < < < < < ....@.%.= , r c %.%.%...z b c b c w X     n               ",
"                          + r ..@.c b z < ....%.0 , : , : , w w w w %.0 ......O.@.@.%.O.....z b c c b e +                       ",
"                            = ..$.c b c 1 e ..@.e , : , : , 0 < 1 < 0 0 < : : ......@.b e < c c c c e =                     M   ",
"                              ..@.z b x < e ....O.r e w w w w 0 w w %.0 w w w w r %.%.c w < c c z e =               O           ",
"                              ..@.0 e r 1 r b ..O.@.r 9 9 q 0 q 9 0 %.0 0 9 9 r %.O.c b r 0 z e = .                             ",
"                  O           } O.$.7 1 w z z c ..| @.g f f f f f f %.f f s p 3 O.b b x e w +                                   ",
"      O                       # ..@.7 7 < 1 < e w ....@.Y U I I I %.I U L P %.O.0 e e < 1 ,                                     ",
"                    *         o ....%.7 7 n v < < 0 ....O.@.@.E %.&.E %.@.O...h w < 1 y n X                                     ",
"                              X ....@.7 7 B Z $ $ 0 d k ......@.@.@.@.@..._ j d 0 #   Z B X                                     ",
"                                # ....O.%.7 7   X % 8 2 a a $.@...k K l > i 2 : #     # X                                       ",
"                                  % ....O.@.%.      X   X +.O.O.4 4 4 3 o                                                       ",
"                                    - ........X.` o.%.%.O.....#                         u         X                             ",
"                                      % ..................} X           3.                                                      ",
"                                      X   X o / ......% #               M                                                       ",
"                                                  X         O                                                                   ",
"                                                                                                                              n ",
"                                                                                                                                ",
"                                                                                                                                ",
"                                                                                                                                ",
"                                      <.                                                                                O       ",
"                                                                                                                                ",
"                                                                                                                                ",
"        G                                                 J                                                                     ",
"                          ;.                                          O       X   D                                             ",
"                                                                                          O           :                         ",
"                            X                 t                     2.        G                                       O         ",
"        9                   :.                                                                                                  ",
"                              O                                           V                                                     ",
"                                                          1.                                                    9               ",
"                                                                                                                                "
};
