/* XPM */
static char *result[] = {
/* columns rows colors chars-per-pixel */
"64 64 116 2 ",
"   c #000000",
".  c #050509",
"X  c #08070C",
"o  c #04080D",
"O  c #0B0B0C",
"+  c #100C0C",
"@  c #050B13",
"#  c #0C0A13",
"$  c #120F1B",
"%  c #141415",
"&  c #1D1515",
"*  c #14121D",
"=  c #1E1A1B",
"-  c #3F0707",
";  c #261414",
":  c #251C1C",
">  c #2A1E1E",
",  c #3F1717",
"<  c #341B1B",
"1  c #391818",
"2  c #171324",
"3  c #1D1C21",
"4  c #221F24",
"5  c #1F2121",
"6  c #232323",
"7  c #2C2121",
"8  c #282A2A",
"9  c #342424",
"0  c #3A2727",
"q  c #352929",
"w  c #3B2929",
"e  c #343535",
"r  c #393737",
"t  c #3C3A3A",
"y  c #4A0000",
"u  c #530808",
"i  c #411515",
"p  c #4C1212",
"a  c #461C1C",
"s  c #4C1919",
"d  c #6B0303",
"f  c #640B0B",
"g  c #770000",
"h  c #700E0E",
"j  c #7C0E0E",
"k  c #711010",
"l  c #66230E",
"z  c #442D2D",
"x  c #4A2F2F",
"c  c #4D3232",
"v  c #423F3F",
"b  c #513434",
"n  c #444444",
"m  c #494747",
"M  c #4C4B4B",
"N  c #544F4F",
"B  c #545151",
"V  c #5A5555",
"C  c #5E5858",
"Z  c #625E5E",
"A  c #656262",
"S  c #6B6565",
"D  c #6D6969",
"F  c #736C6C",
"G  c #767272",
"H  c #787171",
"J  c #7E7E7E",
"K  c #830C0C",
"L  c #970000",
"P  c #9F0101",
"I  c #960B0B",
"U  c #9A0E0E",
"Y  c #882E13",
"T  c #A43411",
"R  c #D10909",
"E  c #D31010",
"W  c #FA0505",
"Q  c #E21010",
"!  c #E91010",
"~  c #FF1111",
"^  c #AF4312",
"/  c #A55825",
"(  c #C04411",
")  c #F94207",
"_  c #FF5A16",
"`  c #FF611A",
"'  c #DF6A28",
"]  c #C5783A",
"[  c #FF782D",
"{  c #A44040",
"}  c #A65A5A",
"|  c #BC6666",
" . c #FD5353",
".. c #DF843C",
"X. c #FF893A",
"o. c #FF9745",
"O. c #818181",
"+. c #8B8B8B",
"@. c #FFBDBD",
"#. c #FFDB87",
"$. c #FFDD8C",
"%. c #FFDF93",
"&. c #FFE096",
"*. c #FFE29D",
"=. c #FFE4A5",
"-. c #FFE6AB",
";. c #FFE8AF",
":. c #FFEAB5",
">. c gray77",
",. c #CACACA",
"<. c gray83",
"1. c #D8D7D9",
"2. c #DCDCDC",
"3. c #EEEEEE",
"4. c #F6F6F6",
"5. c #F8F8F8",
/* pixels */
"      O                                                                                                                       % ",
"                                                                  1.                                                            ",
"                                                                                                                                ",
"                                                                                                        6                       ",
"                                                                                    4.                                          ",
"                                                                                                                          A     ",
"                                                                              .                               O                 ",
"                                                                                            4.                                  ",
"                                                                                                                            %   ",
"                                                                                                                                ",
"                                                                                                                                ",
"                                                                                                                                ",
"                6                                                                                                               ",
"                                  >.                                                  O                                         ",
"            O                       O.                                                                                          ",
"  O                                                                                                                             ",
"                                                                                                                                ",
"  O                                                           . M n .                                                           ",
"                                          O                 5.# V V #                                               1.          ",
"                                                  n   %       m S S n                                                           ",
"                                                            $ V F F V O                                                         ",
"    >.                                          =           n V S S V t                                                         ",
"                                                        . t V V m m C V O               O                                       ",
"                        > .             ] o..           . 1.V F F D F V .             * ....            % +                     ",
"                        > > 4         . ' [ /             m Z F Z Z F Z n             X.[ [ #           > >               %     ",
"                      . 7 0 : .       ` ) ) _             N H t e e t H N             ( ) ) ^ .     . : 0 7 .                   ",
"                      . 4 x 0 :       T X 2 Y           . N e 6 A A 6 r N #           l 2 o T     X : 0 z >                     ",
"                      . > z b 0 : .   3 3 3 = .     @ . B B 8 Z H F Z 8 B V $ $ .     % 4 3 3 . # : 0 b x >                     ",
"                      X > z b z 4 > # > 0 0 > X X   n :.:.S S F D D F S :.:.:.n * . . > 9 9 > * : > z b z >                     ",
"                      X > z b z > w 9 > > > > > n B :.&.#.*.G :.:.:.:.:.%.#.%.;.B n 7 > 7 > > 9 0 > z b z >                     ",
"                      . > z b z : z c z x z c < q :.*.#.C :.:.:.-.*.=.=.*.V C &.:.q < c x x z c z : z b z >                     ",
"                        > x b z > 0 b b c b b c 9 :.=.#.:.:.:.*.#.> > #.:.7 > &.:.9 c b c c b b 9 > z b z >                     ",
"                        : z c b z > 0 b c c c c c :.:.-.:.:.-.#.z z z z &.*.#.-.:.x c c c c c 0 : z b b x 4                     ",
"                        & z c c b z : 9 b c c c b w :.:.:.:.%.#.0 0 0 0 #.:.-.:.z c c c c c 0 : z b c c w >                     ",
"                        . 9 c b c b z > 0 c c c 0 : :.:.:.:.&.#.#.: : #.#.:.:.:.: 0 c c c 0 : z b c c c 9 X     m               ",
"                          & 0 b c c b z > q b x > :.%.:.:.:.:.#.#.#.#.#.*.:.= = = > c b w > z b c c b w 7                       ",
"                          . : w c b b x : 9 b c :.%.#.:.:.:.:.=.#.#.#.&.:.:.= & ; 0 c c 9 : x b c b q &                     M   ",
"                            # > 9 z b x > 9 c c :.%.#.-.:.:.:.:.:.-.-.:.:.9 9 9 w c c c 9 > c b z 9 ;               +           ",
"                              X : > 0 z > z b c :.%.#.#.:.:.:.:.:.:.:.:.:.6 6 q x b c b z 7 w 9 & O                             ",
"                  O               . X : 7 z z c :.:.%.#.$.;.:.:.:.:.:.:.s p u < q b b x w 7 : .                                 ",
"      O                               . : > ; 0 :.:.:.:.:.:.:.:.:.:.I U L P { f 7 9 9 : : : .                                   ",
"                    %                   . n t > : :.:.:.:.:.~ ~ ~ ~ ~ W  .@.| d 9 : : v v .                                     ",
"                                          M Z # . : a j U U E ! Q Q ! R { } g a 7 . . Z M                                       ",
"                                            X @ O X 5 , p i k K j j K k - y , % X     . .                                       ",
"                                                    . . . . ; 1 1 1 1 < .                                                       ",
"                                                              .   . . .                 r         .                             ",
"                                                                        3.                                                      ",
"                                      O                                 M                                                       ",
"                                                            O                                                                   ",
"                                                                                                                              n ",
"                                                                                                                                ",
"                                                                                                                                ",
"                                                                                                                                ",
"                                      ,.                                                                                O       ",
"                                                                                                                                ",
"                                                                                                                                ",
"        G                                                 J                                                                     ",
"                          O.                                          O       .   D                                             ",
"                                                                                          O           =                         ",
"                            .                 e                     2.        G                                       O         ",
"        8                   +.                                                                                                  ",
"                              O                                           V                                                     ",
"                                                          <.                                                    6               ",
"                                                                                                                                "
};
