/* XPM */
static char *result[] = {
/* columns rows colors chars-per-pixel */
"64 64 116 2 ",
"   c #000000",
".  c #060509",
"X  c #08060C",
"o  c #0A090C",
"O  c #0D0B13",
"+  c #050F18",
"@  c #120F1B",
"#  c #151515",
"$  c #1F1717",
"%  c #15121C",
"&  c #181719",
"*  c #171919",
"=  c #1D1A1A",
"-  c #3F0707",
";  c #201717",
":  c #251C1C",
">  c #2A1E1E",
",  c #3F1717",
"<  c #341A1A",
"1  c #391818",
"2  c #021521",
"3  c #0E1320",
"4  c #031B2B",
"5  c #161222",
"6  c #181425",
"7  c #1C1A22",
"8  c #171E33",
"9  c #221F24",
"0  c #032337",
"q  c #232424",
"w  c #2C2121",
"e  c #2B2B2B",
"r  c #332424",
"t  c #392727",
"y  c #352929",
"u  c #3C2828",
"i  c #333434",
"p  c #393737",
"a  c #3C3B3B",
"s  c #4A0000",
"d  c #411515",
"f  c #461C1C",
"g  c #6B0303",
"h  c #640B0B",
"j  c #6E0F0F",
"k  c #770000",
"l  c #700E0E",
"z  c #7D0D0D",
"x  c #651010",
"c  c #711010",
"v  c #442D2D",
"b  c #4A2F2F",
"n  c #4D3232",
"m  c #513434",
"M  c #152742",
"N  c #454444",
"B  c #4B4949",
"V  c #545151",
"C  c #5B5555",
"Z  c #5F5959",
"A  c #625E5E",
"S  c #676465",
"D  c #6B6464",
"F  c #6E6A6A",
"G  c #736C6C",
"H  c #777070",
"J  c gray47",
"K  c #830C0C",
"L  c #9F0101",
"P  c #A00A0A",
"I  c #B21111",
"U  c #882E13",
"Y  c #9A3110",
"T  c #A43411",
"R  c #D10909",
"E  c #D31010",
"W  c #FA0505",
"Q  c #E21010",
"!  c #E91010",
"~  c #FF1111",
"^  c #805114",
"/  c #F94207",
"(  c #FF5A16",
")  c #FF611A",
"_  c #FF792E",
"`  c #A44040",
"'  c #A65A5A",
"]  c #BC6666",
"[  c #FD5353",
"{  c #C0972F",
"}  c #E08E22",
"|  c #EF9825",
" . c #FF893A",
".. c #FFA227",
"X. c #FFA62A",
"o. c #FFAE2E",
"O. c #FFB332",
"+. c #FFBB36",
"@. c #FFBE38",
"#. c #FFC23B",
"$. c #FFC93F",
"%. c #FF9745",
"&. c #818181",
"*. c #8B8B8B",
"=. c #999899",
"-. c #A5A5A4",
";. c #ABABAB",
":. c gray",
">. c #FFBDBD",
",. c #D7D8D8",
"<. c #DBDBDA",
"1. c #E5E5E5",
"2. c gray92",
"3. c #EFEFF0",
"4. c #F1F0F1",
"5. c #FCFCFC",
/* pixels */
"                                                                                            e =.                                ",
"                                                                                                                                ",
"                                                                                                                                ",
"                                                                                                                                ",
"                                                                                                                                ",
"                                                                                                                                ",
"                                                                                                                                ",
"                                                                                                                                ",
"                                                                                                                                ",
"                                                                                                                                ",
"                                                                                                                                ",
"                #                               #                               #                               #               ",
"                                                                                                                                ",
"                                                                                                                                ",
"                                                                                                                                ",
"                                                                                                                                ",
"                                                                . .                                                             ",
"                                                                B n .                                                           ",
"                                          .                   O C V O                                                           ",
"                                                              B D D B                                                           ",
"                                                            X C H H C O   . X O X                                               ",
"                                              X X .       4 p C S D V N @ ..........X                                           ",
"                        .               . X X ......o.o.6 N ....X.o.O.......o.$.{ O     7 O                                     ",
"                      X ;             . %.....O.+.+.+.o.....o.@.#.F O.......X         % %.%.O           = : @                   ",
"                      O > > o         o _ ..o.#.$.8 ......@.@.G A A ....O.O.        .  ._ _ %         . ; > @                   ",
"                      O w t > O     X ) ....$.M M ......@.$.$.p i ......+.@         X ( / / ) O     . ; t w .                   ",
"                      O 9 b u : @     Y ....$.+.....X.+.#.V p q S ....O.V @ }       X U 5 ..T .   . ; u b >                     ",
"                #     O > v m t : 5   * ....$.o.....O.$.C V ..A H ....o.V C 6 3 &     & 9 ..= .   $ u m v >     #               ",
"                      O > v m v > > % > ....$.o.....$.$.F ....G D ....O.$.G V N ..o   ; r ..9 % $ > v m v >                     ",
"                      O > v m v > u r 9 > ..........$.$.$...H G G ....o.$.G G S V | o ; > ..> r t > v m v >                     ",
"                      O > v m v : v n v b ..........$.#.o.C C Z C C ....O.#.$.A A o.< #.O.b v n v > u m v >                     ",
"                      O > v m v > r m n n ..........$.#.o.> w w w w ......O.+.@.$.$.@.O...n m m r w v m v ;                     ",
"                      O > v n m v > r n ............$.$.v v v v v v v ........X.O.o.....n n n t > v m n v ;                     ",
"                      O > v n n m b 9 ....+.O.......+.$.u u r y t t t y t ..........n n n n r > v n n n v =                     ",
"                        6 r n n n m v ..+.$.$.........o.$ : > ..> > > > = $ = $ ; ..n n n t > v m n m n r O                     ",
"                        O > u n n n ....@.$.m ........o.@.; r ..r w w r : $ = = O...b n u > v n n n n u w                       ",
"                          5 > u m m ....+.$.m n ..........o.+...> > > > : = = #.o.t b m r > n m n m u > @                       ",
"                          X @ > r v ....+.$.n n n ..........O.O.r w r w w r $.X...n n m r > n m v r > @ 2                       ",
"                                o > ....+.$.m n n n ..........o.$.$.$.$.$.O.....n n n m u w v r w ; X                           ",
"                                  O ....+.$.v n m y < ........................< y m m v u r : 0 +                               ",
"                                    . ..O.$.: t y w x L o.................L ` h r r t > > ; X                                   ",
"                                      ^ ..$.$.#.: < j I $.....~ ~ ~ ~ W [ >.] g > > > p N X                                     ",
"                                      . ....$.$.$.$.$.@.....E ! Q Q ! R ` ' k f w O   S V X                                     ",
"                #                       5 ................d c K z z K j - s , * %     O o                       #               ",
"                                          X % ........@ O O < 1 1 1 1 < X                                                       ",
"                                              @ O X X       X O O O o .                                               a *.      ",
"                                                                                                                                ",
"                        e                                                                                                       ",
"                                                                                                                                ",
"                                                                                                                                ",
"                            ;.                                                                                                  ",
"                                                                                                                                ",
"                                                        q                                                                       ",
"                                                  &.<.4.3.,.F                                                                   ",
"                                                S 1.5.5.5.2.*.&                                                                 ",
"                                        =       J 1.5.5.4.:.                                            =                       ",
"                                                  H ;.-.p                                                                       ",
"                                                                                                                                ",
"                                                                                                                                ",
"                #                               #                               #                               #               ",
"                                                                                                                                ",
"                                                                                                                                ",
"                                                                                                                                ",
"                                                                          a                                                     "
};
