/* XPM */
static char *result[] = {
/* columns rows colors chars-per-pixel */
"64 64 129 2 ",
"   c #000000",
".  c #060509",
"X  c #08060C",
"o  c #06080D",
"O  c #0A090E",
"+  c #100C0C",
"@  c #060A11",
"#  c #0D0A13",
"$  c #080F19",
"%  c #120F1C",
"&  c #151515",
"*  c #1D1515",
"=  c #13111D",
"-  c #181718",
";  c #1E1A1A",
":  c #3F0707",
">  c #261414",
",  c #251C1C",
"<  c #2A1E1E",
"1  c #3F1717",
"2  c #341B1B",
"3  c #391818",
"4  c #051623",
"5  c #081929",
"6  c #111626",
"7  c #181425",
"8  c #1C1B20",
"9  c #221F24",
"0  c #1F2121",
"q  c #0B243B",
"w  c #112036",
"e  c #232423",
"r  c #2C2121",
"t  c #292A2A",
"y  c #342424",
"u  c #3A2727",
"i  c #352929",
"p  c #3B2929",
"a  c #333434",
"s  c #393737",
"d  c #3C3A3A",
"f  c #4A0000",
"g  c #530808",
"h  c #411515",
"j  c #4C1212",
"k  c #461C1C",
"l  c #4C1919",
"z  c #6B0303",
"x  c #640B0B",
"c  c #770000",
"v  c #700E0E",
"b  c #7C0E0E",
"n  c #711010",
"m  c #66230E",
"M  c #442D2D",
"N  c #4A2F2F",
"B  c #4D3232",
"V  c #423F3F",
"C  c #513434",
"Z  c #133B5F",
"A  c #444343",
"S  c #494747",
"D  c #4C4A4A",
"F  c #544F4F",
"G  c #545151",
"H  c #5A5555",
"J  c #5E5858",
"K  c #625E5E",
"L  c #676364",
"P  c #6B6565",
"I  c #6D6A6A",
"U  c #736C6C",
"Y  c #767070",
"T  c #787171",
"R  c gray47",
"E  c #830C0C",
"W  c #970000",
"Q  c #9F0101",
"!  c #960B0B",
"~  c #9A0E0E",
"^  c #882E13",
"/  c #A43411",
"(  c #D10909",
")  c #D31010",
"_  c #FA0505",
"`  c #E21010",
"'  c #E91010",
"]  c #FF1111",
"[  c #AF4312",
"{  c #C04411",
"}  c #F94207",
"|  c #FF5A16",
" . c #FF611A",
".. c #CF6F2F",
"X. c #DF6A28",
"o. c #C7793B",
"O. c #FF782D",
"+. c #A44040",
"@. c #A65A5A",
"#. c #BC6666",
"$. c #FD5353",
"%. c #DF843C",
"&. c #FF893A",
"*. c #FF9745",
"=. c #0B6FAE",
"-. c #0073A5",
";. c #818181",
":. c #8B8B8B",
">. c #999899",
",. c #A5A5A4",
"<. c #ABABAB",
"1. c gray",
"2. c #FFBDBD",
"3. c #FFDB87",
"4. c #FFDD8C",
"5. c #FFDF93",
"6. c #FFE096",
"7. c #FFE29D",
"8. c #FFE4A5",
"9. c #FFE6AB",
"0. c #FFE8AF",
"q. c #FFEAB5",
"w. c #D7D8D8",
"e. c #DBDBDA",
"r. c #E5E5E5",
"t. c gray92",
"y. c #EFEFF0",
"u. c #F1F0F1",
"i. c #FCFCFC",
/* pixels */
"                                                                                            t >.                                ",
"                                                                                                                                ",
"                                                                                                                                ",
"                                                                                                                                ",
"                                                                                                                                ",
"                                                                                                                                ",
"                                                                                                                                ",
"                                                                                                                                ",
"                                                                                                                                ",
"                                                                                                                                ",
"                                                                                                                                ",
"                &                               &                               &                               &               ",
"                                                                                                                                ",
"                                                                                                                                ",
"                                                                                                                                ",
"                                                                                                                                ",
"                                                                                                                                ",
"                                                              . D A O                                                           ",
"                                          .                   # J H #                                                           ",
"                                                            O S P P A O                                                         ",
"                                                            % H U U H %                                                         ",
"                                                          =.A H P P H V .                                                       ",
"                        .               . .             O A J H S S H J e               0                                       ",
"                      # < %             o.*.#           . 7 H U I U U G -.            7 %.%..           8 < #                   ",
"                      # < < =         . X.O...          . A K U K K U K A             &.O.O.#         . < < O                   ",
"                      # r u < %        .} } |           O F T d a a d Y F             { } } [ O       , u r .                   ",
"                      # r M u , .     / 7 7 ^ @       o $ G s e L L 9 s G #           m 7 Z / .   # , u M < .                   ",
"                &     # < M C u , #   8 9 9 ; @ &   5 w H G t K Y Y K t G H = 7 &     - 9 9 8 . = 9 u C N <     &               ",
"                      # < M C M < < = < y u < @ $ q A q.q.P P U P P U P q.q.q.S % . . < u y < % < < N C M <                     ",
"                      # < M C M < u y < r < < < V G q.5.3.7.Y q.q.q.q.q.5.3.4.0.G V 9 2 < < < y p < M C M <                     ",
"                      . < M C M , M B M M M B 2 i q.8.3.J q.q.q.9.7.8.8.7.J J 5.q.a 2 N N M M C M , M C M <                     ",
"                      . < M C M , y C C C C C B i q.8.3.q.q.q.6.3.r 9 3.0.r 9 6.q.y B C B C C C y , M C M <                     ",
"                        , M C C M < u C B B B B B q.q.9.q.q.9.3.M M M M 6.7.3.9.q.B B B B B C y < M C B M <                     ",
"                        > M B B C M , y C B B B C p q.q.q.q.6.3.u u u p 3.q.9.q.p C B B B B u , M C B B M <                     ",
"                        O r B C B C M , u B B B u , q.q.q.q.4.3.3., , 3.3.q.q.q.> i B N B u , M C B C B y O                     ",
"                        . < u C B B C M < u C N < q.5.q.q.q.q.3.3.3.3.3.7.q.; ; , < N C p < M C B B C p r                       ",
"                          % , u B C C N , y C B q.5.3.q.q.q.q.9.4.3.3.5.q.q.; - , y N C y , N C B B p , O                       ",
"                            # , y M C B < y B B q.5.3.9.q.q.q.q.9.9.9.q.q.y y y p B C C y < B C M y , O                         ",
"                              O , r y M < M C B q.5.3.3.q.q.q.q.q.q.q.q.q.e e u N C B C M r p y * +                             ",
"                                . # 7 , y p M B q.q.5.3.5.9.q.q.q.q.q.q.l j g 2 i C C M u y , 4                                 ",
"                                    . # , < , u q.q.q.q.q.q.q.q.q.q.! ~ ! W +.x y y u , , , .                                   ",
"                                        . A s < , q.q.q.q.q.] ] ] ] ] _ $.2.#.z r , , d V .                                     ",
"                                          D K 7 7 r k b ~ ~ ) ' ` ` ' ( +.@.c k r . O K D                                       ",
"                &                           # 4 & # 0 1 j h v E b b E n f f h O -     . .                       &               ",
"                                                    . . . . > 3 2 3 3 2 % % #                                                   ",
"                                                              . . . # O                                               d :.      ",
"                                                                                                                                ",
"                        t                                                                                                       ",
"                                                                                                                                ",
"                                                                                                                                ",
"                            <.                                                                                                  ",
"                                                                                                                                ",
"                                                        e                                                                       ",
"                                                  ;.e.y.y.w.I                                                                   ",
"                                                P r.i.i.i.t.:.-                                                                 ",
"                                        ;       R r.i.i.u.1.                                            ;                       ",
"                                                  Y <.,.d                                                                       ",
"                                                                                                                                ",
"                                                                                                                                ",
"                &                               &                               &                               &               ",
"                                                                                                                                ",
"                                                                                                                                ",
"                                                                                                                                ",
"                                                                          d                                                     "
};
