/* XPM */
static char *result[] = {
/* columns rows colors chars-per-pixel */
"64 64 116 2 ",
"   c #000000",
".  c #0A0707",
"X  c #050509",
"o  c #08060B",
"O  c #07080A",
"+  c #0B0B0B",
"@  c #130E0E",
"#  c #0D0A12",
"$  c #120F1C",
"%  c #131212",
"&  c #1C1515",
"*  c #1D1A1A",
"=  c #201717",
"-  c #201817",
";  c #251B1B",
":  c #2A1E1E",
">  c #331B1B",
",  c #3C1818",
"<  c #161221",
"1  c #1D1C21",
"2  c #211E23",
"3  c #1F2121",
"4  c #232323",
"5  c #2B2121",
"6  c gray16",
"7  c #342424",
"8  c #3A2727",
"9  c #352A2A",
"0  c #3B2929",
"q  c #343434",
"w  c #3C3636",
"e  c #3B3A3A",
"r  c #480000",
"t  c #400A0A",
"y  c #530808",
"u  c #4C1313",
"i  c #451A1A",
"p  c #4C1818",
"a  c #551717",
"s  c #640606",
"d  c #6B0000",
"f  c #6E0E0E",
"g  c #780404",
"h  c #710F0F",
"j  c #7C0E0E",
"k  c #651010",
"l  c #721212",
"z  c #442D2D",
"x  c #4D3232",
"c  c #423F3F",
"v  c #513434",
"b  c #444343",
"n  c #494747",
"m  c #4C4A4A",
"M  c #544F4F",
"N  c #545151",
"B  c #5B5555",
"V  c #5D5A5A",
"C  c #635E5E",
"Z  c #626262",
"A  c #6A6565",
"S  c #6A6A6A",
"D  c #736C6C",
"F  c #767373",
"G  c #787070",
"H  c #7E7E7E",
"J  c #830C0C",
"K  c #970000",
"L  c #970B0B",
"P  c #9A0C0C",
"I  c #9F1717",
"U  c #A10C0C",
"Y  c #B21111",
"T  c #A03F3F",
"R  c #D20303",
"E  c #D30F0F",
"W  c #FA0000",
"Q  c #F40C0C",
"!  c #E21010",
"~  c #E91010",
"^  c #FE1111",
"/  c #CD3E0F",
"(  c #EF4306",
")  c #FE4606",
"_  c #FF5C15",
"`  c #FF621A",
"'  c #CA7837",
"]  c #FE772D",
"[  c #FE782E",
"{  c #A74040",
"}  c #A66060",
"|  c #BD6565",
" . c #FB5151",
".. c #DE833D",
"X. c #FF893A",
"o. c #FF9745",
"O. c #828282",
"+. c #8B8B8B",
"@. c #959596",
"#. c #FFDB87",
"$. c #FFDD8C",
"%. c #F4D997",
"&. c #FFDF93",
"*. c #FFE096",
"=. c #FFE29C",
"-. c #EAD6A0",
";. c #FFE4A5",
":. c #FEE6AB",
">. c #FFE8AF",
",. c #FFEAB5",
"<. c gray77",
"1. c #CACACA",
"2. c gray83",
"3. c #DCDCDC",
"4. c #FFC0C0",
"5. c #F6F6F6",
/* pixels */
"      +                                                                                                                       % ",
"                                                                  2.                                                            ",
"                                                                                                                                ",
"                                                                                                        4                       ",
"                                                                                    5.                                          ",
"                                                                                                                          Z     ",
"                                                                              X                               +                 ",
"                                                                                            5.                                  ",
"                                                                                                                            %   ",
"                                                                                                                                ",
"                                                                                                                                ",
"                                                                        X . X                                                   ",
"                4                                         X & - 2 > 5 5 : : 5 : X                                               ",
"                                  <.                    = 7 z z z z z z x z 8 =       +                                         ",
"            +                       O.                ; 8 x x x v v v v v 5 .                                                   ",
"  +                                                 & 0 v v x v x 0 z z 8 O                                                     ",
"                                                  @ 7 v x x v z : ; 2 ; -                                                       ",
"  +                                               ; z v x v z : 8 z 0 ; X                                                       ",
"                                          %     . 8 v x v z ; 8 v x 7 X # X X                                       3.          ",
"                                              o = 0 x x z ; 8 x v z : ; * / ` $                                                 ",
"                                          X # 9 : > 2 : : 8 v x v z 5 8 1 X ) [ ..X                                             ",
"    <.                                    m n 4 8 z 7 8 8 x x x v z : 7 4   ) [ o.X                                             ",
"                                          V w ; z v x x v x x x v x : : 1 / _ X.#                                               ",
"                                          + ; 8 v x x x x x x x x > : o X X                                                     ",
"                            6               2 7 v x x 8 5 0 v z 7 0 c X X X                                               %     ",
"                            +         O.# 5 7 7 9 x 8 ,.,.- z z 5 C N $ ,.,.,..                                                 ",
"                                      . 3 i f k > 0 ,.&.#.=.8 ,.,.,.,.,.&.#.&.-.                                                ",
"                        %             X , j Y U a ,.=.#.* ,.,.,.>.=.;.;.%.o # *.,.                                              ",
"                                        u P Q U p ,.;.#.,.,.,.=.#.B D #.:.o o =.,.#                                             ",
"                                      X i P Q P p ,.,.;.,.,.:.#.5 B G S &.;.$.;.,.b X                                           ",
"                                    m > h E ^ L p 6 ,.,.,.,.&.#.5 B D A #.,.:.,.N B e o                                         ",
"                                      , J ~ ^ L p 4 ,.,.,.,.&.#.#.B D #.#.,.,.,.D B B m b o                                     ",
"                                    @., j ! ^ L p ,.&.,.,.,.,.#.#.#.#.#.=.,.q Z D n A D A B e           @.                      ",
"                                      > j ! ^ L ,.&.#.,.,.,.,.;.$.#.#.*.,.,.q Z D b A D A B m X                                 ",
"                              X n     , J ~ ^ L ,.&.#.;.,.,.,.,.,.:.:.,.,.4 w G D B B B w X .                   b               ",
"                                      > l R W L ,.&.#.#.,.,.,.,.,.,.,.,.,.q G C B B e X #     6                                 ",
"                                      X t {  .K ,.,.&.#.$.,.,.,.,.,.,.,.N N N b b b X                                       m   ",
"                                        r } 4.I ,.,.,.,.,.,.,.,.,.,.D A B $ o .                                     +           ",
"                                        , g | { y ,.,.,.,.,.8 z 5 V D N $                   %                                   ",
"                  +                     1 i d s > 0 7 * * & 8 z : C A q                                                         ",
"      +                                 X 5 7 5 8 x 0 = - - z z 5 C N                                                           ",
"                    %                     # ; 7 v x v 7 5 0 x x 7 0 b                                                           ",
"                                          . ; 7 v x x v x x x x x > 5 X                                                         ",
"                                          n w ; z v x v v x x x x x : : 1 / _ X.                                                ",
"                                          b n : z 8 7 7 0 x x x x z : 8 * X ) [ ' X                                             ",
"                                          X   9 : : ; : : 8 v x x x : 8 2 X ( [ o.X     e         X                             ",
"                                              # ; z z x z ; 7 v v z 5 2 * / `   X                                               ",
"                                      +       X + 0 v v v z : 7 v x 7 $ e X                                                     ",
"                                                + : z v x v z : 7 z 0 ; .                                                       ",
"                                                  % 7 v x x v z : ; : : ;                                                     b ",
"                                                    - 8 v x x v z z z z 8 *                                                     ",
"                                                    X & 0 x x v v v v v v 0 ; X                                                 ",
"                                                      X - 5 z z z z z z z z 8 : X                                               ",
"                                      1.                . . : 5 : : : : : : 7 : ;                                       +       ",
"                                                                    X     X X X                                                 ",
"                                                                                                                                ",
"        F                                                 H                                                                     ",
"                          O.                                          +       .   S                                             ",
"                                                                                          +           *                         ",
"                            X                 q                     3.        F                                       +         ",
"        4                   +.                                                                                                  ",
"                              +                                           B                                                     ",
"                                                          2.                                                    4               ",
"                                                                                                                                "
};
