/* XPM */
static char *result[] = {
/* columns rows colors chars-per-pixel */
"64 64 105 2 ",
"   c #000000",
".  c #090706",
"X  c #060509",
"o  c #08060C",
"O  c #06090E",
"+  c #0B0B0C",
"@  c #100C0C",
"#  c #070D14",
"$  c #0D0B13",
"%  c #110E19",
"&  c #141212",
"*  c #1D1515",
"=  c #14101D",
"-  c #18171B",
";  c #1D1919",
":  c #201717",
">  c #2A1313",
",  c #261C1C",
"<  c #2A1E1E",
"1  c #321E1E",
"2  c #151120",
"3  c #181425",
"4  c #1C1B21",
"5  c #221F24",
"6  c #232323",
"7  c #2B2020",
"8  c #292929",
"9  c #342424",
"0  c #3A2727",
"q  c #352A2A",
"w  c #3B2929",
"e  c #373737",
"r  c #3B3737",
"t  c #3C3B3B",
"y  c #530808",
"u  c #411616",
"i  c #4A1111",
"p  c #640606",
"a  c #6B0000",
"s  c #710F0F",
"d  c #442D2D",
"f  c #4D3232",
"g  c #513434",
"h  c #444343",
"j  c #484646",
"k  c #4B4B4B",
"l  c #514D4D",
"z  c #555151",
"x  c #5C5656",
"c  c #635D5D",
"v  c #626262",
"b  c #6B6666",
"n  c #6A6A6A",
"m  c #736D6D",
"M  c #767373",
"N  c #787070",
"B  c #7E7E7E",
"V  c #830C0C",
"C  c #970000",
"Z  c #9F1717",
"A  c #BF390D",
"S  c #FA0000",
"D  c #CD3E0F",
"F  c #BA761D",
"G  c #A4612D",
"H  c #BC6F33",
"J  c #CC4E15",
"K  c #FF4706",
"L  c #FF5C15",
"P  c #FF621A",
"I  c #CF6F2F",
"U  c #FE772D",
"Y  c #FE782E",
"T  c #A74040",
"R  c #BD6565",
"E  c #FB5151",
"W  c #B08B2B",
"Q  c #CB8E27",
"!  c #D38620",
"~  c #D88A21",
"^  c #C19830",
"/  c #E69223",
"(  c #EF9825",
")  c #E09A2A",
"_  c #F39A25",
"`  c #FFA227",
"'  c #FFA62A",
"]  c #FFAE2E",
"[  c #F0B134",
"{  c #FFB332",
"}  c #FFBB36",
"|  c #FFBE38",
" . c #FFC23B",
".. c #FFC93F",
"X. c #FF9745",
"o. c #818181",
"O. c #8D8D8D",
"+. c gray59",
"@. c gray73",
"#. c gray77",
"$. c #CACACA",
"%. c gray83",
"&. c #DCDCDC",
"*. c #FFC0C0",
"=. c #F6F6F6",
/* pixels */
"      +                                                                                                                       & ",
"                                                                  %.                                                            ",
"                                                                                                                                ",
"                                                                                                        6                       ",
"                                                                                    =.                                          ",
"                                                                                                                          v     ",
"                                                                              X                               +                 ",
"                                                                                            =.                                  ",
"                                                                                                                            &   ",
"                                                                                                                                ",
"                                                                                                                                ",
"                                                              o X X o + $ % % $ o                                               ",
"                6                                         % , , , , 7 < < < 9 , ,                                               ",
"                                  #.                    : 9 d d d d d d f d 0 < $     +                                         ",
"            +                       o.                : 0 f f g g g g g g 9 @                                                   ",
"  +                                                 & w g g f g f w d d 0 +                                                     ",
"                                                  . 9 g f f g d , , , 7 ,                                                       ",
"  +                                               * d g f f d , 0 d w , X                                                       ",
"                                          +       0 f f g d , 9 g f : $                                             &.          ",
"                                              X : d f f d , 0 g g d < 5 - A P $                                                 ",
"                                          O # q < < < < , w f f g d 7 0 5 3 K Y X.+                                             ",
"    #.                                    f j 6 0 d 9 9 w f f f g d < 9 6 ` ` ` ` ` X                                           ",
"                                          j r ` ` ` ] ] g f ` ` ] ] ] ' ` ` ) ^ ^ $                                             ",
"                                          ( ` { } } } ] ` ` ] }  .1 ] ` ` `                                                     ",
"                            8           + ` ' ....f ` ` ' } } f 9 w ` ` { Q                                               &     ",
"                            +         O.F ` ..7 q ` ` ` } ....d 7 ' ` ` [ +               o                                     ",
"                                        / ` ..} ` ` ' } ..; 9 d 7 ` ` { % & (             ` X                                   ",
"                        &               _ ' ..] ` ' { ..; * ` d 7 ` ` ] X               X ` o                                   ",
"                                        ' ` ..] ` ` ....* ` ` d 7 ` ` ] W     o ` X     X ` X                                   ",
"                                      X u ` ` ` ` ` ......` w d 7 ` ` { ..z l j h ` #   o `                                     ",
"                                    l > s ` ` ` ` ` .. .] , w d 5 c ` ` {  ...c z ] j  .{ o                                     ",
"                                      > V ` ` ` ` ` .. .' , w d < x ` ` ` { } | ....} { ` $                                     ",
"                                    @.> ` ` ` ` ` ` ....9 , 0 d < c m ` ` ` ` ' ] ] ` ' b x j           +.                      ",
"                                      _ ` } { ` ` ` } ..9 , 0 d , x m b m ` ` ` ` ` v m b x h                                   ",
"                              X j   = ` | ....` ` ` ` ] 9 , 9 ' < x m m c 6 t m m ` x x h o                     j               ",
"                                    ` ` } ..S ` ` ` ` ] } , 0 ` 7 c N b 8 r N c { ` h =       8                                 ",
"                                  X ` ` | ..E C ` ` ` ` ` ] } ` 7 x N b z z z | ' t X                                       k   ",
"                                    ` ` } ..*.Z i ` ` ` ` ` { { 7 x m b z 3 ..] ( X                                 +           ",
"                                    ` ` } ..R T y 6 ` ` ` ` ` ] ..........] ` _             &                                   ",
"                  +                 / ` } ..a p 1 0 9 ` ` ` ` ` ' ' ` ` ` ' _ X                                                 ",
"      +                             X ` { ..9 7 q f w * ` ` ` ` ` ' ` ` ! $ X                                                   ",
"                    &                 ~ ` ......g f g 0 ..` ` f 9 w h X                                                         ",
"                                      X ` ` ..........} ` ` f f f 1 7 +   X X                                                   ",
"                                        2 ` ` ` ` ` ` ` ` f f f g f < , 4 D L I                                                 ",
"                                          z j ` ` ` ` 0 w f f f f d < 0 5 3 K Y G                                               ",
"                                            % q 1 , , , < 0 f f f f 1 0 5 3 K Y H       t         X                             ",
"                                              $ , d f d d , 0 g g d , 5 ; D J O                                                 ",
"                                      +         % 0 g g g d , 0 g f 9 3 4 X                                                     ",
"                                                + , d g f g d , 9 d w , o                                                       ",
"                                                  & 9 g f f g d , , < , , X                                                   h ",
"                                                  X , 0 g f f g d d d d w , X                                                   ",
"                                                    o , w f f g g g g g g w , o                                                 ",
"                                                      O , 9 d d d d d d f d 0 < X                                               ",
"                                      $.                o % , 7 < < < 7 , , < , :                                       +       ",
"                                                                                                                                ",
"                                                                                                                                ",
"        M                                                 B                                                                     ",
"                          o.                                          .       X   n                                             ",
"                                                                                          +           ;                         ",
"                            X                 e                     &..       M                                       +         ",
"        8                   O.                                                                                                  ",
"                              X                                           z                                                     ",
"                                                          %.                                                    6               ",
"                                                                                                                                "
};
