/* XPM */
static char *result[] = {
/* columns rows colors chars-per-pixel */
"64 64 122 2 ",
"   c #040302",
".  c #090605",
"X  c #060A05",
"o  c #0A0906",
"O  c #060608",
"+  c #09060A",
"@  c #07090A",
"#  c #0C0A0B",
"$  c #120D0C",
"%  c #0E120C",
"&  c #13120D",
"*  c #0E0B13",
"=  c #110E19",
"-  c #0F1111",
";  c #09101A",
":  c #131213",
">  c #1A1512",
",  c #171D14",
"<  c #1C1C14",
"1  c #13111C",
"2  c #1D1919",
"3  c #211717",
"4  c #2C1717",
"5  c #211917",
"6  c #261C1C",
"7  c #2A1E1E",
"8  c #331D1D",
"9  c #391818",
"0  c #1B2116",
"q  c #1C2418",
"w  c #20261A",
"e  c #2B201D",
"r  c #23281B",
"t  c #2C2A1E",
"y  c #161222",
"u  c #181425",
"i  c #1D1C21",
"p  c #151B2D",
"a  c #221F24",
"s  c #1F2121",
"d  c #222323",
"f  c #2B2020",
"g  c #262929",
"h  c #2A2C2C",
"j  c #342424",
"k  c #3A2727",
"l  c #352F24",
"z  c #352A2A",
"x  c #3B2929",
"c  c #3C3B2A",
"v  c #3B3737",
"b  c #3C3B3B",
"n  c #530808",
"m  c #411616",
"M  c #4A1111",
"N  c #640606",
"B  c #6B0000",
"V  c #710F0F",
"C  c #442D2D",
"Z  c #44312E",
"A  c #4D3232",
"S  c #4C3834",
"D  c #513434",
"F  c #434343",
"G  c #484646",
"H  c #494848",
"J  c #544F4F",
"K  c #545151",
"L  c #5C5656",
"P  c #665A46",
"I  c #635D5D",
"U  c #755B51",
"Y  c #7C5B55",
"T  c #627954",
"R  c #606363",
"E  c #6B6666",
"W  c #736D6D",
"Q  c #777070",
"!  c #787070",
"~  c #830C0C",
"^  c #970000",
"/  c #9F1717",
"(  c #FA0000",
")  c #C0390D",
"_  c #CD3E0F",
"`  c #FF4706",
"'  c #FF5C15",
"]  c #FF621A",
"[  c #FE772D",
"{  c #FE782E",
"}  c #A74040",
"|  c #BD6565",
" . c #FB5151",
".. c #748C61",
"X. c #DF843D",
"o. c #C19830",
"O. c #E08E22",
"+. c #EF9825",
"@. c #E09A2A",
"#. c #F09925",
"$. c #FF893A",
"%. c #DFB037",
"&. c #FFA227",
"*. c #FFA62A",
"=. c #F0A82E",
"-. c #FFAE2E",
";. c #F0B134",
":. c #FFB332",
">. c #FFBB36",
",. c #FFBE38",
"<. c #FFC23B",
"1. c #FFC93F",
"2. c #869E6D",
"3. c #B78B7F",
"4. c #A59A73",
"5. c #AB9E77",
"6. c #FF9745",
"7. c #C7998B",
"8. c #FCBBAF",
"9. c #A7C68A",
"0. c #FCEFB0",
"q. c #FFC0C0",
/* pixels */
"                                              .       .     X                 X                       X X         X         X   ",
"    . . .                                                         X                 X         X X                     X         ",
"  . o $ $ $ .               .                                                   X       X                         X         X   ",
"  . $ 7 k > o                                               X       X   X X                     X     X   X             X       ",
"  o > D Y 6 $ $ .                                   .                           X                         X           X X X     ",
"  . . 6 j 5 4 > . .               .                                 X                                         X   X o % % o X X ",
"    . $ $ 3 3 $ .         .                               .       X         X           X   .                     X & t c 5 o X ",
"      . . $ $ . .                                                     X           X                               o < 4.0.c & X ",
"        . . . .                                                     X                 X                         . o > P 5.t & . ",
"                                                                              X                                   . $ > > & o   ",
". . .                 .   .                                                                                           . o o     ",
". $ # .                 . .                   - O             + O O * - = = = * o                                       .       ",
"8 x 3 o                                       R :         = a 7 e e a 7 7 7 j 7 6                                               ",
"3.8.Z $ .     .                               +       + 7 8 C A C C C C C A j 7 *                             + +               ",
"U 7.j $ .                                           + 6 k A A D S D D D D k : +                               d d               ",
"> 5 $ .       .           .                         > k D A A D C C C C k $                                                     ",
"o $ . .                               .           # j D A A D C 7 5 7 7 6 +                                       .             ",
".                                                 3 C D A D C 7 j C k 7 =                                                       ",
"                                                . k D D D C 6 j D A 3 ; + .                                                     ",
"                    .                         # 3 k A A C 6 j D A A 7 7 1 ) ] *                                                 ",
"                                        .   * z 7 7 7 7 7 k A A A A 7 j a u ` [ 6.*                                             ",
"                                          S G a k C j j k S A A D C a j d &.&.&.#.*.+     .                                     ",
"                                          G v &.&.&.-.-.D A &.&.-.-.-.&.&.&.@.o.o.*                           +                 ",
"                                          +.&.:.>.>.>.-.&.&.*.>.<.8 -.&.&.#.                                                  . ",
"                                        * &.*.<.1.A &.&.&.>.,.A j z &.&.:.=.                                                    ",
"                                        +.&.1.j z &.&.&.>.1.1.C f *.&.&.;.1 .             + +                                   ",
"                                        &.&.1.>.&.&.*.>.1.2 k C f &.&.-.= F +.            &.*                                   ",
"                                      + &.&.1.:.&.&.:.1.2 2 &.C f &.&.:.* . * O         + &.*                   .               ",
"                                      + #.*.1.-.&.&.1.1.2 &.&.C f &.&.-.%.* * = &..     + &.*                 . & X       .     ",
"      .                               + m &.&.&.&.&.1.1.1.&.k C f &.&.-.1.J J F F &.; O * &.+                 . .             . ",
"              : >                   . 4 V &.&.&.&.&.1.<.-.e z C f L &.&.:.1.1.I L -.F <.:.*                         X           ",
"              g h                   + 9 ~ &.&.&.&.&.1.<.*.e j C f L &.*.#.:.>.<.1.1.>.:.#.= .                 .                 ",
"                                    * 9 &.&.&.&.&.&.1.1.j 6 k C f L W &.&.&.&.*.-.-.&.&.E L G +                     X     X     ",
"                                    * &.&.,.:.&.&.&.>.1.j 6 k C f L Q E Q &.&.&.&.&.E Q E L G             X                     ",
"            b $                   O y &.>.1.1.&.&.&.&.-.j 6 k &.f L Q W I d b W W &.L L F = +                   X               ",
"            d #                   * &.&.,.1.( &.&.&.&.-.,.6 j &.f L Q E g b Q I :.&.b = * +                                   X ",
"                                  * #.&.>.1. .^ &.&.&.&.&.-.>.&.f L W E K K K ,.-.F $                   X     X           X     ",
"                                  + &.&.>.1.q./ M &.&.&.&.&.:.:.f L W W K u 1.-.#.=               .                             ",
"                                  + &.&.,.1.| } n d &.&.&.&.&.-.1.1.1.1.1.-.&.&.$                                               ",
"                                    &.&.>.1.B N 8 z j &.&.&.&.&.&.&.&.&.&.&.&.*                           X         X         X ",
"    .                               = #.:.1.j f k A k 2 &.&.&.&.&.*.&.&.O.= *                       X         X   X X           ",
"                                      +.&.1.1.1.D A A k 1.&.&.A k z F *                                                     X   ",
"                                      * &.&.1.1.1.1.1.>.&.&.A A A 8 f = + + + +                                   X             ",
"                                        y &.&.&.&.&.&.&.&.A A A A A 7 7 i _ ' $.        .                 X             X       ",
"                            .           # K G &.&.&.&.j x A A A A C 7 k a u ` [ X.+                               X             ",
"    X                                     + u z 7 7 7 7 7 k D A A A 7 k a u ` { 6.=               X                             ",
"                                              = 6 C A A C 6 j D D C a 7 2 _ ] y =                                           X   ",
"              .         X                       = k A A D C 7 j D A j u = 1 *                                         X         ",
"        X         X       X                     @ e Z A A D C 7 j C k 7 +                                                       ",
"                      X               X           : k A A A D C 7 7 a e 6 *                       X                             ",
"                                  X         X     X 5 k D A A D C C C C k 6 *                 .                                 ",
"      X     X       X         X                     ; 6 k A A A D D D D D k 7 *                                               X ",
"  X                                   X               p e f C C C C C C A C k 7 .                 X             d #             ",
"    X         X   X     X     X         X     X       O 1 1 7 e 7 7 7 7 a f 7 7 7                               # .             ",
"    X   X                         X   X         X                     . + + + +                                       X     X   ",
"                  X X     X                           X       X . .                                                             ",
"              X                           X     X               & l .                                                           ",
"    X                   X           X                 X       X .                         X                                     ",
"  X   X X       X           X                                                                                                   ",
"                      X X       X       X X % % X X                                                                             ",
"    X   X           X           X       X % q q , X X       X                 X           .   .   .                             ",
"              X               X       X X 0 ..9.q % X                                                                           ",
"  @               X           X         o 0 T 2.q %               X   . X                                                       ",
"  X         X       X               X     % 0 q & o       X                           .                                         "
};
