/* XPM */
static char *result[] = {
/* columns rows colors chars-per-pixel */
"64 64 139 2 ",
"   c #040302",
".  c #090605",
"X  c #060A05",
"o  c #0A0906",
"O  c #070709",
"+  c #09070A",
"@  c #07090A",
"#  c #0C0A0B",
"$  c #130D0C",
"%  c #0E120C",
"&  c #13120D",
"*  c #0E0B13",
"=  c #120E19",
"-  c #0F1111",
";  c #131414",
":  c #1B1512",
">  c #171D14",
",  c #1C1C14",
"<  c #14111E",
"1  c #1E1A1A",
"2  c #211716",
"3  c #211817",
"4  c #251C1B",
"5  c #2A1E1E",
"6  c #331B1B",
"7  c #3C1818",
"8  c #1B2116",
"9  c #1C2418",
"0  c #20261A",
"q  c #2B201D",
"w  c #23281B",
"e  c #2C2A1E",
"r  c #161322",
"t  c #181425",
"y  c #1D1C21",
"u  c #111E32",
"i  c #221F24",
"p  c #1F2121",
"a  c #212323",
"s  c #2B2121",
"d  c #262929",
"f  c #2C2D2D",
"g  c #342424",
"h  c #3A2727",
"j  c #352F24",
"k  c #352A2A",
"l  c #3B2929",
"z  c #3C3B2A",
"x  c #3C3636",
"c  c #3B3B3B",
"v  c #333434",
"b  c #4A0000",
"n  c #400A0A",
"m  c #530808",
"M  c #411616",
"N  c #461C1C",
"B  c #4C1818",
"V  c #4D1313",
"C  c #551717",
"Z  c #640606",
"A  c #6B0000",
"S  c #6E0E0E",
"D  c #780404",
"F  c #710F0F",
"G  c #7C0E0E",
"H  c #651010",
"J  c #721212",
"K  c #442D2D",
"L  c #44312E",
"P  c #4D3232",
"I  c #4C3834",
"U  c #513434",
"Y  c #133B5F",
"T  c #094D78",
"R  c #444343",
"E  c #484646",
"W  c #4B4949",
"Q  c #544F4F",
"!  c #545151",
"~  c #5B5555",
"^  c #5D5A5A",
"/  c #665A46",
"(  c #635E5E",
")  c #755B51",
"_  c #7C5B55",
"`  c #627954",
"'  c #606363",
"]  c #6A6565",
"[  c #736C6C",
"{  c #777171",
"}  c #787070",
"|  c #830C0C",
" . c #970000",
".. c #970B0B",
"X. c #9A0C0C",
"o. c #9F1717",
"O. c #A10C0C",
"+. c #B21111",
"@. c #A03F3F",
"#. c #D30F0F",
"$. c #D20303",
"%. c #FA0000",
"&. c #F40C0C",
"*. c #E21010",
"=. c #E91010",
"-. c #FE1111",
";. c #CD3E0F",
":. c #FF4706",
">. c #FF5C15",
",. c #FF621A",
"<. c #FE772D",
"1. c #FE782E",
"2. c #A74040",
"3. c #A66060",
"4. c #BD6565",
"5. c #FB5151",
"6. c #748C61",
"7. c #DF843D",
"8. c #FF893A",
"9. c #869E6D",
"0. c #B78B7F",
"q. c #AB9E77",
"w. c #A59A73",
"e. c #FF9745",
"r. c #0090CE",
"t. c #C7998B",
"y. c #FCBBAF",
"u. c #A7C68A",
"i. c #FFDB87",
"p. c #FFDD8C",
"a. c #FFDF93",
"s. c #FFE096",
"d. c #FFE29D",
"f. c #EFDAA3",
"g. c #FFE4A5",
"h. c #FFE6AB",
"j. c #FFE8AF",
"k. c #FFEAB5",
"l. c #FFC0C0",
/* pixels */
"                                                    .                   X     X   X         X     X                             ",
"    . . .                                                     X                           X         X         X X       X   X   ",
"  . o $ $ $ .               .                                         X                         X       X             X         ",
"  . $ 5 h 2 . .                           .       .             X X     X   X   X           X                 X             X   ",
"  o : P _ 5 $ $ .                                             .                       X             X                 X X       ",
"  . . 4 g 3 4 $ . .                                       .         X           X X                                 o % % o o   ",
"    . $ $ 2 2 $ .                                                 X         X                               X   X o & e z 8 %   ",
"      . o $ $ . .           .                                         X           X         .                     o , w.j.z & o ",
"        . . . .                                                     X                                             o : / q.e $ . ",
"                                                                                    X                           . X o : , & o   ",
". .                     . .   .       .                                                                             . . o o     ",
". $ $ .               . .                     * +             # @ # * * * * * * #                                       .       ",
"6 l 2 o                                       ' ;         * 4 i q 5 i 5 5 5 g 5 ,                                               ",
"0.y.L $ .                                     O       * 4 g K K K K K K P P g 2 .                             + +               ",
") t.g $ .         .                                 = 4 h P P U I U U U U g .                                 a a               ",
": 3 & . .                                         # 5 h U U P U K K K K g .                                                     ",
"o $ . .                           .       .       : h U P P U K 5 4 5 i 3                                                       ",
"                                                  4 K P P U K 4 g K h 4 *                                                       ",
"                                                . h U U U K 4 h U U g Y = * *                                                   ",
"                                              $ 3 l P K K 4 h P U K 4 5 y ;.>.=                                                 ",
"                                        . T = k 4 6 5 5 4 h P P U P 5 g i t :.1.7.+                                             ",
"                                        + Q E i K h g g h U P P U K 5 g i t :.<.e..                                             ",
"  .                                       ^ L 4 P P P P U U P P U P 5 5 y ;.>.8.=                             .               . ",
"                                          * i h U P P P P P P U P 6 5 t r.+ + #                             .                   ",
"                                          r 4 g U P P h i K P K g k R r < * .                                                   ",
"                                        = s s g k P h k.k.3 K K s ( ! r k.k.k.+                                                 ",
"                                      + y N S H 6 l k.a.i.g.h k.k.k.k.k.a.i.a.f.+                                               ",
"                                      * 7 G +.O.C k.d.i.1 k.k.k.h.g.g.g.g.t t a.k.+                             .             . ",
"      .                               < V X.&.O.B k.g.i.k.k.k.a.i.~ { i.h.t t a.k.*                           . & X X           ",
"                                      r M X.&.X.B k.k.h.k.k.h.i.s ~ { ] d.d.i.h.k.R u +                     .   .             . ",
"              $ :                   * 6 F #.-.X.B d k.k.k.k.a.i.i ( { ] i.j.h.k.! ~ R r $                       .               ",
"              d f                 . * 7 | =.-...B a k.k.k.k.a.i.i.~ [ i.i.k.k.k.[ ~ ~ ~ E =                                     ",
"                                    * 7 G *.-...B k.a.k.k.k.k.i.i.i.i.i.d.k.v ( [ E ] [ ] ( I +                           X     ",
"                            .       * 6 G *.-...k.a.i.k.k.k.k.g.i.i.p.a.k.k.v ( ] E ] [ ( ~ W +       .           X X           ",
"            c $                     + 7 | =.-.X.k.a.i.h.k.k.k.k.j.h.h.k.k.a c { [ ~ ~ ~ E = +             X                   X ",
"            a #                       6 J $.%.X.k.a.i.i.k.k.k.k.k.k.k.k.k.x { ( ~ ~ R t *                                       ",
"                                      = 7 @.5. .k.k.a.i.p.j.k.k.k.k.k.k.Q Q Q E R R r *   .           X               X         ",
"                                      = b 3.y.o.k.k.k.k.k.k.k.k.k.k.[ [ ! t * +                   .           X         X       ",
"                  .                   * 7 D 4.2.m k.k.k.k.k.h K i ( { ! r *                             X                   X   ",
"                                        y N A Z 6 h g 1 1 1 h K 4 ( ] R +                                               X       ",
"    .                                   * i g g h P h 3 1 3 K K 5 ( Q <                                   X     X               ",
"                                          = 4 g U P P h s h P P g l R *                           X                     X       ",
"                                          + 4 h P P P P P P P P P 6 i =                                               X         ",
"                                        * ( x 2 P U P P U P P P U P 5 6 y ;.>.8.=                     X         X           X   ",
"    X                                   * Q E i K h g g l P P P U K 5 h i r :.<.7.+                   X               X     X   ",
"                                          + r k 5 5 5 5 5 h U P P P 5 h i t :.<.e.*         .                                   ",
"                              .               * 4 K P L K 5 g U U K 5 i 1 ;.,.r *                                               ",
"  X         .                                   # h U U P K 5 g U P g r * + +                                     X         X   ",
"                              X     X           X q K P P U K 5 g K h 4 +                                                       ",
"              X       X   X                       ; g I P P U K 5 4 5 5 i                                                       ",
"      X   X             X                           3 h U P P U K l K P h 3 #           X     X                                 ",
"X             X   X               X       X         O : l P P P U U U U U h 5 #                                                 ",
"                X                         X             4 g K L K K K K K K h 6 <                               a %             ",
"    X     X           X   X         X                   @ r q q i 6 5 s 5 5 s i 5                               # X         X   ",
"                        X         X         X                       + + + + + + .                             .                 ",
"  X         X                 X         X                       . o                                                     X       ",
"      X       X X         X                     X           X   & j .                                                           ",
"    X               X                 X X             X X       . .                                                             ",
"                  X               X           X                                                                                 ",
"  X       X X               X           X X X % X X       X                                                                     ",
"          X       X                 X X X % 9 0 % X           X                           .   .                                 ",
"      X               X   X X           X 8 6.u.w % X     X       X         .                                                   ",
"  @     X                 X             % > ` 9.9 %           X                                                                 ",
"                X               X       X % > 8 & %                                   .     .                           .       "
};
