/* XPM */
static char *result[] = {
/* columns rows colors chars-per-pixel */
"64 64 124 2 ",
"   c #040302",
".  c #090605",
"X  c #060A05",
"o  c #0A0906",
"O  c #070609",
"+  c #09060A",
"@  c #07090A",
"#  c #0B0A0B",
"$  c #130D0C",
"%  c #0E120C",
"&  c #13120D",
"*  c #070E12",
"=  c #0E0B13",
"-  c #100E17",
";  c #110E19",
":  c #0F1111",
">  c #121414",
",  c #1B1512",
"<  c #171D14",
"1  c #1C1C14",
"2  c #14111E",
"3  c #151818",
"4  c #1D1919",
"5  c #211716",
"6  c #211917",
"7  c #251C1C",
"8  c #2A1E1E",
"9  c #351A1A",
"0  c #3C1818",
"q  c #1B2116",
"w  c #1C2418",
"e  c #20261A",
"r  c #2B201D",
"t  c #23281B",
"y  c #2C2A1E",
"u  c #161322",
"i  c #181425",
"p  c #1D1C21",
"a  c #0B1F31",
"s  c #221F24",
"d  c #1F2121",
"f  c #13223A",
"g  c #212323",
"h  c #2A2222",
"j  c #262929",
"k  c #2A2C2C",
"l  c #332424",
"z  c #3A2727",
"x  c #352F24",
"c  c #352A2A",
"v  c #3C2828",
"b  c #3C3B2A",
"n  c #343434",
"m  c #3C3636",
"M  c #3A3A3A",
"N  c #4A0000",
"B  c #400A0A",
"V  c #461C1C",
"C  c #4C1818",
"Z  c #640606",
"A  c #6B0000",
"S  c #780404",
"D  c #7D0D0D",
"F  c #721212",
"G  c #442C2C",
"H  c #44312E",
"J  c #4D3232",
"K  c #4C3834",
"L  c #513434",
"P  c #714401",
"I  c #133B5F",
"U  c #444343",
"Y  c #494747",
"T  c #4A4A4B",
"R  c #544F4F",
"E  c #545151",
"W  c #5B5656",
"Q  c #5F5959",
"!  c #665A46",
"~  c #625E5E",
"^  c #755B51",
"/  c #7C5B55",
"(  c #627954",
")  c #656262",
"_  c #6B6565",
"`  c #736C6C",
"'  c #777171",
"]  c #787070",
"[  c #830C0C",
"{  c #970B0B",
"}  c #990C0C",
"|  c #A03F3F",
" . c #CD3E0F",
".. c #FF4606",
"X. c #FF5C15",
"o. c #C17400",
"O. c #D17D00",
"+. c #FF621A",
"@. c #FE772D",
"#. c #FE782E",
"$. c #A66060",
"%. c #BD6565",
"&. c #748C61",
"*. c #D18903",
"=. c #D19706",
"-. c #FF9900",
";. c #DFA206",
":. c #FFA402",
">. c #F0AE07",
",. c #FFAD05",
"<. c #FFB105",
"1. c #FFB907",
"2. c #FFAF15",
"3. c #FF893A",
"4. c #869E6D",
"5. c #B78B7F",
"6. c #A59A73",
"7. c #AB9E77",
"8. c #FF9745",
"9. c #0B6FAE",
"0. c #C7998B",
"q. c #FCBBAF",
"w. c #A7C68A",
"e. c #FCEFB0",
/* pixels */
"                                              .                       X     X                         X                         ",
"    . . .   .       .                                 .         X                     X     X     X           X X     X   X     ",
"  . o $ $ o .                                   .             .       X         X     X                 X               X   X   ",
"  . $ 8 z 5 . .                                                       X X   X             X       X           X                 ",
"  o , L / 7 $ $ .                                                                 X                                   X X       ",
"  . . 7 l 6 5 , .         .                                       X               X                               . o % % o X   ",
"    . $ $ 5 5 $ . . .                                             X         X   X           .   X       X         X & y b q % X ",
"      . o $ $ . .                                           .         X                                           o 1 6.e.H & X ",
"        . . . .       .                                               X                                           o , ! 7.y & . ",
"            .                                                                       X                           . X o , 5 & o   ",
". . .                   .                                                                                             . o o     ",
". $ . .                 . .                   = .           O + + O O @ # + + + + #                                     .       ",
"9 v 4 o                                       ) 3         - 8 8 8 8 8 8 8 8 l 8 r u                                             ",
"5.q.H $ .                                     O         , l G G G G G G H G l 8 2 @                           + +               ",
"^ 0.z $ .   .                                         , z J J J L L L L L v 7 u X                             s g               ",
", 6 $ .             .                             O 5 z L J J L H G G G v 4 i =                                                 ",
"o o . .                           .       .       5 z L J J L G 8 7 8 s s u +                                                   ",
"  .                                           + ; s G J J J G 8 z G v 7 ;   + + + O                                             ",
"                                          + u -.-.-.-.-.L G 8 z L J l I ; u -.-.-.-.P O .                                       ",
".                                     # ; -.:.1.8 G G G G -.l J L G 8 -.-.-.:.,.1.1.1.:.-.-.O                                   ",
"                                      i -.<.1.c 8 8 8 8 7 -.-.:.:.:.:.:.-.,.1.#.8.# O O + +                                     ",
"                                    + :.<.E Y h z G -.-.,.,.<.1.1.:.:.:.:.i ..@.8.O         1.1.                                ",
"                                    = :.1.~ m 7 G -.-.,.<.J J 1.:.-.-.<.s  .X.1.u .           1.1.            +     .           ",
"                                    -.1.i i 7 l -.-.:.J J J J J :.-.1.i *     1.1.; .           1.                              ",
"                                    -.1.i i 7 -.-.:.J z r v L H -.:.1.2 .     - 1.1.=                                   .       ",
"                        .           -.1.i h -.-.,.J v 4 4 6 G G -.,.E 2   3     >.1.=..           1.                            ",
"                                    -.1.s V -.:.9 v l 4 4 4 z G -.,._ U * T .   = 1.1.=                                         ",
"                                    -.1.0 -.-.1.-.-.-.6 4 4 v G -.,.' E ;         ; 1.;                                         ",
"      .                             ; ,.,.-.-.1.V j l 4 4 1.v ,.-.,.` ` E u - + O O = <.+         +           . , X       .     ",
"                                  . ; -.-.-.,.} C h l 7 6 4 1.,.-.,.' _ E R R U U U f =.=       # 1.          . X             . ",
"              - ,                 u -.:.,.-.,.{ C j l 9 l s <.1.:.-.1._ j m ] ~ W W U ;       O 1.=                             ",
"              j k               ; -.:.0 [ -.,.{ C h s 8 <.,.:.1.:.-.,.` ~ h M ` ` W W R n #   ; 1.                              ",
"                            . + -.:.i 9 D -.<.:.:.:.:.:.-.8 z G ,.-.-.,.' ) n ~ ` U _ ` _ W T 1.1.                  X         X ",
"                              ; -.,.i 9 D -.,.{ C g l 8 l 7 l G h Q -.-.,.) n ~ ` Y _ ` _ W ,.*.+     .         X               ",
"            M :             O u <.i i 9 [ -.-.1.C h l 7 l 7 z G h Q ` -.-.,.1.` ` W W 1.1.1.-.#           X                     ",
"            h +             + -.,.i i 9 F -.-.1.C j l 8 l g z G 8 W 1._ -.-.-.:.<.,.<.:.-.o.=                               X   ",
"                      .     - -.,.i i i B | -.<.C h l 6 6 s v G h W ` _ E R R -.-.-.,.u .                           X       X   ",
"                            = -.,.i i i N $.-.-.:.j l 4 4 4 v G s Q 1.` W i i i i 1.1.+                 X     X X               ",
"                            + -.<.i 9.i 0 S %.-.-.,.l 4 4 4 v G r ~ 1.E i i i i 1.:.u                                 X         ",
"                            + -.:.<.i i d V A Z -.-.:.4 4 4 z G 8 ~ 1.U i i i i :.u .                                       X   ",
"                              i -.,.i i i h l s z -.-.,.4 6 v G 8 1.E u i i 1.:.;                         X       X X           ",
"                              u -.-.1.i i i 7 z L J -.-.:.,.<.J <.2.K 1.,.:.O.+                 X                           X   ",
"                              = -.-.,.i i i 7 z J J J J -.-.:.,.,.,.<.,.-.u + +               .     X             X             ",
"                                ; -.-.,.1.~ m 7 H L J L L J ,.:.-.G 8 s p  .X.3.=                                               ",
"                                  2 -.-.:.,.1.s z G l l z 1.:.:.K G 8 z s u ..@.8.+                                             ",
"                                  . u -.-.-.-.1.1.1.1.1.:.-.-.J L G 8 z s i ..@.8.=                                       X     ",
"                              .     O i -.-.-.-.-.-.-.-.-.-.z J L G s 8 p  .X.i =                                 X X         X ",
"  X           .         X             O = + # O.-.-.-.L L G 8 l L L z i ; - = O                                                 ",
"                              X                 - r G J J L G 8 z G v 8 @                 .                                     ",
"X           X           X           X           @ 7 l J J J L G 7 7 8 s 7 -                                                     ",
"                X       X                   X     @ 7 v L J J L G G G G v 7 u                                                   ",
"      X X           X           X                   . 7 v J J L L L L L L v 8 ;                                             .   ",
"    X       X       X                               X # r h v G G G G G G G z 9 2                       .       g %             ",
"  X                       X           X   X             2 i h r 8 8 8 8 8 8 8 s 8                               # X             ",
"                X       X         X               X       + # + = a # + # - - + O                                       X       ",
"    X     X                   X         X   X                   . o                                                             ",
"      X       X         X           X     X       X X           & x                                     .                       ",
"    X             X         X                         X       X   . .                                                           ",
"          X             X                   X                                       .         X                                 ",
"X                     X           X     X X X % X X       X                                                                     ",
"        X           X                   X % w w % o   X                                                                         ",
"    X         X               X   X   X X q &.w.t %         X                 .             .                                   ",
"  +                           X       X o q ( 4.e %   X     X         X                           .                             ",
"          X       X X                   X % q q &   X                                 .                                         "
};
