/* XPM */
static char *result[] = {
/* columns rows colors chars-per-pixel */
"64 64 118 2 ",
"   c #000000",
".  c #060509",
"X  c #08070C",
"o  c #05080B",
"O  c #0B0A0C",
"+  c #110C0E",
"@  c #0C0A13",
"#  c #110E1A",
"$  c #131213",
"%  c #1E1616",
"&  c #15141C",
"*  c #1E1919",
"=  c #201717",
"-  c #2C1717",
";  c #251B1B",
":  c #2A1E1E",
">  c #321313",
",  c #341B1B",
"<  c #3B1818",
"1  c #031722",
"2  c #161322",
"3  c #181425",
"4  c #1C1B20",
"5  c #221F24",
"6  c #1F2020",
"7  c #232323",
"8  c #2A2222",
"9  c #292A2A",
"0  c #342424",
"q  c #3A2727",
"w  c #342929",
"e  c #3B2929",
"r  c #343535",
"t  c #3B3737",
"y  c #3B3939",
"u  c #4A0000",
"i  c #400A0A",
"p  c #530808",
"a  c #4A1111",
"s  c #461C1C",
"d  c #4C1818",
"f  c #710F0F",
"g  c #7D0D0D",
"h  c #651010",
"j  c #442D2D",
"k  c #4D3232",
"l  c #513434",
"z  c #444343",
"x  c #484646",
"c  c gray29",
"v  c #544F4F",
"b  c #545151",
"n  c #5C5656",
"m  c #5E5A5A",
"M  c #635E5E",
"N  c #666262",
"B  c #6B6666",
"V  c #6A6A6A",
"C  c #726C6C",
"Z  c #767272",
"A  c #787070",
"S  c #7E7E7E",
"D  c #830C0C",
"F  c #970000",
"G  c #970B0B",
"H  c #990C0C",
"J  c #9F1717",
"K  c #A2310B",
"L  c #D20303",
"P  c #D30F0F",
"I  c #FA0000",
"U  c #F50B0B",
"Y  c #E21010",
"T  c #E91010",
"R  c #FE1111",
"E  c #DC3B06",
"W  c #EA3E06",
"Q  c #B16A00",
"!  c #E0420D",
"~  c #FC4306",
"^  c #FE5C15",
"/  c #FF631A",
"(  c #F6742C",
")  c #FD772D",
"_  c #FF782D",
"`  c #FB5151",
"'  c #CC8703",
"]  c #D78100",
"[  c #DC8400",
"{  c #DD9504",
"}  c #E78B00",
"|  c #EE8F00",
" . c #EC9C04",
".. c #E49F0E",
"X. c #F09000",
"o. c #F79F02",
"O. c #FF9900",
"+. c #EFA505",
"@. c #EFAD07",
"#. c #F5A204",
"$. c #FFA402",
"%. c #FFAD05",
"&. c #FFB205",
"*. c #FFB907",
"=. c #FEB908",
"-. c #FFAF15",
";. c #FD893A",
":. c #ED8C40",
">. c #FF9745",
",. c #818181",
"<. c #8B8B8B",
"1. c gray59",
"2. c gray73",
"3. c gray77",
"4. c #CACACA",
"5. c gray83",
"6. c #DCDCDC",
"7. c #F6F6F6",
/* pixels */
"      O                                                                                                                       $ ",
"                                                                  5.                                                            ",
"                                                                                                                                ",
"                                                                                                        7                       ",
"                                                                                    7.                                          ",
"                                                                                                                          N     ",
"                                                                              .                               O                 ",
"                                                                                            7.                                  ",
"                                                                                                                            $   ",
"                                                                                                                                ",
"                                            . : 5 0 8 : : : 8 : : % .                                                           ",
"                                              2 : q j j j j j j j j : +                                                         ",
"                7                               O : q l l l l l l k k q = .                                                     ",
"                                  3.              1 & q j j j j l k l k e ; .         O                                         ",
"            O                       ,.              . ; : : ; : j l k k l 0 =                                                   ",
"  O                                                   . = q j q : j l k l j : @                                                 ",
"                                                    . X 2 0 l l w ; j k l l q 3                                                 ",
"  O                                           . # / ! 4 5 : j l k q : j k j j ; @                                               ",
"                                          O 2 O.O.O.O.O.q : j l k l q : : : O.O.O.O.| .                             6.          ",
"                                        O $.$.=.) ~ & & 0 O.j l k k k O.O.O.$.&.=.=.=.$.O.O..                                   ",
"                                      X O.%.=.  ;.^ K $ : O.$.$.$.$.$.$.O.%.=.j - t m .                                         ",
"    3.                              . $.&.      *   O.O.$.%.&.=.=.$.$.$.%.k k l q .         =.=.                                ",
"                                    @ $.=.        O.O.$.=.z e =.$.O.O.&.q k k =.0 .           =.=.                              ",
"                                    Q =.        O.O.#.@ 3 b M 8 $.O.=.* = e k =.=.0 =           =.                              ",
"                            9       [ =.      O.O.{ .   z B n : O.$.=.* * q w , =.=.s .                                   $     ",
"                            O       O.=.    O.O. .o o X b A n 8 O.%.* * * 0 7 p =.=.=.>           =.                            ",
"                                    O.=.    O.$.O +   y B A n : O.%.* * * 0 9 a J =.=.u .                                       ",
"                        $         . O.=.  O.O.=.X.Q } b B C M : O.%.; = = 0 8 d F ` =.i .                                       ",
"                                    @ $.&.O.O.=.M A y 9 V *.n %.O.%.: 8 : 0 7 d H I L =.-                                       ",
"                                    @ O.O.O.%.C Z k 6 M C V =.&.O.%.: 0 : 8 9 d G R T =.<       @ @.                            ",
"                                  z O.$.%.O.%.C M r N Z B C &.=.$.O.=.0 : 8 8 d G R Y g , .   . =.&                             ",
"                                @ O.$.N C O.%.C M r N Z &.&.$.=.$.O.%.0 : 8 9 d G R Y g <     @ =..                             ",
"                                | $.2.z n O.%.$.$.$.$.$.O.C M : %.O.O.%.: 0 9 d G R T D < . X =.=.      1.                      ",
"                              . } %.  .   O.%.b M A t 9 B A n 8 j q O.O.$.8 8 d G R P f , . +.$.@                               ",
"                              O +..       O.O.=.z b b b B A n 8 j e ; O.O.&.=.d H U H *.=.=.| O                 x               ",
"                              O.%.        O.O.=.@   . n V C n , j q =.* O.O.O.$.%.%.=.$.O.[   9                                 ",
"                            . O.%.          O.&.O     @ b Z n 8 j e * * * 8 7 O.O.$.$.< #                                   c   ",
"                            . O.%.          O.O.o.X   . z B m 5 j q =.* * q q , h =.=.6                             O           ",
"                            . O.%.            O.O.'     O b M : j j =.= = e k w =.$.8 X     $                                   ",
"                  O           O.$.%.            O.O.#..   z e q j k =.5 q l k l $.; #                                           ",
"      O                       @ O.%.          . . O.O.{ # 8 8 k l *.k k k k =.$.q ; .                                           ",
"                    $         . O.O.=.          ;.^ O.O.$.%.&.k *.-.k &.$.$.O.j ; t M O                                         ",
"                                O.O.%.        >._ W # 5 O.O.$.%.%.&.%.$.O.0 q j 7 x z                                           ",
"                                X O.O.$.=.    :.( E @ 5 q : %.$.O.l w : : : : : w   .                                           ",
"                                  O O.O.$.&.=.X # / ! * : =.$.$.l 0 : j j k j = .                                               ",
"                                    @ O.O.O.O.=.=.=.=.=.$.O.O.k 0 : j l l l q @         y         .                             ",
"                                      # O.O.O.O.O.O.O.O.O.O.j q : j l k k j :                                                   ",
"                                      O . . . O.O.O.O.: : : ; : j l k k l 0 %                                                   ",
"                                                  . * q k j e j l k k l e =                                                     ",
"                                                . % q l l l l l k l k q ;                                                     z ",
"                                              . : q j j j j j j j j 0 %                                                         ",
"                                            @ : : 0 : : : , 5 : : ; .                                                           ",
"                                            . .   . .   .                                                                       ",
"                                      4.                                                                                O       ",
"                                                                                                                                ",
"                                                                                                                                ",
"        Z                                                 S                                                                     ",
"                          ,.                                          O       .   V                                             ",
"                                                                                          O           *                         ",
"                            .                 r                     6.        Z                                       O         ",
"        7                   <.                                                                                                  ",
"                              O                                           n                                                     ",
"                                                          5.                                                    7               ",
"                                                                                                                                "
};
