/* XPM */
static char *result[] = {
/* columns rows colors chars-per-pixel */
"64 64 132 2 ",
"   c #000000",
".  c #090707",
"X  c #060509",
"o  c #08070D",
"O  c #0C0A0B",
"+  c #120D0D",
"@  c #180C0C",
"#  c #040B11",
"$  c #0B0A12",
"%  c #110F1B",
"&  c #0C111D",
"*  c #141212",
"=  c #1B1414",
"-  c #13111B",
";  c #1D1718",
":  c #1D191A",
">  c #210E0E",
",  c #280F0F",
"<  c #300000",
"1  c #350D0D",
"2  c #3B0909",
"3  c #221717",
"4  c #241B1B",
"5  c #2A1E1E",
"6  c #351414",
"7  c #3B1717",
"8  c #321C1C",
"9  c #0B1421",
"0  c #151221",
"q  c #181425",
"w  c #1E1C21",
"e  c #13192A",
"r  c #221F24",
"t  c #112035",
"y  c #242424",
"u  c #2B2222",
"i  c #2A2A2A",
"p  c #342424",
"a  c #3A2727",
"s  c #362B2B",
"d  c #3C2929",
"f  c #343434",
"g  c #3A3333",
"h  c #393939",
"j  c #530808",
"k  c #4C1818",
"l  c #551717",
"z  c #640606",
"x  c #6A0202",
"c  c #640D0D",
"v  c #6E0E0E",
"b  c #700E0E",
"n  c #7D0D0D",
"m  c #661010",
"M  c #442C2C",
"N  c #482E2E",
"B  c #4D3232",
"V  c #413F3F",
"C  c #513434",
"Z  c #0D2842",
"A  c #444343",
"S  c #494747",
"D  c #43424A",
"F  c #534F4F",
"G  c #555252",
"H  c #5A5555",
"J  c #5D5959",
"K  c #635E5E",
"L  c #626262",
"P  c #6A6464",
"I  c #6A6A6A",
"U  c #736C6C",
"Y  c #767474",
"T  c #7E7E7E",
"R  c #970B0B",
"E  c #990C0C",
"W  c #9F1717",
"Q  c #A10C0C",
"!  c #B21111",
"~  c #9B3C10",
"^  c #BE380B",
"/  c #9F3F3F",
"(  c #D20303",
")  c #D30F0F",
"_  c #FA0000",
"`  c #F40C0C",
"'  c #E21010",
"]  c #E91010",
"[  c #FE1111",
"{  c #C83606",
"}  c #CF3F0E",
"|  c #EC3F06",
" . c #BE4510",
".. c #F04107",
"X. c #F94307",
"o. c #F65914",
"O. c #F35E19",
"+. c #CE7B38",
"@. c #F3732C",
"#. c #FF782E",
"$. c #A74040",
"%. c #A15D5D",
"&. c #BD6565",
"*. c #FB5151",
"=. c #F18237",
"-. c #F68538",
";. c #918567",
":. c #9A8D6E",
">. c #EB8B40",
",. c #FF9745",
"<. c #085382",
"1. c #818181",
"2. c #8D8D8D",
"3. c gray59",
"4. c #B7B7B7",
"5. c #FFDB87",
"6. c #FFDD8C",
"7. c #FEDE92",
"8. c #FFE096",
"9. c #FFE29D",
"0. c #E6D3A3",
"q. c #FFE4A5",
"w. c #FFE6AB",
"e. c #FFE8AF",
"r. c #FAE5B1",
"t. c #FFEAB5",
"y. c gray77",
"u. c #CACACA",
"i. c gray83",
"p. c #DCDCDC",
"a. c #FFC0C0",
"s. c #F6F6F6",
/* pixels */
"      O                                                                                                                       * ",
"                                                                  i.                                                            ",
"                                                                                                                                ",
"                                                                                                        y                       ",
"                                                                                    s.                                          ",
"                                                                                                                          L     ",
"                                                                              .                               O                 ",
"                                                                                            s.                                  ",
"                                                                                                                            *   ",
"                                                                                                                                ",
"                                              . + + + O + O + O O O                                                             ",
"                                                + = 8 a a a d d a 8 * X                                                         ",
"                y                                 + 5 C C C C B C B M 3 O                                                       ",
"                                  y.              X + a M M d N C B B M 3 .           O                                         ",
"            O                       1.              X 4 5 5 4 5 M C B B N 3                                                     ",
"  O                                                   $ 4 d M p 5 M C B C a @                                                   ",
"                                                  X X X $ p B C p 5 N C B B 5                                                   ",
"  O                                             X O.^ : 5 r N C C p 4 M N N a = .                                               ",
"                                          $   +.#...q r p 5 N C B C d 4 5 5 5 3 : o                                 p.          ",
"                                              >.#.X.q y a 5 N B B B B d p p M a 4 A F X                                         ",
"                                              . =.o.} w 4 = N C B B B C C B C N 3 g J X                                         ",
"    y.                                          :       O = 8 B B B B B B B B B p = X                                           ",
"                                                          A s a B C d u a B C C u = X                                           ",
"                                                      . 0 G K u M d 3 : 3 d B p u 4 +                                           ",
"                            i                         - A P J 5 M d = : : p d 8 z x 6 O                                   *     ",
"                            O         2.          X e t.t.Y K 5 M d : : t.t.t.j $.&.x >                                         ",
"                                            4.  # Z t.8.5.9.J t.t.t.t.t.8.5.8.w.W a.%.< X                                       ",
"                        *                 . y f V t.9.5.P t.t.t.w.9.q.q.9.p y 8.t.*./ 2 O                                       ",
"                                        $ f G H K t.q.5.t.t.t.8.5.a 5 5.w.p y 8.t._ ( m 8 X                                     ",
"                                  . X : K G H U U t.t.w.t.t.w.5.M a 5 p 9.9.6.q.t.[ ] n 6 o                                     ",
"                                X S H P U P S U L f t.t.t.t.8.5.M a 4 p 5.t.w.t.R [ ' n > X                                     ",
"                                X S H P U P S U K f t.t.t.t.7.5.5.a 4 5.5.t.t.t.R [ ' n >                                       ",
"                                  X D f F G H U U t.7.t.t.t.t.5.5.5.5.5.9.t.y k R [ ] n >               3.                      ",
"                                      X $ h H G t.7.5.t.t.t.t.q.6.5.5.8.t.t.i k R [ ) c @                                       ",
"                              . A         X i h t.7.5.w.t.t.t.t.r.w.e.t.t.p y k E ` R 6 .                       A               ",
"                                              $ r.7.5.5.t.t.t.t.t.t.t.t.t.p y k Q ` E 1 X     i                                 ",
"                                                0.r.7.5.6.w.t.t.t.t.t.t.: p y l Q ! b ,                                     S   ",
"                                                :.r.t.t.t.t.t.t.t.t.; : : p d 8 m v 7 *                             *           ",
"                                                X ;.r.t.t.t.K u M d 4 ; : d B a p u : $     *                                   ",
"                  O                                     % A s p N C a u a B B C p = $                                           ",
"      O                                             X   - u 5 B C B B N B B B C p 3 .                                           ",
"                    *                         . -. .} w 5 5 B C B B B C B B C M 3 s f                                           ",
"                                            X ,.@.| q r p 8 N C B B C d p p M d r V h                                           ",
"                                              ,.@.{ q w p r N C B B a 5 5 5 5 5 p % X                                           ",
"                                                o ~ ^ w r u M C C p 5 M N N d 3 O                                               ",
"                                                  X X O q p B C p 5 M C C C p % X       h         .                             ",
"                                                    X - 5 d M p 5 N B B C M : O                                                 ",
"                                      O             $ 3 5 5 3 5 N C B B C 5 +                                                   ",
"                                                  O ; p N M M N C B B B p + X                                                   ",
"                                                o = a C C C C B C N N p + X                                                   A ",
"                                              & r 5 M M a a a a a p = + X                                                       ",
"                                              u 5 3 4 4 = = = + * + X                                                           ",
"                                              $ 9 <.t - o X . X                                                                 ",
"                                      u.                                                                                O       ",
"                                                                                                                                ",
"                                                                                                                                ",
"        Y                                                 T                                                                     ",
"                          1.                                          O       .   I                                             ",
"                                                                                          O           :                         ",
"                            .                 h                     p.        Y                                       O         ",
"        y                   2.                                                                                                  ",
"                              .                                           G                                                     ",
"                                                          i.                                                    y               ",
"                                                                                                                                "
};
