/* XPM */
static char *result[] = {
/* columns rows colors chars-per-pixel */
"64 64 220 2 ",
"   c #1C1818",
".  c #1D1818",
"X  c #1E1919",
"o  c #1F1919",
"O  c #1B1A1E",
"+  c #3F0707",
"@  c #201919",
"#  c #221B1B",
"$  c #231B1B",
"%  c #271A1A",
"&  c #231C1D",
"*  c #251C1C",
"=  c #251D1D",
"-  c #261C1C",
";  c #261D1D",
":  c #271D1D",
">  c #261D1E",
",  c #261F1F",
"<  c #271F1F",
"1  c #291A1A",
"2  c #281D1D",
"3  c #281E1E",
"4  c #291E1E",
"5  c #2A1E1E",
"6  c #2A1F1F",
"7  c #2B1F1F",
"8  c #2C1E1D",
"9  c #2D1F1F",
"0  c #3F1717",
"q  c #321A1A",
"w  c #331A1A",
"e  c #331B1B",
"r  c #371919",
"t  c #321E1E",
"y  c #391818",
"u  c #181425",
"i  c #121921",
"p  c #111B25",
"a  c #141C25",
"s  c #171E33",
"d  c #1F2121",
"f  c #172634",
"g  c #252424",
"h  c #2B2020",
"j  c #2B2121",
"k  c #2A2222",
"l  c #2C2020",
"z  c #2F2121",
"x  c #282525",
"c  c #302020",
"v  c #302222",
"b  c #312222",
"n  c #312323",
"m  c #332323",
"M  c #352424",
"N  c #342525",
"B  c #352525",
"V  c #362525",
"C  c #372525",
"Z  c #342626",
"A  c #392625",
"S  c #3A2625",
"D  c #382626",
"F  c #392626",
"G  c #392727",
"H  c #3A2727",
"J  c #3E2727",
"K  c #352929",
"L  c #392929",
"P  c #3A2828",
"I  c #3B2828",
"U  c #3C2828",
"Y  c #3D2929",
"T  c #3F2A2A",
"R  c #382E2E",
"E  c #333434",
"W  c #3B3A3A",
"Q  c #3E3838",
"!  c #4A0000",
"~  c #530808",
"^  c #411515",
"/  c #4A1111",
"(  c #4D1313",
")  c #461B1B",
"_  c #461C1C",
"`  c #4B1818",
"'  c #4C1818",
"]  c #4C1919",
"[  c #551717",
"{  c #6B0303",
"}  c #640B0B",
"|  c #6E0F0F",
" . c #770000",
".. c #700E0E",
"X. c #7A0F0F",
"o. c #7D0D0D",
"O. c #651010",
"+. c #711010",
"@. c #58291C",
"#. c #402B2B",
"$. c #412B2B",
"%. c #432B2B",
"&. c #442B2B",
"*. c #422C2C",
"=. c #432C2C",
"-. c #442C2C",
";. c #442D2D",
":. c #452D2D",
">. c #462D2D",
",. c #462E2E",
"<. c #472E2E",
"1. c #492F2F",
"2. c #4A2F2F",
"3. c #4A3030",
"4. c #4B3030",
"5. c #4C3030",
"6. c #4C3131",
"7. c #4D3131",
"8. c #4D3232",
"9. c #4E3232",
"0. c #4F3232",
"q. c #4E3333",
"w. c #4F3333",
"e. c #423F3F",
"r. c #503333",
"t. c #513333",
"y. c #503434",
"u. c #513434",
"i. c #523434",
"p. c #533434",
"a. c #152742",
"s. c #123A5F",
"d. c #133B5F",
"f. c #434343",
"g. c #464343",
"h. c #444444",
"j. c #464444",
"k. c #474646",
"l. c #494747",
"z. c #4B4949",
"x. c #544F4F",
"c. c #545050",
"v. c #545252",
"b. c #585353",
"n. c #595555",
"m. c #5B5454",
"M. c #5A5555",
"N. c #5B5656",
"B. c #5C5656",
"V. c #635D5D",
"C. c #605F5F",
"Z. c #635F5F",
"A. c #645D5D",
"S. c #6A6464",
"D. c #6A6565",
"F. c #6C6464",
"G. c #716969",
"H. c #746C6C",
"J. c #746D6D",
"K. c #756D6D",
"L. c #787171",
"P. c #830C0C",
"I. c #970000",
"U. c #9F0101",
"Y. c #960B0B",
"T. c #970B0B",
"R. c #9A0C0C",
"E. c #9A0D0D",
"W. c #980E0E",
"Q. c #9C0E0E",
"!. c #A00A0A",
"~. c #A10C0C",
"^. c #B21111",
"/. c #803319",
"(. c #D10909",
"). c #D31010",
"_. c #FA0505",
"`. c #F40B0B",
"'. c #F30C0C",
"]. c #E21010",
"[. c #E91010",
"{. c #FD1010",
"}. c #FF1111",
"|. c #FF4705",
" X c #FF4806",
".X c #F2480D",
"XX c #FF4B0A",
"oX c #FF5916",
"OX c #FF5E1B",
"+X c #FD772D",
"@X c #FD782E",
"#X c #A04040",
"$X c #A74040",
"%X c #A65A5A",
"&X c #BC6666",
"*X c #FD5353",
"=X c #FF893A",
"-X c #FF9745",
";X c #0B6FAE",
":X c #0099DB",
">X c #2CE8F5",
",X c #FFBDBD",
"<X c #FFDB87",
"1X c #FFDC8A",
"2X c #FFDC8B",
"3X c #FFDD8D",
"4X c #FFDE90",
"5X c #FFDF93",
"6X c #FFE095",
"7X c #FFE096",
"8X c #FFE198",
"9X c #FFE29E",
"0X c #FFE39E",
"qX c #FFE4A4",
"wX c #FFE5A7",
"eX c #FFE6AA",
"rX c #FFE7AC",
"tX c #FFE8AE",
"yX c #FFE8AF",
"uX c #FFEAB5",
/* pixels */
"u u u u u u u u u u u u u u u u u u u u u u u u u u u u u u u u u u u f f u u u u u u u u u u u u u u u u u u u u u u u u u u u ",
"u u u u u u u u u u u u u u u u u u u u u u u u u u u u u u u u u u u u u u u u u u u u u d.u u u u u u u u u u u u u u u u u u ",
"u u u u u u u u u u u u u u u u u u u d.u u u u u u u u u u :Xu u u u u u u u u u u u u u u u u u u u u u u u u u u u u u u u u ",
"u u u u s.u u u u u u u u u u u u u u u u u u u u u u u u ;X>X;Xu u u u u u u u u u u u u u u u u u u u u u u u u u :Xu u u u u ",
"u u u u u u u u u u u u u u u u u u u u u u u u u u u u u u :Xu u u u u u u ;Xu u u u u u u u u u u u ;Xu u u u u u u u u u u u ",
"u u u u u u u u u u u u u u u u u u u u u u u u u u u u u u u u u u u u u u u u u u u u u u u u u u u u u u u u u u u u u u u u ",
"u u u u u u u u u u u u u u u u u u u u u u u a.u u u u u u u u u u u u u u u u u u u u u u u u u u u u u u u u u u u u :Xu u u ",
"u u u u u u u u u u u u u u u u u u u u u u u u u u u u u u u u u u u u u u u u u u u u u u u u u u u u u u u u u u u u u u u u ",
"u u u u u u s u u u u u u u u u u u u u u u u u u u s u u u u u u u u u u u u u u u u u u u u u u u u u u u d.u u u u u u u u u ",
"u u u u u u u u u u u u u u d.u u u u u u u u u u u u u u u u u u u u u u u u u u u u u u u u u u u u u u u u u u u u u u u u u ",
"u u u u u u u u u u u u u u u u u u u u u u u u u u u u u u u u u u u u u u u u u u u u u u u u u u u u u u u u u u u u u u u u ",
"u u u u u u u u u u u u u u u u u u u u u u u u u u u u u u u u u u u u u u u u u u :Xu u u u u u u u u u u u u u u u u u u u u ",
"u u u u u u u u u u u u d.u u u u ;Xu u u u u u u u u u u u u u s.u u u u u u u u u u u u u u u u u u u s s s u u u u u u u u u ",
"u u u u u u u u u u u u u u u u u u u u u u u u u ;Xu u u u u u u u u u u u u u u u u u u u u u u u u s a.a.a.s u u u u u u u u ",
"u u u u u u u u u u u u u u u u u u u u u u u u u u u u u u s u u u u u u u u u u u u u u u u u u u u s a.s.s.a.s u u u u u u u ",
"u u u u u u u u u u u u u u u u u u u u u u u u u u u u u u u u u u u u u u u u u u u u u u u u u u u s a.s.;Xs.a.s u u u u u u ",
"u u u u u u u u u u u u u u u u u u u u u u u u u u u u u u u u u u u u u u u u u u u u u u u u u u u u s a.s.s.a.s u u u u u u ",
"u u u u u u u u u u u u u u u u u u u u u u u u u u u u u u u u u u u u u u u u u u u u u u u u u u u u u s a.a.a.s u u u u u u ",
"u u u u u u u u u u u u u u u u u u u u u u u u u u u :Xu u u u u u u d.u u u u u u u u u ;Xu u u u u u u u s s s u u u u u u u ",
"u u u u u u u u u a.u u u u u u u u u u u u u u u u u u q y r r y q u u u u u u u u u u u u u u u u u u u u u u u u u u u u u u ",
"u u u u u u u u u u u u u u u u u u u u u ;Xu u d 0 ! + +.P.o.o.P...^ ( 0 d u u u u u u u u u u u u u u u u u u u u u u u u u u ",
"u u u u u u u s.u u u u u u u u u u u v.C.u u k _  .%X#X(.[.].].[.).E.Q.X.) k u u C.v.u u u u u u u u u u u u u u u u u u u ;Xu ",
"u u u u u u u u u u u u u u u u u u u g.Q , = c { &X,X*X_.}.}.}.}.{.`.'.^.| c = , Q g.u u u u u u u u d.u u u u u u u u u u u u ",
"u u u u u u u u u u u u u u u u u u % < 1 D Z v } $XU.I.W.Y.T.T.Y.T.R.~.!.O.v Z D 1 < % u u u u u u u u u u u u u u u u u u u u ",
"u u u u u u u u u u u u u u u u u : b J <.r.u.K e ~ / ] ' ' ' ' ' ' ' ` [ w K u.r.<.J b : u u u u u u u u u u u u u u u u u u u ",
"u u u u u u u u u u u u u u * 7 F #.l #.t.6.w.5.L g x uXuXx x x x x x x uXuXuXw.6.t.#.l #.F 7 * u u u u u u u u u u u u u u u u ",
"u u u u u u u u u u u u u : V -.i.3.3 N 0.8.9.Y M b uX5X<X9Xv uXuXuXuXuX5X<X4XtX8.0.N 3 3.i.-.V : u u u u u u u u u u u u d.u u ",
"u u u u u u u u u u u u - I r.w.y.1.3 B r.7.F o   uX0X<X6 uXuXuXeX0XqXqX0X  o 7XuXr.B 3 1.y.w.r.I - u u u u u u u u u u u u u u ",
"u u u u u u u u u u u 4 I r.8.6.u.-.: I r.2.9 o X uXqX<XuXuXuX8X<Xn $ <XyXX o 6XuXr.I : -.u.6.8.r.I 4 u u u u u u u u u u u u u ",
"u u u u u u u u u u u v 7.0.6.u.=.2 G 0.8.8.I @   uXuXeXuXuXrX<X; : # . 8X9X2XwXuX8.0.G 2 =.u.6.0.7.v u :Xu u u u u d.u u u u u ",
"u u s u u u u u u u 4 $.9.7.u.;.: C r.8.6.8.r.#.F U uXuXuXuX5X<XG G H U <XyXrXuX8.6.8.r.C : ;.u.7.9.$.4 u u u u u u u u u u u u ",
"u u u u u u u u u u 5 <.w.r.:.3 C r.9.6.6.q.4.%.&.-.uXuXuXuX5X<X<X-.-.<X<XuXuXuXq.6.6.9.r.C 3 :.r.w.<.5 u u u u u u u u u u u u ",
"u u u u u u u u u u 5 :.u.:.4 V i.u.0.w.t.6.B j h uX5XuXuXuXuX<X<X<X<X<X0XuXj B 6.t.w.0.u.i.V 4 :.u.:.5 u u u u u u u u u u u u ",
"u u u u u u u u u u 5 :.i.T * *.9.>.<.<.3.t R A.uX5X<XuXuXuXuXqX3X<X1X5XuXuXA.R t 3.<.<.>.9.*.* T i.:.5 u u u u u u u u u u u u ",
"u u u u u u u u u u 5 :.i.$.4 P m 4 7 7 5 7 e.v.uX5X<XeXuXuXuXuXyXeXrXuXuXS.v.e.7 5 7 7 4 m P 4 $.i.:.5 u u u u u u ;Xu u u u u ",
"u u u u u u u u u u 5 :.p.:.6 8 u i A S O u u u uX5X<X<XuXuXuXuXuXuXuXuXuXh.u u u O S A i u 8 6 :.p.:.5 u u u u u u u u u u u u ",
"u u u u d.u u u u u 5 <.u.H > u u /.a p @.u u u uXuX5X<X3XyXuXuXuXuXuXuXu u u u u @.p a /.s s > H u.<.5 u u d.u u u u u u u u u ",
"u u u u u u u u u u 6 ,.I & u u u XXu u .Xu u u uXuXuXuXuXuXuXuXuXuXc.u u u u u u .Xu u XXa.a.a.& I ,.6 ;Xu u u u u u u u u u u ",
"u u u u u u u u u u z V : u u u u OX X|.oXu u u u uXuXuXuXuXE E W L.x.u u u u u u oX|. XOXa.s.s.a.: V z ;Xu u u u u u u u u u u ",
"u u u u u u u u u u 7 5 u u u u u u @X+X=Xu u u u u u j.V.J.Z.Z.J.V.j.u u u u u u =X+X@Xs a.s.;Xs.a.5 7 >X:Xu u u u u u u u u u ",
"u u u u u u u u u u 3 u u u u u u u -X-Xu u u u u u u u b.H.G.G.H.b.u u u u u u u u -X-Xu s a.s.s.a.s 3 :Xu u u u u u u u u u u ",
"u u u u u s u u u u u u u u u u u u u u u u u u u u u f.B.N.l.l.N.B.f.u u u u u u u u u u u s a.a.a.s u ;Xu u u u u u u u u u u ",
"u u u u u u u u u u u u u u u u u u u u u u u u u u u u h.n.D.D.n.h.u u u u u u u u u u u u u s s s u u u u u u u u u u u u u u ",
"u u u u u u u u u u u u u u u u u u u u u u u d.u u u u u M.K.K.M.u u u u u u :Xu u u u u u u u u u u u u u u u u :Xu u u u u u ",
"u u u u u u u u u u :Xu u u u u u u u u u u u u u u u u u k.F.F.k.u u u u u u u u u u u u u u u u u u u u u u u u u u u u d.u u ",
"u u u u u u u u u ;X>X;Xu u u u u u u u u u u u u u u u u u m.m.u u u u u u u u u u u u u u u u u u u u u u u u u u u u u u u u ",
"u u u u u u u u u u :Xu u u u u u u u u u u u u u u u u u u z.z.u s.u u u u u u u u u u u u u u d.u u u u u u u u u u u u u u u ",
"u u u u u u u u u u u u u u u u u u u u s u u u u u u u u u u u u u u u u u u u u u u u u u u u u u u u u u u u u u u u u u u u ",
"u u u u u u u u u u u u u u u u u u u u u s u u u u u u u s u u u u u u u u u u u u u u u u u u u u u u u u u u u u u u u u u u ",
"u u u u u u u u u u u u u u u u u u u u u u s u u u u u s u u u u u u u u u u u u u u u u u u u u u u u u u u u u u u u u u u u ",
"u u u u u u u u u u u u u u u u u u u u u u u a.s s s a.u u u u u u u u u u s u u u u u u u u u u u u u u u u u u u u u u u u u ",
"u u u u u u u u u u u u u u u u u u u u u u u s a.a.a.s u u u u u u u u u u u u u u u u s.u u u u u u u u u u u u u u u u u u u ",
"u u u u u u u u u u u u u u u u u u u u u u u s a.;Xa.s u u u u u u u u u u u u u u u u u u u u u u u u u u u u u u u u u u u u ",
"u u u u u u u u u u u u u u s s s u u u u u u s a.a.a.s u u u u u u u u u u u u u u u u u u u u u u u u u d.u u u u u u u u u u ",
"u u u u u u u u d.u u u u s a.a.a.s u u u u u s s s s a.u u u u u s.u u u u u u u u u u u u u u u u u u u u u u u u u u u u u u ",
"u u u u u u u u u u u u s s.a.s.a.s u u u u s u u u u u s u u u u u u u u u u u u u u u u u u u u u u u u u u u u u u u u u u u ",
"u u u u u u u u u u u s a.a.a.a.a.s u u u u u u u u u u u s u u u u u u u u u u u u u u u u u u u d.u u u u u u u u u u u u u u ",
"u u u u u u u u u u u s a.s.a.s.s u u u u u u u u u u u u u u u u u u u u u u u u u u u u u u u u u u u u u u s.u u u u u u u u ",
"u u u u u u u u u u u s s.a.a.s u u u u u u u u u u u u u u u u u u u u u u u u u u u u u u u u u u u u u u u u u u u u u u u u ",
"u u u u u u u u u u u u s s s u u u u u u u u u u u u u u u u u u u u u u u u u u u u u u u u u u u u u u u u u u u u u u u u u ",
"u u u u u u u u u u u u u u u u u u u u u u u u u u u u u u u u u u u u u u u u u u u u u u u u u u u u u u u u u u u u u u u u ",
"u u u u u u u u u u u u u u u u u u u u u u u u u u u u u u u u u u u u u u u u u u u u u u u u u u u u u u u u u u u u u u u u ",
"u u u u u u u u u u u u u u u u u u u u u u u u u u u u u u u u u u u u u u u u u u u s u u u u u u u u u u u u u u u u u u u u ",
"u u u u u u u u u u u u u u u u u u u u u u u u u u u u u u u u u u u u u u u u u u u u u u u u u u u u u u u u u u u u u u u u "
};
