/* XPM */
static char *result[] = {
/* columns rows colors chars-per-pixel */
"64 64 152 2 ",
"   c #010101",
".  c #080607",
"X  c #090807",
"o  c #060609",
"O  c #08070B",
"+  c #06080C",
"@  c #0A0A0C",
"#  c #110E0E",
"$  c #060A11",
"%  c #0D0C13",
"&  c #100E15",
"*  c #120F1B",
"=  c #0E1319",
"-  c #121216",
";  c #181413",
":  c #15141C",
">  c #18161F",
",  c #1C191B",
"<  c #3F0707",
"1  c #251C1C",
"2  c #2A1E1E",
"3  c #3F1717",
"4  c #341B1B",
"5  c #391818",
"6  c #0D1421",
"7  c #0E1829",
"8  c #041D2C",
"9  c #151322",
"0  c #181425",
"q  c #121B24",
"w  c #1D1D22",
"e  c #1F2121",
"r  c #022939",
"t  c #0C3A3E",
"y  c #242524",
"u  c #2A2323",
"i  c #25242B",
"p  c #2E2D2E",
"a  c #342424",
"s  c #3A2626",
"d  c #352929",
"f  c #3B2929",
"g  c #282730",
"h  c #2C2C34",
"j  c #3D3132",
"k  c #32323B",
"l  c #3D3939",
"z  c #333434",
"x  c #4A0000",
"c  c #530808",
"v  c #4C1212",
"b  c #461C1C",
"n  c #4C1818",
"m  c #411515",
"M  c #551717",
"N  c #6E0F0F",
"B  c #680707",
"V  c #770000",
"C  c #700E0E",
"Z  c #7C0E0E",
"A  c #651010",
"S  c #711010",
"D  c #58291C",
"F  c #442D2D",
"G  c #492F2F",
"H  c #413535",
"J  c #4D3232",
"K  c #423F3F",
"L  c #513434",
"P  c #454444",
"I  c #494747",
"U  c #42414E",
"Y  c #4C4A4A",
"T  c #544F4F",
"R  c #474654",
"E  c #494856",
"W  c #4D4C5B",
"Q  c #504E5D",
"!  c #545252",
"~  c #5A5555",
"^  c #5A5959",
"/  c #635E5E",
"(  c #585767",
")  c #5D5C6D",
"_  c #605F72",
"`  c #6B6464",
"'  c #746C6C",
"]  c #656478",
"[  c #69677C",
"{  c #6B697E",
"}  c #787171",
"|  c #830C0C",
" . c #970000",
".. c #9F0101",
"X. c #970B0B",
"o. c #9A0D0D",
"O. c #A10B0B",
"+. c #B21111",
"@. c #803319",
"#. c #D10909",
"$. c #D31010",
"%. c #F60909",
"&. c #E21010",
"*. c #E91010",
"=. c #FF1111",
"-. c #FF4705",
";. c #FF4806",
":. c #F2480D",
">. c #FF4B0A",
",. c #FF5916",
"<. c #FF5E1B",
"1. c #FD772D",
"2. c #FD782E",
"3. c #A44040",
"4. c #A65A5A",
"5. c #8B7171",
"6. c #BC6666",
"7. c #FD5353",
"8. c #E0853D",
"9. c #FF893A",
"0. c #F08E41",
"q. c #FF9745",
"w. c #727086",
"e. c #A48484",
"r. c #8786A1",
"t. c #8886A1",
"y. c #8D8AA6",
"u. c #9895B4",
"i. c #9C9AB9",
"p. c #FFBDBD",
"a. c #FFDB87",
"s. c #FFDD8C",
"d. c #FFDF93",
"f. c #FFE096",
"g. c #FFE29D",
"h. c #F0DCAA",
"j. c #FFE4A5",
"k. c #FFE6AB",
"l. c #FFE8AF",
"z. c #FFEAB5",
"x. c #A5A3C3",
"c. c #B0AED1",
"v. c #B4B1D4",
"b. c #BEBCE1",
"n. c #C7C5EC",
"m. c #DBD9FF",
"M. c #E6E4FF",
"N. c #E9E7FF",
"B. c #ECE9FF",
"V. c #F0EDFF",
"C. c #F7F3FF",
"Z. c #FFFFFF",
/* pixels */
"                                                                                                                        .       ",
"                                                                                                                                ",
"                                            .               .           . .   .                                                 ",
"                                                                          y       X             o   .             .             ",
"    . . @ X .                         X                                 . ,                       h @ .                         ",
"  @ - e i w - @     .   . .                       @                         .                     %                             ",
"@ : U t.x.y.R : @       . H .                                                                                                   ",
"% g i.B.Z.C.x.k & .       ; .                     .                                                                             ",
"w _ m.Z.Z.Z.N.{ > .     .                                                                                       @               ",
", w.C.Z.Z.Z.Z.r.e X           .   X                                                               .                 .           ",
"> { B.Z.Z.Z.Z.r.w @           @                                                                                     @ ,         ",
"- E n.Z.Z.Z.N.w.q @       .                                                   .                 o X .               . .         ",
"@ i y.M.Z.Z.v.U - .                   .                                   .                   X @ : X X                         ",
"X : R u.b.c.w.w @                                                 o   . . h @               . % W Q %                           ",
"  + : U ] ) g % o                                                           o               o , ( W @ X                         ",
"  . + # - : @ @                                                               .             o - k > +                           ",
"      . X .                           .                                                       o + @ .                           ",
"  .                       .             y X                                               @               .                     ",
"                                                        o O o O @ O                     .                                       ",
"                                              o o O % : 4 5 4 5 5 4 : O O -                                                     ",
"                                              0 y 3 x < C | Z Z | N m v 3 e %     % O                                         . ",
"                            .       @ ! ^ - 0 u b V 4.3.#.*.&.&.*.$.o.o.Z b u 9 % / !       .                                   ",
"                                    O P l 1 1 u B 6.p.7.%.=.=.=.=.=.%.%.+.N u 1 2 H P 9                                       X ",
"    @                           O * 1 2 1 s a a B 3... .o.X.X.X.X.o.o.o.O.A a a s 1 1 1 9 o                         X           ",
"                              * 0 2 a f G J L a 4 c v n n n n n n n n n M 4 d L L G f a 1 0 *   @                               ",
"  .                       & 2 u s f 2 F L J L J f y y z.z.y u y u i y u z.z.z.J J L F 2 F a u 1 * o                             ",
"                        * 1 a F L J 1 a J J J f a a z.d.a.j.a z.z.z.z.z.d.a.f.l.J J a 2 G L F a 1 0 O               %           ",
"                      % 1 f L J L G 2 a L J s ; ; z.j.a.2 z.z.z.k.g.j.j.g., , f.z.L a 2 G J L L f 1 0                 .         ",
"                      1 f L J J L F 1 f L G u 1 1 z.j.a.z.z.z.f.a.2 1 a.l., 1 d.z.L f 1 F L J J L s 2 O                         ",
"  @                 O u G L J L F 1 s L J J s 1 ; z.z.k.z.z.k.a.1 1 1 , f.g.s.j.z.J J s 1 F J J L J a 9                         ",
"                    1 F L G L F 1 s J J J J J f s s z.z.z.z.d.a.s s s s a.z.k.z.J J J L s 1 F L J J F 1                         ",
"                  o 2 F L L F 2 s J J J J J J F F F z.z.z.z.d.a.a.F F a.a.z.z.z.J G J L L a 2 F L L F 2 o                       ",
"                  % 2 F L F 2 a L L L L J J a 2 2 z.d.z.z.z.z.a.a.a.a.a.g.z.u a J J J J J L a 2 F L G 2 O                   . . ",
"                  % 2 F L F 1 F J G F F J u j / z.d.a.z.z.z.z.j.s.a.a.f.z.z./ f 4 J J G G J F 1 f L F 2 o                   o Y ",
"        .         % 2 G L F 1 f a 1 2 2 1 2 K ! z.d.a.k.z.z.z.z.l.k.l.z.z.` ! P 2 2 2 2 2 a s 2 F L G 2 o   .               @ . ",
"                  & 1 F L F 2 1   * s s 1 % o % z.d.a.a.z.z.z.z.z.z.z.z.z.P 0 - * , s s q 0 2 2 F L F 2 o                       ",
"                  % 2 F L s ,     @.q q D     O z.z.d.a.s.k.z.z.z.z.z.z.9 @       D q q @.7 $ 1 s L G 1 o                       ",
"                  * 2 F s 1 o   O >.0 0 :.      z.z.z.z.z.z.z.z.z.z.T 0         o :.0 0 >.6   o 1 f G u 8         @             ",
"                  * a a 1 @     o <.;.;.,.      @ h.z.z.z.z.z z l } T %         o ,.-.>.<.$     7 1 a u 8                       ",
"                  * 2 2 9         * 2.2.9.          & P / ' / / ' / P %         o 9.1.2.6         $ 2 2 t         .             ",
"      .           % 2 9 O         o q.q.*           o 0 ! ' ' ' ' ! 0 o           % 8.0.            + 2 r                       ",
"      p             %             o o                 P ^ ^ I Y ^ ^ P o                           @   0 +                       ",
"                                                      : P ~ ` ` ~ P 9                                                           ",
"      .       .                                       O 0 ~ ' ' ~ 0 O                 @                                         ",
"                                                  o     * P ` ` P *                                   o                         ",
"  @                                               @       0 ~ ~ *                                                               ",
"                                                          * I Y                                                                 ",
"              @                                           o & %                                                                 ",
"                .                                                                                                       .       ",
"  .                       o               .                                               .               .                     ",
".                                 . y                                                                           -       .       ",
",                                                                                                                 .   @ @       ",
"                                                                                                                                ",
"  . k o                     .                                                               .               .   .       .       ",
"    .                                                                                                   . X @ @ .               ",
"                                              - o   o     .         @                                   . @ j 1 @ . .           ",
"                                            .                                                           X 1 e.5.# .     .       ",
"  o                       @                     .                 @                       @             . # H H @ .             ",
"                                                    @                                                     # @ @ .               ",
"                                                      .                                                       .                 ",
"                                                                                                                                ",
"                                                                  X                                                             ",
"                                                                                        .                                       ",
"                . @ X o                                                                                                         "
};
