/* XPM */
static char *result[] = {
/* columns rows colors chars-per-pixel */
"64 64 131 2 ",
"   c #010101",
".  c #080707",
"X  c #090807",
"o  c #070609",
"O  c #08070B",
"+  c #07080B",
"@  c #0A0A0B",
"#  c #110E0E",
"$  c #0D0B13",
"%  c #050F18",
"&  c #0F0D18",
"*  c #100F12",
"=  c #110F1B",
"-  c #131215",
";  c #1B1414",
":  c #15131C",
">  c #18171E",
",  c #1C191A",
"<  c #3F0707",
"1  c #201717",
"2  c #241B1C",
"3  c #2A1E1E",
"4  c #3F1717",
"5  c #341A1A",
"6  c #391818",
"7  c #161221",
"8  c #181425",
"9  c #131B24",
"0  c #1D1D22",
"q  c #14253E",
"w  c #242424",
"e  c #2B2222",
"r  c #25242B",
"t  c #2A2B2B",
"y  c #332323",
"u  c #3A2626",
"i  c #352929",
"p  c #3B2929",
"a  c #282730",
"s  c #2C2C34",
"d  c #333434",
"f  c #3B3434",
"g  c #32323B",
"h  c #3C3939",
"j  c #4A0000",
"k  c #4A1111",
"l  c #461C1C",
"z  c #4C1818",
"x  c #551717",
"c  c #6B0303",
"v  c #6E0F0F",
"b  c #770000",
"n  c #651010",
"m  c #711010",
"M  c #58291C",
"N  c #442D2D",
"B  c #492F2F",
"V  c #413535",
"C  c #4D3232",
"Z  c #423F3F",
"A  c #513434",
"S  c #454444",
"D  c #494747",
"F  c #42414E",
"G  c #4C4A4A",
"H  c #544F4F",
"J  c #474654",
"K  c #494856",
"L  c #4D4C5B",
"P  c #504E5D",
"I  c #545151",
"U  c #5C5656",
"Y  c #5E5959",
"T  c #635E5E",
"R  c #585767",
"E  c #5D5C6D",
"W  c #605F72",
"Q  c #676262",
"!  c #6B6666",
"~  c #6F6868",
"^  c #736C6C",
"/  c #656478",
"(  c #69677C",
")  c #6B697E",
"_  c #777070",
"`  c #787171",
"'  c #970000",
"]  c #970B0B",
"[  c #980E0E",
"{  c #A10B0B",
"}  c #B21111",
"|  c #803319",
" . c #FF1111",
".. c #BF7300",
"X. c #FF4705",
"o. c #FF4806",
"O. c #F2480D",
"+. c #FF4B0A",
"@. c #FF5916",
"#. c #FF5E1B",
"$. c #FD772D",
"%. c #FD782E",
"&. c #8B7171",
"*. c #EF9802",
"=. c #FF9900",
"-. c #FFA402",
";. c #FFAD05",
":. c #FFB105",
">. c #FFB907",
",. c #FFAF15",
"<. c #FF893A",
"1. c #FF9745",
"2. c #727086",
"3. c #A48484",
"4. c #8786A1",
"5. c #8886A1",
"6. c #8D8AA6",
"7. c #9895B4",
"8. c #9C9AB9",
"9. c #A5A3C3",
"0. c #B0AED1",
"q. c #B4B1D4",
"w. c #BEBCE1",
"e. c #C7C5EC",
"r. c #DBD9FF",
"t. c #E6E4FF",
"y. c #E9E7FF",
"u. c #ECE9FF",
"i. c #F0EDFF",
"p. c #F7F3FF",
"a. c #FFFFFF",
/* pixels */
"                                                                                        .                               .       ",
"                                  .                                                                                             ",
"                                            .               .           .                                                       ",
"                                                                          t .     .                 .             .             ",
"    . + @ + +                         +                                   ,                     + a @                           ",
"  @ - 0 r , - @           . .                     @                       .                       * .                           ",
"@ : F 5.9.6.J > @     . . V .                                                                                                   ",
"$ t 8.u.a.p.9.g - +       ;                       .                                                                             ",
"0 W r.a.a.a.y.( > .     .                                                                                       @       .       ",
"> 2.p.a.a.a.a.4.0 +         .     +                                                               .                             ",
", ( u.a.a.a.a.4.0 @           @                                                                                     @ 2         ",
"- K e.a.a.a.t.2.> X       .                                                   .                 . + .                 X         ",
"@ r 5.t.a.a.q.J - .                   .                                   .                 . + @ : @ .                         ",
"+ : J 7.w.0.2.0 @                                                 O   .   s + .               $ L L @ .                         ",
"  + > F / E a * o                                                           O               O 0 R L @ .                         ",
"  . X - - - $ @                                                         .                   . * g > @                           ",
"      . + .                           .                                         .             O + + .                           ",
"  .                       .             w @     O O $ $                                   +               .                     ",
"                                          @ 8 =.=.=.=.=.= $ O O O O o % O $ ..=.=.=.=.O .                                       ",
"                                        $ -.-.>.        ; =.6 6 6 5 7 =.=.-.-.:.>.:.>.-.=.=.$                                   ",
"                                      O =.:.>.    4 j < m =.=.-.-.-.-.-.=.;.:.$ + + o + $ $                                   . ",
"                            .       O *.:.8 8 O l b =.=.;.:.:.>.>.-.-.-.-.l e &   Y I +     >.>.                                ",
"                                    : -.>.3 2 e c =.=.-.:. . .>.;.=.=.:.} v y >.; h S =       >.>.                            + ",
"    @                             $ =.>.2 u y y =.=.-.' [ ] ] ] -.=.>.{ { n e >.>.2 3 2 7 O     >.                  .           ",
"                              O O 1 =.>.B C A =.=.-.k z z z z z =.=.>.z x 5 i A >.>.p y 2 =     @                       .       ",
"  .                       @ ; e u p =.>.A C =.=.;.w e r e e w t =.;.e w w i C C >.>.>.e N p 2 ; O >.                            ",
"                        O ; y N A C =.>.C C =.-.y y y y y 3 e y =.:.y y y y p C C >.>.3 B A N y 1 O                 $           ",
"                      O 2 p A C C B =.>.A =.=.>.=.=.=.2 3 3 3 2 =.;.2 , , , 2 u C C >.3 B C A A p 2                             ",
"                      1 u A C C A N 2 ;.;.=.=.>., , , 2 y >.y ;.=.;.2 ; , 1 1 e C C p >.N A C C C u ;                           ",
"  @                 O y C C C A N 3 u =.=.=.;.1 , , ; 2 3 2 >.:.=.;.2 , , ; 1 p C C C >.3 N C C A >.e                           ",
"                    - N C C A N 2 u =.;.;.=.;.p u u p u u u :.>.-.=.>.p u u N C C C C A y 3 N A >.C N 1                         ",
"                    1 N A A N 3 y =.-.C C =.;.N N N N N :.;.-.>.-.=.;.N N N N C C C C C A y 3 N >.C B 3 O                       ",
"                    2 N A N 3 i =.-.A C A =.;.-.-.-.-.-.-.3 3 e ;.-.=.;.3 e e y C A C C A A y >.>.A B 3 O                   . . ",
"                    e N A p 2 N =.:.N B C =.;.T Y Y Y Y U Y Y Y U U =.=.;.U T p 5 B C N N C :.-.p A N 3 O                     G ",
"                    3 N A N 2 u :.3 3 3 3 =.=.>.! ^ ^ ^ _ ^ ~ ^ ^ _ _ =.=.;.>.Z e 3 3 >.>.>.=.3 N A N 3 O   .             . @ @ ",
"                  . 3 B A N 3 =.;.9 u u > =.=.>.S I ~ ! ! ^ ~ ~ ^ ! >.~ =.=.=.-.;.;.:.;.=.=.3 e N A N 3 O                       ",
"                    3 B C u 3 =.;.m w 9 M   =.;.8 8 U I r T _ _ Y t I U 8 8 8 =.=.=.;.9 |     1 p A B 3 O                       ",
"                    3 N u ; 7 =.;.+.0 9 O.  =.=.;.8 8 H h w Q Q w h >.8 8 8 8 8 8 >.>.8 +.      2 p N 3           @             ",
"                  $ y y 2 O $ =.:.#.+.+.@.    =.=.;.8 H ` h d d h ` >.8 8 8 8 8 >.-.o.+.#.      q e y y                         ",
"                  $ 3 3 7   O =.-.:.%.%.<.      =.=.;.S T ^ T T ^ T >.8 8 8 8 8 -.<.$.%.            3 2           .             ",
"        .         O 1 = .     = =.;.1.1.          =.=.;.I ^ ^ ~ ^ >.8 8 7 8 >.-.& = 1.1.O             ,                         ",
"    . t                       $ =.=.>.              =.=.;.;.:.D >.,.S >.;.-.=.$     $ o           @   >                         ",
"      .                         =.=.;.                  =.=.=.:.;.;.;.-.=.7 .                                                   ",
"                                & =.=.;.>.                U :.-.=.& o                 @           .   .                         ",
"                                  8 =.=.-.:.>.    O       >.-.=.S o                                   .                         ",
"  @                               $ 8 =.=.=.=.>.>.>.>.>.-.=.=.U $                                                               ",
"                                    $ 7 =.=.=.=.=.=.=.=.=.=.G G                                                                 ",
"              @                         & = 7 =.=.=.=.7 8 8 8 =                                                                 ",
"                .                           O $ $ $ O   O O                                                                     ",
"  .                       O               .                                               .               .                     ",
"                                  . w                                                                           -               ",
"> .                                                                               .                               .   @ *     . ",
"    .                                                                                                                           ",
"  . s                       .                                                               .               .                   ",
"  .   .                                                                                                 . X @ X @         .     ",
"                                              - O   .     .         @                                   . @ f 2 @ . .           ",
"                                            .                                                           @ 2 3.&.# .             ",
"  O                       @                                       @                       @             . # V V #               ",
"                                                  . *                   .                                 @ @ @ .               ",
"                                                                                                              .       .         ",
"                                                                                                                                ",
"                                                                  +                                                             ",
"                                                                                        .                                       ",
"                . @ O O                                                                                                         "
};
