/* XPM */
static char *result[] = {
/* columns rows colors chars-per-pixel */
"64 64 110 2 ",
"   c #000000",
".  c #060509",
"X  c #09070D",
"o  c #0B0B0C",
"O  c #130D0C",
"+  c #070D16",
"@  c #0C0A12",
"#  c #100F14",
"$  c #120F1B",
"%  c #0E141A",
"&  c #141212",
"*  c #1B1414",
"=  c #1D1919",
"-  c #3F0707",
";  c #201717",
":  c #251C1C",
">  c #2A1E1E",
",  c #3B1515",
"<  c #341A1A",
"1  c #391818",
"2  c #181425",
"3  c #121B24",
"4  c #232323",
"5  c #2A2222",
"6  c #282929",
"7  c #332323",
"8  c #3A2726",
"9  c #352929",
"0  c #3C2929",
"q  c #343535",
"w  c #393737",
"e  c #3B3939",
"r  c #4A0000",
"t  c #4A1111",
"y  c #461C1C",
"u  c #4C1818",
"i  c #551717",
"p  c #6B0303",
"a  c #6E0F0F",
"s  c #770000",
"d  c #651010",
"f  c #711010",
"g  c #58291C",
"h  c #7A3118",
"j  c #442D2D",
"k  c #492F2F",
"l  c #4D3232",
"z  c #423F3F",
"x  c #513434",
"c  c #454444",
"v  c #494747",
"b  c #4C4B4B",
"n  c #544F4F",
"m  c #545252",
"M  c #5C5656",
"N  c #5E5959",
"B  c #635E5E",
"V  c #656262",
"C  c #6B6666",
"Z  c #6E6868",
"A  c #736C6C",
"S  c #767272",
"D  c #787171",
"F  c #7E7E7E",
"G  c #970000",
"H  c #970B0B",
"J  c #980E0E",
"K  c #A10B0B",
"L  c #B21111",
"P  c #803319",
"I  c #FF1111",
"U  c #A76400",
"Y  c #B56D00",
"T  c #BE7300",
"R  c #E94509",
"E  c #F64506",
"W  c #FD4705",
"Q  c #FF4806",
"!  c #F2480D",
"~  c #FF4B0A",
"^  c #FF5916",
"/  c #FF5E1B",
"(  c #FD772D",
")  c #FD782E",
"_  c #B28105",
"`  c #D58000",
"'  c #CE9105",
"]  c #EC8E00",
"[  c #E29002",
"{  c #EE9802",
"}  c #F49300",
"|  c #F89500",
" . c #FF9900",
".. c #FFA402",
"X. c #F6A805",
"o. c #FFAD05",
"O. c #FFB105",
"+. c #FFB907",
"@. c #FFAF15",
"#. c #FF893A",
"$. c #FF9745",
"%. c #818181",
"&. c #8B8B8B",
"*. c gray77",
"=. c #CACACA",
"-. c #CFCFD0",
";. c gray83",
":. c #DCDCDC",
">. c #EEEEEE",
",. c #F6F6F6",
/* pixels */
"      o                                                                                                                       & ",
"                                                                  ;.                                                            ",
"                                                                                                                                ",
"                                                                                                        4                       ",
"                                                                                    ,.                                          ",
"                                                                                                                          V     ",
"                                                                              .                               o                 ",
"                                                                                            ,.                                  ",
"                                                                                                                            &   ",
"                                                                                                                                ",
"                                                                                                                                ",
"                                                                                                                                ",
"                4                                                                                                               ",
"                                  *.                                                  o                                         ",
"            o                       %.                                                                                          ",
"  o                                                                                                                             ",
"                                                                                                                                ",
"  o                                             . X @ X                                                                         ",
"                                          @ @  . . . . .X   ;.            . T  . . . .X                             :.          ",
"                                        . [ ..+.  =   @ O  .1 < 1 < $  . .....o.+.+.+... . ..                                   ",
"                                      .  .O.+.    1 r - f  . ......... . .o.+.@       . . .                                     ",
"    *.                                { O.2 $   y s  . ...O.O.+.+.o...o.o.y 5 X   N m .     +.+.                                ",
"                                    @ ..+.4 > 5 p  . ...+.I I +... . .o.L a < +.* e c X       +.+.                              ",
"                                    } O.: 8 7 7  . ...G J H H H .. .+.K K d 5 +.+.> : : @       +.                              ",
"                            6     *  .+.k l x  . .o.t u u u u u  ...+.u i < 9 l +.+.0 7 : @                               &     ",
"                            * : 8 j  .+.x l  . .o.4 6 5 5 4 6 5  .o.5 4 4 0 l l +.+.+.5 j 8 *     +.                            ",
"                        . * 7 j x l  .+.l l  ...7 7 7 7 7 > 7 7  .o.7 7 7 7 0 l l +.+.> k x j 7 &                               ",
"                      . : 0 x l x j  .+.x  . .+. . . .; > > : >  .o.: = = = = 0 l l +.> k l l x 8 O                             ",
"                      ; 8 x l l x j : o.o. . .+.= = * : 7 +.7 o. .o.: = = = ; 5 l l 8 +.j l l l x 8                             ",
"                    . 5 l x l x j : 8  . . .o.; = = = : : : +.o. .o.: = = = ; 0 l l l +.> j x l l +.*                           ",
"                    & j l k x j : 7  .o.o. .o.0 8 8 8 8 8 8 O.+... .O.0 8 8 j l l l l x 7 > j x +.l j .                         ",
"                    ; k x x j > 8  ...l l  .o.j j j j j O.O...+... .o.j j j j l l l l l x 7 > j +.x j :                         ",
"                    : k l k > 7  ...l x x  .o........... .> 5 > o... .o.> > 5 7 l l l l x x 7 +.+.x j 5 b                       ",
"                    > j x 0 : j  .o.k k l  .O.B N N M M M B M M M M  . .o.N V 0 < l k k k l O.o.0 x k > .                       ",
"                    > j x j > 0 o.> > 5 >  . .+.C D A S D A A A A S A  . .O.+.z > > > O.+.+. .> j x j > .       v               ",
"                    > j x k >  .o.3 7 8 =  . .+.c n Z C C A C A A C +.Z  . . ...o.O.O.o. . .> > j x j >                         ",
"                    > j x 0 :  .o.h 3 3 g    .o.2 2 m m 6 B S A B 6 m M $ . @  . . .o.% h     : 8 x k >                     b   ",
"                    > j 0 * @  .o.~ . o !    . .o.2 2 m w 4 V V 4 w +..     .   . +.+.@ R       : 0 j >             o           ",
"                    5 8 : .    .o./ E W ^      . .o.2 n S e q q e S +.    . .   +...Q Q /   &   + > 7 7                         ",
"                  o > > X     | ..O.) ( #.       . .o.c B A B B A B +.@     @ @ ..#.) )             > ;                         ",
"      o             ; X       @  .o.$.$.           . .o.M A A Z A +.@   . . _ { @ @ $.$..             *                         ",
"                    &            . .+.               . .o.o.O.v +.@.e ' X...]       X .           .   #                         ",
"                                 . .o.            .      . . .O.o.o.o.o.` @                                                     ",
"                                @ |  .o.+.    .           M O... .@                                                             ",
"                                  X ]  ...O.+.    o       +.....v                                                               ",
"                                  . . Y  . . .+.+.O.+.+... . .M @                       e         .                             ",
"                                    . . U }  . . . . . . . .b v         >.                                                      ",
"                                      X   . $  . . . .@ . . .           b                                                       ",
"                                            .   . .         o                                                                   ",
"                                                                                                                              c ",
"                                                                                                                                ",
"                                                                                                                                ",
"                                                                                                                                ",
"                                      =.                                                                                o       ",
"                                                                                                                                ",
"                                                                                                                                ",
"        S                                                 F                                                                     ",
"                          %.                                          o       .   Z                                             ",
"                                                                                          o           =                         ",
"                            .                 w                     :.        S                                       o         ",
"        4                   &.                                                                                                  ",
"                              o                                           M                                                     ",
"                                                          ;.                                                    4               ",
"                                                                                                                                "
};
