/* XPM */
static char *result[] = {
/* columns rows colors chars-per-pixel */
"64 64 200 2 ",
"   c #010101",
".  c #090808",
"X  c #241B10",
"o  c #37361D",
"O  c #181425",
"+  c #19172D",
"@  c #0F0D3D",
"#  c #110E3B",
"$  c #171E33",
"%  c #1A1A37",
"&  c #231F2D",
"*  c #211E36",
"=  c #0F2E32",
"-  c #27252C",
";  c #292535",
":  c #312E3C",
">  c #353537",
",  c #00523D",
"<  c #026C2F",
"1  c #2B6A31",
"2  c #745A3A",
"3  c #407F2A",
"4  c #050548",
"5  c #090F4B",
"6  c #19184C",
"7  c #010155",
"8  c #00005C",
"9  c #0A0959",
"0  c #171758",
"q  c #211E45",
"w  c #211F5D",
"e  c #152742",
"r  c #123A5F",
"t  c #282543",
"y  c #393644",
"u  c #272758",
"i  c #24235D",
"p  c #313458",
"a  c #000064",
"s  c #090A65",
"d  c #00016C",
"f  c #010174",
"g  c #00017C",
"h  c #0B0C78",
"j  c #161870",
"k  c #1B1B76",
"l  c #161878",
"z  c #292967",
"x  c #363867",
"c  c #282877",
"v  c #353376",
"b  c #413E4D",
"n  c #643E54",
"m  c #3F4555",
"M  c #16644F",
"N  c #2A4C7A",
"B  c #494945",
"V  c #53524E",
"C  c #4A4756",
"Z  c #58575A",
"A  c #6C554D",
"S  c #6E6853",
"D  c #5B5A67",
"F  c #45467D",
"G  c #727261",
"H  c #7D7D78",
"J  c #A2651A",
"K  c #875F54",
"L  c #AD744D",
"P  c #9A7F64",
"I  c #01B509",
"U  c #00C603",
"Y  c #00CC01",
"T  c #00D400",
"R  c #00E900",
"E  c #01F900",
"W  c #7F8079",
"Q  c #63CE63",
"!  c #7BE174",
"~  c #D9902E",
"^  c #EE9A2E",
"/  c #FF9D25",
"(  c #FFA026",
")  c #FEA32A",
"_  c #FFAB2D",
"`  c #EDA037",
"'  c #F8A634",
"]  c #FFB432",
"[  c #FEBA37",
"{  c #FEC43D",
"}  c #BE9F54",
"|  c #838162",
" . c #B59572",
".. c #BAA07D",
"X. c #D29A4D",
"o. c #D8A758",
"O. c #D3B05C",
"+. c #F3AD4B",
"@. c #F4B445",
"#. c #E7A95D",
"$. c #EBB15E",
"%. c #D6A667",
"&. c #CDAE75",
"*. c #F1B964",
"=. c #F8BF75",
"-. c #FBC745",
";. c #F6CB59",
":. c #E7C478",
">. c #000180",
",. c #050587",
"<. c #110B92",
"1. c #2F078D",
"2. c #282B83",
"3. c #363786",
"4. c #333696",
"5. c #0007A5",
"6. c #53398C",
"7. c #5B38AB",
"8. c #205AAA",
"9. c #0B6FAE",
"0. c #44458C",
"q. c #41469B",
"w. c #4D519F",
"e. c #555995",
"r. c #69518B",
"t. c #666786",
"y. c #7C7A81",
"u. c #787899",
"i. c #4349A0",
"p. c #4E52A1",
"a. c #5657A6",
"s. c #7A7BA8",
"d. c #817F83",
"f. c #7F80A9",
"g. c #0099DB",
"h. c #3B9ED5",
"j. c #2CE8F5",
"k. c #878588",
"l. c #918F8D",
"z. c #97978D",
"x. c #878898",
"c. c #959394",
"v. c #9B9A94",
"b. c #969698",
"n. c #9E9E9A",
"m. c #A29E98",
"M. c #9FA59B",
"N. c #A6A595",
"B. c #A2A29D",
"V. c #B2AB91",
"C. c #8889AA",
"Z. c #9D9CA2",
"A. c #888AB4",
"S. c #A5A5A2",
"D. c #A8A7A3",
"F. c #ACACA6",
"G. c #ADADAB",
"H. c #B5B0AD",
"J. c #B4B4AC",
"K. c #A8A8B6",
"L. c #B8B8B5",
"P. c #BCBAB5",
"I. c #B4B4BD",
"U. c #C1AA84",
"Y. c #D4B894",
"T. c #C7B6B1",
"R. c #8FE585",
"E. c #BEEAB2",
"W. c #D3C295",
"Q. c #E5C393",
"!. c #C6C5AE",
"~. c #D5C7A5",
"^. c #C6C5B7",
"/. c #D0CEBF",
"(. c #E9D3A6",
"). c #B9B9C2",
"_. c #C1BAC0",
"`. c #C4C4C4",
"'. c #C9C8C6",
"]. c #CCCDCB",
"[. c #C8D1CC",
"{. c #D9D9C7",
"}. c #D4D4CE",
"|. c #D5CAD1",
" X c #D4D4D3",
".X c #DBDBD6",
"XX c #DBDBDB",
"oX c #E7D2D6",
"OX c #DDE7DA",
"+X c #EFF0C9",
"@X c #E2E2D5",
"#X c #EAEAD4",
"$X c #F3F3DB",
"%X c #FAFADD",
"&X c #FED4F9",
"*X c #E8E8E5",
"=X c #EBEBEB",
"-X c #FBFAE6",
";X c #F7EDF7",
":X c #FFFFF2",
/* pixels */
"O O O O O O O O O O O O O O O O O O O O O O O O O O O O O O O O O O O $ $ O O O O O O O O O O O O O O O O O O O O O O O O O O O ",
"O O O O O O O O O O O O O O O O O O O O O O O O O O O O O O O O O O O O O O O O O O O O O r O O O O O O O O O O O O O O O O O O ",
"O O O O O O O O O O O O O O O O O O O r O O O O O O O O O O g.O O O O O O O O O O O O O O O O O O O O O O O O O O O O O O O O O ",
"O O O O r O O O O O O O O O O O O O O O O O O O O O O O O 9.j.9.O O O O O O O O O O O O O O O O O O O O O O O O O O g.O O O O O ",
"O O O O O O O O O O O O O O O O O O O O O O O O O O O O O O g.O O O O O O O 9.O O O O O O O O O O O O 9.O O O O O O O O O O O O ",
"O O O O O O O O O O O O O O O O O O O O O O O + O O O O O O O O O O O O O O O O O O O O O O O O O O O O O O O O O O O O O O O O ",
"O O O O O O O O O O O O O O O O O O O O O O O = O O O O O O O O O O O O O O O O O O O O O O O O O O O O O O O O O O O O g.O O O ",
"O O O O O O O O O O O O O O O O O O O O O O O O O O O O O O O O O O O O O O O O O O O O O O O O O O O O O O O O O O O O O O O O ",
"O O O O O O $ O O O O O O O O O O O O O O O O O O O $ O O O O O O O O O O O i 5 s 5 O O O O O O O O O O O O r O O O O O O O O O ",
"O O O O O O O O O O O O O O r O O O O O O O O O O O O O O O O O O O O O % B k d d 0 O O O O O O O O O O O O O O O O O O O O O O ",
"O O O O O O O O O O O O O O O O O O O O O O O O O O O O O O O O O O O O :   7 5.s x O O O O O O O O O O O O O O O O O O O O O O ",
"O O O O O O O O O O O O O O O O O O O O O O O O O O O O O O O O O O O & y o 9 5.d x g.O O O O O O O O O O O O O O O O O O O O O ",
"O O O O O O O O O O O O r O O O O 9.O O O O O O O O O O O O O O r O O 0 ,.+Xq.>.g 6 O O O O O O O O O O $ $ $ O O O O O O O O O ",
"O O O O O O O O O O O O O O O O O O O O O O O O O 9.O O O O O O O O O z h -Xi.>.>.4 O O O O O O O O O $ e e e $ O O O O O O O O ",
"O O O O O O O O O O O O O O O O O O O O O O O O O O O O O O $ O O O O y.K.@Xv f >.6 O O O O O O O O O $ e r r e $ O O O O O O O ",
"O O O O O O O O O O O O O O O O O O O O O O O O O O O O O O O O O O O y.@X@Xl 8 f 0 O O O O O O O O O $ e r 9.r e $ O O O O O O ",
"O O O O O O O O O O O O O O O O O O O O O O O O O O O O O O z c z z 0 u.@X X).v 8 0 O O O O O O O O O O $ e r r e $ O O O O O O ",
"O O O O O O O O O O O O O O O O O O O O O O O O O O O O O O v g d f 8 s.$X_.-Xe.8 w & O O O O O O O O O O $ e e e $ O O O O O O ",
"O O O O O O O O O O O O O O O O O O O O O O O O O O O g.O O O s a d s C.$X].#Xw.g g # O O 9.O O O O O O O O $ $ $ O O O O O O O ",
"O O O O O O O O O e O O O O O O O O O O O O O O O O O O O O O 9.; u.C.). X].#Xp.g g 5 O O O O O O O O O O O O O O O O O O O O O ",
"O O O O O O O O O O O O O O O O O O O O O 9.O O O O O O O O D h.C G.$X}.'.].#Xp.g >.# O O O O O O O O O O O O O O O O O O O O O ",
"O O O O O O O r O O O O O O O O O O O O O O O O O O O O O 9.h @ 7 s.$X].].].#Xp.g >.# O O O O O O O O O O O O O O O O O O O 9.O ",
"O O O O O O O O O O O O O O O O O O O O O O O O O O O O O O 2.d g A.$X].].].#Xp.>.g % O O O O O O O O r O O O O O O O O O O O O ",
"O O O O O O O O O O O O O O O O O O O O O O O O O O O O O O K.K.x.G. X].].}.#Xp.g g t u l k c t O O O O O O O O O O O O O O O O ",
"O O O O O O O O O O O O O O O O O O O O O O O $ $ $ O O O Z..X].V.B.Z.c.F.*X:Xw.a g h g f d a t O O O O O O O O O O O O O O O O ",
"O O O O O O O O O O O O O O O O O O O O O O $ e e e $ O b.`.].D.B.'.P.'.D.B B O . . p u.t.t.x.3.c k k O O O O O O O O O O O O O ",
"O O O O O O O O O O O O O O O O O O O O O O $ 6 r r e x.b.n...V.^.`.Y.(.V.J ^ ~ S V N.{.!.!.+X0.9 h k O O O O O O O O O O r O O ",
"O O O O O O O O O O O O O O O O r O O C }.m.v.b.F.[.^.V.*._ ] _ $.` [ o.( _ :.(.=X=XXX XXXXXXXy O O O O O O O O O O O O O O O O ",
"O O O O O O O O O O O O O O O O O k.D Z B z.L._.r.0.6.r.) O. .~ ] -.P.%._ $.}.XXP.H.L.L.H.F.D.Z O O O O O O O O O O O O O O O O ",
"O O O O O O O O O O O O O O O + t =XB     _.OXE.N 4 9 n _ X.~ ] | W.T./ @.'.Y.'.H...m.m.m.c.l.C O O O O g.O O O O O r O O O O O ",
"O O $ O O O O O O O O O O O % g d I.@X X X;X! Y T T E 3 ^ _ ( { S J A ( [ V.v.&. X~.].`.b.O O O O O O O O O O O O O O O O O O O ",
"O O O O O O O O O O O O - X % ,.f I.@XXX X7.M Y U Y E < L / ( { ] X G =.' ;.~.Q.:.*.].`.b.O O O O O O O O O O O O O O O O O O O ",
"O O O O O O O O O O e O . X + ,.h I.OX X|.<.= Y I I T 1 ~ ( ) { K   G #X' ) ] { ] $.].`.b.O O O O O O O O O O O O O O O O O O O ",
"O O O O O O O O O O O O O O t f a H.=X=X=X&XQ U R E E ~ [ _ / [ h   2 L.N.%.o.+.Q.}. X'.x.O O O O O O O O O O O O O O O O O O O ",
"O O O O O O O O O O O O O O + 6 x XXW > : |.OXR.M , , _ } K / ( L &.o.`.T.P.F.+.T.B.G.F.S.d.d.b O O O O O O O O O O 9.O O O O O ",
"O O O O O O O O O O O O O O O O O `.> . - B._.oX7.1.1._ O.i.L ( ( _ =.P.^.T.[ $.J.M.D.D.B.v.l.D O O O O O O O O O O O O O O O O ",
"O O O O r O O O O O O O O O O O O O O D *XD.m.m.J.{.!._ ;.{./.:./ ( ] [ [ _ +.=X=X=XOX X X X Xm O O O O O O r O O O O O O O O O ",
"O O O O O O O O O O O O O O O O O O O ; : > : : > B C ( { &.z.F.+./ #.$.o.2 Z H l.W F.'.T.^.{.e.0 i z O 9.O O O O O O O O O O O ",
"O O O O O O O O O O O O O O O O O O 9.O O O O O O O O A ) { -.[ _ Q. X=XG.    . .   S !.M.v.!.4.8 d f O 9.O O O O O O O O O O O ",
"O O O O O O O O O O O O O O O O O O O O O O O O O O O O V #.) +.U.J.Z.^.].G.!.F 7 a l <.l l l 8.N m p g.j.g.O O O O O O O O O O ",
"O O O O O O O O O O O O O O O O O O O O O O O O O O O O O y I.).Z.z.m.P. X@X:Xa.g >.6 0 g g h r r e $ O g.O O O O O O O O O O O ",
"O O O O O $ O O O O O O O O O O O O O O O O O O O O O O O O 2.,.,.A.#X].].].#Xp.g g ; O O O $ e e = $ O 9.O O O O O O O O O O O ",
"O O O O O O O O O O O O O O O O O O O O O O O O O O O O O O f 7 a f.%X].'.].#Xp.g g q + O O O $ % $ O O O O O O O O O O O O O O ",
"O O O O O O O O O O O O O O O O O O O O O O O r O O O O O O v v v Z.%X}.'.].@Xw.g f 6 O O O O O O O O O O O O O O g.O O O O O O ",
"O O O O O O O O O O g.O O O O O O O O O O O O O O O O O O O O O O x.I.`.].].#Xw.g g q O O O O O O O O O O O O O O O O O O r O O ",
"O O O O O O O O O 9.j.9.O O O O O O O O O O O O O O O O O O O 6 d g f C.#X].#Xp.>.f 6 O O O O O O O O O O O O O O O O O O O O O ",
"O O O O O O O O O O g.O O O O O O O O O O O O O O O O O O O 6 g f f 8 s.$X].%Xe.a s * O O O O O r O O O O O O O O O O O O O O O ",
"O O O O O O O O O O O O O O O O O O O O $ O O O O O O O O O s h l l s u.#X}. X0.7 w O O O O O O O O O O O O O O O O O O O O O O ",
"O O O O O O O O O O O O O O O O O O O O O $ O O O O O O O $ O O O O O d.}.@X3.8 a 0 O O O O O O O O O O O O O O O O O O O O O O ",
"O O O O O O O O O O O O O O O O O O O O O O $ O O O O O $ O O O O O O k.'.@Xv f f z O O O O O O O O O O O O O O O O O O O O O O ",
"O O O O O O O O O O O O O O O O O O O O O O O e $ $ $ e O O O O O O O u 4.$Xq.>.f w O O O O O O O O O O O O O O O O O O O O O O ",
"O O O O O O O O O O O O O O O O O O O O O O O $ e e e $ O O O O O O O 9 g :Xp.>.d z O O r O O O O O O O O O O O O O O O O O O O ",
"O O O O O O O O O O O O O O O O O O O O O O O $ e 9.e $ O O O O O O O % u P l ,.d i O O O O O O O O O O O O O O O O O O O O O O ",
"O O O O O O O O O O O O O O $ $ $ O O O O O O $ e e e $ O O O O O O O O &   7 5.d z O O O O O O O O O O O r O O O O O O O O O O ",
"O O O O O O O O r O O O O $ e e e $ O O O O O $ $ $ $ e O O O O O r O O ; B j g a x O O O O O O O O O O O O O O O O O O O O O O ",
"O O O O O O O O O O O O $ r e r e $ O O O O $ O O O O O $ O O O O O O O O O z 9 9 z O O O O O O O O O O O O O O O O O O O O O O ",
"O O O O O O O O O O O $ e e e e e $ O O O O O O O O O O O $ O O O O O O O O O O O O O O O O O O O r O O O O O O O O O O O O O O ",
"O O O O O O O O O O O $ e r e r $ O O O O O O O O O O O O O O O O O O O O O O O O O O O O O O O O O O O O O O r O O O O O O O O ",
"O O O O O O O O O O O $ r e e $ O O O O O O O O O O O O O O O O O O O O O O O O O O O O O O O O O O O O O O O O O O O O O O O O ",
"O O O O O O O O O O O O $ $ $ O O O O O O O O O O O O O O O O O O O O O O O O O O O O O O O O O O O O O O O O O O O O O O O O O ",
"O O O O O O O O O O O O O O O O O O O O O O O O O O O O O O O O O O O O O O O O O O O O O O O O O O O O O O O O O O O O O O O O ",
"O O O O O O O O O O O O O O O O O O O O O O O O O O O O O O O O O O O O O O O O O O O O O O O O O O O O O O O O O O O O O O O O ",
"O O O O O O O O O O O O O O O O O O O O O O O O O O O O O O O O O O O O O O O O O O O $ O O O O O O O O O O O O O O O O O O O O ",
"O O O O O O O O O O O O O O O O O O O O O O O O O O O O O O O O O O O O O O O O O O O O O O O O O O O O O O O O O O O O O O O O "
};
