/* XPM */
static char *result[] = {
/* columns rows colors chars-per-pixel */
"64 64 212 2 ",
"   c #010101",
".  c #090909",
"X  c #110F0E",
"o  c #37361D",
"O  c #181425",
"+  c #18162D",
"@  c #0F0D3D",
"#  c #110E3B",
"$  c #171E33",
"%  c #1C1939",
"&  c #221C29",
"*  c #211E36",
"=  c #192536",
"-  c #262536",
";  c #312D3C",
":  c #353439",
">  c #36522C",
",  c #306F32",
"<  c #69583D",
"1  c #060549",
"2  c #09134F",
"3  c #19184C",
"4  c #010155",
"5  c #00005C",
"6  c #0A0959",
"7  c #161758",
"8  c #211E45",
"9  c #211F5D",
"0  c #002A41",
"q  c #152742",
"w  c #123A5F",
"e  c #292644",
"r  c #3A3645",
"t  c #30364F",
"y  c #26265A",
"u  c #363456",
"i  c #000064",
"p  c #080A67",
"a  c #00006B",
"s  c #13156C",
"d  c #010174",
"f  c #00017B",
"g  c #0B0D79",
"h  c #1B1B76",
"j  c #161878",
"k  c #291E6D",
"l  c #1D227A",
"z  c #282867",
"x  c #383668",
"c  c #272876",
"v  c #30267C",
"b  c #353476",
"n  c #47364E",
"m  c #4B187C",
"M  c #533663",
"N  c #16644F",
"B  c #344A6C",
"V  c #4A4A47",
"C  c #545443",
"Z  c #464655",
"A  c #504D5A",
"S  c #58575A",
"D  c #73535F",
"F  c #666656",
"G  c #48476F",
"H  c #5B5A67",
"J  c #6B576F",
"K  c #7D7D78",
"L  c #947525",
"P  c #BB7A2C",
"I  c #C57E3A",
"U  c #8A6C51",
"Y  c #A16244",
"T  c #9A7F75",
"R  c #3C942C",
"E  c #02D000",
"W  c #27C906",
"Q  c #01FF00",
"!  c #29EA08",
"~  c #76C915",
"^  c #63CE63",
"/  c #7BE174",
"(  c #ADAF1C",
")  c #D78A29",
"_  c #C68539",
"`  c #E9982B",
"'  c #FF9D24",
"]  c #FA9E28",
"[  c #EC9B38",
"{  c #D2AF23",
"}  c #FFA227",
"|  c #F3A32C",
" . c #FEA42A",
".. c #FFAB2C",
"X. c #F7A13A",
"o. c #E6BB3C",
"O. c #FFB131",
"+. c #FFBA36",
"@. c #F9B63C",
"#. c #FFBD3A",
"$. c #9FCD27",
"%. c #B8C12E",
"&. c #9E8145",
"*. c #B58551",
"=. c #838162",
"-. c #B09776",
";. c #BAA07B",
":. c #CD984F",
">. c #D1AC47",
",. c #DCA358",
"<. c #E7A647",
"1. c #F7A944",
"2. c #E6AB58",
"3. c #C49C6A",
"4. c #C8A568",
"5. c #CFAE6B",
"6. c #DCB67A",
"7. c #E8B36E",
"8. c #FAC743",
"9. c #F5C957",
"0. c #DDC267",
"q. c #000181",
"w. c #050688",
"e. c #0D0D8E",
"r. c #2E1787",
"t. c #282B83",
"y. c #363786",
"u. c #333696",
"i. c #0007A5",
"p. c #553A8D",
"a. c #5B38AB",
"s. c #2C56A8",
"d. c #0B6FAE",
"f. c #45448C",
"g. c #41469B",
"h. c #4D519F",
"j. c #565792",
"k. c #695095",
"l. c #666786",
"z. c #7C7A81",
"x. c #787899",
"c. c #4E52A1",
"v. c #5053A4",
"b. c #7A7BA8",
"n. c #817F83",
"m. c #0099DB",
"M. c #2CE8F5",
"N. c #878589",
"B. c #918F8D",
"V. c #98968D",
"C. c #87879A",
"Z. c #959494",
"A. c #9A9998",
"S. c #A99781",
"D. c #A09F9E",
"F. c #9FA59B",
"G. c #ADA895",
"H. c #A2A19C",
"J. c #ABA99A",
"K. c #888AAB",
"L. c #9D9CA2",
"P. c #888AB4",
"I. c #A5A4A2",
"U. c #A8A7A3",
"Y. c #ACABA6",
"T. c #ADACAB",
"R. c #B2B2AE",
"E. c #B9B9AA",
"W. c #A8A8B6",
"Q. c #BDAFB5",
"!. c #B5B4B1",
"~. c #B4B4BD",
"^. c #BCBCB8",
"/. c #D8B88A",
"(. c #CEB693",
"). c #CBB495",
"_. c #F2BDB5",
"`. c #BEEAB2",
"'. c #DEC18B",
"]. c #F5D984",
"[. c #C6C7AD",
"{. c #DDC9AD",
"}. c #C6C5B6",
"|. c #D5CFB7",
" X c #E8DABE",
".X c #B9B9C2",
"XX c #C1BAC0",
"oX c #C3C3C3",
"OX c #C8C8C7",
"+X c #CCCDCB",
"@X c #D4D4CE",
"#X c #DBDBC8",
"$X c #D3CCD0",
"%X c #D4D4D3",
"&X c #DCDCD5",
"*X c #D6D7D9",
"=X c #DBDBDB",
"-X c #C4ECC0",
";X c #DDE7DA",
":X c #EFF0C9",
">X c #E3E2D5",
",X c #EAEAD4",
"<X c #E5E6D8",
"1X c #F3F3DB",
"2X c #FAFADD",
"3X c #DFDFE0",
"4X c #FED4F9",
"5X c #E6E7E4",
"6X c #EBEBEB",
"7X c #FBFAE6",
"8X c #F7EDF7",
"9X c #FFFFF2",
/* pixels */
"O O O O O O O O O O O O O O O O O O O O O O O O O O O O O O O O O O O = = O O O O O O O O O O O O O O O O O O O O O O O O O O O ",
"O O O O O O O O O O O O O O O O O O O O O O O O O O O O O O O O O O O O O O O O O O O O O w O O O O O O O O O O O O O O O O O O ",
"O O O O O O O O O O O O O O O O O O O w O O O O O O O O O O m.O O O O O O O O O O O O O O O O O O O O O O O O O O O O O O O O O ",
"O O O O w O O O O O O O O O O O O O O O O O O O O O O O O d.M.d.O O O O O O O O O O O O O O O O O O O O O O O O O O m.O O O O O ",
"O O O O O O O O O O O O O O O O O O O O O O O O O O O O O O m.O O O O O O O d.O O O O O O O O O O O O d.O O O O O O O O O O O O ",
"O O O O O O O O O O O O O O O O O O O O O O O O O O O O O O O O O O O O O O O O O O O O O O O O O O O O O O O O O O O O O O O O ",
"O O O O O O O O O O O O O O O O O O O O O O O q O O O O O O O O O O O O O O O O O O O O O O O O O O O O O O O O O O O O m.O O O ",
"O O O O O O O O O O O O O O O O O O O O O O O O O O O O O O O O O O O O O O O O O O O O O O O O O O O O O O O O O O O O O O O O ",
"O O O O O O $ O O O O O O O O O O O O O O y 6 6 z O = O O O O O O O O O O O O O O O O O O O O O O O O O O O w O O O O O O O O O ",
"O O O O O O O O O O O O O O w O O O O O O z i q.s V - O O O O O O O O O O O O O O O O O O O O O O O O O O O O O O O O O O O O O ",
"O O O O O O O O O O O O O O O O O O O O O z a i.4   O O O O O O O O O O O O O O O O O O O O O O O O O O O O O O O O O O O O O O ",
"O O O O O O O O O O O O O O O O O O O O O z a w.l =.y % O O O O O O O O O O O O O O m.O O O O O O O O O O O O O O O O O O O O O ",
"O O O O O O O O O O O O w O O O O d.O O O z d f c.9Xq.6 O O O O w O O O O O O O O O O O O O O O O O O O $ $ $ O O O O O O O O O ",
"O O O O O O O O O O O O O O O O O O O O O 9 d q.g.,Xu.y O O O O O O O O O O O O O O O O O O O O O O O $ q q q $ O O O O O O O O ",
"O O O O O O O O O O O O O O O O O O O O O 9 d a t.>X}.B.O O = O O O O O O O O O O O O O O O O O O O O $ q w w q $ O O O O O O O ",
"O O O O O O O O O O O O O O O O O O O O O 9 i 5 y.>X#Xn.O O O + O O O O O O O O O O O O O O O O O O O $ q w d.w q $ O O O O O O ",
"O O O O O O O O O O O O O O O O O O O O O 9 4 f.@X@X,Xx.p j s g p O O O O O O O O O O O O O O O O O O O $ q w w q $ O O O O O O ",
"O O O O O O O O O O O O O O O O O O O O % p i j.2X+X1Xb.5 d d f 8 O O O O O O O O O O O O O O O O O O O O $ q q q $ O O O O O O ",
"O O O O O O O O O O O O O O O O O O O O 3 f q.h.<X+X,XK.d d a 3 O O O w O O O O O O O O O d.O O O O O O O O $ $ $ O O O O O O O ",
"O O O O O O O O O q O O O O O O O O O O 8 f f h.,X@X+XoX~.C.+ d.O O O O O O O O O O O O O O O O O O O O O O O O O O O O O O O O ",
"O O O O O O O O O O O O O O O O O O O O 8 f f h.,X+XOX@X1XW.x s.b O O O O O O O O O O O O O O O O O O O O O O O O O O O O O O O ",
"O O O O O O O w O O O O O O O O O O O O 8 d f c.,X+XOX+X7Xb.4 4 w.d.O O O O O O O O O O O O O O O O O O O O O O O O O O O O d.O ",
"O O O O O O O O O O O O O O O O O O O O - d f v.<XOXOXOX,XP.e.e.c O O O O O O O O O O O O O O O O O O w O O O O O O O O O O O O ",
"O O O O O O O O O O O O O O O + d f f 7 9 q.f v.9X<X&X^.D.B.L..X.Xr O O m.O O O O O O O O O O O O O O O O O O O O O O O O O O O ",
"O O O O O O O O O O O O t t u y h j e.t.j i 4 G }.T.+XoXD.Y.J.}.;X.Xr O O O O O O O O O O O O O O O O O O O O O O O O O O O O O ",
"O O O O O O O O O O O O a i 5 u.[.V.H.E.F   . .     T. X{.3XR.;.'.(.).) | P & O O O O O O O O O O O O O O O O O O O O O O O O O ",
"O O O O O O O O O O O O y y 3 j.#X^.}.OXY.K N.K S < <.O.@.2./. .2.<.]  .>.U : ; ; ; n & O w O O O O O O O O O O O O O O O w O O ",
"O O O O O O O O O O O O O O O V &X%X%X@X;X8X6X6X@X<.@.4.<.' O.].|.@. .6.[.#XE.A.D.U.<XH O O O O O O O O O O O O O O O O O O O O ",
"O O O O O O O O O O O O O O O H B.A.H.U.U.A.R.*X{.} 9.7.' @.;.f.z.] =.p.m r.a._.XXT.;   r oXO O O O O O O O O O O O O O O O O O ",
"O O O O O O O O O O O O O O O r K N.D.W.R.Y.^.oX). .#.' O.5.D n M X.U 2 , > N 0.-X$X: : K 5Xu 3 + O O O m.O O O O O w O O O O O ",
"O O $ O O O O O O O O O O O O O O O Z.OX%X%X%X^.J.2.} ' #.o._ j m ' #.R Q ~ ! ~ ^ 4X5X6X7XW.i d e O O O O O O O O O O O O O O O ",
"O O O O O O O O O O O O O O O O O O Z.oXOX+XOX$X%X7.' ' #.#.c f i I  .+.$.%.#.{ 0 e.@X@X&X.Xf w.+ X X O O O O O O O O O O O O O ",
"O O O O O O O O O O q O O O O O O O Z.oX$X+X+X+X/...' ' O.L w.f d k Y } } O.( W N a.*X=X>X.Xd d $ X X O O O O O O O O O O O O O ",
"O O O O O O O O O O O O O O O O O + Z.oX+X+X%X!. .8.@.' } &.d M v q.d , ! { E E / 8X$X+X&X.Xa f % O O O O O O O O O O O O O O O ",
"O O O O O O O O O O O O O O O A B.Z.D.F.L.A.!.OX .9.|.1.} } *._ a d q.d Y P B `.;XoX    V 5X- + O O O O O O O O O O d.O O O O O ",
"O O O O O O O O O O O O O O O S I.Y.R.!.!.!.^.*X} 8.E.G.| ' } O.-.S.S.:.+.J k.XXQ.Z.V S H N.O O O O O O O O O O O O O O O O O O ",
"O O O O w O O O O O O O O O O n =X=X*X*X<X6X6X5X..8.B.V.V.[ } } ......| (.}.J.A.Z.L.%XA O $ $ $ O O O O O O w O O O O O O O O O ",
"O O O O O O O O O O O O h s 5 f.:X[.[.#XH.C F C ) +.0. XOX'.} ,.3.3.3.N.O O O O O O O O $ q q q = O O O d.O O O O O O O O O O O ",
"O O O O O O O O O O O O l h c y.x.l.l.x.u   . O < ` +.+.+.O.,.J.$XoXA.O O O O O O O O O $ q w w = $ O O d.O O O O O O O O O O O ",
"O O O O O O O O O O O O O O O e i a d f g f a v.9X>X4.[ [ ;.J.+X&XL.= O O O O O O O O O $ q w d.w q $ m.M.m.O O O O O O O O O O ",
"O O O O O O O O O O O O O O O e c h h y e d f c.,X@X+X+X%XT.C.W.W.O O O O O O O O O O O O $ = w w q $ O m.O O O O O O O O O O O ",
"O O O O O $ O O O O O O O O O O O O O O % f f c.,X+X+X+X1XP.f a t.O O O O O O O O O O O O O $ q q q $ O d.O O O O O O O O O O O ",
"O O O O O O O O O O O O O O O O O O O O # q.f c.,X+X+X+X1Xb.4 1 g O O O O O O O O O O O O O O = $ $ O O O O O O O O O O O O O O ",
"O O O O O O O O O O O O O O O O O O O O # q.f c.<X@XoX@X1XT.Z A H O O O O O O m.O O O O O O O O O O O O O O O O O m.O O O O O O ",
"O O O O O O O O O O m.O O O O O O O O O @ f f c.<X+X@X~.K.x.* O O O O O O O O O O O O O O O O O O O O O O O O O O O O O O w O O ",
"O O O O O O O O O d.M.d.O O O O O O O O @ q.f c.,X@X1XK.i a 5 7 O O O O O O O O O O O O O O O O O O O O O O O O O O O O O O O O ",
"O O O O O O O O O O m.O O O O O O O O O + z 5 j.7X+X,Xb.5 d a f v w O O O O O O O O O O O O O O w O O O O O O O O O O O O O O O ",
"O O O O O O O O O O O O O O O O O O O O $ 7 5 b W.%X,XC.7 z x c z + O O O O O O O O O O O O O O O O O O O O O O O O O O O O O O ",
"O O O O O O O O O O O O O O O O O O O O O 7 d 5 j &X#XT O $ O O O O O O O O O O O O O O O O O O O O O O O O O O O O O O O O O O ",
"O O O O O O O O O O O O O O O O O O O O O 7 q.d y.>XW.z.$ O O O O O O O O O O O O O O O O O O O O O O O O O O O O O O O O O O O ",
"O O O O O O O O O O O O O O O O O O O O O 1 q.f h.2Xf c O O O O O O O O O O $ O O O O O O O O O O O O O O O O O O O O O O O O O ",
"O O O O O O O O O O O O O O O O O O O O O 3 f q.g.,Xw.w O O O O O O O O O O O O O O O O w O O O O O O O O O O O O O O O O O O O ",
"O O O O O O O O O O O O O O O O O O O O O b a w.p o B = O O O O O O O O O O O O O O O O O O O O O O O O O O O O O O O O O O O O ",
"O O O O O O O O O O O O O O $ $ $ O O O O x i i.4   t = O O O O O O O O O O O O O O O O O O O O O O O O O w O O O O O O O O O O ",
"O O O O O O O O w O O O O $ q q q $ O O O 7 a a h Z - q O O O O O w O O O O O O O O O O O O O O O O O O O O O O O O O O O O O O ",
"O O O O O O O O O O O O $ w q w = = O O O 1 s 2 9 O + O $ O O O O O O O O O O O O O O O O O O O O O O O O O O O O O O O O O O O ",
"O O O O O O O O O O O $ q q q q q $ O O O O O O O O O O O $ O O O O O O O O O O O O O O O O O O O w O O O O O O O O O O O O O O ",
"O O O O O O O O O O O $ q w q w $ O O O O O O O O O O O O O O O O O O O O O O O O O O O O O O O O O O O O O O w O O O O O O O O ",
"O O O O O O O O O O O $ w q q $ O O O O O O O O O O O O O O O O O O O O O O O O O O O O O O O O O O O O O O O O O O O O O O O O ",
"O O O O O O O O O O O O $ $ $ O O O O O O O O O O O O O O O O O O O O O O O O O O O O O O O O O O O O O O O O O O O O O O O O O ",
"O O O O O O O O O O O O O O O O O O O O O O O O O O O O O O O O O O O O O O O O O O O O O O O O O O O O O O O O O O O O O O O O ",
"O O O O O O O O O O O O O O O O O O O O O O O O O O O O O O O O O O O O O O O O O O O O O O O O O O O O O O O O O O O O O O O O ",
"O O O O O O O O O O O O O O O O O O O O O O O O O O O O O O O O O O O O O O O O O O O $ O O O O O O O O O O O O O O O O O O O O ",
"O O O O O O O O O O O O O O O O O O O O O O O O O O O O O O O O O O O O O O O O O O O O O O O O O O O O O O O O O O O O O O O O "
};
