/* XPM */
static char *result[] = {
/* columns rows colors chars-per-pixel */
"64 64 213 2 ",
"   c #010101",
".  c #06060C",
"X  c #0D0C0F",
"o  c #211E19",
"O  c #3A3316",
"+  c #181425",
"@  c #1A172C",
"#  c #0F0D3D",
"$  c #110E3B",
"%  c #171E33",
"&  c #1A1838",
"*  c #231F2D",
"=  c #211E36",
"-  c #0F2E32",
";  c #27252C",
":  c #292535",
">  c #312D3C",
",  c #353537",
"<  c #00523D",
"1  c #514215",
"2  c #65541C",
"3  c #574930",
"4  c #684526",
"5  c #050548",
"6  c #090F4B",
"7  c #1A194B",
"8  c #000054",
"9  c #00005C",
"0  c #0A0959",
"q  c #131454",
"w  c #17185C",
"e  c #211E45",
"r  c #211F5D",
"t  c #152742",
"y  c #1A2941",
"u  c #123A5F",
"i  c #282543",
"p  c #383644",
"a  c #272658",
"s  c #24235D",
"d  c #2D3053",
"f  c #353557",
"g  c #000064",
"h  c #090A65",
"j  c #00016C",
"k  c #010174",
"l  c #0B0D77",
"z  c #00017B",
"x  c #141472",
"c  c #1B1B76",
"v  c #151778",
"b  c #1E217B",
"n  c #1B3570",
"m  c #282967",
"M  c #322F6C",
"N  c #383668",
"B  c #282877",
"V  c #353376",
"C  c #413E4A",
"Z  c #47335D",
"A  c #492F63",
"S  c #3E4354",
"D  c #16644F",
"F  c #214776",
"G  c #494944",
"H  c #545443",
"J  c #4B4857",
"K  c #58575A",
"L  c #725352",
"P  c #6A6752",
"I  c #4B4860",
"U  c #4A5B6D",
"Y  c #5B5A67",
"T  c #615E67",
"R  c #727261",
"E  c #7D7D78",
"W  c #9A6117",
"Q  c #8A5746",
"!  c #93724B",
"~  c #B47642",
"^  c #01B509",
"/  c #2F8524",
"(  c #00C603",
")  c #00CC01",
"_  c #00D400",
"`  c #00E900",
"'  c #01F900",
"]  c #63CE63",
"[  c #7BE174",
"{  c #AD9C2F",
"}  c #C88A32",
"|  c #ED922C",
" . c #FF9E25",
".. c #FA9C28",
"X. c #E69133",
"o. c #FFA127",
"O. c #FEA42A",
"+. c #FFAC2D",
"@. c #E1A43B",
"#. c #F9A934",
"$. c #FFB131",
"%. c #FFBA36",
"&. c #F1B33C",
"*. c #FEBE3A",
"=. c #FFC13B",
"-. c #FFC93F",
";. c #A58456",
":. c #838162",
">. c #B59C77",
",. c #BFA679",
"<. c #C28952",
"1. c #E79F46",
"2. c #D9A358",
"3. c #EAA847",
"4. c #F3A948",
"5. c #F6BB44",
"6. c #E9AA57",
"7. c #EBB653",
"8. c #D1AB68",
"9. c #CAA877",
"0. c #EDBB76",
"q. c #FCC843",
"w. c #ECC96E",
"e. c #000180",
"r. c #050587",
"t. c #010795",
"y. c #131390",
"u. c #2F078D",
"i. c #282B83",
"p. c #363786",
"a. c #333696",
"s. c #0007A5",
"d. c #53398C",
"f. c #5B38AB",
"g. c #0B6FAE",
"h. c #377EB1",
"j. c #44458C",
"k. c #41469B",
"l. c #4D519F",
"z. c #565792",
"x. c #695095",
"c. c #476683",
"v. c #68688E",
"b. c #7C7A81",
"n. c #797898",
"m. c #4D50A1",
"M. c #4E52A1",
"N. c #7A7BA8",
"B. c #817F83",
"V. c #7F809B",
"C. c #7F80A9",
"Z. c #0099DB",
"A. c #2CE8F5",
"S. c #89878A",
"D. c #96958C",
"F. c #84859A",
"G. c #959494",
"H. c #9A9997",
"J. c #A09F9E",
"K. c #9FA59B",
"L. c #B2A889",
"P. c #A2A19C",
"I. c #AAA89A",
"U. c #BCAC94",
"Y. c #8889AA",
"T. c #9D9CA2",
"R. c #858EB0",
"E. c #A9A8A5",
"W. c #B5B4AC",
"Q. c #A8A8B7",
"!. c #B8B7B7",
"~. c #C8B788",
"^. c #D7BF9F",
"/. c #E4BF84",
"(. c #C5BCA9",
"). c #CBAEBE",
"_. c #8FE585",
"`. c #BEEAB2",
"'. c #D9C799",
"]. c #EBC287",
"[. c #C4C4AE",
"{. c #D6CAA9",
"}. c #C7C6B8",
"|. c #D2CABB",
" X c #EBD5AE",
".X c #F2E4B6",
"XX c #B9BAC2",
"oX c #C1BAC0",
"OX c #C4C4C4",
"+X c #C9C9C6",
"@X c #CDCDCB",
"#X c #D4D3CD",
"$X c #DADAC8",
"%X c #D3CCD0",
"&X c #D4D4D3",
"*X c #DADAD7",
"=X c #E4DBC8",
"-X c #EEC5DD",
";X c #C4ECC0",
":X c #DDE7DA",
">X c #F2EBCE",
",X c #E2E2D5",
"<X c #EAEAD4",
"1X c #E8E9D9",
"2X c #F3F2DB",
"3X c #FAFADD",
"4X c #DFDFE0",
"5X c #FED4F9",
"6X c #E8E9E5",
"7X c #EBEBEB",
"8X c #F9F9E4",
"9X c #FFEAFD",
"0X c #FFFFF2",
/* pixels */
"+ + + + + + + + + + + + + + + + + + + + + + + + + + + + + + + + + + + % - + + + + + + + + + + + + + + + + + + + + + + + + + + + ",
"+ + + + + + + + + + + + + + + + + + + + + + + + + + + + + + + + + + + + @ + + + + + + + + u + + + + + + + + + + + + + + + + + + ",
"+ + + + + + + + + + + + + + + + + + + u + + + + + + + + + + Z.+ + + + + + + + + + + + + + + + + + + + + + + + + + + + + + + + + ",
"+ + + + u + + + + + + + + + + + + + + + + + + + + + + + + g.A.g.+ + + + + + + + + + + + + + + + + + + + + + + + + + Z.+ + + + + ",
"+ + + + + + + + + + + + + + + + + + + + + + + + + + + + + + Z.+ + + + + + + g.+ + + + + + + + + + + + g.+ + + + + + + + + + + + ",
"+ + + + + + + + + + + + + + + + + + + + + + + + + + + + + + + + + + + + + + + + + + + + + + + + + + + + + + + + + + + + + + + + ",
"+ + + + + + + + + + + + + + + + + + + + + + + t + + + + + + + + + + + + + + + + + + + + + + + + + + + + + + + + + + + + Z.+ + + ",
"+ + + + + + + + + + + + + + + + + + + + + + + + + + + + + + + + + + + + + + + + + + + + + + + + + + + + + + + + + + + + + + + + ",
"+ + + + + + % + + + + + + + + + + + + + + + + + + + % + + + + + + + + + + + + + + + + + + + + + + + + + + + u + + + + + + + + + ",
"+ + + + + + + + + + + + + + u + + + + + + + + + + + + + + + + + + + + + + + + + + + + + + + + + + + + + + + + + + + + + + + + + ",
"+ + + + + + + + + + + + + + + + + + + + + + + + + + + + + + + + + + + + + + + + + + + + + + + + + + + + + + + + + + + + + + + + ",
"+ + + + + + + + + + + + + + + + + + + + + + + + + + + + + + + + + + + + + + + + + + Z.+ + + + + + + + + + + + + + + + + + + + + ",
"+ + + + + + + + + + + + u + + + + g.+ + + + + + + + + + + + + + u + + + + + + + + + + + + + + + + + + + % % % + + + + + + + + + ",
"+ + + + + + + + + + + + + + + + + + + + + + + + + g.+ + + + + X ; + + + + + + + + + + + + + + + + + + % t t t % + + + + + + + + ",
"+ + + + + + + + + + + + + + + + + + + + + + + + + + + + + + % X o + + + + + + + + + + + + + + + + + + % t u u t % + + + + + + + ",
"+ + + + + + + + + + + + + + + + + + + + + + + + + + + + + @ i % & = + + + + + + + + + + + + + + + + + % t u g.u t % + + + + + + ",
"+ + + + + + + + + + + + + + + + + + + + + + + + + + + + + e k r.r.z + + + + + + + + + + + + + + + + + + % t u u t % + + + + + + ",
"+ + + + + + + + + + + + + + + + + + + + + + + + + + + + + f j e.k j : + + + + + + + + + + + + + + + + + + % t t t % + + + + + + ",
"+ + + + + + + + + + + + + + + + + + + + + + + + + + + Z.oX7XXXXX!.XX7XR.+ + + + + + + + + g.+ + + + + + + + % % % + + + + + + + ",
"+ + + + + + + + + t + + + + + + + + + + + + + + + + + + p ! 7X*X4X:XG T + + + + + + + + + + + + + + + + + + + + + + + + + + + + ",
"+ + + + + + + + + + + + + + + + + + + + + g.+ + + + * Y   , 7X$X*X@X  K J + + + + + + + + + + + + + + + + + + + + + + + + + + + ",
"+ + + + + + + u + + + + + + + + + + + + + + + + + + p 6X; , 7X%X&X#X  J &X+ + + + + + + + + + + + + + + + + + + + + + + + + g.+ ",
"+ + + + + + + + + + + + + + + + + + + + + + + + + + > E.P.%X5Xs.m.9X).D.T.+ + + + + + + + + + + + + + u + + + + + + + + + + + + ",
"+ + + + + + + + + + + + + + + + + + + + + + + + + + > P.%X;X] - D [ :X!.T.+ + + + + + + + + + + + + + + + + + + + + + + + + + + ",
"+ + + + + + + + + + + + + + + + + + + + + + + % % % > H.-X_.) ) ( ) `.oXH.+ + + + + + + + + + + + + + + + + + + + + + + + + + + ",
"+ + + + + + + + + + + + + + + + + + + + + + % t t t p W.f.D ` ^ ( _ F x.I.@ + + + + + + + + + + + + + + + + + + + + + + + + + + ",
"+ + + + + + + + + + + + + + + + + + + + + + % t u u U $Xu.< ' ^ ( _ 5 j.(.+ + + + + + + + u + + + + + + + + + + + + + + + u + + ",
"+ + + + + + + + + + + + + + + + u + + + + + % t u g.c.[.u.< ' _ ` ' 6 d.(.+ @ @ + + + + + + + + + + + + + + + + + + + + + + + + ",
"+ + + + + + + + + + + + + + + + + + + + + + + % y U 2.4.<.d / } { { ~ ..$.*.4 + + + + + + + + + + + + + + + + + + + + + + + + + ",
"+ + + + + + + + + + + + + + + + + + + + + + + + L O.%.q.+...O.&.L ~  .O.{.H.H.+ + + t + + + + + + + + + Z.+ + + + + u + + + + + ",
"+ + % + + + + + + + + + + + + + + + + + + + + p 3.%.,.0.| $.q.v v X.#.>. XH.OXT.* + + + + + + + + + + + + + + + + + + + + + + + ",
"+ + + + + + + + + + + + + + + + h 7 + + V l B !.o.=.&. .$.;.c w A ..! v.].P.%X*X9.i.l Y + + B m + + + + + + + + + + + + + + + + ",
"+ + + + + + + + + + t + + + + + l z 7 + V 8 y.!.O.%.+.o.q.Z } A A ..@.n.2X8.L.+X~.j # I + w k M + + + + + + + + + + + + + + + + ",
"+ + + + + + + + + + + + + + + + v k j @ V 9 l T.9.O.o.O.q.q.Q t.B | $.8.{.[.2.~.2.z 8 C = g j B + + + + + + + + + + + + + + + + ",
"+ + + + + + + + + + + + + + + + v k z F.T.N.R.G.9.o. .O.-.#.      W  .$.5.w.q.&.3.R.N.W.n.j k m + + + + + + + + + + g.+ + + + + ",
"+ + + + + + + + + + + + + + + + h 9 k !.8X8X<X>.#.+.o.o.-.~.3 R R L 6.o.o.+.#.1.#X2X2X2XY.h 9 q + + + + + + + + + + + + + + + + ",
"+ + + + u + + + + + + & 0 a S.B.n.N.C.OX#X@X@X3.%.-.o...+.'.!. X<XOX@XU.>./.6.H.@X@X@X#XXXC.N.Y.b.b.s s @ + u + + + + + + + + + ",
"+ + + + + + + + + : * a e.a.OX$X2X2X1X@X+X+X@XO.=.~.2. . .#.9.7.|.E.OXW.D.7.2.E.@X@X@X+X#X2X<X<X:XQ.l r.h.> : + + + + + + + + + ",
"+ + + + + + + + + G   :.0X2X,X,X@X@X@X@X+X@X@Xo.%.O 3 1.O...+.$.|.I.}.(.5.o.G 6X@X@X@X@X@X#X+X#X,X,X3X<XO   C + + + + + + + + + ",
"+ + + + + + + + m x 8 b M.k.V p.*X3X<X<X<X<X<Xo.=.1 K &X4.o. .+.*.%.*.+...3 3 0X<X<X<X<X<X<X0XQ.x p.k.k.h 8 c s + + + + + + + + ",
"+ + + + + + + + 0 e.s.r.z e.j g j.z.M.l.l.M.M.X.=.2 E 6X&X6.O. . . ...0.=X3 @ M.M.M.M.M.l.l.z.V 9 k e.e.t.s.g q + + + + + + + + ",
"+ + + + + % + + 0 g j k k z k g 8 g e.e.z z e.L O.-.q..X~.7...^.+X#XW.(.7XP . j z e.z z z z 9 9 k e.e.k j g j 0 + + + + + + + + ",
"+ + + + + + + + a M M a s w s r w h k z z z z e.L o.$.$.$.#.{.@X%X@XH.W.7XH . k z z e.e.z z m w w q 5 q N N w 5 + + + + + + + + ",
"+ + + + + + + + + + + + + + + + + = e e e e = n v ! @.4.2.U.&X@X@X@XJ.!.:XK.f y.i & $ $ $ 6 @ + + + + + + @ + + + Z.+ + + + + + ",
"+ + + + + + + + + + Z.+ + + + + + + + + + + + w y.(.+X&XE.Q.+XOXOXOXP.!.&X$Xn.z a + + + + + + + + + + + + + + + + + + + + u + + ",
"+ + + + + + + + + g.A.g.+ + + + + + + + + + + z v I.}.&XP.T.G.H.G.G.P.E.*X[.v.k c + + + + + + + + + + + + + + + + + + + + + + + ",
"+ + + + + + + + + + Z.+ + + + + + + + + + + + z v D.!.&XH.S.+ + @ u G.E.*X[.v.g c + + + + + + + u + + + + + + + + + + + + + + + ",
"+ + + + + + + + + + + + + + + + + + + + % + @ k c }.=X&XD.E + + + + G.E.*X>XV.9 B + + + + + + + + + + + + + + + + + + + + + + + ",
"+ + + + + + + + + + + + + + + + + + + + + % + + a a.z.p T S + + + + J Y p j.a.i i + + + + + + + + + + + + + + + + + + + + + + + ",
"+ + + + + + + + + + + + + + + + + + + + + + % + f g 7 + % + + + + + + + + 9 m + + + + + + + + + + + + + + + + + + + + + + + + + ",
"+ + + + + + + + + + + + + + + + + + + + + + + t f g m t + + + + + + + + + l B + + + + + + + + + + + + + + + + + + + + + + + + + ",
"+ + + + + + + + + + + + + + + + + + + + + + + % F j M % + + + + + + + + + c B + + + + + u + + + + + + + + + + + + + + + + + + + ",
"+ + + + + + + + + + + + + + + + + + + + + + + % % g.t % + + + + + + + + + + + + + + + + + + + + + + + + + + + + + + + + + + + + ",
"+ + + + + + + + + + + + + + % % % + + + + + + % y - t % + + + + + + + + + + + + + + + + + + + + + + + + + u + + + + + + + + + + ",
"+ + + + + + + + u + + + + % t t t % + + + + + % & % % t + + + + + u + + + + + + + + + + + + + + + + + + + + + + + + + + + + + + ",
"+ + + + + + + + + + + + % u t u t % + + + + % + + + + + % + + + + + + + + + + + + + + + + + + + + + + + + + + + + + + + + + + + ",
"+ + + + + + + + + + + % t t t t % % @ + + + + + + + + + + % + + + + + + + + + + + + + + + + + + + u + + + + + + + + + + + + + + ",
"+ + + + + + + + + + + % t u t u % + + + + + + + + + + + + + + + + + + + + + + + + + + + + + + + + + + + + + + u + + + + + + + + ",
"+ + + + + + + + + + + % u t t % + + + + + + + + + + + + + + + + + + + + + + + + + + + + + + + + + + + + + + + + + + + + + + + + ",
"+ + + + + + + + + + + + % % % + + + + + + + + + + + + + + + + + + + + + + + + + + + + + + + + + + + + + + + + + + + + + + + + + ",
"+ + + + + + + + + + + + + + + + + + + + + + + + + + + + + + + + + + + + + + + + + + + + + + + + + + + + + + + + + + + + + + + + ",
"+ + + + + + + + + + + + + + + + + + + + + + + + + + + + + + + + + + + + + + + + + + + + + + + + + + + + + + + + + + + + + + + + ",
"+ + + + + + + + + + + + + + + + + + + + + + + + + + + + + + + + + + + + + + + + + + + % + + + + + + + + + + + + + + + + + + + + ",
"+ + + + + + + + + + + + + + + + + + + + + + + + + + + + + + + + + + + + + + + + + + + + + + + + + + + + + + + + + + + + + + + + "
};
