/* XPM */
static char *result[] = {
/* columns rows colors chars-per-pixel */
"64 64 16 1 ",
"  c #181425",
". c #171E33",
"X c #3B1725",
"o c #172634",
"O c #242234",
"+ c #73172D",
"@ c #152742",
"# c #123A5F",
"$ c #133B5F",
"% c #B4202A",
"& c #DF3E23",
"* c #FA6A0A",
"= c #F9A31B",
"- c #0B6FAE",
"; c #0099DB",
": c #2CE8F5",
/* pixels */
"                                   oo                           ",
"                                             $                  ",
"                   $          ;                                 ",
"    #                        -:-                          ;     ",
"                              ;       -            -            ",
"                                                                ",
"                       @                                    ;   ",
"                                                                ",
"      .                   .+X+XXX++XX                 $         ",
"              $        +++X&++XX+++XXXXXX                       ",
"                     ++++X+&++++X+++XXXXXXX                     ",
"                   ++++++++*++++++++X+XXXXXXX                   ",
"            $    -++++++X++*+++XXXX++XXXXX**&&      ...         ",
"                 +++++++++++*XXXX+XX+XX+***XXXX    .@@@.        ",
"               +++++XX++++++*XX++******&&*XXXXXXO  .@##@.       ",
"              X+++++++++++XX*X****&&+***&XXXXXXXXO .@#-#@.      ",
"              +++++X+++++X++&**%=*X+++++**XXXXXXXX  .@##@.      ",
"             ++++X+++XX+++++*&%=*+XX+++++*XXXXXXXXO  .@@@.      ",
"            +++X++++XX++++++*&&**+XX++++++*XXXXXXXOO  ...       ",
"         @ XX++++++++X++++++*%**++XX++++++X*XXXXXXOOO           ",
"           ++XXX++++++++++++&**++XX+++X++XX&XXXXXXXOO           ",
"       #  +XXXX++++++++++++*++++XXX++++++XXX&XXXXXOOOO        - ",
"          ++XX++++++++++++**++XXXX+++++++XX++&XXXXOXOO          ",
"         ++++++++++++++++**++X+++++++++++XXX*=XXXXXOOOO         ",
"         +++++++++++++&&*++++++++++++++++XXX**XXXXOXOOO         ",
"         +++++++++&**&&+++++++++++++++++++XXX**XXXOXOOO         ",
"         &++++*+**&+++X+X+++++++++++++++++XXXX*XXXXOOOO      $  ",
"        +++&****%++++X+++X+++++XX++++++XX+X+XX&%**OXOOOO        ",
"        +++++++&*++++++++XX+++++++++++++XXXXXX%&XX&&**OO        ",
"        +++X+++++*++++++++X+++++++++++XX+XXXX**XXXXOOO&O  $     ",
"  .     +++++XX+++*++++++XXX+++++++++X++XXXXX**XXXOOOOO&        ",
"        +X+++++XX++*+++++XXX+++++++++++XXXXX**&*XXOXOOOO        ",
"        XXX++++++++*&+++++XX++++++++++XXX+X**&%&XOXOOOOO        ",
"        XX+X++++++*&&X+X++XX+++++XX&++X+XXX**X&XXOXOOOOO        ",
"        XXXX++++++&*++XXXXX+++++++X+&XXXX**&*XXXOXOOOOOO  -     ",
"        XXX+X++++**++++XXXX+++++++++X&****&&=XXOXOOOOOOO        ",
"    $   XXXXXX++***+++++++++++++++++***&*X*=*XXOXOOOOOOO        ",
"         XXXX+X*++**++++++++++++++++*&%*XXX**&OXOXOOOOO         ",
"         XXXXX*+++++*&*++++++++++++X*%&*XXXX*&XOXOOOOOO         ",
"         XXXXX*X+++++*+**&&*+++++XX**&*XXXXXX****OOOOOO         ",
"         XXXXXXXX+++*+++++***++XXX**&&*XXXXXOXOX**OOOOO         ",
"     .    XXXXXXX++*XXXXX+*%*+++X*&&&=**XXXOXOXOOO*OOO          ",
"          XOXXXXXX**XXXXX***%*****&&&=**XXXOXOOOOOOOOO          ",
"           XOXXXX*%&*X++*XX*&**&&&&=%&&*XXOXOOOOOOO&O    ;      ",
"          ;OXOXX**&%&&**XXXX*&&**&&&=%%&*OXOOOOOOOO&O        $  ",
"         -:-OOXOX****XXX&XX&XXX******&&&**XOOOOOOOOO            ",
"          ;  OOXOX*XXXXXX&&XXXXX******&*&**OOOOOOOO             ",
"              OOXO*OXXXXXXXXXXXXXXXOXO****OOOOOOOO              ",
"              OOO&XOXOXOXOXOXOXOXOXOXOXO**OOOOOOOO              ",
"               OO&OOOXOXOXOXOXOXOXOXOOOOOO*OOOOOO               ",
"                 OOOOOOOXOXOXOXOXOOOOOOOOOO*OOO                 ",
"                  OOOOOOOOOOOOOOOOOOOOOOOO&OOO                  ",
"                   OOOOOOOOOOOOOOOOOOOOOOO&OO                   ",
"              ...    OOOOOOOOOOOOOOOOOOOOOO          $          ",
"        $    .@@@.     OOOOOOOOOOOOOOOOOO                       ",
"            .#@#@.    .    OOOOOOOOOO                           ",
"           .@@@@@.           .                   $              ",
"           .@#@#.                                      #        ",
"           .#@@.                                                ",
"            ...                                                 ",
"                                                                ",
"                                                                ",
"                                           .                    ",
"                                                                "
};
