/* XPM */
static char *result[] = {
/* columns rows colors chars-per-pixel */
"48 48 140 2 ",
"   c #1D363D",
".  c #233B42",
"X  c #293F46",
"o  c #264147",
"O  c #30444B",
"+  c #2E4D50",
"@  c #324B50",
"#  c #364850",
"$  c #3C4D54",
"%  c #3B565A",
"&  c #37585A",
"*  c #3E5564",
"=  c #3F6464",
"-  c #425159",
";  c #49565E",
":  c #475F63",
">  c #4F5A62",
",  c #555F67",
"<  c #436163",
"1  c #4D6468",
"2  c #486F6D",
"3  c #57666C",
"4  c #506B6D",
"5  c #476277",
"6  c #4D677C",
"7  c #576876",
"8  c #5F6970",
"9  c #5A6D71",
"0  c #5C7476",
"q  c #507B77",
"w  c #577F7C",
"e  c #5E7B7B",
"r  c #64777A",
"t  c #6A737A",
"y  c #6C797F",
"u  c #3F6A8D",
"i  c #436682",
"p  c #5A7085",
"a  c #4C7496",
"s  c #5C7995",
"d  c #6E7D86",
"f  c #747C83",
"g  c #4878A0",
"h  c #598681",
"j  c #5D8480",
"k  c #618080",
"l  c #618180",
"z  c #6F8084",
"x  c #698484",
"c  c #638885",
"v  c #658F8A",
"b  c #718789",
"n  c #70848B",
"m  c #7F868D",
"M  c #738E8E",
"N  c #798A8D",
"B  c #61928A",
"V  c #6D928E",
"C  c #68968F",
"Z  c #7A8C95",
"A  c #6A9D94",
"S  c #7E9897",
"D  c #7F9A9F",
"F  c #799F9F",
"G  c #72A098",
"H  c #74A59E",
"J  c #7AA39D",
"K  c #5E81A4",
"L  c #5789B9",
"P  c #5D8EBE",
"I  c #6899A3",
"U  c #618AB3",
"Y  c #7CACA7",
"T  c #7EADA9",
"R  c #6392C2",
"E  c #659BD2",
"W  c #6AA9DC",
"Q  c #68A3E1",
"!  c #6AACF0",
"~  c #818C92",
"^  c #818D92",
"/  c #879196",
"(  c #899096",
")  c #8D959B",
"_  c #8B9BA2",
"`  c #949AA0",
"'  c #82A6A1",
"]  c #84ABA7",
"[  c #8AA9A6",
"{  c #89A1A9",
"}  c #8FA0A8",
"|  c #83A8A9",
" . c #96A1A5",
".. c #9EA3A9",
"X. c #98A7AA",
"o. c #93ABAA",
"O. c #9BAEAF",
"+. c #86B0AD",
"@. c #93AAB4",
"#. c #88B5B3",
"$. c #94B1B0",
"%. c #9EB0B1",
"&. c #93B0BA",
"*. c #92BDBD",
"=. c #9EB9BA",
"-. c #98BBBC",
";. c #A2AEB5",
":. c #A9ADB3",
">. c #A3B1B3",
",. c #A5B6B9",
"<. c #ABB4B8",
"1. c #A7BCBF",
"2. c #B3B7BC",
"3. c #A0BCC1",
"4. c #B5BCC2",
"5. c #9CC6C8",
"6. c #A2C3C6",
"7. c #A8C1C5",
"8. c #A4C7CD",
"9. c #AAC6CB",
"0. c #B7C1C8",
"q. c #B7C3C9",
"w. c #B9C7CE",
"e. c #B2C9CF",
"r. c #A6CED2",
"t. c #ACCBD1",
"y. c #B4CDD6",
"u. c #BBCCD4",
"i. c #AED1D6",
"p. c #B6D3DB",
"a. c #B0D6DC",
"s. c #BCD1D9",
"d. c #BED6DF",
"f. c #B8D7E2",
"g. c #BFD9E2",
"h. c #BADEE7",
"j. c #C0DCE5",
"k. c #C2E1EB",
"l. c #C4E6F1",
"z. c None",
/* pixels */
"z.z.z.z.z.z.z.z.z.z.z.z.z.z.z.z.z.z.z.l.l.l.l.l.l.l.l.l.l.z.z.z.z.z.z.z.z.z.z.z.z.z.z.z.z.z.z.z.",
"z.z.z.z.z.z.z.z.z.z.z.z.z.z.z.l.l.l.l.l.l.l.l.l.l.l.l.l.l.l.l.l.l.z.z.z.z.z.z.z.z.z.z.z.z.z.z.z.",
"z.z.z.z.z.z.z.z.z.z.z.z.z.z.l.l.l.l.l.l.l.l.l.l.l.l.l.l.l.l.l.l.l.l.z.z.z.z.z.z.z.z.z.z.z.z.z.z.",
"z.z.z.z.z.z.z.z.z.z.z.z.l.l.l.l.l.l.l.l.l.l.l.l.l.l.l.k.d.0.u.2.2.j.l.l.z.z.z.z.z.z.z.z.z.z.z.z.",
"z.z.z.z.z.z.z.z.z.z.l.l.l.l.s.l.l.l.l.l.l.l.l.l.l.l.s.0.2.2.2.2.2.4.w.j.l.l.z.z.z.z.z.z.z.z.z.z.",
"z.z.z.z.z.z.z.z.z.l.l.l.j.j.j.l.l.l.l.l.l.l.l.l.l.s.4.2.2.2.2.2.2.2.2.0.s.l.l.z.z.z.z.z.z.z.z.z.",
"z.z.z.z.z.z.z.l.l.l.j.0.s.l.l.l.l.l.l.l.l.l.l.l.e.<.2.2.2.2.2.2.2.2.2.2.2.d.l.l.l.z.z.z.z.z.z.z.",
"z.z.z.z.z.z.g.w.j.j.4.u.l.l.l.l.l.l.l.l.l.l.l.5.[ <.2.2.2.2.' >.2.2.u.d.d.k.l.l.l.l.z.z.z.z.z.z.",
"z.z.z.z.z.z.k.d.u.0.2.d.l.l.l.l.l.l.l.l.l.7.#.H >.2.2.2.u.d.6.<.2.0.k.l.l.l.l.l.l.l.z.z.z.z.z.z.",
"z.z.z.z.z.l.l.l.l.2.2.d.l.l.l.l.l.l.l.j.0.2.2.2.2.0.j.l.l.l.l.l.s.l.l.l.l.l.l.l.l.l.l.z.z.z.z.z.",
"z.z.z.z.q.j.l.l.5.o.2.d.l.l.l.l.l.l.l.w.2.2.2.2.0.k.l.l.l.l.l.l.l.l.l.l.l.l.l.l.l.l.l.l.z.z.z.z.",
"z.z.z.z.2.d.l.l.7.i.0.d.l.l.l.l.l.l.a.,.2.2.2.2.w.l.l.l.l.l.l.l.l.l.l.l.l.l.l.l.l.l.l.l.z.z.z.z.",
"z.z.z.2.>.e.l.l.s.j.l.l.l.l.l.l.j.i.#.j.0.2.0.w.s.l.l.l.l.l.l.l.l.l.l.l.l.l.l.l.l.l.l.l.l.z.z.z.",
"z.z.z.>.G O.s.l.l.j.l.l.l.l.l.7.] o.t.4.2.0.k.l.l.l.l.l.l.l.l.l.l.l.l.l.l.l.l.l.l.l.l.l.s.z.z.z.",
"z.z.2.O.A O.4.j.l.l.l.l.l.l.l.O.[ <.0.2.2.w.l.l.l.l.l.l.l.l.l.l.l.l.l.l.l.l.l.s.l.l.7.#.,.2.z.z.",
"z.2.2.A A [ 2.>.e.l.l.l.l.l.w.2.2.2.2.2.2.0.k.l.l.a.=.0.k.l.l.l.l.l.j.d.j.4.2.' ' V A J N ..z.z.",
"z.2.o.A A A 2.>.[ -.w.j.l.l.-.2.2.2.2.2.2.2.0.w.#.H [ 2.0.j.l.l.l.w.s.d.w.$.' 2.( ( [ O.2.S 2.z.",
"z.2.' A A A o.2.>.>.u.k.l.l.#.2.2.2.2.2.2.2.2.2.[ [ <.2.o.+.-.w.w.2.0.w.2.>.O.2...:. .y S G >.z.",
"z.' A A A A A =.w.l.l.l.l.w.' w.j.l.j.-.#.w.4.2.2.2.2.2.2.2.2.2.2.2.2.2.2.2.2.<.J J >.>.2.A O.z.",
"%.G A A A A T h.l.l.l.l.j.4.9.l.l.l.l.l.l.l.w.2.d.0.2.2.2.2.2.2.2.2.2.2.2.2.2.<.b  .2.2.o.A J %.",
"O.A A O.J A #.l.l.l.l.l.d.2.d.s.l.l.l.l.l.l.j.d.w.4.2.2.2.2.2.2.2.2.2.2.2.2.2.2.S z o.2.>.O.J O.",
"[ A A ' o.O.#.l.l.l.l.j.*.J 1.s.j.l.l.j.d.6.<.2.2.2.2.2.2.2.2.2.2.2.2.2.2.2.2.>.G l 2.2.2.<.J O.",
"A A A 2.>.O.] j.l.j.w.$.J <.0.4.w.w.7.] >.O.<.2.2.u.d.2.2.2.2.2.u.2.2.2.2.2.2.2.' A 2.2.2.O.A J ",
"A A A 2.2.2.' 0.w.+.' G G ' >.2.2.2.<.O.<.2.2.u.d.u.w.d.0.2.2.2.0.d.0.2.2.2.2.>.x 0 f S >.O.A A ",
"A A A ' 2.2.>.o.O.A A A A A A H #.#.w.w.w.l.l.l.l.l.l.w.w.w.w.j.l.0.2.2.5.l.l.l.@.Z D a.l.a.#.H ",
"A A [ i.d.0.d.i.r.A A A A A *.a.l.l.l.l.l.l.l.l.l.l.l.l.l.l.l.l.l.k.0.( l.l.l.l.l.l.l.l.l.l.l.a.",
"T r.p.l.l.j.l.l.l.r.T A T r.h.l.l.l.l.l.l.l.l.l.l.l.l.l.l.l.l.l.l.l.} ( l.l.l.l.l.l.l.l.l.l.l.l.",
"l.l.l.l.l.l.l.l.l.l.l.l.l.l.l.l.l.l.l.l.l.l.l.l.l.l.l.l.l.l.l.l.l.y.:.2.0.k.l.h.r.r.l.l.l.l.l.a.",
"l.l.l.l.l.l.l.l.l.l.l.l.l.l.l.l.l.l.l.l.l.l.l.l.l.l.l.l.l.l.l.l.l.d ` 2.2.0.-.F 0 0 D a.l.| | Y ",
"z.l.l.l.l.l.l.l.l.l.l.l.l.l.l.l.l.l.l.l.l.l.l.l.l.l.l.l.l.l.l.s.} , ` 2.2.2.>.c , , 3 n Z 9 c z.",
"z.l.l.l.l.l.l.l.l.l.l.l.l.l.a.*.A A c 3.k.l.j.d.d.d.d.p.=.<.m , , , m :.2...` > X   X > , 0 A z.",
"z.l.l.l.l.l.l.l.l.l.l.l.l.5.H A A A , t ;.w.4.2.o.2.2.<.O.^ , , , , , t f 8 , X       X ; 0 A z.",
"z.l.l.l.l.l.l.l.l.l.l.l.#.H A A A l , , t N ' N r f S f f 8 , , , , , , ; O ; - - X     X 0 z.z.",
"z.z.l.f._ { &.8.r.r.T A A A v e 9 v A A A c O   - - j - - - - - - ; ; , , , , , , , O .   A z.z.",
"z.z.z.d O   ; 9 0 & 4 0 & & @ 9 C A A A A c O   X - j - X     # - , , e ` ` t , m ` ` / k z.z.z.",
"z.z.z., O   $ , , - # O       0 A A A A A w .   ; , c , ; -   - , , m X.2.2...M :.2.2.2.>.z.z.z.",
"z.z.z.z.U *                   A A A A A A =     $ , c > X   . 1 0 N 2.2.2.2.2.2.2.2.2.2.z.z.z.z.",
"z.z.z.z.! E                   A A A A A 2       O O w X     $ w A ' 2.2.2.2.2.2.2.2.2.2.z.z.z.z.",
"z.z.z.z.z.! u                 2 A A v < o       + q B       % = h G >.2.2.2.2.2.2.2.2.z.z.z.z.z.",
"z.z.z.z.z.z.E * .                 # - - - : q q =           . O O X     ~ ~ ) c I W z.z.z.z.z.z.",
"z.z.z.z.z.z.! E 6                                         # ; , , -     X - > p Q ! z.z.z.z.z.z.",
"z.z.z.z.z.z.z.! E a X                                     - , , $ X # - ; , K E ! z.z.z.z.z.z.z.",
"z.z.z.z.z.z.z.z.z.! ! g X                                   O , , , , , 7 E ! z.z.z.z.z.z.z.z.z.",
"z.z.z.z.z.z.z.z.z.z.! ! P 5 X                               ; , , , , K E ! z.z.z.z.z.z.z.z.z.z.",
"z.z.z.z.z.z.z.z.z.z.z.z.! E L #                           # , , , R R Q z.z.z.z.z.z.z.z.z.z.z.z.",
"z.z.z.z.z.z.z.z.z.z.z.z.z.z.! ! U E s s s , $ O O O O i s s ! ! ! ! z.z.z.z.z.z.z.z.z.z.z.z.z.z.",
"z.z.z.z.z.z.z.z.z.z.z.z.z.z.z.z.! ! ! ! ! R R R R R R ! ! ! ! ! z.z.z.z.z.z.z.z.z.z.z.z.z.z.z.z.",
"z.z.z.z.z.z.z.z.z.z.z.z.z.z.z.z.z.z.z.! ! ! ! ! ! ! ! ! ! z.z.z.z.z.z.z.z.z.z.z.z.z.z.z.z.z.z.z."
};
