/* XPM */
static char *result[] = {
/* columns rows colors chars-per-pixel */
"64 64 227 2 ",
"   c #181425",
".  c #17172C",
"X  c #1A1629",
"o  c #1C1A2C",
"O  c #171E33",
"+  c #191C35",
"@  c #211C2D",
"#  c #221E31",
"$  c #1A2436",
"%  c #242134",
"&  c #25243A",
"*  c #2C273A",
"=  c #31273D",
"-  c #322B3E",
";  c #152742",
":  c #1A2B46",
">  c #133B5F",
",  c #292A44",
"<  c #2F2E45",
"1  c #33354D",
"2  c #3B3548",
"3  c #263859",
"4  c #363A52",
"5  c #3B3C54",
"6  c #3D3F59",
"7  c #37455A",
"8  c #3D425D",
"9  c #3C4863",
"0  c #3B5266",
"q  c #2F4B75",
"w  c #47414E",
"e  c #484555",
"r  c #534C5C",
"t  c #42545F",
"y  c #5B535F",
"u  c #474E66",
"i  c #5A4A66",
"p  c #44556B",
"a  c #48566A",
"s  c #45596D",
"d  c #5D5462",
"f  c #575B6A",
"g  c #4C5D72",
"h  c #4A5875",
"j  c #545D74",
"k  c #565E79",
"l  c #655867",
"z  c #635B68",
"x  c #6E5671",
"c  c #745C75",
"v  c #56616D",
"b  c #546376",
"n  c #5B6475",
"m  c #55647A",
"M  c #5A657B",
"N  c #586979",
"B  c #5B6A7C",
"V  c #666679",
"C  c #6B6D7B",
"Z  c #736977",
"A  c #63727C",
"S  c #82757F",
"D  c #155890",
"F  c #0B6FAE",
"G  c #1074AD",
"H  c #5E6B82",
"J  c #5A6985",
"K  c #5E728B",
"L  c #5C7291",
"P  c #636E83",
"I  c #696B86",
"U  c #746D86",
"Y  c #657185",
"T  c #697486",
"R  c #64728A",
"E  c #6A758B",
"W  c #67788E",
"Q  c #777688",
"!  c #6B7C93",
"~  c #697C98",
"^  c #727D95",
"/  c #737D99",
"(  c #867B85",
")  c #8E758C",
"_  c #967D99",
"`  c #A77D97",
"'  c #2AA6BC",
"]  c #7D8189",
"[  c #65829B",
"{  c #6D839D",
"}  c #72829C",
"|  c #77859D",
" . c #6D83A1",
".. c #6987A4",
"X. c #7585A1",
"o. c #7987A7",
"O. c #748AA3",
"+. c #7A8BA5",
"@. c #7B8DAA",
"#. c #7A92A7",
"$. c #7D92AC",
"%. c #7B95B1",
"&. c #0099DB",
"*. c #2CE8F5",
"=. c #89848D",
"-. c #95868D",
";. c #878A97",
":. c #988899",
">. c #979499",
",. c #A3849C",
"<. c #A9879C",
"1. c #B78994",
"2. c #B5869D",
"3. c #A5999B",
"4. c #A7A19D",
"5. c #868BA6",
"6. c #9D86A1",
"7. c #8294AD",
"8. c #8C95AC",
"9. c #9895AB",
"0. c #898EB2",
"q. c #8495B1",
"w. c #8A95B1",
"e. c #859AB3",
"r. c #8C9CB6",
"t. c #8D96BA",
"y. c #8D9EB9",
"u. c #939CB4",
"i. c #9999B6",
"p. c #919EBA",
"a. c #A986A5",
"s. c #AC89A4",
"d. c #B48BA4",
"f. c #BB8AA4",
"g. c #B48EAA",
"h. c #B98CA8",
"j. c #A698A7",
"k. c #B792AA",
"l. c #A49BB7",
"z. c #B597B6",
"x. c #8DA0B7",
"c. c #8EA1BA",
"v. c #92A2BC",
"b. c #9DA6BC",
"n. c #A9A8AB",
"m. c #B6A9A8",
"M. c #A8A8B9",
"N. c #B6A8B7",
"B. c #B9B4B9",
"V. c #C494AC",
"C. c #C891A9",
"Z. c #CB95AD",
"A. c #C696B1",
"S. c #C5B6B7",
"D. c #CDB3B3",
"F. c #E0B9BA",
"G. c #D4C5BC",
"H. c #E9D3BF",
"J. c #A39FC1",
"K. c #94A4C1",
"L. c #95A9C4",
"P. c #9AA9C3",
"I. c #9BABC4",
"U. c #A8A8C5",
"Y. c #B6A5C3",
"T. c #BBA9C5",
"R. c #BDACC9",
"E. c #A7B1CD",
"W. c #C3ACC8",
"Q. c #C3B0CC",
"!. c #D5B2CD",
"~. c #CCBAD5",
"^. c #D4B3D3",
"/. c #DAB4D3",
"(. c #D9B9D8",
"). c #E3ACCD",
"_. c #E4B2CE",
"`. c #E7B9DA",
"'. c #E4BADA",
"]. c #F6B9DA",
"[. c #FBBDDD",
"{. c #EABDE3",
"}. c #F5BFE7",
"|. c #FDBFE1",
" X c #DAC9C5",
".X c #DBCBC4",
"XX c #D4CBCB",
"oX c #DDD4CA",
"OX c #E7CEC3",
"+X c #E2CECB",
"@X c #E9D6C6",
"#X c #EDD5C5",
"$X c #E5D4CC",
"%X c #EBD5CA",
"&X c #ECDACC",
"*X c #F1D6C6",
"=X c #F2D9C4",
"-X c #F3D7CA",
";X c #F4DBCB",
":X c #F8DACA",
">X c #F9DDCC",
",X c #F4C1DF",
"<X c #FBC2DE",
"1X c #E8DAD3",
"2X c #F4DED2",
"3X c #FBDED1",
"4X c #F7E0CB",
"5X c #FCE2CE",
"6X c #EEE1D4",
"7X c #FCE5D3",
"8X c #F8E4D7",
"9X c #FEEAD5",
"0X c #FEECDB",
"qX c #FFF2DC",
"wX c #EBC5E4",
"eX c #F4C3E2",
"rX c #FEC3E3",
"tX c #FDC6E9",
"yX c #FACAE8",
"uX c #FECAEB",
"iX c #FFCBF0",
"pX c #FFD4F0",
"aX c #FBEDE4",
"sX c #FFF4E3",
"dX c #FEF6E6",
"fX c #FEFBEC",
"gX c #FFFAF2",
/* pixels */
"                                                                      $ $                                                       ",
"                                                                                          >                                     ",
"                                      >                     &.                                                                  ",
"        >                                                 F *.F                                                     &.          ",
"                                                            &.              F                         F                         ",
"                                                                                                                                ",
"                                              ;                                                                         &.      ",
"                                                                                                                                ",
"            O                                       O                                                       >                   ",
"                            >                                                     e d l d y d z r                               ",
"                                                    & & # % # # o X o + + ,     @ m.aX0XqX9X9XsX$X2 # %                         ",
"                                                  . 0.t./ / X.X.k h k M ) ` <   1XdX8X>X5X;X;X7X#XH.OXB.                        ",
"                        >         F         + 4 5 a K.t.X.7.r.q.~ J b B =.g.x x m.z Z -.-.-.( ( ( ;X4X%X=.5 O                   ",
"                                            , E.E.L.K.q.X.y.K.v.e.{ g V ) k.A.6.m .               B.OX>X2X;.; O                 ",
"                                          6 p.c.y.y.t.v.r.y.K.v.q.#.#.^.).d.( k m H 6               Z 3X=X&Xb.M $               ",
"                                    1 u u / I.e.y.y.y.y.y.r.y.r.U.R.W.yX].f.c s M E R 1 1 *         d 3X=X>X.X;.$ $             ",
"                                    E J.p.y.w.y.y.c.r.c.r.8.r.9.`.uXrXtX_.s.C b E W T E ^ j X       r 0X*X>X+X;.; $             ",
"                                # 0.Q.yXwX'.'.{.U.@.q.%.q.(.'.'.[.tXtXz.5.5.m g E T T E E Y ^ #     y 0X*X7X$X) ; O             ",
"                              @ 8 p.R.(.^.].|.rX!.l.U.Y.Y.}.iXrX[.].Q.5...%.W R W T T T T Q ^ 4 X   r 0X:X5X$X=.O               ",
"                  ;           I E.X./  .W Y.rX].|.|.|.rX|.eXrX|.iXW.W { $.c.I.8.B Y I T R T T ! I   e 0X=X:X+X(                 ",
"                              k E.r.+. .~ W.iXtXrX[.|.rXrXj.9.9.i.0./ %.p.p.x.r.7.^ P Y R T V _ _   w 0X*X:X+X(                 ",
"              >           X 1 E I.K.q.@.~ U.'.'./.!./.'.^.+.{ O.X.o.%.c.v.p.x.x.I.| P T R E Q a.h.< S qX:X5X%X(             F   ",
"                          & v.v.y.y.v.y.O./ / } } } { /  .y.K.c.c.v.c.y.x.x.x.x.v.^ H T K Q s.f.h.) D.7X;X;X+X(                 ",
"                        j | e.r.y.r.y.p.q.$.7.7.7.$.7.$.q.e.v.r.e.c.y.e.x.x.r.r.x.w.| B ( ,.2.2.2.Z.H.:X;Xm.* o                 ",
"                        X.E.c.c.p.v.y.K.v.v.v.v.v.v.v.v.p.y.v.v.c.c.y.x.v.c.x.r.y.I.p.C ,.Z.2.2.2.3X7X>X7X(                     ",
"                        } P.y.y.y.y.y.K.v.y.p.y.p.c.v.v.y.y.K.v.y.c.y.r.c.v.x.r.y.y.i.d.C.2.d.1.1.:X>X=X4XS                     ",
"                  X & k @.K.y.r.y.y.y.p.y.r.y.r.r.y.r.v.r.y.v.y.y.y.y.r.v.r.r.e.q.r.9.a.f.f.2.Z.F.:X;X&X8X=.              >     ",
"                  X e E.K.r.y.r.y.y.y.v.y.r.v.c.c.r.r.p.r.y.v.y.y.K.y.y.v.c.x.u.i.J.l.h.h.a.) F.sX;X;X&X&XZ                     ",
"                    i wXU.@.q.r.v.r.r.v.c.y.c.v.p.r.c.v.y.y.v.v.y.v.c.y.y.c.#.l.eXyXyXpX6.p 5 4.sX;X7XOXC 2                     ",
"                    i iX_.W.R.J.e.r.e.y.y.e.x.x.p.v.c.v.y.c.v.v.y.v.y.y.r.w.U.!.tX!.Y.Q.E s -.D.8X-X7X&Xb 1         >           ",
"    O               i yXyXrXuXN.8.u.9.u.u.i.x.u.e.x.c.c.y.y.c.y.r.c.r.r.r.9.`.iXeX9.L ..m Z sX9X&X;X;XoXH 4                     ",
"                    6 l.i.T.uXeXeXeXeXeX'.`./.8.$.7.7.q.$.7.e.%.%.e.%.O.b.wXiX'.5.@.O.L M.-X;X;X=XfX>.f m 4                     ",
"                    9 c.q.b.!.^.(./.^.'.tXtX<XT.T.T.T.T.T.Y.W.T.Y.Q.R.Y./.uX'.l.[ ..7.n.$XaX;X9X=XS.Q 9 J 5                     ",
"                    6 p.y.r.7.q.w.w.$.i.eX,X[.rX<X<X<XrX<X|.tXrX|.tXeXyXtXtX5.W o.~ ;.aX7X#X&X0X Xt 0 M m 4                     ",
"                    6 v.r.c.y.y.t.y.e.p.U.l.Y.rXrX[.<XrX|.].[.].|.tXtXz.5.w.$. .R B.%X&X:X=X7X3.m m m m k 5         F           ",
"                    5 P.K.v.p.p.c.c.y.p.r.q.p.~./././.(./.[.uXeX!./.(.5.[  .O.$.9.$X0X3X7X=XqX>.7 N m N J 4                     ",
"        >           6 K.v.v.y.r.y.y.y.p.c.y.y.w.8.w.w.e.w.{.uXeX5.~ ~ O.@.@.R ;.aX3X#X-X4XH.dX9.0 m k j P 6 >                   ",
"                    , k O.v.v.p.p.y.y.v.v.r.y.r.r.r.r.r.w.U.Y.M.8.r.e.o. .K j.G.>X;X%X#XqX&X] P g s Q 6.q                       ",
"                    & Q Q O.q.y.b.v.y.v.b.r.v.v.p.c.v.v.c.e.r.e.w.v.r.@.$.;.G.qX;X>X&X4X&Xn.0 g J V a.z.D                       ",
"                    e gXQ s R w.I.v.r.v.x.e.y.c.r.r.x.v.y.c.K.v.+.O.+.R 8.0X:X&X;X>X4XfX=.7 m g z z.A.` ' &.                    ",
"                    l dX] a N ! | | 8.b.v.v.v.x.r.r.v.v.c.7.7.@.{ [ [ M.G.4X=X#X=XqX$X=.A s s U _ C.Z.a.G                       ",
"          O     X X l dXC 8 b B P m | r.q.7.r.x.c.x.r.y.e.| O.X.5.;.;.+X0X;X;X;X;X6XB.7 g m x ,.A.a.` _ D                       ",
"                r B.dXaX- o P m m m H W W K E b.b.v.#.#.@.@. .P XX7X&X=X2X-X;X4XfX;.7 n g V k.Z.g.^ ,                           ",
"                d +X@Xf   o , u V m J H M N H ! { ! W K J J | S.$X5X4X>X4X;XsXoX>.A s v U :.V.<.I < +             &.            ",
"                y .XM.X       4 K b m m m b m g g g g v V t >.fX-X&X@X;X=X-X8Xn.7 h J f ,.Z.d.Q u                         >     ",
"                y XXB.G       e K m m m m b J M a 0 7 ;.0XOX;X;X@X;X;X9XqXdX] s m s n s.Z.d.n Y I .                             ",
"                d  X8X=.%     % u N M m g j j u ] n.>.G.0X=X7X:X5X0X9Xm.j.n.A 0 j U ` A.,.Q n 8 3                               ",
"                i S.sX1Xe       + h b B M v j u N.gXaX8X*X=X;X&X@X%X1Xn 7 0 g M k ,.A.g.C u R $ .                               ",
"                r S.9X*X&X:.        , M oX XG. X@X=X=X;X@X7XdXsX] v C M m m h k s.f.s.U Q k .                                   ",
"                r S.qX>XqXm.2 w w = C m.9X9X9X0X7X:X5X7X=Xm.n.n.b 0 s b b b I _ V.s.Z 3 8 <                                     ",
"                w N.dX#X;X&X6X7X8X8X0X0X=X#X&X=X#X&X6X8XoXf 8 u j b k k k j ` V.h.U 1                                           ",
"                    y %X5X4X=X-X:X:X-X*X-X3X:X0Xm.T C C P u U a.,.,.,.a.s.d.C.C.V.2     >                                       ",
"                    o :.3.m.>X;X3X3X-X=X>Xm.>.9.k 3 I Z I Z ` C.` 2.f.<._ _ x c ( #                                             ",
"                    X     w 1X X X X X%X%X<   O ; + g.z.g.g.C.` d.f.g.U j J                               >                     ",
"                >         + : : : #     # @   O O + 5 6 , < 2 2 2 p , . + # o                                                   ",
"                        $ > ; > ; +         +   .       +                                                                       ",
"                      O ; ; ; ; ; +                       +                                       >                             ",
"                      O ; > ; > +                                                                             >                 ",
"                      $ > ; ; O                                                                                                 ",
"                        O O O                                                                                                   ",
"                                                                                                                                ",
"                                                                                                                                ",
"                                                                                      +                                         ",
"                                                                                                                                "
};
