/* XPM */
static char *result[] = {
/* columns rows colors chars-per-pixel */
"64 64 241 2 ",
"   c #1C0D1C",
".  c #2E0C1E",
"X  c #2B171D",
"o  c #392C1E",
"O  c #181425",
"+  c #1E1926",
"@  c #1D1828",
"#  c #171E33",
"$  c #1A1D33",
"%  c #221727",
"&  c #231B27",
"*  c #2C1A24",
"=  c #2D1528",
"-  c #261B28",
";  c #321425",
":  c #371C27",
">  c #182433",
",  c #292326",
"<  c #2C242B",
"1  c #3A2728",
"2  c #39362D",
"3  c #362236",
"4  c #480F1B",
"5  c #571B1C",
"6  c #73171C",
"7  c #49321F",
"8  c #59331E",
"9  c #61201E",
"0  c #441624",
"q  c #501925",
"w  c #611E2B",
"e  c #432929",
"r  c #433C23",
"t  c #463828",
"y  c #553128",
"u  c #473B36",
"i  c #6F2E2F",
"p  c #714815",
"a  c #494029",
"s  c #594427",
"d  c #4D4536",
"f  c #584836",
"g  c #735129",
"h  c #7B6625",
"j  c #76633C",
"k  c #152742",
"l  c #123A5F",
"z  c #776646",
"x  c #7C7546",
"c  c #8D0E0E",
"v  c #831917",
"b  c #BF0C01",
"n  c #BC1700",
"m  c #A81612",
"M  c #9B231A",
"N  c #923910",
"B  c #BA2503",
"V  c #BB3301",
"C  c #A62A16",
"Z  c #A6391A",
"A  c #BD3D1B",
"S  c #B31A21",
"D  c #C41300",
"F  c #CD1606",
"G  c #C41C02",
"H  c #CC1E02",
"J  c #E90F00",
"K  c #E81B00",
"L  c #CE2302",
"P  c #C62A03",
"I  c #D12301",
"U  c #DB2D03",
"Y  c #C43301",
"T  c #C93607",
"R  c #CB3A03",
"E  c #CC3A0C",
"W  c #D43906",
"Q  c #DB3214",
"!  c #E32201",
"~  c #EB2400",
"^  c #ED2B02",
"/  c #F42400",
"(  c #E83B06",
")  c #F43A01",
"_  c #EC3A24",
"`  c #965319",
"'  c #B34A12",
"]  c #A86D17",
"[  c #B77416",
"{  c #975422",
"}  c #BC5725",
"|  c #BC463D",
" . c #897725",
".. c #896D32",
"X. c #A37522",
"o. c #AF7936",
"O. c #C34302",
"+. c #C54C01",
"@. c #CB4509",
"#. c #D64905",
"$. c #C45302",
"%. c #CC5403",
"&. c #C95807",
"*. c #CC590C",
"=. c #D65707",
"-. c #C15610",
";. c #D55915",
":. c #E54007",
">. c #F74904",
",. c #EC5D02",
"<. c #EA5709",
"1. c #F55B04",
"2. c #FB5708",
"3. c #E75813",
"4. c #CB6607",
"5. c #D46C02",
"6. c #D66808",
"7. c #CC7304",
"8. c #CC7D02",
"9. c #C97709",
"0. c #D37404",
"q. c #D57D04",
"w. c #D37D0B",
"e. c #DB7908",
"r. c #D16A13",
"t. c #CD7D14",
"y. c #DA7A13",
"u. c #E76606",
"i. c #F46A02",
"p. c #F96608",
"a. c #E67708",
"s. c #F77504",
"d. c #E96815",
"f. c #E97717",
"g. c #DA6D29",
"h. c #BD4A45",
"j. c #C44742",
"k. c #799065",
"l. c #B68E0C",
"z. c #948339",
"x. c #B79030",
"c. c #CA8704",
"v. c #CB820B",
"b. c #D38404",
"n. c #D4840B",
"m. c #D88808",
"M. c #CD9403",
"N. c #C59B01",
"B. c #CB9C04",
"V. c #CD9B08",
"C. c #D79806",
"Z. c #D19C05",
"A. c #D3930B",
"S. c #DB940B",
"D. c #D29B0A",
"F. c #D78E17",
"G. c #DC9618",
"H. c #E88808",
"J. c #F58D05",
"K. c #F58708",
"L. c #E9940C",
"P. c #F79707",
"I. c #F59C01",
"U. c #F9940A",
"Y. c #FB9B0A",
"T. c #E98719",
"R. c #F58616",
"E. c #E99613",
"W. c #F69414",
"Q. c #CCA202",
"!. c #CBA704",
"~. c #D5A806",
"^. c #D3A40A",
"/. c #D3AC0A",
"(. c #CDB60B",
"). c #D9B508",
"_. c #D9A512",
"`. c #ECA509",
"'. c #F5A502",
"]. c #FAA405",
"[. c #F3AB02",
"{. c #FBAB03",
"}. c #F3A509",
"|. c #FCA608",
" X c #FBAC0A",
".X c #E8B80A",
"XX c #F4B303",
"oX c #FBB404",
"OX c #F6BB05",
"+X c #FABB06",
"@X c #FEB50A",
"#X c #F5B90A",
"$X c #FBBC0C",
"%X c #E7A919",
"&X c #FDAB17",
"*X c #F9B812",
"=X c #C9952D",
"-X c #C8AD2A",
";X c #D4B731",
":X c #EDAD22",
">X c #EAC909",
",X c #F7C705",
"<X c #F9CD06",
"1X c #FDC20B",
"2X c #F5CB0A",
"3X c #FACB0C",
"4X c #EDD406",
"5X c #F6D304",
"6X c #FAD503",
"7X c #F5D903",
"8X c #FCDA04",
"9X c #F6D30A",
"0X c #FBD50A",
"qX c #FDDB0A",
"wX c #EBC318",
"eX c #FAC815",
"rX c #FCD212",
"tX c #F8D715",
"yX c #FDE204",
"uX c #FEE30D",
"iX c #FEEA0C",
"pX c #FFF309",
"aX c #ECEC19",
"sX c #FDE213",
"dX c #FEEA13",
"fX c #FAE21C",
"gX c #FFF518",
"hX c #DDC832",
"jX c #FFDA23",
"kX c #FFE628",
"lX c #FFF927",
"zX c #FFFF3C",
"xX c #CE9F58",
"cX c #D2AE46",
"vX c #CDBC63",
"bX c #F3D947",
"nX c #E3CF63",
"mX c #0B6FAE",
"MX c #327CA2",
"NX c #0099DB",
"BX c #2CE8F5",
/* pixels */
"O O O O O O O O O O O O O O O O O O O O O O O O O O O O O O O O O O O > > O O O O O O O O O O O O O O O O O O O O O O O O O O O ",
"O O O O O O O O O O O O O O O O O O O O O O O O O O O O O O O O O O O O O O O O O O O O O l O O O O O O O O O O O O O O O O O O ",
"O O O O O O O O O O O O O O O O O O O l O O O O O O O O O O NXO O O O O O O O O O O O O O O O O O O O O O O O O O O O O O O O O ",
"O O O O l O O O O O O O O O O O O O O O O O O O O O O O O mXBXmXO O O O O O O O O O O O O O O O O O O O O O O O O O NXO O O O O ",
"O O O O O O O O O O O O O O O O O O O O O O O O O O O O O O NXO O O O O O O mXO O O O O O O O O O O O mXO O O O O O O O O O O O ",
"O O O O O O O O O O O O O O O O O O O O O O O O O O O O O O O O O O O O O O O O O O O O O O O O O O O O O O O O O O O O O O O O ",
"O O O O O O O O O O O O O O O O O O O O O O O k O O O O O O O O O O O O O O O O O O O O O O O O O O O O O O O O O O O O NXO O O ",
"O O O O O O O O O O O O O O O O O O O O O O O O O O O O O O O O O O O O O O O O O O O O O O O O O O O O O O O O O O O O O O O O ",
"O O O O O O # O O O O O O O O O O O O O O O O O O O # O O O O O O O O O O O O O O O O O O O O O O O O O O O l O O O O O O O O O ",
"O O O O O O O O O O O O O O l O O O O O O O O O O O O O O O O O O O O O O O O O O O O O O O O O O O O O O O O O O O O O O O O O ",
"O O O O O O O O O O O O O O O O O O O O O O O O O O O O O O O O O O O O O O O O O O O O O O O O O O O O O O O O O O O O O O O O ",
"O O O O O O O O O O O O O < d O O O O O O O 2 , O O O , r r r a 2 o o o o 1 O O O O NXO : O O O O O O O O O O O O O O O O O O O ",
"O O O O O O O O O O O O l d vX@ O mXO O O , nX2 O O O j bXhXhXhXhXl.x.-X=Xx.* O O O @ = h.% O O O O O O $ $ # O O O O O O O O O ",
"O O O O O O O O O O O O O < z O O O O O O + x O > k. .G.Y.P.I.P.P.e.e.w.a.0.N 8 t O 2 =Xw O O O O O O # k k k # O O O O O O O O ",
"O O O O O O O O O O O O O O O O O O O O O O O + z.lXgX'.u.a.a.a.a.a.#.U U R #.f.F.X ..x O O O O O O = 3 k l l k # O O O O O O O ",
"O O O O O O O O O O O O O O O O O * Z @ O O O x.pX5X5X9X2XrX0X0X9XtX=.K ^ H R 5.n.G.2 O O O O O O O q j.3 l mXl k # O O O O O O ",
"O O O O O O O O O O O O O O O O O y bXO ; S c A.pX5X5X8X5X5X6X6X5X9X#X*XT.m R ;.6.m.[ X...O O O O O % % $ > l l k # O O O O O O ",
"O O O O O O O O O O O O O O O O @ < f 5 Z U.s.`.yX6X6X8X7XqXqXqX8X6XiXpX2Xt.T P R 4.6.a.v.g O O z % O O O # k k k # O O O O O O ",
"O O O O O O O O O O O O O O O % @ O O F W.aXdXqX8X5X6X8X6X2X3X2X<X7X5X,X7XgXr.B P R R +.q.E.8 7 cX% O O O O # $ # O O O O O O O ",
"O O O O O O O O O k O O O O % j.: : _ J y.iX7XrX0X5X6XyX,X'.[.'.XX0XXXI.XX0XtX.Xv.B b P %.w.C.` O O O O O O O O O O O O O O O O ",
"O O O O O O O O O O O O O O O : @ . ^ R.2XyX8XOX@X+XOX+X@X X X{.@X1X{.I.'.{.OX3XwXv.y.;.P #.H.` O O O O O O O O O O O O O O O O ",
"O O O O O O O l O O O O O O O O O v f.tXuXOX<XXXP.K.U.U.J.U.U.P.K.a.}.$X+XoXI.oX3X/.).n.b R e.] e O O O O O O O O O O O O O mXO ",
"O O O O O O O O O O O O O O O O M R.fX7XOXI.P.&XK.1.2.2.1.1.1.p.>.F %XiX8XqX#X'.'.B.(.t.B @.5.C.F.* O l O O O O O O O O O O O O ",
"O O O O O O O O O O O O O O % C R.tXqXXX{.Y.i.i.s.2.^ K ~ ~ ! ~ K H _.yX5X5XrX1XI.}.~.^.S.' w._.q.[ f @ O O O O O O O O O O O O ",
"O O O O O O O O O O O O O O O g.@X8X,X@XY.s.s.) / ( T.W.W.L.U.W.W.E.2X8X8X6X0X6X,X1XC.c.A.$.%.r.4.H.8 O O O O O O O O O O O O O ",
"O O O O O O O O O O O O O & s :X].J.P.P.s.2.>.3.<.6.tXgXuXuXuXuXsXsX6X<X6X0X<X6X8XuX^.8.8.4.%.O.R m.p 1 @ O O O O O O O O O O O ",
"O O O O O O O O O O O O O t zXoXs.1.1.p.p.2.L %XgXqX6X8X6X5X6X6X8X6X8X6X6X8X6X6X6XqX).c.8.w.n.0.$.7.m.o.u O O O O O O O O l O O ",
"O O O O O O O O O O O O O r lXK.p.2.K ~ K :.:X0XyX6X6XyXqX8XqXqX8X6X6X<X8X7X6X8X6X7XqX>XA.V *.G.n.b.5.' e O O O O O O O O O O O ",
"O O O O O O O O O O O O O 2 eXp.>.<.T.a.a.E.qX8X6X5X5X2X#XXX#X+X,X0X9X5X8X8X6XqXqXqXiX4Xv.-.@.@.$.b.0.` 1 O O O O O O O O O O O ",
"O O O O O O O O O O O O O o eXs./ <.gXiXiXiX6X5X7X6X0X+XI.'.'.'.[.<X5X,X<X<X<X3X#X@X1X%X7.L.;.D D ;.6.Z MXO O O O O l O O O O O ",
"O O # O O O O O O O O O O a kXs./ <.qX7X8XqX0X0X8X8X6XoX].'. X X].[. X].].]. XJ.,.,.u.u.8.b.6.E H H I C 0 @ O O O O O O O O O O ",
"O O O O O O O O O O O O O a lXa.K <.tXqX2X[.XXXXoXXX+X@XU.s.s.s.u.i.,.K.].|.a.,.,.*X`.0.+.+.%.=.#.I F C : O O O O O O O O O O O ",
"O O O O O O O O O O > O O t jXK.6.E.qX,XoX[.[.{.{.I.J.U.K.1.) u.L.K.K.`.1X+X`.L.}.dX(.l.[ 9.*.Y W L D C 0 O O O O O O O O O O O ",
"O O O O O O O O O O O O O t $X{.eXdXrX[.I.Y.P.|.].U.1.2.2.2.W F.gXuXuX8X8XqXrXrXrXeXA.v.F.:X;.b L E T Z 0 O O O O O O O O O O O ",
"O O O O O O O O O O O O O 7 eX].3X<X'.@XK.i.p.p.s.p.U ! K U :XtX6X6X6X5X8XsXK.i.a.=.Y B B P G P y.G.%XX., O O O O O mXO O O O O ",
"O O O O O O O O O O O O + X &X].$X1X].K.s.2.^ ~ / ( E.E.W.E.6X8X<X5X9X7X.Xm.2.^ L n @.=.*.%.&.r.b.$.H.-X, O O O O O O O O O O O ",
"O O O O l O O O O O O O < f g L.L.H.P.s.>.>.d.d.<.f.sXpXiXuX8X6X8X8X7XyX*Xu.^ U E R 0.S.b.C.C.M.m.I A s @ O l O O O O O O O O O ",
"O O O O O O O O O O O O vX..O ] =.#.2.p.( #.kXdXsXqX5X6X5X6X6X6X<X5X8X8XeXd.I @.G.c.b.8.c.D./.B.b.( 4 O mXO O O O O O O O O O O ",
"O O O O O O O O O O O O - O O x.6.Y H b f.jX8X6X8X9X5X7X6X5X9X9X5X8X8XiXeX%.G E M.V.Z.B.N.Q./.^.n.#.0 O mXO O O O O O O O O O O ",
"O O O O O O O O O O O O O O O 1 ` e.=.E F.4X).).2XqX8XyX8XqXuXuX9X)..X_.y.%.G E m.^.^.!.!.^.A.6.3.i $ NXBXNXO O O O O O O O O O ",
"O O O O O O O O O O O O O O O O t X.q.b.M.M.B.l.).2X>X>X>X>X>X2X.Xl./.7.P W R &.n.D.Q.Q.Q./.r.B i k > O NXO O O O O O O O O O O ",
"O O O O O # O O O O O O O O O O O : ' 5.C.!.Q.Z.Q.N.M.D.B.V.N.B.V.^._.8.T B 6.m.8.B.!.V.Q./.6.c k k > O mXO O O O O O O O O O O ",
"O O O O O O O O O O O O O O O O O * ;.#.8.).Q.Q./.D.' $.$.4.D.).V.4.4.V P ;.7.c.Q.Q.Q.!.Q.C.3.M # # O O O O O O O O O O O O O O ",
"O O O O O O O O O O O O O O O O O @ y ' 6.n.C.C.Z.m.5.4.%.O.r.n.4.Y =.%.&.n.M.Z.!./.Q.M.A.d.C = O O , f & O O O O NXO O O O O O ",
"O O O O O O O O O O NXO O O O = @ O O i @.%.0.9.7.8.8.n.7.%.+.O.P F r.S.m.c.V.~.Q.A.q.0.6.M O O O O ..;Xo O O O O O O O O l O O ",
"O O O O O O O O O mXBXmXO O O | y O O O 5 d.;.O.5.c.8.q.n.w.m.@.b G 4.V.^.Q.Q./.A.P E -.' X O O O O j =Xo O O O O O O O O O O O ",
"O O O O O O O O O O NXO O O O = $ O O O O = . ' <.$.m.m.b.q.8.9.4.4.7.M.!.Z.M.C.m.U 5 % * o.u O l O O < + O O O O O O O O O O O ",
"O O O O O O O O O O O O O O O O O O O x 2 O O 1 ' <.u.5.7.v.M.D.D.D.M.Q.Z.&.6.5.@.9 O O + ..u O O O O O O O O O O O O O O O O O ",
"O O O O O O O O O O O O O @ @ O O O O nXz.> O O : } ' R %.e.F.S.S.S.A.L.y.n V A 6 O O O O O O O O O O O O O O O O O O O O O O O ",
"O O O O O O O O O O O O O d xX@ O O O O h cX$ O O O   { 3.U E E Q T E T Q Q 0 O O O O O O O O O O O O O O O O O O O O O O O O O ",
"O O O O O O O O O O O O O < u % O O O O h bXO k # # $ 3 q 0 ; 4 0 0 ; ; 4 0 # O O O O O O O O O O O O O O O O O O O O O O O O O ",
"O O O O O O O O O O O O O O O + O O O O t ..O $ k k k # O O O O O O = O O O O O O O O O l O O O O O O O O O O O O O O O O O O O ",
"O O O O O O O O O O O O O O O O O O O O O O O # k mXk # O O O O O   h.i O O O O O O O O O O O O O O O O O O O O O O O O O O O O ",
"O O O O O O O O O O O O O O # $ # O O O O O O # k k k # O O O O O O q ; O O O O O O O O O O O O O O O O O l O O O O O O O O O O ",
"O O O O O O O O l O O O O # k k k # O O O O O # # # # k O O O O O l O O O O O O O O O O O O O O O O O O O O O O O O O O O O O O ",
"O O O O O O O O O O O O # l k l k # O O O O # O O O O O # O O O O O O O O O O O O O O O O O O O O O O O O O O O O O O O O O O O ",
"O O O O O O O O O O O # k k k k k # O O O O O O O O O O O # O O O O O O O O O O O O O O O O O O O l O O O O O O O O O O O O O O ",
"O O O O O O O O O O O # k l k l # O O O O O O O O O O O O O O O O O O O O O O O O O O O O O O O O O O O O O O l O O O O O O O O ",
"O O O O O O O O O O O # l k k # O O O O O O O O O O O O O O O O O O O O O O O O O O O O O O O O O O O O O O O O O O O O O O O O ",
"O O O O O O O O O O O O # # # O O O O O O O O O O O O O O O O O O O O O O O O O O O O O O O O O O O O O O O O O O O O O O O O O ",
"O O O O O O O O O O O O O O O O O O O O O O O O O O O O O O O O O O O O O O O O O O O O O O O O O O O O O O O O O O O O O O O O ",
"O O O O O O O O O O O O O O O O O O O O O O O O O O O O O O O O O O O O O O O O O O O O O O O O O O O O O O O O O O O O O O O O ",
"O O O O O O O O O O O O O O O O O O O O O O O O O O O O O O O O O O O O O O O O O O O # O O O O O O O O O O O O O O O O O O O O ",
"O O O O O O O O O O O O O O O O O O O O O O O O O O O O O O O O O O O O O O O O O O O O O O O O O O O O O O O O O O O O O O O O "
};
