/* XPM */
static char *result[] = {
/* columns rows colors chars-per-pixel */
"48 48 83 1 ",
"  c #381E23",
". c #422229",
"X c #4C2530",
"o c #562936",
"O c #602D3D",
"+ c #5D2D40",
"@ c #523547",
"# c #433E51",
"$ c #6B3043",
"% c #75344A",
"& c #6A3652",
"* c #663C54",
"= c #7F3850",
"- c #7E3D5F",
"; c #7A3E62",
": c #4D4157",
"> c #494D67",
", c #4E5D7E",
"< c #5D5574",
"1 c #6C4C6A",
"2 c #893B57",
"3 c #933F5D",
"4 c #844269",
"5 c #8E456F",
"6 c #994366",
"7 c #9B4569",
"8 c #8A577E",
"9 c #A04870",
"0 c #A64C79",
"q c #62648B",
"w c #597DAC",
"e c #7C7CAF",
"r c #9B4E82",
"t c #AD5082",
"y c #B3558C",
"u c #B0558F",
"i c #BA5995",
"p c #BC5B99",
"a c #85638E",
"s c #816F9E",
"d c #9A7AB9",
"f c #C05D9E",
"g c #C762A8",
"h c #CD66B1",
"j c #CE6BB7",
"k c #CE6CB8",
"l c #CF6FBC",
"z c #D875BC",
"x c #D074C2",
"c c #D477C2",
"v c #D176C5",
"b c #D97AC1",
"n c #DD7DC1",
"m c #D27DCD",
"M c #6380B2",
"N c #6E84B9",
"B c #7888BF",
"V c #5F8CC2",
"C c #768DC6",
"Z c #7394CF",
"A c #649CD9",
"S c #6FA0E0",
"D c #6AACF0",
"F c #DF86CC",
"G c #D381D3",
"H c #DC88D2",
"J c #D486D9",
"K c #D58ADE",
"L c #E58ED2",
"P c #E18FD8",
"I c #F9A3DC",
"U c #D68FE4",
"Y c #DF95E3",
"T c #DA92E4",
"R c #E398E3",
"E c #E89BE3",
"W c #EC9FE2",
"Q c #F1A2E2",
"! c #F5A5E2",
"~ c #F8A7E1",
"^ c #FAA8E1",
"/ c #FEABE1",
"( c None",
/* pixels */
"(((((((((((((((((((//////////(((((((((((((((((((",
"(((((((((((((((//////////////////(((((((((((((((",
"((((((((((((((URRRW/WRRRR!////////((((((((((((((",
"((((((((((((UUUUUUUUUTRRUUEQQERWQWRR((((((((((((",
"((((((((((UUQQQQYUUUE!//QYUUUQ/RE!////((((((((((",
"(((((((((~QQ////!QEUY////RUUUYRW^//////(((((((((",
"(((((((/////////////WRRRR!///////////////(((((((",
"((((((////////////////////////////////////((((((",
"((((((////////////////////////////////////((((((",
"(((((/////////////QQQEUUUUUUUUUUUYQ^///////(((((",
"((((/////////WRRRRUUUUUUUUUUUUUUEQQ^////////((((",
"((((///////WRTUUUUUUUUUUUUUUUUYQERRRRRR/////((((",
"(((//////!RRUUUUUUUUUUUUUUURR!!TUUUURRTUUE!//(((",
"(((/////////QYUUUUUUUYQQQQQ////!QQQQ//!QYUT!/(((",
"((///////////!QUUUYQQ!WRR!//////////////!QUY!/((",
"(/////QQQQQ^///////////WR!/^QQQQQ//////////WT/((",
"(////WUUUUUYW///////////!FnYUUUUUR!/////////!W/(",
"(///WTUUUUUUT!//////////bjhxxJUUUUY!/////////R/(",
"(///WTUUUUUUR!///////IHlhhhhhhlGGUUU!////////UQ(",
"/////!EUUYQQ/////////zhhhhhhhhhhhxxxcPR//////UQ/",
"//////^QQ!//////WRRRFhhhhhhhy00fhhhhhGURR!//WUQ/",
"^YUYQQQQQQQQQQYUUUUJlhhhgi9333333fhhhhGUUUUUUUUQ",
"QUmmUUUUUUUUUUUUUUJjhhhh9333333330hhhhlUUUUUUUUQ",
"QmjjJUxxxUUUUUUUUUlhhhhy3333333330hhhhhUUUUUUUUQ",
"LhhhGmlhhlKUUUUKGlhhhhhhf063333333ihhhhJjhhhhlGK",
"GhhlKmKGlhGUUUmlhhhhhhhhhhft333333ihhhhmJGhhhhhG",
"KGGJmjxxmGKmxxjhhhhhhhhhhhhg933333ihhhhjxJGGGGGK",
"Uxhhhhhhhhhhhhhhhhhhhhhhgii00006tighhhhhhhhhhhGU",
"Uxhhhhhhhhhhhhh00000000f933hhhhfiitfhhhhy0000hGU",
"(xhhhhhhhhy0yhy3333333tt333hhhhhhhfthhhf63333yG(",
"(xhhhhhfi3330033390yig933339ghhhhhhh0hhf06333yG(",
"(khf0fh033336y99igh03ti93333900000000hhhhfiiihv(",
"(hhi39hfiiiiigffhh0yifhft3333333333tfhy000hhhh((",
"((hi3=%5uiiiiiii9t9333tifhy00000fhfit33333t9ih((",
"(((i3o  X333333333t9333360000000006333333t93i(((",
"(((g9o   $3$o=3t336yi3333333333333333339it33i(((",
"((((03    OO   t33333iiiiiifhy333600yhft333i((((",
"((((p9O    XO  3333333333336fhiiifhh0-+$338d((((",
"(((((7%     O%5i933333333333900-&-0-o. o3sC(((((",
"((((((Z*.      X%%%5u3332X   O%        @ZD((((((",
"((((((DZMO          X33t%     5        VDD((((((",
"(((((((DDN#          $3iX    ;r       ,DD(((((((",
"(((((((((DDe#          Ooooo4r      <ZD(((((((((",
"((((((((((DDA1X         oooo.    X%qDD((((((((((",
"((((((((((((DZMO                OMBS((((((((((((",
"((((((((((((((DDea:o.    Xoo:>aZDD((((((((((((((",
"((((((((((((((((DDSBMwwwwNBBSDDD((((((((((((((((",
"(((((((((((((((((((DDDDDDDDDD((((((((((((((((((("
};
