/* XPM */
static char *result[] = {
/* columns rows colors chars-per-pixel */
"48 48 227 2 ",
"   c #381E23",
".  c #392126",
"X  c #3A242A",
"o  c #3A282D",
"O  c #3B2B31",
"+  c #3C2E34",
"@  c #3E2E3A",
"#  c #3D3138",
"$  c #3D353B",
"%  c #3E383F",
"&  c #412124",
"*  c #4A2325",
"=  c #43272B",
"-  c #4B2729",
";  c #4C2A2C",
":  c #532627",
">  c #522C2D",
",  c #552C2E",
"<  c #5C2928",
"1  c #5D2C2B",
"2  c #5B2F2E",
"3  c #442E32",
"4  c #4C2D30",
"5  c #4D3231",
"6  c #4D3033",
"7  c #4E3337",
"8  c #463439",
"9  c #48343A",
"0  c #4F3A3E",
"q  c #533030",
"w  c #563334",
"e  c #543637",
"r  c #5E3232",
"t  c #5F3431",
"y  c #5F3636",
"u  c #50333C",
"i  c #563D3E",
"p  c #58393B",
"a  c #652B29",
"s  c #6E2E2A",
"d  c #64322F",
"f  c #6F312E",
"g  c #77312C",
"h  c #673230",
"j  c #683837",
"k  c #6C3B36",
"l  c #603939",
"z  c #6C3D3A",
"x  c #793732",
"c  c #713934",
"v  c #703835",
"b  c #773A35",
"n  c #70413E",
"m  c #79423B",
"M  c #7E4039",
"N  c #3F3441",
"B  c #3F3B42",
"V  c #473A40",
"C  c #413B48",
"Z  c #513A43",
"A  c #433E51",
"S  c #574345",
"D  c #4C4052",
"F  c #444855",
"G  c #4E4E55",
"H  c #464A5E",
"J  c #604242",
"K  c #644746",
"L  c #6A4D49",
"P  c #6D4F48",
"I  c #744642",
"U  c #704B47",
"Y  c #754448",
"T  c #7C4F49",
"R  c #785A4E",
"E  c #674855",
"W  c #704B57",
"Q  c #474E62",
"!  c #494D67",
"~  c #485165",
"^  c #495469",
"/  c #4A546E",
"(  c #5D5A68",
")  c #4C5A75",
"_  c #4E5D7E",
"`  c #7F5D6F",
"'  c #4D617C",
"]  c #57607F",
"[  c #6A6E75",
"{  c #6B747C",
"}  c #80332D",
"|  c #89362E",
" . c #813730",
".. c #833E36",
"X. c #8D3B32",
"o. c #913F35",
"O. c #81403A",
"+. c #944134",
"@. c #90463B",
"#. c #954439",
"$. c #9C4A3B",
"%. c #9E4C3A",
"&. c #99483C",
"*. c #97513E",
"=. c #A2503E",
"-. c #864344",
";. c #804A43",
":. c #864D41",
">. c #8F4C41",
",. c #8D4E44",
"<. c #904A44",
"1. c #9D4D40",
"2. c #88534A",
"3. c #88594A",
"4. c #995246",
"5. c #9C5846",
"6. c #915248",
"7. c #95574B",
"8. c #965F4F",
"9. c #825059",
"0. c #A15143",
"q. c #A45342",
"w. c #A65542",
"e. c #A55647",
"r. c #A95641",
"t. c #AA5945",
"y. c #A15B4D",
"u. c #A95A4A",
"i. c #AE5E49",
"p. c #AD5F4E",
"a. c #B15F48",
"s. c #8B6452",
"d. c #906251",
"f. c #9D6E56",
"g. c #A3624B",
"h. c #B46147",
"j. c #B2624C",
"k. c #B8664A",
"l. c #B9694F",
"z. c #BC6A4E",
"x. c #BE6C4D",
"c. c #B46551",
"v. c #B66750",
"b. c #BA6B53",
"n. c #B97858",
"m. c #BD7C5B",
"M. c #825A62",
"N. c #8A5960",
"B. c #926267",
"V. c #9E7072",
"C. c #A66860",
"Z. c #AE786F",
"A. c #C06F52",
"S. c #C17256",
"D. c #C47355",
"F. c #C97753",
"G. c #CD7B57",
"H. c #C87859",
"J. c #CE7E5B",
"K. c #C3835E",
"L. c #C9805D",
"P. c #D1805A",
"I. c #D4815A",
"U. c #D1815C",
"Y. c #D5845E",
"T. c #DC8B61",
"R. c #DE8C60",
"E. c #E29163",
"W. c #E99766",
"Q. c #4F6082",
"!. c #516A8C",
"~. c #526D8F",
"^. c #5A6D8D",
"/. c #546D95",
"(. c #5E7395",
"). c #5F7A9C",
"_. c #6B6C89",
"`. c #726883",
"'. c #7B6A84",
"]. c #78789A",
"[. c #577AA3",
"{. c #597DAC",
"}. c #627FAD",
"|. c #83748B",
" X c #728095",
".X c #5A80AF",
"XX c #5B83B3",
"oX c #5C86B6",
"OX c #6180A3",
"+X c #6B82AE",
"@X c #758DA3",
"#X c #7485AF",
"$X c #6C85B2",
"%X c #7C8EB6",
"&X c #738AB9",
"*X c #748EB9",
"=X c #5F8CC2",
"-X c #6093C9",
";X c #7192C5",
":X c #7B98C5",
">X c #7094C9",
",X c #6D9FDA",
"<X c #74A0CA",
"1X c #71A3DE",
"2X c #6AACF0",
"3X c #74B2F0",
"4X c #7EB9F0",
"5X c #8F8196",
"6X c #968B9A",
"7X c #A38485",
"8X c #B58C84",
"9X c #8196AC",
"0X c #9C97A8",
"qX c #8892B0",
"wX c #8092BA",
"eX c #9C9EB0",
"rX c #96A7B0",
"tX c #88ADCA",
"yX c #B7BFC6",
"uX c #88BFF0",
"iX c #A9C6DB",
"pX c #92C6F0",
"aX c #9CCCF1",
"sX c #A6D3F1",
"dX c #B0D9F1",
"fX c #C4E6F1",
"gX c None",
/* pixels */
"gXgXgXgXgXgXgXgXgXgXgXgXgXgXgXgXgXgXgXW.W.W.W.W.W.W.W.W.W.gXgXgXgXgXgXgXgXgXgXgXgXgXgXgXgXgXgXgX",
"gXgXgXgXgXgXgXgXgXgXgXgXgXgXgXW.W.W.W.W.W.W.W.W.W.W.W.W.W.W.W.W.W.gXgXgXgXgXgXgXgXgXgXgXgXgXgXgX",
"gXgXgXgXgXgXgXgXgXgXgXgXgXgXW.W.W.W.T.S.T.W.W.W.W.W.W.W.W.W.T.S.T.W.gXgXgXgXgXgXgXgXgXgXgXgXgXgX",
"gXgXgXgXgXgXgXgXgXgXgXgXW.W.T.H.p.b.J.W.W.W.W.T.b.b.H.Y.Y.Y.J.W.W.W.W.W.gXgXgXgXgXgXgXgXgXgXgXgX",
"gXgXgXgXgXgXgXgXgXgXW.W.W.W.S.b.Y.E.W.J.T.W.W.S.p.p.p.p.p.p.W.W.W.T.T.W.W.W.gXgXgXgXgXgXgXgXgXgX",
"gXgXgXgXgXgXgXgXgXW.W.W.W.W.T.T.W.W.T.c.Y.W.W.S.Y.Y.b.p.H.Y.J.W.W.Y.b.S.W.W.W.gXgXgXgXgXgXgXgXgX",
"gXgXgXgXgXgXgXW.W.W.S.H.W.T.E.W.W.W.W.l.u.Y.j.P.W.W.W.J.W.W.T.J.Y.c.T.W.W.T.E.W.W.gXgXgXgXgXgXgX",
"gXgXgXgXgXgXW.W.W.S.c.1.a.c.Y.W.W.W.l.q.u.p.e.v.W.W.J.W.W.W.W.a.e.S.W.W.W.S.b.J.W.W.gXgXgXgXgXgX",
"gXgXgXgXgXgXW.W.J.Y.Y.j.G.b.b.W.W.J.u.u.1.1.H.Y.W.J.c.J.W.W.T.$.0.S.W.W.W.S.p.c.T.W.gXgXgXgXgXgX",
"gXgXgXgXgXW.E.H.T.W.W.W.W.W.a.1.p.b.W.W.W.a.W.W.W.W.J.W.J.c.J.W.J.W.W.T.z.&.e.p.p.H.W.gXgXgXgXgX",
"gXgXgXgXW.W.E.E.W.W.W.W.W.W.S.p.p.Y.W.W.W.S.W.W.W.J.T.W.W.S.W.W.W.W.W.T.F.P.b.Y.b.p.W.W.gXgXgXgX",
"gXgXgXgXW.W.J.W.W.W.W.W.W.J.J.H.H.E.W.W.W.J.T.W.I.$.G.W.W.a.W.W.W.W.J.T.W.W.S.W.T.b.J.W.gXgXgXgX",
"gXgXgXW.W.S.v.R.W.W.W.W.T.T.W.S.W.W.W.W.W.G.#.e.1.#.#.P.%.| %.n.8.x.I.W.W.T.H.J.W.J.p.Y.W.gXgXgX",
"gXgXgXW.J.c.u.w.I.W.W.W.W.W.W.a.W.J.W.W.W.b.p.p.e.p.p.0.| | | x v 3.W.W.W.T.E.W.W.W.p.b.T.gXgXgX",
"gXgXW.W.S.p.p.c 5.W.W.W.W.W.W.+.l.J.T.T.f.1.p.p.p.p.p.o.| | | | | R W.W.W.W.W.J.W.W.p.p.Y.W.gXgX",
"gXW.W.P.0.>.g a g t.E.W.E.G.%.| | h.s.0 x | | &.0.>.d #X| F.I.r.+.%.R.W.W.W.S.W.l.u.p.p.p.W.gXgX",
"gXW.W.i.| g g &.o.p.b.S.=.X.| | | &.;. .| | | | | g } #X| F.W.W.I.| %.I.W.W.S.l.q.u.p.5XV.J.W.gX",
"gXW.W.0.| | o.u.#.p.p.p.0.o.| | | o.&.0.0.#X#X9.| | | #X| F.W.W.W.9.9.%.r.3.L u.u.p.wX5XC.S.W.gX",
"gXW.T.| | o.p.p.p.1.p.p.p.p.#.| o.e.p.p.#.| | 7XiXqX#X:XuX6XF.F.%.9.'.-.| | 0.V.5XwXp.p.p.p.Y.gX",
"W.W.S.| | 0.e.e.p.p.p.p.p.p.#.o.u.p.p.p.e.x p _.N.0.0.<.yXfXeX9.| | #X;X'.| |.V.p.p.p.1.e.p.Y.W.",
"W.W.S.| h.P.D.&.e.p.p.p.p.1.X.c p.p.p.p.p.0 B oXe.p.p.o.Z.8X0X;X#X#X,X2X,X#X'.p.p.p.e.k.P.H.Y.W.",
"W.W.r.x.W.W.W.a.e.p.p.p.&.x 0 e y.p.p.p.e.B oX' 2.4.&.p.p.p.p.p.V.2X4XdXfXfX@XB l f *.W.W.F.z.E.",
"W.J.$.W.W.W.W.S.p.e.I K j p B $ i K #.e.e.U ^ F B 0 6.p.p.p.p.5X1X2XsXfXfXfXdX0 v f 5 K.W.P J m.",
"W.S.#.W.W.W.W.d.7.O.V + p x v y % B n u.p.y.S B v 0 e p.p.p.V.1X2X2XsXfXfXfXfXx | | $ :.r.l U L.",
"W.l.w.x.W.W.g.j v T p.T a | | | w % J u.p.y.S v | | , q M.;XoXoXoX-XpXsXsX<XoXY Y 0 p | | | 0.Y.",
"W.r.F.W.x.r.| p B p.p.p.| | | g 3 % V O.e.2.B 0 | | _..X~.' B B B F tX4X-XC $ ' -X^ p | | o.u.Y.",
"W.I.R.W.I.%.0.6.S T p.m | | '.+XXXoXoX$X%X*XoXoX#X#X,X! N o v v 4 o rX@XQ + % F ' [.^.x | #.p.Y.",
"S.W.W.W.W.S.p.p.p.B + - | p B B $ ~ !.# X O     # # X     s | | | 9 ).^ B + - p p V B B + #.Y.W.",
"U.W.W.W.W.d.p.p.T v v  .| p B o Q.!.#                   < } | | a [ { B B l  .| | p 0 v v #.Y.W.",
"gXW.W.W.W.R p.T z | | | | , o   {.' #                   s | | a 3 OXG l l v | | | , x | | =.E.gX",
"gXb.A.F.%.x B B v | | | | | : (.uXuX) N .   A ! # # X           {.V x | | j j | j , | | x S.W.gX",
"gXp.#.: : 8 B B v | | | | | : dXfXfXpXtXrX9X_ !                 H p | | | | x | | | | j V S.W.gX",
"gXp.#.<   X B + 7 | | | | a ] fXfXfXsX4X X( @   X # X           # V x | | j x | | | | , $ S.gXgX",
"gXgXp.| g s             @ =X! fXfXfXpX=XA . + % B B B o o o B + 7 | | j B v | | | | v + i W.gXgX",
"gXgXgX&.:     < s E {.{./.! @ aXfXaX=X@   . . # B B B B + $ B B v | | | + v | | | | 0 U y.gXgXgX",
"gXgXgX|.:     * g Z / ! A     (.uX3X{.        # B B B $ . X B + f | | j o 0 x | | j 2.y.p.gXgXgX",
"gXgXgXgX].u       h =               ! !         B B $ B o   . o o s * O B B B o i ,.| B.gXgXgXgX",
"gXgXgXgX2X=X      : g M k           @ /.A       o o + B $ X $ B B O     o o o o b X.9.>XgXgXgXgX",
"gXgXgXgXgX2X_     & : 2 @.>           {.!         O % B B $ B B B # O X # X     s | &XgXgXgXgXgX",
"gXgXgXgXgXgX2X/.u       t ..< *       # o       . + % B B $ X % B # ; 8 B o   : 9.;XgXgXgXgXgXgX",
"gXgXgXgXgXgX2X2X` <     t t * } 6 # # % o       . . X B B $ # y v s y V B o < }.,X2XgXgXgXgXgXgX",
"gXgXgXgXgXgXgX2X;X`.*   t t   : = o o $ o             + B B B 0 x x V B B r `.2X2XgXgXgXgXgXgXgX",
"gXgXgXgXgXgXgXgXgX2X].-.o.2     X $ $ + X + B B B o O B B B B B o & g | -.;X2XgXgXgXgXgXgXgXgXgX",
"gXgXgXgXgXgXgXgXgXgX2X;X'.g *   # B B o O B B B $ .   + B B B + . g | '.;X2XgXgXgXgXgXgXgXgXgXgX",
"gXgXgXgXgXgXgXgXgXgXgXgX,X#XW < X $ $ . # + B + X     . o o o 1 s #X#X,XgXgXgXgXgXgXgXgXgXgXgXgX",
"gXgXgXgXgXgXgXgXgXgXgXgXgXgX2X2X].` D : w : : : : : : : D ! ` ;X2X2XgXgXgXgXgXgXgXgXgXgXgXgXgXgX",
"gXgXgXgXgXgXgXgXgXgXgXgXgXgXgXgX2X2X,X#X#X| | | 9.#X#X#X,X2X2X2XgXgXgXgXgXgXgXgXgXgXgXgXgXgXgXgX",
"gXgXgXgXgXgXgXgXgXgXgXgXgXgXgXgXgXgXgX2X2X#X#X#X;X2X2X2X2XgXgXgXgXgXgXgXgXgXgXgXgXgXgXgXgXgXgXgX"
};
