/* XPM */
static char *result[] = {
/* columns rows colors chars-per-pixel */
"48 48 94 2 ",
"   c #2F453F",
".  c #374D40",
"X  c #3F5442",
"o  c #365053",
"O  c #3C5C66",
"+  c #475C43",
"@  c #4F6345",
"#  c #566B46",
"$  c #52634B",
"%  c #5E7248",
"&  c #456056",
"*  c #667A49",
"=  c #657E5B",
"-  c #446368",
";  c #5C7A6C",
":  c #52767D",
">  c #6E814B",
",  c #76894C",
"<  c #7C8D50",
"1  c #64826E",
"2  c #829053",
"3  c #879457",
"4  c #859059",
"5  c #8B9659",
"6  c #89995A",
"7  c #8D985B",
"8  c #8B9F5D",
"9  c #939B5E",
"0  c #999F62",
"q  c #8DA460",
"w  c #9EA366",
"e  c #95AD66",
"r  c #99AC67",
"t  c #9CAA68",
"y  c #9CB76D",
"u  c #A4A669",
"i  c #A2AE6B",
"p  c #AAAA6D",
"a  c #A4B36E",
"s  c #A0B56E",
"d  c #ACAF70",
"f  c #AEB573",
"g  c #B0BA76",
"h  c #B1BE77",
"j  c #B1BF78",
"k  c #B5BE78",
"l  c #B9BC78",
"z  c #A4C073",
"x  c #AAC377",
"c  c #B2C079",
"v  c #B3C57B",
"b  c #B0C77B",
"n  c #BBC27B",
"m  c #B5CB7E",
"M  c #C0C57E",
"N  c #49738E",
"B  c #507EA1",
"V  c #598291",
"C  c #729583",
"Z  c #719995",
"A  c #598FBD",
"S  c #5E91B6",
"D  c #6F9CA7",
"F  c #6699B8",
"G  c #6EA0B9",
"H  c #5D95C9",
"J  c #6DA4CC",
"K  c #6BA8DE",
"L  c #6AACF0",
"P  c #B7D081",
"I  c #B9D684",
"U  c #BBDB87",
"Y  c #C8CE84",
"T  c #C0D284",
"R  c #C4D084",
"E  c #C1DF8A",
"W  c #C8DB8A",
"Q  c #CCD989",
"!  c #CDDF8C",
"~  c #C2E08B",
"^  c #C6E28D",
"/  c #CCE68F",
"(  c #D7E18F",
")  c #D9E692",
"_  c #D1EA92",
"`  c #D7ED95",
"'  c #DEEA95",
"]  c #DAEC95",
"[  c #DCF198",
"{  c #E6F39A",
"}  c #E2F59A",
"|  c #E7F89D",
" . c #EDFCA0",
".. c None",
/* pixels */
"...................................... . . . . . . . . . .......................................",
".............................. . . . . . . . . . . . . . . . . . ...............................",
"............................ . . . . . . . . . . . . . . . . . . . .............................",
"........................ . . . . . . . . . . . . . . . . . . . . . . . .........................",
".................... . . . . . . . . . . . . . . . . . . . . . . . . . . . .....................",
".................. . . . . . . . . . . . . . . . . . . . . ./ / / `  . . . . ...................",
".............. . . . . . . . . . . . . . . . . . .} [ _ U U m m m m Q {  . . . . ...............",
"............ . . . . . . . . . . . . . . ./ / R M k g g g g p p p p c ]  . . . . . .............",
"............ . . . . . . .` / / / / W M M g g d p p p p p p p c m T ] |  . . . . . .............",
".......... .| [ [ U U [ _ U U U U U g g g g g n M M M / / E U ^ }  . . . . . . .} |  ...........",
"........ .` ^ U U U U [ U U U U U U U U U ^ [ |  . . . . ./ U [  . . . . . . . ./ ^  . .........",
"........ ./ U U U U U [ U U U U U U U U U /  . . . . . . ./ U [  . . . . . . .} E U `  .........",
"...... . ./ U U U / }  .U U U U U U U U U ^ [ |  . . .[ ^ U U U _  . . .[ | ` m m m m ]  .......",
"...... . .} [ [ [  . .` U U U U U U U U v g g n R / / U U U U U U / R M g n ' Y p p p T } ......",
".... . . . . . . . .` E U U U U U v g g d p p p d P v g g g g g P U g p p p l ( p p p f )  .....",
".. . .[ _ |  .} [ U U U I m m p p p p p p p p p p m g p p p p p p m p p p p p m p p p p c  .....",
".. . .^ U ^ / E U P g g 8 3 3 3 3 w 3 3 3 9 p p p f v p p p p p c f p p 9 p p m p p p p p / ~ ..",
".. . .U U U U U v f 9 3 , , , , , 0 , , , < 3 3 p p m m m f m m I p p p w p p m p 9 3 3 3 y _ ..",
".. ./ U U U m c d 7 , , , , , , 0 3 , , , , , , , , , 9 p p d v f u 7 w d g ! Y w 2 , , , 3 Q ..",
" .` E U U v p f v , , , , , , , 0 3 , , , , , , , , 7 p p p v d p 7 u p v g g c 3 , , , , 3 m j ",
" ./ U U U g p p m , , , , , , , 0 w , , , , , , , 7 u m m m f p p 3 p p m p p c i 2 , , , 3 m g ",
"[ P m U U v p p m , , , , , , , , 7 p 9 3 3 8 q v U U U P f p p 3 p p p m p p g U U P g g g g d ",
"[ r w U U U p p m , , , , , , , , , 9 p p m I U U U U P d p p 9 < p p p c m m P U U U U U U U P ",
"[ q 0 U U U c p m 7 , , , , , , , , 3 c m U U U U U v f p p w < , 9 p p d P U U U U U U U U U U ",
"] 8 7 g U U U U U p 9 3 , , 2 6 q a U U U U U U m f p p p w , , , , 7 u p p p m m I U U U I m I ",
"T 3 , d P U U U v f m m z z b P U U U U U U v r 9 p p p 9 < , , , , , 2 m m f p p f g g g f p m ",
"m 3 , 9 f P U U g P U U U U U U U U U U U g d w 3 p p w < , , , , , , e U U g p p p p p p p p f ",
"m 3 , 2 u p p p p U U U U U U U U P m f p p p p 2 0 2 , 2 3 3 w p p f P I 8 , 2 0 0 0 0 0 0 0 u ",
"h 3 , , 2 w p p p U U U U U U P g d p p p p p p , , 7 0 u p p p p m I U x < , , , , + + * , , 5 ",
"..3 , * + $ p p p v U U U U U f p p p p p p p 9 2 s b m m m m m m U U U t , , , , ,     X , 7 ..",
"..p 3       X 4 0 p c m m f 9 7 0 0 p p p 0 7 w v U U U U U U U U U P f 7 , , , , ,       + 7 ..",
"..p w         X * 3 w p p p p u 0 0 w 3 3 0 u p U U U U U U U U U P d p , , , , , #       + , ..",
"..p p @         X , 2 3 3 3 3 3 w p u 0 0 p p p U U U U U U U U v f p 9 , , , , # .       + ....",
"....p %       % * % > , , , , , , , 0 0 u p p p P U U m m m p p p u 2 , , , , @           , ....",
"......%     X @ .   X * , , , , , , , , 2 3 w p d g g p p p p 9 3 2 , , * + * @         @ ......",
"......%     + +       X * * , , , , , , , , 2 3 9 p p p p 9 3 < , , , , @ % > > X       % ......",
"........&   + +         # . @ % % > , , , , , , , , , , , , , , , % % X , , , , +   o H ........",
"........A O + +         . # X     X + + + + + + # , , , , , # # +       , , , * .   H L ........",
"..........A . # X         X # @                 . + * , , # + +       @ , , # X   N L ..........",
"............H = +             X > # + + + X         %       + +     X *       o H L ............",
"............L J 1               % # + + + @ % X     X       + * X   % #       H L L ............",
"..............L J @           X > +       . * +   @ X       . * * @ % +     N L L ..............",
"..................L D : + + + @ X           @ > + # X             % % X : J L ..................",
"....................L L Z , # X               X + .                 @ V L L ....................",
"........................K G S @                                   ; F K ........................",
"............................L L L B - + + + + + + + + + + - C C J L ............................",
"................................L L K G G G G G G G G G G K L L ................................",
"......................................L L L L L L L L L L ......................................"
};
