/* XPM */
static char *result[] = {
/* columns rows colors chars-per-pixel */
"40 40 57 1 ",
"  c #090203",
". c #1D150A",
"X c #2E2210",
"o c #4E1017",
"O c #431419",
"+ c #4B3719",
"@ c #58411D",
"# c #624921",
"$ c #734827",
"% c #7A5629",
"& c #7E5D2A",
"* c #56534D",
"= c #735F61",
"- c #7C6F65",
"; c #767067",
": c #9C7334",
"> c #A37837",
", c #BB7C3E",
"< c #BD4D5B",
"1 c #B85C67",
"2 c #D8764C",
"3 c #DDA653",
"4 c #E4A84C",
"5 c #FBB954",
"6 c #FBBB59",
"7 c #FBBC5C",
"8 c #EBAB7D",
"9 c #FBC065",
"0 c #808080",
"q c gray75",
"w c #FCCB80",
"e c #FCCC81",
"r c #FCCC82",
"t c #FCCE87",
"y c #FCD290",
"u c #FDD495",
"i c #FDD599",
"p c #FDD8A0",
"a c #FDDDAB",
"s c #FDE2B9",
"d c #CACACA",
"f c #EED1D4",
"g c #FEECD0",
"h c #FEECD1",
"j c #FEEED4",
"k c #FAE8DA",
"l c #FEF0DB",
"z c #F8EBED",
"x c #FEF2E0",
"c c #FFF8EE",
"v c #FFF9F1",
"b c #FFFCF6",
"n c #FFFDFA",
"m c #FEFDFD",
"M c #FFFFFE",
"N c white",
"B c None",
/* pixels */
"BBBBBBBBBBBBBBBBBBBBBBBBBBBBBBBBBBBBBBBB",
"BBBBBBBBBBBBBBBBBBB9cBBBBBBBBBBBBBBBBBBB",
"BBBBBBBBBBBBBBBBBBB9cBBBBBBBBBBBBBBBBBBB",
"BBBBBBBBBBBBBBBBBB59cNBBBBBBBBBBBBBBBBBB",
"BBBBBBBBBBBBBBBBB559cNBBBBBBBBBBBBBBBBBB",
"BBBBBBBBBBBBBBBBB559cNBBBBBBBBBBBBBBBBBB",
"BBBBBBBBBBBBBBBBB559cNBBBBBBBBBBBBBBBBBB",
"BBBBBBBBBBBBBBBBB559cNNBBBBBBBBBBBBBBBBB",
"BBBBBBBBBBBBBBBB5559cNNNBBBBBBBBBBBBBBBB",
"BBBBBBBBBBBBBBBB5559cNNNBBBBBBBBBBBBBBBB",
"BBBBBBBBBBBBBBBB5559cNNNBBBBBBBBBBBBBBBB",
"BBBBBBBBBBBBBBB55559cNNNNBBBBBBBBBBBBBBB",
"BBBBBBBBBBBB55555557ipgNNNNNBBBBBBBBBBBB",
"BBBBBBBBBBB5555555555yjNNNNNNBBBBBBBBBBB",
"BBBBBBBBBBB555555556rlNNNNNNNBBBBBBBBBBB",
"BBBBBBBBBBB55555543wvNNNNNNNNBBBBBBBBBBB",
"5BBBBBBBB555555555555NNNNNNNNNNBBBBBBBBN",
"5555555555555555555NNNNNNNNNNNNNNNNNNNNN",
"B55555555555555555NNNNNNNNNNNNNNNNNNNNNB",
"BB555555555555555NNNNNNNNNNNNNNNNNNNNNBB",
"BBBB555555555555NNNNNNNNNNNNNNNNNNNNBBBB",
"BBBBBBBBB5555555NNNNNNNNNNNNNNNBBBBBBBBB",
"BBBBBBBBBBB555NNNNNNNNNNNNNNNBBBBBBBBBBB",
"BBBBBBBBBBB0qNNNNNNNNNNNNNNNNBBBBBBBBBBB",
"BBBBBBBBBBBNNNNNNNNNNNNNNNNNNBBBBBBBBBBB",
"BBBBBBBBBBBNNNNNNNNNNNNNNNNNNBBBBBBBBBBB",
"BBBBBBBBBBBBNNNNNNNNNNNNNNNNBBBBBBBBBBBB",
"BBBBBBBBBBBBNNNNNNNNNNNNNNNNBBBBBBBBBBBB",
"BBBBBBBBBBBNNNNNNNNNNNNNNNNNNBBBBBBBBBBB",
"BBBBBBBBBBBNNNNNNNNNNNNNNNNNNBBBBBBBBBBB",
"BBBBBBBBBBNNNNNNNNNNNNNNNNNNNNBBBBBBBBBB",
"BBBBBBBBBBNNNNNBNNNNNNNNBNNNNNBBBBBBBBBB",
"BBBBBBBBBNNNNNBBBBBNNBBBBButaNNBBBBBBBBB",
"BBBBBBBBBNNNNBBBBBBBBBBBBBB5tNNBBBBBBBBB",
"BBBBBBBBNNNNBBBBBBBBBBBBBBBBrhnNBBBBBBBB",
"BBBBBBBNNNNBBBBBBBBBBBBBBBBBB9xnBBBBBBBB",
"BBBBBBBNNNBBBBBBBBBBBBBBBBBBBB9hBBBBBBBB",
"BBBBBBBNNBBBBBBBBBBBBBBBBBBBBBBesBBBBBBB",
"BBBBBBBBBBBBBBBBBBBBBBBBBBBBBBBBBBBBBBBB",
"BBBBBBBBBBBBBBBBBBBBBBBBBBBBBBBBBBBBBBBB"
};
