/* XPM */
static char *result[] = {
/* columns rows colors chars-per-pixel */
"40 40 100 2 ",
"   c #090203",
".  c #0C0303",
"X  c #0A0703",
"o  c #0E0A05",
"O  c #120506",
"+  c #180706",
"@  c #181108",
"#  c #191108",
"$  c #191208",
"%  c #191308",
"&  c #1D150A",
"*  c #3B0C12",
"=  c #2E2210",
"-  c #2F2210",
";  c #3C2C14",
":  c #4E1017",
">  c #4F1414",
",  c #57111A",
"<  c #57121A",
"1  c #5A131A",
"2  c #571D1B",
"3  c #681B1B",
"4  c #711C1D",
"5  c #741D1D",
"6  c #741E1E",
"7  c #4B3719",
"8  c #4B3819",
"9  c #6D261D",
"0  c #731722",
"q  c #7A1824",
"w  c #7A1924",
"e  c #7E1A25",
"r  c #58411D",
"t  c #5C441F",
"y  c #624921",
"u  c #634921",
"i  c #734827",
"p  c #7A5629",
"a  c #775828",
"s  c #7A5A29",
"d  c #7D5C2A",
"f  c #7E5D2A",
"g  c #7F6E55",
"h  c #992727",
"j  c #9E2829",
"k  c #A22929",
"l  c #A32D32",
"z  c #8B662E",
"x  c #9C7334",
"c  c #9D7334",
"v  c #A37837",
"b  c #BB7C3E",
"n  c #D34137",
"m  c #C07E3F",
"M  c #D87447",
"N  c #E77A49",
"B  c #BC8B3F",
"V  c #CF9945",
"C  c #DB9949",
"Z  c #E09B49",
"A  c #EA984F",
"S  c #EC994F",
"D  c #DCA249",
"F  c #DCA24A",
"G  c #E2A64C",
"H  c #E2A74C",
"J  c #E4A84C",
"K  c #F7B053",
"L  c #FBB954",
"P  c #FBBC5C",
"I  c #FBC065",
"U  c #FCC36E",
"Y  c #FCCB7F",
"T  c #9F9990",
"R  c #A59B8C",
"E  c #FCCC81",
"W  c #FCCC82",
"Q  c #FCCE87",
"!  c #FDD395",
"~  c #FDD599",
"^  c #FDD69B",
"/  c #FDD8A0",
"(  c #FDDBA8",
")  c #FDDCA9",
"_  c #FDDCAA",
"`  c #FDDDAB",
"'  c #FDE2B9",
"]  c #FEE7C4",
"[  c #FEE7C5",
"{  c #FEEACC",
"}  c #FEECD1",
"|  c #FEEED4",
" . c #FEF2E0",
".. c #FEF4E5",
"X. c #FEF5E5",
"o. c #FFF7EC",
"O. c #FFF8EE",
"+. c #FFFDFA",
"@. c white",
"#. c None",
/* pixels */
"#.#.#.#.#.#.#.#.#.#.#.#.#.#.#.#.#.#.#.#.#.#.#.#.#.#.#.#.#.#.#.#.#.#.#.#.#.#.#.#.",
"#.#.#.#.#.#.#.#.#.#.#.#.#.#.#.#.#.#.#.I O.#.#.#.#.#.#.#.#.#.#.#.#.#.#.#.#.#.#.#.",
"#.#.#.#.#.#.#.#.#.#.#.#.#.#.#.#.#.#.#.I O.#.#.#.#.#.#.#.#.#.#.#.#.#.#.#.#.#.#.#.",
"#.#.#.#.#.#.#.#.#.#.#.#.#.#.#.#.#.#.L I O.@.#.#.#.#.#.#.#.#.#.#.#.#.#.#.#.#.#.#.",
"#.#.#.#.#.#.#.#.#.#.#.#.#.#.#.#.#.L L I O.@.#.#.#.#.#.#.#.#.#.#.#.#.#.#.#.#.#.#.",
"#.#.#.#.#.#.#.#.#.#.#.#.#.#.#.#.#.L L I O.@.#.#.#.#.#.#.#.#.#.#.#.#.#.#.#.#.#.#.",
"#.#.#.#.#.#.#.#.#.#.#.#.#.#.#.#.#.L L I O.@.#.#.#.#.#.#.#.#.#.#.#.#.#.#.#.#.#.#.",
"#.#.#.#.#.#.#.#.#.#.#.#.#.#.#.#.#.L L I O.@.@.#.#.#.#.#.#.#.#.#.#.#.#.#.#.#.#.#.",
"#.#.#.#.#.#.#.#.#.#.#.#.#.#.#.#.L L L I O.@.@.@.#.#.#.#.#.#.#.#.#.#.#.#.#.#.#.#.",
"#.#.#.#.#.#.#.#.#.#.#.#.#.#.#.#.L L L I O.@.@.@.#.#.#.#.#.#.#.#.#.#.#.#.#.#.#.#.",
"#.#.#.#.#.#.#.#.#.#.#.#.#.#.#.#.L L L I O.@.@.@.#.#.#.#.#.#.#.#.#.#.#.#.#.#.#.#.",
"#.#.#.#.#.#.#.#.#.#.#.#.#.#.#.L L L L I O.@.@.@.@.#.#.#.#.#.#.#.#.#.#.#.#.#.#.#.",
"#.#.#.#.#.#.#.#.#.#.#.#.L L L L L L L P ~ / / [ @.@.@.@.#.#.#.#.#.#.#.#.#.#.#.#.",
"#.#.#.#.#.#.#.#.#.#.#.L L L L L L L L L L L L Y ] ] ] X.@.#.#.#.#.#.#.#.#.#.#.#.",
"#.#.#.#.#.#.#.#.#.#.#.L L L L L L L L L L L L L L L L ] @.#.#.#.#.#.#.#.#.#.#.#.",
"#.#.#.#.#.#.#.#.#.#.#.L L L L L L J V V V V J L L L L ] @.#.#.#.#.#.#.#.#.#.#.#.",
"L #.#.#.#.#.#.#.#.L L L L L L L L y o o o o u L L L L ] @.@.@.#.#.#.#.#.#.#.#.@.",
"L L L L L L L L L L L L x = = = = 2 w e j k 9 = = = = T @.@.@.@.@.@.@.@.@.@.@.@.",
"#.L L L L L L L L L L v f r   : < , , 1 4 5 6 6 3 . r g R ) ) X.@.@.@.@.@.@.@.#.",
"#.#.L L L L L L L L L 7 p b * 0 q 2 - - - - 9 k h > m p 8 L L ( { { { { o.@.#.#.",
"#.#.#.#.L L L L L L L 7 i M l O X u L L L L u X + n N i 8 L L L L L L L #.#.#.#.",
"#.#.#.#.#.#.#.#.#.L L 7 i A C @ a J L L L L J a # Z S i 8 L L #.#.#.#.#.#.#.#.#.",
"#.#.#.#.#.#.#.#.#.#.#.& p K G $ z L L L L L L z % H K p & #.#.#.#.#.#.#.#.#.#.#.",
"#.#.#.#.#.#.#.#.#.#.#.f d d s t B L L L L L L B t s d f f #.#.#.#.#.#.#.#.#.#.#.",
"#.#.#.#.#.#.#.#.#.#.#.L x - ; F L L L L L L L L D ; - c L #.#.#.#.#.#.#.#.#.#.#.",
"#.#.#.#.#.#.#.#.#.#.#.L L L L L L L L L L L L L L L L L L #.#.#.#.#.#.#.#.#.#.#.",
"#.#.#.#.#.#.#.#.#.#.#.#.L L L L L L L L L L L L L L L L #.#.#.#.#.#.#.#.#.#.#.#.",
"#.#.#.#.#.#.#.#.#.#.#.#.L L L L L L L L L L L L L L L ^ #.#.#.#.#.#.#.#.#.#.#.#.",
"#.#.#.#.#.#.#.#.#.#.#.L L L L L L L L L L L L L L L ! | @.#.#.#.#.#.#.#.#.#.#.#.",
"#.#.#.#.#.#.#.#.#.#.#.L L L L L L L L L L L L L L L ( ..@.#.#.#.#.#.#.#.#.#.#.#.",
"#.#.#.#.#.#.#.#.#.#.L L L L L L L L L L L L L L L L L _ @.@.#.#.#.#.#.#.#.#.#.#.",
"#.#.#.#.#.#.#.#.#.#.L L L L L #.L L L L L L L L #.L L _ @.@.#.#.#.#.#.#.#.#.#.#.",
"#.#.#.#.#.#.#.#.#.L L L L L #.#.#.#.#.L L #.#.#.#.#.L U ` @.@.#.#.#.#.#.#.#.#.#.",
"#.#.#.#.#.#.#.#.#.L L L L #.#.#.#.#.#.#.#.#.#.#.#.#.#.L Q @.@.#.#.#.#.#.#.#.#.#.",
"#.#.#.#.#.#.#.#.L L L L #.#.#.#.#.#.#.#.#.#.#.#.#.#.#.#.W } +.@.#.#.#.#.#.#.#.#.",
"#.#.#.#.#.#.#.L L L L #.#.#.#.#.#.#.#.#.#.#.#.#.#.#.#.#.#.I  .+.#.#.#.#.#.#.#.#.",
"#.#.#.#.#.#.#.L L L #.#.#.#.#.#.#.#.#.#.#.#.#.#.#.#.#.#.#.#.I } #.#.#.#.#.#.#.#.",
"#.#.#.#.#.#.#.L L #.#.#.#.#.#.#.#.#.#.#.#.#.#.#.#.#.#.#.#.#.#.E ' #.#.#.#.#.#.#.",
"#.#.#.#.#.#.#.#.#.#.#.#.#.#.#.#.#.#.#.#.#.#.#.#.#.#.#.#.#.#.#.#.#.#.#.#.#.#.#.#.",
"#.#.#.#.#.#.#.#.#.#.#.#.#.#.#.#.#.#.#.#.#.#.#.#.#.#.#.#.#.#.#.#.#.#.#.#.#.#.#.#."
};
