/* XPM */
static char *result[] = {
/* columns rows colors chars-per-pixel */
"64 64 28 1 ",
"  c black",
". c #090709",
"X c #2E0C0C",
"o c #391112",
"O c #3E2606",
"+ c #421111",
"@ c #4D1414",
"# c #741E1E",
"$ c #523208",
"% c #6A2E12",
"& c #832B1D",
"* c #812121",
"= c #9B2727",
"- c #953036",
"; c #A02B2D",
": c #B42E2E",
"> c #CE3434",
", c #D3383A",
"< c #E83B3B",
"1 c #89530D",
"2 c #8D560D",
"3 c #884911",
"4 c #A5640F",
"5 c #C07512",
"6 c #C67812",
"7 c #D48114",
"8 c #F79617",
"9 c None",
/* pixels */
"9999999999999999999999999999999999999999999999999999999999999999",
"9999999999999999999999999999999999999999999999999999999999999999",
"9999999999999999999999999999999999999999999999999999999999999999",
"9999999999999999999999999999999999999999999999999999999999999999",
"9999999999999999999999999999999999999999999999999999999999999999",
"9999999999999999999999999999999999999999999999999999999999999999",
"99999999999999999999999999999999999999+@@@9999999999999999999999",
"99999999999999999999999999999999999997%<<<#999999999999999999999",
"999999999999999999999999999999999999985*<@$999999999999999999999",
"999999999999999999999999999999999999881==%9999999999999999999999",
"9999999999999999999999999999999999998884469999999999999999999999",
"9999999999999999999999999999999999998888999999999999999999999999",
"999999.o99999999999999999999999999998889999999999999999999999999",
"99999 ;,O9999999999999999999999999988889999999999999999999999999",
"99999 &$88999999999999999999999999988899999999999999999999999999",
"9999995888899999999999999999999999888999999999999999999999999999",
"9999998888899999999999999999999999889999999999999999999999999999",
"9999999888889999999999999999999999889999999999999999999999999999",
"99999999888899999999999999999999988999999999999999999999 9999999",
"9999999998888999999999999999999998899999999999999999998$<@999999",
"999999999888899999999999999999999999999999999999999998$=<<@99999",
"999999999988899999999999999999999999999999999999999998$=@:< 9999",
"9999999999988999999999999999999999999999999999999998888181 99999",
"9999999999988999999999999999999999999999999999999988888888999999",
"9999999999998999999999999999999999999999999999999988888899999999",
"9999999999999999999999999999999999999999999999999888889999999999",
"9999999999999999999999999999999999999999999999988888899999999999",
"9999999999999999999999999999999999999999999999988888999999999999",
"9999999999999999999999999999999999999999999999888899999999999999",
"9999999999999999999999999999999999999999999998889999999999999999",
"9999999999999999999999999999999999999999999988899999999999999999",
"9999999999999999999999999999999999999999999889999999999999999999",
"9999999999999999999999999999999999999999998899999999999999999999",
"9999999999999999999999999999999999999999999999999999999999999999",
"9999999999999999999999999999999999999999999999999999999999999999",
"9999999999999999999999999999999999999999999999999999999999999999",
"9999999999999998999999999999999999999999999999999999999999999999",
"9999999999999988999999999999999999999999999999999999999999999999",
"9999999999999889999999999999999999999999999999999999999999999999",
"9999999999988899999999999999899999999999999999999999999999999999",
"9999999988889999999999999998899999999999999999999999999999999999",
"9999999888899999999999999998899999999999999999999999999999999999",
"9999988888999999999999999888999999999999999999999999999999999999",
"999+%$8889999999999999999888999999999999999999999999999999999999",
"99 <<<$899999999999999998899999999999999999999999999999999999999",
"99 <@$8999999999999999658899999999999999999999999999999999999999",
"99 -@88999999999999999%&5899999999999999999999999999999999999999",
"999++89999999999999999:=2999999999999999999889999999999999999999",
"9999999999999999999999+#9999999999999999999888999999999999999999",
"9999999999999999999999999999999999999999999988899999999999999999",
"9999999999999999999999889999999999999999999998888999999999999999",
"9999999999999999999999889999999999999999999998888899999999999999",
"9999999999999999999999899999999999999999999999888899999999999999",
"9999999999999999999988999999999999999999999999988888999999999999",
"9999999999999999999988999999999999999999999999998888899999999999",
"99999999999999999998889999999999999999999999999998881O9999999999",
"999999999999999999888999999999999999999999999999997%:>+999999999",
"999999999999999999888999999999999999999999999999999+@+9999999999",
"9999999999999999998899999999999999999999999999999999999999999999",
"99999999999999999@3899999999999999999999999999999999999999999999",
"99999999999999999@X999999999999999999999999999999999999999999999",
"9999999999999999999999999999999999999999999999999999999999999999",
"9999999999999999999999999999999999999999999999999999999999999999",
"9999999999999999999999999999999999999999999999999999999999999999"
};
