/* XPM */
static char *result[] = {
/* columns rows colors chars-per-pixel */
"26 26 5 1 ",
"  c #192636",
". c #0A6071",
"X c #6AACF0",
"o c #DBFFF8",
"O c None",
/* pixels */
"OOOOOOOOOOOOOOOOOOOOOOOOOO",
"OOOOOOOOOOOOOOOOOOOOOOO OO",
"OO OOOOOOO  OOOOOOOOOO OOO",
"OOO OOOO  OOOOO  OOOO OOOO",
"OOOO O  OOOOOOOOO  O.OOOOO",
"OOOOO OOOOOOOOOOOOO OOOOOO",
"OOOOO .OOO ... OOOX OOOOOO",
"OOOO OOXO OOOOO OXOO OOOOO",
"OOOO OOOXOOOOOOOXOOO OOOOO",
"OOO OOO OXO   OXO OOO OOOO",
"OOOOOO OOO.XXX.OOO OO OOOO",
"OOOOOO.OO XoooX OO.OOOOOoO",
"OOOOOO.OO XoooX OO.OOOOOOO",
"OOO OO.OO XoooX OO.OOOOOOO",
"OOO OO OOO.XXX.OOO OOOOOOO",
"OOOO OO OXO   OXO OO OOOOO",
"OOOO OOOXOOOOOOOXOOO OOOOO",
"OOOOO OXO OOOOO OXO OOOOOO",
"OOOOO XOOO ... OOOX OOOOOO",
"OOOOO.  OOOOOOOOO  XOOOOOO",
"OOOO OOO  OOOOO  OOO.OOOOO",
"OOO OOOOOO  OOOOOOOOO.OOOO",
"OO OOOOOOOOOOOOOOOOOOO OOO",
"OOOOOOOOOOOOOOOOOOOOOOO OO",
"OOOOOOOOOOOOOOOOOOOOOOOO O",
"OOOOOOO.OOOOOOOOOOOOOOOOOO"
};
