/* XPM */
static char *result[] = {
/* columns rows colors chars-per-pixel */
"64 64 110 2 ",
"   c #000000",
".  c #060509",
"X  c #08070D",
"o  c #06090F",
"O  c #0B0B0C",
"+  c #100B0B",
"@  c #0B0A11",
"#  c #0F0D18",
"$  c #001016",
"%  c #141314",
"&  c #1B1414",
"*  c #18171B",
"=  c #1D191A",
"-  c #240404",
";  c #280D0D",
":  c #3D0000",
">  c #221717",
",  c #251B1B",
"<  c #2A1E1E",
"1  c #3F1717",
"2  c #331B1B",
"3  c #391818",
"4  c #021521",
"5  c #1F1D21",
"6  c #211F23",
"7  c #232323",
"8  c #2B2222",
"9  c #262828",
"0  c #2C2B2B",
"q  c #342424",
"w  c #3A2626",
"e  c #332B2B",
"r  c #3C2929",
"t  c #353535",
"y  c #3A3535",
"u  c #3A3939",
"i  c #5D0202",
"p  c #530808",
"a  c #5D0C0C",
"s  c #431709",
"d  c #461111",
"f  c #4A1111",
"g  c #451B1B",
"h  c #4C1818",
"j  c #551717",
"k  c #640C0C",
"l  c #6C0B0B",
"z  c #641010",
"x  c #66200B",
"c  c #69210B",
"v  c #442C2C",
"b  c #492F2F",
"n  c #4D3232",
"m  c #413E3E",
"M  c #513333",
"N  c #444343",
"B  c #494646",
"V  c #4C4A4A",
"C  c #524D4D",
"Z  c #494653",
"A  c #555353",
"S  c #5B5656",
"D  c #5F5959",
"F  c #625D5D",
"G  c #656262",
"H  c #6B6565",
"J  c #6E6868",
"K  c #736C6C",
"L  c #767171",
"P  c #7E7E7E",
"I  c #870C0C",
"U  c #970000",
"Y  c #9F0101",
"T  c #960B0B",
"R  c #9B0C0C",
"E  c #A10C0C",
"W  c #B11111",
"Q  c #882E13",
"!  c #9A3E3E",
"~  c #D10909",
"^  c #D31010",
"/  c #FA0505",
"(  c #F40C0C",
")  c #E21010",
"_  c #E91010",
"`  c #FF1111",
"'  c #DA3A06",
"]  c #DF5517",
"[  c #F84207",
"{  c #E65114",
"}  c #EB5314",
"|  c #F9762D",
" . c #FE782D",
".. c #914F4F",
"X. c #A74040",
"o. c #BC6666",
"O. c #FD5353",
"+. c #D1744A",
"@. c #FB8739",
"#. c #FF9745",
"$. c #818181",
"%. c #8B8B8B",
"&. c #FFBDBD",
"*. c gray77",
"=. c #CACACA",
"-. c gray83",
";. c #DCDCDC",
":. c #EEEEEE",
">. c #F6F6F6",
",. c #FDFDFD",
/* pixels */
"      O                                                                                                                       % ",
"                                                                  -.                                                            ",
"                                                                                                                                ",
"                                                                                                        7                       ",
"                                                                                    >.                                          ",
"                                                                                                                          G     ",
"                                                                              .                               O                 ",
"                                                                                            >.                                  ",
"                                                                                                                            %   ",
"                                                                                                                                ",
"                                                                                                                                ",
"                                                                                                                                ",
"                7                                                                                                               ",
"                                  *.                                                  O                                         ",
"            O                       $.                                                                                          ",
"  O                                                                                                                             ",
"                                                              @ @ @ X                                                           ",
"  O                                                           @ V V @                                                           ",
"                                          O                 ,.# A A # .                                             ;.          ",
"                                                  N   *       u H G 0 .                                                         ",
"                                                            X V K K C X                                                         ",
"    *.                                          =         4 N S H H S e .                                                       ",
"                      X @ X                 .           . N S S B B S C =                                   .                   ",
"                      X < X           . #.#..           X Z S K J K K A $             . #.#..           . <                     ",
"                      X < < 9         @ |  .@.o           e F K F F K F 0             @.| |             < 8               %     ",
"                        > w >   X     +.' [ } o .   .     B K u t y u K B             { [ [ ]       . , q q                     ",
"                        < w w , .     c     Q o           A t 7 G G 7 y C @         o s     x     . , r v 6 .                   ",
"                        < q q q ,   X % = 6 =           y A 9 F K L F 9 A B O .     . = = 5 5   . < w M b <                     ",
"                        8 w w w 6 < @ & w w > @     = y J H H K J J K H H J V 0 X .   > w w <   > 8 v M v 8                     ",
"                        6 w v v < w < , < < % & 0 A H K K K K K K K K L K K K H V e & > > < , < < < v v v <                     ",
"                        2 w v r > v n v v v n 2 e F F F F F S F S S S D F S F F F r , b v v v v r , r v v <                     ",
"                      . < w b v 8 w M M n M M n w 8 6 < < < < < 2 6 < < < < < < 6 q n M n M M n 8 < 2 M v > .                   ",
"                      . < w v M v < w M n n b M b v v v v v v v v v v v v v v v v b n b n n M < < q M n b > .                   ",
"                      . < w v b n b , q M n n n M r w w r r w w w r w r w r r w v M n n n n 8 = , M v v 8 >                     ",
"                        . q w b n M v < r n M n r > = = = , < , , , , < , = = * = w n n M r > r w < 2 < 8 .     B               ",
"                        . < w q b n M v , r M b 8 = = = & , 8 q w q q 8 , & = = , < b M r , v M v q v w <                       ",
"                          X > r r b n b < q M b w = = = > > 8 < < < < 8 , = > = , w b M w 8 n n v 2 r >                     V   ",
"                              6 q r b b , q n n b v q 8 q 8 8 q 8 q 8 8 8 q 8 q r n n M q , b v q < < .             O           ",
"                                % , < q 8 v M n n b r 8 8 9 9 7 8 9 9 8 8 9 8 r b M b M r 6 w & < >                             ",
"                  O                 . < 8 r b n M w 2 j h h h h h h h h h d p 2 w M M v v , O .                                 ",
"      O                                 , , > q < 8 z R E R T T T T T R U Y X.k 8 < 8 > , +                                     ",
"                    %                   . m y = , < k W ( ( ` ` ` ` ` / O.&.o.i < , & y u                                       ",
"                                          V F . . = g k I T ^ _ ) ) _ ~ ! ..k g 8 . . A A                                       ",
"                                                  . = g d ; a l l l l a - : 1 =                                                 ",
"                                                            2 3 2 3 3 <                                                         ",
"                                                                                        u         .                             ",
"                                                                        :.                                                      ",
"                                      O                                 C                                                       ",
"                                                            O                                                                   ",
"                                                                                                                              N ",
"                                                                                                                                ",
"                                                                                                                                ",
"                                                                                                                                ",
"                                      =.                                                                                O       ",
"                                                                                                                                ",
"                                                                                                                                ",
"        L                                                 P                                                                     ",
"                          $.                                          O       .   J                                             ",
"                                                                                          O           =                         ",
"                            .                 t                     ;.        L                                       O         ",
"        9                   %.                                                                                                  ",
"                              O                                           A                                                     ",
"                                                          -.                                                    7               ",
"                                                                                                                                "
};
