/* XPM */
static char *result[] = {
/* columns rows colors chars-per-pixel */
"64 64 112 2 ",
"   c #000000",
".  c #080707",
"X  c #060509",
"o  c #08070D",
"O  c #01080D",
"+  c #0B0A0C",
"@  c #130E0E",
"#  c #1C0C0C",
"$  c #050910",
"%  c #0C0A12",
"&  c #141212",
"*  c #1B1414",
"=  c #19161A",
"-  c #1D1919",
";  c #250000",
":  c #290F0F",
">  c #380909",
",  c #221616",
"<  c #2A1111",
"1  c #251C1C",
"2  c #2A1E1E",
"3  c #341414",
"4  c #321C1C",
"5  c #1E1C21",
"6  c #201D22",
"7  c #232323",
"8  c #2A2222",
"9  c #262828",
"0  c #2B2B2B",
"q  c #332323",
"w  c #3A2626",
"e  c #352929",
"r  c #3C2828",
"t  c #2D2C31",
"y  c #333333",
"u  c #383434",
"i  c #3B3A3A",
"p  c #5D0202",
"a  c #530808",
"s  c #5C0D0D",
"d  c #4A1111",
"f  c #4C1818",
"g  c #551717",
"h  c #620606",
"j  c #6B0B0B",
"k  c #641010",
"l  c #482222",
"z  c #442C2C",
"x  c #482F2F",
"c  c #4D3232",
"v  c #513434",
"b  c #792424",
"n  c #444343",
"m  c #494747",
"M  c #4C4B4B",
"N  c #524D4D",
"B  c #555151",
"V  c #5C5656",
"C  c #5F5959",
"Z  c #625E5E",
"A  c #656262",
"S  c #6B6565",
"D  c #6A6A6A",
"F  c #736C6C",
"G  c #767272",
"H  c #787070",
"J  c #7E7E7E",
"K  c #880C0C",
"L  c #970000",
"P  c #960B0B",
"I  c #990C0C",
"U  c #9F1717",
"Y  c #A10C0C",
"T  c #B11111",
"R  c #8B2909",
"E  c #982F0B",
"W  c #983A0F",
"Q  c #A3310B",
"!  c #BB3404",
"~  c #9B3D3D",
"^  c #D00303",
"/  c #D30F0F",
"(  c #FA0000",
")  c #F40C0C",
"_  c #E21010",
"`  c #E91010",
"'  c #FE1111",
"]  c #CD3F0F",
"[  c #F64406",
"{  c #FC4506",
"}  c #EC5514",
"|  c #EC5B18",
" . c #D07B38",
".. c #FC772D",
"X. c #FE782E",
"o. c #945555",
"O. c #A74040",
"+. c #BD6565",
"@. c #FB5151",
"#. c #FA8639",
"$. c #FF893A",
"%. c #FE9645",
"&. c #818181",
"*. c #8D8D8D",
"=. c gray59",
"-. c #B1B1B2",
";. c gray77",
":. c #CACACA",
">. c gray83",
",. c #DCDCDC",
"<. c #FFC0C0",
"1. c #F6F6F6",
/* pixels */
"      +                                                                                                                       & ",
"                                                                  >.                                                            ",
"                                                                                                                                ",
"                                                                                                        7                       ",
"                                                                                    1.                                          ",
"                                                                                                                          A     ",
"                                                                              X                               +                 ",
"                                                                                            1.                                  ",
"                                                                                                                            &   ",
"                                                                                                                                ",
"                                                                                                                                ",
"                                                                X X X X X   X X X                                               ",
"                7                                     o   o   2 2 2 2 2 2 1 2 2 1                                               ",
"                                  ;.                  X 1 2 1 r w w w r z z w 2 o     +                                         ",
"            +                       &.              o 1 2 w z z x x x z z w 1 o X                                               ",
"  +                                               + 1 2 v x c v z r r w w .                                                     ",
"                                                o 1 q c c c v z 6 1 1 , @                                                       ",
"  +                                               2 z c c v z 1 w z q & o                                                       ",
"                                          +     X 1 x c v z 2 w v v *   o                                           ,.          ",
"                                              X & r x x z 1 w c v z 1 = & R W % X                                               ",
"                                          O o - , 2 2 2 1 w v c v x 2 q -   ! ..%.                                              ",
"    ;.                                  + M n 1 w z q w r c c c v x 2 w 5 X [ X.%.X                                             ",
"                                        $ Z u , x v v v v v c c v v 2 2 5 ] } #.o                                               ",
"                                        + % - 4 c c c c x c c v c 4 6       o X                                                 ",
"                            9             o & 8 v c c w 8 e v x w e n       X                                             &     ",
"                            +         *.  @ 1 4 e c r , - , z z 8 Z B %   .                                                     ",
"                                        + < b k 4 r w - - - w z 8 Z Z n X X .                                                   ",
"                        &               # h T Y g 7 8 - - - r z 8 Z H N o X X X                                                 ",
"                                        3 K ) Y f 9 q - - * r z 2 C F S N o o o X                                               ",
"                                        l P ) P f 8 q 1 1 1 r z 8 V G D B B N n u 9 o                                           ",
"                                    M 4 s / ' P f 8 q 2 8 1 e z 8 V G S 9 i H Z B B y o X                                       ",
"                                      4 j ` ' P f 9 8 2 w 1 w z 8 V G D Z 7 c F F V B N 0 X                                     ",
"                                    -.# j _ ' I f 8 q 1 q 1 w z 2 Z F S H A u Z S m S F S N 9           =.                      ",
"                                      # j _ ' I f 9 8 2 q 1 w z 2 V F S H A y A F m S F S B M X                                 ",
"                              X m     < j ` ' I f 9 q 2 q 1 w z 2 Z F F Z 7 i F F V V N e X                     n               ",
"                                      * s ^ ( I f 8 8 2 q 8 r z 8 V F S 9 u F Z V B t         0                                 ",
"                                      % > ~ @.L f 9 q 1 , 1 e z 8 V H S B B N i y 7                                         M   ",
"                                      X ; o.<.U d 9 q * - - r z 8 C F S n   X                                       +           ",
"                                        : p +.O.a 7 q , - - r z 2 Z G M X                   &                                   ",
"                  +                   X 6 3 p h 4 e w - - * w z 2 Z S 0                                                         ",
"      +                                 X 1 1 8 e c r - - , z z 2 Z n X                                                         ",
"                    &                     X * 2 v c v w 8 e v x q w u                                                           ",
"                                            - 4 c c c c c c c c x 2 *       o                                                   ",
"                                          Z u , x v c c v v c c v z , , 5 E } $.                                                ",
"                                          M n 1 r z q w r c c c v x 2 q - X { X.%.                                              ",
"                                          X   & 1 1 1 2 2 w v c c x 2 q = X [ X. .      i         X                             ",
"                                              X # w z c z 1 w v v z , 6 t Q |                                                   ",
"                                      +           8 x c v z 1 w v z , + n X X                                                   ",
"                                                  @ q x c v z 1 q q , .                                                         ",
"                                                  X q z x x v x 1 * * @ X                                                     n ",
"                                                    # w z x x v z q 4 2 * .                                                     ",
"                                                      1 w z z z z z w z r , 1 X                                                 ",
"                                                        + 8 q z z w w l r q q 2                                                 ",
"                                      :.                    1 2 2 + 2 2 8 1 6 4 1                                       +       ",
"                                                              X                                                                 ",
"                                                                                                                                ",
"        G                                                 J                                                                     ",
"                          &.                                          +       X   D                                             ",
"                                                                                          +           -                         ",
"                            X                 u                     ,.        G                                       +         ",
"        7                   *.                                                                                                  ",
"                              X                                           V                                                     ",
"                                                          >.                                                    7               ",
"                                                                                                                                "
};
