/* XPM */
static char *result[] = {
/* columns rows colors chars-per-pixel */
"64 64 144 2 ",
"   c #010101",
".  c #080607",
"X  c #090807",
"o  c #060609",
"O  c #08070B",
"+  c #07080A",
"@  c #0A0A0B",
"#  c #110D0E",
"$  c #030C11",
"%  c #0D0B13",
"&  c #080F19",
"*  c #100F15",
"=  c #110F1B",
"-  c #0A131F",
";  c #121216",
":  c #1A1413",
">  c #14131C",
",  c #1D191A",
"<  c #3F0707",
"1  c #251C1C",
"2  c #2A1E1E",
"3  c #3F1717",
"4  c #341B1B",
"5  c #391818",
"6  c #0E1320",
"7  c #041D2C",
"8  c #151220",
"9  c #181425",
"0  c #121B24",
"q  c #1D1D22",
"w  c #1F2121",
"e  c #0C3A3E",
"r  c #242424",
"t  c #2B2222",
"y  c #25242B",
"u  c #2A2B2B",
"i  c #332424",
"p  c #3A2726",
"a  c #352929",
"s  c #3B2929",
"d  c #282730",
"f  c #2C2C34",
"g  c #333434",
"h  c #3B3434",
"j  c #32323B",
"k  c #3D3939",
"l  c #4A0000",
"z  c #530808",
"x  c #411515",
"c  c #4C1212",
"v  c #461C1C",
"b  c #4C1818",
"n  c #551717",
"m  c #6B0303",
"M  c #640B0B",
"N  c #6E0F0F",
"B  c #770000",
"V  c #700E0E",
"C  c #7C0E0E",
"Z  c #651010",
"A  c #711010",
"S  c #58291C",
"D  c #442C2C",
"F  c #4A2F2F",
"G  c #413535",
"H  c #4D3232",
"J  c #423F3F",
"K  c #513434",
"L  c #454444",
"P  c #494747",
"I  c #42414E",
"U  c #4C4A4A",
"Y  c #544F4F",
"T  c #474654",
"R  c #494856",
"E  c #4D4C5B",
"W  c #504E5D",
"Q  c #545151",
"!  c #5B5656",
"~  c #5F5959",
"^  c #625E5E",
"/  c #585767",
"(  c #5D5C6D",
")  c #605F72",
"_  c #676262",
"`  c #6B6565",
"'  c #6F6868",
"]  c #736C6C",
"[  c #656478",
"{  c #69677C",
"}  c #6B697E",
"|  c #777070",
" . c #787171",
".. c #830C0C",
"X. c #970000",
"o. c #9F0101",
"O. c #970B0B",
"+. c #9A0D0D",
"@. c #A10B0B",
"#. c #B21111",
"$. c #803319",
"%. c #D10909",
"&. c #D31010",
"*. c #FA0505",
"=. c #F40C0C",
"-. c #E21010",
";. c #E91010",
":. c #FF1111",
">. c #FF4705",
",. c #FF4806",
"<. c #F2480D",
"1. c #FF4B0A",
"2. c #FF5916",
"3. c #FF5E1B",
"4. c #FD772D",
"5. c #FD782E",
"6. c #A44040",
"7. c #A65A5A",
"8. c #8B7171",
"9. c #BC6666",
"0. c #FD5353",
"q. c #FF893A",
"w. c #F08E41",
"e. c #FF9745",
"r. c #727086",
"t. c #A48484",
"y. c #8786A1",
"u. c #8886A1",
"i. c #8D8AA6",
"p. c #9895B4",
"a. c #9C9AB9",
"s. c #FFBDBD",
"d. c #A5A3C3",
"f. c #B0AED1",
"g. c #B4B1D4",
"h. c #BEBCE1",
"j. c #C7C5EC",
"k. c #DBD9FF",
"l. c #E6E4FF",
"z. c #E9E7FF",
"x. c #ECE9FF",
"c. c #F0EDFF",
"v. c #F7F3FF",
"b. c #FFFFFF",
/* pixels */
"                                                                                                                        .       ",
"                                                                                                                                ",
"                                            .               .           .     .                                                 ",
"                                                                          u       .                 .             .             ",
"    . X @ + X                         +                                 . ,                     + d @                           ",
"  @ ; w r q > @         . .                       @                           .                   * .                           ",
"@ > I u.d.i.T > @     . . h .                                                                                                   ",
"% d a.x.b.v.d.j ; .       : .                     .                                                                             ",
"q ) k.b.b.b.z.} > +     .                                                               .                       @               ",
", r.v.b.b.b.b.y.q @           .   +                                                               .                 .           ",
"> } x.b.b.b.b.y.q @           @                                                                                     @ ,         ",
"; R j.b.b.b.z.r., +       X                                                   .                 . + .               . .         ",
"% r i.l.b.b.g.I ; .                   .                                   .                   + @ > @ +                         ",
"X ; T p.h.g.r.q @                                                 O   .   f @               + @ E E @ .                         ",
"  @ > I [ ( d % o                                                           o               O q / E @ .                         ",
"    @ ; ; ; % @                                                         .     .             . * j > @                           ",
"      X + .                           .                                                       . + @ X                           ",
"  +                       .             r @                       o                       @               .                     ",
"                                                        o @ o O O                       .                                       ",
"                                                    o % 4 5 4 4 5 4 % o O >                                                     ",
"                                        .     8 r 3 l < A ..C C ..N x c 3 w %   @ % o                                         . ",
"                            .         Q ^ @ 8 t v B 7.6.%.;.-.-.;.&.+.+.C v t = = ^ Q o     O                                   ",
"                                    O L k 1 1 t m 9.s.0.*.:.:.:.:.:.=.=.#.N i 1 2 k L =                                   .   + ",
"    @                             % 1 2 1 s i i M 6.o.X.+.O.O.O.O.+.+.@.@.M t i p 2 1 1 9 %                                     ",
"                              o = 2 i p D K K a 4 z c b b b b b b b b b n 4 a K K D s i 1 9 = O @                               ",
"  .                       % : t p s 2 D K H K H s r t r t t t u y t r t r s H H H K D t D p 2 1 @                               ",
"                        @ 1 p D K H 2 i H H K s i i i i t t i t t i i i i i s H H H p 1 F K D i 1 =                 %           ",
"                        1 s H H H F 2 i K H p : , , , 1 2 2 2 2 2 2 1 : 1 , , s H H a 2 F H H K s 1 =                 .         ",
"                      : s K H H K D 1 s K F 2 1 , , 1 1 i t i i i i 1 : , , 1 2 F K s 1 D H H H K s 2                           ",
"  @                 @ t H H F K D 2 s H H H p 1 : , : 1 2 1 1 1 1 1 1 1 , : 1 p H H H s 2 D K H H H i =                         ",
"                    2 D H H K D 1 p K H H H H s p s p p p p p p i p p p p p s K H H H K p 1 D K H H D 2 o                       ",
"                  o 2 F K K D 2 i K H H H H H D D D D D D D D D D D D D D D D F H F H H H p 2 D K K D 2 o                       ",
"                  @ 2 F K D 2 i K K H K K F i t t 2 t t t t t t t t t 2 2 t t i H K H H K K i 2 D K F 2 O                   . . ",
"                  % 2 D K s 1 D H D F F F 4 h ^ ^ ~ ! ~ ! ! ! ! ! ! ~ ! ^ ! ^ s 4 F D F F H D 1 s K D 2 o                   o U ",
"        .         % 2 D K D 2 p i 2 t 2 2 2 J Y _ | ] ]  .] ] ] ]  .] ] ] ` Q J 2 2 t t 2 i s 2 D K D t o   .               @ X ",
"                  % 2 D K F 2 : o > i s , = @ o L Y ' ` ` ] ' ' ] ` ` ] Q L > % % , p i 0 9 2 2 D K D 2 o                       ",
"                  % 2 D K p #   o A w w S @       = ! Q u ^ ] | ^ d Q ! > o     O S 0 0 $.    1 p K D 2 O                       ",
"                  % t D p @     o 1.0 0 <.          = Y h r _ _ r h Y =         % <.9 9 1.    & 1 s F 2 7         @             ",
"                  % i i ,       o 3.1.1.2.          % Y  .k g g k | Y @         o 2.,.1.3.6     o 1 i t 7                       ",
"                  @ 2 2           % 5.5.q.          o P ^ ] ^ ^ ] ^ L o         o q.4.5.6           2 2 e         .             ",
"        .           1             o w.e.%             9 Q ] ] ' ] Q 9 +           % e.e.o           O , $                       ",
"    . u                           o                   L ! ! P U ! ! L               o o           o   ,                         ",
"        .                                             > P Q ` ` Q L @                                                           ",
"      .                                               % 9 ! ] ] ! =                   @                                         ",
"                                                  O     = P ` ` P @                                   o                         ",
"  @                                               @       8 ! ! %                                                               ",
"                                                          % U U %                                                               ",
"              @                                             % %                                                                 ",
"                .                                                                                                               ",
"  .                       o               X                                               .               .                     ",
".                                 . r                                                                           ;       .       ",
",                                                                                                                 . . @ @       ",
"          +                                                                                                                     ",
"  X j                       .                                                               .               .           .       ",
"    o                                                                                                   . X @ X @ .             ",
"                                              ; o   .     X         @                                   . @ h 1 X . .           ",
"                                            .                                                           @ 1 t.8.# .             ",
"  o                       @                     .                 @                       @             . # G G @               ",
"                                                    @                                                     @ @ @ @ .             ",
"                                                      .                                                       .                 ",
"                                                                                                                                ",
"                                                                  +                                                             ",
"                                                                                        .                                       ",
"                . @ + o                                                                                                         "
};
