/* XPM */
static char *result[] = {
/* columns rows colors chars-per-pixel */
"64 64 131 2 ",
"   c #020304",
".  c #080607",
"X  c #060906",
"o  c #080807",
"O  c #06060A",
"+  c #08070B",
"@  c #06090B",
"#  c #0A0A0C",
"$  c #100F0E",
"%  c #0C120C",
"&  c #11120F",
"*  c #10180F",
"=  c #070D13",
"-  c #0C0B13",
";  c #120F14",
":  c #110D1A",
">  c #0F1710",
",  c #06111A",
"<  c #0F1518",
"1  c #141413",
"2  c #1B1515",
"3  c #121C13",
"4  c #14111C",
"5  c #1E161A",
"6  c #1E1919",
"7  c #201718",
"8  c #241B1B",
"9  c #2A1E1E",
"0  c #331B1B",
"q  c #3C1818",
"w  c #172117",
"e  c #1C281B",
"r  c #0E192B",
"t  c #161322",
"y  c #181425",
"u  c #1D1C21",
"i  c #221F24",
"p  c #241D2B",
"a  c #1D2123",
"s  c #1E2D21",
"d  c #242424",
"f  c #2A2222",
"g  c #2A2C2B",
"h  c #332424",
"j  c #3A2727",
"k  c #352A2A",
"l  c #3B2929",
"z  c #233323",
"x  c #273A27",
"c  c #2B3F2B",
"v  c #30312F",
"b  c #2E283A",
"n  c #333533",
"m  c #3B3737",
"M  c #393937",
"N  c #3D3B3B",
"B  c #4A0000",
"V  c #400A0A",
"C  c #530808",
"Z  c #411616",
"A  c #4C1212",
"S  c #461C1C",
"D  c #4C1818",
"F  c #551717",
"G  c #640606",
"H  c #6B0000",
"J  c #6E0E0E",
"K  c #780404",
"L  c #710F0F",
"P  c #7C0E0E",
"I  c #651010",
"U  c #721212",
"Y  c #442C2C",
"T  c #4D3232",
"R  c #513434",
"E  c #314630",
"W  c #334933",
"Q  c #332B40",
"!  c #4B3E5B",
"~  c #434343",
"^  c #484646",
"/  c #544F4F",
"(  c #545151",
")  c #5B5656",
"_  c #5F5959",
"`  c #625E5E",
"'  c #4B6B4E",
"]  c #577D59",
"[  c #5C4C6F",
"{  c #676262",
"}  c #6B6666",
"|  c #736C6C",
" . c #777070",
".. c #787070",
"X. c #830C0C",
"o. c #970000",
"O. c #970B0B",
"+. c #9A0C0C",
"@. c #9F1717",
"#. c #A10C0C",
"$. c #B21111",
"%. c #A03F3F",
"&. c #D20303",
"*. c #D30F0F",
"=. c #FA0000",
"-. c #F40C0C",
";. c #E21010",
":. c #E91010",
">. c #FE1111",
",. c #A05726",
"<. c #D7410E",
"1. c #E0420D",
"2. c #FD4407",
"3. c #FF5C15",
"4. c #F05D19",
"5. c #FF631A",
"6. c #FF782E",
"7. c #A74040",
"8. c #A66060",
"9. c #BD6565",
"0. c #FB5151",
"q. c #5E845C",
"w. c #71A270",
"e. c #E0853D",
"r. c #FE893A",
"t. c #F08E41",
"y. c #FF9745",
"u. c #B1FCAF",
"i. c #A08AC7",
"p. c #BEA1E8",
"a. c #FFC0C0",
/* pixels */
"                                        O               O               .     .     .   .     .     . . .                       ",
"        X         X X                                         O       . 1       .       .                                       ",
"                  X     X                                                   .         .     . .                                 ",
"X X   X X     X                                 O O                       .     .               .   .                           ",
"    X                         X                 O O                       .               .   .                                 ",
"        X   X       X           O             X                       .     .   .   .                         .                 ",
"X X             X   X                                       O     .                                   .                         ",
"          X               X                                                 .       .     .   . .           . m :               ",
"      X X     X           X     X                                                   .       + + - # +         1 o               ",
"X                 X X                         o + + + + + O O .               . .         . - 5 p : +                           ",
"X         X X       X     X X                 9 i 0 i 9 i 9 9 9 9 5 .                   + + : [ p.b - O                         ",
"$ o X                             X     X     @ 9 h Y T Y Y Y Y Y Y 0 8 +           .     . ; ! i.b - O                         ",
"                    X                 X           5 j R R R R R R T T l 8 #                 - : i : # O                         ",
"o       o     X X X X X X     X X                 @ 4 j Y Y Y Y R T T R j 8 O               + + + +                             ",
"      # ) o   X X % * % X X                     #   . 8 9 9 8 9 Y R T T R j 2                     O   .                     O   ",
"      X o       % e q.E * X   X   X     X       X     O 7 j Y h 9 Y R T R Y 9 :   .                                     -       ",
"X             X % E u.w.* X       X     X         O O + - h T R k 9 Y T R R j y -                                       #       ",
"    X   X     X X w E s % X X                 o - 5.<.u 9 9 Y R R h 9 Y T T l 9 y -                                             ",
"X   X         X X % % % % X           X     @ y.6.2.y i h f Y R T R j 9 9 9 9 0 k t -                                           ",
"        X           X X X         X           t.6.2.y i h 9 T R T T T j h h j Y i ^ ( O     O             .         O           ",
"X             X     X     X         X         X ,.3.<.u 9 9 T R T T T R R T R Y 8 m ` -               +                         ",
"      X           X           X X                     O : 9 0 T T T T T T R T T j 8 : O                                       O ",
"                    X                         X         o ~ Y h T T j i h T T R h 9 t                         .                 ",
"X       X   X           X       X                   X ; + ( ` i Y Y 7 8 8 l T k h 0 i t                                 .       ",
"    X             X           X X               X   o < ~ } ` 9 Y j 6 6 6 h j 0 G H S d O   O                                   ",
"                        X             X               - / | ) 9 Y h 6 6 6 h d C 7.9.K q -                           .       .   ",
"        X   X     X X X     X               X , , , r ( | | ` 9 Y l 7 6 6 h d A @.a.8.B -                                       ",
"      X         X X X X X             X   = ~ R ^ / / ( | | ) 9 Y j 8 8 8 h g D o.0.%.V :             .         .             . ",
"X       X     X % * w > X X     X     # 4 ~ ) ( ` | m g }  .) 9 Y j 8 h 9 f f D +.=.&.U 0 +                   .         . .     ",
"              X % x q.s % X   X     $ ~ ) ) ) | | N d ` | | ` i Y j 8 h 8 h f D O.>.:.X.q :                       .             ",
"      X X X   X % x ' e % X     @ ! / } | } ^ | ` n }  .} | ) f Y j 9 h 9 f g D O.>.;.P 0 :             .             .       . ",
"X             X % % 3 >   X       W ) } | } ^ | ` n {  .} | ) f Y j 8 h 9 h d D O.>.;.P q :                       .     .   .   ",
"                X X % % X   X       > ^ ) ) )  . .T d ` | | ` 9 Y j 9 h 9 h d D O.>.:.X.q y                             . .     ",
"X   X     X   X     X X             X t y ~ ) _ ` | m g } | ) f Y j 9 f 9 f f D +.>.*.L 0 y                       . .       .   ",
"        X       X   X     X   X         @ t ~ Q ~ ( ( ( } | ) f Y j 8 8 8 h d D +.-.+.Z t :               .       .             ",
"    X                                       : - @ = : ) | | ) f Y j 6 6 2 h g D #.-.+.A :                                   .   ",
"X     X                         X     X X           O t (  ._ 9 Y j 6 6 6 h d F #.$.P Z - O                       .   . & v .   ",
"        X   X   X   X   X     X                       X N } _ f Y j 6 6 6 h j 0 I J S a ,                               1 v     ",
"                                X                       y ( ` f Y l 8 6 7 l T k h f 8 -                         .           .   ",
"      X X     X       X X           X     X             + ^ k h T R j h h R T R h 5                         O       .           ",
"X       X     X     X     X   X                 O = O O O f 0 T T T T T T T T R h 8 O                               .       .   ",
"                  X     X             X X     # r.3.<.u 0 i T R T T T T R T R Y 8 T ` @                 .     .                 ",
"      X                                     = y.6.2.t i h 9 Y R T T T l h h Y j d ^ ( =                         .       .       ",
"X       X     X     X         X X             e.6.2.y i h h Y R T T j 9 9 9 9 0 k : : O               .             . X       . ",
"  X   X     X   X               X     X   X     - 4.1.u i 8 T R R h 8 Y T T Y 8 -   O                             .         .   ",
"                    X     X   X X                   + + 4 h T R j 9 Y R T T h :                   .       .   .                 ",
"                                            X         ; 9 Y Y h 9 Y R T R Y 9 +                       +       .     .         . ",
"  X     X     X   X       X     X     X             + 8 9 8 8 i Y R T T R h 1                         .         $ #             ",
"    X   X         X                   X           - 7 j Y Y Y Y R T T T j 8                 .       .           2 &       .     ",
"                    X     X       X   X   X     + i j R R R R R T R T j 8 -           .                   .                     ",
"                  X       X X                 , 9 h T Y Y Y Y Y T l 0 2                   .     .     .               .         ",
"      X                               X X     8 7 8 7 5 7 7 7 5 8 5 O           .                           .           .     . ",
"                            X         X                                               .     .             .           .     .   ",
"                    X           X                                                                             .                 ",
"      X   X     X       X   X                                                                       .           .         .   . ",
"                                        X                                               +                                       ",
"                    X       X   X   X   X             O                                 O         O                         .   ",
"                                                                                O     O # O     g n                             ",
"                X             X     X         O                             O           O       1 &                             ",
"                                            X                                                             O                   . ",
"  X                 X   X       X O o         O   O                     O                                                       ",
"  X                           X   + 1                                 O         O                                               ",
"      < @ X                                                                                                                 +   ",
"  X X a =     X                                         O                                                                       "
};
